<svg id="icon-eraser" xmlns="http://www.w3.org/2000/svg" width="120" height="120" viewBox="0 0 120 120">
  <path id="drop-shadow" d="M992.524,1645.412l-14.9-14.9a5.141,5.141,0,0,0-7.276,0l-20.819,20.818a5.118,5.118,0,0,1,1.634,1.095l14.9,14.9a5.146,5.146,0,0,1,.008,7.268l-8.336,8.337a5.142,5.142,0,0,1-7.277,0l-14.905-14.905a5.094,5.094,0,0,1-.952-1.364,5.13,5.13,0,0,0,.952,5.912l14.905,14.9a5.142,5.142,0,0,0,7.277,0l34.789-34.787A5.149,5.149,0,0,0,992.524,1645.412Z" transform="translate(-904.039 -1596.72)" opacity="0.3"/>
  <path id="colour" d="M992.524,1640.864l-14.9-14.9a5.142,5.142,0,0,0-7.276,0l-34.791,34.789,0,0,8.331-8.331a5.142,5.142,0,0,1,7.277,0l14.9,14.9a5.146,5.146,0,0,1,.008,7.268l-8.336,8.337,34.789-34.788A5.149,5.149,0,0,0,992.524,1640.864Z" transform="translate(-904.039 -1596.72)" fill="current"/>
  <path id="shadow" d="M992.524,1642.595l-34.789,34.787a5.141,5.141,0,0,1-7.277,0l-14.905-14.9a5.117,5.117,0,0,1-.688-.865,5.144,5.144,0,0,0,.688,6.413l14.905,14.905a5.142,5.142,0,0,0,7.277,0l34.789-34.788a5.144,5.144,0,0,0,.69-6.413A5.161,5.161,0,0,1,992.524,1642.595Z" transform="translate(-904.039 -1596.72)" fill="rgba(0,0,0)" opacity="0.5"/>
  <rect id="Frame" width="120" height="120" fill="none"/>
</svg>
