<svg id="icon-drawing-arrow-left" xmlns="http://www.w3.org/2000/svg" width="120" height="120" viewBox="0 0 120 120">
  <rect id="frame" width="120" height="120" fill="none"/>
  <path id="drop-shadow" d="M1045.009,1343.887l-16.538,16.75,1.987,1.987,14.551-14.737a5.468,5.468,0,0,0,1.686-3.791,5.966,5.966,0,0,0-.45-2A5.461,5.461,0,0,1,1045.009,1343.887Z" transform="translate(-968.279 -1299.012)" fill="rgba(0,0,0)" opacity="0.3"/>
  <path id="drop-shadow-2" data-name="drop-shadow" d="M1045.009,1384.975l-7.689,7.689a5.23,5.23,0,0,1-4,1.686,5.458,5.458,0,0,1-3.791-1.686l-28.02-28.125a5.088,5.088,0,0,1-1.294-1.841,5.155,5.155,0,0,0-.392,2.048,5.1,5.1,0,0,0,1.686,3.793l28.02,28.125a5.458,5.458,0,0,0,3.791,1.686,5.23,5.23,0,0,0,4-1.686l7.689-7.689a5.469,5.469,0,0,0,1.686-3.793,5.4,5.4,0,0,0-.4-2.129A5.455,5.455,0,0,1,1045.009,1384.975Z" transform="translate(-968.279 -1299.012)" fill="rgba(0,0,0)" opacity="0.3"/>
  <path id="colour" d="M1046.695,1340.1a5.976,5.976,0,0,0-.777-2.641,5.448,5.448,0,0,0,.777-2.6,5.985,5.985,0,0,0-1.686-3.9l-7.689-7.584c-.952-1.369-2.214-1.686-3.9-1.686a4.746,4.746,0,0,0-3.793,1.686l-28.118,28.234a5.16,5.16,0,0,0-1.686,3.9,5.087,5.087,0,0,0,.7,2.576,5.238,5.238,0,0,0,.988,6.463l28.02,28.125a5.458,5.458,0,0,0,3.791,1.686,5.23,5.23,0,0,0,4-1.686l7.689-7.689a5.469,5.469,0,0,0,1.686-3.793,5.394,5.394,0,0,0-.723-2.734,5.24,5.24,0,0,0-.858-6.412L1031.077,1358l13.932-14.11A5.468,5.468,0,0,0,1046.695,1340.1Z" transform="translate(-968.279 -1299.012)" fill="current"/>
  <path id="shadow" d="M1045.009,1379.729l-7.689,7.689a5.231,5.231,0,0,1-4,1.686,5.458,5.458,0,0,1-3.791-1.686l-28.02-28.125a5.091,5.091,0,0,1-.988-1.217,5.238,5.238,0,0,0,.988,6.463l28.02,28.125a5.458,5.458,0,0,0,3.791,1.686,5.23,5.23,0,0,0,4-1.686l7.689-7.689a5.469,5.469,0,0,0,1.686-3.793,5.394,5.394,0,0,0-.723-2.734A5.446,5.446,0,0,1,1045.009,1379.729Z" transform="translate(-968.279 -1299.012)" fill="rgba(0,0,0)" opacity="0.5"/>
  <path id="shadow-2" data-name="shadow" d="M1045.009,1338.641l-16.538,16.75,2.606,2.606,13.932-14.11a5.468,5.468,0,0,0,1.686-3.791,5.976,5.976,0,0,0-.777-2.641A5.426,5.426,0,0,1,1045.009,1338.641Z" transform="translate(-968.279 -1299.012)" opacity="0.5"/>
</svg>
