<svg id="icon-drawing-arrow-right" xmlns="http://www.w3.org/2000/svg" width="120" height="120" viewBox="0 0 120 120">
  <rect id="frame" width="120" height="120" fill="none"/>
  <path id="drop-shadow" d="M892.306,1364.268l-28.02,28.125a5.458,5.458,0,0,1-3.791,1.686,5.228,5.228,0,0,1-4-1.686l-7.689-7.689a5.453,5.453,0,0,1-1.281-1.922,5.4,5.4,0,0,0-.405,2.129,5.471,5.471,0,0,0,1.686,3.793l7.689,7.689a5.228,5.228,0,0,0,4,1.686,5.458,5.458,0,0,0,3.791-1.686l28.02-28.125a5.241,5.241,0,0,0,1.294-5.841A5.088,5.088,0,0,1,892.306,1364.268Z" transform="translate(-807.534 -1298.743)" fill="rgba(0,0,0)" opacity="0.3"/>
  <path id="drop-shadow-2" data-name="drop-shadow" d="M863.357,1362.355l1.987-1.987-16.538-16.75a5.46,5.46,0,0,1-1.236-1.788,5.993,5.993,0,0,0-.45,2,5.469,5.469,0,0,0,1.686,3.791Z" transform="translate(-807.534 -1298.743)" fill="rgba(0,0,0)" opacity="0.3"/>
  <path id="colour" d="M893.992,1355.229a5.156,5.156,0,0,0-1.686-3.9L864.188,1323.1a4.746,4.746,0,0,0-3.793-1.686c-1.686,0-2.948.317-3.9,1.686l-7.689,7.584a5.99,5.99,0,0,0-1.686,3.9,5.449,5.449,0,0,0,.777,2.6,5.978,5.978,0,0,0-.777,2.641,5.469,5.469,0,0,0,1.686,3.791l13.932,14.11L848.7,1371.765a36.929,36.929,0,0,1-1.581,9.146,5.471,5.471,0,0,0,1.686,3.793l7.689,7.689a5.228,5.228,0,0,0,4,1.686,5.458,5.458,0,0,0,3.791-1.686l28.02-28.125a40.986,40.986,0,0,1,1.686-9.039Z" transform="translate(-807.534 -1298.743)" fill="current"/>
  <path id="shadow" d="M862.738,1357.728l2.606-2.606-16.538-16.75a5.43,5.43,0,0,1-.909-1.186,5.978,5.978,0,0,0-.777,2.641,5.469,5.469,0,0,0,1.686,3.791Z" transform="translate(-807.534 -1298.743)" opacity="0.5"/>
  <path id="shadow-2" data-name="shadow" d="M892.306,1359.022l-28.02,28.125a5.458,5.458,0,0,1-3.791,1.686,5.229,5.229,0,0,1-4-1.686l-7.689-7.689a5.437,5.437,0,0,1-.962-1.281,5.375,5.375,0,0,0-.724,2.734,5.471,5.471,0,0,0,1.686,3.793l7.689,7.689a5.228,5.228,0,0,0,4,1.686,5.458,5.458,0,0,0,3.791-1.686l28.02-28.125a5.24,5.24,0,0,0,.989-6.463A5.119,5.119,0,0,1,892.306,1359.022Z" transform="translate(-807.534 -1298.743)" fill="rgba(0,0,0)" opacity="0.5"/>
</svg>
