<svg id="icon-fill-brush" xmlns="http://www.w3.org/2000/svg" width="120" height="120" viewBox="0 0 120 120">
  <g id="handle" transform="translate(-906.57 -1739.878)">
    <path id="Path_1776" data-name="Path 1776" d="M992.533,1778.5v-.275h0a13.913,13.913,0,0,0-.038-1.893c-.005-.058-.009-.118-.015-.175a7.485,7.485,0,0,0-.3-1.483c-.018-.055-.037-.109-.056-.162a4.613,4.613,0,0,0-.589-1.166c-.018-.025-.039-.045-.057-.069a3.825,3.825,0,0,0-.925-.888v0a4.893,4.893,0,0,0-1.224-.565c-.057-.018-.112-.039-.17-.057a8.2,8.2,0,0,0-1.489-.268c-.092-.009-.186-.017-.28-.024-.188-.013-.372-.028-.571-.033a22.965,22.965,0,0,0-3.97.266c-1.621.227-2.615,2.048-3.474,3.417-.482.766-1.95,3.733-2.316,4.558-1.146,2.569-5.2,7.821-8.065,7.965-1.278-.027-2.75-1.148-4.28-2.4l-.678-.556c-1.588-1.3-3.212-2.573-4.716-2.735-.053,0-.1,0-.157,0a2.775,2.775,0,0,0-.641,0c-3.252.393-9.268,6.837-9.268,6.837l-2.573,2.515-.081-.081L932.7,1804.9h-.013v.093l-.09.087v6.736l25.485,25.066,4.325-4.229,12.514-12.056s6.551-5.917,6.951-9.114a2.758,2.758,0,0,0,0-.341h.009v-6.756h-.009v0a2.718,2.718,0,0,1,0,.362c0,.015-.008.031-.01.045v-.4h-.009v0a5.926,5.926,0,0,0-1.395-3.174l-.009-.012q-.279-.379-.584-.759l-.087-.109c-.161-.2-.323-.394-.489-.592-.5-.6-1.013-1.192-1.48-1.773l.011-.011c.47.586.984,1.182,1.489,1.784-.5-.6-1.013-1.192-1.48-1.773a21.457,21.457,0,0,1,6.36-4.713c.838-.361,3.854-1.806,4.633-2.279,1.394-.846,3.244-1.823,3.475-3.418a21.153,21.153,0,0,0,.258-4.048v-5.282C992.548,1778.308,992.538,1778.406,992.533,1778.5Z" transform="translate(0 0)" fill="rgba(0,0,0)" opacity="0.3"/>
    <path id="Path_1777" data-name="Path 1777" d="M992.114,1776.269c1.159-7.976-1.158-10.255-9.268-9.115-1.621.228-2.615,2.049-3.474,3.418-.482.766-1.95,3.732-2.316,4.558-1.151,2.582-5.244,7.883-8.11,7.975-2.98.095-7.072-6.1-10.426-5.7-3.252.393-9.268,6.836-9.268,6.836L932.6,1800.528l-.025,6.517,25.631,25.127,16.537-16.127s6.55-5.916,6.951-9.114c.144-1.153-.111-5.853,0-6.735.264-2.122-2.242-4.543-4.045-6.781a21.467,21.467,0,0,1,6.362-4.714c.839-.36,3.854-1.8,4.633-2.278,1.393-.847,3.245-1.824,3.475-3.418a13.918,13.918,0,0,0-.134-6.254A2.29,2.29,0,0,0,992.114,1776.269Z" transform="translate(0 0)" fill="#f8af3c"/>
    <path id="Path_1785" data-name="Path 1785" d="M949.159,1784.464l1.276,1.118-2.7,2.57-1.216-1.222Z" transform="translate(0.084 -0.219)" fill="#f8e831"/>
  </g>
  <path id="colour" d="M971.842,1812.336l-25.323-25.406L932.7,1800.775h-.013v6.786h.049l-.038.037,25.344,25.386,13.823-13.847Z" transform="translate(-906.403 -1740.295)" fill="current"/>
  <g id="handle-2" data-name="handle" transform="translate(-906.403 -1740.295)">
    <path id="Path_1779" data-name="Path 1779" d="M982.726,1767.157c-1.612.231-2.6,2.075-3.455,3.462-.479.776-1.939,3.78-2.3,4.616-1.144,2.615-5.214,7.984-8.064,8.077-2.964.1-7.034-6.183-10.368-5.771-3.1.381-8.7,6.368-9.17,6.874l25.178,25.22-.02.02v.127h.061l.079,6.891s6.514-5.992,6.912-9.231a2.827,2.827,0,0,0,0-.345h.009v-6.842h-.009c-.032-2.059-2.331-4.362-4.022-6.5a21.366,21.366,0,0,1,6.325-4.774c.833-.365,3.832-1.828,4.607-2.307,1.386-.858,3.226-1.847,3.456-3.462a21.821,21.821,0,0,0,.257-4.1v-5.35C992.463,1767.818,989.834,1766.14,982.726,1767.157Z" fill="#8e5f36"/>
    <path id="Path_1780" data-name="Path 1780" d="M958.535,1777.541c-3.234.4-9.215,6.923-9.215,6.923l25.343,25.388s6.514-5.993,6.912-9.231c.41-3.34-5.856-7.417-5.76-10.386.093-2.854,5.452-6.932,8.063-8.077.834-.365,3.834-1.828,4.608-2.307,1.385-.858,3.226-1.847,3.457-3.463,1.151-8.077-1.153-10.385-9.217-9.23-1.612.23-2.6,2.074-3.455,3.461-.479.776-1.94,3.78-2.3,4.616-1.144,2.615-5.214,7.984-8.064,8.077C965.94,1783.408,961.869,1777.129,958.535,1777.541Z" fill="#ad7f49"/>
  </g>
  <g id="highlight" transform="translate(-906.403 -1740.295)">
    <path id="Path_1781" data-name="Path 1781" d="M958.535,1779.814c3.334-.411,7.4,5.868,10.368,5.772,2.85-.093,6.92-5.462,8.064-8.078.365-.835,1.825-3.839,2.3-4.615.855-1.388,1.843-3.232,3.455-3.462,6.31-.9,9.082.329,9.443,4.771.41-6.292-2.166-8.086-9.443-7.045-1.612.231-2.6,2.075-3.455,3.462-.479.776-1.939,3.78-2.3,4.616-1.144,2.615-5.214,7.984-8.064,8.077-2.964.1-7.034-6.183-10.368-5.771-3.234.4-9.216,6.923-9.216,6.923l1.116,1.118C952.318,1783.69,956.163,1780.107,958.535,1779.814Z" fill="#c59966"/>
    <path id="Path_1782" data-name="Path 1782" d="M975.815,1792.509c-.083,2.544,4.5,5.9,5.553,8.912a3.956,3.956,0,0,0,.207-.8c.357-2.909-4.349-6.378-5.505-9.186A3.22,3.22,0,0,0,975.815,1792.509Z" fill="#c59966"/>
  </g>
  <g id="shadow" transform="translate(-906.403 -1740.295)" opacity="0.5">
    <path id="Path_1783" data-name="Path 1783" d="M991.962,1776.389c-.23,1.615-2.07,2.6-3.456,3.462-.775.479-3.774,1.942-4.607,2.307-2.613,1.145-7.972,5.223-8.064,8.077-.051,1.555,1.644,3.415,3.211,5.313-.5-.6-1.007-1.206-1.472-1.795a21.368,21.368,0,0,1,6.325-4.774c.833-.365,3.832-1.828,4.607-2.307,1.386-.858,3.226-1.847,3.456-3.462a21.816,21.816,0,0,0,.257-4.1v-5.35C992.183,1774.56,992.1,1775.431,991.962,1776.389Z" fill="rgba(0,0,0)"/>
    <path id="Path_1784" data-name="Path 1784" d="M981.6,1800.255h0a2.8,2.8,0,0,1,0,.367c-.4,3.238-6.912,9.231-6.912,9.231l-16.645,16.3L932.7,1800.779v6.782h.049l-.038.037,25.344,25.387,16.624-16.312s6.515-5.992,6.912-9.231a2.839,2.839,0,0,0,0-.345h.009v-6.842Z" fill="rgba(0,0,0)"/>
  </g>
  <rect id="Frame" width="120" height="120" fill="none"/>
</svg>
