<svg id="icon-medium-line" xmlns="http://www.w3.org/2000/svg" width="120" height="120" viewBox="0 0 120 120">
  <path id="drop-shadow" d="M981.916,2253.3v-3.33c.011-.4.014-.786,0-1.159-.312-11.465-9.883-18.922-11.812-20.308a16.32,16.32,0,0,1-3.825-3.99,14.732,14.732,0,0,1,3.625-4.017,8.913,8.913,0,0,0,3.765-7.728v-3.883a8.906,8.906,0,0,0-14-7.6c-1.2.828-11.7,8.43-12.037,20.442-.01.354-.01.722,0,1.1v3.447c-.01.355-.01.723,0,1.1v.089h.005c.158,5.286,2.442,12.661,11.739,19.9l.327.236a14.83,14.83,0,0,1,3.565,3.978,16.578,16.578,0,0,1-3.958,4.093,8.888,8.888,0,0,0-3.41,6.522h-.025v.839c0,.118-.009.235,0,.353v3.769h.013a8.912,8.912,0,0,0,14.381,7.2c9.889-7.667,11.79-15.645,11.645-20.988C981.919,2253.337,981.916,2253.318,981.916,2253.3Z" transform="translate(-904.779 -2175.682)" fill="rgba(0,0,0)" opacity="0.3"/>
  <path id="colour" d="M981.916,2248.75v-3.329c.011-.4.014-.786,0-1.159-.312-11.466-9.883-18.923-11.812-20.308a16.342,16.342,0,0,1-3.825-3.99,14.713,14.713,0,0,1,3.625-4.017,8.915,8.915,0,0,0,3.765-7.729v-3.883a8.906,8.906,0,0,0-14-7.6c-1.2.828-11.7,8.43-12.037,20.442-.01.355-.01.723,0,1.1v3.448c-.01.354-.01.722,0,1.1v.089h.005c.158,5.286,2.442,12.661,11.739,19.9l.327.237a14.82,14.82,0,0,1,3.565,3.977,16.569,16.569,0,0,1-3.958,4.093,8.889,8.889,0,0,0-3.41,6.522h-.025v.84c0,.118-.009.235,0,.352v3.77h.013a8.912,8.912,0,0,0,14.381,7.2c9.889-7.666,11.79-15.644,11.645-20.988C981.919,2248.789,981.916,2248.77,981.916,2248.75Z" transform="translate(-904.779 -2175.682)" fill="current"/>
  <g id="shadow" transform="translate(-904.779 -2175.682)" fill="rgba(0,0,0)" opacity="0.5">
    <path id="Path_1799" data-name="Path 1799" d="M966.283,2219.964a14.713,14.713,0,0,1,3.625-4.017,8.915,8.915,0,0,0,3.765-7.729v-3.886a8.909,8.909,0,0,1-3.765,7.067c-1.364.989-4.348,3.933-4.394,6.311A4.343,4.343,0,0,0,966.283,2219.964Z"/>
    <path id="Path_1800" data-name="Path 1800" d="M959.382,2242.811l.327.237a14.82,14.82,0,0,1,3.565,3.977,9.953,9.953,0,0,1-.645.911,5.351,5.351,0,0,0,1.414-3.189c-.069-2.517-3.4-5.6-4.334-6.247l-.327-.236c-9.346-7.279-11.607-14.7-11.744-19.988v3.445c-.01.354-.01.722,0,1.1v.089h.005C947.8,2228.2,950.085,2235.571,959.382,2242.811Z"/>
    <path id="Path_1801" data-name="Path 1801" d="M981.92,2248.809c0-.02,0-.039,0-.059v-3.335c-.156,5.3-2.439,12.7-11.641,19.835a8.935,8.935,0,0,1-14.394-6.418v3.77h.013a8.912,8.912,0,0,0,14.381,7.2C980.164,2262.131,982.065,2254.153,981.92,2248.809Z"/>
  </g>
  <rect id="Frame" width="120" height="120" fill="none"/>
</svg>
