<svg id="Icon_-_Followers" data-name="Icon - Followers" xmlns="http://www.w3.org/2000/svg" width="120" height="120" viewBox="0 0 120 120">
  <rect id="frame" width="120" height="120" fill="none"/>
  <g id="icon" transform="translate(-655.596 -93.361)">
    <path id="Path_1722" data-name="Path 1722" d="M764.707,150.965H727.438a16.644,16.644,0,0,0-.622-2.431,3.812,3.812,0,0,1-1.343.246c-2.46,0-4.456-2.384-4.456-5.327a6.2,6.2,0,0,1,.382-2.158,10.552,10.552,0,0,0-5.8-1.766c-5.817,0-10.673,4.9-11.846,11.436H666.485a5.69,5.69,0,0,0,0,6.107s20.8,29.463,49.111,29.463,49.11-29.465,49.11-29.465A5.68,5.68,0,0,0,764.707,150.965Z" fill="#9026c1"/>
    <path id="Path_1723" data-name="Path 1723" d="M666.485,155.75h37.269a16.644,16.644,0,0,0,.622,2.431,3.812,3.812,0,0,1,1.343-.246c2.461,0,4.457,2.384,4.457,5.327a6.2,6.2,0,0,1-.383,2.158,10.552,10.552,0,0,0,5.8,1.766c5.817,0,10.673-4.9,11.846-11.436h37.265a5.69,5.69,0,0,0,0-6.107s-20.8-29.463-49.111-29.463-49.11,29.465-49.11,29.465A5.684,5.684,0,0,0,666.485,155.75Z" opacity="0.3"/>
    <g id="Group_1593" data-name="Group 1593">
      <path id="Path_1724" data-name="Path 1724" d="M764.707,150.778s-20.8-24.65-49.111-24.65-49.111,24.65-49.111,24.65a4.116,4.116,0,0,0,0,5.109s20.8,24.648,49.111,24.648,49.11-24.65,49.11-24.65A4.109,4.109,0,0,0,764.707,150.778ZM715.6,174.273a20.941,20.941,0,1,1,20.942-20.942A20.942,20.942,0,0,1,715.6,174.273Z" fill="#fff"/>
      <path id="Path_1725" data-name="Path 1725" d="M725.473,148.95a4.457,4.457,0,0,1-4.074-6.262,12.122,12.122,0,1,0,5.417,6.056A4.48,4.48,0,0,1,725.473,148.95Z" fill="#fff"/>
    </g>
    <circle id="Ellipse_389" data-name="Ellipse 389" cx="20.942" cy="20.942" r="20.942" transform="translate(694.654 132.39)" fill="#36a9e1"/>
    <circle id="Ellipse_390" data-name="Ellipse 390" cx="14.168" cy="14.168" r="14.168" transform="translate(701.428 139.163)" fill="#33cfff"/>
    <path id="Path_1726" data-name="Path 1726" d="M727.656,152.115c-.019-.188-.056-.371-.083-.556-.031-.208-.054-.418-.095-.622-.046-.229-.11-.451-.169-.675-.04-.154-.073-.311-.119-.463-.071-.232-.158-.456-.242-.682-.046-.124-.082-.251-.132-.373h0a12.164,12.164,0,0,0-5.413-6.056h0l-.01-.005a12.084,12.084,0,0,0-1.224-.574c-.123-.05-.25-.091-.375-.137-.3-.113-.614-.216-.93-.3q-.227-.063-.456-.117c-.316-.075-.636-.135-.96-.185-.143-.022-.285-.049-.429-.066a12.3,12.3,0,0,0-1.419-.09,12.122,12.122,0,0,0-12.121,12.121,11.948,11.948,0,0,0,.062,1.218c.018.188.055.371.082.557.031.208.054.418.095.622.046.229.11.451.169.675.04.154.073.311.119.463.071.232.158.456.242.682.046.123.083.251.132.372h0a12.161,12.161,0,0,0,5.414,6.056v0l.01,0a12.2,12.2,0,0,0,1.224.575c.123.05.25.091.375.137q.457.17.931.3c.151.042.3.08.455.117.316.075.636.135.961.185.143.022.284.048.429.065a11.972,11.972,0,0,0,8.2-1.98,12.253,12.253,0,0,0,1.794-1.48c.274-.274.535-.562.782-.861a12.083,12.083,0,0,0,2.223-4.106c.118-.379.218-.767.3-1.161a12.208,12.208,0,0,0,.246-2.443Q727.717,152.716,727.656,152.115Z" fill="#1d1d1b"/>
    <circle id="Ellipse_391" data-name="Ellipse 391" cx="3.296" cy="3.296" r="3.296" transform="translate(721.126 141.128)" fill="#fff"/>
  </g>
</svg>
