<svg id="Icon_-_Present" data-name="Icon - Present" xmlns="http://www.w3.org/2000/svg" width="120" height="120" viewBox="0 0 120 120">
  <rect id="frame" width="120" height="120" fill="none"/>
  <g id="Present" transform="translate(-351.899 2664.476)">
    <path id="Path_1349" data-name="Path 1349" d="M459-2624.645a6.787,6.787,0,0,0-2.086-4.927c-.02-.018-.042-.034-.062-.052-.125-.105-.253-.208-.393-.3-.068-.047-.143-.089-.214-.135-.107-.067-.21-.135-.325-.2a5.756,5.756,0,0,0-.636-.3c-.692-.272-1.9-.758-3.477-1.394l-1.1-.445-2.129-.864c2.358-1.726,2.913-3.782,2.589-6.754-.506-4.644-5.4-12.242-9.372-13.762s-10.384,2.7-12.79,4.813c-1.018.894-3.12,3.12-5.306,5.536l-4.549-1.866a13.633,13.633,0,0,0-4.5-.693,10.137,10.137,0,0,0-3.6.693c-.85.343-3.339,1.208-6.712,2.351l-.736.249-1.545.522-1.178.4c-2.665-3-5.539-6.092-6.787-7.188-2.407-2.111-8.822-6.332-12.79-4.812s-8.865,9.118-9.371,13.762c-.337,3.089.3,5.1,2.9,6.868-3.527,1.159-5.83,1.913-5.83,1.913l-.016,0-.011,0-.042.009-.017,0-.084.02-.005,0-.115.032-.03.009-.111.035-.042.014c-.045.015-.091.033-.141.052l-.025.009c-.059.023-.121.048-.186.076l-.032.014c-.054.024-.11.05-.167.078l-.056.028c-.056.029-.114.059-.173.092l-.044.023c-.075.043-.151.087-.228.136l-.024.017c-.068.043-.136.09-.2.139l-.062.044c-.062.045-.123.093-.185.142l-.056.045c-.079.067-.16.136-.239.211l0,0c-.076.072-.152.15-.227.23-.021.021-.04.045-.061.067q-.088.1-.174.2l-.06.073c-.074.094-.146.19-.217.293v0h0a7.491,7.491,0,0,0-1.163,4.309c0,.265,0,.532,0,.8h0v.02c0,.469,0,.941,0,1.414v.016h0c.006,1.755.025,3.509.048,5.058v.023l.005.386v.041c.012.8.025,1.533.037,2.174v.063l0,.193,0,.159,0,.177,0,.173,0,.11c0,.071,0,.139,0,.207l0,.078,0,.2,0,.077c.005.255.011.471.014.644v.033c.006.289.011.451.011.451a4.745,4.745,0,0,0,.275,1.9,6.622,6.622,0,0,0,1.2,2.127,9.192,9.192,0,0,0,2.238,1.913l1.182,34.247s-.678,3.835,5.741,6.867c2.632,1.244,7.44,3.606,12.2,5.961l3.676,1.864v-.041c5.391,2.678,9.907,4.937,9.907,4.937s5.771,3.764,14.333.47q.276-.1.565-.223c2.216-.94,7.168-2.988,12.6-5.223v.08l12.327-5.128v-.014c4.874-2,8.471-3.469,8.471-3.469s4.053-.9,4.391-10.019c.261-7.055.724-23.271.921-30.251a5.553,5.553,0,0,0,2.3-2.158,5.106,5.106,0,0,0,1.557-3.839s.15-5.126.171-10.244h0v0c0-.485,0-.969,0-1.45-.01-.04-.023-.08-.036-.12Z" transform="translate(0 2.56)" opacity="0.3"/>
    <path id="Path_1350" data-name="Path 1350" d="M405.8-2545.178s6.025,3.936,14.9.247-8.707-7.677-8.707-7.677Z" transform="translate(-4.442 -11.434)" fill="#d32424"/>
    <path id="Path_1351" data-name="Path 1351" d="M413.417-2592.664l.507,38.866s1.452,5.447,7.6,2.835,33.394-13.755,33.394-13.755,4.053-.9,4.391-10.019,1.013-33.546,1.013-33.546Z" transform="translate(-5.267 -5.404)" fill="#e82d2d"/>
    <path id="Path_1352" data-name="Path 1352" d="M369.13-2604.649l1.182,34.247s-.678,3.834,5.741,6.867,25.779,12.72,25.779,12.72,7.273,1.711,7.295-3.873-.507-37.582-.507-37.582Z" transform="translate(-0.469 -5.797)" fill="#cc1b1b"/>
    <path id="Path_1353" data-name="Path 1353" d="M364.946-2615.4s-.506,4.136,5.234,6.754c6.739,3.072,33.1,14.69,33.1,14.69s3.715,2.7,10.469,0,41.031-15.366,41.031-15.366,3.378-1.182,3.546-6.078.676-12.327.676-12.327.163-4.391-3.716-5.91c-4.924-1.93-36.135-14.735-36.135-14.735a12.563,12.563,0,0,0-8.1,0c-3.884,1.564-42.045,14.059-42.045,14.059s-4.177.676-4.2,6.417S364.946-2615.4,364.946-2615.4Z" transform="translate(0 -0.985)" fill="#dc3131"/>
    <path id="Path_1354" data-name="Path 1354" d="M457.448-2632.277a5.459,5.459,0,0,0-2.023-1.362c-4.924-1.93-36.134-14.735-36.134-14.735a12.567,12.567,0,0,0-8.105,0c-3.884,1.564-42.045,14.059-42.045,14.059a5,5,0,0,0-3.036,2.107c.345,1.414,1.467,3.611,5,5.222,6.613,3.015,32.476,14.415,32.476,14.415s3.645,2.651,10.273,0,40.264-15.078,40.264-15.078A5.833,5.833,0,0,0,457.448-2632.277Z" transform="translate(-0.142 -0.985)" fill="#ff5962"/>
    <path id="Path_1355" data-name="Path 1355" d="M408.116-2602.952a7.278,7.278,0,0,0-4.112-6.806s-28.694-12.781-34.458-15.49c-3.527-1.659-4.514-.5-4.749.643,0,.48,0,.964,0,1.449v0h0c.018,5.117.146,10.244.146,10.244s-.506,4.136,5.234,6.754c6.739,3.072,33.1,14.69,33.1,14.69a4.682,4.682,0,0,0,.729.4c.2.092.383.165.564.231l.139.048c2.905.974,3.409-1.41,3.409-1.41S408.23-2597.715,408.116-2602.952Z" transform="translate(0 -3.476)" fill="#d82525"/>
    <path id="Path_1356" data-name="Path 1356" d="M413.494-2602.952a7.452,7.452,0,0,1,4.819-6.806s33.633-12.781,40.388-15.49c4.133-1.659,5.289-.5,5.567.643,0,.48,0,.965,0,1.449v0h0c-.021,5.117-.171,10.244-.171,10.244s.594,4.136-6.136,6.754c-7.9,3.072-38.791,14.69-38.791,14.69a5.81,5.81,0,0,1-.854.4c-.232.092-.449.165-.661.231l-.163.048c-3.4.975-4-1.41-4-1.41S413.362-2597.715,413.494-2602.952Z" transform="translate(-5.269 -3.476)" fill="#ed3a3a"/>
    <path id="Path_1357" data-name="Path 1357" d="M446.513-2563.777l1.181-39.791.676-16.882s.675-2.027-5.4-3.884-20.432-7.429-20.432-7.429l-8.548,1.519v5.741l19.186,6.923s1.857.844,1.857,3.883-.844,55.047-.844,55.047Z" transform="translate(-5.328 -2.86)" fill="#ffdf57"/>
    <path id="Path_1358" data-name="Path 1358" d="M442.966-2624.334c-6.079-1.857-20.432-7.429-20.432-7.429l-8.548,1.519v5.741l19.186,6.923a3.034,3.034,0,0,1,1.133,1.092c4.6-1.719,9.489-3.538,13.718-5.108C447.476-2622.345,446.146-2623.363,442.966-2624.334Z" transform="translate(-5.328 -2.86)" fill="#ffe780"/>
    <path id="Path_1359" data-name="Path 1359" d="M380.643-2564.9l-1.182-38.671-.675-16.882s-.676-2.027,5.4-3.884,20.431-7.429,20.431-7.429l8.549,1.519v5.741l-19.187,6.923s-1.857.844-1.857,3.883.844,55.047.844,55.047Z" transform="translate(-1.513 -2.86)" fill="#ffdf57"/>
    <path id="Path_1360" data-name="Path 1360" d="M384.274-2624.334a11.4,11.4,0,0,0-4.728,2.357c3.988,1.775,8.812,3.913,13.186,5.848a3.216,3.216,0,0,1,1.335-1.451l19.187-6.923v-5.741l-8.549-1.519S390.352-2626.192,384.274-2624.334Z" transform="translate(-1.598 -2.86)" fill="#ffe780"/>
    <path id="Path_1361" data-name="Path 1361" d="M399.969-2629.011l10.269,2.422h11.595l6.642-2.143-5.207-2.06H406.719l-5.261,1.045Z" transform="translate(-3.81 -2.965)" fill="#ffdf57"/>
    <g id="Group_562" data-name="Group 562" transform="translate(371.841 -2658.164)">
      <path id="Path_1362" data-name="Path 1362" d="M403.765-2632.851s-15.167.875-22.542-1.773c-7.25-2.6-8.95-4.812-8.442-9.456s5.4-12.242,9.371-13.761,10.384,2.7,12.79,4.813a165.04,165.04,0,0,1,12.2,13.593C408.492-2637.494,407.311-2633.864,403.765-2632.851Z" transform="translate(-372.697 2658.165)" fill="#ffdf57"/>
      <path id="Path_1363" data-name="Path 1363" d="M404.02-2634.7s-19.011-10.136-28.2-5.995c-5.994,2.7,24.906,11.482,28.03,7.852Z" transform="translate(-372.952 2656.379)" fill="#ffb449"/>
      <path id="Path_1364" data-name="Path 1364" d="M426.434-2632.851s14.484.875,22.542-1.773c7.318-2.4,8.95-4.812,8.442-9.456s-5.4-12.242-9.372-13.761-10.384,2.7-12.79,4.813a165.041,165.041,0,0,0-12.2,13.593C421.706-2637.494,422.888-2633.864,426.434-2632.851Z" transform="translate(-378.093 2658.165)" fill="#ffdf57"/>
      <path id="Path_1365" data-name="Path 1365" d="M426.91-2634.7s19.011-10.136,28.2-5.995c5.994,2.7-24.906,11.482-28.03,7.852Z" transform="translate(-378.57 2656.379)" fill="#ffb449"/>
      <ellipse id="Ellipse_130" data-name="Ellipse 130" cx="9.245" cy="5.756" rx="9.245" ry="5.756" transform="translate(30.392 14.675)" fill="#ffb449"/>
    </g>
    <rect id="Rectangle_316" data-name="Rectangle 316" width="19.207" height="13.209" rx="4.299" transform="translate(402.233 -2643.489)" fill="#fdb349"/>
    <rect id="Rectangle_317" data-name="Rectangle 317" width="16.196" height="3.488" rx="1.744" transform="translate(403.739 -2643.165)" fill="#ffbc64"/>
  </g>
</svg>
