<svg xmlns="http://www.w3.org/2000/svg" width="120" height="120" viewBox="0 0 120 120"><defs><style>.a{fill:rgba(0,0,0,0.3);}.b{fill:#afafaf;}.c{fill:#fd4dfc;}.d{fill:#fff;}.e{fill:none;}</style></defs><path class="a" d="M72.28,7a30.629,30.629,0,0,1-13.256,3.033A30.05,30.05,0,0,1,36.5,0,29.8,29.8,0,0,1,14.092,10.033,30.629,30.629,0,0,1,.836,7C-.689,28.817,4.942,47.25,17.143,60.667a57.529,57.529,0,0,0,19.357,14A59.974,59.974,0,0,0,56.09,60.55C68.408,46.9,73.8,28.933,72.28,7ZM45.532,47.484l-8.916-6.417L27.7,47.484l3.4-10.5-8.916-6.417H33.214l3.4-10.5,3.4,10.5H51.046L42.13,37.1Z" transform="translate(23.438 31.207)"/><path class="b" d="M72.28,7a30.629,30.629,0,0,1-13.256,3.033A30.05,30.05,0,0,1,36.5,0,29.8,29.8,0,0,1,14.092,10.033,30.629,30.629,0,0,1,.836,7C-.689,28.817,4.942,47.25,17.143,60.667a57.529,57.529,0,0,0,19.357,14A59.974,59.974,0,0,0,56.09,60.55C68.408,46.9,73.8,28.933,72.28,7ZM45.532,47.484l-8.916-6.417L27.7,47.484l3.4-10.5-8.916-6.417H33.214l3.4-10.5,3.4,10.5H51.046L42.13,37.1Z" transform="translate(23.438 25.207)"/><circle class="c" cx="20" cy="20" r="20" transform="translate(40 36.54)"/><path class="d" d="M72.28,7a30.629,30.629,0,0,1-13.256,3.033A30.05,30.05,0,0,1,36.5,0,29.8,29.8,0,0,1,14.092,10.033,30.629,30.629,0,0,1,.836,7C-.689,28.817,4.942,47.25,17.143,60.667a57.529,57.529,0,0,0,19.357,14A59.974,59.974,0,0,0,56.09,60.55C68.408,46.9,73.8,28.933,72.28,7ZM45.532,47.484l-8.916-6.417L27.7,47.484l3.4-10.5-8.916-6.417H33.214l3.4-10.5,3.4,10.5H51.046L42.13,37.1Z" transform="translate(23.438 20.207)"/><rect class="e" width="120" height="120"/></svg>