<svg id="Icon_-_Manage" data-name="Icon - Manage" xmlns="http://www.w3.org/2000/svg" width="120" height="120" viewBox="0 0 120 120">
  <rect id="frame" width="120" height="120" fill="none"/>
  <g id="Icon" transform="translate(-931.823 -274.083)">
    <path id="Path_1760" data-name="Path 1760" d="M991.4,372.194l-30.883-7.042a1.9,1.9,0,0,1,0-3.7l30.883-7.042a1.9,1.9,0,0,1,.843,0l30.883,7.042a1.9,1.9,0,0,1,0,3.7l-30.883,7.042A1.9,1.9,0,0,1,991.4,372.194Z" opacity="0.3"/>
    <path id="Path_1761" data-name="Path 1761" d="M992.013,339.345l-34.032,7.76v6.5l34.032,7.76,34.032-7.76v-6.5Z" fill="#afafaf"/>
    <path id="Path_1762" data-name="Path 1762" d="M992.013,354.864l-34.032-7.76,34.032-7.76,34.032,7.76Z" fill="#fff"/>
    <path id="Path_1763" data-name="Path 1763" d="M991.823,346.729l16.288-3.714-16.1-3.671-16.288,3.714Z" opacity="0.1"/>
    <path id="Path_1764" data-name="Path 1764" d="M992.013,320.547l-34.032,7.76v6.5l34.032,7.76,34.032-7.76v-6.5Z" fill="#afafaf"/>
    <path id="Path_1765" data-name="Path 1765" d="M992.013,336.066l-34.032-7.76,34.032-7.76,34.032,7.76Z" fill="#fff"/>
    <path id="Path_1766" data-name="Path 1766" d="M991.823,327.931l16.288-3.714-16.1-3.671-16.288,3.714Z" opacity="0.1"/>
    <path id="Path_1767" data-name="Path 1767" d="M992.013,301.749l-34.032,7.76v6.5l34.032,7.76,34.032-7.76v-6.5Z" fill="#afafaf"/>
    <path id="Path_1768" data-name="Path 1768" d="M992.013,317.268l-34.032-7.76,34.032-7.76,34.032,7.76Z" fill="#fff"/>
  </g>
</svg>
