<svg id="Icon_-_Features" data-name="Icon - Features" xmlns="http://www.w3.org/2000/svg" width="120" height="120" viewBox="0 0 120 120">
  <rect id="frame" width="120" height="120" fill="none"/>
  <g id="icon" transform="translate(-794.031 -95.026)">
    <g id="Group_1595" data-name="Group 1595">
      <path id="Path_1727" data-name="Path 1727" d="M838.11,128.448l-4.838-.361a1.3,1.3,0,0,1-1.011-.722l-1.878-4.478a1.185,1.185,0,0,0-2.167,0l-1.877,4.478a1.087,1.087,0,0,1-1.011.722l-4.839.361a1.122,1.122,0,0,0-1.067,1.228h-.012v4.3h.012a1.267,1.267,0,0,0,.417.867l3.351,2.891-.462,1.906a1.185,1.185,0,0,0-.013.414h0l.016,3.889a1.223,1.223,0,0,0,1.8,1.3l4.189-2.528a1.24,1.24,0,0,1,1.228,0l4.188,2.528a1.219,1.219,0,0,0,1.806-1.3v-3.839a1.149,1.149,0,0,0,0-.464l-.462-1.906,3.351-2.891a1.411,1.411,0,0,0,.321-.867h.08v-4.3h0A1.18,1.18,0,0,0,838.11,128.448Z" opacity="0.3"/>
      <path id="Path_1728" data-name="Path 1728" d="M838.11,124.146l-4.838-.362a1.3,1.3,0,0,1-1.011-.722l-1.878-4.477a1.185,1.185,0,0,0-2.167,0l-1.877,4.477a1.086,1.086,0,0,1-1.011.722l-4.839.362a1.121,1.121,0,0,0-1.067,1.227h-.012v4.3h.012a1.265,1.265,0,0,0,.417.866l3.351,2.891-.462,1.907a1.18,1.18,0,0,0-.013.413h0l.016,3.889a1.222,1.222,0,0,0,1.8,1.3l4.189-2.528a1.245,1.245,0,0,1,1.228,0l4.188,2.528a1.219,1.219,0,0,0,1.806-1.3V135.8a1.143,1.143,0,0,0,0-.463l-.462-1.907,3.351-2.891a1.408,1.408,0,0,0,.321-.866h.08v-4.3h0A1.179,1.179,0,0,0,838.11,124.146Z" fill="#c9b817"/>
      <path id="Path_1729" data-name="Path 1729" d="M838.11,124.146l-4.838-.362a1.3,1.3,0,0,1-1.011-.722l-1.878-4.477a1.185,1.185,0,0,0-2.167,0l-1.877,4.477a1.086,1.086,0,0,1-1.012.722l-4.838.362a1.179,1.179,0,0,0-.65,2.094l3.683,3.178a1.026,1.026,0,0,1,.361,1.155l-1.155,4.767a1.223,1.223,0,0,0,1.8,1.3l4.189-2.528a1.24,1.24,0,0,1,1.228,0l4.188,2.528a1.219,1.219,0,0,0,1.806-1.3l-1.156-4.767a1.331,1.331,0,0,1,.361-1.155l3.684-3.178A1.2,1.2,0,0,0,838.11,124.146Z" fill="#ffe600"/>
      <path id="Path_1730" data-name="Path 1730" d="M887.987,133.1a3.688,3.688,0,0,0-3.656-3.419H848.077a3.689,3.689,0,0,0-3.657,3.419h-.026v5.014h.045a3.689,3.689,0,0,0,3.638,3.236h36.254a3.689,3.689,0,0,0,3.638-3.236h.045V133.1Z" opacity="0.3"/>
      <path id="Path_1731" data-name="Path 1731" d="M887.987,128.792a3.688,3.688,0,0,0-3.656-3.419H848.077a3.69,3.69,0,0,0-3.657,3.419h-.026v5.015h.045a3.689,3.689,0,0,0,3.638,3.235h36.254a3.689,3.689,0,0,0,3.638-3.235h.045v-5.015Z" fill="#afafaf"/>
      <path id="Path_1732" data-name="Path 1732" d="M848.077,132.74h36.254a3.684,3.684,0,0,0,0-7.367H848.077a3.684,3.684,0,0,0,0,7.367Z" fill="#fff"/>
    </g>
    <g id="Group_1596" data-name="Group 1596">
      <path id="Path_1733" data-name="Path 1733" d="M838.11,151.815l-4.838-.361a1.3,1.3,0,0,1-1.011-.723l-1.878-4.477a1.185,1.185,0,0,0-2.167,0l-1.877,4.477a1.087,1.087,0,0,1-1.011.723l-4.839.361a1.121,1.121,0,0,0-1.067,1.227h-.012v4.3h.012a1.269,1.269,0,0,0,.417.867l3.351,2.891-.462,1.906a1.18,1.18,0,0,0-.013.413h0l.016,3.889a1.222,1.222,0,0,0,1.8,1.3l4.189-2.527a1.24,1.24,0,0,1,1.228,0l4.188,2.527a1.219,1.219,0,0,0,1.806-1.3v-3.839a1.143,1.143,0,0,0,0-.463l-.462-1.906,3.351-2.891a1.413,1.413,0,0,0,.321-.867h.08v-4.3h0A1.179,1.179,0,0,0,838.11,151.815Z" opacity="0.3"/>
      <path id="Path_1734" data-name="Path 1734" d="M838.11,147.512l-4.838-.361a1.3,1.3,0,0,1-1.011-.722l-1.878-4.478a1.185,1.185,0,0,0-2.167,0l-1.877,4.478a1.087,1.087,0,0,1-1.011.722l-4.839.361a1.122,1.122,0,0,0-1.067,1.228h-.012v4.3h.012a1.267,1.267,0,0,0,.417.867l3.351,2.891-.462,1.906a1.185,1.185,0,0,0-.013.414h0l.016,3.889a1.223,1.223,0,0,0,1.8,1.3l4.189-2.528a1.24,1.24,0,0,1,1.228,0l4.188,2.528a1.219,1.219,0,0,0,1.806-1.3V159.17a1.149,1.149,0,0,0,0-.464l-.462-1.906,3.351-2.891a1.408,1.408,0,0,0,.321-.867h.08v-4.3h0A1.18,1.18,0,0,0,838.11,147.512Z" fill="#a00054"/>
      <path id="Path_1735" data-name="Path 1735" d="M838.11,147.512l-4.838-.361a1.3,1.3,0,0,1-1.011-.722l-1.878-4.478a1.185,1.185,0,0,0-2.167,0l-1.877,4.478a1.088,1.088,0,0,1-1.012.722l-4.838.361a1.179,1.179,0,0,0-.65,2.1l3.683,3.177a1.028,1.028,0,0,1,.361,1.156l-1.155,4.766a1.222,1.222,0,0,0,1.8,1.3l4.189-2.527a1.24,1.24,0,0,1,1.228,0l4.188,2.527a1.219,1.219,0,0,0,1.806-1.3l-1.156-4.766a1.333,1.333,0,0,1,.361-1.156l3.684-3.177A1.2,1.2,0,0,0,838.11,147.512Z" fill="#ff007a"/>
      <path id="Path_1736" data-name="Path 1736" d="M887.987,156.461a3.688,3.688,0,0,0-3.656-3.419H848.077a3.69,3.69,0,0,0-3.657,3.419h-.026v5.015h.045a3.689,3.689,0,0,0,3.638,3.235h36.254a3.689,3.689,0,0,0,3.638-3.235h.045v-5.015Z" opacity="0.3"/>
      <path id="Path_1737" data-name="Path 1737" d="M887.987,152.159a3.688,3.688,0,0,0-3.656-3.419H848.077a3.689,3.689,0,0,0-3.657,3.419h-.026v5.014h.045a3.689,3.689,0,0,0,3.638,3.236h36.254a3.689,3.689,0,0,0,3.638-3.236h.045v-5.014Z" fill="#afafaf"/>
      <path id="Path_1738" data-name="Path 1738" d="M848.077,156.106h36.254a3.683,3.683,0,0,0,0-7.366H848.077a3.683,3.683,0,1,0,0,7.366Z" fill="#fff"/>
    </g>
    <g id="Group_1597" data-name="Group 1597">
      <path id="Path_1739" data-name="Path 1739" d="M838.11,175.181l-4.838-.361a1.3,1.3,0,0,1-1.011-.722l-1.878-4.478a1.186,1.186,0,0,0-2.167,0l-1.877,4.478a1.087,1.087,0,0,1-1.011.722l-4.839.361a1.122,1.122,0,0,0-1.067,1.228h-.012v4.3h.012a1.265,1.265,0,0,0,.417.866l3.351,2.891-.462,1.906a1.185,1.185,0,0,0-.013.414h0l.016,3.889a1.223,1.223,0,0,0,1.8,1.3l4.189-2.528a1.245,1.245,0,0,1,1.228,0l4.188,2.528a1.219,1.219,0,0,0,1.806-1.3v-3.839a1.148,1.148,0,0,0,0-.464l-.462-1.906,3.351-2.891a1.408,1.408,0,0,0,.321-.866h.08v-4.3h0A1.18,1.18,0,0,0,838.11,175.181Z" opacity="0.3"/>
      <path id="Path_1740" data-name="Path 1740" d="M838.11,170.879l-4.838-.361a1.3,1.3,0,0,1-1.011-.722l-1.878-4.478a1.185,1.185,0,0,0-2.167,0l-1.877,4.478a1.087,1.087,0,0,1-1.011.722l-4.839.361a1.122,1.122,0,0,0-1.067,1.228h-.012v4.3h.012a1.269,1.269,0,0,0,.417.867l3.351,2.891-.462,1.906a1.18,1.18,0,0,0-.013.413h0l.016,3.888a1.222,1.222,0,0,0,1.8,1.3l4.189-2.527a1.24,1.24,0,0,1,1.228,0l4.188,2.527a1.219,1.219,0,0,0,1.806-1.3v-3.838a1.149,1.149,0,0,0,0-.464l-.462-1.906,3.351-2.891a1.413,1.413,0,0,0,.321-.867h.08v-4.3h0A1.179,1.179,0,0,0,838.11,170.879Z" fill="#789e00"/>
      <path id="Path_1741" data-name="Path 1741" d="M838.11,170.879l-4.838-.361a1.3,1.3,0,0,1-1.011-.722l-1.878-4.478a1.185,1.185,0,0,0-2.167,0l-1.877,4.478a1.088,1.088,0,0,1-1.012.722l-4.838.361a1.179,1.179,0,0,0-.65,2.094l3.683,3.178a1.027,1.027,0,0,1,.361,1.155l-1.155,4.767a1.223,1.223,0,0,0,1.8,1.3l4.189-2.528a1.245,1.245,0,0,1,1.228,0l4.188,2.528a1.219,1.219,0,0,0,1.806-1.3l-1.156-4.767a1.332,1.332,0,0,1,.361-1.155l3.684-3.178A1.2,1.2,0,0,0,838.11,170.879Z" fill="#c1ff00"/>
      <path id="Path_1742" data-name="Path 1742" d="M887.987,179.828a3.688,3.688,0,0,0-3.656-3.419H848.077a3.69,3.69,0,0,0-3.657,3.419h-.026v5.014h.045a3.689,3.689,0,0,0,3.638,3.236h36.254a3.689,3.689,0,0,0,3.638-3.236h.045v-5.014Z" opacity="0.3"/>
      <path id="Path_1743" data-name="Path 1743" d="M887.987,175.526a3.688,3.688,0,0,0-3.656-3.419H848.077a3.689,3.689,0,0,0-3.657,3.419h-.026v5.014h.045a3.689,3.689,0,0,0,3.638,3.235h36.254a3.689,3.689,0,0,0,3.638-3.235h.045v-5.014Z" fill="#afafaf"/>
      <path id="Path_1744" data-name="Path 1744" d="M848.077,179.473h36.254a3.683,3.683,0,0,0,0-7.366H848.077a3.683,3.683,0,1,0,0,7.366Z" fill="#fff"/>
    </g>
  </g>
</svg>
