<svg id="Icon_-_Blog" data-name="Icon - Blog" xmlns="http://www.w3.org/2000/svg" width="120" height="120.001" viewBox="0 0 120 120.001">
  <rect id="frame" width="120" height="120" transform="translate(0 0)" fill="none"/>
  <g id="Blog" transform="translate(4604.093 2050.529)">
    <path id="Path_1366" data-name="Path 1366" d="M-4495.724-2004.14c-10.637-32.994-31.364-38.8-41.668-35.192a19.454,19.454,0,0,0-10.929,9.688c-14.756,25.762-43.335,41.213-43.335,41.213s-6.389,2.873-2.557,15.409c.1.329.207.643.315.952l-.007-.012c.007.02.015.038.022.057.085.241.174.47.263.7.044.114.087.233.133.344.09.222.184.433.278.643.048.107.1.217.144.322.095.2.194.4.293.59.051.1.1.2.153.3.1.187.2.365.306.541.054.093.107.187.162.276.1.171.211.334.318.495.056.085.112.171.169.253.108.156.218.3.328.451.058.078.116.156.175.231.111.142.223.276.336.409.06.07.12.142.181.21.113.128.228.25.344.37.061.063.122.127.183.188.116.115.233.225.35.332.062.057.124.114.186.169.118.1.236.2.354.3l.188.149c.119.092.238.179.357.264l.188.131q.179.122.357.232c.063.039.126.078.189.115.119.071.238.138.356.2l.187.1c.119.061.237.12.355.175.061.029.122.056.184.084.117.052.234.1.351.149l.18.07c.116.044.231.086.345.125l.178.058c.113.036.225.071.336.1.058.017.115.032.173.047.11.029.219.057.327.082l.167.036c.106.023.212.045.316.064l.159.027c.1.017.205.033.305.047l.151.019c.1.012.195.023.29.032l.145.012c.091.007.183.014.271.019.047,0,.092,0,.137.006.086,0,.171.007.252.008h.36l.116,0,.211-.007.106-.007c.063,0,.127-.007.185-.012l.069-.006,14.434,32.059,15.817-4.835,3.539-4.271-.914-1.99-4.687-2.492-8.047-18.575a127.215,127.215,0,0,1,34,8.369c.279.11.557.218.837.331,0,0,9.048,4.318,17.583,2.445S-4485.086-1971.146-4495.724-2004.14Z" transform="translate(-1)" opacity="0.3"/>
    <g id="Group_564" data-name="Group 564">
      <path id="Path_1367" data-name="Path 1367" d="M-4582.4-1972.7" fill="#fff"/>
      <path id="Path_1368" data-name="Path 1368" d="M-4548.562-1949.893l-.915-1.99-4.687-2.492-12.083-27.891-12.841,4.539-3.539,4.271,14.708,32.67,15.817-4.835Z" fill="#39a7df"/>
      <path id="Path_1369" data-name="Path 1369" d="M-4567.919-1940.787l15.817-4.835-.915-1.99-4.687-2.492L-4569.787-1978l-12.841,4.539Z" fill="#73c9eb"/>
      <path id="Path_1370" data-name="Path 1370" d="M-4527.377-1964.25c-30.94-12.437-54.178-8.708-54.178-8.708s-9.443,2.213-13.275-10.322,2.557-15.409,2.557-15.409,28.579-15.452,43.335-41.213a19.456,19.456,0,0,1,10.93-9.689c10.3-3.609,31.03,2.2,41.667,35.193s-4.918,50.72-13.453,52.593S-4527.377-1964.25-4527.377-1964.25Z" fill="#ebebeb"/>
      <path id="Path_1371" data-name="Path 1371" d="M-4535.32-2043.6c-5.272,1.612-20.193,11.33-10.86,44.726,9.155,32.76,31.427,31.385,35.463,30.142,1.692-.521,23.162-8.621,9.694-46.934C-4513.25-2050.455-4535.32-2043.6-4535.32-2043.6Z" fill="#8f9299"/>
      <path id="Path_1372" data-name="Path 1372" d="M-4533.9-2039.293c-4.462,1.364-17.033,9.77-8.745,39.309,8.131,28.977,27.038,28.005,30.453,26.953,1.432-.441,19.584-7.35,7.73-41.268C-4515.226-2045.093-4533.9-2039.293-4533.9-2039.293Z" fill="#a0a4b0"/>
      <path id="Path_1373" data-name="Path 1373" d="M-4521.328-1998.74l-4.761-14.44-19.128-.209a73.669,73.669,0,0,0,2.57,13.405,52.677,52.677,0,0,0,6.332,14.6Z" fill="#b9bcc7"/>
      <path id="Path_1374" data-name="Path 1374" d="M-4526.089-2013.18c-1.065.326-4.092,2.246-2.3,8.691,1.759,6.323,6.244,6,7.059,5.749.342-.1,4.682-1.728,2.069-9.116C-4521.631-2014.562-4526.089-2013.18-4526.089-2013.18Z" fill="#e4e5ea"/>
      <path id="Path_1375" data-name="Path 1375" d="M-4584-1977.944s-7.611,1.475-10.522-4.4c4,11.481,12.966,9.383,12.966,9.383s22.822-3.659,53.343,8.378h0c-10.217-5.343-16.08-17.283-16.08-17.283S-4550.09-1984.384-4584-1977.944Z" fill="#cbcdd3"/>
      <g id="Group_563" data-name="Group 563">
        <path id="Path_1376" data-name="Path 1376" d="M-4553.862-2024.568s.634-7.2,3.358-12.722c-15.118,24.19-41.769,38.6-41.769,38.6s-3.818,1.723-3.777,8.3c.023-.333.34-2.738,4.662-5.215C-4586.732-1998.272-4562.079-2014.822-4553.862-2024.568Z" fill="#fff"/>
        <path id="Path_1377" data-name="Path 1377" d="M-4548.464-2040.825c-.323.572-.474.923-.474.923A2.764,2.764,0,0,0-4548.464-2040.825Z" fill="#fff"/>
      </g>
    </g>
  </g>
</svg>
