<svg id="Icon_-_More" data-name="Icon - More" xmlns="http://www.w3.org/2000/svg" width="120" height="120" viewBox="0 0 120 120">
  <rect id="frame" width="120" height="120" fill="none"/>
  <g id="Icon" transform="translate(-374.677 -327.9)">
    <circle id="Ellipse_379" data-name="Ellipse 379" cx="11.895" cy="11.895" r="11.895" transform="translate(390.069 381.085)" fill="rgba(0,0,0,0.3)"/>
    <circle id="Ellipse_380" data-name="Ellipse 380" cx="11.895" cy="11.895" r="11.895" transform="translate(422.782 381.085)" fill="rgba(0,0,0,0.3)"/>
    <circle id="Ellipse_381" data-name="Ellipse 381" cx="11.895" cy="11.895" r="11.895" transform="translate(455.494 381.085)" fill="rgba(0,0,0,0.3)"/>
    <circle id="Ellipse_47" data-name="Ellipse 47" cx="11.895" cy="11.895" r="11.895" transform="translate(390.069 377.085)" fill="#afafaf"/>
    <circle id="Ellipse_48" data-name="Ellipse 48" cx="11.895" cy="11.895" r="11.895" transform="translate(422.781 377.085)" fill="#afafaf"/>
    <circle id="Ellipse_382" data-name="Ellipse 382" cx="11.895" cy="11.895" r="11.895" transform="translate(390.069 374.085)" fill="#afafaf"/>
    <circle id="Ellipse_383" data-name="Ellipse 383" cx="11.895" cy="11.895" r="11.895" transform="translate(422.782 374.085)" fill="#afafaf"/>
    <circle id="Ellipse_384" data-name="Ellipse 384" cx="11.895" cy="11.895" r="11.895" transform="translate(455.494 374.085)" fill="#afafaf"/>
    <circle id="Ellipse_385" data-name="Ellipse 385" cx="11.895" cy="11.895" r="11.895" transform="translate(390.069 372.085)" fill="#afafaf"/>
    <circle id="Ellipse_386" data-name="Ellipse 386" cx="11.895" cy="11.895" r="11.895" transform="translate(422.782 372.085)" fill="#afafaf"/>
    <circle id="Ellipse_387" data-name="Ellipse 387" cx="11.895" cy="11.895" r="11.895" transform="translate(455.494 372.085)" fill="#afafaf"/>
    <circle id="Ellipse_49" data-name="Ellipse 49" cx="11.895" cy="11.895" r="11.895" transform="translate(455.493 377.085)" fill="#afafaf"/>
    <circle id="Ellipse_376" data-name="Ellipse 376" cx="11.895" cy="11.895" r="11.895" transform="translate(390.069 371.085)" fill="#fff"/>
    <circle id="Ellipse_377" data-name="Ellipse 377" cx="11.895" cy="11.895" r="11.895" transform="translate(422.781 371.085)" fill="#fff"/>
    <circle id="Ellipse_378" data-name="Ellipse 378" cx="11.895" cy="11.895" r="11.895" transform="translate(455.494 371.085)" fill="#fff"/>
  </g>
</svg>
