<svg xmlns="http://www.w3.org/2000/svg" width="120" height="121.803" viewBox="0 0 120 121.803"><defs><style>.a{fill:#231f20;opacity:0.3;}.b{fill:#4a7250;}.c{fill:#fcf3a2;}.d{fill:#314c36;}.e{fill:#fff;}.f{fill:none;}</style></defs><g transform="translate(0 1.59)"><g transform="translate(568.809 -1285.395)"><path class="a" d="M-492.762,1368.032c1.957-12.7,19.134-17.685,19.134-37.28,0-16.012-17.543-27.333-35.665-27.333s-35.667,11.322-35.667,27.333c0,19.593,17.177,24.578,19.134,37.28h.153v14.878h.033v1.875c0,2.749,2.807,4.785,5.944,4.785h4.458v2.393c0,2.652,2.651,3.675,5.945,3.675s5.945-1.024,5.945-3.675v-2.393h4.458c3.136,0,5.945-2.036,5.945-4.785v-2.393h0V1377.6h0v-4.785h0v-4.787Z" transform="translate(0 9.969)"/><rect class="b" width="32.091" height="19.756" transform="translate(-525.356 1369.617)"/><path class="c" d="M-509.293,1287.607c-18.123,0-35.667,14.569-35.667,35.174,0,25.214,17.177,31.626,19.134,47.974h33.065c1.957-16.348,19.134-22.76,19.134-47.974C-473.628,1302.176-491.17,1287.607-509.293,1287.607Z"/><rect class="d" width="32.058" height="5.989" transform="translate(-525.323 1376.292)"/><path class="d" d="M-533.341,1348.217v2.995a5.917,5.917,0,0,0,5.829,5.989h4.371v2.995c0,3.318,2.6,3.383,5.829,3.383s5.829-.065,5.829-3.383V1357.2h4.371a5.918,5.918,0,0,0,5.829-5.989v-2.995Z" transform="translate(8.019 40.506)"/><path class="e" d="M-516.037,1292.316c1.9-.093,3.51.9,3.46,2.854a3.077,3.077,0,0,1-2.822,3.088,22.207,22.207,0,0,0-19.263,22.32,23.028,23.028,0,0,0,.956,6.6,3.132,3.132,0,0,1-1.867,3.977,3.012,3.012,0,0,1-3.688-2.247,28.929,28.929,0,0,1-1.229-8.329C-540.491,1306.029-529.8,1293.965-516.037,1292.316Z" transform="translate(2.818 2.965)"/><ellipse class="e" cx="19.764" cy="25.779" rx="19.764" ry="25.779" transform="translate(-528.807 1299.757)"/></g><rect class="f" width="120" height="120"/></g></svg>