<svg id="Icon_-_Summary" data-name="Icon - Summary" xmlns="http://www.w3.org/2000/svg" width="120" height="120" viewBox="0 0 120 120">
  <g id="Group_1552" data-name="Group 1552" transform="translate(2077.635 -1136.022)">
    <path id="Path_1610" data-name="Path 1610" d="M-1975.428,1153.805l-.164-.011c-.018-5.3-.241-8.46-.241-8.46l-53.872-3.845c-8.653,39.292-35.393,75.823-35.393,75.823l-4.173,8.686c34.406,17.122,70.011,25.249,70.011,25.249C-1971.071,1215.042-1975.428,1153.805-1975.428,1153.805Z" transform="translate(-0.177 -0.228)" opacity="0.3"/>
    <path id="Path_1611" data-name="Path 1611" d="M-1975.04,1153.853l-.166-.018c.239-4.886.166-7.811.166-7.811l-54.338-5.922c-10.661,35.846-44.139,68.346-44.139,68.346v7.828c33.993,17.306,69.634,26.371,69.634,26.371C-1973.6,1210.508-1975.04,1153.853-1975.04,1153.853Z" transform="translate(0 -0.17)" fill="#432918"/>
    <path id="Path_1612" data-name="Path 1612" d="M-2073.516,1208.447s33.478-32.5,44.139-68.346l54.338,5.922s1.442,56.655-28.843,88.794C-2003.883,1234.817-2039.524,1225.752-2073.516,1208.447Z" transform="translate(0 -0.17)" fill="#683d13"/>
    <path id="Path_1613" data-name="Path 1613" d="M-2063.282,1208.961s33.993-40.792,32.139-56.089l48.208.927s7.138,31.489-22.375,76.607C-2005.31,1230.406-2043.042,1221.322-2063.282,1208.961Z" transform="translate(-0.427 -0.703)" fill="#432918"/>
    <path id="Path_1614" data-name="Path 1614" d="M-2064.917,1205.063s35.692-40.637,33.839-55.933l48.208.927s5.769,30.748-23.743,75.866C-2006.614,1225.923-2044.676,1217.425-2064.917,1205.063Z" transform="translate(-0.358 -0.546)" fill="#d9d9d9"/>
    <path id="Path_1615" data-name="Path 1615" d="M-2068.464,1198.729s39.092-35.445,37.238-49.6l48.207.858c.419.222,2.724,26.691-24.258,70.219C-2007.277,1220.206-2048.223,1210.166-2068.464,1198.729Z" transform="translate(-0.211 -0.546)" fill="#edecec"/>
    <path id="Path_1616" data-name="Path 1616" d="M-2035.553,1140.746c16.07,5.716,52.38,8.961,52.38,8.961-6.644,37.856-26.422,64.123-26.422,64.123-32.757-6.334-62.579-23.64-62.579-23.64s18.851-13.6,27.041-28.894S-2035.553,1140.746-2035.553,1140.746Z" transform="translate(-0.056 -0.197)" fill="#fff"/>
    <path id="Path_1617" data-name="Path 1617" d="M-2043.446,1173.662s-10.2,15.605,6.49,23.331,35.229-8.962,33.375-19.623-8.653-12.515-12.979-13.752S-2035.1,1162.537-2043.446,1173.662Z" transform="translate(-1.125 -1.129)" fill="#8cbf44"/>
    <path id="Path_1216" data-name="Path 1216" d="M-2011.631,1176.8l-1.715-3.037a1.707,1.707,0,0,0-1.062-.823,1.763,1.763,0,0,0-1.287.209l-6.382,3.871-6.047,3.6-1.989,1.207-3.347-6.053a1.684,1.684,0,0,0-1.02-.813,1.706,1.706,0,0,0-1.328.2l-2.982,1.808a1.774,1.774,0,0,0-.794,1.019,1.9,1.9,0,0,0,.171,1.363l5.987,10.6a1.551,1.551,0,0,0,1.062.822,1.335,1.335,0,0,0,1.287-.208l6.382-3.872,5.953-3.575,6.383-3.872a1.9,1.9,0,0,0,.816-1.1A1.468,1.468,0,0,0-2011.631,1176.8Z" transform="translate(-1.412 -1.537)" fill="#fff"/>
    <path id="Path_1618" data-name="Path 1618" d="M-2007.213,1162.392l-2.575-6.416s-.454-.616-1.58-.059a2.072,2.072,0,0,0-1.233,1.452l-1.8,4.859c-2.315.422-4.568,1.4-5.355,3.508-1.58,4.234,4.211,6.164,6.1,6.407s11.212.268,11.023-4.552C-2002.762,1164.324-2005.476,1162.943-2007.213,1162.392Z" transform="translate(-2.23 -0.82)" fill="#1d1e1c" opacity="0.22"/>
    <path id="Path_1619" data-name="Path 1619" d="M-2019.126,1150.165l6.335,5.871a1.721,1.721,0,0,0,1.854.618,1.5,1.5,0,0,0,1.236-1.391l-2.009-10.971Z" transform="translate(-2.268 -0.345)" fill="#cc6a1a"/>
    <path id="Path_1620" data-name="Path 1620" d="M-2020.813,1136.686a8.448,8.448,0,0,0-5.409,8.653c.31,6.8,9.58,5.408,11.435,4.79s7.417-4.172,5.408-9.889S-2018.8,1136.068-2020.813,1136.686Z" transform="translate(-1.971 0)" fill="#f18c41"/>
    <path id="Path_1621" data-name="Path 1621" d="M-2017.205,1141.64s2.914-1.51,2.084-3.843-5.712-.449-6.655.046-3.608,2.578-1.965,4.276S-2018.233,1142.16-2017.205,1141.64Z" transform="translate(-2.054 -0.026)" fill="#f7b283"/>
    <rect id="Frame" width="56.913" height="56.913" transform="translate(-2066.953 1188.135) rotate(-57.923)" fill="none"/>
  </g>
  <rect id="frame-2" data-name="frame" width="120" height="120" fill="none"/>
</svg>
