<svg id="Icon_-_Reading_Light" data-name="Icon - Reading Light" xmlns="http://www.w3.org/2000/svg" width="120" height="120" viewBox="0 0 120 120">
  <rect id="Frame" width="120" height="120" fill="none"/>
  <g id="Icon" transform="translate(6687.622 6366.747)">
    <g id="Group_387" data-name="Group 387" opacity="0.3">
      <g id="Group_386" data-name="Group 386">
        <g id="Group_385" data-name="Group 385">
          <path id="Path_1031" data-name="Path 1031" d="M-6621.851-6326.452l-21.343,29.634h15.845l-6.6,22.133,21.89-29.816H-6627.8Z" fill="#231f20"/>
        </g>
      </g>
    </g>
    <g id="Group_390" data-name="Group 390">
      <g id="Group_388" data-name="Group 388" opacity="0.3">
        <path id="Path_1032" data-name="Path 1032" d="M-6601.68-6349.7h-51.882a1.252,1.252,0,0,0-1.326,1.172,1.23,1.23,0,0,0,0,.147v5.031c0,.132,8.483,19.327,8.616,19.46V-6317a5.2,5.2,0,0,0-5.168,5.234c0,.021,0,.041,0,.061a5.376,5.376,0,0,0,5.167,5.295v46.725a7.969,7.969,0,0,0,7.953,7.942h21.394a7.969,7.969,0,0,0,7.953-7.942V-6323.9s8.616-19.327,8.616-19.46v-5.031a1.251,1.251,0,0,0-1.186-1.313A1.305,1.305,0,0,0-6601.68-6349.7Z"/>
      </g>
      <g id="Group_389" data-name="Group 389">
        <path id="Path_1033" data-name="Path 1033" d="M-6601.68-6354.1h-51.882a1.252,1.252,0,0,0-1.326,1.174,1.279,1.279,0,0,0,0,.15v5.03c0,.133,8.483,19.328,8.616,19.46v6.884a5.2,5.2,0,0,0-5.168,5.236c0,.02,0,.04,0,.059a5.377,5.377,0,0,0,5.167,5.295v46.726a7.97,7.97,0,0,0,7.953,7.942h21.394a7.969,7.969,0,0,0,7.953-7.942v-64.207s8.616-19.326,8.616-19.459v-5.03a1.252,1.252,0,0,0-1.18-1.319A1.418,1.418,0,0,0-6601.68-6354.1Z"/>
      </g>
    </g>
    <path id="Path_1034" data-name="Path 1034" d="M-6607.714-6354.1h-39.815c-.611,0-1.017.518-1.017,1.295v4.919c0,.129,6.511,18.9,6.612,19.027v6.731c-2.237,0-3.966,2.331-3.966,5.178s1.83,5.049,3.966,5.177v45.693c0,4.273,2.749,7.767,6.1,7.767h16.418c3.357,0,6.1-3.494,6.1-7.767v-62.777s6.612-18.9,6.612-19.027v-4.919C-6606.693-6353.58-6607.1-6354.1-6607.714-6354.1Z" fill="#14130b"/>
    <path id="Path_1035" data-name="Path 1035" d="M-6613.168-6354.1h-28.907c-.44,0-.739.5-.739,1.262v4.793c0,.127,4.728,18.418,4.8,18.544v61.182c0,4.163,1.994,7.569,4.431,7.569h11.919c2.437,0,4.431-3.408,4.431-7.569V-6329.5s4.8-18.417,4.8-18.544v-4.793C-6612.429-6353.594-6612.725-6354.1-6613.168-6354.1Z" fill="#1e1d18"/>
    <g id="Group_392" data-name="Group 392">
      <g id="Group_391" data-name="Group 391">
        <path id="Path_1036" data-name="Path 1036" d="M-6621.851-6334.072l-21.343,29.633h15.845l-6.6,22.134,21.89-29.816H-6627.8Z" fill="#fff23d"/>
      </g>
    </g>
    <path id="Path_1037" data-name="Path 1037" d="M-6638.227-6304.439v-6.893l-4.964,6.893Z" fill="#dbcd28"/>
    <path id="Path_1038" data-name="Path 1038" d="M-6617.112-6312.121v6.892l5.058-6.892Z" fill="#dbcd28"/>
    <path id="Path_1039" data-name="Path 1039" d="M-6642.049-6306.025l-1.145,1.586h1.142Z" fill="#bfb234"/>
    <path id="Path_1040" data-name="Path 1040" d="M-6613.29-6310.436l1.237-1.685h-1.237Z" fill="#bfb234"/>
    <path id="Path_1041" data-name="Path 1041" d="M-6627.574-6361.741c-12,0-22.334,3.327-27.062,8.121h54.124C-6605.239-6358.414-6615.576-6361.741-6627.574-6361.741Z" fill="#fffaad"/>
    <path id="Path_1042" data-name="Path 1042" d="M-6627.574-6361.741a53.22,53.22,0,0,0-19.2,3.3h38.392a50.257,50.257,0,0,0-14.212-3.1C-6623.982-6361.665-6625.759-6361.741-6627.574-6361.741Z" fill="#fff"/>
  </g>
</svg>
