<svg id="Icon_-_Twitter" data-name="Icon - Twitter" xmlns="http://www.w3.org/2000/svg" width="120" height="120" viewBox="0 0 120 120">
  <rect id="frame" width="120" height="120" fill="none"/>
  <path id="twitter-01" d="M78,13.556a34.017,34.017,0,0,1-9.141,2.559,16.114,16.114,0,0,0,7.069-8.9,31.757,31.757,0,0,1-10.116,3.9A16.3,16.3,0,0,0,53.991,6,15.942,15.942,0,0,0,38.025,21.966a18.6,18.6,0,0,0,.366,3.656A45.089,45.089,0,0,1,5.484,8.925a16.2,16.2,0,0,0-2.194,8.044,15.8,15.8,0,0,0,7.069,13.284A17,17,0,0,1,3.169,28.3v.244a15.975,15.975,0,0,0,12.8,15.722,16.391,16.391,0,0,1-4.266.609,25.657,25.657,0,0,1-3.047-.244A16.037,16.037,0,0,0,23.644,55.725,32.376,32.376,0,0,1,3.778,62.55,36.909,36.909,0,0,1,0,62.306a46.435,46.435,0,0,0,24.5,7.069c29.494,0,45.581-24.375,45.581-45.581V21.722A33.654,33.654,0,0,0,78,13.556Z" transform="translate(21 30.313)" fill="rgba(0,0,0,0.3)"/>
  <path id="twitter-01-2" data-name="twitter-01" d="M78,13.556a34.017,34.017,0,0,1-9.141,2.559,16.114,16.114,0,0,0,7.069-8.9,31.757,31.757,0,0,1-10.116,3.9A16.3,16.3,0,0,0,53.991,6,15.942,15.942,0,0,0,38.025,21.966a18.6,18.6,0,0,0,.366,3.656A45.089,45.089,0,0,1,5.484,8.925a16.2,16.2,0,0,0-2.194,8.044,15.8,15.8,0,0,0,7.069,13.284A17,17,0,0,1,3.169,28.3v.244a15.975,15.975,0,0,0,12.8,15.722,16.391,16.391,0,0,1-4.266.609,25.657,25.657,0,0,1-3.047-.244A16.037,16.037,0,0,0,23.644,55.725,32.376,32.376,0,0,1,3.778,62.55,36.909,36.909,0,0,1,0,62.306a46.435,46.435,0,0,0,24.5,7.069c29.494,0,45.581-24.375,45.581-45.581V21.722A33.654,33.654,0,0,0,78,13.556Z" transform="translate(21 24.313)" fill="#afafaf"/>
  <path id="twitter-01-3" data-name="twitter-01" d="M78,13.556a34.017,34.017,0,0,1-9.141,2.559,16.114,16.114,0,0,0,7.069-8.9,31.757,31.757,0,0,1-10.116,3.9A16.3,16.3,0,0,0,53.991,6,15.942,15.942,0,0,0,38.025,21.966a18.6,18.6,0,0,0,.366,3.656A45.089,45.089,0,0,1,5.484,8.925a16.2,16.2,0,0,0-2.194,8.044,15.8,15.8,0,0,0,7.069,13.284A17,17,0,0,1,3.169,28.3v.244a15.975,15.975,0,0,0,12.8,15.722,16.391,16.391,0,0,1-4.266.609,25.657,25.657,0,0,1-3.047-.244A16.037,16.037,0,0,0,23.644,55.725,32.376,32.376,0,0,1,3.778,62.55,36.909,36.909,0,0,1,0,62.306a46.435,46.435,0,0,0,24.5,7.069c29.494,0,45.581-24.375,45.581-45.581V21.722A33.654,33.654,0,0,0,78,13.556Z" transform="translate(21 18.313)" fill="#fff"/>
</svg>
