<svg xmlns="http://www.w3.org/2000/svg" width="120" height="120" viewBox="0 0 120 120"><defs><style>.a{fill:none;}.b{fill:#3ba6dd;}.c{fill:#fff;}.d{fill:#ffef00;}</style></defs><rect class="a" width="120" height="120"/><g transform="translate(-4567.316 -550.675)"><path class="b" d="M4601.735,579.93v60.45a4.648,4.648,0,0,0,4.656,4.658h41.882a4.659,4.659,0,0,0,4.656-4.658V579.93a4.649,4.649,0,0,0-4.656-4.659h-41.882A4.659,4.659,0,0,0,4601.735,579.93Zm46.538-1.558a1.546,1.546,0,0,1,1.553,1.558v60.45a1.556,1.556,0,0,1-1.553,1.558h-41.882a1.546,1.546,0,0,1-1.553-1.558V579.93a1.557,1.557,0,0,1,1.553-1.558Z"/><path class="c" d="M4612.221,597.3a2.448,2.448,0,0,0,2.452-2.452,2.451,2.451,0,1,0-2.452,2.452Z"/><path class="d" d="M4618,594.759a1.738,1.738,0,0,1,1.663-1.751h15.586a1.8,1.8,0,0,1,1.664,1.751,1.738,1.738,0,0,1-1.664,1.751h-15.586A1.738,1.738,0,0,1,4618,594.759Z"/><path class="d" d="M4618,602.639a1.738,1.738,0,0,1,1.663-1.751h15.586a1.8,1.8,0,0,1,1.664,1.751,1.738,1.738,0,0,1-1.664,1.751h-15.586A1.738,1.738,0,0,1,4618,602.639Z"/><path class="c" d="M4612.221,613.321a2.447,2.447,0,0,0,2.452-2.451,2.451,2.451,0,1,0-2.452,2.451Z"/><path class="d" d="M4618,610.52a1.739,1.739,0,0,1,1.663-1.752h10.682a1.8,1.8,0,0,1,1.664,1.752,1.737,1.737,0,0,1-1.664,1.75h-10.682A1.737,1.737,0,0,1,4618,610.52Z"/><path class="c" d="M4612.221,605.353a2.447,2.447,0,0,0,2.452-2.451,2.451,2.451,0,1,0-2.452,2.451Z"/><path class="c" d="M4612.221,621.377a2.448,2.448,0,0,0,2.452-2.452,2.451,2.451,0,1,0-2.452,2.452Z"/><path class="d" d="M4618,619.275a1.738,1.738,0,0,1,1.663-1.751H4637.7a1.8,1.8,0,0,1,1.664,1.751,1.737,1.737,0,0,1-1.664,1.751h-18.037A1.738,1.738,0,0,1,4618,619.275Z"/><path class="c" d="M4612.221,629.345a2.448,2.448,0,0,0,2.452-2.452,2.451,2.451,0,1,0-2.452,2.452Z"/><path class="d" d="M4618,627.155a1.739,1.739,0,0,1,1.663-1.752h14.8a1.805,1.805,0,0,1,1.664,1.752,1.74,1.74,0,0,1-1.664,1.752h-14.8A1.738,1.738,0,0,1,4618,627.155Z"/><path class="c" d="M4612.221,637.4a2.446,2.446,0,0,0,2.452-2.451,2.451,2.451,0,1,0-2.452,2.451Z"/><path class="d" d="M4618,635.036a1.738,1.738,0,0,1,1.663-1.752h20.489a1.8,1.8,0,0,1,1.664,1.752,1.738,1.738,0,0,1-1.664,1.75h-20.489A1.737,1.737,0,0,1,4618,635.036Z"/><path class="c" d="M4612.8,589.714l-1.165-2.108h-.925v2.108h-1.263v-5.931h2.774a1.847,1.847,0,0,1,1.992,1.912,1.7,1.7,0,0,1-1.3,1.76l1.334,2.259Zm.124-4.019a.805.805,0,0,0-.889-.8h-1.325v1.6h1.325A.8.8,0,0,0,4612.927,585.7Z"/><path class="c" d="M4615.168,589.714v-5.931h4.2V584.9h-2.933v1.254h2.87v1.111h-2.87V588.6h2.933v1.111Z"/><path class="c" d="M4620.353,589.714v-5.931h2.774a1.913,1.913,0,1,1,0,3.823h-1.511v2.108Zm3.477-4.019a.8.8,0,0,0-.871-.8h-1.343v1.6h1.343A.8.8,0,0,0,4623.83,585.7Z"/><path class="c" d="M4625.618,586.753a3.1,3.1,0,1,1,3.095,3.068A2.978,2.978,0,0,1,4625.618,586.753Zm4.9,0a1.806,1.806,0,1,0-1.8,1.947A1.8,1.8,0,0,0,4630.517,586.753Z"/><path class="c" d="M4636.058,589.714l-1.165-2.108h-.924v2.108h-1.264v-5.931h2.774a1.848,1.848,0,0,1,1.992,1.912,1.7,1.7,0,0,1-1.3,1.76l1.334,2.259Zm.124-4.019a.806.806,0,0,0-.889-.8h-1.324v1.6h1.324A.805.805,0,0,0,4636.182,585.7Z"/><path class="c" d="M4639.7,589.714V584.9h-1.734v-1.112h4.731V584.9h-1.725v4.819Z"/></g></svg>