<svg id="add-chapter" xmlns="http://www.w3.org/2000/svg" xmlns:xlink="http://www.w3.org/1999/xlink" width="70" height="70" viewBox="0 0 70 70">
  <defs>
    <clipPath id="clip-path">
      <rect id="Rectangle_3404" data-name="Rectangle 3404" width="70" height="70" fill="none"/>
    </clipPath>
    <clipPath id="clip-path-3">
      <rect id="Rectangle_3386" data-name="Rectangle 3386" width="42.998" height="60.097" transform="translate(22.074 7.614)" fill="none"/>
    </clipPath>
    <clipPath id="clip-path-4">
      <path id="Path_6297" data-name="Path 6297" d="M65.073,6.637,25.519,10.959l-.1,2.956L17.381,66.849l41.519.022L65.072,9.9Z" fill="none" clip-rule="evenodd"/>
    </clipPath>
    <linearGradient id="linear-gradient" x1="-0.364" y1="1.052" x2="-0.343" y2="1.052" gradientUnits="objectBoundingBox">
      <stop offset="0" stop-color="#dcd5e6"/>
      <stop offset="0.017" stop-color="#dcd5e6"/>
      <stop offset="0.175" stop-color="#e1dbec"/>
      <stop offset="0.562" stop-color="#eae6f5"/>
      <stop offset="1" stop-color="#eeeaf9"/>
    </linearGradient>
    <clipPath id="clip-path-6">
      <rect id="Rectangle_3390" data-name="Rectangle 3390" width="47.692" height="60.234" transform="translate(17.381 6.637)" fill="none"/>
    </clipPath>
    <clipPath id="clip-path-12">
      <rect id="Rectangle_3395" data-name="Rectangle 3395" width="42.998" height="60.097" transform="translate(17.821 5.46)" fill="none"/>
    </clipPath>
    <clipPath id="clip-path-13">
      <path id="Path_6302" data-name="Path 6302" d="M60.82,4.483,21.266,8.806l-.105,2.955L13.128,64.695l41.519.022L60.818,7.749Z" fill="none" clip-rule="evenodd"/>
    </clipPath>
    <linearGradient id="linear-gradient-5" x1="-0.275" y1="1.087" x2="-0.254" y2="1.087" xlink:href="#linear-gradient"/>
    <clipPath id="clip-path-15">
      <rect id="Rectangle_3399" data-name="Rectangle 3399" width="47.692" height="60.234" transform="translate(13.128 4.483)" fill="none"/>
    </clipPath>
    <clipPath id="clip-path-17">
      <rect id="Rectangle_3400" data-name="Rectangle 3400" width="42.998" height="60.097" transform="translate(13.515 2.887)" fill="none"/>
    </clipPath>
    <clipPath id="clip-path-19">
      <rect id="Rectangle_3402" data-name="Rectangle 3402" width="29.854" height="29.86" transform="translate(19.249 20.511)" fill="none"/>
    </clipPath>
  </defs>
  <g id="Group_8604" data-name="Group 8604">
    <g id="Group_8603" data-name="Group 8603" clip-path="url(#clip-path)">
      <g id="Group_8563" data-name="Group 8563">
        <g id="Group_8562" data-name="Group 8562" clip-path="url(#clip-path)">
          <g id="Group_8561" data-name="Group 8561" opacity="0.3">
            <g id="Group_8560" data-name="Group 8560">
              <g id="Group_8559" data-name="Group 8559" clip-path="url(#clip-path-3)">
                <path id="Path_6296" data-name="Path 6296" d="M65.073,7.614,26.777,11.8l-.1,2.956-4.6,52.935,38.084.021L65,10.567Z" fill-rule="evenodd"/>
              </g>
            </g>
          </g>
        </g>
      </g>
      <g id="Group_8565" data-name="Group 8565">
        <g id="Group_8564" data-name="Group 8564" clip-path="url(#clip-path-4)">
          <rect id="Rectangle_3388" data-name="Rectangle 3388" width="47.724" height="60.259" transform="translate(17.365 6.624)" fill="url(#linear-gradient)"/>
        </g>
      </g>
      <g id="Group_8585" data-name="Group 8585">
        <g id="Group_8584" data-name="Group 8584" clip-path="url(#clip-path)">
          <g id="Group_8570" data-name="Group 8570" style="mix-blend-mode: multiply;isolation: isolate">
            <g id="Group_8569" data-name="Group 8569">
              <g id="Group_8568" data-name="Group 8568" clip-path="url(#clip-path-6)">
                <g id="Group_8567" data-name="Group 8567">
                  <g id="Group_8566" data-name="Group 8566" clip-path="url(#clip-path-4)">
                    <rect id="Rectangle_3389" data-name="Rectangle 3389" width="47.724" height="60.259" transform="translate(17.365 6.624)" fill="url(#linear-gradient)"/>
                  </g>
                </g>
              </g>
            </g>
          </g>
          <g id="Group_8575" data-name="Group 8575" style="mix-blend-mode: multiply;isolation: isolate">
            <g id="Group_8574" data-name="Group 8574">
              <g id="Group_8573" data-name="Group 8573" clip-path="url(#clip-path-6)">
                <g id="Group_8572" data-name="Group 8572">
                  <g id="Group_8571" data-name="Group 8571" clip-path="url(#clip-path-4)">
                    <rect id="Rectangle_3391" data-name="Rectangle 3391" width="47.724" height="60.259" transform="translate(17.365 6.624)" fill="url(#linear-gradient)"/>
                  </g>
                </g>
              </g>
            </g>
          </g>
          <g id="Group_8580" data-name="Group 8580" style="mix-blend-mode: multiply;isolation: isolate">
            <g id="Group_8579" data-name="Group 8579">
              <g id="Group_8578" data-name="Group 8578" clip-path="url(#clip-path-6)">
                <g id="Group_8577" data-name="Group 8577">
                  <g id="Group_8576" data-name="Group 8576" clip-path="url(#clip-path-4)">
                    <rect id="Rectangle_3393" data-name="Rectangle 3393" width="47.724" height="60.259" transform="translate(17.365 6.624)" fill="url(#linear-gradient)"/>
                  </g>
                </g>
              </g>
            </g>
          </g>
          <g id="Group_8583" data-name="Group 8583" opacity="0.3">
            <g id="Group_8582" data-name="Group 8582">
              <g id="Group_8581" data-name="Group 8581" clip-path="url(#clip-path-12)">
                <path id="Path_6301" data-name="Path 6301" d="M60.82,5.46l-38.3,4.185-.1,2.956-4.6,52.935,38.084.021L60.747,8.413Z" fill-rule="evenodd"/>
              </g>
            </g>
          </g>
        </g>
      </g>
      <g id="Group_8587" data-name="Group 8587">
        <g id="Group_8586" data-name="Group 8586" clip-path="url(#clip-path-13)">
          <rect id="Rectangle_3397" data-name="Rectangle 3397" width="47.724" height="60.259" transform="translate(13.112 4.47)" fill="url(#linear-gradient-5)"/>
        </g>
      </g>
      <g id="Group_8597" data-name="Group 8597">
        <g id="Group_8596" data-name="Group 8596" clip-path="url(#clip-path)">
          <g id="Group_8592" data-name="Group 8592" style="mix-blend-mode: multiply;isolation: isolate">
            <g id="Group_8591" data-name="Group 8591">
              <g id="Group_8590" data-name="Group 8590" clip-path="url(#clip-path-15)">
                <g id="Group_8589" data-name="Group 8589">
                  <g id="Group_8588" data-name="Group 8588" clip-path="url(#clip-path-13)">
                    <rect id="Rectangle_3398" data-name="Rectangle 3398" width="47.724" height="60.259" transform="translate(13.112 4.47)" fill="url(#linear-gradient-5)"/>
                  </g>
                </g>
              </g>
            </g>
          </g>
          <g id="Group_8595" data-name="Group 8595" opacity="0.3">
            <g id="Group_8594" data-name="Group 8594">
              <g id="Group_8593" data-name="Group 8593" clip-path="url(#clip-path-17)">
                <path id="Path_6304" data-name="Path 6304" d="M56.514,2.887l-38.3,4.185-.1,2.956-4.6,52.935,38.084.021L56.441,5.84Z" fill-rule="evenodd"/>
              </g>
            </g>
          </g>
        </g>
      </g>
      <path id="Path_6305" data-name="Path 6305" d="M56.514,1.909,16.96,6.231l-.1,2.956L8.822,62.121l41.519.022L56.512,5.175Z" fill="#fff" fill-rule="evenodd"/>
      <g id="Group_8602" data-name="Group 8602">
        <g id="Group_8601" data-name="Group 8601" clip-path="url(#clip-path)">
          <g id="Group_8600" data-name="Group 8600" opacity="0.3" style="mix-blend-mode: normal;isolation: isolate">
            <g id="Group_8599" data-name="Group 8599">
              <g id="Group_8598" data-name="Group 8598" clip-path="url(#clip-path-19)">
                <path id="Path_6306" data-name="Path 6306" d="M36.275,21.141a1.748,1.748,0,0,0-.683-.542,2.012,2.012,0,0,0-.715-.085c-1.21,0-2.6.083-3.34,1.04a3.731,3.731,0,0,0-.577,1.379,37.951,37.951,0,0,0-1.039,8.478q-3.028.073-6.058.191c-1.455.059-3.118.234-3.963,1.422a3.594,3.594,0,0,0-.552,1.447,4.421,4.421,0,0,0,.341,2.912,4.238,4.238,0,0,0,2.565,1.9,10.986,10.986,0,0,0,3.251.319c1.486-.017,2.982-.165,4.475-.281q.072,3.22.192,6.436c.057,1.456.231,3.119,1.418,3.961a3.607,3.607,0,0,0,1.447.551,4.433,4.433,0,0,0,2.913-.344,4.253,4.253,0,0,0,1.907-2.567,11.028,11.028,0,0,0,.322-3.252c-.015-1.543-.173-3.1-.288-4.648.83.057,1.661.1,2.49.12,2.835.053,5.935-.061,8.091-1.905a1.75,1.75,0,0,0,.542-.684,2.037,2.037,0,0,0,.087-.715c0-2.619-1.363-5.024-4.162-5.432a9.84,9.84,0,0,0-2.129,0l-2.875.209a2.456,2.456,0,0,1-1.084-.084c-.753-.3-.694-1.085-.681-1.74.056-2.835-.054-5.935-1.895-8.09"/>
              </g>
            </g>
          </g>
          <path id="Path_6307" data-name="Path 6307" d="M36.025,19.092a7.553,7.553,0,0,0-1.508-1.4,1.919,1.919,0,0,0-.573-.314,1.783,1.783,0,0,0-1.106.158,4.35,4.35,0,0,0-.694.327c-1.543.937-1.58,3.6-1.86,5.209-.089.518-.689,6.26-.564,6.256q-3.03.077-6.058.192c-1.455.059-3.118.234-3.963,1.422a3.594,3.594,0,0,0-.552,1.447,4.431,4.431,0,0,0,.34,2.913,4.238,4.238,0,0,0,2.565,1.9,10.986,10.986,0,0,0,3.251.319c1.486-.017,2.982-.165,4.475-.281q.072,3.217.192,6.434c.057,1.455.23,3.119,1.417,3.961a3.6,3.6,0,0,0,1.446.552,4.442,4.442,0,0,0,2.914-.344,4.256,4.256,0,0,0,1.907-2.567,11.035,11.035,0,0,0,.322-3.253c-.015-1.542-.173-3.1-.289-4.648.831.058,1.662.106,2.491.121,2.835.053,5.934-.061,8.091-1.9a1.759,1.759,0,0,0,.542-.684,2.039,2.039,0,0,0,.086-.716,4.7,4.7,0,0,0-2.27-4.411,2.453,2.453,0,0,0-.806-.337c-1.148-.217-2.306.22-3.469.088-.373-.042-4.475-.387-4.48-.287.045-.7.083-1.4.1-2.1.057-2.947-.163-5.858-1.942-8.052" fill="#662d91"/>
          <path id="Path_6308" data-name="Path 6308" d="M36.859,36.394a.48.48,0,0,1-.191-.335c.011-.239.325-.312.564-.319a22.358,22.358,0,0,0,2.519-.224c1.71-.252,3.394-.7,5.119-.829a1.712,1.712,0,0,1,.945.124,1.114,1.114,0,0,1,.432,1.336,1.8,1.8,0,0,1-1.091,1,4.927,4.927,0,0,1-1.5.237c-2.11.095-5.169.595-6.792-.993" fill="#41116b"/>
          <path id="Path_6309" data-name="Path 6309" d="M23.757,37.462a34.938,34.938,0,0,0,4.53-.027c.494-.025,1.086-.112,1.289-.563a.929.929,0,0,0-.5-1.122,2.617,2.617,0,0,0-1.327-.179,31.519,31.519,0,0,0-5.067.481c-2.1.444-.035,1.32,1.077,1.41" fill="#41116b"/>
          <path id="Path_6310" data-name="Path 6310" d="M35.37,47.792a1.169,1.169,0,0,0-.3-1.489,3.017,3.017,0,0,0-1.543-.57,17.845,17.845,0,0,0-2.713-.21c-1.321,0,.112,1.978.646,2.288a4.728,4.728,0,0,0,2.226.412c.574.033,1.3.113,1.686-.431" fill="#41116b"/>
          <path id="Path_6311" data-name="Path 6311" d="M40.287,35.979c-2.346-.044-4.711-.346-7.022-.391-2.6-.051-5.243.387-7.854.417a10.983,10.983,0,0,1-3.25-.32,4.237,4.237,0,0,1-2.565-1.9,4.43,4.43,0,0,1-.34-2.913,3.594,3.594,0,0,1,.552-1.447c.845-1.188,2.508-1.364,3.963-1.422q4.9-.2,9.806-.272a49.435,49.435,0,0,1,13.014,1.034,3.71,3.71,0,0,1,1.379.575c.956.74,1.037,2.129,1.036,3.339a2.041,2.041,0,0,1-.086.716,1.751,1.751,0,0,1-.543.683c-2.156,1.844-5.256,1.957-8.09,1.9" fill="#9241d8"/>
          <path id="Path_6312" data-name="Path 6312" d="M38.077,25.627c-.047,2.347-.351,4.713-.4,7.025-.054,2.6.38,5.244.407,7.854a11,11,0,0,1-.323,3.252,4.251,4.251,0,0,1-1.907,2.568,4.431,4.431,0,0,1-2.913.343,3.6,3.6,0,0,1-1.444-.551c-1.186-.843-1.36-2.507-1.417-3.962q-.195-4.9-.262-9.807a49.563,49.563,0,0,1,1.048-13.018,3.714,3.714,0,0,1,.578-1.38c.741-.958,2.129-1.04,3.339-1.04A2.015,2.015,0,0,1,35.5,17a1.746,1.746,0,0,1,.683.541c1.841,2.155,1.951,5.255,1.9,8.09" fill="#9241d8"/>
        </g>
      </g>
    </g>
  </g>
</svg>
