<svg id="add-friend" xmlns="http://www.w3.org/2000/svg" width="70" height="70" viewBox="0 0 70 70">
  <g id="Friends">
    <rect id="frame" width="70" height="69.828" fill="none"/>
    <path id="Path_1378" data-name="Path 1378" d="M1414.565,11.7a14.122,14.122,0,0,0-10.314,4.1,14.623,14.623,0,0,0-3.234,4.708,15.5,15.5,0,0,0-3.147-4.621,14.266,14.266,0,0,0-10.314-4.272c-8.566,0-15.035,7.5-14.51,16.043,1.136,15.781,19.229,27.465,25.7,31.127a4.683,4.683,0,0,0,4.545,0c6.468-3.662,24.561-15.346,25.7-31.127C1429.511,19.195,1423.13,11.7,1414.565,11.7Z" transform="translate(-1366.017 4.08)" opacity="0.3"/>
    <path id="Path_35" data-name="Path 35" d="M1414.565,11.7a14.122,14.122,0,0,0-10.314,4.1,14.623,14.623,0,0,0-3.234,4.708,15.5,15.5,0,0,0-3.147-4.621,14.266,14.266,0,0,0-10.314-4.272c-8.566,0-15.035,7.5-14.51,16.043,1.136,15.781,19.229,27.465,25.7,31.127a4.683,4.683,0,0,0,4.545,0c6.468-3.662,24.561-15.346,25.7-31.127C1429.511,19.195,1423.13,11.7,1414.565,11.7Z" transform="translate(-1366.017 -0.575)" fill="#fd0114"/>
    <path id="Path_36" data-name="Path 36" d="M1402.1,56.145c-.811,0-18.263-1.454-24.349-9.554,5.891,10.054,17.209,17.268,22.041,20a4.683,4.683,0,0,0,4.545,0c4.832-2.736,16.15-9.95,22.041-20C1420.292,54.692,1402.889,56.14,1402.1,56.145Z" transform="translate(-1367.066 -8.39)" fill="#cc0010"/>
    <path id="Path_37" data-name="Path 37" d="M1387.375,15.573a16.225,16.225,0,0,1,10.483,3.563,13.132,13.132,0,0,1,3.2,3.854,12.438,12.438,0,0,1,3.287-3.927,16.144,16.144,0,0,1,10.483-3.418c6.858,0,12.335,3.881,14.092,8.977A14.6,14.6,0,0,0,1414.6,11.7a14.122,14.122,0,0,0-10.314,4.1,14.619,14.619,0,0,0-3.234,4.708,15.5,15.5,0,0,0-3.147-4.621,14.266,14.266,0,0,0-10.314-4.272,14.7,14.7,0,0,0-14.4,13C1374.966,19.467,1380.505,15.573,1387.375,15.573Z" transform="translate(-1366.056 -0.575)" fill="#f3f3f3" opacity="0.34" style="mix-blend-mode: screen;isolation: isolate"/>
  </g>
  <g id="plus" transform="translate(0 0.173)">
    <path id="Path_6361" data-name="Path 6361" d="M63.115,49.45a3.814,3.814,0,0,0-1.483-.758,34.252,34.252,0,0,0-8.086-1.452c.037-.44.07-.879.091-1.319v0c.144-3.043.088-6.371-2.159-8.688a2.094,2.094,0,0,0-.84-.583,2.9,2.9,0,0,0-.892-.094c-1.514,0-3.253.081-4.2,1.107a3.814,3.814,0,0,0-.76,1.479,33.745,33.745,0,0,0-1.444,7.895c-2.088.008-4.177.029-6.265.074-1.566.033-3.357.206-4.267,1.664a4.833,4.833,0,0,0-.594,1.788,6.367,6.367,0,0,0,.361,3.645,4.852,4.852,0,0,0,2.757,2.447,10.378,10.378,0,0,0,3.5.488c1.427.017,2.863-.1,4.3-.193.006,2.23.026,4.461.074,6.69.033,1.562.207,3.348,1.668,4.257a4.866,4.866,0,0,0,1.792.594,6.412,6.412,0,0,0,3.654-.36,4.845,4.845,0,0,0,2.453-2.751,10.29,10.29,0,0,0,.489-3.49c.019-1.493-.106-3-.208-4.5.6.055,1.194.1,1.79.131h0c3.051.143,6.387.088,8.71-2.153a2.1,2.1,0,0,0,.585-.838,2.883,2.883,0,0,0,.094-.89c0-1.509-.082-3.244-1.11-4.193" transform="translate(-13.372 -15.284)" opacity="0.3"/>
    <path id="Path_6366" data-name="Path 6366" d="M60.382,41.087c-.1,2.519-.482,5.058-.586,7.539-.116,2.792.29,5.629.26,8.431a11.882,11.882,0,0,1-.418,3.49,4.682,4.682,0,0,1-2.1,2.751,4.77,4.77,0,0,1-3.131.36,3.771,3.771,0,0,1-1.536-.594,6.455,6.455,0,0,1-2.436-5.414c.043-1.605.6-3.142.737-4.737.134-1.55.2-3.066.208-4.632.034-4.686.156-9.433,1.416-13.97a4.082,4.082,0,0,1,.651-1.479c.581-.731,1.4-1.064,2.012-1.842a2.018,2.018,0,0,1,.826-.727,1.7,1.7,0,0,1,1.7.652c2.413,2.57,2.532,6.886,2.4,10.172" transform="translate(-21.013 -12.627)" fill="#b9b9b9"/>
    <path id="Path_6367" data-name="Path 6367" d="M55.568,59.952c-2.525-.122-5.07-.561-7.558-.681-2.8-.136-5.643.337-8.452.3a10.378,10.378,0,0,1-3.5-.488A4.853,4.853,0,0,1,33.3,56.639a6.372,6.372,0,0,1-.361-3.645,4.838,4.838,0,0,1,.595-1.788c.908-1.458,2.7-1.633,4.265-1.664q5.274-.114,10.553-.071c4.7.042,9.456.182,14.005,1.649a3.822,3.822,0,0,1,1.483.758c1.028.949,1.113,2.684,1.11,4.194a2.913,2.913,0,0,1-.094.89,2.1,2.1,0,0,1-.584.838c-2.324,2.241-5.66,2.3-8.71,2.153" transform="translate(-13.676 -20.679)" fill="#b9b9b9"/>
    <path id="Path_6368" data-name="Path 6368" d="M59.968,37.723c-.1,2.519-.482,5.058-.586,7.539-.116,2.792.29,5.629.26,8.431a11.882,11.882,0,0,1-.418,3.49,4.682,4.682,0,0,1-2.1,2.751,4.77,4.77,0,0,1-3.131.36,3.777,3.777,0,0,1-1.536-.594c-1.252-.908-1.4-2.695-1.43-4.257q-.1-5.262-.061-10.527c.035-4.685.156-9.433,1.416-13.97a4.073,4.073,0,0,1,.651-1.479c.815-1.026,2.306-1.111,3.6-1.107a2.156,2.156,0,0,1,.765.094,1.831,1.831,0,0,1,.722.583c1.925,2.318,1.973,5.646,1.849,8.688" transform="translate(-21.231 -11.856)" fill="#fff"/>
    <path id="Path_6369" data-name="Path 6369" d="M55.523,56.264c-2.525-.1-5.07-.481-7.558-.584-2.8-.117-5.643.287-8.451.258a11.994,11.994,0,0,1-3.5-.418,4.689,4.689,0,0,1-2.757-2.1A4.736,4.736,0,0,1,32.9,50.3a3.758,3.758,0,0,1,.6-1.532c.911-1.25,2.7-1.4,4.267-1.427q5.275-.1,10.552-.061c4.7.035,9.456.156,14.005,1.413a4.083,4.083,0,0,1,1.483.649c1.028.813,1.113,2.3,1.11,3.594a2.137,2.137,0,0,1-.094.763,1.828,1.828,0,0,1-.584.719c-2.323,1.92-5.66,1.968-8.71,1.845" transform="translate(-13.658 -19.764)" fill="#fff"/>
    <rect id="frame-2" data-name="frame" width="70" height="69.828" fill="none"/>
  </g>
</svg>
