<svg id="advanced-tutoring" xmlns="http://www.w3.org/2000/svg" width="120" height="120" viewBox="0 0 120 120">
  <rect id="Rectangle_1763" data-name="Rectangle 1763" width="120" height="120" fill="none"/>
  <path id="Path_3328" data-name="Path 3328" d="M1578.921,454H1576.3v7.105h.579a15.611,15.611,0,0,1-3.849,4.673,16.59,16.59,0,0,1-20.674-.131c-2.207-1.775-4.211-3.8-6.383-5.622-3.955-3.317-7.541-4.988-11.129-5.018-3.589.03-7.175,1.7-11.13,5.018-2.172,1.822-4.175,3.847-6.383,5.622a16.716,16.716,0,0,1-17.508,2.108v-.1q-.512-.192-.994-.411a15.256,15.256,0,0,1-6.03-6.142h.621V454h-2.618v7.105a16.27,16.27,0,0,0,5.855,11.681,15.611,15.611,0,0,0,2.172,1.47c.322.145.653.283.994.411v.1a16.713,16.713,0,0,0,17.508-2.107c2.208-1.775,4.211-3.8,6.383-5.623,3.955-3.316,7.541-4.988,11.13-5.018,3.588.03,7.174,1.7,11.129,5.018,2.172,1.822,4.176,3.848,6.383,5.623a16.59,16.59,0,0,0,20.674.13,16.263,16.263,0,0,0,5.859-11.681h.028Z" transform="translate(-1475.583 -376.103)" opacity="0.3"/>
  <path id="Path_3329" data-name="Path 3329" d="M1578.921,447.7H1576.3V454.8h.579a15.619,15.619,0,0,1-3.849,4.672,16.59,16.59,0,0,1-20.674-.13c-2.207-1.775-4.211-3.8-6.383-5.623-3.955-3.317-7.541-4.988-11.129-5.018-3.589.03-7.175,1.7-11.13,5.018-2.172,1.822-4.175,3.848-6.383,5.623a16.716,16.716,0,0,1-17.508,2.107v-.1c-.341-.128-.672-.266-.994-.411a15.278,15.278,0,0,1-6.03-6.142h.621V447.7h-2.618V454.8a16.273,16.273,0,0,0,5.855,11.681,15.6,15.6,0,0,0,2.172,1.469q.483.219.994.411v.1a16.716,16.716,0,0,0,17.508-2.108c2.208-1.775,4.211-3.8,6.383-5.622,3.955-3.317,7.541-4.988,11.13-5.018,3.588.03,7.174,1.7,11.129,5.018,2.172,1.821,4.176,3.847,6.383,5.622a16.59,16.59,0,0,0,20.674.131,16.267,16.267,0,0,0,5.859-11.681h.028Z" transform="translate(-1475.583 -376.103)" fill="#c18d21"/>
  <path id="Path_3330" data-name="Path 3330" d="M1577.117,439.491q-11.925-22.531-24.169-44.893a30.074,30.074,0,0,0-5.844-7.348,17.618,17.618,0,0,0-24.513,0,30.074,30.074,0,0,0-5.844,7.348q-5.47,9.957-10.854,19.961h7.5l16.263-.173,5.19-15.414,5.19,15.414,16.263.173-13.056,9.7,4.861,15.52-13.258-9.419-13.259,9.419,3.569-11.394c-9.029.171-22.766,3.782-28.478,8.529a15.656,15.656,0,0,0-5.874,10.88,16.272,16.272,0,0,0,5.855,11.681,15.608,15.608,0,0,0,2.172,1.47c.322.145.653.283.994.411v.1a16.716,16.716,0,0,0,17.508-2.107c2.208-1.775,4.211-3.8,6.383-5.623,3.955-3.317,7.541-4.988,11.13-5.018,3.588.03,7.174,1.7,11.129,5.018,2.172,1.822,4.176,3.848,6.383,5.623a16.59,16.59,0,0,0,20.674.13A16.316,16.316,0,0,0,1577.117,439.491Z" transform="translate(-1475.583 -376.103)" fill="#ffe233"/>
  <path id="Path_3331" data-name="Path 3331" d="M1525.158,428.384c-9.029.171-22.766,3.782-28.478,8.529a15.656,15.656,0,0,0-5.874,10.88,16.272,16.272,0,0,0,5.855,11.681,14.764,14.764,0,0,0,1.323.946c-3.412-4.824-3.416-11.847,1.146-17.674,4.578-5.848,17.239-12.284,26.028-14.362Z" transform="translate(-1475.583 -376.103)" fill="#eac92e"/>
</svg>
