<svg id="ant" xmlns="http://www.w3.org/2000/svg" xmlns:xlink="http://www.w3.org/1999/xlink" width="120" height="120.004" viewBox="0 0 120 120.004">
  <defs>
    <linearGradient id="linear-gradient" x1="-413.253" y1="-65.058" x2="-412.464" y2="-65.058" gradientUnits="objectBoundingBox">
      <stop offset="0" stop-color="#ff7100"/>
      <stop offset="0.934" stop-color="#c00001"/>
      <stop offset="1" stop-color="#c51401"/>
    </linearGradient>
    <linearGradient id="linear-gradient-2" x1="-125.194" y1="-74.027" x2="-125.032" y2="-74.027" xlink:href="#linear-gradient"/>
    <linearGradient id="linear-gradient-3" x1="0.5" y1="0.985" x2="0.5" y2="0.001" gradientUnits="objectBoundingBox">
      <stop offset="0" stop-color="#c51401"/>
      <stop offset="0.036" stop-color="#c00001"/>
      <stop offset="1" stop-color="#ff7100"/>
    </linearGradient>
    <linearGradient id="linear-gradient-4" x1="-580.759" y1="-20.719" x2="-576.276" y2="-20.719" xlink:href="#linear-gradient"/>
    <linearGradient id="linear-gradient-5" x1="69.721" y1="-52.95" x2="69.991" y2="-53.535" xlink:href="#linear-gradient-3"/>
    <linearGradient id="linear-gradient-6" x1="122.549" y1="-47.424" x2="121.406" y2="-47.917" xlink:href="#linear-gradient-3"/>
  </defs>
  <rect id="frame" width="120" height="120.004" fill="none"/>
  <path id="Path_3444" data-name="Path 3444" d="M2632.916,586.831c-.5-1.5-2.292-2.919-3.968-3.841h0c-.107-.059-.211-.109-.316-.164s-.183-.1-.273-.141c-.119-.058-.232-.108-.348-.16-.079-.036-.161-.076-.238-.109-.116-.049-.223-.089-.332-.131-.071-.027-.146-.059-.214-.084-.107-.038-.2-.066-.3-.1-.061-.019-.128-.043-.186-.059-.1-.026-.181-.041-.268-.058-.049-.01-.1-.026-.149-.033a1.716,1.716,0,0,0-.216-.014c-.036,0-.08-.009-.112-.007a.526.526,0,0,0-.159.036c-.02.007-.049.007-.065.015a.193.193,0,0,0-.1.13c-.206.917-4.811,12.686-4.811,12.686h0c-.41.329-1.058,1.309-1.313,4.2v0l0,.052c-.01.116-.019.234-.028.356l-.009.13c-.008.123-.015.251-.022.381,0,.045-.005.089-.007.135-.007.135-.012.274-.017.416,0,.045,0,.088,0,.134,0,.147-.008.3-.01.453,0,.045,0,.089,0,.136,0,.168,0,.342,0,.519v.1c0,.207,0,.419.006.638v.022c.011.69.037,1.44.082,2.256l.007.109c.013.232.027.467.043.709,0,.073.011.15.016.225.015.212.03.426.047.645.007.086.014.175.021.263.017.212.035.427.054.647.009.1.019.208.028.312.02.212.039.425.061.644.011.114.023.232.034.348.022.216.044.433.068.656.014.124.027.25.041.376.025.224.05.45.077.68.015.131.031.265.047.4q.041.348.086.706.026.207.052.417c.031.245.064.494.1.746q.029.212.057.426c.035.256.071.517.108.781.021.149.042.3.064.45.038.271.079.547.12.825.022.149.044.3.066.447.044.29.09.586.136.884.023.149.046.3.07.449.05.316.1.639.155.964.022.139.044.275.067.416.059.361.122.73.185,1.1.019.111.037.22.056.333.073.43.15.87.229,1.316.01.061.021.12.031.181q.414,2.336.923,4.95l0,.012q.166.856.345,1.745c.013.066.027.134.041.2.1.525.213,1.056.324,1.6.028.132.056.268.084.4.1.484.2.973.307,1.471.034.162.069.329.1.493.1.477.2.958.309,1.448.04.182.08.368.12.552.1.485.212.973.321,1.47.042.187.084.377.126.567.111.5.224,1.008.339,1.523.02.085.038.167.057.253v-.005l.037.167c-3.735-1.187-12.446-2.532-32.75-2.572a.671.671,0,0,0-.227-.058,3.283,3.283,0,0,0-.482-1.058,12.034,12.034,0,0,0-2.6.292q-.417-.567-.87-1.132c-.19-.237-.384-.47-.578-.7l-.191-.226q-.3-.35-.594-.688l-.155-.175q-.243-.273-.481-.536l0,0h0l-.028-.03c-.05-.054-.1-.109-.148-.163-.2-.214-.387-.419-.573-.618l-.166-.177c-.173-.182-.341-.358-.5-.524l-.064-.068-.478-.49-.133-.135c-.142-.143-.273-.275-.392-.393l-.092-.091-.245-.242-.084-.083-.187-.181-.057-.055-.025-.024-.021-.02v-2.347c2.153.453,4.313.386,5.2-.146a55.075,55.075,0,0,0,3.613-5c4.291-2.532,12.029-9.088,17.937-16.6a12.024,12.024,0,0,0,2.292-4.566l.015-.046a8.22,8.22,0,0,0,.254-1.509c0-.052.009-.1.013-.155.011-.139.017-.285.022-.438a11.705,11.705,0,0,0-.122-2.255c0-.022,0-.041-.007-.063l0,.006c0-.03-.011-.059-.016-.089,1.367-2.981,2.363-5.788,2.363-5.788-1.582-8.268-9.373-8.172-12.009-7.894-.223-.159-.443-.311-.655-.449a23,23,0,0,0-5.747-2.327c3.5-2.337,9.464-9.919,12.031-14.166,2.318-3.835,2.5-4.88,2.506-5.428a49.637,49.637,0,0,0,8.837.161q-2.217-1.207-4.564-2.2c-2.851.691-5.083,1.334-5.083,1.334s-.009.024-.018.056a3.876,3.876,0,0,0-1.565,1.061c-1.148,1.183-10.48,15.343-12.867,18.974a75.528,75.528,0,0,0-12.174-2.182c-.4-2.274-2.591-14.254-4.878-20.286q-1.67.591-3.281,1.294a26.085,26.085,0,0,0,.911,2.772c1.92,4.968,5.79,14,6.724,16.174a43.908,43.908,0,0,0-8.468-.054,12.845,12.845,0,0,0-2.039.146,9.872,9.872,0,0,0-6.8,4.313,46.923,46.923,0,0,0-4.456,4.406,10.005,10.005,0,0,0-.766.986c-.026.04-.054.078-.08.118a9.633,9.633,0,0,0-.631,1.092l-.009.021a10.116,10.116,0,0,0-.817,2.4c-.007.034-.02.065-.027.1s-.012.074-.018.11c-.015.075-.027.151-.039.227q-.051.3-.087.6l-.006.051a11.367,11.367,0,0,0-.077,1.517v.044c0,.052,0,.1,0,.157,0,.021.006.041.007.061.14,5.734,3.676,11.968,6.385,15.471.135.175.281.354.434.534l.142.164c.111.127.224.255.342.385l.18.193c.114.123.231.245.351.369.065.067.132.134.2.2q.186.188.379.376l.2.2c.14.134.284.269.429.4l.181.168c.175.161.354.322.535.483.035.03.068.061.1.092.443.391.9.783,1.372,1.173l.037.031,0,0,0,0q.24.2.483.4h0a109.762,109.762,0,0,0,7.31,9.608v5.565s-.156.168-.422.458l0,.006c-.177.193-.4.441-.669.734l-.022.025c-.263.29-.561.622-.887.987l-.043.049c-.324.364-.673.758-1.037,1.174l-.056.064c-.363.415-.739.85-1.121,1.3l-.067.079c-.379.444-.76.9-1.136,1.352l-.079.095q-.267.324-.527.645l-.027.033q-.271.336-.534.668l-.075.1c-.12.153-.238.3-.353.454l0,0-.008.011-.1.136-.032.041h0a24.761,24.761,0,0,0-1.8,2.609l-.007.01a13.557,13.557,0,0,0-1.794,4.771h0c-.07.391-.127.8-.164,1.225a3.681,3.681,0,0,0,1.721.853.838.838,0,0,0-.043.13s-.012.089-.031.249q1.136.722,2.311,1.386c-.076-.558-.153-1.122-.233-1.7v0a7.6,7.6,0,0,0,1.022-.215,1.665,1.665,0,0,0,.6-.3c.886,1.122,1.984,2.587,3.346,4.568a50.3,50.3,0,0,0,12.4,3.574c1.892-5.394,3.315-10.691,3.57-13.471a1.436,1.436,0,0,0,.709-.855,7.227,7.227,0,0,0,.427-1.856c2.129.57,32.587,8.6,35.619,2.564,0,0,.052-.233-.328-.592a1.247,1.247,0,0,0,.193-.427s2.438-37.665-5.146-43.5C2625.4,593.817,2633.761,589.356,2632.916,586.831Z" transform="translate(-2535.113 -543.333)" opacity="0.3"/>
  <path id="Path_3445" data-name="Path 3445" d="M2630.842,594.8s4.6-11.769,4.81-12.685,6.254,1.743,7.25,4.716-10.788,8.636-11.2,8.969S2630.842,594.8,2630.842,594.8Z" transform="translate(-2535.113 -543.333)" fill="url(#linear-gradient)"/>
  <path id="Path_3446" data-name="Path 3446" d="M2630.842,594.8s.44,1.333.856,1c0,0,6.449-7.51,7.237-12.811-1.644-.905-3.181-1.329-3.283-.874C2635.446,583.031,2630.842,594.8,2630.842,594.8Z" transform="translate(-2535.113 -543.333)" fill="#fd6006"/>
  <path id="Path_3447" data-name="Path 3447" d="M2602.32,635.463c36.529.073,35.544,4.368,35.544,4.368-3.141,6.254-35.74-2.6-35.74-2.6a1.042,1.042,0,0,1-.6-1.187C2601.654,635.125,2602.32,635.463,2602.32,635.463Z" transform="translate(-2535.113 -543.333)" fill="url(#linear-gradient-2)"/>
  <path id="Path_3448" data-name="Path 3448" d="M2595.913,635.776a12.146,12.146,0,0,1,5.7-1.429s1.341,1.679.208,4.776S2595.323,637.166,2595.913,635.776Z" transform="translate(-2535.113 -543.333)" fill="#fd6006"/>
  <path id="Path_3449" data-name="Path 3449" d="M2600.724,634.391a5.182,5.182,0,0,1,.619,2.771" transform="translate(-2535.113 -543.333)" fill="none" stroke="#990412" stroke-linecap="round" stroke-width="0.551"/>
  <path id="Path_3450" data-name="Path 3450" d="M2592.944,627.881c-2.705-2.893-5.532,0-5.532,0s-7.941,8.542-9.289,11.573v.184c.43,2.755,1.774,2.526,7.331,10.7a23.025,23.025,0,0,1,1.754,3.05,50.967,50.967,0,0,0,8.059.645c.7,0,1.393-.025,2.086-.053,2.424-6.81,4.14-13.6,3.741-15.49C2600.338,634.907,2592.944,627.881,2592.944,627.881Z" transform="translate(-2535.113 -543.333)" fill="url(#linear-gradient-3)"/>
  <path id="Path_3451" data-name="Path 3451" d="M2596.138,631.175l-10.577,6.009s2.574,11.141,5.869,12.607c2.806,1.247,5.27.649,6.562-1.713q.3-.711.57-1.392a3.538,3.538,0,0,1,.235-.6,27.009,27.009,0,0,0,1.554-8.477C2600.193,635.429,2597.931,633.792,2596.138,631.175Z" transform="translate(-2535.113 -543.333)" fill="#fd6006" opacity="0.3"/>
  <path id="Path_3452" data-name="Path 3452" d="M2596.409,640.943c2.849-.7,5.317-3.212,1.754-7.38v-.027a66.1,66.1,0,0,0-5.22-5.655c-2.705-2.893-5.532,0-5.532,0s-4.4,4.734-7.206,8.405l.023.026s1.857-2.582,4.059.692C2586.855,640.819,2592.944,641.8,2596.409,640.943Z" transform="translate(-2535.113 -543.333)" fill="#fd6e07"/>
  <path id="Path_3453" data-name="Path 3453" d="M2587.412,621.537v7.775s3.856,2.2,5.532,0v-7.775Z" transform="translate(-2535.113 -543.333)" fill="#a01f05"/>
  <path id="Path_3454" data-name="Path 3454" d="M2635.3,639.055c-10.13-44.454-4.1-44.423-4.1-44.423,9.254,2.123,6.53,44.18,6.53,44.18a1.4,1.4,0,0,1-1.421,1.051C2635.036,639.956,2635.3,639.055,2635.3,639.055Z" transform="translate(-2535.113 -543.333)" fill="url(#linear-gradient-4)"/>
  <path id="Path_3455" data-name="Path 3455" d="M2580.35,640.075s1.834-3.326,2.728-3.922-.991-.888-1.364-.789a8.7,8.7,0,0,0-1.364.734l-1.946,2.807S2577.784,640.419,2580.35,640.075Z" transform="translate(-2535.113 -543.333)" fill="#fd6006" opacity="0.5"/>
  <path id="Path_3456" data-name="Path 3456" d="M2580.229,636.312s1.857-2.582,4.059.692c2.567,3.815,8.656,4.793,12.121,3.939,2.849-.7,5.317-3.212,1.754-7.38" transform="translate(-2535.113 -543.333)" fill="none" stroke="#990412" stroke-linecap="round" stroke-width="0.792"/>
  <path id="Path_3457" data-name="Path 3457" d="M2579.377,645.011a1.2,1.2,0,0,0-1.254.874s-.243,1.94-.535,4.974c1.114.414,2.249.783,3.4,1.12-.245-1.944-.515-3.989-.817-6.155C2580.17,645.824,2580.448,645.011,2579.377,645.011Z" transform="translate(-2535.113 -543.333)" fill="#fd6e07"/>
  <path id="Path_3458" data-name="Path 3458" d="M2578.4,638.905a13.766,13.766,0,0,0-1.959,6s1.551,1.614,4.748.705S2579.847,638.411,2578.4,638.905Z" transform="translate(-2535.113 -543.333)" fill="#fd6006"/>
  <path id="Path_3459" data-name="Path 3459" d="M2576.609,643.676s1.705,1.858,5.7.355" transform="translate(-2535.113 -543.333)" fill="none" stroke="#990412" stroke-linecap="round" stroke-width="0.604"/>
  <path id="Path_3460" data-name="Path 3460" d="M2629.528,599v0c-.441,5.013.3,15.773,5.507,38.87h0s-2.7-26.617-3.538-31.939S2631.138,595.869,2629.528,599Z" transform="translate(-2535.113 -543.333)" fill="#fd6006"/>
  <path id="Path_3461" data-name="Path 3461" d="M2580.1,612.708s6.726,9.918,9.447,11.565,7.211,1.946,8.595,1.115a43.157,43.157,0,0,0,4.322-6.291C2603.494,616.885,2580.1,612.708,2580.1,612.708Z" transform="translate(-2535.113 -543.333)" fill="#fd6006"/>
  <path id="Path_3462" data-name="Path 3462" d="M2580.1,612.708s6.726,9.918,9.447,11.565,7.211,1.946,8.595,1.115a43.157,43.157,0,0,0,4.322-6.291C2603.494,616.885,2580.1,612.708,2580.1,612.708Z" transform="translate(-2535.113 -543.333)" fill="#fd6006"/>
  <path id="Path_3463" data-name="Path 3463" d="M2585.883,616.171s4.467,6.115,5.312,6.553a34.17,34.17,0,0,0,6.074.9,9.815,9.815,0,0,0,1.7-3.287C2599.385,618.64,2580.7,611.7,2585.883,616.171Z" transform="translate(-2535.113 -543.333)" fill="#990412"/>
  <path id="Path_3464" data-name="Path 3464" d="M2580.958,576.461s-4.089,1.456-10.051,8.136-.159,17.787,3.836,22.953,15.67,12.524,15.67,12.524,6.028,1.932,8.921,1.405,13.036-8.377,20.359-17.688-2.509-19.763-7.852-23.246S2587.144,573.948,2580.958,576.461Z" transform="translate(-2535.113 -543.333)" fill="#fd6006"/>
  <path id="Path_3465" data-name="Path 3465" d="M2604.813,578.863s12.107-18.465,13.424-19.823,2.444-1.338,2.394-.782.411.967-2.507,5.794S2607.9,578.017,2604.813,578.863Z" transform="translate(-2535.113 -543.333)" fill="url(#linear-gradient-5)"/>
  <path id="Path_3466" data-name="Path 3466" d="M2620.475,558.611c16.69,1.575,15.962-3.461,15.962-3.461-2.773-1.216-16.617,2.773-16.617,2.773S2619.546,558.523,2620.475,558.611Z" transform="translate(-2535.113 -543.333)" fill="#fd6006"/>
  <path id="Path_3467" data-name="Path 3467" d="M2620.761,597.461c1.449.534.8,3.118,1.239,1.718a10.7,10.7,0,0,0,.16-4.42" transform="translate(-2535.113 -543.333)" fill="#fd6006"/>
  <path id="Path_3468" data-name="Path 3468" d="M2636.353,555.2l.087.005v0Z" transform="translate(-2535.113 -543.333)" fill="#fd6006"/>
  <path id="Path_3469" data-name="Path 3469" d="M2636.353,555.2s.086,0,.237.015a8.334,8.334,0,0,1,3.491,1.044c1.624,1,4.609,1.785,5.071,1.553s-.19,2.563-3.445,2.833-5.268-5.442-5.268-5.442" transform="translate(-2535.113 -543.333)" fill="#fd6006"/>
  <path id="Path_3470" data-name="Path 3470" d="M2645.152,557.815a.386.386,0,0,1-.126.032,6.181,6.181,0,0,1-4.641,2.242,2.2,2.2,0,0,1-.875-.179,3.15,3.15,0,0,0,2.2.738C2644.962,560.378,2645.614,557.582,2645.152,557.815Z" transform="translate(-2535.113 -543.333)" fill="#990412" opacity="0.3" style="mix-blend-mode: multiply;isolation: isolate"/>
  <path id="Path_3471" data-name="Path 3471" d="M2580.958,576.461s-4.089,1.456-10.051,8.136a9.993,9.993,0,0,0-2.329,4.72,11.678,11.678,0,0,0-.226,2.7c.029.761.315,1.471.364,2.241.514.06,2-1.9,2.413-2.321.371-.382.678-.817,1.048-1.2a26,26,0,0,1,8.453-5.769c3.125-1.329,7.161-3.044,10.532-1.506,1.686.771,2.263,2.956,3.337,4.382a14.261,14.261,0,0,0,4.681,3.788,7.673,7.673,0,0,0,6.016.445c1.995-.892,3.541-2.59,5.393-3.668,1.563-.909,3.681-.136,5.377.285,1.255.311,2.545.846,3.8,1.033.727-1.545-2.13-4.02-2.971-4.931a26.567,26.567,0,0,0-4.95-4.257C2606.5,577.062,2587.144,573.948,2580.958,576.461Z" transform="translate(-2535.113 -543.333)" fill="#fc7c09"/>
  <path id="Path_3472" data-name="Path 3472" d="M2620.355,598.459c.254-.431.408-.995.655-1.465a72.764,72.764,0,0,0,3.494-8.106c-1.911-9.986-12.886-7.771-12.886-7.771s-4.544,7.676-5.08,11.575" transform="translate(-2535.113 -543.333)" fill="#fd6006"/>
  <path id="Path_3473" data-name="Path 3473" d="M2578.153,593.676c-3.084-3.25-4.256-10.435-4.256-10.435a10.4,10.4,0,0,1,8.268-7.363c6.7-1.06,12.282,3.55,12.282,3.55-.092,1.521,1.479,13.307,1.476,13.491" transform="translate(-2535.113 -543.333)" fill="#fd6006"/>
  <path id="Path_3474" data-name="Path 3474" d="M2591.94,582.626c.06-.8-2.206-4.478-7.7-3.989a9.414,9.414,0,0,0-7.522,4.372s.013,2.508-.063,2.423a61.135,61.135,0,0,0,3.38,7.875c1.545,2.655,13.273-3.659,13.273-3.659Z" transform="translate(-2535.113 -543.333)" fill="#fcb986"/>
  <path id="Path_3475" data-name="Path 3475" d="M2608,595.078c-.543,4.733,11.531,4.285,11.771,3.843s3.281-8.754,3.281-8.754c-2.729-7.609-10.708-5.547-10.708-5.547S2608.616,589.757,2608,595.078Z" transform="translate(-2535.113 -543.333)" fill="#fcb986"/>
  <path id="Path_3476" data-name="Path 3476" d="M2583.9,577.917a11.328,11.328,0,0,0-7.731,5.857s.566,1.743.49,1.658a10.245,10.245,0,0,1,7.137-5.241,9.58,9.58,0,0,1,8.149,2.435l-.252-2.8S2587.008,577.361,2583.9,577.917Z" transform="translate(-2535.113 -543.333)" fill="#990412"/>
  <path id="Path_3477" data-name="Path 3477" d="M2620.034,598.294c-3.7,3.7-12.029-3.216-12.029-3.216s1.114-5.06,1.522-5.369c6.383-4.828,12.589,0,12.12,4.291" transform="translate(-2535.113 -543.333)" fill="#cd1601"/>
  <path id="Path_3478" data-name="Path 3478" d="M2579.713,592.691s8.764,7.2,13.594-3.043l-.677-3.476a8.26,8.26,0,0,0-8.147-2.689c-5.414,1.024-6.64,5.128-6.64,5.128S2579.1,591.691,2579.713,592.691Z" transform="translate(-2535.113 -543.333)" fill="#cd1601"/>
  <path id="Path_3479" data-name="Path 3479" d="M2576.452,583.348" transform="translate(-2535.113 -543.333)" fill="none" stroke="#231f20" stroke-width="0.276"/>
  <path id="Path_3480" data-name="Path 3480" d="M2604.021,609.05a.784.784,0,0,0,.09.7c.23.389,1.6-.7,2.336-.268S2605.08,608.013,2604.021,609.05Z" transform="translate(-2535.113 -543.333)" fill="#990412" style="mix-blend-mode: multiply;isolation: isolate"/>
  <path id="Path_3481" data-name="Path 3481" d="M2594.7,608.012a.785.785,0,0,1-.188.676c-.282.353-1.491-.919-2.275-.593S2593.8,606.836,2594.7,608.012Z" transform="translate(-2535.113 -543.333)" fill="#990412" style="mix-blend-mode: multiply;isolation: isolate"/>
  <path id="Path_3482" data-name="Path 3482" d="M2584.869,552.416s-1.115,1.52,1.079,7.2,6.931,16.654,6.931,16.654l.387-.043s-3.764-21.818-6.825-23.982C2585.269,551.412,2584.869,552.416,2584.869,552.416Z" transform="translate(-2535.113 -543.333)" fill="url(#linear-gradient-6)"/>
  <path id="Path_3483" data-name="Path 3483" d="M2608.228,597.7l-.548,5.979a9.621,9.621,0,0,1,6.676-1.338C2618.16,603.015,2608.228,597.7,2608.228,597.7Z" transform="translate(-2535.113 -543.333)" fill="#990412" opacity="0.2"/>
  <path id="Path_3484" data-name="Path 3484" d="M2587.463,598.5s4.045.469,5.183,2.3c0,0,.308-5,.5-5.968s.245-1.49.245-1.49Z" transform="translate(-2535.113 -543.333)" fill="#990412" opacity="0.2"/>
  <path id="Path_3485" data-name="Path 3485" d="M2593.307,589.648s1.518,3.05-1.607,6.553a6.448,6.448,0,0,1-10.121-.239c-2.37-3.014-3.239-6.8,1.329-9.437S2591.5,586.689,2593.307,589.648Z" transform="translate(-2535.113 -543.333)" fill="#fff"/>
  <path id="Path_3486" data-name="Path 3486" d="M2608.076,594.573a9.716,9.716,0,0,1,5.427-4.359c3.607-.984,6.265,2.164,6.857,3.551s-.166,8.141-4.43,8.553S2607.364,600.352,2608.076,594.573Z" transform="translate(-2535.113 -543.333)" fill="#fff"/>
  <g id="Path_3487" data-name="Path 3487" transform="translate(-2535.113 -543.333)">
    <path d="M 2587.13134765625 594.8180541992188 C 2587.13134765625 594.8180541992188 2587.13134765625 594.8180541992188 2587.13134765625 594.8180541992188 C 2586.820068359375 594.8179931640625 2586.532958984375 594.6950073242188 2586.32275390625 594.4717407226562 C 2586.12841796875 594.2655029296875 2585.90576171875 593.8759765625 2585.94677734375 593.1914672851562 C 2586.04052734375 591.6213989257812 2587.13916015625 591.4993896484375 2587.4736328125 591.4993896484375 C 2587.63720703125 591.4993896484375 2587.7509765625 591.5230102539062 2587.763427734375 591.5256958007812 C 2587.794921875 591.5326538085938 2588.510009765625 591.696533203125 2588.809814453125 592.27001953125 C 2588.98388671875 592.6029663085938 2588.982421875 592.9898071289062 2588.805908203125 593.419677734375 C 2588.451416015625 594.2822265625 2587.809814453125 594.8180541992188 2587.13134765625 594.8180541992188 Z" stroke="none"/>
    <path d="M 2587.4736328125 591.7749633789062 C 2587.07568359375 591.77490234375 2586.297607421875 591.9391479492188 2586.221923828125 593.2080078125 C 2586.118896484375 594.9194946289062 2587.8515625 595.0164794921875 2588.551025390625 593.3150024414062 C 2589.052978515625 592.093017578125 2587.705078125 591.7949829101562 2587.705078125 591.7949829101562 C 2587.705078125 591.7949829101562 2587.612548828125 591.7749633789062 2587.4736328125 591.7749633789062 M 2587.4736328125 591.2238159179688 L 2587.4736328125 591.2238159179688 C 2587.661865234375 591.223876953125 2587.796630859375 591.2509155273438 2587.821533203125 591.25634765625 C 2587.912841796875 591.2764892578125 2588.701416015625 591.4680786132812 2589.053955078125 592.142333984375 C 2589.20068359375 592.4231567382812 2589.321044921875 592.8908081054688 2589.060791015625 593.5244140625 C 2588.6630859375 594.4923706054688 2587.923583984375 595.0936279296875 2587.13134765625 595.0936279296875 C 2586.743408203125 595.0936279296875 2586.385009765625 594.9398803710938 2586.1220703125 594.6607055664062 C 2585.890625 594.4149780273438 2585.624755859375 593.9577026367188 2585.671875 593.1749267578125 C 2585.757568359375 591.7364501953125 2586.65869140625 591.2238159179688 2587.4736328125 591.2238159179688 Z" stroke="none" fill="#29abe2"/>
  </g>
  <g id="Path_3488" data-name="Path 3488" transform="translate(-2535.113 -543.333)">
    <path d="M 2611.824462890625 597.7396850585938 C 2611.824462890625 597.7396850585938 2611.824462890625 597.7396850585938 2611.82421875 597.7396850585938 C 2611.512939453125 597.7396240234375 2611.225830078125 597.6166381835938 2611.015380859375 597.3932495117188 C 2610.821044921875 597.1870727539062 2610.59814453125 596.7977294921875 2610.638916015625 596.1135864257812 C 2610.732666015625 594.5442504882812 2611.830322265625 594.4222412109375 2612.16455078125 594.4222412109375 C 2612.328857421875 594.4222412109375 2612.44287109375 594.446044921875 2612.455322265625 594.44873046875 C 2612.48681640625 594.4556274414062 2613.202880859375 594.6196899414062 2613.502685546875 595.193359375 C 2613.6767578125 595.5260620117188 2613.67529296875 595.9124755859375 2613.498779296875 596.341796875 C 2613.14453125 597.2040405273438 2612.5029296875 597.7396850585938 2611.824462890625 597.7396850585938 Z" stroke="none"/>
    <path d="M 2612.16455078125 594.6978149414062 C 2611.766357421875 594.6978149414062 2610.98974609375 594.8622436523438 2610.9140625 596.1300048828125 C 2610.81201171875 597.8406982421875 2612.54443359375 597.9381713867188 2613.243896484375 596.2369995117188 C 2613.74609375 595.0159912109375 2612.39697265625 594.718017578125 2612.39697265625 594.718017578125 C 2612.39697265625 594.718017578125 2612.303955078125 594.6978149414062 2612.16455078125 594.6978149414062 M 2612.164306640625 594.146728515625 L 2612.16455078125 594.146728515625 C 2612.353515625 594.146728515625 2612.48876953125 594.1740112304688 2612.513916015625 594.179443359375 C 2612.604736328125 594.1995239257812 2613.39453125 594.3911743164062 2613.7470703125 595.0657348632812 C 2613.893798828125 595.3463745117188 2614.013916015625 595.813720703125 2613.753662109375 596.4466552734375 C 2613.35595703125 597.4141235351562 2612.61669921875 598.0152587890625 2611.824462890625 598.0152587890625 C 2611.4365234375 598.0152587890625 2611.077880859375 597.8615112304688 2610.81494140625 597.5823364257812 C 2610.58349609375 597.336669921875 2610.3173828125 596.8795776367188 2610.364013671875 596.0972290039062 C 2610.44970703125 594.6591186523438 2611.35009765625 594.146728515625 2612.164306640625 594.146728515625 Z" stroke="none" fill="#29abe2"/>
  </g>
  <path id="Path_3489" data-name="Path 3489" d="M2606.966,606.067c.074-.217.144-.435.2-.653s.118-.437.164-.66c.1-.442.174-.89.233-1.34.127-.9.2-1.8.245-2.711s.063-1.817.052-2.727-.031-1.822-.08-2.723l0-.033,0-.025c.078-.453.159-.9.26-1.344s.206-.89.331-1.328c.06-.221.127-.44.2-.657s.14-.435.227-.648.168-.426.266-.633l.154-.308.178-.294.021.011-.114.32-.1.324c-.056.219-.12.434-.167.654-.106.438-.193.879-.28,1.321s-.166.886-.242,1.33-.153.889-.219,1.332l0-.059c.039.464.049.921.063,1.381s.018.92.016,1.38c-.012.918-.041,1.838-.122,2.755a23.846,23.846,0,0,1-.379,2.736c-.095.451-.207.9-.342,1.34-.065.222-.141.44-.22.657s-.175.426-.272.634Z" transform="translate(-2535.113 -543.333)" fill="#cd1601"/>
  <path id="Path_3490" data-name="Path 3490" d="M2622.77,590.952l.287-.785v-.012l.321-.921a7.1,7.1,0,0,0-1.954-4.012,5.392,5.392,0,0,0-.4-.418l-.009-.009h0c-2.716-2.587-7.176-2.23-7.176-2.23l-1.492,2.055s4.75-1.23,8.173,1.7C2620.663,586.464,2622.8,588.63,2622.77,590.952Z" transform="translate(-2535.113 -543.333)" fill="#990412"/>
  <path id="Path_3491" data-name="Path 3491" d="M2592.826,604.217c-.05-.23-.1-.459-.135-.694s-.067-.468-.09-.7-.044-.471-.062-.707-.026-.472-.031-.708c-.024-.944-.008-1.891.048-2.834s.145-1.882.25-2.821.247-1.869.405-2.8l0,.046c0-.479-.019-.974-.044-1.459s-.074-.976-.134-1.46c-.036-.24-.067-.483-.112-.721s-.089-.478-.135-.717-.109-.473-.182-.7c-.036-.115-.064-.233-.107-.345l-.118-.342.387-.163c.1.236.2.469.278.711s.15.483.221.726.124.49.171.737.088.495.129.743q.108.746.165,1.5c.04.5.055,1,.05,1.508v.022l0,.024c-.17.915-.3,1.846-.445,2.77s-.257,1.856-.349,2.787-.178,1.865-.207,2.8c-.014.467-.023.935-.012,1.4s.041.934.1,1.4Z" transform="translate(-2535.113 -543.333)" fill="#cd1601"/>
  <path id="Path_3492" data-name="Path 3492" d="M2578.247,599.492a.6.6,0,1,1-.258-.814A.6.6,0,0,1,2578.247,599.492Z" transform="translate(-2535.113 -543.333)"/>
  <path id="Path_3493" data-name="Path 3493" d="M2611.449,606.806a.472.472,0,1,1-.2-.634A.47.47,0,0,1,2611.449,606.806Z" transform="translate(-2535.113 -543.333)"/>
  <path id="Path_3494" data-name="Path 3494" d="M2612.665,611.256a.471.471,0,1,1-.2-.636A.472.472,0,0,1,2612.665,611.256Z" transform="translate(-2535.113 -543.333)"/>
  <path id="Path_3495" data-name="Path 3495" d="M2616.471,606.784a.472.472,0,1,1-.2-.635A.471.471,0,0,1,2616.471,606.784Z" transform="translate(-2535.113 -543.333)"/>
  <path id="Path_3496" data-name="Path 3496" d="M2579.688,606.354a.6.6,0,1,1-.259-.815A.6.6,0,0,1,2579.688,606.354Z" transform="translate(-2535.113 -543.333)"/>
  <path id="Path_3497" data-name="Path 3497" d="M2585.04,604.49a.6.6,0,1,1-.259-.814A.6.6,0,0,1,2585.04,604.49Z" transform="translate(-2535.113 -543.333)"/>
  <path id="Path_3498" data-name="Path 3498" d="M2585.532,551.887s-10.656-8.052-14.172-8.1c0,0-4.867,1.548,13.339,8.677C2584.7,552.46,2586.594,552.671,2585.532,551.887Z" transform="translate(-2535.113 -543.333)" fill="#fd6006"/>
  <path id="Path_3499" data-name="Path 3499" d="M2571.053,544.82a1.048,1.048,0,0,0-.191.1c.5,1.172,3.325,3.427,13.837,7.544,0,0,.226.025.477.026C2583.663,551.4,2574.282,544.8,2571.053,544.82Z" transform="translate(-2535.113 -543.333)" fill="#fd6006"/>
  <path id="Path_3500" data-name="Path 3500" d="M2571.1,543.956s-.071.049-.192.14a8.483,8.483,0,0,0-2.4,2.739c-.851,1.708-2.961,3.959-3.47,4.01s1.483,2.048,4.363.536,1.629-7.376,1.629-7.376" transform="translate(-2535.113 -543.333)" fill="#fd6006"/>
  <path id="Path_3501" data-name="Path 3501" d="M2571.274,547.6a5.126,5.126,0,0,1-1.949,2.652c-1.973,1.257-3.454,1-4.2.57a.3.3,0,0,1-.082.025c-.508.052,1.483,2.048,4.363.536C2570.709,550.7,2571.164,549.119,2571.274,547.6Z" transform="translate(-2535.113 -543.333)" fill="#990412" opacity="0.3" style="mix-blend-mode: multiply;isolation: isolate"/>
  <path id="Path_3502" data-name="Path 3502" d="M2574.743,607.55a33.06,33.06,0,0,0,4.885,4.768l0,0c-12.171-11.435-11.048-23.9-8.719-27.719C2564.945,591.278,2570.748,602.384,2574.743,607.55Z" transform="translate(-2535.113 -543.333)" fill="#c1272d" opacity="0.8" style="mix-blend-mode: multiply;isolation: isolate"/>
  <path id="Path_3503" data-name="Path 3503" d="M2599.429,579.546s.215,0,.618.029a13.085,13.085,0,0,1,1.73.257,9.587,9.587,0,0,1,2.56.942,6.269,6.269,0,0,1,1.361,1.01l.163.157c.067.07.1.12.151.181.092.121.194.23.28.364s.166.285.249.429.124.307.187.462a4.474,4.474,0,0,1-.787,4.091,3.635,3.635,0,0,1-1.941,1.349c-.056.015-.092.029-.162.043l-.145.02c-.092.017-.213.016-.319.024a4.577,4.577,0,0,1-.622-.039,6.253,6.253,0,0,1-1.206-.291,8.358,8.358,0,0,1-2.223-1.179,5.641,5.641,0,0,1-1.7-1.963,3.623,3.623,0,0,1-.265-2.637,2.575,2.575,0,0,1,.1-.321,2.21,2.21,0,0,1,.128-.312,3.063,3.063,0,0,1,.153-.308,2.692,2.692,0,0,1,.176-.279A2.533,2.533,0,0,1,2599,580.7a3.081,3.081,0,0,1,1.34-.233,5.282,5.282,0,0,1,1.311.22,8.549,8.549,0,0,1,2.345,1.122,6.736,6.736,0,0,1,1,.823,3.4,3.4,0,0,1,.422.506,1.915,1.915,0,0,1,.169.3,1.793,1.793,0,0,1,.065.172l.041.15a2.918,2.918,0,0,1-.645,2.459,2.471,2.471,0,0,1-2.29.872,4.334,4.334,0,0,1-2.1-1.046,4.525,4.525,0,0,1-1.376-1.744,1.606,1.606,0,0,1-.033-1.124,1.542,1.542,0,0,1,.731-.8,2.948,2.948,0,0,1,1.906-.249,3.65,3.65,0,0,1,1.573.691,1.963,1.963,0,0,1,.544.6,1.114,1.114,0,0,1,.125.772,1.1,1.1,0,0,1-.4.6,1.418,1.418,0,0,1-.584.256,1.493,1.493,0,0,1-1.025-.173,1.793,1.793,0,0,1-.568-.5,1.709,1.709,0,0,1-.149-.225,1.133,1.133,0,0,1-.091-.172c-.045-.094-.067-.143-.067-.143l.085.132a1.681,1.681,0,0,0,.11.159,1.91,1.91,0,0,0,.168.2,1.89,1.89,0,0,0,.574.427,1.426,1.426,0,0,0,.921.1,1.193,1.193,0,0,0,.484-.237.9.9,0,0,0,.3-.476.854.854,0,0,0-.11-.589,1.7,1.7,0,0,0-.477-.507,3.336,3.336,0,0,0-1.462-.612,2.63,2.63,0,0,0-1.688.244,1.217,1.217,0,0,0-.566.625,1.236,1.236,0,0,0,.038.877,2.9,2.9,0,0,0,.521.844,4.776,4.776,0,0,0,.355.379l.2.188.2.17a4.026,4.026,0,0,0,1.915.957,2.1,2.1,0,0,0,1.951-.739,2.561,2.561,0,0,0,.575-2.121l-.04-.151c-.009-.033-.032-.08-.045-.119a1.568,1.568,0,0,0-.139-.243,3.1,3.1,0,0,0-.377-.456,6.5,6.5,0,0,0-.945-.78,7.587,7.587,0,0,0-2.243-1.067,4.945,4.945,0,0,0-1.219-.19,2.712,2.712,0,0,0-1.174.215,2.14,2.14,0,0,0-.889.735,2.43,2.43,0,0,0-.164.267,2.457,2.457,0,0,0-.128.268,2,2,0,0,0-.114.283c-.028.1-.072.191-.09.29a3.181,3.181,0,0,0,.262,2.321,5.408,5.408,0,0,0,1.575,1.79,7.871,7.871,0,0,0,2.091,1.115,6.344,6.344,0,0,0,1.115.284,4.224,4.224,0,0,0,.555.044c.088-.007.164,0,.264-.015l.145-.019c.025,0,.081-.021.12-.031a3.225,3.225,0,0,0,1.73-1.174,4.174,4.174,0,0,0,.8-3.745c-.055-.143-.1-.291-.16-.427s-.139-.259-.208-.387-.18-.246-.267-.367c-.044-.055-.095-.13-.132-.167l-.151-.154a6.073,6.073,0,0,0-1.281-1.006,9.945,9.945,0,0,0-2.478-1.013,12.838,12.838,0,0,0-1.706-.324c-.4-.047-.614-.054-.614-.054Z" transform="translate(-2535.113 -543.333)" fill="#cd1601" style="mix-blend-mode: multiply;isolation: isolate"/>
</svg>
