<svg id="skip" xmlns="http://www.w3.org/2000/svg" width="70" height="70" viewBox="0 0 70 70">
  <path id="Path_5411" data-name="Path 5411" d="M37.2,47.446a5.79,5.79,0,0,0-.866-2.021,7.327,7.327,0,0,0-1.817-2.278Q27.725,36.759,20.4,31c-3.483-2.735-7.1-7.224-11.908-4.71C6.3,27.442,4.719,29.5,3.221,31.5a15.063,15.063,0,0,0-1.874,3.2c-1.719,2.908-2,7.078.376,9.529a4.085,4.085,0,0,0,1,.733,11.913,11.913,0,0,0,1.29.577l7.832,3.1L4.019,51.744a6.283,6.283,0,0,0-2.294,1.31,3.3,3.3,0,0,0-.617.879A3.049,3.049,0,0,0,.7,54.85a9.455,9.455,0,0,0-.309,1.422,11.433,11.433,0,0,0,.488,5A15.127,15.127,0,0,0,2.8,65.2q.2.3.42.587c.162.215.325.432.49.647.1.135.207.268.31.4.065.083.128.167.194.25.127.16.256.319.385.478l.122.148q.22.264.445.521l.048.054a11.731,11.731,0,0,0,3.276,2.71C13.3,73.507,17.116,69.96,20.6,67.225c4.877-3.83,9.385-8.826,13.91-13.083,1.821-1.713,3.227-4.111,2.684-6.7" transform="translate(0 -10.648)" opacity="0.3"/>
  <path id="Path_5412" data-name="Path 5412" d="M92.125,47.446a5.79,5.79,0,0,0-.866-2.021,7.327,7.327,0,0,0-1.817-2.278Q82.654,36.759,75.329,31c-3.483-2.735-7.1-7.224-11.908-4.71-2.2,1.148-3.773,3.211-5.272,5.21a15.06,15.06,0,0,0-1.873,3.2c-1.719,2.908-2,7.078.376,9.529a4.074,4.074,0,0,0,1,.733,11.863,11.863,0,0,0,1.29.577l7.831,3.1-7.829,3.095a6.278,6.278,0,0,0-2.294,1.31,3.3,3.3,0,0,0-.617.879,3.049,3.049,0,0,0-.411.918,9.457,9.457,0,0,0-.31,1.422,11.433,11.433,0,0,0,.488,5A15.09,15.09,0,0,0,57.729,65.2c.136.2.277.395.419.587.162.215.325.432.49.647.1.135.207.268.31.4.065.083.128.167.194.25.127.16.256.319.385.478l.122.148q.22.264.445.521l.048.054a11.714,11.714,0,0,0,3.276,2.71c4.807,2.513,8.625-1.034,12.108-3.769,4.877-3.83,9.386-8.826,13.911-13.083,1.821-1.713,3.227-4.111,2.684-6.7" transform="translate(-22.887 -10.648)" opacity="0.3"/>
  <path id="Path_5413" data-name="Path 5413" d="M64.45,23.121a11.638,11.638,0,0,0-5.313,2.3c-3.118,2.512-4.417,8.477-1.378,11.617a6.294,6.294,0,0,0,2.294,1.31L73.578,43.7l-6.027,2.385c-1.675.663-3.3,1.823-5.056.988-1.157-.551-4.14-1.69-5.24-.486a2.669,2.669,0,0,0-.524,1.069c-1.121,3.752.223,7.869,2.525,10.933,1.5,2,3.075,4.062,5.272,5.21,4.807,2.514,8.625-1.034,12.108-3.768,4.877-3.831,9.385-8.827,13.91-13.084,1.821-1.713,3.227-4.111,2.683-6.7a5.875,5.875,0,0,0-2.776-3.83c-1.581-.912-3.521-1.042-5.1-1.964a15.9,15.9,0,0,1-1.723-1.268,51.376,51.376,0,0,0-4.466-3.3c-.62-.382-1.319-.62-1.973-.946-2.067-1.025-3.643-3.264-5.6-4.565a10,10,0,0,0-7.142-1.259" transform="translate(-23.347 -9.563)" fill="#bdbdbd"/>
  <path id="Path_5414" data-name="Path 5414" d="M62.192,69.488,58.574,62.6a1.738,1.738,0,0,0-1.107.507,2.68,2.68,0,0,0-.524,1.069c-1.12,3.752.224,7.869,2.525,10.933a20.38,20.38,0,0,0,4.25,4.572c.173.1.346.193.525.282a2.72,2.72,0,0,0,1,.33,1.867,1.867,0,0,0,1.809-1.939c-.016-1.112-.95-1.79-1.617-2.548-1.5-1.706-2.185-4.311-3.242-6.323" transform="translate(-23.559 -26.085)" fill="#8a8a8a"/>
  <path id="Path_5415" data-name="Path 5415" d="M74.265,43.035a20.976,20.976,0,0,0-3.845-1.8,21.656,21.656,0,0,0-3.941-1.344c-1.961-.373-7.646.228-7.18,3.34a3.014,3.014,0,0,0,.815,1.563,11.857,11.857,0,0,0,1.293.577l13.521,5.35-2.138.843a4.541,4.541,0,0,0,1.317-.239,4.368,4.368,0,0,0,2.713-5.014,5.809,5.809,0,0,0-2.554-3.276" transform="translate(-24.697 -16.579)" fill="#8a8a8a"/>
  <path id="Path_5416" data-name="Path 5416" d="M93.147,35.754a5.65,5.65,0,0,0-2.053-3.083q-6.787-6.386-14.112-12.14C73.5,17.8,69.886,13.3,65.077,15.819c-2.2,1.149-3.77,3.211-5.272,5.21-1.822,2.426-3.609,6.047-1.5,8.226a6.294,6.294,0,0,0,2.294,1.31l13.528,5.353L60.6,41.268a6.274,6.274,0,0,0-2.294,1.31c-2.111,2.179-.324,5.8,1.5,8.225,1.5,2,3.075,4.062,5.272,5.21,4.807,2.514,8.425-1.975,11.906-4.71q7.314-5.744,14.11-12.139a6.429,6.429,0,0,0,1.955-2.647,1.494,1.494,0,0,0,.1-.762" transform="translate(-23.896 -6.283)" fill="#fff"/>
  <path id="Path_5417" data-name="Path 5417" d="M9.521,23.121a11.638,11.638,0,0,0-5.313,2.3C1.089,27.936-.209,33.9,2.83,37.041a6.294,6.294,0,0,0,2.294,1.31L18.649,43.7l-6.027,2.385c-1.675.663-3.3,1.823-5.056.988-1.157-.551-4.14-1.69-5.239-.486A2.669,2.669,0,0,0,1.8,47.658c-1.121,3.752.223,7.869,2.525,10.933,1.5,2,3.075,4.062,5.272,5.21,4.807,2.514,8.625-1.034,12.108-3.768,4.877-3.831,9.385-8.827,13.91-13.084,1.821-1.713,3.227-4.111,2.683-6.7a5.875,5.875,0,0,0-2.776-3.83c-1.581-.912-3.521-1.042-5.1-1.964A15.9,15.9,0,0,1,28.7,33.189a51.375,51.375,0,0,0-4.466-3.3c-.62-.382-1.319-.62-1.973-.946-2.067-1.025-3.643-3.264-5.6-4.565A10,10,0,0,0,9.52,23.119" transform="translate(-0.46 -9.563)" fill="#bdbdbd"/>
  <path id="Path_5418" data-name="Path 5418" d="M7.263,69.488,3.645,62.6a1.738,1.738,0,0,0-1.107.507,2.68,2.68,0,0,0-.524,1.069c-1.12,3.752.224,7.869,2.525,10.933a20.38,20.38,0,0,0,4.25,4.572c.173.1.346.193.525.282a2.72,2.72,0,0,0,1,.33,1.867,1.867,0,0,0,1.809-1.939c-.016-1.112-.95-1.79-1.617-2.548-1.5-1.706-2.185-4.311-3.242-6.323" transform="translate(-0.672 -26.085)" fill="#8a8a8a"/>
  <path id="Path_5419" data-name="Path 5419" d="M19.336,43.035a20.976,20.976,0,0,0-3.845-1.8,21.656,21.656,0,0,0-3.941-1.344c-1.961-.373-7.646.228-7.18,3.34a3.014,3.014,0,0,0,.815,1.563,11.857,11.857,0,0,0,1.293.577L20,50.72l-2.138.843a4.54,4.54,0,0,0,1.317-.239,4.368,4.368,0,0,0,2.713-5.014,5.809,5.809,0,0,0-2.554-3.276" transform="translate(-1.81 -16.579)" fill="#8a8a8a"/>
  <path id="Path_5420" data-name="Path 5420" d="M38.218,35.754a5.65,5.65,0,0,0-2.053-3.083q-6.787-6.386-14.112-12.14c-3.483-2.735-7.1-7.226-11.906-4.712-2.2,1.149-3.77,3.211-5.272,5.21-1.822,2.426-3.609,6.047-1.5,8.226a6.294,6.294,0,0,0,2.294,1.31L19.2,35.917,5.672,41.268a6.274,6.274,0,0,0-2.294,1.31c-2.111,2.179-.324,5.8,1.5,8.225,1.5,2,3.075,4.062,5.272,5.21,4.807,2.514,8.425-1.975,11.906-4.71q7.314-5.744,14.11-12.139a6.429,6.429,0,0,0,1.955-2.647,1.494,1.494,0,0,0,.1-.762" transform="translate(-1.009 -6.283)" fill="#fff"/>
  <path id="Path_5421" data-name="Path 5421" d="M61.305,70.8l1.789-12.52-2.493.986a6.278,6.278,0,0,0-2.294,1.31c-2.111,2.179-.324,5.8,1.5,8.225" transform="translate(-23.896 -24.285)" fill="#fff"/>
  <rect id="frame" width="70" height="70" fill="none"/>
</svg>
