<svg id="recycle" xmlns="http://www.w3.org/2000/svg" width="70" height="70" viewBox="0 0 70 70">
  <rect id="frame" width="70" height="70" fill="none"/>
  <g id="icon" transform="translate(0)">
    <path id="Path_8639" data-name="Path 8639" d="M63.383,20.414a53.09,53.09,0,0,0-1.971-5.734q-.118-.294-.242-.585C59.6,10.368,56,6.97,52.774,4.6A11.639,11.639,0,0,0,42.332,2.487c-5.369,1.2-10.893,3.346-14.844,7.941-.339.394-.667.806-.98,1.233-.091.123-.181.248-.268.374q0,.573-.008,1.144-.015,2.739-.033,5.476l0,.633q-.028,4.686-.041,9.371c-.014,6.121.025,12.243.048,18.364q.01,2.556.02,5.111c0,.946,0,1.9,0,2.844q0,.357,0,.713v.024q.006.588.024,1.176c.072.1.145.208.219.311q.237.332.481.655a30.242,30.242,0,0,0,2.4,2.814,26.38,26.38,0,0,0,6.713,5.075c.31.162.625.323.943.477.353.172.711.336,1.074.488l.122-.006c.253-.013.5-.03.758-.05q.784-.06,1.567-.16a40.974,40.974,0,0,0,4.946-.97,63.515,63.515,0,0,0,9.584-3.419q1.543-.672,3.073-1.393.429-.2.858-.405c.037-.332.074-.665.109-1a.2.2,0,0,0,0-.033c.02-.177.038-.353.057-.53.449-4.232.815-8.479,1.138-12.717.492-6.463.847-12.943,1.018-19.429.036-1.364.072-2.73.1-4.1q.821-.334,1.636-.693c.213-.093.427-.188.639-.286q-.142-.559-.3-1.115" opacity="0.3"/>
    <path id="Path_8640" data-name="Path 8640" d="M55.041,14.434q-.835-1.893-1.828-3.713a49.353,49.353,0,0,0-3-4.787c-.284-.042-.571-.076-.859-.1a.121.121,0,0,1-.078.131,5.089,5.089,0,0,0-2.408,2.03c-.669.95-1.255,1.964-1.843,2.965a18.005,18.005,0,0,0-2.574,6.7c-.013.094.037.61.027.7q.435.147.873.286c1.013.322,2.044.57,3.068.848l.72-.156q2.869-.624,5.719-1.329c1.093-.27,2.18-.57,3.27-.855-.35-.913-.69-1.83-1.085-2.726" fill="#4f7636"/>
    <path id="Path_8641" data-name="Path 8641" d="M43.349,18.652q-.438-.14-.873-.286c-.242,0-.482,0-.721,0l-.473.005c-1.013.01-2.027.022-3.04.028-1.2.006-2.409.01-3.613,0l-1.715-.02a3.959,3.959,0,0,0-.805.045c-.14,1.15-.286,2.3-.446,3.447.361.009.722.007,1.085-.01a28.515,28.515,0,0,0,3.069-.34c3.089-.475,6.164-1.076,9.224-1.723q.688-.146,1.376-.294c-1.024-.278-2.055-.526-3.068-.848" fill="#22271d"/>
    <path id="Path_8642" data-name="Path 8642" d="M48.789,5.782c-.06-.005-.122-.009-.182-.012A68.979,68.979,0,0,0,33.39,6.5c-.193,2.3-.438,4.593-.7,6.884-.18,1.577-.357,3.157-.547,4.735-.012.1-.024.2-.036.3a3.9,3.9,0,0,1,.806-.046l1.714.02c1.2.013,2.41.009,3.614,0,1.013-.006,2.026-.018,3.04-.028l.472,0q.358,0,.721,0c.01-.095-.039-.61-.026-.7a17.988,17.988,0,0,1,2.574-6.7c.588-1,1.174-2.015,1.842-2.965a5.093,5.093,0,0,1,2.409-2.031.12.12,0,0,0,.078-.131c-.188-.019-.375-.035-.563-.048" fill="#3e5126"/>
    <path id="Path_8643" data-name="Path 8643" d="M57.055,22.1q-1.056.361-2.119.7a94.021,94.021,0,0,1-16.374,3.67q-3.224.418-6.452.59-.927.049-1.853.081l-.572.018-.006.1c-.245,3.959-.439,7.918-.528,11.888q-.22,9.754.053,19.506c.048,1.808.12,3.617.2,5.425.041.925.073,1.854.125,2.783q.016.3.036.606c.013.2.028.393.043.591q.46-.021.922-.052.953-.063,1.9-.168a56.782,56.782,0,0,0,6.012-1.014A85.833,85.833,0,0,0,50.1,63.252q1.875-.7,3.734-1.458c.348-.139.7-.281,1.044-.423.045-.347.09-.695.132-1.042,0-.012,0-.023.005-.035.024-.185.046-.369.069-.554.545-4.426.99-8.868,1.383-13.3.6-6.76,1.03-13.537,1.238-20.321.043-1.427.087-2.855.119-4.284q-.382.135-.766.266" fill="#99cb58"/>
    <path id="Path_8644" data-name="Path 8644" d="M29.564,67.471c-.013-.2-.025-.4-.036-.606-.052-.929-.084-1.858-.125-2.783-.08-1.808-.151-3.617-.2-5.425q-.268-9.752-.053-19.506c.089-3.971.284-7.93.528-11.888,0-.035.005-.07.007-.106l-.276.007q-.859-.318-1.7-.672a45.237,45.237,0,0,1-12.115-7.52c-.193-.166-.385-.335-.575-.505q-.035,4.9-.049,9.8c-.017,6.4.03,12.806.058,19.209q.012,2.673.024,5.346c.005.989,0,1.982,0,2.974,0,.249,0,.5.005.745v.026c0,.41.014.821.029,1.23.088.109.176.218.266.326q.288.345.585.685a33.71,33.71,0,0,0,2.913,2.943,32.093,32.093,0,0,0,8.16,5.308c.377.169.76.337,1.147.5.429.179.865.351,1.305.51l.149-.007c-.015-.2-.03-.393-.043-.59" fill="#7cc142"/>
    <path id="Path_8645" data-name="Path 8645" d="M60.221,19.645a50.642,50.642,0,0,0-2.4-6c-.1-.2-.2-.409-.3-.612a52.538,52.538,0,0,0-3.4-5.922q-.411-.618-.839-1.224-1.353-1.915-2.865-3.7c-.062-.074-.125-.147-.188-.22-.337-.392-.691-.8-1.067-1.2q-.433-.11-.87-.2Q47.726.447,47.15.35A35.091,35.091,0,0,0,34.631.895C28.1,2.154,21.389,4.394,16.587,9.2q-.62.618-1.193,1.289-.165.193-.326.392,0,.6-.008,1.2-.02,2.865-.041,5.728c0,.22,0,.441,0,.662q.285.255.575.506A45.287,45.287,0,0,0,27.7,26.493q.844.354,1.7.671c.092,0,.184,0,.276-.006.191-.006.381-.011.571-.018q.927-.03,1.854-.081,3.229-.176,6.452-.59A93.839,93.839,0,0,0,54.936,22.8q1.063-.338,2.119-.7c.256-.087.51-.175.765-.265q1-.349,1.989-.725.39-.146.777-.3-.174-.585-.365-1.166m-7.365-1.63q-2.85.707-5.719,1.329l-.72.156q-.687.149-1.376.294c-3.06.647-6.135,1.248-9.224,1.723a28.515,28.515,0,0,1-3.069.34c-.363.017-.724.019-1.085.01.16-1.147.306-2.3.446-3.447.012-.1.024-.2.035-.3.19-1.577.367-3.157.547-4.734.261-2.291.507-4.585.7-6.884A69.031,69.031,0,0,1,48.607,5.77l.182.013c.188.013.375.029.563.048.288.027.575.061.859.1a49.353,49.353,0,0,1,3,4.787q.991,1.818,1.828,3.713c.4.9.736,1.813,1.085,2.726-1.09.285-2.177.585-3.27.855" fill="#5f9942"/>
    <path id="Path_8646" data-name="Path 8646" d="M47.789,38.348a3.428,3.428,0,0,0-.138-2.019,12.432,12.432,0,0,0-3.051-4.3,1.51,1.51,0,0,0-.978-.6c-.521-.006-.871.527-1.125,1l-1.361,2.528c-.083.153-1.26,3.337-.6,3.354a7.111,7.111,0,0,0,1.568-.139,1.812,1.812,0,0,0,.557-.186,2.191,2.191,0,0,0,.423-.354l1.281-1.276c-.366.365,2.509,2.194,2.731,2.317.157.087.354.174.5.072a.472.472,0,0,0,.146-.232c.019-.054.036-.109.051-.164" fill="#fff"/>
    <path id="Path_8647" data-name="Path 8647" d="M45.125,44.687a2.923,2.923,0,0,0,1.639.778,10.868,10.868,0,0,0,4.727-.631,1.412,1.412,0,0,0,.908-.547c.238-.43-.021-.956-.276-1.377l-1.366-2.249c-.082-.136-2.042-2.523-2.35-1.985a7.159,7.159,0,0,0-.594,1.365,1.821,1.821,0,0,0-.1.545,2.088,2.088,0,0,0,.087.507q.211.815.422,1.629c-.12-.466-2.838,1.114-3.034,1.244-.139.092-.294.217-.28.382a.426.426,0,0,0,.116.224c.034.04.069.078.1.115" fill="#fff"/>
    <path id="Path_8648" data-name="Path 8648" d="M40.421,39.229a3.326,3.326,0,0,0-1.648,1.241,12.35,12.35,0,0,0-1.856,5.1,1.6,1.6,0,0,0,.072,1.2c.307.467.974.483,1.532.447l2.986-.189c.181-.011,3.619-.727,3.239-1.321a8.01,8.01,0,0,0-1.061-1.318,2.037,2.037,0,0,0-.5-.393,2.323,2.323,0,0,0-.557-.179l-1.863-.434c.532.124.374-3.448.347-3.714-.02-.188-.064-.41-.238-.483a.484.484,0,0,0-.287,0c-.057.013-.115.028-.171.045" fill="#fff"/>
    <path id="Path_8649" data-name="Path 8649" d="M29.685,2.062c-.068.308-4.23,1.444-4.753,1.668A29.74,29.74,0,0,0,20.5,6.06C18.276,7.5,14.727,9.909,14.23,12.733L13.5,16.86a1.245,1.245,0,0,0,.005.661,1.238,1.238,0,0,0,.456.5c1.892,1.418,3.826,2.817,5.789,4.152,1.035.7,6.45,2.879,6.758,3.794-1.3-3.875,3.166-23.874,3.173-23.9" fill="#4f7636" fill-rule="evenodd"/>
  </g>
</svg>
