<svg id="create" xmlns="http://www.w3.org/2000/svg" width="70" height="70.001" viewBox="0 0 70 70.001">
  <path id="Path_5281" data-name="Path 5281" d="M17.46,40.861a13.974,13.974,0,0,1-4.443-13.806c1.94-8.889,9.7-9.452,9.7-9.452s-2.336-5.07,1.118-8.7a8.23,8.23,0,0,1,7.835-2.379S32.758-1.35,41.042.2c7.681,1.44,4.21,9.974,4.21,9.974a3.858,3.858,0,0,1,2.566,3.046c.5,2.5-.751,3.384-.751,3.384a6.845,6.845,0,0,1,4.82,4.266c1.126,3.491.39,5.87-.994,7.685,0,0,4.745,1.159,5.248,5.195s-2.251,7.732-2.251,7.732-32.849,1.3-36.43-.623" transform="translate(0 0.001)" fill="#997bff"/>
  <path id="Path_5282" data-name="Path 5282" d="M22.47,41.052S15.885,35.333,19.6,27.4s9.442-3.1,9.442-3.1,2.146-4.131,5.979-3.849,5.319,4.037,5.319,4.037,3.912-.422,5.79,1.925a5.343,5.343,0,0,1,.516,5.258,3.647,3.647,0,0,1,3.99,2.769A6.519,6.519,0,0,1,49.462,40.2L33.673,44.081Z" transform="translate(0 0.001)" fill="#ffaec9"/>
  <path id="Path_5283" data-name="Path 5283" d="M23.834,39.656s-2.515-6.843,0-7.093a3.107,3.107,0,0,1,3.306,1.5s-.3-7.386,3.272-6.384c0,0,1.4.422,2.713,3.474,0,0,1.455-5.446,3.99-5.352s3.223,6.525,3.223,6.525,1.377-3.239,2.973-3.145,1.5,3.8,1.5,3.8a1.76,1.76,0,0,1,2.018-.563c1.268.47.423,3.544.423,3.544s.308-.727,1.468-.539-.858,4.553-.858,4.553l-6.337,2.271-10.422-.174s-5.249.916-7.272-2.421" transform="translate(0 0.001)" fill="#f9f2c1"/>
  <path id="Path_5284" data-name="Path 5284" d="M11.2,39.073H10.138s.5,3.38-.626,4.444a5.048,5.048,0,0,0-1.127,3.192s-.25,3.38-1.064,4.006a6.729,6.729,0,0,0-1.439,2.5L4.818,62.107s-.439,1.252,2.128,2.316A33.7,33.7,0,0,0,10.7,65.8l2.316.313s2.128-.438,3,0,4.319,1.44,4.319,1.44a.717.717,0,0,0,.438.939,36.541,36.541,0,0,0,5.257,0,16.51,16.51,0,0,1,3.944.111c1.94.327,3.755.674,3.881,0s1.439-.487,1.439-.487.251,1.127,2.254,1.189,4.694,0,4.694,0a3.631,3.631,0,0,0,.626-1.314c0-.438,9.514-1.315,9.514-1.315s4.757-1,5.133-1.126,2.816.813,3.129.626S65.094,64.3,65.094,64.3s.626-3.1-.626-10.095-1.439-7.243-1.877-8.12a8.455,8.455,0,0,0-1.878-2,11.766,11.766,0,0,0,.375-2.253,30.66,30.66,0,0,0-1.5-4.632c-.313-.438-1.627-1.439-2.128-1.189a15.664,15.664,0,0,0-1.627,1.127L54.2,38.51s1.127.563,1,.813-1.69,1.252-4.57,1.315-15.654.939-15.654.939-8.068-.188-9.257-.5S16.835,40.7,16.147,39.7l1.565-.5a17.71,17.71,0,0,0-3.193-1.752c-.626-.063-2.378-.814-2.691-.689a2,2,0,0,0-.626,2.316" transform="translate(0 0.001)" fill="#42210b"/>
  <path id="Path_5285" data-name="Path 5285" d="M22.454,40.779a5.8,5.8,0,0,0-.18-1.08c-.018-.065-.046-.139-.11-.159a.2.2,0,0,0-.166.049c-.328.222-.607.51-.939.725a1.576,1.576,0,0,1-1.032.252A3.735,3.735,0,0,0,19,40.472c-1.223.413-2.3.958-2.29,1.6,0,0,.125,15.023.5,15.9a28.308,28.308,0,0,1,.877,2.754s2.754-3.317,2.879-6.071.25-11.893.25-11.893l1.272-.514c0-.493,0-.985-.034-1.473" transform="translate(0 0.001)" fill="#5c323a"/>
  <path id="Path_5286" data-name="Path 5286" d="M30.6,45.9l.257-4.449a45.388,45.388,0,0,1-5.139-.371c-.031-.008-.069-.016-.11-.024l-4.4,1.714s1.565,7.2,1.69,8.763a36.1,36.1,0,0,1-.751,5.947L20.34,67.552a.718.718,0,0,0,.438.939,36.555,36.555,0,0,0,5.258,0,16.5,16.5,0,0,1,3.943.111c1.63.275,3.167.562,3.693.247l.313-3.05a58.6,58.6,0,0,0-.751-6.071c-.313-.814-2.629-1.69-3.442-2.316s-.877-3.067-.877-3.067.5-1.064.877-1.7S30.6,45.9,30.6,45.9" transform="translate(0 0.001)" fill="#472c37"/>
  <path id="Path_5287" data-name="Path 5287" d="M16.147,39.7l1.565-.5a17.71,17.71,0,0,0-3.193-1.752c-.625-.063-2.378-.814-2.691-.689a2,2,0,0,0-.626,2.316H10.138s.011.078.026.2a17.355,17.355,0,0,0,6.546,2.8,12.741,12.741,0,0,0,4.012-1.434c-2.151-.18-4.232-.446-4.575-.945" transform="translate(0 0.001)" fill="#935246"/>
  <path id="Path_5288" data-name="Path 5288" d="M46.128,42.828,42.52,41.08c-3.856.244-7.539.5-7.539.5s-8.069-.188-9.258-.5c-.057-.015-.134-.029-.219-.043l-4.288,1.733s8.262.752,10.954.877,12.706.125,13.958-.814" transform="translate(0 0.001)" fill="#935246"/>
  <path id="Path_5289" data-name="Path 5289" d="M60.712,44.08a11.781,11.781,0,0,0,.375-2.253,30.66,30.66,0,0,0-1.5-4.632c-.313-.438-1.627-1.44-2.128-1.189a4.289,4.289,0,0,0-.4.239l.4,4.549,1.314,3.584A2.737,2.737,0,0,0,60.712,44.08Z" transform="translate(0 0.001)" fill="#4c2d3d"/>
  <path id="Path_5290" data-name="Path 5290" d="M54.2,38.509s1.127.563,1,.814-1.689,1.251-4.568,1.314A10,10,0,0,0,52.7,42.39a36.946,36.946,0,0,0,4.757-1.6,3.214,3.214,0,0,0,0-4.789,15.825,15.825,0,0,0-1.627,1.127Z" transform="translate(0 0.001)" fill="#935246"/>
  <path id="Path_5291" data-name="Path 5291" d="M11.2,39.073H10.138s.011.078.026.2c.432.286.981.624,1.6.966a11.115,11.115,0,0,0,2.886-.419c.25-.313-.939-2.5-2.817-3.067a2,2,0,0,0-.626,2.316" transform="translate(0 0.001)" fill="#5c323a"/>
  <path id="Path_5292" data-name="Path 5292" d="M58.266,39.617a3.019,3.019,0,0,0-.809-3.611A22.347,22.347,0,0,0,56.143,39.2a5.615,5.615,0,0,0,2.123.419" transform="translate(0 0.001)" fill="#5c323a"/>
  <path id="Path_5293" data-name="Path 5293" d="M13.893,62.545l-.63-7.261a36.477,36.477,0,0,1-.121-6.2c.313-1.44,0-2.191-.735-3.693s-2.9-1.878-2.9-1.878a5.051,5.051,0,0,0-1.126,3.192s-.25,3.38-1.064,4.006a6.721,6.721,0,0,0-1.44,2.5L4.817,62.107s-.438,1.252,2.128,2.316A33.651,33.651,0,0,0,10.7,65.8s1.627-.689,2.191-.876,1-2.379,1-2.379" transform="translate(0 0.001)" fill="#3f2d2c"/>
  <path id="Path_5294" data-name="Path 5294" d="M31.544,44.393l-.5,7.636s-.876,2.754-.563,3.38a2.019,2.019,0,0,0,2.253,1.252c1.44-.125.313-8.137.313-8.137l-.313-3.568s-.688-.688-1.189-.563" transform="translate(0 0.001)" fill="#472c37"/>
  <path id="Path_5295" data-name="Path 5295" d="M40.87,57.663l-.876-7.949c-.063-.564-2.191-.188-2.817,0s-1,7.886-1,7.886L35.3,68.116s.251,1.127,2.254,1.189,4.694,0,4.694,0c.188-1.389-1.377-11.642-1.377-11.642" transform="translate(0 0.001)" fill="#402b2e"/>
  <path id="Path_5296" data-name="Path 5296" d="M60.65,66.175c.313-.187,4.444-1.877,4.444-1.877s.626-3.1-.626-10.095-1.439-7.243-1.877-8.119a8.455,8.455,0,0,0-1.878-2c-1.315.688-2.567,5.633-2.88,8.568s-.313,12.9-.313,12.9c.376-.125,2.817.815,3.13.626" transform="translate(0 0.001)" fill="#402d2d"/>
  <path id="Path_5297" data-name="Path 5297" d="M34.981,41.576,36.395,40.2l3.944,2.562Z" transform="translate(0 0.001)" fill="#442435"/>
  <path id="Path_5298" data-name="Path 5298" d="M36.4,40.2l5.868.829,1.7.746-3.622.987Z" transform="translate(0 0.001)" fill="#935246"/>
  <path id="Path_5299" data-name="Path 5299" d="M54.328,46.146C53.765,44.769,52.7,42.39,52.7,42.39l-2.093-1.751c-.717-2.128-4.2-1.691-4.2-1.691a20.866,20.866,0,0,1-2.45.669,1.789,1.789,0,0,0-1.44,1.463l3.608,1.749s.5,19.278.564,20.217c.038.58-.079,2.712-.173,4.256l.435-.053a62.63,62.63,0,0,0,1.991-7.583,50.178,50.178,0,0,0,5.649-.876c.61-.313.3-11.267-.266-12.644" transform="translate(0 0.001)" fill="#462c37"/>
  <path id="Path_5300" data-name="Path 5300" d="M47.537,41.858c.313-.72.282-1.213.845-1.655s.988-.794.353-1.1a6.967,6.967,0,0,0-2.325-.157,20.865,20.865,0,0,1-2.45.669,1.789,1.789,0,0,0-1.439,1.464l3.608,1.748s1.095-.25,1.408-.97" transform="translate(0 0.001)" fill="#5c323a"/>
  <path id="Path_5301" data-name="Path 5301" d="M22.164,39.54s3.278-.2,3.34,1.493l-3.016,1.219Z" transform="translate(0 0.001)" fill="#5c323a"/>
  <path id="Path_5302" data-name="Path 5302" d="M17.511,63.585c.3-.137.628.077.884.28l1.741,1.378c.841.667,1.762,1.492,1.745,2.565a10.254,10.254,0,0,1,1.7-3.642c.477-.747,1.122-1.586,2.006-1.536a.418.418,0,0,1,.245.075c.155.127.1.372.034.56a11.293,11.293,0,0,1-2.7,4.152,3.014,3.014,0,0,1,2.758-.669.53.53,0,0,1,.387.266c.1.265-.2.5-.459.618a23.319,23.319,0,0,1-3.1,1.324c-.915.274-1.361-.338-2.024-.935-.314-.283-3.821-4.154-3.21-4.436" transform="translate(0 0.001)" fill="#1d2c27"/>
  <path id="Path_5303" data-name="Path 5303" d="M37.069,66.188l3.48,2.287a20.236,20.236,0,0,1-2.483-4.56c-.115-.342-.125-.852.229-.925a.632.632,0,0,1,.487.179,12.248,12.248,0,0,1,2.985,3.923,7.855,7.855,0,0,1-.033-5.866c.1-.239.242-.5.495-.544.382-.061.61.407.694.785A16.582,16.582,0,0,1,43,68.229q.521-1.3,1.115-2.567c.556-1.187,1.315-2.478,2.595-2.764.421.546.164,1.33-.107,1.964l-1.158,2.705a4.591,4.591,0,0,1-.666,1.206,3.69,3.69,0,0,1-3.882.944,9.631,9.631,0,0,1-3.829-3.529" transform="translate(0 0.001)" fill="#1d2c27"/>
  <path id="Path_5304" data-name="Path 5304" d="M50.838,61.061a2.983,2.983,0,0,1,1.441,1.872q.6,1.529,1.109,3.091,0-1.742.007-3.482a2.484,2.484,0,0,1,.545-1.9,1.477,1.477,0,0,1,.327,1.073A25.8,25.8,0,0,1,54.2,64.34a2.567,2.567,0,0,1,1.294-1.834.5.5,0,0,1,.541-.035.528.528,0,0,1,.111.472,6.568,6.568,0,0,1-1.083,2.937c-.409.61-1.489,2.133-2.332,1.734-.806-.382-1.367-2.284-1.59-3.066a9.085,9.085,0,0,1-.3-3.487" transform="translate(0 0.001)" fill="#1d2c27"/>
  <path id="Path_5305" data-name="Path 5305" d="M57.594,60.723a.643.643,0,0,1,.069-.586c.252-.263.676.044.887.342a11.323,11.323,0,0,1,1.528,3.044,15.029,15.029,0,0,1,.12-4.7,2.846,2.846,0,0,1,.613-1.479,9.832,9.832,0,0,1,.1,2.732q-.125,2.262-.25,4.525a6.425,6.425,0,0,1,1.822-3.809c.249-.251.6-.5.929-.368.46.179.4.845.235,1.312a24.2,24.2,0,0,1-1.416,3.285,4.16,4.16,0,0,1-.893,1.259c-2.318,2.01-3.452-4.175-3.747-5.553" transform="translate(0 0.001)" fill="#1d2c27"/>
  <path id="Path_5306" data-name="Path 5306" d="M65.2,60.47a4.473,4.473,0,0,1,.637-1.374.674.674,0,0,1,.477-.317.505.505,0,0,1,.432.291,5.6,5.6,0,0,1-.053,4.509,2.085,2.085,0,0,1-.586.823c-1.651,1.271-1.139-3.23-.907-3.932" transform="translate(0 0.001)" fill="#1d2c27"/>
  <path id="Path_5307" data-name="Path 5307" d="M7.447,61.416a1.52,1.52,0,0,1,.13-.711.571.571,0,0,1,.6-.321.694.694,0,0,1,.334.225,3.325,3.325,0,0,1,.711,1.568,9.92,9.92,0,0,1,.231,2.667,4.26,4.26,0,0,1,1.463-3.5,1.261,1.261,0,0,1,.531-.3.53.53,0,0,1,.549.189.772.772,0,0,1,.054.546c-.2,1.287-1.13,4.454-2.7,4.719-1.722.29-1.909-4.017-1.9-5.083" transform="translate(0 0.001)" fill="#1d2c27"/>
  <path id="Path_5308" data-name="Path 5308" d="M3.468,62.608a10.677,10.677,0,0,1-.6-2.432,1.629,1.629,0,0,1,.151-1.3.364.364,0,0,1,.182-.133c.17-.046.326.1.442.232a9.16,9.16,0,0,1,1.714,2.456c.256.622.612,2.214-.091,2.708-.776.544-1.555-.963-1.8-1.531" transform="translate(0 0.001)" fill="#192823"/>
  <path id="Path_5309" data-name="Path 5309" d="M29.933,23s-2.254.132-3.8-3.2-1.6-8.966,2.488-9.576,6.009,5.68,5.727,8.544S31.952,23.332,29.933,23" transform="translate(0 0.001)" fill="#ffaec9"/>
  <path id="Path_5310" data-name="Path 5310" d="M38.1,19.09s-2.238-1.174-1.706-4.648,2.786-5.07,4.57-4.882,2.863,4.882,1.267,7.324S39.369,19.559,38.1,19.09" transform="translate(0 0.001)" fill="#ffaec9"/>
  <path id="Path_5311" data-name="Path 5311" d="M41.058,21.531s.663-2.3,1.951-2.066.684,3.193,0,3.756-2.139,1.268-1.951-1.69" transform="translate(0 0.001)" fill="#f9f2c1"/>
  <path id="Path_5312" data-name="Path 5312" d="M29.218,15.637s-.155-1.917.88-2.107,1.42,2.2,1.067,2.823-1.248,1.56-1.947-.716" transform="translate(0 0.001)" fill="#f9f2c1"/>
  <path id="Path_5313" data-name="Path 5313" d="M32.8,26.46s-1.6-.094-1.737-2.535.8-2.762,1.449-3.009,1.649.517,1.7,2.772-.375,2.631-1.408,2.772" transform="translate(0 0.001)" fill="#f9f2c1"/>
  <rect id="frame" width="70" height="70" transform="translate(0 0.001)" fill="none"/>
</svg>
