<svg id="diary-entries" xmlns="http://www.w3.org/2000/svg" xmlns:xlink="http://www.w3.org/1999/xlink" width="70" height="70" viewBox="0 0 70 70">
  <defs>
    <clipPath id="clip-path">
      <rect id="Rectangle_4789" data-name="Rectangle 4789" width="70" height="70" fill="none"/>
    </clipPath>
    <clipPath id="clip-path-3">
      <rect id="Rectangle_4787" data-name="Rectangle 4787" width="57.859" height="47.549" transform="translate(5.609 15.481)" fill="none"/>
    </clipPath>
    <clipPath id="clip-path-4">
      <rect id="Rectangle_4719" data-name="Rectangle 4719" width="32.013" height="31.888" transform="translate(0.305 2.751)" fill="none"/>
    </clipPath>
    <clipPath id="clip-path-5">
      <rect id="Rectangle_4720" data-name="Rectangle 4720" width="28.293" height="28.126" transform="translate(3.654 3.582)" fill="none"/>
    </clipPath>
    <clipPath id="clip-path-6">
      <rect id="Rectangle_4721" data-name="Rectangle 4721" width="26.264" height="27.624" transform="translate(7.108 2.066)" fill="none"/>
    </clipPath>
    <clipPath id="clip-path-7">
      <rect id="Rectangle_4722" data-name="Rectangle 4722" width="2.105" height="1.395" transform="translate(31.82 30.924)" fill="none"/>
    </clipPath>
  </defs>
  <g id="Group_12771" data-name="Group 12771" clip-path="url(#clip-path)">
    <g id="Group_12770" data-name="Group 12770">
      <g id="Group_12769" data-name="Group 12769" clip-path="url(#clip-path)">
        <g id="Group_12768" data-name="Group 12768" opacity="0.3" style="mix-blend-mode: normal;isolation: isolate">
          <g id="Group_12767" data-name="Group 12767">
            <g id="Group_12766" data-name="Group 12766" clip-path="url(#clip-path-3)">
              <path id="Path_10408" data-name="Path 10408" d="M61.139,49.166l2-.39.329-1.672L42.487,15.481,10.813,19.536a5.871,5.871,0,0,0-4.511,3.4c-1.267,3.041-.408,4.814-.408,4.814L26.57,62l.085.014a1.635,1.635,0,0,0,1.74,1c1.621-.2,33.191-6.486,33.191-6.486l.329-1.6-2.461-3.471a4.685,4.685,0,0,1,1.685-2.3"/>
            </g>
          </g>
        </g>
        <path id="Path_10409" data-name="Path 10409" d="M68.165,41.994,44.927,6.968,9.845,11.459a6.509,6.509,0,0,0-5,3.761c-1.4,3.368-.449,5.333-.449,5.333L27.3,58.5l2.863.448Z" fill="#472172"/>
        <path id="Path_10410" data-name="Path 10410" d="M44.927,6.968,9.845,11.46a6.758,6.758,0,0,0-2.009.637L30.527,51.531l25.192-3.982L68.165,42Z" fill="#735bd2"/>
        <path id="Path_10411" data-name="Path 10411" d="M64.937,51.339s-1.458-.646-1.571-1.909a5.794,5.794,0,0,1,2.722-5.473c2.47-1.347-9.515,1.095-9.515,1.095L31.85,49.908s-2.917.729-3.734,3.227-1.095,4.322-.14,5.133,2.722.674,4.266.337,32.695-7.266,32.695-7.266" fill="#f1d2a1"/>
        <path id="Path_10412" data-name="Path 10412" d="M67.8,43.846s-31.433,6.118-35.11,6.848-4.294,4.462-4.322,5.95,1.179,1.431,1.179,1.431l36.906-7.408-.364,1.768S31.119,59.4,29.322,59.62s-2.916-1.8-2.132-5.95,5.5-4.715,5.5-4.715l35.475-6.96Z" fill="#472172"/>
        <path id="Path_10413" data-name="Path 10413" d="M13.353,13.451,33.139,46.374l31.49-6.23L44.085,9.158Z" fill="#7e6ce5"/>
        <path id="Path_10414" data-name="Path 10414" d="M25.82,24.549l7.572,12.6a4.8,4.8,0,0,0,5.049,2.237l10.43-2.063a4.8,4.8,0,0,0,3.071-7.366L44.023,18.012a4.805,4.805,0,0,0-4.668-2.1L29.272,17.318a4.8,4.8,0,0,0-3.452,7.231" fill="#ed1c24"/>
        <path id="Path_10415" data-name="Path 10415" d="M27.1,16.817l1.539,2.562a.978.978,0,0,0,1.027.454l2.12-.419a.977.977,0,0,0,.625-1.5L30.8,15.488a.977.977,0,0,0-.949-.427l-2.05.286a.976.976,0,0,0-.7,1.47" fill="#fcee21"/>
        <path id="Path_10416" data-name="Path 10416" d="M34.669,15.736,36.1,18.119a.91.91,0,0,0,.956.424l1.973-.391a.908.908,0,0,0,.581-1.393l-1.5-2.26a.907.907,0,0,0-.883-.4l-1.907.266a.908.908,0,0,0-.653,1.368" fill="#fcee21"/>
        <path id="Path_10417" data-name="Path 10417" d="M52.746,31.235,46.46,21.244,25.82,24.549l7.572,12.6a4.8,4.8,0,0,0,5.049,2.237L50.68,36.965c3.353-.663,3.955-2.881,2.066-5.73" fill="#fff"/>
        <path id="Path_10418" data-name="Path 10418" d="M36.193,25.2a2.451,2.451,0,0,0-.88,1.384,2.089,2.089,0,0,0,.576,1.681,5.052,5.052,0,0,0,1.495,1.051A1.854,1.854,0,0,1,38.653,27.4a1.953,1.953,0,0,1,2.165.831,2.064,2.064,0,0,1-.172,2.331c-.554.675-1.488.952-2.031,1.637a2.733,2.733,0,0,0-.431,2.195,8.1,8.1,0,0,0,.847,2.139,15.833,15.833,0,0,1,8.628-1.58q-.3-1.509-.607-3.018a.883.883,0,0,0-.17-.432.835.835,0,0,0-.46-.212,6.661,6.661,0,0,0-3.193.1c1.162-1.027,1.12-2.878.588-4.335A4.677,4.677,0,0,0,36.193,25.2" fill="#1b1464"/>
      </g>
    </g>
    <g id="pen" transform="translate(-0.305 0.362)">
      <path id="Path_10247" data-name="Path 10247" d="M7.886,2.076c2.153-1.14,3.419.032,3.419.032s7.155,6.173,8.612,7.376,1.013,1.425,1.013,1.425c-3.261-.7-3.388-2.533-3.388-2.533s-6.459-5.382-7.029-5.825-1.044.665-1.044.665-3.736,0-1.583-1.14" fill="#063"/>
      <g id="Group_12576" data-name="Group 12576" opacity="0.3" style="mix-blend-mode: normal;isolation: isolate">
        <g id="Group_12575" data-name="Group 12575">
          <g id="Group_12574" data-name="Group 12574" clip-path="url(#clip-path-4)">
            <path id="Path_10248" data-name="Path 10248" d="M32.285,34.188l-.855-1.679a2.213,2.213,0,0,0,.158-.5h0c0-.02.006-.041.01-.061.006-.038.013-.076.018-.114s.006-.079.009-.119.005-.062.006-.093a90.833,90.833,0,0,0-13.2-16.748C12.522,9.11,9.619,6.812,7.749,5.489c.081-.167.377-.723.752-.719a.437.437,0,0,1,.134.026l.016.005a.431.431,0,0,1,.117.068l0,0C9.341,5.315,15.8,10.7,15.8,10.7V10.7c.01.108.228,1.853,3.386,2.527,0,0,.444-.221-1.013-1.424S9.564,4.428,9.564,4.428,8.3,3.257,6.146,4.4a1.37,1.37,0,0,0-.342,0,1.869,1.869,0,0,0-.37.068,3.109,3.109,0,0,0-.4.131L3.28,2.837A.248.248,0,0,0,3.2,2.756a.965.965,0,0,0-.471.077A3.993,3.993,0,0,0,1.4,3.725l-.051.046C.527,4.545.324,5.016.306,5.283A.406.406,0,0,0,.36,5.54L2.106,7.285l-.031.069c-.009.022-.016.042-.025.064-.017.044-.034.088-.048.129-.006.02-.01.037-.016.056-.012.042-.024.083-.033.122,0,.016-.006.032-.009.048-.007.038-.015.077-.019.112,0,.014,0,.027,0,.041,0,.035-.007.071-.008.1v.03c0,.034,0,.068,0,.1l0,.017a.843.843,0,0,0,.111.369C3.267,10.4,4.785,12.892,12.255,20.567h0l.251.258a90.164,90.164,0,0,0,14.4,11.723q.429.282.789.513h0c.981.631,1.554.967,1.554.967h0c.08-.013.16-.03.239-.048l.041-.012c.064-.016.127-.033.19-.053l.064-.022c.058-.021.117-.042.174-.065l.024-.011c.057-.024.113-.048.168-.075.32.165,1.528.79,1.61.835a.484.484,0,0,0,.1.042.436.436,0,0,0,.063.011.343.343,0,0,0,.055.006.267.267,0,0,0,.04,0,.489.489,0,0,0,.155-.029l-.01-.008a.477.477,0,0,0,.069-.032c.137-.127.042-.38.042-.38" fill="#231f20"/>
          </g>
        </g>
      </g>
      <path id="Path_10249" data-name="Path 10249" d="M5.006,3.468c1.71-1.614,2.881-1.392,2.881-1.392,1.868,1.266,4.4,2.786,12.284,10.479A90.833,90.833,0,0,1,33.373,29.3a2.26,2.26,0,0,1-.728,1.614A3.19,3.19,0,0,1,31,31.709a90.882,90.882,0,0,1-16.747-13.2C6.556,10.624,5.023,8.1,3.771,6.223c-.128-.19-.475-1.141,1.235-2.755" fill="#90bc1f"/>
      <path id="Path_10250" data-name="Path 10250" d="M31.82,31.382s1.593.823,1.689.876a.452.452,0,0,0,.474-.011c.138-.126.043-.38.043-.38l-.876-1.72Z" fill="#c1c1c1"/>
      <path id="Path_10251" data-name="Path 10251" d="M31,31.708a3.2,3.2,0,0,0,1.646-.791,2.267,2.267,0,0,0,.729-1.615s-.309-.525-.886-1.428c.005.071.03.813-1,1.776-1.086,1.013-1.741,1.1-1.973,1.077a.1.1,0,0,0-.067.014c.981.63,1.554.967,1.554.967" fill="#d9d700"/>
      <path id="Path_10252" data-name="Path 10252" d="M3.77,6.223C5.008,8.08,6.526,10.571,14,18.246l.095.008a11.041,11.041,0,0,0,3.862-2.533,6.318,6.318,0,0,0,1.991-3.385C12.24,4.836,9.735,3.33,7.886,2.076c0,0-1.172-.223-2.881,1.392S3.643,6.033,3.77,6.223" fill="#008836"/>
      <g id="Group_12579" data-name="Group 12579" opacity="0.46" style="mix-blend-mode: normal;isolation: isolate">
        <g id="Group_12578" data-name="Group 12578">
          <g id="Group_12577" data-name="Group 12577" clip-path="url(#clip-path-5)">
            <path id="Path_10253" data-name="Path 10253" d="M3.77,6.222c1.252,1.878,2.786,4.4,10.479,12.284A90.87,90.87,0,0,0,31,31.708a3.033,3.033,0,0,0,.944-.308l.006-.029S18.27,20.016,13.753,14.993A129.127,129.127,0,0,1,4.888,3.582C3.313,5.127,3.646,6.038,3.77,6.222" fill="#063"/>
          </g>
        </g>
      </g>
      <g id="Group_12582" data-name="Group 12582" opacity="0.5" style="mix-blend-mode: normal;isolation: isolate">
        <g id="Group_12581" data-name="Group 12581">
          <g id="Group_12580" data-name="Group 12580" clip-path="url(#clip-path-6)">
            <path id="Path_10254" data-name="Path 10254" d="M33.33,29.69a1.937,1.937,0,0,0,.042-.388,90.907,90.907,0,0,0-13.2-16.748C12.287,4.86,9.754,3.342,7.886,2.075a1.885,1.885,0,0,0-.778.086l.588.611S23.447,13.547,33.33,29.69" fill="#fff"/>
          </g>
        </g>
      </g>
      <path id="Path_10255" data-name="Path 10255" d="M6.653,4.829C8.837,2.771,7.887,2.075,7.887,2.075S6.715,1.851,5.006,3.467,3.645,6.033,3.772,6.223c0,0,.7.664,2.881-1.394" fill="#3aa535"/>
      <path id="Path_10256" data-name="Path 10256" d="M6.388,4.512c1.745-1.643.986-2.2.986-2.2a4.212,4.212,0,0,0-2.19,1.346C3.82,4.948,3.988,5.472,4.089,5.624c0,0,.554.531,2.3-1.112" fill="#008836"/>
      <path id="Path_10257" data-name="Path 10257" d="M7.186,2.683s.651.356-.9,1.821-1.934.96-1.934.96L2.1,3.219c-.089-.135-.23-.617.986-1.767S4.942.436,4.942.436Z" fill="#c1c1c1"/>
      <path id="Path_10258" data-name="Path 10258" d="M4.038,2.256c1.555-1.465.9-1.821.9-1.821S4.307.3,3.089,1.45,2.012,3.082,2.1,3.218c0,0,.381.5,1.936-.962" fill="#e8e8e8"/>
      <path id="Path_10259" data-name="Path 10259" d="M17.542,8.376s.127,1.837,3.388,2.533L14.408,5.463,10.8,2.487a.762.762,0,0,0-.557-.038.438.438,0,0,1,.272.1c.57.443,7.028,5.825,7.028,5.825" fill="#024220"/>
      <path id="Path_10260" data-name="Path 10260" d="M33.081,32.034c.225.117.4.207.428.224a.454.454,0,0,0,.475-.011c.138-.127.042-.38.042-.38l-.238-.468Z" fill="#2d2e80"/>
      <g id="Group_12585" data-name="Group 12585" opacity="0.46" style="mix-blend-mode: normal;isolation: isolate">
        <g id="Group_12584" data-name="Group 12584">
          <g id="Group_12583" data-name="Group 12583" clip-path="url(#clip-path-7)">
            <path id="Path_10261" data-name="Path 10261" d="M31.82,31.383s1.593.823,1.689.876a.5.5,0,0,0,.416.029l-1.612-1.364Z" fill="#063"/>
          </g>
        </g>
      </g>
    </g>
  </g>
</svg>
