<svg id="writing" xmlns="http://www.w3.org/2000/svg" xmlns:xlink="http://www.w3.org/1999/xlink" width="70" height="70.048" viewBox="0 0 70 70.048">
  <defs>
    <clipPath id="clip-path">
      <rect id="Rectangle_3036" data-name="Rectangle 3036" width="70" height="70.048" fill="none"/>
    </clipPath>
    <clipPath id="clip-path-2">
      <rect id="Rectangle_2999" data-name="Rectangle 2999" width="70" height="70.048" transform="translate(0 0)" fill="none"/>
    </clipPath>
    <clipPath id="clip-path-3">
      <rect id="Rectangle_2997" data-name="Rectangle 2997" width="50.599" height="68.222" transform="translate(9.491 1.826)" fill="none"/>
    </clipPath>
    <clipPath id="clip-path-4">
      <rect id="Rectangle_2998" data-name="Rectangle 2998" width="43.227" height="60.954" transform="translate(9.778 7.26)" fill="none"/>
    </clipPath>
    <clipPath id="clip-path-5">
      <path id="Path_5372" data-name="Path 5372" d="M12.956,2.693l-.721,3.9S24.4,42.9,27.153,65.441l2.449-.134.571,1.886L60.4,63.622l.765-1.8-.11-2.012,1.792-.1S51.431,16.381,45.109,3.975a133.169,133.169,0,0,0-21.88-2.116,55.567,55.567,0,0,0-10.273.834" fill="none"/>
    </clipPath>
    <linearGradient id="linear-gradient" x1="-0.194" y1="1.022" x2="-0.175" y2="1.022" gradientUnits="objectBoundingBox">
      <stop offset="0" stop-color="#ffd2c8"/>
      <stop offset="1" stop-color="#fffbd9"/>
    </linearGradient>
    <clipPath id="clip-path-7">
      <rect id="Rectangle_3002" data-name="Rectangle 3002" width="50.609" height="64.5" transform="translate(12.234 2.693)" fill="none"/>
    </clipPath>
    <clipPath id="clip-path-8">
      <path id="Path_5373" data-name="Path 5373" d="M62.843,59.716s-18.615-1.41-31.471.8c0,0-11.357-48.7-18.415-57.821l-.723,3.9s12.1,36.59,14.919,58.847l2.449-.134.571,1.886L60.4,63.622l.765-1.8-.111-2.012Z" fill="none"/>
    </clipPath>
    <linearGradient id="linear-gradient-2" x1="-0.026" y1="1.088" x2="-0.012" y2="1.088" gradientUnits="objectBoundingBox">
      <stop offset="0" stop-color="#ffe7d8"/>
      <stop offset="0.994" stop-color="#d56088"/>
      <stop offset="1" stop-color="#d56088"/>
    </linearGradient>
    <clipPath id="clip-path-9">
      <rect id="Rectangle_3004" data-name="Rectangle 3004" width="35.446" height="25.639" transform="translate(25.623 37.962)" fill="none"/>
    </clipPath>
    <clipPath id="clip-path-10">
      <path id="Path_5374" data-name="Path 5374" d="M25.623,37.962,30.773,63.6s18.92-3.239,30.3-3.431l-.02-.356s-17.26-.84-29.677.7Z" fill="none"/>
    </clipPath>
    <linearGradient id="linear-gradient-3" x1="-0.915" y1="0.996" x2="-0.882" y2="0.996" gradientUnits="objectBoundingBox">
      <stop offset="0" stop-color="#d56088"/>
      <stop offset="0.006" stop-color="#d56088"/>
      <stop offset="1" stop-color="#ffe7d8"/>
    </linearGradient>
    <clipPath id="clip-path-11">
      <rect id="Rectangle_3006" data-name="Rectangle 3006" width="16.861" height="61.526" transform="translate(12.742 3.854)" fill="none"/>
    </clipPath>
    <clipPath id="clip-path-12">
      <path id="Path_5375" data-name="Path 5375" d="M29.6,65.307S20.434,20.388,12.742,3.854c0,0,11.609,32.02,15.531,61.526Z" fill="none"/>
    </clipPath>
    <linearGradient id="linear-gradient-4" x1="0.166" y1="1.871" x2="0.182" y2="1.871" xlink:href="#linear-gradient-3"/>
    <clipPath id="clip-path-13">
      <rect id="Rectangle_3008" data-name="Rectangle 3008" width="1.171" height="1.818" transform="translate(43.152 4.353)" fill="none"/>
    </clipPath>
    <clipPath id="clip-path-14">
      <path id="Path_5376" data-name="Path 5376" d="M43.338,5.454c.236.49.607.8.827.7s.208-.59-.028-1.081-.607-.8-.828-.7-.207.59.029,1.081" fill="none"/>
    </clipPath>
    <linearGradient id="linear-gradient-5" x1="-21.027" y1="28.012" x2="-20.535" y2="28.012" xlink:href="#linear-gradient-2"/>
    <clipPath id="clip-path-15">
      <rect id="Rectangle_3010" data-name="Rectangle 3010" width="30.986" height="5.368" transform="translate(30.173 61.826)" fill="none"/>
    </clipPath>
    <clipPath id="clip-path-16">
      <path id="Path_5377" data-name="Path 5377" d="M30.173,67.193l.919-2.185L61.16,61.826l-.765,1.8Z" fill="none"/>
    </clipPath>
    <linearGradient id="linear-gradient-6" x1="-4.099" y1="0.676" x2="-3.998" y2="0.676" xlink:href="#linear-gradient-3"/>
    <clipPath id="clip-path-17">
      <rect id="Rectangle_3012" data-name="Rectangle 3012" width="1.17" height="1.818" transform="translate(37.528 3.535)" fill="none"/>
    </clipPath>
    <clipPath id="clip-path-18">
      <path id="Path_5379" data-name="Path 5379" d="M37.714,4.636c.236.491.607.8.827.7s.208-.59-.029-1.08-.606-.8-.827-.7-.207.59.029,1.08" fill="none"/>
    </clipPath>
    <linearGradient id="linear-gradient-7" x1="-18.259" y1="28.359" x2="-17.767" y2="28.359" xlink:href="#linear-gradient-2"/>
    <clipPath id="clip-path-19">
      <rect id="Rectangle_3014" data-name="Rectangle 3014" width="1.171" height="1.818" transform="translate(32.058 3.214)" fill="none"/>
    </clipPath>
    <clipPath id="clip-path-20">
      <path id="Path_5381" data-name="Path 5381" d="M32.244,4.315c.237.491.607.8.828.7s.207-.59-.029-1.081-.607-.8-.827-.7-.208.59.028,1.08" fill="none"/>
    </clipPath>
    <linearGradient id="linear-gradient-8" x1="-15.567" y1="28.496" x2="-15.074" y2="28.496" xlink:href="#linear-gradient-2"/>
    <clipPath id="clip-path-21">
      <rect id="Rectangle_3016" data-name="Rectangle 3016" width="1.171" height="1.818" transform="translate(26.612 2.856)" fill="none"/>
    </clipPath>
    <clipPath id="clip-path-22">
      <path id="Path_5383" data-name="Path 5383" d="M26.8,3.958c.236.49.607.8.827.695s.208-.589-.029-1.08-.606-.8-.827-.7-.207.59.029,1.081" fill="none"/>
    </clipPath>
    <linearGradient id="linear-gradient-9" x1="-12.886" y1="28.648" x2="-12.394" y2="28.648" xlink:href="#linear-gradient-2"/>
    <clipPath id="clip-path-23">
      <rect id="Rectangle_3018" data-name="Rectangle 3018" width="1.171" height="1.818" transform="translate(20.405 2.959)" fill="none"/>
    </clipPath>
    <clipPath id="clip-path-24">
      <path id="Path_5385" data-name="Path 5385" d="M20.591,4.061c.237.49.607.8.827.7s.208-.59-.028-1.08-.607-.8-.828-.7-.207.59.029,1.081" fill="none"/>
    </clipPath>
    <linearGradient id="linear-gradient-10" x1="-9.831" y1="28.604" x2="-9.339" y2="28.604" xlink:href="#linear-gradient-2"/>
    <clipPath id="clip-path-25">
      <rect id="Rectangle_3019" data-name="Rectangle 3019" width="26.406" height="0.968" transform="translate(33.338 55.228)" fill="none"/>
    </clipPath>
    <clipPath id="clip-path-26">
      <rect id="Rectangle_3020" data-name="Rectangle 3020" width="26.406" height="0.968" transform="translate(32.298 51.241)" fill="none"/>
    </clipPath>
    <clipPath id="clip-path-27">
      <rect id="Rectangle_3021" data-name="Rectangle 3021" width="26.406" height="0.968" transform="translate(31.258 47.255)" fill="none"/>
    </clipPath>
    <clipPath id="clip-path-28">
      <rect id="Rectangle_3022" data-name="Rectangle 3022" width="26.406" height="0.968" transform="translate(30.218 43.268)" fill="none"/>
    </clipPath>
    <clipPath id="clip-path-29">
      <rect id="Rectangle_3023" data-name="Rectangle 3023" width="26.406" height="0.968" transform="translate(29.178 39.282)" fill="none"/>
    </clipPath>
    <clipPath id="clip-path-30">
      <rect id="Rectangle_3024" data-name="Rectangle 3024" width="26.137" height="0.968" transform="translate(28.138 35.296)" fill="none"/>
    </clipPath>
    <clipPath id="clip-path-31">
      <rect id="Rectangle_3025" data-name="Rectangle 3025" width="26.19" height="0.968" transform="translate(27.097 31.309)" fill="none"/>
    </clipPath>
    <clipPath id="clip-path-32">
      <rect id="Rectangle_3026" data-name="Rectangle 3026" width="25.936" height="0.842" transform="translate(26.098 27.177)" fill="none"/>
    </clipPath>
    <clipPath id="clip-path-33">
      <rect id="Rectangle_3027" data-name="Rectangle 3027" width="25.759" height="0.777" transform="translate(24.839 23.09)" fill="none"/>
    </clipPath>
    <clipPath id="clip-path-34">
      <rect id="Rectangle_3028" data-name="Rectangle 3028" width="25.824" height="1.128" transform="translate(23.492 18.581)" fill="none"/>
    </clipPath>
    <clipPath id="clip-path-35">
      <rect id="Rectangle_3029" data-name="Rectangle 3029" width="25.632" height="1.209" transform="translate(22.07 14.461)" fill="none"/>
    </clipPath>
    <clipPath id="clip-path-36">
      <rect id="Rectangle_3030" data-name="Rectangle 3030" width="25.949" height="1.413" transform="translate(20.319 10.194)" fill="none"/>
    </clipPath>
    <clipPath id="clip-path-37">
      <rect id="Rectangle_3031" data-name="Rectangle 3031" width="18.996" height="42.929" transform="translate(24.825 15.465)" fill="none"/>
    </clipPath>
    <clipPath id="clip-path-38">
      <rect id="Rectangle_3032" data-name="Rectangle 3032" width="5.801" height="50.763" transform="translate(36.16 5.017)" fill="none"/>
    </clipPath>
    <clipPath id="clip-path-39">
      <rect id="Rectangle_3033" data-name="Rectangle 3033" width="3.525" height="49.749" transform="translate(43.877 5.613)" fill="none"/>
    </clipPath>
    <clipPath id="clip-path-40">
      <rect id="Rectangle_3034" data-name="Rectangle 3034" width="1.228" height="2.741" transform="translate(41.828 55.651)" fill="none"/>
    </clipPath>
  </defs>
  <g id="Group_7643" data-name="Group 7643">
    <g id="Group_7642" data-name="Group 7642" clip-path="url(#clip-path)">
      <g id="Group_7544" data-name="Group 7544">
        <g id="Group_7543" data-name="Group 7543" clip-path="url(#clip-path-2)">
          <g id="Group_7539" data-name="Group 7539" opacity="0.3">
            <g id="Group_7538" data-name="Group 7538">
              <g id="Group_7537" data-name="Group 7537" clip-path="url(#clip-path-3)">
                <path id="Path_5367" data-name="Path 5367" d="M9.49,10.888s8.134,40.427,11.9,59.16L34.353,68.2l23.288-2.752.765-1.8L58.315,62,58.3,61.64l1.793-.1S48.677,18.208,42.355,5.8c0,0-.4-.077-1.123-.2.039-.953-.123-1.921-.872-2.189-1.6-.57-2.495,1.657-2.495,1.657-.691-.1-1.447-.2-2.257-.31.036-.945-.13-1.9-.873-2.164-1.6-.57-2.495,1.657-2.495,1.657l.747.142s.671-1.512,1.649-1.139c.463.177.527.816.467,1.439-1.505-.189-3.18-.377-4.96-.538-.008-.846-.208-1.644-.877-1.883C27.782,1.744,26.9,3.626,26.785,3.9q-1.033-.066-2.089-.113c-.01-.841-.212-1.631-.877-1.868-1.6-.57-2.512,1.774-2.512,1.774h0c-.944-.009-1.888,0-2.827.021-.035-.773-.253-1.471-.871-1.692-1.6-.57-2.661,1.836-2.661,1.836l.912-.037s.672-1.512,1.649-1.139c.365.139.482.566.486,1.046-2.72.087-.038,3.1-2.455,3.564L12.812,8.351ZM24.2,3.763c-.7-.028-1.415-.049-2.126-.062.071-.152.72-1.477,1.642-1.125.4.153.5.651.484,1.187m5.447.35q-1.017-.089-2.073-.163h0s.61-1.39,1.587-1.017c.4.152.5.647.485,1.18m11.076,1.4c-.572-.1-1.28-.21-2.1-.334.1-.208.739-1.451,1.635-1.109.464.177.528.818.467,1.443"/>
              </g>
            </g>
          </g>
          <path id="Path_5368" data-name="Path 5368" d="M10.963,7.268l28.794.184C44.448,14.819,53,64.109,53,64.109L24.142,68.222C20.377,49.488,9.776,8.993,9.776,8.993Z" fill="#008536"/>
          <g id="Group_7542" data-name="Group 7542" opacity="0.3">
            <g id="Group_7541" data-name="Group 7541">
              <g id="Group_7540" data-name="Group 7540" clip-path="url(#clip-path-4)">
                <path id="Path_5369" data-name="Path 5369" d="M10.965,7.26l28.794.184C44.45,14.811,53.006,64.1,53.006,64.1L24.144,68.214C20.379,49.48,9.778,8.985,9.778,8.985Z"/>
              </g>
            </g>
          </g>
          <path id="Path_5370" data-name="Path 5370" d="M52.593,27.7c.028.094.057.188.085.282-.053-.179-.082-.28-.082-.28Z" fill="#ffd78c"/>
          <path id="Path_5371" data-name="Path 5371" d="M12.119,5.6l28.794.184C45.6,13.154,54.16,62.444,54.16,62.444L25.3,66.557C21.533,47.823,10.932,7.328,10.932,7.328Z" fill="#008536"/>
        </g>
      </g>
      <g id="Group_7546" data-name="Group 7546">
        <g id="Group_7545" data-name="Group 7545" clip-path="url(#clip-path-5)">
          <rect id="Rectangle_3000" data-name="Rectangle 3000" width="54.1" height="68.001" transform="translate(8.672 2.054) rotate(-3.131)" fill="url(#linear-gradient)"/>
        </g>
      </g>
      <g id="Group_7641" data-name="Group 7641">
        <g id="Group_7640" data-name="Group 7640" clip-path="url(#clip-path-2)">
          <g id="Group_7551" data-name="Group 7551" opacity="0.6">
            <g id="Group_7550" data-name="Group 7550">
              <g id="Group_7549" data-name="Group 7549" clip-path="url(#clip-path-7)">
                <g id="Group_7548" data-name="Group 7548">
                  <g id="Group_7547" data-name="Group 7547" clip-path="url(#clip-path-8)">
                    <rect id="Rectangle_3001" data-name="Rectangle 3001" width="71.329" height="59.666" transform="translate(2.718 65.757) rotate(-81.419)" fill="url(#linear-gradient-2)"/>
                  </g>
                </g>
              </g>
            </g>
          </g>
          <g id="Group_7556" data-name="Group 7556" opacity="0.6">
            <g id="Group_7555" data-name="Group 7555">
              <g id="Group_7554" data-name="Group 7554" clip-path="url(#clip-path-9)">
                <g id="Group_7553" data-name="Group 7553">
                  <g id="Group_7552" data-name="Group 7552" clip-path="url(#clip-path-10)">
                    <rect id="Rectangle_3003" data-name="Rectangle 3003" width="30.641" height="38.875" transform="matrix(0.149, -0.989, 0.989, 0.149, 21.84, 63.03)" fill="url(#linear-gradient-3)"/>
                  </g>
                </g>
              </g>
            </g>
          </g>
          <g id="Group_7561" data-name="Group 7561" opacity="0.6">
            <g id="Group_7560" data-name="Group 7560">
              <g id="Group_7559" data-name="Group 7559" clip-path="url(#clip-path-11)">
                <g id="Group_7558" data-name="Group 7558">
                  <g id="Group_7557" data-name="Group 7557" clip-path="url(#clip-path-12)">
                    <rect id="Rectangle_3005" data-name="Rectangle 3005" width="63.353" height="25.851" transform="translate(3.665 64.01) rotate(-81.419)" fill="url(#linear-gradient-4)"/>
                  </g>
                </g>
              </g>
            </g>
          </g>
          <g id="Group_7566" data-name="Group 7566" opacity="0.6" style="mix-blend-mode: multiply;isolation: isolate">
            <g id="Group_7565" data-name="Group 7565">
              <g id="Group_7564" data-name="Group 7564" clip-path="url(#clip-path-13)">
                <g id="Group_7563" data-name="Group 7563">
                  <g id="Group_7562" data-name="Group 7562" clip-path="url(#clip-path-14)">
                    <rect id="Rectangle_3007" data-name="Rectangle 3007" width="2.032" height="2.355" transform="translate(42.311 4.642) rotate(-25.724)" fill="url(#linear-gradient-5)"/>
                  </g>
                </g>
              </g>
            </g>
          </g>
          <g id="Group_7571" data-name="Group 7571" opacity="0.6">
            <g id="Group_7570" data-name="Group 7570">
              <g id="Group_7569" data-name="Group 7569" clip-path="url(#clip-path-15)">
                <g id="Group_7568" data-name="Group 7568">
                  <g id="Group_7567" data-name="Group 7567" clip-path="url(#clip-path-16)">
                    <rect id="Rectangle_3009" data-name="Rectangle 3009" width="9.93" height="31.441" transform="translate(29.381 67.074) rotate(-81.419)" fill="url(#linear-gradient-6)"/>
                  </g>
                </g>
              </g>
            </g>
          </g>
          <path id="Path_5378" data-name="Path 5378" d="M43.639,5.91s1.071-3.755-.526-4.325-2.495,1.657-2.495,1.657l.747.142s.671-1.512,1.648-1.139.18,2.807.18,2.807Z" fill="#006837"/>
          <g id="Group_7576" data-name="Group 7576" opacity="0.6" style="mix-blend-mode: multiply;isolation: isolate">
            <g id="Group_7575" data-name="Group 7575">
              <g id="Group_7574" data-name="Group 7574" clip-path="url(#clip-path-17)">
                <g id="Group_7573" data-name="Group 7573">
                  <g id="Group_7572" data-name="Group 7572" clip-path="url(#clip-path-18)">
                    <rect id="Rectangle_3011" data-name="Rectangle 3011" width="2.032" height="2.355" transform="translate(36.687 3.825) rotate(-25.724)" fill="url(#linear-gradient-7)"/>
                  </g>
                </g>
              </g>
            </g>
          </g>
          <path id="Path_5380" data-name="Path 5380" d="M38.015,5.093s1.071-3.755-.526-4.325-2.495,1.657-2.495,1.657l.747.143s.671-1.513,1.648-1.14.18,2.807.18,2.807Z" fill="#006837"/>
          <g id="Group_7581" data-name="Group 7581" opacity="0.6" style="mix-blend-mode: multiply;isolation: isolate">
            <g id="Group_7580" data-name="Group 7580">
              <g id="Group_7579" data-name="Group 7579" clip-path="url(#clip-path-19)">
                <g id="Group_7578" data-name="Group 7578">
                  <g id="Group_7577" data-name="Group 7577" clip-path="url(#clip-path-20)">
                    <rect id="Rectangle_3013" data-name="Rectangle 3013" width="2.032" height="2.355" transform="translate(31.217 3.503) rotate(-25.724)" fill="url(#linear-gradient-8)"/>
                  </g>
                </g>
              </g>
            </g>
          </g>
          <path id="Path_5382" data-name="Path 5382" d="M32.546,4.772S33.617,1.017,32.02.447s-2.5,1.657-2.5,1.657l.808.02s.61-1.39,1.587-1.017.18,2.807.18,2.807Z" fill="#006837"/>
          <g id="Group_7586" data-name="Group 7586" opacity="0.6" style="mix-blend-mode: multiply;isolation: isolate">
            <g id="Group_7585" data-name="Group 7585">
              <g id="Group_7584" data-name="Group 7584" clip-path="url(#clip-path-21)">
                <g id="Group_7583" data-name="Group 7583">
                  <g id="Group_7582" data-name="Group 7582" clip-path="url(#clip-path-22)">
                    <rect id="Rectangle_3015" data-name="Rectangle 3015" width="2.032" height="2.355" transform="translate(25.771 3.146) rotate(-25.724)" fill="url(#linear-gradient-9)"/>
                  </g>
                </g>
              </g>
            </g>
          </g>
          <path id="Path_5384" data-name="Path 5384" d="M27.1,4.414S28.17.659,26.573.089,24.06,1.863,24.06,1.863l.765.026S25.5.376,26.473.749s.18,2.807.18,2.807Z" fill="#006837"/>
          <g id="Group_7591" data-name="Group 7591" opacity="0.6" style="mix-blend-mode: multiply;isolation: isolate">
            <g id="Group_7590" data-name="Group 7590">
              <g id="Group_7589" data-name="Group 7589" clip-path="url(#clip-path-23)">
                <g id="Group_7588" data-name="Group 7588">
                  <g id="Group_7587" data-name="Group 7587" clip-path="url(#clip-path-24)">
                    <rect id="Rectangle_3017" data-name="Rectangle 3017" width="2.032" height="2.355" transform="translate(19.564 3.249) rotate(-25.724)" fill="url(#linear-gradient-10)"/>
                  </g>
                </g>
              </g>
            </g>
          </g>
          <path id="Path_5386" data-name="Path 5386" d="M20.892,4.517S21.963.762,20.366.192s-2.66,1.836-2.66,1.836l.912-.036S19.289.479,20.266.852s.18,2.807.18,2.807Z" fill="#006837"/>
          <g id="Group_7594" data-name="Group 7594" opacity="0.6" style="mix-blend-mode: multiply;isolation: isolate">
            <g id="Group_7593" data-name="Group 7593">
              <g id="Group_7592" data-name="Group 7592" clip-path="url(#clip-path-25)">
                <path id="Path_5387" data-name="Path 5387" d="M59.739,55.629c-4.679-.262-16.554-.737-26.391.481" fill="none" stroke="#a8806d" stroke-width="0.173"/>
              </g>
            </g>
          </g>
          <g id="Group_7597" data-name="Group 7597" opacity="0.6" style="mix-blend-mode: multiply;isolation: isolate">
            <g id="Group_7596" data-name="Group 7596">
              <g id="Group_7595" data-name="Group 7595" clip-path="url(#clip-path-26)">
                <path id="Path_5388" data-name="Path 5388" d="M58.7,51.642c-4.679-.262-16.554-.737-26.391.481" fill="none" stroke="#a8806d" stroke-width="0.173"/>
              </g>
            </g>
          </g>
          <g id="Group_7600" data-name="Group 7600" opacity="0.6" style="mix-blend-mode: multiply;isolation: isolate">
            <g id="Group_7599" data-name="Group 7599">
              <g id="Group_7598" data-name="Group 7598" clip-path="url(#clip-path-27)">
                <path id="Path_5389" data-name="Path 5389" d="M57.659,47.656c-4.679-.262-16.554-.737-26.391.481" fill="none" stroke="#a8806d" stroke-width="0.173"/>
              </g>
            </g>
          </g>
          <g id="Group_7603" data-name="Group 7603" opacity="0.6" style="mix-blend-mode: multiply;isolation: isolate">
            <g id="Group_7602" data-name="Group 7602">
              <g id="Group_7601" data-name="Group 7601" clip-path="url(#clip-path-28)">
                <path id="Path_5390" data-name="Path 5390" d="M56.619,43.669c-4.679-.262-16.554-.737-26.391.481" fill="none" stroke="#a8806d" stroke-width="0.173"/>
              </g>
            </g>
          </g>
          <g id="Group_7606" data-name="Group 7606" opacity="0.6" style="mix-blend-mode: multiply;isolation: isolate">
            <g id="Group_7605" data-name="Group 7605">
              <g id="Group_7604" data-name="Group 7604" clip-path="url(#clip-path-29)">
                <path id="Path_5391" data-name="Path 5391" d="M55.579,39.683c-4.679-.262-16.554-.737-26.391.481" fill="none" stroke="#a8806d" stroke-width="0.173"/>
              </g>
            </g>
          </g>
          <g id="Group_7609" data-name="Group 7609" opacity="0.6" style="mix-blend-mode: multiply;isolation: isolate">
            <g id="Group_7608" data-name="Group 7608">
              <g id="Group_7607" data-name="Group 7607" clip-path="url(#clip-path-30)">
                <path id="Path_5392" data-name="Path 5392" d="M54.269,35.682c-4.852-.265-16.468-.7-26.121.5" fill="none" stroke="#a8806d" stroke-width="0.173"/>
              </g>
            </g>
          </g>
          <g id="Group_7612" data-name="Group 7612" opacity="0.6" style="mix-blend-mode: multiply;isolation: isolate">
            <g id="Group_7611" data-name="Group 7611">
              <g id="Group_7610" data-name="Group 7610" clip-path="url(#clip-path-31)">
                <path id="Path_5393" data-name="Path 5393" d="M53.282,31.7l-.1,0c-4.88-.265-16.451-.693-26.073.5" fill="none" stroke="#a8806d" stroke-width="0.173"/>
              </g>
            </g>
          </g>
          <g id="Group_7615" data-name="Group 7615" opacity="0.6" style="mix-blend-mode: multiply;isolation: isolate">
            <g id="Group_7614" data-name="Group 7614">
              <g id="Group_7613" data-name="Group 7613" clip-path="url(#clip-path-32)">
                <path id="Path_5394" data-name="Path 5394" d="M52.029,27.7l-.147-.008c-5.02-.265-16.318-.929-25.773.242" fill="none" stroke="#a8806d" stroke-width="0.173"/>
              </g>
            </g>
          </g>
          <g id="Group_7618" data-name="Group 7618" opacity="0.6" style="mix-blend-mode: multiply;isolation: isolate">
            <g id="Group_7617" data-name="Group 7617">
              <g id="Group_7616" data-name="Group 7616" clip-path="url(#clip-path-33)">
                <path id="Path_5395" data-name="Path 5395" d="M50.594,23.693c-5.138-.265-16.441-1.063-25.744.088" fill="none" stroke="#a8806d" stroke-width="0.173"/>
              </g>
            </g>
          </g>
          <g id="Group_7621" data-name="Group 7621" opacity="0.6" style="mix-blend-mode: multiply;isolation: isolate">
            <g id="Group_7620" data-name="Group 7620">
              <g id="Group_7619" data-name="Group 7619" clip-path="url(#clip-path-34)">
                <path id="Path_5396" data-name="Path 5396" d="M49.311,19.622c-4.894-.265-16.2-1.674-25.808-.485" fill="none" stroke="#a8806d" stroke-width="0.173"/>
              </g>
            </g>
          </g>
          <g id="Group_7624" data-name="Group 7624" opacity="0.6" style="mix-blend-mode: multiply;isolation: isolate">
            <g id="Group_7623" data-name="Group 7623">
              <g id="Group_7622" data-name="Group 7622" clip-path="url(#clip-path-35)">
                <path id="Path_5397" data-name="Path 5397" d="M47.7,15.584c-5.079-.265-16.235-1.761-25.617-.6" fill="none" stroke="#a8806d" stroke-width="0.173"/>
              </g>
            </g>
          </g>
          <g id="Group_7627" data-name="Group 7627" opacity="0.6" style="mix-blend-mode: multiply;isolation: isolate">
            <g id="Group_7626" data-name="Group 7626">
              <g id="Group_7625" data-name="Group 7625" clip-path="url(#clip-path-36)">
                <path id="Path_5398" data-name="Path 5398" d="M46.263,11.52c-4.988-.265-16.439-2.013-25.934-.838" fill="none" stroke="#a8806d" stroke-width="0.173"/>
              </g>
            </g>
          </g>
          <path id="Path_5399" data-name="Path 5399" d="M45.219,8.719s1.439-.648,1.595.284S48.432,20.84,48.432,20.84s-1.5,1.882,1.023,5.44c0,0,.624.179.285-2.269S47.97,9.276,47.97,9.276s-.184-2.25-3.268-3.057.517,2.5.517,2.5" fill="#063"/>
          <g id="Group_7630" data-name="Group 7630" opacity="0.3" style="mix-blend-mode: normal;isolation: isolate">
            <g id="Group_7629" data-name="Group 7629">
              <g id="Group_7628" data-name="Group 7628" clip-path="url(#clip-path-37)">
                <path id="Path_5400" data-name="Path 5400" d="M43.365,58.033l-.111-1.971a2.42,2.42,0,0,0,.362-.413h0c.013-.017.023-.036.035-.055s.045-.066.066-.1.039-.074.058-.111.032-.057.046-.087a95.2,95.2,0,0,0-5.6-21.643C34.991,25.628,33.176,22.2,31.94,20.139c.148-.127.667-.535,1.025-.373a.462.462,0,0,1,.118.082l.013.011a.46.46,0,0,1,.084.115l0,0c.36.666,4.285,8.557,4.285,8.557l0,.005c-.035.109-.563,1.874,2.183,3.855,0,0,.519-.025-.371-1.8S34.13,19.887,34.13,19.887s-.721-1.658-3.266-1.474a1.437,1.437,0,0,0-.328-.144,1.951,1.951,0,0,0-.384-.091,3.494,3.494,0,0,0-.437-.043l-.943-2.427a.267.267,0,0,0-.041-.112,1.029,1.029,0,0,0-.485-.125,4.215,4.215,0,0,0-1.654.294l-.069.023c-1.114.4-1.507.762-1.637,1.01a.43.43,0,0,0-.057.27l.938,2.412-.058.053-.051.05c-.035.035-.07.07-.1.1-.014.015-.026.031-.039.046-.029.035-.058.069-.082.1-.011.014-.02.028-.03.042-.023.034-.046.068-.066.1l-.02.037c-.019.033-.037.066-.052.1l-.012.029c-.014.033-.028.065-.039.095l0,.018a.867.867,0,0,0-.05.4c.4,2.3.808,5.335,4.735,15.853h0l.132.355A94.58,94.58,0,0,0,38.9,54.192q.292.453.54.826h0c.675,1.02,1.083,1.585,1.083,1.585h0c.083.022.167.04.25.055l.045.007c.067.011.135.021.2.028.023,0,.047,0,.071.006.064,0,.129.01.194.011h.028c.064,0,.128,0,.192,0,.238.294,1.133,1.4,1.193,1.481a.537.537,0,0,0,.081.084.452.452,0,0,0,.056.037.408.408,0,0,0,.05.029.3.3,0,0,0,.038.015.5.5,0,0,0,.162.039l-.006-.013a.417.417,0,0,0,.079,0c.185-.064.2-.347.2-.347" fill="#231f20"/>
              </g>
            </g>
          </g>
          <path id="Path_5401" data-name="Path 5401" d="M37.065,6.575c-.455,2.918-1.211,6.707-.773,21.117a118.932,118.932,0,0,0,4.456,27.552,4.172,4.172,0,0,0,2.287.695,2.965,2.965,0,0,0,2.132-.912,118.94,118.94,0,0,0,2.1-27.831C46.48,12.8,45.383,9.1,44.7,6.221c0,0-.933-1.251-4.01-1.209S37.11,6.278,37.065,6.575" fill="#8db91f"/>
          <path id="Path_5402" data-name="Path 5402" d="M44.2,55.643l-.679,2.433s-.132.329-.377.329a.593.593,0,0,1-.467-.41c-.045-.135-.852-2.339-.852-2.339Z" fill="#bebebe"/>
          <path id="Path_5403" data-name="Path 5403" d="M40.1,52.933a.146.146,0,0,1,.077.046c.2.226.911.724,2.855.709a3.2,3.2,0,0,0,2.539-.825c-.243,1.382-.41,2.161-.41,2.161a2.964,2.964,0,0,1-2.132.912,4.174,4.174,0,0,1-2.287-.695s-.254-.832-.642-2.308" fill="#d6d400"/>
          <path id="Path_5404" data-name="Path 5404" d="M40.692,5.011c3.077-.043,4.01,1.208,4.01,1.208.672,2.847,1.754,6.516,2.54,20.565a8.265,8.265,0,0,1-4.916,1.5,14.451,14.451,0,0,1-5.965-.978l-.085-.092c-.406-14.011.336-17.756.787-20.641.046-.3.552-1.52,3.629-1.563" fill="#008536"/>
          <g id="Group_7633" data-name="Group 7633" opacity="0.46" style="mix-blend-mode: normal;isolation: isolate">
            <g id="Group_7632" data-name="Group 7632">
              <g id="Group_7631" data-name="Group 7631" clip-path="url(#clip-path-38)">
                <path id="Path_5405" data-name="Path 5405" d="M40.479,5.017a169.181,169.181,0,0,0-1.557,18.847c-.093,8.841,3.038,31.894,3.038,31.894l-.032.023a3.987,3.987,0,0,1-1.181-.539A118.9,118.9,0,0,1,36.291,27.69c-.437-14.41.317-18.2.773-21.118.044-.287.528-1.46,3.415-1.555" fill="#063"/>
              </g>
            </g>
          </g>
          <g id="Group_7636" data-name="Group 7636" opacity="0.5" style="mix-blend-mode: normal;isolation: isolate">
            <g id="Group_7635" data-name="Group 7635">
              <g id="Group_7634" data-name="Group 7634" clip-path="url(#clip-path-39)">
                <path id="Path_5406" data-name="Path 5406" d="M43.9,6.722l-.027-1.109a2.473,2.473,0,0,1,.826.606c.679,2.874,1.776,6.58,2.563,20.976a118.94,118.94,0,0,1-2.1,27.831,2.506,2.506,0,0,1-.383.336c4.765-24.31-.878-48.64-.878-48.64" fill="#fff"/>
              </g>
            </g>
          </g>
          <path id="Path_5407" data-name="Path 5407" d="M37.065,6.575c.046-.295.551-1.519,3.63-1.563S44.7,6.22,44.7,6.22s.3,1.512-3.628,1.562-4.011-1.207-4.011-1.207" fill="#3aa235"/>
          <path id="Path_5408" data-name="Path 5408" d="M37.9,6.278c.037-.236.34-.89,2.8-.924s3.3.641,3.3.641.239,1.208-2.9,1.247-3.2-.964-3.2-.964" fill="#008536"/>
          <path id="Path_5409" data-name="Path 5409" d="M43.315,2.032s-.495-.7-2.686-.663-2.481.621-2.516.831l.177,4.152s-.081.822,2.715.787,2.484-.954,2.484-.954Z" fill="#bebebe"/>
          <path id="Path_5410" data-name="Path 5410" d="M38.116,2.2c.033-.21.323-.8,2.515-.831s2.687.663,2.687.663.312.919-2.485.954S38.116,2.2,38.116,2.2" fill="#e5e5e5"/>
          <path id="Path_5411" data-name="Path 5411" d="M46.815,9a.572.572,0,0,0-.172-.338.99.99,0,0,1,.5.529l.844,6.064,1.466,11.023c-2.527-3.558-1.023-5.441-1.023-5.441S46.972,9.935,46.815,9" fill="#024220"/>
          <path id="Path_5412" data-name="Path 5412" d="M43.71,57.414l-.185.662s-.132.329-.377.329a.593.593,0,0,1-.467-.41c-.013-.041-.1-.283-.215-.595Z" fill="#2d2e80"/>
          <g id="Group_7639" data-name="Group 7639" opacity="0.46" style="mix-blend-mode: normal;isolation: isolate">
            <g id="Group_7638" data-name="Group 7638">
              <g id="Group_7637" data-name="Group 7637" clip-path="url(#clip-path-40)">
                <path id="Path_5413" data-name="Path 5413" d="M42.709,55.651l.347,2.741a.657.657,0,0,1-.376-.4c-.045-.135-.852-2.339-.852-2.339Z" fill="#063"/>
              </g>
            </g>
          </g>
        </g>
      </g>
    </g>
  </g>
</svg>
