<svg id="teamwork" xmlns="http://www.w3.org/2000/svg" xmlns:xlink="http://www.w3.org/1999/xlink" width="70" height="70" viewBox="0 0 70 70">
  <defs>
    <clipPath id="clip-path">
      <rect id="Rectangle_2910" data-name="Rectangle 2910" width="70" height="70" fill="none"/>
    </clipPath>
    <clipPath id="clip-path-3">
      <rect id="Rectangle_2863" data-name="Rectangle 2863" width="64.65" height="66.51" transform="translate(3.125 3.49)" fill="none"/>
    </clipPath>
    <clipPath id="clip-path-4">
      <rect id="Rectangle_2864" data-name="Rectangle 2864" width="4.828" height="7.486" transform="translate(11.709 8.136)" fill="none"/>
    </clipPath>
    <clipPath id="clip-path-5">
      <rect id="Rectangle_2865" data-name="Rectangle 2865" width="2.196" height="5.022" transform="translate(17.568 25.516)" fill="none"/>
    </clipPath>
    <clipPath id="clip-path-6">
      <rect id="Rectangle_2866" data-name="Rectangle 2866" width="4.047" height="8.347" transform="translate(16.674 9.841)" fill="none"/>
    </clipPath>
    <clipPath id="clip-path-7">
      <rect id="Rectangle_2867" data-name="Rectangle 2867" width="9.67" height="20.227" transform="translate(3.676 2.112)" fill="none"/>
    </clipPath>
    <clipPath id="clip-path-8">
      <rect id="Rectangle_2868" data-name="Rectangle 2868" width="4.659" height="1.518" transform="translate(13.312 34.564)" fill="none"/>
    </clipPath>
    <clipPath id="clip-path-9">
      <path id="Path_5065" data-name="Path 5065" d="M10.678,1.6c-.751.276-1.8,2-2.917,4.367l0,.012s1.93-4.176,4.084-4.073C13.594,2,18.123,8,20.066,10.191c-.072-.11-.153-.227-.235-.35-1.871-2.723-6.491-8.3-8.761-8.3a1.14,1.14,0,0,0-.392.065" fill="none"/>
    </clipPath>
    <linearGradient id="linear-gradient" x1="-0.845" y1="5.274" x2="-0.749" y2="5.274" gradientUnits="objectBoundingBox">
      <stop offset="0" stop-color="#ffe834"/>
      <stop offset="1" stop-color="#ffcd00"/>
    </linearGradient>
    <clipPath id="clip-path-10">
      <path id="Path_5066" data-name="Path 5066" d="M16.033,29.4c.843.365,1.242-1.157,1.364-2.95-.4,1.166-.35,2.672-1.342,2.632-1.055-.043-6.8-4.137-8.5-5.9a24.487,24.487,0,0,0,8.48,6.214" fill="none"/>
    </clipPath>
    <linearGradient id="linear-gradient-2" x1="-1.072" y1="4.57" x2="-0.946" y2="4.57" xlink:href="#linear-gradient"/>
    <clipPath id="clip-path-12">
      <rect id="Rectangle_2872" data-name="Rectangle 2872" width="3.452" height="4.315" transform="translate(9.744 8.134)" fill="none"/>
    </clipPath>
    <clipPath id="clip-path-13">
      <rect id="Rectangle_2873" data-name="Rectangle 2873" width="12.41" height="6.58" transform="translate(5.903 27.021)" fill="none"/>
    </clipPath>
    <clipPath id="clip-path-14">
      <rect id="Rectangle_2874" data-name="Rectangle 2874" width="6.666" height="5.822" transform="translate(54.878 15.405)" fill="none"/>
    </clipPath>
    <clipPath id="clip-path-15">
      <rect id="Rectangle_2875" data-name="Rectangle 2875" width="3.051" height="4.529" transform="translate(47.726 30.242)" fill="none"/>
    </clipPath>
    <clipPath id="clip-path-16">
      <rect id="Rectangle_2876" data-name="Rectangle 2876" width="3.467" height="8.736" transform="translate(51.706 14.745)" fill="none"/>
    </clipPath>
    <clipPath id="clip-path-17">
      <rect id="Rectangle_2877" data-name="Rectangle 2877" width="5.169" height="21.477" transform="translate(61.25 9.597)" fill="none"/>
    </clipPath>
    <clipPath id="clip-path-18">
      <rect id="Rectangle_2878" data-name="Rectangle 2878" width="4.35" height="1.917" transform="translate(47.909 39.424)" fill="none"/>
    </clipPath>
    <clipPath id="clip-path-19">
      <path id="Path_5079" data-name="Path 5079" d="M53.377,14.744c-.113.095-.225.183-.325.268,2.488-1.543,8.548-6,10.249-5.579,2.093.516,2.747,5.07,2.747,5.07l0-.011c-.391-2.588-.9-4.54-1.546-5.019a1.474,1.474,0,0,0-.895-.245c-2.5,0-7.849,3.6-10.232,5.516" fill="none"/>
    </clipPath>
    <linearGradient id="linear-gradient-3" x1="-7.119" y1="4.725" x2="-6.991" y2="4.725" xlink:href="#linear-gradient"/>
    <clipPath id="clip-path-20">
      <path id="Path_5080" data-name="Path 5080" d="M51.485,34.266c-.961-.246-.477-1.675-.531-2.907-.4,1.753-.45,3.326.463,3.217a24.516,24.516,0,0,0,9.9-3.526c-2.135,1.2-8.812,3.476-9.836,3.216" fill="none"/>
    </clipPath>
    <linearGradient id="linear-gradient-4" x1="-10.333" y1="3.806" x2="-10.139" y2="3.806" xlink:href="#linear-gradient"/>
    <clipPath id="clip-path-22">
      <rect id="Rectangle_2882" data-name="Rectangle 2882" width="2.686" height="4.725" transform="translate(59.713 15.405)" fill="none"/>
    </clipPath>
    <clipPath id="clip-path-23">
      <rect id="Rectangle_2883" data-name="Rectangle 2883" width="13.219" height="3.711" transform="translate(48.56 35.123)" fill="none"/>
    </clipPath>
    <clipPath id="clip-path-24">
      <rect id="Rectangle_2884" data-name="Rectangle 2884" width="13.611" height="7.332" transform="translate(26.32 33.694)" fill="none"/>
    </clipPath>
    <clipPath id="clip-path-25">
      <rect id="Rectangle_2885" data-name="Rectangle 2885" width="35.238" height="25.688" transform="translate(17.861 15.338)" fill="none"/>
    </clipPath>
    <clipPath id="clip-path-26">
      <rect id="Rectangle_2886" data-name="Rectangle 2886" width="10.322" height="2.343" transform="translate(27.336 38.683)" fill="none"/>
    </clipPath>
    <clipPath id="clip-path-27">
      <path id="Path_5088" data-name="Path 5088" d="M15.759,34.564c2.96-.152,3.005-.753,3.005-.753s-.953.576-4,.1S7.1,28.948,7.1,28.948s5.7,5.769,8.66,5.616" fill="none"/>
    </clipPath>
    <linearGradient id="linear-gradient-5" x1="-1.249" y1="3.585" x2="-1.113" y2="3.585" gradientUnits="objectBoundingBox">
      <stop offset="0" stop-color="#ffcd00"/>
      <stop offset="1" stop-color="#ffe834"/>
    </linearGradient>
    <clipPath id="clip-path-28">
      <path id="Path_5089" data-name="Path 5089" d="M50.986,39.441a9.31,9.31,0,0,1-3.218-1.109,4.064,4.064,0,0,0,3.569,1.388c2.536-.114,10.069-3.659,10.069-3.659s-8.4,3.722-10.42,3.38" fill="none"/>
    </clipPath>
    <linearGradient id="linear-gradient-6" x1="-9.065" y1="2.781" x2="-8.89" y2="2.781" xlink:href="#linear-gradient-5"/>
    <clipPath id="clip-path-30">
      <rect id="Rectangle_2890" data-name="Rectangle 2890" width="10.087" height="2.573" transform="translate(26.99 41.961)" fill="none"/>
    </clipPath>
    <clipPath id="clip-path-32">
      <rect id="Rectangle_2894" data-name="Rectangle 2894" width="9.262" height="2.313" transform="translate(27.306 39.517)" fill="none"/>
    </clipPath>
    <clipPath id="clip-path-33">
      <rect id="Rectangle_2896" data-name="Rectangle 2896" width="11.392" height="7.129" transform="translate(18.399 51.647)" fill="none"/>
    </clipPath>
    <clipPath id="clip-path-34">
      <path id="Path_5105" data-name="Path 5105" d="M18.1,63.048a.5.5,0,0,0-.062-.031l.062.031m-2.116-2.355c-.217,1.491,1.631,2.138,2.054,2.324-.344-.169-1.986-1.04-1.819-2.1.171-1.077,7.655-1.073,7.655-1.073a17.22,17.22,0,0,0-2.9-.181c-2.225,0-4.873.235-4.989,1.027" fill="none"/>
    </clipPath>
    <linearGradient id="linear-gradient-7" x1="-3.887" y1="1.514" x2="-3.666" y2="1.514" gradientUnits="objectBoundingBox">
      <stop offset="0" stop-color="#cf4600"/>
      <stop offset="1" stop-color="#cf752a"/>
    </linearGradient>
    <clipPath id="clip-path-36">
      <rect id="Rectangle_2899" data-name="Rectangle 2899" width="2.841" height="6.572" transform="translate(27.168 43.215)" fill="none"/>
    </clipPath>
    <clipPath id="clip-path-37">
      <path id="Path_5108" data-name="Path 5108" d="M34.617,41.846A5.591,5.591,0,0,0,36.9,43.215c.364.008.729-1.995.293-2.006h-.027c-.5,0-2.722.287-2.55.637" fill="none"/>
    </clipPath>
    <linearGradient id="linear-gradient-8" x1="-10.815" y1="14.295" x2="-10.501" y2="14.295" gradientUnits="objectBoundingBox">
      <stop offset="0" stop-color="#cf0700"/>
      <stop offset="1" stop-color="#cf1c00"/>
    </linearGradient>
    <clipPath id="clip-path-38">
      <path id="Path_5109" data-name="Path 5109" d="M18.923,61.49c-.8.373-.747,1.08-.383,1.781a35.592,35.592,0,0,0,9.915,2.656c6.526.954,12.491.677,13.806-.98a16.08,16.08,0,0,0-3.143-1.59c-4.433-1.729-10.841-2.326-15.287-2.326a16.723,16.723,0,0,0-4.908.459" fill="none"/>
    </clipPath>
    <linearGradient id="linear-gradient-9" x1="-0.751" y1="1.532" x2="-0.71" y2="1.532" xlink:href="#linear-gradient-8"/>
    <clipPath id="clip-path-40">
      <rect id="Rectangle_2903" data-name="Rectangle 2903" width="1.303" height="0.664" transform="translate(17.653 61.313)" fill="none"/>
    </clipPath>
    <clipPath id="clip-path-41">
      <rect id="Rectangle_2904" data-name="Rectangle 2904" width="1.311" height="0.662" transform="translate(32.638 65.589)" fill="none"/>
    </clipPath>
    <clipPath id="clip-path-42">
      <path id="Path_5116" data-name="Path 5116" d="M27.669,42.274h0m0,0a12.4,12.4,0,0,1,3.561-.279,8.788,8.788,0,0,1,3.412.75,5.781,5.781,0,0,0-2.543-.915,5.942,5.942,0,0,0-1.114-.1,12.364,12.364,0,0,0-3.316.541" fill="none"/>
    </clipPath>
    <linearGradient id="linear-gradient-10" x1="-15" y1="4.439" x2="-14.502" y2="4.439" xlink:href="#linear-gradient-7"/>
    <clipPath id="clip-path-44">
      <rect id="Rectangle_2907" data-name="Rectangle 2907" width="18.542" height="23.362" transform="translate(14.871 2.106)" fill="none"/>
    </clipPath>
    <clipPath id="clip-path-45">
      <rect id="Rectangle_2908" data-name="Rectangle 2908" width="13.611" height="7.332" transform="translate(25.962 35.151)" fill="none"/>
    </clipPath>
  </defs>
  <g id="Group_7484" data-name="Group 7484">
    <g id="Group_7483" data-name="Group 7483" clip-path="url(#clip-path)">
      <g id="Group_7381" data-name="Group 7381">
        <g id="Group_7380" data-name="Group 7380" clip-path="url(#clip-path)">
          <g id="Group_7364" data-name="Group 7364" opacity="0.3">
            <g id="Group_7363" data-name="Group 7363">
              <g id="Group_7362" data-name="Group 7362" clip-path="url(#clip-path-3)">
                <path id="Path_5056" data-name="Path 5056" d="M67,18.23v-.011c-.374-2.59-.875-4.547-1.513-5.029-1.036-.784-3.744.384-6.362,1.925a12.09,12.09,0,0,0-9.638-8.448A11.35,11.35,0,0,0,40.534,9.2a13.5,13.5,0,0,0-3.1,3.667A13.126,13.126,0,0,0,35.3,8.378,11.513,11.513,0,0,0,27.289,3.6v0A11.487,11.487,0,0,0,16.622,8.074c-1.868-1.964-3.8-3.5-4.907-3.1-.754.27-1.816,1.987-2.947,4.347l0,.012C6.081,14.95,3.053,24.182,3.125,26.114c0,0,.007,2.207,3.744,6.63a23.719,23.719,0,0,0,7.259,6.205,4.74,4.74,0,0,0,1.729.522,4.3,4.3,0,0,0,2.932-.889,3.109,3.109,0,0,0,1.053-1.614c1.74,1.9,3.522,3.673,4.75,4.863a24.121,24.121,0,0,0,2.157,1.576v0c.454.472.807.835,1.01,1.035,0,0,.032-.011.1-.029-.079.54-.07,1.117-.092,1.531,0,.014,0,.028,0,.042s0,.03,0,.045,0,.025.007.038,0,.03.009.045.009.025.014.037.009.028.014.042.014.026.021.04.011.023.018.034.018.028.027.042l.018.028c.01.014.021.026.032.039a.265.265,0,0,0,.021.026c.01.012.021.022.031.033l.025.027.032.03.026.024c.012.011.025.02.037.03l.022.019.039.029.018.014.028.019.025.018.017.01.031.021.013.007.052.031.016.008.019.01L27.3,53.786l-.018.114c-7.962,1.381-10.628,10-10.628,10a1.006,1.006,0,0,0-.012.191c-.228,1.493,1.627,2.152,2.041,2.338a4.868,4.868,0,0,1-1.466-1.1c1.285,1.393,4.619,2.655,8.89,3.542l.014,0q.525.11,1.069.21l.033.006.31.057.1.017.251.044.118.021.238.04.121.02.25.041.109.017.358.056.322.048.108.016.214.031.123.017.2.027.129.017.192.026.131.016.188.024.132.016.19.023.124.014.2.023.113.012.218.024.094.01.279.028.032,0,.317.03.029,0,.278.025.08.006.227.019.092.007.213.016.1.006.212.015.09.006.213.013.087,0,.221.012.074,0,.244.011.047,0,.066,0c.057,0,.111.006.164.007.318.012.631.02.937.024h.029l.248,0h.329l.225,0h.049l.228,0h.04l.243-.006h.019q.669-.018,1.282-.067h.012l.226-.019.023,0,.211-.021.028,0,.206-.022.023,0,.211-.025.012,0c.449-.058.866-.13,1.247-.217h0l.181-.044.01,0c.058-.015.115-.029.172-.045l.008,0,.171-.048h0a3.4,3.4,0,0,0,1.7-.944c.019-.024.035-.05.052-.074s.013-.019.019-.028.028-.043.041-.065.025-.046.037-.07.017-.034.024-.051a.934.934,0,0,0,.042-.111c0-.012.008-.024.011-.037a1.149,1.149,0,0,0,.03-.132s.031-9.025-7.156-12.721l1.1-7.164s.033,0,.084-.016l.011,0,.007,0a1.547,1.547,0,0,0,.337-.122h0l.057-.031.038-.023.022-.015c.015-.01.03-.02.045-.032l.014-.012c.015-.012.03-.024.044-.037l.015-.016c.013-.012.025-.025.037-.038s.031-.04.045-.061a4.949,4.949,0,0,0,.509-1.714c.906-.468,3.051-1.625,4.246-2.233,1.629-.841,3.658-1.934,5.611-3.11a2.963,2.963,0,0,0-.014.5,3.093,3.093,0,0,0,.509,2.057,4.3,4.3,0,0,0,2.532,1.723,4.733,4.733,0,0,0,1.807.02,23.739,23.739,0,0,0,8.78-3.754c4.887-3.106,5.553-5.21,5.553-5.21.646-1.822.514-11.537-.37-17.7M52.309,37.9l-.038-.012c.137-.1.272-.21.4-.314,2.987-2.4,5.677-8.311,6.8-14.367a2.536,2.536,0,0,1,1.638-.381c1.041.391.526,9.24.317,12.289-2.641,1.223-8.2,3.026-9.122,2.785M17.548,30.459l-.038-.048A17.781,17.781,0,0,1,14.4,22.943a31.494,31.494,0,0,0,3.152,7.516M13.011,15.472a1.139,1.139,0,0,1,.6.189c-.841,6.271-.056,12.994,2.142,16.267.024.036.05.073.075.109A46.437,46.437,0,0,1,9.039,27.1c.711-2.972,2.862-11.571,3.972-11.633"/>
              </g>
            </g>
          </g>
          <path id="Path_5057" data-name="Path 5057" d="M7.919,24.754S10.7,12.18,12.043,12.1s4.775,4.8,4.775,4.8l.165-6.034L13.888,6,10.569,7.823,5.509,16.11l-.177,9.35Z" fill="#d93800"/>
          <g id="Group_7367" data-name="Group 7367" opacity="0.5" style="mix-blend-mode: multiply;isolation: isolate">
            <g id="Group_7366" data-name="Group 7366">
              <g id="Group_7365" data-name="Group 7365" clip-path="url(#clip-path-4)">
                <path id="Path_5058" data-name="Path 5058" d="M11.817,8.136a4.152,4.152,0,0,0,.865,3.774,50.863,50.863,0,0,0,3.855,3.712l-.175-5.011Z" fill="#be2f55"/>
              </g>
            </g>
          </g>
          <path id="Path_5059" data-name="Path 5059" d="M19.059,33.35a3.1,3.1,0,0,1-1.088,1.818,4.3,4.3,0,0,1-2.926.908,4.694,4.694,0,0,1-1.733-.511,23.7,23.7,0,0,1-7.3-6.156C2.248,25.009,2.227,22.8,2.227,22.8s17.189,8.7,16.832,10.548" fill="#d93800"/>
          <path id="Path_5060" data-name="Path 5060" d="M19.059,33.35c-.3.733-1.026,1.274-4.006.838S2.345,25.542,2.227,22.8c-.085-1.931,2.882-11.183,5.531-16.82l0-.01C8.876,3.6,9.927,1.88,10.678,1.6c2.083-.762,7.167,5.347,9.153,8.237.081.123.163.239.234.349a6.226,6.226,0,0,1,.553.967c.456,1.268-.655,4.961-2.592,6.683a.964.964,0,0,1-.813.336c-1.091-.236-1.011-3.974-.981-4.937.026-.737-1.746-2.3-3.036-3.325-.737-.585-1.317-1.008-1.317-1.008-.478-.117-1.3,1.431-2.126,3.538C8.294,16.12,6.81,21.489,7.084,22.568a1.831,1.831,0,0,0,.468.621c1.7,1.759,7.448,5.853,8.5,5.9.992.04.938-1.467,1.341-2.632a2.487,2.487,0,0,1,.383-.743.222.222,0,0,1,.034-.036c.866-.975,1.951,2.852,1.951,2.852s-.091.943-.218,2.008a17.888,17.888,0,0,1-.487,2.815" fill="#ff7f00"/>
          <g id="Group_7370" data-name="Group 7370" opacity="0.5" style="mix-blend-mode: multiply;isolation: isolate">
            <g id="Group_7369" data-name="Group 7369">
              <g id="Group_7368" data-name="Group 7368" clip-path="url(#clip-path-5)">
                <path id="Path_5061" data-name="Path 5061" d="M19.546,30.535a1.678,1.678,0,0,1-1.42-.581c-.79-.932-.591-2.9-.313-4.279.866-.976,1.951,2.851,1.951,2.851s-.091.943-.218,2.009" fill="#de5155"/>
              </g>
            </g>
          </g>
          <g id="Group_7373" data-name="Group 7373" opacity="0.5" style="mix-blend-mode: multiply;isolation: isolate">
            <g id="Group_7372" data-name="Group 7372">
              <g id="Group_7371" data-name="Group 7371" clip-path="url(#clip-path-6)">
                <path id="Path_5062" data-name="Path 5062" d="M18.026,17.84a.964.964,0,0,1-.813.336,7.9,7.9,0,0,1-.379-4.505,6.2,6.2,0,0,1,3-3.83,8.215,8.215,0,0,1,.787,1.316c.456,1.268-.655,4.96-2.592,6.683" fill="#de5155"/>
              </g>
            </g>
          </g>
          <g id="Group_7376" data-name="Group 7376" style="mix-blend-mode: screen;isolation: isolate">
            <g id="Group_7375" data-name="Group 7375">
              <g id="Group_7374" data-name="Group 7374" clip-path="url(#clip-path-7)">
                <path id="Path_5063" data-name="Path 5063" d="M4.6,22.327c-1.26-1.315-1.367-2.855.532-8.791S9.779,2.979,11.322,2.195c.755-.384,3.078.55,1.469,3.171C7.842,13.429,4.977,22.721,4.6,22.327" fill="#ff450c"/>
              </g>
            </g>
          </g>
          <g id="Group_7379" data-name="Group 7379" style="mix-blend-mode: multiply;isolation: isolate">
            <g id="Group_7378" data-name="Group 7378">
              <g id="Group_7377" data-name="Group 7377" clip-path="url(#clip-path-8)">
                <path id="Path_5064" data-name="Path 5064" d="M17.971,35.168a4.3,4.3,0,0,1-2.926.908,4.748,4.748,0,0,1-1.733-.51,4.017,4.017,0,0,1,2.619-1,4.638,4.638,0,0,1,2.04.6" fill="#a83d40"/>
              </g>
            </g>
          </g>
        </g>
      </g>
      <g id="Group_7383" data-name="Group 7383">
        <g id="Group_7382" data-name="Group 7382" clip-path="url(#clip-path-9)">
          <rect id="Rectangle_2870" data-name="Rectangle 2870" width="10.341" height="13.429" transform="translate(6.521 10.01) rotate(-81.683)" fill="url(#linear-gradient)"/>
        </g>
      </g>
      <g id="Group_7385" data-name="Group 7385">
        <g id="Group_7384" data-name="Group 7384" clip-path="url(#clip-path-10)">
          <rect id="Rectangle_2871" data-name="Rectangle 2871" width="7.934" height="10.692" transform="translate(6.611 29.631) rotate(-81.683)" fill="url(#linear-gradient-2)"/>
        </g>
      </g>
      <g id="Group_7408" data-name="Group 7408">
        <g id="Group_7407" data-name="Group 7407" clip-path="url(#clip-path)">
          <g id="Group_7388" data-name="Group 7388" style="mix-blend-mode: screen;isolation: isolate">
            <g id="Group_7387" data-name="Group 7387">
              <g id="Group_7386" data-name="Group 7386" clip-path="url(#clip-path-12)">
                <path id="Path_5067" data-name="Path 5067" d="M13.2,9.915c-.737-.586-1.316-1.009-1.316-1.009-.479-.116-1.3,1.431-2.127,3.538l-.006.005c-.067-.7,1.289-4.471,2.07-4.31S13.2,9.915,13.2,9.915" fill="#ff450c"/>
              </g>
            </g>
          </g>
          <g id="Group_7391" data-name="Group 7391" opacity="0.2" style="mix-blend-mode: multiply;isolation: isolate">
            <g id="Group_7390" data-name="Group 7390">
              <g id="Group_7389" data-name="Group 7389" clip-path="url(#clip-path-13)">
                <path id="Path_5068" data-name="Path 5068" d="M5.938,27.053c-.622.442,7.122,6.569,9.609,6.548s3.307-2.281,2.419-2.551-2.192,1-5.272-.427-6.271-3.914-6.756-3.57" fill="#ff4d74"/>
              </g>
            </g>
          </g>
          <path id="Path_5069" data-name="Path 5069" d="M8.283,6.465C7.9,6.116,9.537,3.011,10.1,3.307c1.132.6-1.29,3.64-1.814,3.158" fill="#fff"/>
          <path id="Path_5070" data-name="Path 5070" d="M11.171,26.681c-.51-.162,1.7,2.217,2.188,1.544.394-.537-2.188-1.544-2.188-1.544" fill="#fff"/>
          <path id="Path_5071" data-name="Path 5071" d="M60.522,32.443s.933-12.844-.329-13.308-5.947,3.229-5.947,3.229l1.569-5.829,4.356-3.771,2.658,2.7,2.477,9.388L62.8,33.86Z" fill="#d93800"/>
          <g id="Group_7394" data-name="Group 7394" opacity="0.5" style="mix-blend-mode: multiply;isolation: isolate">
            <g id="Group_7393" data-name="Group 7393">
              <g id="Group_7392" data-name="Group 7392" clip-path="url(#clip-path-14)">
                <path id="Path_5072" data-name="Path 5072" d="M61.543,15.4a4.151,4.151,0,0,1-1.909,3.368,51.009,51.009,0,0,1-4.757,2.454l1.6-4.752Z" fill="#be2f55"/>
              </g>
            </g>
          </g>
          <path id="Path_5073" data-name="Path 5073" d="M47.387,37.491a3.1,3.1,0,0,0,.522,2.053,4.291,4.291,0,0,0,2.544,1.707,4.745,4.745,0,0,0,1.806.008,23.733,23.733,0,0,0,8.756-3.811c4.867-3.137,5.519-5.246,5.519-5.246s-18.961,3.421-19.147,5.289" fill="#d93800"/>
          <path id="Path_5074" data-name="Path 5074" d="M47.387,37.491c.077.787.618,1.513,3.6,1.949s14.65-4.646,15.548-7.238c.635-1.826.439-11.54-.486-17.7l0-.011c-.391-2.588-.905-4.541-1.546-5.019-1.777-1.327-8.4,3.07-11.127,5.271-.113.095-.225.183-.325.268a6.139,6.139,0,0,0-.806.768c-.8,1.085-.792,4.94.571,7.145.231.372.457.539.682.555,1.113.087,2.107-3.518,2.354-4.449.186-.714,2.33-1.7,3.86-2.317.874-.35,1.55-.589,1.55-.589.492.025.836,1.743,1.025,4,.345,3.94.231,9.509-.34,10.464a1.839,1.839,0,0,1-.627.462c-2.135,1.2-8.812,3.476-9.835,3.216-.962-.246-.479-1.674-.532-2.906a2.465,2.465,0,0,0-.154-.821.175.175,0,0,0-.023-.045c-.55-1.182-2.685,2.174-2.685,2.174s-.182.929-.366,1.987a17.9,17.9,0,0,0-.339,2.837" fill="#ff7f00"/>
          <g id="Group_7397" data-name="Group 7397" opacity="0.5" style="mix-blend-mode: multiply;isolation: isolate">
            <g id="Group_7396" data-name="Group 7396">
              <g id="Group_7395" data-name="Group 7395" clip-path="url(#clip-path-15)">
                <path id="Path_5075" data-name="Path 5075" d="M47.726,34.654a1.672,1.672,0,0,0,1.526-.149c1.025-.667,1.4-2.608,1.525-4.012-.55-1.181-2.685,2.174-2.685,2.174s-.182.93-.366,1.987" fill="#de5155"/>
              </g>
            </g>
          </g>
          <g id="Group_7400" data-name="Group 7400" opacity="0.5" style="mix-blend-mode: multiply;isolation: isolate">
            <g id="Group_7399" data-name="Group 7399">
              <g id="Group_7398" data-name="Group 7398" clip-path="url(#clip-path-16)">
                <path id="Path_5076" data-name="Path 5076" d="M52.817,22.926c.231.372.458.539.683.555a7.9,7.9,0,0,0,1.653-4.208,6.2,6.2,0,0,0-1.776-4.528,8.255,8.255,0,0,0-1.131,1.036c-.8,1.084-.792,4.94.571,7.145" fill="#de5155"/>
              </g>
            </g>
          </g>
          <g id="Group_7403" data-name="Group 7403" style="mix-blend-mode: screen;isolation: isolate">
            <g id="Group_7402" data-name="Group 7402">
              <g id="Group_7401" data-name="Group 7401" clip-path="url(#clip-path-17)">
                <path id="Path_5077" data-name="Path 5077" d="M64.4,31.068c1.584-.9,2.127-2.344,2.006-8.576s-1.43-11.445-2.684-12.638c-.613-.584-3.106-.354-2.315,2.618,2.433,9.142,2.519,18.865,2.993,18.6" fill="#ff450c"/>
              </g>
            </g>
          </g>
          <g id="Group_7406" data-name="Group 7406" style="mix-blend-mode: multiply;isolation: isolate">
            <g id="Group_7405" data-name="Group 7405">
              <g id="Group_7404" data-name="Group 7404" clip-path="url(#clip-path-18)">
                <path id="Path_5078" data-name="Path 5078" d="M47.909,39.545a4.291,4.291,0,0,0,2.544,1.707,4.745,4.745,0,0,0,1.806.008,4.017,4.017,0,0,0-2.223-1.707,4.637,4.637,0,0,0-2.127-.008" fill="#a83d40"/>
              </g>
            </g>
          </g>
        </g>
      </g>
      <g id="Group_7410" data-name="Group 7410">
        <g id="Group_7409" data-name="Group 7409" clip-path="url(#clip-path-19)">
          <rect id="Rectangle_2880" data-name="Rectangle 2880" width="7.816" height="13.729" transform="matrix(0.145, -0.989, 0.989, 0.145, 52.193, 14.886)" fill="url(#linear-gradient-3)"/>
        </g>
      </g>
      <g id="Group_7412" data-name="Group 7412">
        <g id="Group_7411" data-name="Group 7411" clip-path="url(#clip-path-20)">
          <rect id="Rectangle_2881" data-name="Rectangle 2881" width="5.161" height="11.229" transform="translate(49.984 34.609) rotate(-81.683)" fill="url(#linear-gradient-4)"/>
        </g>
      </g>
      <g id="Group_7429" data-name="Group 7429">
        <g id="Group_7428" data-name="Group 7428" clip-path="url(#clip-path)">
          <g id="Group_7415" data-name="Group 7415" style="mix-blend-mode: screen;isolation: isolate">
            <g id="Group_7414" data-name="Group 7414">
              <g id="Group_7413" data-name="Group 7413" clip-path="url(#clip-path-22)">
                <path id="Path_5081" data-name="Path 5081" d="M59.713,16.715c.873-.35,1.55-.59,1.55-.59.492.025.835,1.743,1.025,4l.005.006c.264-.649.044-4.652-.75-4.722s-1.83,1.307-1.83,1.307" fill="#ff450c"/>
              </g>
            </g>
          </g>
          <g id="Group_7418" data-name="Group 7418" opacity="0.2" style="mix-blend-mode: multiply;isolation: isolate">
            <g id="Group_7417" data-name="Group 7417">
              <g id="Group_7416" data-name="Group 7416" clip-path="url(#clip-path-23)">
                <path id="Path_5082" data-name="Path 5082" d="M61.762,35.213c.468.6-8.705,4.256-11.081,3.523S48.165,35.6,49.092,35.6s1.816,1.581,5.174,1.1,7.13-1.955,7.5-1.486" fill="#ff4d74"/>
              </g>
            </g>
          </g>
          <path id="Path_5083" data-name="Path 5083" d="M65.408,14.815c.463-.226-.213-3.668-.834-3.545-1.256.248.194,3.857.834,3.545" fill="#fff"/>
          <path id="Path_5084" data-name="Path 5084" d="M56.854,33.359c.535-.009-2.259,1.639-2.539.853-.223-.627,2.539-.853,2.539-.853" fill="#fff"/>
          <g id="Group_7421" data-name="Group 7421" opacity="0.3" style="mix-blend-mode: multiply;isolation: isolate">
            <g id="Group_7420" data-name="Group 7420">
              <g id="Group_7419" data-name="Group 7419" clip-path="url(#clip-path-24)">
                <path id="Path_5085" data-name="Path 5085" d="M39.931,39.76c-1.056.6-1.887,1.06-2.273,1.266a13.294,13.294,0,0,0-10.322-1.509c-.2-.2-.559-.56-1.016-1.029.1-1.665,4.473-4.507,7.633-4.786,2.434-.215,5.3,3.649,5.978,6.058" fill="#de5155"/>
              </g>
            </g>
          </g>
          <g id="Group_7424" data-name="Group 7424" opacity="0.3" style="mix-blend-mode: multiply;isolation: isolate">
            <g id="Group_7423" data-name="Group 7423">
              <g id="Group_7422" data-name="Group 7422" clip-path="url(#clip-path-25)">
                <path id="Path_5086" data-name="Path 5086" d="M47.59,34.559a52.532,52.532,0,0,1-7.659,5.2c-1.056.6-1.886,1.059-2.272,1.265-2.257-1.076-4.172-2.878-10.323-1.509-.2-.2-.559-.56-1.015-1.029a57.308,57.308,0,0,1-6.643-8.009c-1.841-2.969-2.325-9.507-1.257-15.141-.061.58-.88,9.015,2.6,13.867,3.6,5.023,9.752,7.689,12.284,8.718s10.222-1.917,13.953-5.378c3.379-3.133,5.482-10.575,5.844-11.939-.615,5.647-2.929,11.659-5.509,13.953" fill="#de5155"/>
              </g>
            </g>
          </g>
          <g id="Group_7427" data-name="Group 7427" opacity="0.3" style="mix-blend-mode: multiply;isolation: isolate">
            <g id="Group_7426" data-name="Group 7426">
              <g id="Group_7425" data-name="Group 7425" clip-path="url(#clip-path-26)">
                <path id="Path_5087" data-name="Path 5087" d="M27.336,39.517a10.071,10.071,0,0,1,5.819-.6,15.237,15.237,0,0,1,4.5,2.113,22.106,22.106,0,0,0-4.541-1.856c-1.7-.328-5.781.347-5.781.347" fill="#de5155"/>
              </g>
            </g>
          </g>
        </g>
      </g>
      <g id="Group_7431" data-name="Group 7431">
        <g id="Group_7430" data-name="Group 7430" clip-path="url(#clip-path-27)">
          <rect id="Rectangle_2888" data-name="Rectangle 2888" width="7.396" height="12.377" transform="translate(6.273 34.596) rotate(-81.683)" fill="url(#linear-gradient-5)"/>
        </g>
      </g>
      <g id="Group_7433" data-name="Group 7433">
        <g id="Group_7432" data-name="Group 7432" clip-path="url(#clip-path-28)">
          <rect id="Rectangle_2889" data-name="Rectangle 2889" width="5.707" height="14.04" transform="translate(47.228 39.756) rotate(-81.683)" fill="url(#linear-gradient-6)"/>
        </g>
      </g>
      <g id="Group_7438" data-name="Group 7438">
        <g id="Group_7437" data-name="Group 7437" clip-path="url(#clip-path)">
          <path id="Path_5090" data-name="Path 5090" d="M26.243.129a11.515,11.515,0,0,1,8.044,4.728A13.15,13.15,0,0,1,36.443,9.33a13.51,13.51,0,0,1,3.081-3.687,11.35,11.35,0,0,1,8.937-2.589C55.5,4,60.024,11.276,58.681,18.685,56.06,32.35,39.935,40.553,34.226,43.036a3.688,3.688,0,0,1-3.737-.5C25.561,38.613,11.932,26.4,12.681,12.479,13.153,5.028,19.2-.818,26.244.133" fill="red"/>
          <path id="Path_5091" data-name="Path 5091" d="M33.441,33.645c.667.1,15.173.757,21.043-5.646-5.92,8.132-16,13.182-20.259,15.036a3.688,3.688,0,0,1-3.737-.5C26.807,39.6,18.27,32.043,14.5,22.6c4.137,7.752,18.3,10.95,18.945,11.042" fill="#b20000"/>
          <path id="Path_5092" data-name="Path 5092" d="M15.543,12.261c-1.2.893-2.018-2.184-.935-2.5a1.349,1.349,0,0,1,.935,2.5" fill="#fff"/>
          <path id="Path_5093" data-name="Path 5093" d="M55.03,12.742c-2.116-2.513-6.472,16.034-3.727,14.485s4.741-13.281,3.727-14.485" fill="#b20000"/>
          <path id="Path_5094" data-name="Path 5094" d="M37.693,41.18a7.626,7.626,0,0,1-.615,2.939.965.965,0,0,1-.53.354,1.224,1.224,0,0,1-.225.061L35.275,51.7c7.211,3.649,7.238,12.674,7.238,12.674-.314,2.153-6.841,2.6-14.058,1.549-7.011-1.025-12.447-3.044-12.466-5.234A1.107,1.107,0,0,1,16,60.5s2.61-8.639,10.563-10.071l1.048-7.171s-.642-.309-.62-.784c.039-.831-.052-2.313.7-2.848a1.9,1.9,0,0,1,.545-.244,10.367,10.367,0,0,1,9.461,1.8" fill="red"/>
          <path id="Path_5095" data-name="Path 5095" d="M37.693,41.18a7.626,7.626,0,0,1-.615,2.939.965.965,0,0,1-.53.354,1.224,1.224,0,0,1-.225.061L35.275,51.7c7.211,3.649,7.238,12.674,7.238,12.674-.314,2.153-6.841,2.6-14.058,1.549-7.011-1.025-12.447-3.044-12.466-5.234A1.107,1.107,0,0,1,16,60.5s2.61-8.639,10.563-10.071l1.048-7.171s-.642-.309-.62-.784c.039-.831-.052-2.313.7-2.848a1.9,1.9,0,0,1,.545-.244,10.367,10.367,0,0,1,9.461,1.8" fill="#b20000"/>
          <g id="Group_7436" data-name="Group 7436" opacity="0.5" style="mix-blend-mode: multiply;isolation: isolate">
            <g id="Group_7435" data-name="Group 7435">
              <g id="Group_7434" data-name="Group 7434" clip-path="url(#clip-path-30)">
                <path id="Path_5096" data-name="Path 5096" d="M37.078,44.119a1.24,1.24,0,0,1-.755.415,9.082,9.082,0,0,0-3.613-1.409,21.926,21.926,0,0,0-5.1.135s-.643-.31-.62-.785a11.344,11.344,0,0,1,6.056-.217c3.255.71,3.984,1.627,4.031,1.861" fill="#8440ae"/>
              </g>
            </g>
          </g>
          <path id="Path_5097" data-name="Path 5097" d="M42.513,64.378a1.194,1.194,0,0,1-.252.57c-1.315,1.656-7.28,1.933-13.806.979A35.613,35.613,0,0,1,18.54,63.27C16.935,62.482,16,61.6,15.989,60.693A1.107,1.107,0,0,1,16,60.5s2.61-8.639,10.564-10.071l1.048-7.171s.368-.483,4.49-.2a8.317,8.317,0,0,1,4.447,1.414,1.19,1.19,0,0,1-.225.06L35.275,51.7c7.21,3.649,7.238,12.674,7.238,12.674" fill="#cf0900"/>
        </g>
      </g>
      <g id="Group_7440" data-name="Group 7440">
        <path id="Path_5098" data-name="Path 5098" d="M33.457,44.708a3.793,3.793,0,0,1-2.07.043c-.632-.27-.832,1-.79,2.26.039,1.153.279,2.306.579,2.3a4.723,4.723,0,0,1,2.189.528c.63.3,1.066.6,1.263.513.374-.171.885-4.411.823-5.17-.041-.5-.35-.645-.8-.645a6.779,6.779,0,0,0-1.2.174" fill="#860b00"/>
      </g>
      <path id="Path_5099" data-name="Path 5099" d="M26.44,51.428c-7.221,1.435-10.911,8.045-8.18,7.76,8.669-.9,20.381,1.79,22.881,3.835,0,0-4.093-11.793-12.732-11.794a10.032,10.032,0,0,0-1.969.2" fill="#cf0e01"/>
      <g id="Group_7453" data-name="Group 7453" transform="translate(-6 -6)">
        <g id="Group_7452" data-name="Group 7452" clip-path="url(#clip-path)">
          <g id="Group_7445" data-name="Group 7445" opacity="0.5" style="mix-blend-mode: soft-light;isolation: isolate">
            <g id="Group_7444" data-name="Group 7444">
              <g id="Group_7443" data-name="Group 7443" clip-path="url(#clip-path-32)">
                <path id="Path_5100" data-name="Path 5100" d="M27.622,41.83c-.637,0-.218-1.738.421-1.985a13.615,13.615,0,0,1,8.332.772c1.494.585-6.153,1.2-8.753,1.213" fill="#fff"/>
              </g>
            </g>
          </g>
          <path id="Path_5101" data-name="Path 5101" d="M27.448,42.119c-.22-.2-.194-2.692.5-2.641s2-.4,2.161-.151.153,2.1-.347,2.371a6.394,6.394,0,0,1-2.318.421" fill="#cf4600"/>
          <path id="Path_5103" data-name="Path 5103" d="M27.19,41.742c-.151-.269,1.714-.834,2.087-.4s-1.948.643-2.087.4" fill="#fff"/>
          <g id="Group_7451" data-name="Group 7451" opacity="0.5" style="mix-blend-mode: soft-light;isolation: isolate">
            <g id="Group_7450" data-name="Group 7450">
              <g id="Group_7449" data-name="Group 7449" clip-path="url(#clip-path-33)">
                <path id="Path_5104" data-name="Path 5104" d="M18.431,57.674c.759-2.123,5.758-6.554,9.388-5.975s1.752,5.163-1.642,6.478c-1.966.761-8.283,1-7.746-.5" fill="#fff"/>
              </g>
            </g>
          </g>
        </g>
      </g>
      <g id="Group_7455" data-name="Group 7455">
        <g id="Group_7454" data-name="Group 7454" clip-path="url(#clip-path-34)">
          <rect id="Rectangle_2898" data-name="Rectangle 2898" width="4.519" height="8.511" transform="translate(15.288 62.977) rotate(-81.683)" fill="url(#linear-gradient-7)"/>
        </g>
      </g>
      <g id="Group_7460" data-name="Group 7460">
        <g id="Group_7459" data-name="Group 7459" clip-path="url(#clip-path)">
          <path id="Path_5106" data-name="Path 5106" d="M24.817,52.681c-1.024-.889-2.538.622-1.921,1.09s2.549-.545,1.921-1.09" fill="#fff"/>
          <g id="Group_7458" data-name="Group 7458" opacity="0.5" style="mix-blend-mode: soft-light;isolation: isolate">
            <g id="Group_7457" data-name="Group 7457">
              <g id="Group_7456" data-name="Group 7456" clip-path="url(#clip-path-36)">
                <path id="Path_5107" data-name="Path 5107" d="M27.237,49.672c.464.117,2.107.308,2.366-.389s.757-5.9.023-5.9-1.428-.463-1.663.155-1.03,6.059-.726,6.135" fill="#fff"/>
              </g>
            </g>
          </g>
        </g>
      </g>
      <g id="Group_7462" data-name="Group 7462">
        <g id="Group_7461" data-name="Group 7461" clip-path="url(#clip-path-37)">
          <rect id="Rectangle_2901" data-name="Rectangle 2901" width="3.185" height="2.014" transform="translate(34.445 41.209)" fill="url(#linear-gradient-8)"/>
        </g>
      </g>
      <g id="Group_7464" data-name="Group 7464">
        <g id="Group_7463" data-name="Group 7463" clip-path="url(#clip-path-38)">
          <rect id="Rectangle_2902" data-name="Rectangle 2902" width="24.133" height="5.85" transform="translate(18.128 61.031)" fill="url(#linear-gradient-9)"/>
        </g>
      </g>
      <g id="Group_7472" data-name="Group 7472">
        <g id="Group_7471" data-name="Group 7471" clip-path="url(#clip-path)">
          <path id="Path_5110" data-name="Path 5110" d="M18.355,62.037c-.375-.111-.913-.624-.471-.7a3.142,3.142,0,0,1,1.48.128c.327.153,1.206,1.228-1.009.571" fill="#78004f"/>
          <g id="Group_7467" data-name="Group 7467" opacity="0.5" style="mix-blend-mode: multiply;isolation: isolate">
            <g id="Group_7466" data-name="Group 7466">
              <g id="Group_7465" data-name="Group 7465" clip-path="url(#clip-path-40)">
                <path id="Path_5111" data-name="Path 5111" d="M18.491,61.35s.605.128.435.483-1.482-.014-1.244-.424c.09-.156.718-.081.809-.059" fill="#55238e"/>
              </g>
            </g>
          </g>
          <path id="Path_5112" data-name="Path 5112" d="M19.024,61.783c.007-.061-.195-.337-.023-.36s.892.349.808.582-1.262.229-1.131.079.318-.067.346-.3" fill="#cf0600"/>
          <path id="Path_5113" data-name="Path 5113" d="M33.482,66.393c-.629-.092-1-.369-.821-.579a4.274,4.274,0,0,1,2.566-.229c.669.269.259,1.1-1.745.808" fill="#78004f"/>
          <g id="Group_7470" data-name="Group 7470" opacity="0.5" style="mix-blend-mode: multiply;isolation: isolate">
            <g id="Group_7469" data-name="Group 7469">
              <g id="Group_7468" data-name="Group 7468" clip-path="url(#clip-path-41)">
                <path id="Path_5114" data-name="Path 5114" d="M32.644,65.841c.044-.243,1.292-.429,1.3.025s-1.414.577-1.3-.025" fill="#55238e"/>
              </g>
            </g>
          </g>
          <path id="Path_5115" data-name="Path 5115" d="M33.867,65.508c.193.129.435.367.4.55s-.593.194-.463.292,2.114.17,1.683-.473-1.788-.485-1.615-.369" fill="#cf0600"/>
        </g>
      </g>
      <g id="Group_7474" data-name="Group 7474">
        <g id="Group_7473" data-name="Group 7473" clip-path="url(#clip-path-42)">
          <rect id="Rectangle_2906" data-name="Rectangle 2906" width="2.01" height="7.047" transform="matrix(0.145, -0.989, 0.989, 0.145, 27.524, 42.723)" fill="url(#linear-gradient-10)"/>
        </g>
      </g>
      <g id="Group_7482" data-name="Group 7482">
        <g id="Group_7481" data-name="Group 7481" clip-path="url(#clip-path)">
          <path id="Path_5117" data-name="Path 5117" d="M51.848,33.937a67.676,67.676,0,0,1-10.042,6.2c-1.386.717-4.061,2.189-4.567,2.433-3-1.344-1.977-3.376-10.086-1.808-.273-.245-2.748-1.81-3.359-2.387a74.235,74.235,0,0,1-8.907-9.846c-2.48-3.64-3.224-11.6-1.9-18.433-.072.7-1.022,10.949,3.652,16.905,4.843,6.166,13.011,9.505,16.375,10.8s13.482-2.17,18.359-6.32c4.418-3.757,7.079-12.775,7.537-14.428-.724,6.859-3.687,14.134-7.062,16.883" fill="#b20000"/>
          <g id="Group_7477" data-name="Group 7477" opacity="0.5">
            <g id="Group_7476" data-name="Group 7476">
              <g id="Group_7475" data-name="Group 7475" clip-path="url(#clip-path-44)">
                <path id="Path_5118" data-name="Path 5118" d="M20.364,25.453c-3.877-.857-6.775-12.81-4.915-17.479,2.188-5.49,10.489-8.85,17.627-2.145,2.549,2.394-10.083,20.206-12.712,19.624" fill="#fff"/>
              </g>
            </g>
          </g>
          <path id="Path_5119" data-name="Path 5119" d="M42.1,5.53c.385-.206.931-.366,1.2-.024.3.381-.08.917-.445,1.238a18.068,18.068,0,0,0-2.488,2.4,21.826,21.826,0,0,1-2.223,3.08,1.2,1.2,0,0,1-.762.376.93.93,0,0,1-.823-.769c-.29-1.312,1.1-2.65,1.9-3.508A14.159,14.159,0,0,1,42.1,5.53" fill="#fff"/>
          <g id="Group_7480" data-name="Group 7480" opacity="0.32">
            <g id="Group_7479" data-name="Group 7479">
              <g id="Group_7478" data-name="Group 7478" clip-path="url(#clip-path-45)">
                <path id="Path_5120" data-name="Path 5120" d="M39.573,41.218c-1.056.6-1.887,1.06-2.273,1.266a13.294,13.294,0,0,0-10.322-1.509c-.2-.2-.559-.56-1.016-1.029.1-1.665,4.473-4.507,7.633-4.786,2.434-.215,5.3,3.649,5.978,6.058" fill="red"/>
              </g>
            </g>
          </g>
        </g>
      </g>
      <path id="Path_5121" data-name="Path 5121" d="M26.44,51.428c-7.221,1.435-10.911,8.045-8.18,7.76,8.669-.9,20.381,1.79,22.881,3.835,0,0-4.093-11.793-12.732-11.794a10.032,10.032,0,0,0-1.969.2" fill="#e32316"/>
      <path id="Path_5122" data-name="Path 5122" d="M18.923,61.49c-.8.373-.747,1.08-.383,1.781a35.592,35.592,0,0,0,9.915,2.656c6.526.954,12.491.677,13.806-.98a16.08,16.08,0,0,0-3.143-1.59c-4.433-1.729-10.841-2.326-15.287-2.326a16.723,16.723,0,0,0-4.908.459" fill="#750400" opacity="0.473"/>
    </g>
  </g>
  <rect id="frame" width="70" height="70" fill="none"/>
</svg>
