<svg id="settings" xmlns="http://www.w3.org/2000/svg" xmlns:xlink="http://www.w3.org/1999/xlink" width="70" height="70" viewBox="0 0 70 70">
  <defs>
    <clipPath id="clip-path">
      <rect id="Rectangle_3232" data-name="Rectangle 3232" width="70" height="70" fill="none"/>
    </clipPath>
    <clipPath id="clip-path-3">
      <rect id="Rectangle_3182" data-name="Rectangle 3182" width="59.391" height="64.447" transform="translate(5.305 5.553)" fill="none"/>
    </clipPath>
    <clipPath id="clip-path-4">
      <rect id="Rectangle_3183" data-name="Rectangle 3183" width="59.392" height="63.612" transform="translate(5.304 2.099)" fill="none"/>
    </clipPath>
    <clipPath id="clip-path-5">
      <rect id="Rectangle_3184" data-name="Rectangle 3184" width="6.208" height="6.964" transform="translate(11.947 13.811)" fill="none"/>
    </clipPath>
    <clipPath id="clip-path-6">
      <rect id="Rectangle_3185" data-name="Rectangle 3185" width="2.972" height="8.3" transform="translate(54.867 34.999)" fill="none"/>
    </clipPath>
    <clipPath id="clip-path-7">
      <rect id="Rectangle_3186" data-name="Rectangle 3186" width="6.473" height="7.264" transform="translate(41.125 49.28)" fill="none"/>
    </clipPath>
    <clipPath id="clip-path-8">
      <rect id="Rectangle_3187" data-name="Rectangle 3187" width="6.84" height="9.438" transform="translate(52.175 13.26)" fill="none"/>
    </clipPath>
    <clipPath id="clip-path-9">
      <rect id="Rectangle_3188" data-name="Rectangle 3188" width="4.094" height="11.224" transform="translate(47.381 48.492)" fill="none"/>
    </clipPath>
    <clipPath id="clip-path-10">
      <rect id="Rectangle_3189" data-name="Rectangle 3189" width="6.269" height="6.955" transform="translate(57.199 33.939)" fill="none"/>
    </clipPath>
    <clipPath id="clip-path-11">
      <rect id="Rectangle_3191" data-name="Rectangle 3191" width="3.997" height="11.374" transform="translate(19.017 48.478)" fill="none"/>
    </clipPath>
    <clipPath id="clip-path-12">
      <path id="Path_5663" data-name="Path 5663" d="M22.576,48.478l.438,6.057c-.052.1-.137.18-.189.279-1.421,2.245-2.775,4.675-3.351,5.037a12.134,12.134,0,0,0-.457-6.094Z" fill="none"/>
    </clipPath>
    <linearGradient id="linear-gradient" x1="-4.758" y1="1.892" x2="-4.508" y2="1.892" gradientUnits="objectBoundingBox">
      <stop offset="0" stop-color="#4f5587"/>
      <stop offset="0.989" stop-color="#e0ffff"/>
      <stop offset="1" stop-color="#e0ffff"/>
    </linearGradient>
    <clipPath id="clip-path-13">
      <rect id="Rectangle_3192" data-name="Rectangle 3192" width="6.53" height="6.838" transform="translate(6.327 33.445)" fill="none"/>
    </clipPath>
    <clipPath id="clip-path-14">
      <rect id="Rectangle_3194" data-name="Rectangle 3194" width="13.048" height="8.854" transform="translate(28.613 49.928)" fill="none"/>
    </clipPath>
    <clipPath id="clip-path-15">
      <path id="Path_5667" data-name="Path 5667" d="M29.938,50.542s-1.711,6.794-1.244,7.242,6.305,1.09,7.661.987,5.307-.13,5.306-1.418a41.3,41.3,0,0,0-1.582-7.321c-.236-.238-10.018-.067-10.141.51" fill="none"/>
    </clipPath>
    <linearGradient id="linear-gradient-2" x1="-2.026" y1="2.119" x2="-1.954" y2="2.119" xlink:href="#linear-gradient"/>
    <clipPath id="clip-path-16">
      <rect id="Rectangle_3196" data-name="Rectangle 3196" width="12.867" height="13.855" transform="translate(9.942 39.428)" fill="none"/>
    </clipPath>
    <clipPath id="clip-path-17">
      <path id="Path_5668" data-name="Path 5668" d="M22.6,47.383s-3.319,5.824-3.713,5.9-5.094-2.535-5.852-3.83S9.6,44.591,9.979,43.983s7.543-4.7,7.843-4.551,6.162,5.69,4.775,7.951" fill="none"/>
    </clipPath>
    <linearGradient id="linear-gradient-3" x1="-0.344" y1="1.696" x2="-0.293" y2="1.696" xlink:href="#linear-gradient"/>
    <clipPath id="clip-path-18">
      <rect id="Rectangle_3198" data-name="Rectangle 3198" width="12.833" height="11.407" transform="translate(11.962 5.619)" fill="none"/>
    </clipPath>
    <clipPath id="clip-path-19">
      <path id="Path_5669" data-name="Path 5669" d="M18.115,17.018c-.117-.057-6.439-3.412-6.143-4.2s7.908-8.3,8.8-7.062,4.031,5.657,4.023,5.93-6.174,5.578-6.68,5.332" fill="none"/>
    </clipPath>
    <linearGradient id="linear-gradient-4" x1="-0.497" y1="3.738" x2="-0.443" y2="3.738" xlink:href="#linear-gradient"/>
    <clipPath id="clip-path-20">
      <rect id="Rectangle_3200" data-name="Rectangle 3200" width="11.075" height="7.774" transform="translate(29.834 2.11)" fill="none"/>
    </clipPath>
    <clipPath id="clip-path-21">
      <path id="Path_5670" data-name="Path 5670" d="M30.892,8.769c-.053-.3-1.693-6.106-.784-6.5s10.517.036,10.77.535-1.14,6.8-1.543,6.869-8.145.8-8.443-.9" fill="none"/>
    </clipPath>
    <linearGradient id="linear-gradient-5" x1="-3.374" y1="5.701" x2="-3.263" y2="5.701" xlink:href="#linear-gradient"/>
    <clipPath id="clip-path-22">
      <rect id="Rectangle_3202" data-name="Rectangle 3202" width="8.964" height="11.708" transform="translate(6.124 22.159)" fill="none"/>
    </clipPath>
    <clipPath id="clip-path-23">
      <path id="Path_5671" data-name="Path 5671" d="M13.363,32.7s-6.709,1.773-6.976.957S5.605,22.087,7.607,22.16s6.885,1.01,7.337,1.585-.18,9.317-1.581,8.951" fill="none"/>
    </clipPath>
    <linearGradient id="linear-gradient-6" x1="-0.319" y1="4.527" x2="-0.241" y2="4.527" xlink:href="#linear-gradient"/>
    <clipPath id="clip-path-24">
      <rect id="Rectangle_3203" data-name="Rectangle 3203" width="34.59" height="55.782" transform="translate(5.833 2.289)" fill="none"/>
    </clipPath>
    <clipPath id="clip-path-25">
      <rect id="Rectangle_3204" data-name="Rectangle 3204" width="13.802" height="10.164" transform="translate(28.295 21.596)" fill="none"/>
    </clipPath>
    <clipPath id="clip-path-26">
      <rect id="Rectangle_3205" data-name="Rectangle 3205" width="9" height="10.164" transform="translate(28.295 21.596)" fill="none"/>
    </clipPath>
    <clipPath id="clip-path-27">
      <rect id="Rectangle_3206" data-name="Rectangle 3206" width="22.829" height="28.217" transform="translate(28.743 15.921)" fill="none"/>
    </clipPath>
    <clipPath id="clip-path-28">
      <rect id="Rectangle_3207" data-name="Rectangle 3207" width="17.882" height="24.657" transform="translate(29.981 16.379)" fill="none"/>
    </clipPath>
    <clipPath id="clip-path-29">
      <rect id="Rectangle_3208" data-name="Rectangle 3208" width="13.724" height="8.012" transform="translate(28.083 51.454)" fill="none"/>
    </clipPath>
    <clipPath id="clip-path-30">
      <rect id="Rectangle_3209" data-name="Rectangle 3209" width="10.57" height="25.201" transform="translate(21.999 15.974)" fill="none"/>
    </clipPath>
    <clipPath id="clip-path-31">
      <rect id="Rectangle_3210" data-name="Rectangle 3210" width="9.883" height="13.534" transform="translate(9.645 40.351)" fill="none"/>
    </clipPath>
    <clipPath id="clip-path-32">
      <rect id="Rectangle_3211" data-name="Rectangle 3211" width="7.833" height="13.089" transform="translate(5.314 21.502)" fill="none"/>
    </clipPath>
    <clipPath id="clip-path-33">
      <rect id="Rectangle_3212" data-name="Rectangle 3212" width="12.337" height="11.194" transform="translate(11.619 5.303)" fill="none"/>
    </clipPath>
    <clipPath id="clip-path-34">
      <rect id="Rectangle_3214" data-name="Rectangle 3214" width="12.13" height="6.142" transform="translate(29.296 1.263)" fill="none"/>
    </clipPath>
    <clipPath id="clip-path-35">
      <path id="Path_5684" data-name="Path 5684" d="M35.469,1.311c2.744.18,5.69.928,5.948,1.567a29.884,29.884,0,0,1-.776,3.765,8.56,8.56,0,0,0,0-3.779c-.573-1.594-9.622-1.277-10.452-.351-.478.527.1,4.892.1,4.892a.038.038,0,0,0-.014-.028,2.651,2.651,0,0,0-.055-.3c-.445-2.035-1.052-4.1-.906-4.595.245-.913,3.112-1.382,6.151-1.175" fill="none"/>
    </clipPath>
    <linearGradient id="linear-gradient-7" x1="-4.5" y1="5.679" x2="-4.359" y2="5.679" gradientUnits="objectBoundingBox">
      <stop offset="0" stop-color="#000521"/>
      <stop offset="1" stop-color="#e0ffff"/>
    </linearGradient>
    <clipPath id="clip-path-36">
      <rect id="Rectangle_3216" data-name="Rectangle 3216" width="11.284" height="12.729" transform="translate(48.538 40.931)" fill="none"/>
    </clipPath>
    <clipPath id="clip-path-37">
      <path id="Path_5685" data-name="Path 5685" d="M55.4,40.931c1.942,1.216,3.955,2.342,4.283,2.86.622.958-.956,3.716-3.253,6.112-2.12,2.183-4.94,4.072-5.677,3.714a30.4,30.4,0,0,1-2.218-3.328,9.953,9.953,0,0,0,2.536,2.47c1.264.526,9.251-6.877,8.113-8.667A20.131,20.131,0,0,0,55.4,40.931" fill="none"/>
    </clipPath>
    <linearGradient id="linear-gradient-8" x1="-2.7" y1="1.798" x2="-2.642" y2="1.798" xlink:href="#linear-gradient-7"/>
    <clipPath id="clip-path-38">
      <rect id="Rectangle_3218" data-name="Rectangle 3218" width="6.613" height="12.617" transform="translate(57.208 22.497)" fill="none"/>
    </clipPath>
    <clipPath id="clip-path-39">
      <path id="Path_5686" data-name="Path 5686" d="M61.914,22.518c1.024.244,1.805,3.158,1.9,6.28.1,2.894-.459,6.031-1.145,6.307-.239.092-2.477-.535-4.931-1.053a2.861,2.861,0,0,0-.357-.08c.908.162,4.954.865,5.133.429.191-.5.314-10.888-.417-11.328-.583-.348-3.672.132-4.885.335,2.092-.454,4.163-1.028,4.706-.89" fill="none"/>
    </clipPath>
    <linearGradient id="linear-gradient-9" x1="-8.317" y1="3.694" x2="-8.172" y2="3.694" xlink:href="#linear-gradient-7"/>
    <clipPath id="clip-path-40">
      <rect id="Rectangle_3220" data-name="Rectangle 3220" width="11.536" height="11.22" transform="translate(46.665 6.102)" fill="none"/>
    </clipPath>
    <clipPath id="clip-path-41">
      <path id="Path_5687" data-name="Path 5687" d="M54.775,9.432c1.955,1.968,3.661,4.517,3.4,5.156a44.93,44.93,0,0,1-3.853,2.486c-.123.088-.277.175-.4.248.354-.248,3.189-2.358,2.96-3.276-.245-.972-6.379-7.489-7.11-7.207-.64.239-2.62,2.693-3.106,3.306a.544.544,0,0,1,.076-.129c1.118-1.735,2.151-3.574,2.607-3.827.834-.478,3.285,1.078,5.427,3.243" fill="none"/>
    </clipPath>
    <linearGradient id="linear-gradient-10" x1="-2.695" y1="4.061" x2="-2.634" y2="4.061" xlink:href="#linear-gradient-7"/>
    <clipPath id="clip-path-42">
      <rect id="Rectangle_3221" data-name="Rectangle 3221" width="9.027" height="13.053" transform="translate(51.44 46.076)" fill="none"/>
    </clipPath>
    <clipPath id="clip-path-43">
      <path id="Path_5689" data-name="Path 5689" d="M35.463,35.28v.03s.16-.014.448-.043a4.068,4.068,0,0,1-.448.013" fill="none"/>
    </clipPath>
    <linearGradient id="linear-gradient-11" x1="-78.796" y1="395.355" x2="-76.574" y2="395.355" xlink:href="#linear-gradient"/>
    <clipPath id="clip-path-45">
      <rect id="Rectangle_3224" data-name="Rectangle 3224" width="7.905" height="13.503" transform="translate(35.983 21.646)" fill="none"/>
    </clipPath>
    <clipPath id="clip-path-46">
      <rect id="Rectangle_3225" data-name="Rectangle 3225" width="13.389" height="6.265" transform="translate(28.583 59.067)" fill="none"/>
    </clipPath>
    <clipPath id="clip-path-47">
      <rect id="Rectangle_3227" data-name="Rectangle 3227" width="4.896" height="9.372" transform="translate(9.918 46.399)" fill="none"/>
    </clipPath>
    <clipPath id="clip-path-48">
      <path id="Path_5692" data-name="Path 5692" d="M9.925,46.422a31.459,31.459,0,0,0,.315,3.867,19.544,19.544,0,0,0,2.748,4.58c1.186,1.19,2.213,1.309,1.681-.282s-4.642-8.637-4.744-8.165" fill="none"/>
    </clipPath>
    <linearGradient id="linear-gradient-12" x1="-0.681" y1="2.176" x2="-0.587" y2="2.176" xlink:href="#linear-gradient"/>
    <clipPath id="clip-path-49">
      <rect id="Rectangle_3228" data-name="Rectangle 3228" width="2.552" height="7.738" transform="translate(20.278 49.317)" fill="none"/>
    </clipPath>
    <clipPath id="clip-path-50">
      <rect id="Rectangle_3230" data-name="Rectangle 3230" width="0.956" height="5.119" transform="translate(62.81 35.37)" fill="none"/>
    </clipPath>
    <clipPath id="clip-path-51">
      <path id="Path_5694" data-name="Path 5694" d="M63.721,40.454c.248-.175-.586-5.845-.813-5a10.525,10.525,0,0,0,.126,3.369c.131.71.331,1.88.687,1.629" fill="none"/>
    </clipPath>
    <linearGradient id="linear-gradient-13" x1="-9.815" y1="21.914" x2="-9.653" y2="21.914" xlink:href="#linear-gradient-7"/>
  </defs>
  <g id="Group_8150" data-name="Group 8150">
    <g id="Group_8149" data-name="Group 8149" clip-path="url(#clip-path)">
      <g id="Group_8125" data-name="Group 8125">
        <g id="Group_8124" data-name="Group 8124" clip-path="url(#clip-path)">
          <g id="Group_8016" data-name="Group 8016" opacity="0.3">
            <g id="Group_8015" data-name="Group 8015">
              <g id="Group_8014" data-name="Group 8014" clip-path="url(#clip-path-3)">
                <path id="Path_5653" data-name="Path 5653" d="M64.691,38.747a43.7,43.7,0,0,0-.955-6.926c-.236-2.61-.938-4.8-1.816-5.018-.56-.137-2.724.464-4.867.92-.113.023-.227.039-.34.062-.164-.573-.352-1.135-.559-1.687l.154-.1a20.334,20.334,0,0,0,2.664-1.75,2.324,2.324,0,0,0,.021-.839c-.129-1.624-.812-4.883-.812-4.883h0a2.5,2.5,0,0,0-.121-.374c-.009-.025-.016-.047-.028-.073s-.023-.051-.036-.076a17.613,17.613,0,0,0-3.216-4.284c-2.137-2.159-4.6-3.727-5.429-3.248a3.109,3.109,0,0,0-.684.805c-.518.753-1.2,1.911-1.923,3.029-.009.012-.013.024-.021.035-.053.079-.109.156-.16.235a22.824,22.824,0,0,0-4.511-2.1.49.49,0,0,0,0-.179c-.075-.184-.547-4.438-.615-5.052a.219.219,0,0,0-.008-.076.916.916,0,0,0-.416-.37c-.021-.012-.047-.024-.069-.036-.055-.029-.11-.058-.173-.087L40.7,6.652A17.91,17.91,0,0,0,35.471,5.6c-.542-.035-1.078-.049-1.6-.043a16.507,16.507,0,0,0-1.959.127c-1.431.184-2.461.559-2.6,1.09a.526.526,0,0,0-.018.124c-.108.369.458,4.311.518,4.907a22.545,22.545,0,0,0-5.834,2.148l-.076-.111c-.07-.106-.139-.216-.209-.318-1.1-1.665-2.027-3.244-2.414-3.733a.635.635,0,0,0-.153-.157c-.354-.163-1.291.166-2.42.768a21.606,21.606,0,0,0-3.224,2.132,16.915,16.915,0,0,0-3.136,3.207,3.151,3.151,0,0,0-.726,1.69l-.005,0,.346,5.287.018.015a.72.72,0,0,0,.067.309,8.769,8.769,0,0,0,2.037,1.493,22.124,22.124,0,0,0-.932,2.452l-.01,0h.005c-.041-.006-.078-.015-.119-.023-.142-.029-.285-.057-.423-.087-2.5-.542-4.759-1.162-5.014-1.077-.352.116-.758.837-1.128,1.864a20.782,20.782,0,0,0-1.014,4.468c-.066.584-.107,1.162-.124,1.721-.108,1.61.252,6.619.354,7.711.153,1.639.568,2.826,1.219,2.993h.007a8.093,8.093,0,0,0,2.328-.332c.75-.165,1.605-.369,2.478-.566.254-.057.508-.114.762-.168.126-.027.256-.045.382-.072.131.727.3,1.44.5,2.143-1.7,1.059-3.173,1.918-3.549,2.245a.5.5,0,0,0-.1.1.679.679,0,0,0-.053.286l-.015-.006s.35,5.844.365,6.021c.095,1.168,1.583,3.8,3.373,5.926,2.289,2.716,5.058,4.679,6.1,4.009l0,0v0a20.322,20.322,0,0,0,2.578-3.794c.252-.409.511-.825.773-1.236.073-.116.155-.228.231-.343a22.786,22.786,0,0,0,5.1,2.5,2.345,2.345,0,0,0-.048.3,1.767,1.767,0,0,0-.033.354l0,.029s.473,5.974.552,6.212c.282.853,3.734,1.726,6.944,1.823,3.522.107,6.8-.655,7.053-1.883.132-.655-.627-6.09-.677-6.443v-.019a22.715,22.715,0,0,0,6.176-2.831l0,.006v0c.077.127.166.255.255.383l.078.119c1.52,2.35,2.817,4.6,3.068,4.726.756.362,3.592-1.558,5.732-3.8,1.838-1.921,3.215-4.081,3.4-5.389.045-.329-.855-6.452-.855-6.452h0a.887.887,0,0,0-.113-.333l-.005,0v0a.419.419,0,0,0-.035-.044c-.014-.019-.028-.037-.046-.058s-.04-.041-.061-.062-.038-.038-.06-.058l-.085-.072-.07-.06c-.041-.033-.087-.067-.132-.1l-.049-.038c-.421-.313-1.038-.7-1.741-1.141a23.535,23.535,0,0,0,.611-2.465l.436.091c.032.008.07.015.1.024,2.348.514,4.493,1.108,4.918,1.1l0,0a.2.2,0,0,0,.07-.009c.7-.272,1.214-3.48,1.156-6.423M29.537,36.6c-.041-.059-.088-.116-.127-.176-.08-.121-.149-.248-.22-.374l-.007-.012.011-.027.019.039c.057-.167.12-.33.189-.491.028-.066.06-.13.091-.195.042-.091.083-.182.129-.271s.093-.168.141-.251c.035-.063.07-.126.108-.188.06-.1.126-.2.192-.292.025-.039.052-.078.079-.116.08-.113.166-.223.253-.331l.036-.046a6.844,6.844,0,0,1,4.708-2.46v-.017c.03,0,.06-.007.089-.009.212-.014.426-.022.643-.017s.414.022.617.045c.056.006.111.012.165.02.18.024.359.055.534.093l.174.041c.138.034.275.072.409.114.092.029.184.059.276.091.066.024.132.051.2.077a7.123,7.123,0,0,1,3.5,2.992l.007-.024.021.036c-.029.092-.065.181-.1.272s-.062.179-.1.266c-.008.02-.016.04-.025.06-.043.1-.094.2-.141.294s-.082.179-.128.265l-.012.022c-.056.1-.122.2-.182.3s-.1.175-.159.258c-.069.1-.145.195-.219.292-.059.078-.115.16-.178.236-.079.094-.165.181-.248.271-.066.07-.126.143-.194.21l-.018.017c-.084.083-.175.159-.262.237-.068.06-.131.122-.2.179l-.038.03c-.09.073-.185.138-.28.207-.076.054-.147.114-.225.165l-.012.008c-.1.07-.216.13-.325.194-.08.047-.159.1-.243.144-.114.061-.237.113-.356.168-.083.039-.165.082-.25.117-.122.05-.248.089-.372.132-.09.031-.177.067-.267.1-.13.038-.264.066-.4.1-.091.021-.181.049-.273.067-.142.027-.287.042-.43.06-.089.011-.173.029-.263.037-.159.014-.32.015-.483.019-.077,0-.153.009-.231.008-.176,0-.35-.017-.525-.032-.063-.006-.129-.005-.192-.012-.151-.017-.3-.047-.444-.073-.083-.015-.168-.024-.251-.042-.146-.032-.288-.075-.43-.116-.08-.023-.162-.04-.24-.065-.148-.048-.29-.107-.432-.164-.069-.028-.14-.05-.209-.08-.146-.064-.289-.14-.43-.214-.058-.03-.119-.056-.176-.088-.145-.081-.283-.172-.42-.262-.051-.033-.1-.062-.152-.1-.134-.093-.26-.195-.386-.3-.048-.039-.1-.073-.146-.113-.123-.1-.235-.215-.349-.325-.046-.045-.1-.087-.14-.133-.11-.111-.208-.23-.308-.348-.045-.052-.094-.1-.136-.154-.094-.117-.18-.242-.265-.366"/>
              </g>
            </g>
          </g>
          <path id="Path_5654" data-name="Path 5654" d="M29.819,8.832c-.139.517.466,2.616.928,4.693.024.109.04.22.064.329A22.582,22.582,0,0,0,24.44,16.14c-.1-.145-.2-.292-.29-.436-1.3-1.99-2.367-3.864-2.592-3.968-.678-.316-3.469,1.155-5.689,2.949-.488.394-.941.8-1.368,1.215l-2.885-1.519.345,5.287.019.014a.71.71,0,0,0,.067.31,14.185,14.185,0,0,0,2.892,2.027l1.1.868.055-.142.229.146c.1.065.2.138.3.2a22.639,22.639,0,0,0-3.1,6.313c-.183-.039-.372-.075-.552-.115-2.524-.555-4.807-1.19-5.064-1.1-.776.258-2.221-.55-2.561,2.421a76.913,76.913,0,0,0,.337,7.9c.154,1.645.572,2.836,1.227,2.995.613.149,3.126-.542,5.567-1.065.127-.027.256-.045.383-.072a23.121,23.121,0,0,0,2.459,6.968c-.044.029-5.678-2.2-5.678-2.2s.35,5.845.364,6.021c.1,1.169,1.584,3.8,3.373,5.927,2.289,2.716,5.059,4.678,6.1,4.009.572-.369,1.931-2.793,3.354-5.028.074-.116.157-.228.231-.344a22.8,22.8,0,0,0,5.106,2.506,5.857,5.857,0,0,0-.085.682s.474,5.974.553,6.212c.281.853,3.734,1.725,6.943,1.823,3.523.106,6.805-.655,7.053-1.884.136-.675-.677-6.44-.679-6.461a22.7,22.7,0,0,0,6.176-2.831c.111.169.228.341.337.509,1.52,2.35,2.817,4.606,3.068,4.726.756.363,3.593-1.557,5.732-3.8,1.837-1.92,3.216-4.08,3.4-5.388.046-.329-.855-6.453-.855-6.453s-2.894-.394-2.446-1.822a22.628,22.628,0,0,0,.654-2.619c.18.039.366.075.544.114,2.484.545,4.745,1.174,4.979,1.084.7-.272,1.214-3.481,1.156-6.423a44.292,44.292,0,0,0-.963-6.968s-3.71,1.022-5.874,1.484c-.113.024-.23.04-.343.064a23.163,23.163,0,0,0-2.856-6.266c.142-.093.287-.193.428-.284,1.952-1.263,3.8-2.311,3.89-2.527.269-.649-.8-5.717-.8-5.717s-7.283-3.349-8.125-2.861c-.466.27-1.5,2.142-2.625,3.9-.059.093-.126.182-.186.275a22.958,22.958,0,0,0-6.2-2.636c.033-.163.063-.33.1-.49a44.933,44.933,0,0,0,.908-4.424c-.08-.2-.623-5.128-.623-5.128s-10.289-1.541-12.115-.3c-.175.118.531,4.927.51,5.008M42.755,35.307a6.887,6.887,0,0,1-6.991,6.973,7.054,7.054,0,0,1-6.947-7.224,6.9,6.9,0,0,1,7.056-6.737,7.07,7.07,0,0,1,6.882,6.988" fill="#061f30"/>
          <path id="Path_5655" data-name="Path 5655" d="M29.819,7.588c-.139.517.466,2.616.928,4.693.024.109.04.22.064.329A22.582,22.582,0,0,0,24.44,14.9c-.1-.145-.2-.292-.29-.436-1.3-1.99-2.367-3.864-2.592-3.968-.678-.316-3.469,1.155-5.689,2.949-.488.394-.941.8-1.368,1.215l-2.885-1.519.345,5.287.019.014a.71.71,0,0,0,.067.31,14.185,14.185,0,0,0,2.892,2.027l1.1.868.055-.142.229.146c.1.065.2.138.3.2a22.639,22.639,0,0,0-3.1,6.313c-.183-.039-.372-.075-.552-.115-2.524-.555-4.807-1.19-5.064-1.1-.776.258-2.221-.55-2.561,2.421a76.913,76.913,0,0,0,.337,7.9c.154,1.645.572,2.836,1.227,2.995.613.149,3.126-.542,5.567-1.065.127-.027.256-.045.383-.072a23.121,23.121,0,0,0,2.459,6.968c-.044.029-5.678-2.2-5.678-2.2s.35,5.845.364,6.021c.1,1.169,1.584,3.8,3.373,5.927,2.289,2.716,5.059,4.678,6.1,4.009.572-.369,1.931-2.793,3.354-5.028.074-.116.157-.228.231-.344a22.8,22.8,0,0,0,5.106,2.506,5.857,5.857,0,0,0-.085.682s.474,5.974.553,6.212c.281.853,3.734,1.725,6.943,1.823,3.523.106,6.805-.655,7.053-1.884.136-.675-.677-6.44-.679-6.461a22.7,22.7,0,0,0,6.176-2.831c.111.169.228.341.337.509,1.52,2.35,2.817,4.606,3.068,4.726.756.363,3.593-1.557,5.732-3.795,1.837-1.92,3.216-4.08,3.4-5.388.046-.329-.855-6.453-.855-6.453S56.91,43.73,57.358,42.3a22.628,22.628,0,0,0,.654-2.619c.18.039.366.075.544.114,2.484.545,4.745,1.174,4.979,1.084.7-.273,1.214-3.481,1.156-6.423a44.292,44.292,0,0,0-.963-6.968s-3.71,1.022-5.874,1.484c-.113.024-.23.04-.343.064a23.163,23.163,0,0,0-2.856-6.266c.142-.093.287-.193.428-.284,1.952-1.263,3.8-2.311,3.89-2.527.269-.649-.8-5.717-.8-5.717s-7.283-3.349-8.125-2.861c-.466.27-1.5,2.142-2.625,3.9-.059.093-.126.182-.186.275a22.958,22.958,0,0,0-6.2-2.636c.033-.163.063-.33.1-.49a44.933,44.933,0,0,0,.908-4.424c-.08-.2-.623-5.128-.623-5.128s-10.289-1.541-12.115-.3c-.175.118.531,4.927.51,5.008M42.755,34.063a6.887,6.887,0,0,1-6.991,6.973,7.054,7.054,0,0,1-6.947-7.224,6.9,6.9,0,0,1,7.056-6.737,7.07,7.07,0,0,1,6.882,6.988" fill="#476b87"/>
          <g id="Group_8019" data-name="Group 8019" opacity="0.5" style="mix-blend-mode: multiply;isolation: isolate">
            <g id="Group_8018" data-name="Group 8018">
              <g id="Group_8017" data-name="Group 8017" clip-path="url(#clip-path-4)">
                <path id="Path_5656" data-name="Path 5656" d="M29.819,7.588c-.139.517.466,2.616.928,4.693.024.109.04.22.064.329A22.582,22.582,0,0,0,24.44,14.9c-.1-.145-.2-.292-.29-.436-1.3-1.99-2.367-3.864-2.592-3.968-.678-.316-3.469,1.155-5.689,2.949-.488.394-.941.8-1.368,1.215l-2.885-1.519.345,5.287.019.014a.71.71,0,0,0,.067.31,14.185,14.185,0,0,0,2.892,2.027l1.1.868.055-.142.229.146c.1.065.2.138.3.2a22.639,22.639,0,0,0-3.1,6.313c-.183-.039-.372-.075-.552-.115-2.524-.555-4.807-1.19-5.064-1.1-.776.258-2.221-.55-2.561,2.421a76.913,76.913,0,0,0,.337,7.9c.154,1.645.572,2.836,1.227,2.995.613.149,3.126-.542,5.567-1.065.127-.027.256-.045.383-.072a23.121,23.121,0,0,0,2.459,6.968c-.044.029-5.678-2.2-5.678-2.2s.35,5.845.364,6.021c.1,1.169,1.584,3.8,3.373,5.927,2.289,2.716,5.059,4.678,6.1,4.009.572-.369,1.931-2.793,3.354-5.028.074-.116.157-.228.231-.344a22.8,22.8,0,0,0,5.106,2.506,5.857,5.857,0,0,0-.085.682s.474,5.974.553,6.212c.281.853,3.734,1.725,6.943,1.823,3.523.106,6.805-.655,7.053-1.884.136-.675-.677-6.44-.679-6.461a22.7,22.7,0,0,0,6.176-2.831c.111.169.228.341.337.509,1.52,2.35,2.817,4.606,3.068,4.726.756.363,3.593-1.557,5.732-3.795,1.837-1.92,3.216-4.08,3.4-5.388.046-.329-.855-6.453-.855-6.453S56.91,43.73,57.358,42.3a22.628,22.628,0,0,0,.654-2.619c.18.039.366.075.544.114,2.484.545,4.745,1.174,4.979,1.084.7-.273,1.214-3.481,1.156-6.423a44.292,44.292,0,0,0-.963-6.968s-3.71,1.022-5.874,1.484c-.113.024-.23.04-.343.064a23.163,23.163,0,0,0-2.856-6.266c.142-.093.287-.193.428-.284,1.952-1.263,3.8-2.311,3.89-2.527.269-.649-.8-5.717-.8-5.717s-7.283-3.349-8.125-2.861c-.466.27-1.5,2.142-2.625,3.9-.059.093-.126.182-.186.275a22.958,22.958,0,0,0-6.2-2.636c.033-.163.063-.33.1-.49a44.933,44.933,0,0,0,.908-4.424c-.08-.2-.623-5.128-.623-5.128s-10.289-1.541-12.115-.3c-.175.118.531,4.927.51,5.008M42.755,34.063a6.887,6.887,0,0,1-6.991,6.973,7.054,7.054,0,0,1-6.947-7.224,6.9,6.9,0,0,1,7.056-6.737,7.07,7.07,0,0,1,6.882,6.988" fill="#e0ffff"/>
              </g>
            </g>
          </g>
          <g id="Group_8022" data-name="Group 8022" opacity="0.5" style="mix-blend-mode: multiply;isolation: isolate">
            <g id="Group_8021" data-name="Group 8021">
              <g id="Group_8020" data-name="Group 8020" clip-path="url(#clip-path-5)">
                <path id="Path_5657" data-name="Path 5657" d="M14.939,20.775A26.465,26.465,0,0,1,12.3,18.636c-.1-.28-.528-4.72-.267-4.822a36.912,36.912,0,0,1,6.125,4.041c.059.35-3.216,2.92-3.216,2.92" fill="#2e526e"/>
              </g>
            </g>
          </g>
          <g id="Group_8025" data-name="Group 8025" opacity="0.5" style="mix-blend-mode: multiply;isolation: isolate">
            <g id="Group_8024" data-name="Group 8024">
              <g id="Group_8023" data-name="Group 8023" clip-path="url(#clip-path-6)">
                <path id="Path_5658" data-name="Path 5658" d="M54.867,40.907a26.2,26.2,0,0,0,1.675-3.058A23.669,23.669,0,0,0,57.2,35s.7,4.186.633,4.565-1.07,3.735-1.07,3.735Z" fill="#a4c8e4"/>
              </g>
            </g>
          </g>
          <g id="Group_8028" data-name="Group 8028" opacity="0.5" style="mix-blend-mode: multiply;isolation: isolate">
            <g id="Group_8027" data-name="Group 8027">
              <g id="Group_8026" data-name="Group 8026" clip-path="url(#clip-path-7)">
                <path id="Path_5659" data-name="Path 5659" d="M41.126,52.239c-.024.809.48,4.46,1.127,4.3s5.376-2,5.345-2.624.065-4.983-.525-4.613-5.947,2.937-5.947,2.937" fill="#6185a1"/>
              </g>
            </g>
          </g>
          <g id="Group_8031" data-name="Group 8031" opacity="0.5" style="mix-blend-mode: multiply;isolation: isolate">
            <g id="Group_8030" data-name="Group 8030">
              <g id="Group_8029" data-name="Group 8029" clip-path="url(#clip-path-8)">
                <path id="Path_5660" data-name="Path 5660" d="M55.942,13.26c1.275.54,2.238.979,2.238.979s1.067,5.079.788,5.715a30.464,30.464,0,0,1-3.3,2.159l-2.622.585-.874-8.289s1.761-.546,3.767-1.149" fill="#2e526e"/>
              </g>
            </g>
          </g>
          <g id="Group_8034" data-name="Group 8034" opacity="0.5" style="mix-blend-mode: multiply;isolation: isolate">
            <g id="Group_8033" data-name="Group 8033">
              <g id="Group_8032" data-name="Group 8032" clip-path="url(#clip-path-9)">
                <path id="Path_5661" data-name="Path 5661" d="M47.381,48.492l3.375,5.125a24.063,24.063,0,0,0,.718,6.1c-.357-.361-1.6-2.485-3.009-4.679-.118-.169-.238-.337-.339-.5Z" fill="#476b87"/>
              </g>
            </g>
          </g>
          <g id="Group_8037" data-name="Group 8037" opacity="0.5" style="mix-blend-mode: multiply;isolation: isolate">
            <g id="Group_8036" data-name="Group 8036">
              <g id="Group_8035" data-name="Group 8035" clip-path="url(#clip-path-10)">
                <path id="Path_5662" data-name="Path 5662" d="M57.2,33.939,62.584,35.1a9.434,9.434,0,0,0,.884,5.79c-.425.012-2.57-.581-4.918-1.1a5.315,5.315,0,0,0-.541-.116Z" fill="#476b87"/>
              </g>
            </g>
          </g>
          <g id="Group_8042" data-name="Group 8042" opacity="0.5" style="mix-blend-mode: multiply;isolation: isolate">
            <g id="Group_8041" data-name="Group 8041">
              <g id="Group_8040" data-name="Group 8040" clip-path="url(#clip-path-11)">
                <g id="Group_8039" data-name="Group 8039">
                  <g id="Group_8038" data-name="Group 8038" clip-path="url(#clip-path-12)">
                    <rect id="Rectangle_3190" data-name="Rectangle 3190" width="3.997" height="11.373" transform="translate(19.017 48.478)" fill="url(#linear-gradient)"/>
                  </g>
                </g>
              </g>
            </g>
          </g>
          <g id="Group_8045" data-name="Group 8045" opacity="0.5" style="mix-blend-mode: multiply;isolation: isolate">
            <g id="Group_8044" data-name="Group 8044">
              <g id="Group_8043" data-name="Group 8043" clip-path="url(#clip-path-13)">
                <path id="Path_5664" data-name="Path 5664" d="M12.481,33.445c-.042,2.489-.023,4.7.376,5.677-.129.03-.257.045-.386.075-2.435.528-4.96,1.213-5.574,1.066a10.073,10.073,0,0,1-.3-5.692Z" fill="#2e526e"/>
              </g>
            </g>
          </g>
          <path id="Path_5665" data-name="Path 5665" d="M29.345,1.26a1.909,1.909,0,0,0-.281,1.354A3.66,3.66,0,0,0,29.7,3.877a7.666,7.666,0,0,1,.532,1.967c.024.106.039.215.062.322a22.54,22.54,0,0,0-6.311,2.252c-.095-.143-.2-.287-.288-.428C22.411,6.039,21.35,4.2,21.127,4.1,20.455,3.789,17.69,5.237,15.49,7c-1.58,1.266-4.606,3.7-3.874,6.111a.945.945,0,0,0,.833.713,2.543,2.543,0,0,0,.678-.19c.8-.241,2.169,1.012,2.806,1.419.1.064.2.135.294.2a22.2,22.2,0,0,0-3.076,6.2c-.18-.038-.368-.073-.546-.112-2.5-.542-4.76-1.162-5.015-1.077-.768.254-1.8,3.375-2.135,6.331C5.076,29.9,5.5,33.06,6.6,33.324c.607.145,3.1-.536,5.513-1.052.126-.027.254-.045.379-.071a22.485,22.485,0,0,0,2.431,6.829c-.168.109-.34.224-.507.33-1.2.768-2.436,1.494-3.644,2.256-.9.569-1.723,1.131-1.188,2.372a2.763,2.763,0,0,0,.463.666,19.25,19.25,0,0,1,1.4,1.891c.356.531.966,1.753,1.543,2.042,2.264,2.658,5,4.578,6.032,3.92.566-.362,1.913-2.739,3.323-4.931.074-.114.156-.224.23-.337a22.813,22.813,0,0,0,6.829,2.971c-.042.2-.081.407-.123.6-.3,1.394-.642,2.778-.953,4.17-.186.832-.791,2.277-.019,2.949a1.419,1.419,0,0,0,.559.27,7.751,7.751,0,0,0,3.194-.084,16.271,16.271,0,0,1,2.891.1c1.8.052,3.554-.269,5.349-.2a3.939,3.939,0,0,0,1.2-.078.74.74,0,0,0,.439-.273.913.913,0,0,0,.077-.586,50.47,50.47,0,0,0-1.257-6.5c-.029-.13-.049-.264-.078-.394a22.485,22.485,0,0,0,6.7-2.94c.11.166.226.335.333.5,1.5,2.3,2.782,4.51,3.03,4.628.748.354,3.558-1.531,5.678-3.726a6.471,6.471,0,0,0,1.713-2.032,5.873,5.873,0,0,1,1.216-1.541A1.677,1.677,0,0,0,59.7,44.7a1.38,1.38,0,0,0,.155-.569,2.2,2.2,0,0,0-1.238-2.456c-1.138-.766-2.332-1.448-3.487-2.186-.106-.067-.209-.144-.315-.212a22.2,22.2,0,0,0,2.383-6.587c.178.037.362.072.538.11,2.459.532,4.7,1.146,4.928,1.057.695-.268,1.239-3.414,1.153-6.3-.092-3.133-.877-6.042-1.893-6.289-.561-.137-2.725.464-4.868.92-.112.023-.228.039-.34.062a22.544,22.544,0,0,0-2.82-6.143c.141-.091.285-.189.424-.279.722-.463,1.3-1.07,2.2-1.06a3.8,3.8,0,0,0,1.23-.075A.632.632,0,0,0,58,14.55a.76.76,0,0,0,.168-.458c.265-2.263-1.93-4.426-3.394-5.9C52.64,6.028,50.183,4.46,49.349,4.939c-.462.266-1.489,2.1-2.6,3.834-.059.091-.125.179-.184.27a22.819,22.819,0,0,0-6.135-2.58c.033-.159.062-.324.1-.48.142-.672.213-1.41.4-2.064.208-.716.718-1.319.476-2.118-.157-.516-.575-.647-1.075-.834a17.245,17.245,0,0,0-4.855-.9A13.3,13.3,0,0,0,30.383.47a2.017,2.017,0,0,0-1.038.79M42.1,27.2a6.806,6.806,0,0,1-6.928,6.847A6.93,6.93,0,0,1,28.3,26.97a6.817,6.817,0,0,1,6.993-6.616A6.946,6.946,0,0,1,42.1,27.2" fill="#fff"/>
          <path id="Path_5666" data-name="Path 5666" d="M29.312,2.482c-.138.508.46,2.568.916,4.606.024.106.039.215.062.322a22.54,22.54,0,0,0-6.311,2.252c-.095-.143-.2-.287-.288-.428-1.28-1.951-2.341-3.789-2.564-3.892-.672-.309-3.437,1.139-5.637,2.9-2.457,1.968-4.306,4.339-3.789,5.213.286.484,2.328,1.624,4.232,2.84.1.064.2.135.294.2a22.2,22.2,0,0,0-3.076,6.2c-.18-.038-.368-.073-.546-.112-2.5-.541-4.76-1.162-5.015-1.077-.768.254-1.8,3.375-2.135,6.331C5.076,31.143,5.5,34.3,6.6,34.568c.607.145,3.1-.536,5.513-1.052.126-.027.254-.045.379-.071a22.485,22.485,0,0,0,2.431,6.829c-.168.109-.34.224-.507.33-2.335,1.488-4.569,2.751-4.7,3.007-.4.771,1.243,3.828,3.28,6.22,2.264,2.658,5,4.578,6.032,3.92.566-.362,1.913-2.739,3.323-4.931.074-.114.156-.224.23-.337a22.813,22.813,0,0,0,6.829,2.971c-.042.2-.081.407-.123.6-.6,2.787-1.29,5.351-1.2,5.628.278.835,3.694,1.685,6.87,1.776,3.485.1,6.734-.65,6.981-1.854.135-.662-.6-3.257-1.17-5.779-.029-.13-.049-.264-.078-.394a22.485,22.485,0,0,0,6.7-2.94c.11.166.226.335.333.5,1.5,2.3,2.782,4.51,3.03,4.628.748.354,3.558-1.531,5.678-3.726,2.305-2.386,3.883-5.145,3.254-6.113-.345-.533-2.521-1.751-4.554-3.049-.106-.067-.209-.144-.315-.212a22.2,22.2,0,0,0,2.383-6.587c.178.037.362.072.538.11,2.459.532,4.7,1.146,4.928,1.057.695-.268,1.239-3.414,1.153-6.3-.092-3.133-.877-6.042-1.893-6.289-.561-.137-2.725.464-4.868.92-.112.023-.228.039-.34.062a22.543,22.543,0,0,0-2.82-6.143c.141-.091.285-.189.424-.279,1.935-1.241,3.767-2.272,3.856-2.484.268-.637-1.442-3.185-3.4-5.159C52.64,7.272,50.183,5.7,49.349,6.184c-.462.265-1.489,2.1-2.6,3.833-.059.091-.125.179-.184.27a22.819,22.819,0,0,0-6.135-2.58c.033-.159.062-.324.1-.48a43.939,43.939,0,0,0,.9-4.344c-.26-.641-3.209-1.4-5.955-1.575-3.036-.2-5.909.259-6.158,1.174M42.1,28.443a6.806,6.806,0,0,1-6.928,6.847A6.93,6.93,0,0,1,28.3,28.214,6.817,6.817,0,0,1,35.29,21.6,6.946,6.946,0,0,1,42.1,28.443" fill="#8aaeca"/>
          <g id="Group_8050" data-name="Group 8050" opacity="0.5" style="mix-blend-mode: multiply;isolation: isolate">
            <g id="Group_8049" data-name="Group 8049">
              <g id="Group_8048" data-name="Group 8048" clip-path="url(#clip-path-14)">
                <g id="Group_8047" data-name="Group 8047">
                  <g id="Group_8046" data-name="Group 8046" clip-path="url(#clip-path-15)">
                    <rect id="Rectangle_3193" data-name="Rectangle 3193" width="13.833" height="9.681" transform="translate(27.815 49.813) rotate(-2.603)" fill="url(#linear-gradient-2)"/>
                  </g>
                </g>
              </g>
            </g>
          </g>
          <g id="Group_8055" data-name="Group 8055" opacity="0.5" style="mix-blend-mode: multiply;isolation: isolate">
            <g id="Group_8054" data-name="Group 8054">
              <g id="Group_8053" data-name="Group 8053" clip-path="url(#clip-path-16)">
                <g id="Group_8052" data-name="Group 8052">
                  <g id="Group_8051" data-name="Group 8051" clip-path="url(#clip-path-17)">
                    <rect id="Rectangle_3195" data-name="Rectangle 3195" width="19.907" height="19.839" transform="translate(2.912 44.127) rotate(-35.934)" fill="url(#linear-gradient-3)"/>
                  </g>
                </g>
              </g>
            </g>
          </g>
          <g id="Group_8060" data-name="Group 8060" opacity="0.5" style="mix-blend-mode: multiply;isolation: isolate">
            <g id="Group_8059" data-name="Group 8059">
              <g id="Group_8058" data-name="Group 8058" clip-path="url(#clip-path-18)">
                <g id="Group_8057" data-name="Group 8057">
                  <g id="Group_8056" data-name="Group 8056" clip-path="url(#clip-path-19)">
                    <rect id="Rectangle_3197" data-name="Rectangle 3197" width="18.289" height="18.266" transform="matrix(0.737, -0.676, 0.676, 0.737, 5.327, 10.345)" fill="url(#linear-gradient-4)"/>
                  </g>
                </g>
              </g>
            </g>
          </g>
          <g id="Group_8065" data-name="Group 8065" opacity="0.5" style="mix-blend-mode: multiply;isolation: isolate">
            <g id="Group_8064" data-name="Group 8064">
              <g id="Group_8063" data-name="Group 8063" clip-path="url(#clip-path-20)">
                <g id="Group_8062" data-name="Group 8062">
                  <g id="Group_8061" data-name="Group 8061" clip-path="url(#clip-path-21)">
                    <rect id="Rectangle_3199" data-name="Rectangle 3199" width="9.078" height="12.271" transform="translate(28.851 10.457) rotate(-87.683)" fill="url(#linear-gradient-5)"/>
                  </g>
                </g>
              </g>
            </g>
          </g>
          <g id="Group_8070" data-name="Group 8070" opacity="0.5" style="mix-blend-mode: multiply;isolation: isolate">
            <g id="Group_8069" data-name="Group 8069">
              <g id="Group_8068" data-name="Group 8068" clip-path="url(#clip-path-22)">
                <g id="Group_8067" data-name="Group 8067">
                  <g id="Group_8066" data-name="Group 8066" clip-path="url(#clip-path-23)">
                    <rect id="Rectangle_3201" data-name="Rectangle 3201" width="12.824" height="10.357" transform="translate(5.03 34.442) rotate(-87.337)" fill="url(#linear-gradient-6)"/>
                  </g>
                </g>
              </g>
            </g>
          </g>
          <g id="Group_8073" data-name="Group 8073" opacity="0.5" style="mix-blend-mode: screen;isolation: isolate">
            <g id="Group_8072" data-name="Group 8072">
              <g id="Group_8071" data-name="Group 8071" clip-path="url(#clip-path-24)">
                <path id="Path_5672" data-name="Path 5672" d="M29.34,56.984c.606,1.228,11.289,1.8,11.08-.385-.136-1.415-5.42-4.056-6.714-7.083-.684-1.6,2.657-4.639,2.011-4.722-5.558-.716-15.827-3.857-14.907-16.019,1.17-15.462,16-10.54,16.6-11.234.356-.416-4.81-2.548-3.774-6.4,1.022-3.806,3.532-1.989,5.3-3.89C40.38,5.7,40.391,3.3,40.089,3.139c-.67-.352-9.157-1.669-9.281-.092s.293,5.009-.144,5.142a23.058,23.058,0,0,0-3.777.89,25.222,25.222,0,0,1-3.161,1.027s-2.541-4.377-3.8-3.891a17.526,17.526,0,0,0-4.483,3.066c-.857.895-3.236,3.324-2.832,3.914s4.117,3.025,4.109,3.209-1.21,2.069-1.7,3.133-1.593,3.684-1.593,3.684-5.3-1.62-5.822-1.062S6.08,26.392,5.892,27.866s.108,5.589.495,5.787,6.653-1.311,6.6-1.166.8,3.278,1.056,4.165a27.1,27.1,0,0,0,1.913,3.537s-5.366,3.056-4.93,4.474A19.318,19.318,0,0,0,13.6,49.538c.638.677,4.472,4.149,5.117,3.53s2.368-4.166,3.624-4.82c.628-.326,2.015.685,3.724,1.483s3.3.5,3.75,1.389-1.08,4.642-.476,5.864" fill="#8aaeca"/>
              </g>
            </g>
          </g>
          <g id="Group_8076" data-name="Group 8076" opacity="0.5" style="mix-blend-mode: multiply;isolation: isolate">
            <g id="Group_8075" data-name="Group 8075">
              <g id="Group_8074" data-name="Group 8074" clip-path="url(#clip-path-25)">
                <path id="Path_5673" data-name="Path 5673" d="M28.3,28.214a6.793,6.793,0,0,0,.916,3.546,6.867,6.867,0,0,1,6.66-4.684,7.029,7.029,0,0,1,5.872,3.473,6.659,6.659,0,0,0,.352-2.106A6.946,6.946,0,0,0,35.29,21.6,6.816,6.816,0,0,0,28.3,28.214" fill="#6185a1"/>
              </g>
            </g>
          </g>
          <g id="Group_8079" data-name="Group 8079" opacity="0.5" style="mix-blend-mode: multiply;isolation: isolate">
            <g id="Group_8078" data-name="Group 8078">
              <g id="Group_8077" data-name="Group 8077" clip-path="url(#clip-path-26)">
                <path id="Path_5674" data-name="Path 5674" d="M28.3,28.214a6.793,6.793,0,0,0,.916,3.546,6.862,6.862,0,0,1,5.927-4.641,8.4,8.4,0,0,1,2.155-5.149,6.775,6.775,0,0,0-9,6.244" fill="#6185a1"/>
              </g>
            </g>
          </g>
          <path id="Path_5675" data-name="Path 5675" d="M27.157,28.48c-.383-6.359,4.6-8.388,8.348-8.31a8.231,8.231,0,0,1,7.949,9.157c-.665,5.911-4.557,7.915-8.42,7.868-3.8-.047-7.486-2.211-7.877-8.715m-5.329,1.575A13.339,13.339,0,0,0,44.44,39.779a12.754,12.754,0,0,0,3.921-9.387v-.08a13.35,13.35,0,0,0-22.281-9.376A12.763,12.763,0,0,0,21.83,30v.05Z" fill="#476b87"/>
          <g id="Group_8082" data-name="Group 8082" opacity="0.3">
            <g id="Group_8081" data-name="Group 8081">
              <g id="Group_8080" data-name="Group 8080" clip-path="url(#clip-path-27)">
                <path id="Path_5676" data-name="Path 5676" d="M28.743,42.032a15.7,15.7,0,0,0,9.048,2.078c5.965-.343,13.492-5.363,13.778-15.252.276-9.566-14.22-13.137-14.222-12.928s9.055,6.68,7.359,12.154c-1.729,5.576-2.642,8.853-6.03,8.9a46.713,46.713,0,0,1-7.821-.813l-1.536,4.122c5.123,2.68,3.746,2.8-.576,1.74" fill="#000521"/>
              </g>
            </g>
          </g>
          <path id="Path_5677" data-name="Path 5677" d="M28.3,28.24v-.026A6.819,6.819,0,0,1,35.289,21.6,6.947,6.947,0,0,1,42.1,28.443v.042a6.806,6.806,0,0,1-6.929,6.8A6.93,6.93,0,0,1,28.3,28.24M22,28.2A13.1,13.1,0,0,0,35.08,41.581a13.265,13.265,0,0,0,9.464-3.728,12.646,12.646,0,0,0,3.908-9.328v-.079a13.317,13.317,0,0,0-22.214-9.308A12.673,12.673,0,0,0,22,28.152V28.2Z" fill="#8aaeca"/>
          <g id="Group_8085" data-name="Group 8085" opacity="0.21" style="mix-blend-mode: screen;isolation: isolate">
            <g id="Group_8084" data-name="Group 8084">
              <g id="Group_8083" data-name="Group 8083" clip-path="url(#clip-path-28)">
                <path id="Path_5678" data-name="Path 5678" d="M31.652,40.616c4.521,1.462,17.008-.468,16.171-12.561C47.1,17.651,36.879,16.214,34.9,16.393s-3.786,4.832-.946,4.591,9.286,1.372,9.005,7.332c-.286,6.085-5.511,8.132-8.989,7.9s-5.688,3.306-2.318,4.4" fill="#8aaeca"/>
              </g>
            </g>
          </g>
          <g id="Group_8088" data-name="Group 8088" opacity="0.5" style="mix-blend-mode: soft-light;isolation: isolate">
            <g id="Group_8087" data-name="Group 8087">
              <g id="Group_8086" data-name="Group 8086" clip-path="url(#clip-path-29)">
                <path id="Path_5679" data-name="Path 5679" d="M35.854,59.03a16.105,16.105,0,0,0,5.953-1.166v.05c-.683,1.019-3.672,1.636-6.857,1.542-3.179-.077-6.586-.931-6.867-1.774,0,0,0-.036.04-.4s1.237-5.852,1.282-5.827-.942,5.531-.648,6.07,3.691,1.57,7.1,1.506" fill="#e0ffff"/>
              </g>
            </g>
          </g>
          <g id="Group_8091" data-name="Group 8091" opacity="0.5" style="mix-blend-mode: soft-light;isolation: isolate">
            <g id="Group_8090" data-name="Group 8090">
              <g id="Group_8089" data-name="Group 8089" clip-path="url(#clip-path-30)">
                <path id="Path_5680" data-name="Path 5680" d="M32.569,15.974c-.983.55-9.029,5.243-9.831,12.455-.808,7.411,8.2,12.181,9.309,12.746A12.991,12.991,0,0,1,22.006,28.2l0-.045a12.7,12.7,0,0,1,4.229-9.016,13.153,13.153,0,0,1,6.332-3.162" fill="#e0ffff"/>
              </g>
            </g>
          </g>
          <g id="Group_8094" data-name="Group 8094" opacity="0.5" style="mix-blend-mode: soft-light;isolation: isolate">
            <g id="Group_8093" data-name="Group 8093">
              <g id="Group_8092" data-name="Group 8092" clip-path="url(#clip-path-31)">
                <path id="Path_5681" data-name="Path 5681" d="M14.8,40.351a6.529,6.529,0,0,0-2.144,7.435c1.472,4.02,5.575,5.154,6.875,5.417a2.674,2.674,0,0,1-.512.555c-1.024.648-3.762-1.265-6.021-3.925-2.04-2.389-3.686-5.457-3.292-6.218.142-.254,2.371-1.519,4.715-3.015.131-.078.248-.171.379-.249" fill="#e0ffff"/>
              </g>
            </g>
          </g>
          <g id="Group_8097" data-name="Group 8097" style="mix-blend-mode: screen;isolation: isolate">
            <g id="Group_8096" data-name="Group 8096">
              <g id="Group_8095" data-name="Group 8095" clip-path="url(#clip-path-32)">
                <path id="Path_5682" data-name="Path 5682" d="M12.61,22.585c.169.03.353.076.537.106,0,0-3.4-.165-5.365-.13S6.024,32.016,6.448,33.338c.332,1.049,3.945.507,5.428.225-2.348.506-4.689,1.151-5.28,1.008-1.1-.271-1.523-3.432-1.147-6.735.337-2.952,1.377-6.078,2.147-6.325.252-.088,2.5.529,5.014,1.074" fill="#e0ffff"/>
              </g>
            </g>
          </g>
          <g id="Group_8100" data-name="Group 8100" style="mix-blend-mode: screen;isolation: isolate">
            <g id="Group_8099" data-name="Group 8099">
              <g id="Group_8098" data-name="Group 8098" clip-path="url(#clip-path-33)">
                <path id="Path_5683" data-name="Path 5683" d="M21.128,5.345c.223.1,1.278,1.936,2.566,3.886.087.128.174.27.262.4A36.652,36.652,0,0,1,20.6,6.24c-1.109-1.385-7.869,5.356-8.1,5.94S16.225,16.5,16.225,16.5a.048.048,0,0,1-.03-.014c-.089-.073-.179-.117-.268-.19-1.9-1.207-3.941-2.352-4.221-2.841-.517-.875,1.32-3.235,3.777-5.21,2.207-1.768,4.978-3.2,5.645-2.9" fill="#e0ffff"/>
              </g>
            </g>
          </g>
          <g id="Group_8105" data-name="Group 8105" style="mix-blend-mode: screen;isolation: isolate">
            <g id="Group_8104" data-name="Group 8104">
              <g id="Group_8103" data-name="Group 8103" clip-path="url(#clip-path-34)">
                <g id="Group_8102" data-name="Group 8102">
                  <g id="Group_8101" data-name="Group 8101" clip-path="url(#clip-path-35)">
                    <rect id="Rectangle_3213" data-name="Rectangle 3213" width="7.066" height="12.694" transform="matrix(0.063, -0.998, 0.998, 0.063, 28.775, 7.38)" fill="url(#linear-gradient-7)"/>
                  </g>
                </g>
              </g>
            </g>
          </g>
          <g id="Group_8110" data-name="Group 8110" style="mix-blend-mode: screen;isolation: isolate">
            <g id="Group_8109" data-name="Group 8109">
              <g id="Group_8108" data-name="Group 8108" clip-path="url(#clip-path-36)">
                <g id="Group_8107" data-name="Group 8107">
                  <g id="Group_8106" data-name="Group 8106" clip-path="url(#clip-path-37)">
                    <rect id="Rectangle_3215" data-name="Rectangle 3215" width="17.007" height="17.37" transform="translate(42.559 44.847) rotate(-33.226)" fill="url(#linear-gradient-8)"/>
                  </g>
                </g>
              </g>
            </g>
          </g>
          <g id="Group_8115" data-name="Group 8115" style="mix-blend-mode: screen;isolation: isolate">
            <g id="Group_8114" data-name="Group 8114">
              <g id="Group_8113" data-name="Group 8113" clip-path="url(#clip-path-38)">
                <g id="Group_8112" data-name="Group 8112">
                  <g id="Group_8111" data-name="Group 8111" clip-path="url(#clip-path-39)">
                    <rect id="Rectangle_3217" data-name="Rectangle 3217" width="6.868" height="12.904" transform="matrix(1, -0.013, 0.013, 1, 57.039, 22.382)" fill="url(#linear-gradient-9)"/>
                  </g>
                </g>
              </g>
            </g>
          </g>
          <g id="Group_8120" data-name="Group 8120" style="mix-blend-mode: screen;isolation: isolate">
            <g id="Group_8119" data-name="Group 8119">
              <g id="Group_8118" data-name="Group 8118" clip-path="url(#clip-path-40)">
                <g id="Group_8117" data-name="Group 8117">
                  <g id="Group_8116" data-name="Group 8116" clip-path="url(#clip-path-41)">
                    <rect id="Rectangle_3219" data-name="Rectangle 3219" width="16.449" height="16.424" transform="matrix(0.779, -0.626, 0.626, 0.779, 40.995, 10.268)" fill="url(#linear-gradient-10)"/>
                  </g>
                </g>
              </g>
            </g>
          </g>
          <g id="Group_8123" data-name="Group 8123" opacity="0.5" style="mix-blend-mode: multiply;isolation: isolate">
            <g id="Group_8122" data-name="Group 8122">
              <g id="Group_8121" data-name="Group 8121" clip-path="url(#clip-path-42)">
                <path id="Path_5688" data-name="Path 5688" d="M51.584,54.373c-.24.494-.231,4.771.422,4.756s5.033-3.192,6.129-4.578,2.354-3.28,2.331-3.994-.7-4.891-.9-4.449a53.157,53.157,0,0,1-4.324,6.08c-.614.423-3.514,1.9-3.653,2.185" fill="#7195b1"/>
              </g>
            </g>
          </g>
        </g>
      </g>
      <g id="Group_8127" data-name="Group 8127">
        <g id="Group_8126" data-name="Group 8126" clip-path="url(#clip-path-43)">
          <rect id="Rectangle_3223" data-name="Rectangle 3223" width="0.45" height="0.088" transform="matrix(0.995, -0.101, 0.101, 0.995, 35.459, 35.267)" fill="url(#linear-gradient-11)"/>
        </g>
      </g>
      <g id="Group_8148" data-name="Group 8148">
        <g id="Group_8147" data-name="Group 8147" clip-path="url(#clip-path)">
          <g id="Group_8130" data-name="Group 8130" opacity="0.5" style="mix-blend-mode: soft-light;isolation: isolate">
            <g id="Group_8129" data-name="Group 8129">
              <g id="Group_8128" data-name="Group 8128" clip-path="url(#clip-path-45)">
                <path id="Path_5690" data-name="Path 5690" d="M35.983,21.646c2.111.055,6.967.889,7.808,6,.907,5.48-4.771,7.059-7.1,7.507A6.812,6.812,0,0,0,42.1,28.492v-.046a6.942,6.942,0,0,0-6.118-6.8" fill="#e0ffff"/>
              </g>
            </g>
          </g>
          <g id="Group_8133" data-name="Group 8133" opacity="0.5" style="mix-blend-mode: multiply;isolation: isolate">
            <g id="Group_8132" data-name="Group 8132">
              <g id="Group_8131" data-name="Group 8131" clip-path="url(#clip-path-46)">
                <path id="Path_5691" data-name="Path 5691" d="M28.86,59.349c-.471-.006-.341,4.256.382,4.677a27.1,27.1,0,0,0,6.4,1.294c1.763.1,6.253-.508,6.325-1.481s-.336-4.979-.773-4.764a19.85,19.85,0,0,1-7.833.7,18.054,18.054,0,0,0-4.5-.43" fill="#7195b1"/>
              </g>
            </g>
          </g>
          <g id="Group_8138" data-name="Group 8138" opacity="0.5" style="mix-blend-mode: multiply;isolation: isolate">
            <g id="Group_8137" data-name="Group 8137">
              <g id="Group_8136" data-name="Group 8136" clip-path="url(#clip-path-47)">
                <g id="Group_8135" data-name="Group 8135">
                  <g id="Group_8134" data-name="Group 8134" clip-path="url(#clip-path-48)">
                    <rect id="Rectangle_3226" data-name="Rectangle 3226" width="10.616" height="11.284" transform="matrix(0.772, -0.636, 0.636, 0.772, 4.852, 50.083)" fill="url(#linear-gradient-12)"/>
                  </g>
                </g>
              </g>
            </g>
          </g>
          <g id="Group_8141" data-name="Group 8141" opacity="0.5" style="mix-blend-mode: multiply;isolation: isolate">
            <g id="Group_8140" data-name="Group 8140">
              <g id="Group_8139" data-name="Group 8139" clip-path="url(#clip-path-49)">
                <path id="Path_5693" data-name="Path 5693" d="M21,57.055a21.812,21.812,0,0,0,1.824-2.842c.065-.421-.154-5.237-.425-4.877a29.859,29.859,0,0,0-2.115,4.055A22.962,22.962,0,0,0,21,57.055" fill="#2e526e"/>
              </g>
            </g>
          </g>
          <g id="Group_8146" data-name="Group 8146" opacity="0.5" style="mix-blend-mode: screen;isolation: isolate">
            <g id="Group_8145" data-name="Group 8145">
              <g id="Group_8144" data-name="Group 8144" clip-path="url(#clip-path-50)">
                <g id="Group_8143" data-name="Group 8143">
                  <g id="Group_8142" data-name="Group 8142" clip-path="url(#clip-path-51)">
                    <rect id="Rectangle_3229" data-name="Rectangle 3229" width="6.139" height="1.509" transform="translate(62.459 40.697) rotate(-87.912)" fill="url(#linear-gradient-13)"/>
                  </g>
                </g>
              </g>
            </g>
          </g>
          <path id="Path_5695" data-name="Path 5695" d="M23.023,32.329c1.28,2.968,3.419,2.836,3.419,2.836s-2.583-10.527-3.138-7.07c-.561,3.5-.281,4.234-.281,4.234" fill="#e0ffff"/>
          <path id="Path_5696" data-name="Path 5696" d="M49.816,9.621c-1.029.966,3.9,2.895,3.276,1.378s-2.26-2.331-3.276-1.378" fill="#e0ffff"/>
          <path id="Path_5697" data-name="Path 5697" d="M39.791,22.4c-.639.02,2.348,3.73,1.946,2.2s-.915-2.237-1.946-2.2" fill="#e0ffff"/>
          <path id="Path_5698" data-name="Path 5698" d="M14.19,34.673c.787,2.784,3.478,6.722,3.813,6.019s-2.474-7.6-3.546-9.647c-.536-1.021-1.046.872-.267,3.628" fill="#e0ffff"/>
        </g>
      </g>
    </g>
  </g>
</svg>
