<svg id="explanations" xmlns="http://www.w3.org/2000/svg" xmlns:xlink="http://www.w3.org/1999/xlink" width="70" height="70.094" viewBox="0 0 70 70.094">
  <defs>
    <clipPath id="clip-path">
      <rect id="Rectangle_4724" data-name="Rectangle 4724" width="70" height="70.094" fill="none"/>
    </clipPath>
    <clipPath id="clip-path-2">
      <rect id="Rectangle_4718" data-name="Rectangle 4718" width="70" height="70.094" transform="translate(0 0)" fill="none"/>
    </clipPath>
    <clipPath id="clip-path-3">
      <rect id="Rectangle_4717" data-name="Rectangle 4717" width="65.58" height="57.754" transform="translate(3.215 6.151)" fill="none"/>
    </clipPath>
    <clipPath id="clip-path-4">
      <rect id="Rectangle_4719" data-name="Rectangle 4719" width="32.013" height="31.888" transform="translate(0.305 2.751)" fill="none"/>
    </clipPath>
    <clipPath id="clip-path-5">
      <rect id="Rectangle_4720" data-name="Rectangle 4720" width="28.293" height="28.126" transform="translate(3.654 3.582)" fill="none"/>
    </clipPath>
    <clipPath id="clip-path-6">
      <rect id="Rectangle_4721" data-name="Rectangle 4721" width="26.264" height="27.624" transform="translate(7.108 2.066)" fill="none"/>
    </clipPath>
    <clipPath id="clip-path-7">
      <rect id="Rectangle_4722" data-name="Rectangle 4722" width="2.105" height="1.395" transform="translate(31.82 30.924)" fill="none"/>
    </clipPath>
  </defs>
  <g id="Group_12588" data-name="Group 12588" clip-path="url(#clip-path)">
    <g id="Group_12573" data-name="Group 12573">
      <g id="Group_12572" data-name="Group 12572" clip-path="url(#clip-path-2)">
        <g id="Group_12571" data-name="Group 12571" opacity="0.3">
          <g id="Group_12570" data-name="Group 12570">
            <g id="Group_12569" data-name="Group 12569" clip-path="url(#clip-path-3)">
              <path id="Path_10244" data-name="Path 10244" d="M68.644,27.874C67.29,16.794,57.15,8.552,44.335,6.909c.055.005.112.008.17.016l-3.462-.462c-.721-.095-1.454-.165-2.191-.218l-.29-.023c-.706-.045-1.414-.071-2.131-.071H35.6c-.406.005-.822.032-1.234.052-.256.011-.511.014-.768.032-.784.052-1.573.124-2.368.226-.6.076-1.183.168-1.768.267-.187.034-.37.071-.557.108-.4.071-.792.154-1.185.241-.089.019-.182.034-.273.055s-.2.055-.3.079c-.5.118-1,.249-1.493.386-.141.039-.278.076-.417.116-.608.178-1.209.372-1.8.576l-.407.15q-.7.255-1.39.535c-.165.071-.331.136-.493.2-.549.233-1.089.474-1.622.731l-.058.027-.015.007-.081.043c-.37.181-.737.37-1.1.564-.118.063-.236.128-.353.192q-.423.235-.842.48c-.11.063-.22.128-.328.194-.372.223-.74.451-1.1.684l-.071.048q-.5.33-.991.682c-.105.07-.212.149-.313.225-.254.186-.5.375-.749.564l-.294.229c-.328.262-.653.527-.968.8l-.047.043c-.3.259-.59.524-.879.792-.089.086-.178.17-.267.257-.22.211-.436.423-.648.64-.084.087-.17.171-.251.258-.282.294-.558.593-.826.894l-.034.042c-.256.291-.5.585-.743.884-.076.1-.147.189-.223.282q-.271.351-.535.706c-.071.094-.141.188-.207.282-.228.323-.454.648-.666.978l-.021.029q-.31.48-.593.973c-.06.1-.116.2-.173.3-.141.249-.278.5-.412.758l-.158.3c-.173.346-.34.692-.493,1.044l-.011.026q-.228.516-.428,1.039c-.039.1-.078.212-.118.317-.1.268-.189.535-.278.8-.034.108-.07.211-.1.32-.112.364-.217.729-.309,1.1l-.005.019c-.092.361-.17.726-.241,1.091-.021.113-.042.223-.06.333-.05.278-.094.554-.133.831-.014.113-.032.223-.045.333-.044.378-.084.758-.11,1.138v.008c-.024.375-.037.755-.039,1.133v.344c0,.282.011.564.024.849,0,.116.01.229.018.344.024.386.058.771.105,1.159,1.013,8.3,7,15.081,15.3,18.6a.776.776,0,0,1,.436.913l-2.48,7.7a.705.705,0,0,0,.445.892.74.74,0,0,0,.214.037l3.463.459a.573.573,0,0,1-.093-.022,1.051,1.051,0,0,0,.418.016l13.542-6.87a38.385,38.385,0,0,0,6.165-.3c17.057-2.183,29.549-15.1,27.87-28.845M23.919,34.209a4.553,4.553,0,0,1-.058.627l-.021.1a4.319,4.319,0,0,1-.141.548c-.011.037-.021.07-.035.108a4.2,4.2,0,0,1-.246.558c-.021.04-.042.079-.065.116a4.141,4.141,0,0,1-.321.5l-.023.034a4.68,4.68,0,0,1-.414.464l-.1.1a4.644,4.644,0,0,1-.48.393l-.065.042a4.43,4.43,0,0,1-.5.3c-.042.021-.081.044-.126.062a2.745,2.745,0,0,1-.312.131c-.05.022-.1.043-.149.061-.113.04-.231.071-.352.1a4.63,4.63,0,0,1,1.106-8.457A4.594,4.594,0,0,1,23.873,33.4a4.255,4.255,0,0,1,.044.667,1.106,1.106,0,0,1,0,.141M37.064,6.692c.053-.005.1-.005.155-.008l-.282.019ZM38.921,32.3a5.024,5.024,0,0,1-.076.635.89.89,0,0,1-.024.1,4.824,4.824,0,0,1-.151.554l-.035.1a4.623,4.623,0,0,1-.257.564c-.021.04-.041.079-.065.118a5.035,5.035,0,0,1-.337.517l-.01.013a4.743,4.743,0,0,1-.417.467l-.1.095a4.457,4.457,0,0,1-.477.39l-.082.055a4.851,4.851,0,0,1-.493.289c-.038.018-.071.039-.108.058-.1.047-.212.088-.315.131-.047.015-.089.036-.134.052-.1.037-.212.063-.317.092a4.632,4.632,0,0,1,1.112-8.452,4.544,4.544,0,0,1,2.285,4.084C38.923,32.205,38.921,32.252,38.921,32.3ZM41.856,6.682c.055,0,.11,0,.165,0s.122.01.182.013c-.116-.011-.231-.016-.347-.021Zm12.093,23.7a5.024,5.024,0,0,1-.076.635l-.021.1a5.078,5.078,0,0,1-.157.551l-.031.1a5.029,5.029,0,0,1-.257.564c-.021.039-.045.076-.066.116a5.272,5.272,0,0,1-.338.517l-.011.013a4.721,4.721,0,0,1-.416.467l-.1.1a4.591,4.591,0,0,1-.477.391l-.078.052a4.27,4.27,0,0,1-.494.288c-.037.019-.071.04-.11.058-.1.05-.212.092-.315.134-.047.016-.089.037-.136.052-.1.037-.207.063-.315.092a4.631,4.631,0,0,1,1.112-8.452,4.583,4.583,0,0,1,2.262,3.41,5.013,5.013,0,0,1,.026.671c0,.043,0,.091,0,.138Z"/>
            </g>
          </g>
        </g>
        <path id="Path_10245" data-name="Path 10245" d="M68.644,24.55C67.29,13.47,57.15,5.228,44.335,3.585c.055.008.112.011.17.016l-3.462-.459c-.721-.1-1.454-.168-2.191-.22l-.29-.023c-.706-.045-1.414-.071-2.131-.071h-.388c-.147,0-.291-.005-.44,0-.406,0-.822.034-1.234.052-.256.011-.511.016-.768.032-.784.052-1.573.123-2.368.226-.6.076-1.183.167-1.768.27-.187.031-.37.07-.557.105-.4.076-.792.154-1.185.241-.089.021-.182.034-.273.055s-.2.055-.3.079q-.756.18-1.493.388c-.141.037-.278.071-.417.113q-.912.267-1.8.58c-.136.047-.27.1-.407.147q-.7.255-1.39.538c-.165.065-.331.134-.493.2-.549.234-1.089.475-1.622.732l-.058.026-.015.008-.081.042c-.37.184-.737.373-1.1.564-.118.063-.236.129-.353.194-.282.155-.564.315-.842.478-.11.065-.22.128-.328.194-.372.223-.74.451-1.1.687l-.071.045q-.5.333-.991.682c-.105.07-.212.152-.313.225-.254.186-.5.375-.749.564-.1.076-.2.15-.294.226-.328.262-.653.527-.968.8l-.047.043c-.3.257-.59.521-.879.792l-.267.254c-.22.212-.436.423-.648.642-.084.084-.17.168-.251.255q-.423.441-.826.9l-.034.042c-.256.291-.5.588-.743.884-.076.1-.147.189-.223.283-.181.23-.36.466-.535.705-.071.094-.141.189-.207.282-.228.323-.454.648-.666.978l-.021.032q-.31.48-.593.971c-.06.1-.116.2-.173.3-.141.252-.278.5-.412.758l-.158.305c-.173.346-.34.695-.493,1.046l-.011.024q-.228.515-.428,1.038c-.039.108-.078.212-.118.321-.1.265-.189.532-.278.8-.034.108-.068.215-.1.323-.112.362-.217.729-.309,1.1l-.005.022c-.092.359-.17.724-.241,1.09-.021.11-.042.22-.06.331q-.075.417-.133.834c-.014.11-.032.22-.045.333-.044.378-.084.755-.11,1.136v.008q-.036.564-.039,1.133v.344c0,.282.011.564.024.852,0,.113.01.229.018.341.024.386.058.772.105,1.16,1.013,8.3,7,15.08,15.3,18.595a.777.777,0,0,1,.436.913l-2.48,7.7a.7.7,0,0,0,.659.929l3.463.462c-.032-.005-.064-.016-.093-.021a1.051,1.051,0,0,0,.418.013L34.609,53.7a37.923,37.923,0,0,0,6.165-.3C57.831,51.214,70.323,38.3,68.644,24.55M23.919,30.885a4.568,4.568,0,0,1-.058.629l-.021.1a4.289,4.289,0,0,1-.141.546c-.011.036-.021.07-.035.107a4.29,4.29,0,0,1-.246.565c-.021.039-.042.076-.065.115a4.218,4.218,0,0,1-.321.494l-.023.034a4.44,4.44,0,0,1-.414.464l-.1.1a4.013,4.013,0,0,1-.48.393l-.065.045a4.826,4.826,0,0,1-.5.294c-.042.021-.081.044-.126.066-.1.047-.2.088-.312.131-.05.018-.1.039-.149.058-.113.039-.231.07-.352.1a4.628,4.628,0,0,1,1.106-8.455,4.589,4.589,0,0,1,2.257,3.41,4.25,4.25,0,0,1,.044.666,1.106,1.106,0,0,1,0,.141M37.064,3.368a1,1,0,0,0,.155-.008l-.282.019c.043,0,.085-.009.127-.012Zm1.857,25.607a5.024,5.024,0,0,1-.076.635.842.842,0,0,1-.024.1,4.831,4.831,0,0,1-.151.551l-.035.1a4.623,4.623,0,0,1-.257.564c-.021.042-.041.079-.065.118a4.874,4.874,0,0,1-.337.517l-.01.013a4.743,4.743,0,0,1-.417.467l-.1.1a4.977,4.977,0,0,1-.477.393l-.082.052a4.852,4.852,0,0,1-.493.289c-.038.018-.071.039-.108.057-.1.048-.212.089-.315.132-.047.018-.089.036-.134.055-.1.033-.212.062-.317.091a4.635,4.635,0,0,1,1.112-8.455,4.545,4.545,0,0,1,2.285,4.085C38.923,28.881,38.921,28.928,38.921,28.975ZM41.856,3.358c.055,0,.11,0,.165,0l.182.015c-.116-.011-.231-.015-.347-.023Zm12.093,23.7a5.024,5.024,0,0,1-.076.635l-.021.1a4.861,4.861,0,0,1-.157.551l-.031.1a4.694,4.694,0,0,1-.257.564c-.021.039-.045.079-.066.116a5.183,5.183,0,0,1-.338.519l-.011.011a4.87,4.87,0,0,1-.416.47l-.1.094a4.256,4.256,0,0,1-.477.391l-.078.052a4.292,4.292,0,0,1-.494.291c-.037.018-.071.04-.11.055-.1.05-.212.092-.315.134-.047.016-.089.037-.136.052-.1.037-.207.063-.315.092a4.63,4.63,0,0,1,1.112-8.452,4.588,4.588,0,0,1,2.262,3.413,4.823,4.823,0,0,1,.026.669c0,.042,0,.089,0,.136Z" fill="#c1c1c1"/>
        <path id="Path_10246" data-name="Path 10246" d="M34.692,3.593C51.75,1.419,66.964,10.8,68.643,24.55S57.83,51.214,40.775,53.39a37.929,37.929,0,0,1-6.165.3L21.068,60.563c-.667.111-1.2-.389-.988-.921l2.48-7.7a.775.775,0,0,0-.433-.913c-8.3-3.516-14.289-10.3-15.3-18.6C5.145,18.681,17.636,5.769,34.692,3.593" fill="#fff"/>
      </g>
    </g>
    <text id="i" transform="translate(30.794 40.407)" fill="#c1c1c1" font-size="26.558" font-family="RammettoOne-Regular, Rammetto One"><tspan x="0" y="0">i</tspan></text>
    <text id="i-2" data-name="i" transform="translate(31.378 38.654)" fill="#006f91" font-size="26.558" font-family="RammettoOne-Regular, Rammetto One"><tspan x="0" y="0">i</tspan></text>
    <text id="i-3" data-name="i" transform="translate(33.131 38.362)" fill="#09d" font-size="26.558" font-family="RammettoOne-Regular, Rammetto One"><tspan x="0" y="0">i</tspan></text>
    <g id="Group_12587" data-name="Group 12587">
      <g id="Group_12788" data-name="Group 12788">
        <path id="Path_10247" data-name="Path 10247" d="M7.886,2.076c2.153-1.14,3.419.032,3.419.032s7.155,6.173,8.612,7.376,1.013,1.425,1.013,1.425c-3.261-.7-3.388-2.533-3.388-2.533s-6.459-5.382-7.029-5.825-1.044.665-1.044.665-3.736,0-1.583-1.14" fill="#063"/>
        <g id="Group_12576" data-name="Group 12576" opacity="0.3" style="mix-blend-mode: normal;isolation: isolate">
          <g id="Group_12575" data-name="Group 12575">
            <g id="Group_12574" data-name="Group 12574" clip-path="url(#clip-path-4)">
              <path id="Path_10248" data-name="Path 10248" d="M32.285,34.188l-.855-1.679a2.213,2.213,0,0,0,.158-.5h0c0-.02.006-.041.01-.061.006-.038.013-.076.018-.114s.006-.079.009-.119.005-.062.006-.093a90.833,90.833,0,0,0-13.2-16.748C12.522,9.11,9.619,6.812,7.749,5.489c.081-.167.377-.723.752-.719a.437.437,0,0,1,.134.026l.016.005a.431.431,0,0,1,.117.068l0,0C9.341,5.315,15.8,10.7,15.8,10.7V10.7c.01.108.228,1.853,3.386,2.527,0,0,.444-.221-1.013-1.424S9.564,4.428,9.564,4.428,8.3,3.257,6.146,4.4a1.37,1.37,0,0,0-.342,0,1.869,1.869,0,0,0-.37.068,3.109,3.109,0,0,0-.4.131L3.28,2.837A.248.248,0,0,0,3.2,2.756a.965.965,0,0,0-.471.077A3.993,3.993,0,0,0,1.4,3.725l-.051.046C.527,4.545.324,5.016.306,5.283A.406.406,0,0,0,.36,5.54L2.106,7.285l-.031.069c-.009.022-.016.042-.025.064-.017.044-.034.088-.048.129-.006.02-.01.037-.016.056-.012.042-.024.083-.033.122,0,.016-.006.032-.009.048-.007.038-.015.077-.019.112,0,.014,0,.027,0,.041,0,.035-.007.071-.008.1v.03c0,.034,0,.068,0,.1l0,.017a.843.843,0,0,0,.111.369C3.267,10.4,4.785,12.892,12.255,20.567h0l.251.258a90.164,90.164,0,0,0,14.4,11.723q.429.282.789.513h0c.981.631,1.554.967,1.554.967h0c.08-.013.16-.03.239-.048l.041-.012c.064-.016.127-.033.19-.053l.064-.022c.058-.021.117-.042.174-.065l.024-.011c.057-.024.113-.048.168-.075.32.165,1.528.79,1.61.835a.484.484,0,0,0,.1.042.436.436,0,0,0,.063.011.343.343,0,0,0,.055.006.267.267,0,0,0,.04,0,.489.489,0,0,0,.155-.029l-.01-.008a.477.477,0,0,0,.069-.032c.137-.127.042-.38.042-.38" fill="#231f20"/>
            </g>
          </g>
        </g>
        <path id="Path_10249" data-name="Path 10249" d="M5.006,3.468c1.71-1.614,2.881-1.392,2.881-1.392,1.868,1.266,4.4,2.786,12.284,10.479A90.833,90.833,0,0,1,33.373,29.3a2.26,2.26,0,0,1-.728,1.614A3.19,3.19,0,0,1,31,31.709a90.882,90.882,0,0,1-16.747-13.2C6.556,10.624,5.023,8.1,3.771,6.223c-.128-.19-.475-1.141,1.235-2.755" fill="#90bc1f"/>
        <path id="Path_10250" data-name="Path 10250" d="M31.82,31.382s1.593.823,1.689.876a.452.452,0,0,0,.474-.011c.138-.126.043-.38.043-.38l-.876-1.72Z" fill="#c1c1c1"/>
        <path id="Path_10251" data-name="Path 10251" d="M31,31.708a3.2,3.2,0,0,0,1.646-.791,2.267,2.267,0,0,0,.729-1.615s-.309-.525-.886-1.428c.005.071.03.813-1,1.776-1.086,1.013-1.741,1.1-1.973,1.077a.1.1,0,0,0-.067.014c.981.63,1.554.967,1.554.967" fill="#d9d700"/>
        <path id="Path_10252" data-name="Path 10252" d="M3.77,6.223C5.008,8.08,6.526,10.571,14,18.246l.095.008a11.041,11.041,0,0,0,3.862-2.533,6.318,6.318,0,0,0,1.991-3.385C12.24,4.836,9.735,3.33,7.886,2.076c0,0-1.172-.223-2.881,1.392S3.643,6.033,3.77,6.223" fill="#008836"/>
        <g id="Group_12579" data-name="Group 12579" opacity="0.46" style="mix-blend-mode: normal;isolation: isolate">
          <g id="Group_12578" data-name="Group 12578">
            <g id="Group_12577" data-name="Group 12577" clip-path="url(#clip-path-5)">
              <path id="Path_10253" data-name="Path 10253" d="M3.77,6.222c1.252,1.878,2.786,4.4,10.479,12.284A90.87,90.87,0,0,0,31,31.708a3.033,3.033,0,0,0,.944-.308l.006-.029S18.27,20.016,13.753,14.993A129.127,129.127,0,0,1,4.888,3.582C3.313,5.127,3.646,6.038,3.77,6.222" fill="#063"/>
            </g>
          </g>
        </g>
        <g id="Group_12582" data-name="Group 12582" opacity="0.5" style="mix-blend-mode: normal;isolation: isolate">
          <g id="Group_12581" data-name="Group 12581">
            <g id="Group_12580" data-name="Group 12580" clip-path="url(#clip-path-6)">
              <path id="Path_10254" data-name="Path 10254" d="M33.33,29.69a1.937,1.937,0,0,0,.042-.388,90.907,90.907,0,0,0-13.2-16.748C12.287,4.86,9.754,3.342,7.886,2.075a1.885,1.885,0,0,0-.778.086l.588.611S23.447,13.547,33.33,29.69" fill="#fff"/>
            </g>
          </g>
        </g>
        <path id="Path_10255" data-name="Path 10255" d="M6.653,4.829C8.837,2.771,7.887,2.075,7.887,2.075S6.715,1.851,5.006,3.467,3.645,6.033,3.772,6.223c0,0,.7.664,2.881-1.394" fill="#3aa535"/>
        <path id="Path_10256" data-name="Path 10256" d="M6.388,4.512c1.745-1.643.986-2.2.986-2.2a4.212,4.212,0,0,0-2.19,1.346C3.82,4.948,3.988,5.472,4.089,5.624c0,0,.554.531,2.3-1.112" fill="#008836"/>
        <path id="Path_10257" data-name="Path 10257" d="M7.186,2.683s.651.356-.9,1.821-1.934.96-1.934.96L2.1,3.219c-.089-.135-.23-.617.986-1.767S4.942.436,4.942.436Z" fill="#c1c1c1"/>
        <path id="Path_10258" data-name="Path 10258" d="M4.038,2.256c1.555-1.465.9-1.821.9-1.821S4.307.3,3.089,1.45,2.012,3.082,2.1,3.218c0,0,.381.5,1.936-.962" fill="#e8e8e8"/>
        <path id="Path_10259" data-name="Path 10259" d="M17.542,8.376s.127,1.837,3.388,2.533L14.408,5.463,10.8,2.487a.762.762,0,0,0-.557-.038.438.438,0,0,1,.272.1c.57.443,7.028,5.825,7.028,5.825" fill="#024220"/>
        <path id="Path_10260" data-name="Path 10260" d="M33.081,32.034c.225.117.4.207.428.224a.454.454,0,0,0,.475-.011c.138-.127.042-.38.042-.38l-.238-.468Z" fill="#2d2e80"/>
        <g id="Group_12585" data-name="Group 12585" opacity="0.46" style="mix-blend-mode: normal;isolation: isolate">
          <g id="Group_12584" data-name="Group 12584">
            <g id="Group_12583" data-name="Group 12583" clip-path="url(#clip-path-7)">
              <path id="Path_10261" data-name="Path 10261" d="M31.82,31.383s1.593.823,1.689.876a.5.5,0,0,0,.416.029l-1.612-1.364Z" fill="#063"/>
            </g>
          </g>
        </g>
      </g>
    </g>
  </g>
</svg>
