<svg id="report" xmlns="http://www.w3.org/2000/svg" width="65.957" height="70.091" viewBox="0 0 65.957 70.091">
  <path id="Path_5177" data-name="Path 5177" d="M63.779,59.66,46.835,3.077,4.808,8.369l-.765.858L23.032,70.09l1.261-.333Z" transform="translate(-4.043 0)" fill-rule="evenodd" opacity="0.3"/>
  <path id="Path_5178" data-name="Path 5178" d="M25.124,67.013,6.135,6.15,6.9,5.293,48,.9,62.747,57.087Z" transform="translate(-4.043 0)" fill="#754c24" fill-rule="evenodd"/>
  <path id="Path_5179" data-name="Path 5179" d="M48.928,0,6.9,5.293,26.138,66.744l39.734-10.16Z" transform="translate(-4.043 0)" fill="#a17c52"/>
  <path id="Path_5180" data-name="Path 5180" d="M9.784,7.544,47.96,2.625l.8,2.846L65.639,55.807,28.655,64.76,10.548,10.395Z" transform="translate(-4.043 0)" fill-rule="evenodd" opacity="0.3"/>
  <path id="Path_5181" data-name="Path 5181" d="M9.554,6.595l.768,3.172L29.679,63.65,70,53.889,49.78,4.361l-.8-2.847Z" transform="translate(-4.043 0)" fill="#ebebeb"/>
  <path id="Path_5182" data-name="Path 5182" d="M40.126,2.32S41.8,5.467,41.678,6.085s-.331.885-.735,1.011S25.369,9.609,24.908,9.587a.939.939,0,0,1-.784-.62c-.217-.551-2.073-3.982-2.073-3.982l1.2-.155S24.28,8.274,24.965,8.6,40.361,6.579,40.6,6.336s-1.171-3.9-1.171-3.9Z" transform="translate(-4.043 0)" fill="none" fill-rule="evenodd"/>
  <path id="Path_5183" data-name="Path 5183" d="M40.661,6.529a1.59,1.59,0,0,0,.237-.066c.409-.17.8-.559.7-1.013-.008-.033-1.16-3.353-1.592-3.481a10.664,10.664,0,0,0-1.835.1l.1.62c.653-.072,1.392-.132,1.628-.121a29.281,29.281,0,0,1,1.223,2.956.8.8,0,0,1-.419.344c-.2.081-1.668.321-3.752.611a.375.375,0,0,1-.257-.059A4.7,4.7,0,0,0,33.4,5.757a5.953,5.953,0,0,0-2.938,1.7.355.355,0,0,1-.2.111L29.5,7.7c-1.239.212-3.818.655-4.113.627a.978.978,0,0,1-.825-.688c-.212-.5-.91-2.456-1.121-3.119a5.429,5.429,0,0,1,.843-.112L24.2,3.787c-1.241.081-1.322.279-1.3.551.021.3,1.1,3.219,1.237,3.544a1.551,1.551,0,0,0,1.271,1.067c.319.03,2.256-.3,4.213-.631.324-.056.591-.1.761-.13a.747.747,0,0,0,.423-.231,5.554,5.554,0,0,1,2.729-1.585,4.267,4.267,0,0,1,2.98.6.807.807,0,0,0,.542.127c1.116-.156,2.92-.417,3.6-.571" transform="translate(-4.043 0)" fill="#29a6dd"/>
  <path id="Path_5184" data-name="Path 5184" d="M38.528,1.624l.234.288s.289-.047.415.327a.631.631,0,0,1-.072.54l.109.465s-9.507,1.27-14.791,2.031l-.321-.5s.285-.7-.072-.964l-.219-.324s8.17-1.341,14.717-1.859" transform="translate(-4.043 0)" fill="#8e278a" fill-rule="evenodd"/>
  <path id="Path_5185" data-name="Path 5185" d="M39.029,2.045S27.4,3.565,24.209,4.106c0,0-.068-.244-.215-.291,0,0,10.23-1.549,14.732-1.9a.36.36,0,0,1,.3.125" transform="translate(-4.043 0)" fill="#e81e79" fill-rule="evenodd"/>
  <path id="Path_5186" data-name="Path 5186" d="M27.209,7.829a.913.913,0,0,1,.157,1.079,15.269,15.269,0,0,1-2.228.461c-.5-.009-.738-.275-.972-.906s-.773-2.331-.773-2.331a.573.573,0,0,1,.781-.183s.536,1.543.63,1.771c.135.325.339.442.527.423s1.878-.314,1.878-.314" transform="translate(-4.043 0)" fill="#662d8c" fill-rule="evenodd"/>
  <path id="Path_5187" data-name="Path 5187" d="M38.866,7.053s.211-.4-.224-1.049a17.54,17.54,0,0,0,1.78-.308c.393-.128.349-.432.3-.7s-.486-1.336-.486-1.336a.527.527,0,0,1,.74-.166A16.077,16.077,0,0,1,41.651,5.6a.946.946,0,0,1-.641,1.049c-.48.148-2.144.406-2.144.406" transform="translate(-4.043 0)" fill="#662d8c" fill-rule="evenodd"/>
  <path id="Path_5188" data-name="Path 5188" d="M38.586,6.238l.094-.01a1.458,1.458,0,0,1,.139.615l-.1.01a.449.449,0,0,0,.142.2.708.708,0,0,0,.031-.539A.919.919,0,0,0,38.641,6Z" transform="translate(-4.043 0)" fill="none"/>
  <path id="Path_5189" data-name="Path 5189" d="M35.906,6.231a5.242,5.242,0,0,0-3.594.085s1.971-1.263,3.594-.085" transform="translate(-4.043 0)" fill="aqua" fill-rule="evenodd"/>
  <path id="Path_5190" data-name="Path 5190" d="M43.12,11.83l-17.739,3.1L24.2,11.792,41.988,8.929Z" transform="translate(-4.043 0)" fill="#ff0060" fill-rule="evenodd" opacity="0.4"/>
  <path id="Path_5191" data-name="Path 5191" d="M31.4,50.318l32.331-7.342-.339-.847-32.322,7.3Z" transform="translate(-4.043 0)" fill="#6a1760" opacity="0.5"/>
  <path id="Path_5192" data-name="Path 5192" d="M32.061,52.1,59.951,45.7l-.338-.854L31.731,51.212Z" transform="translate(-4.043 0)" fill="#6a1760" opacity="0.5"/>
  <path id="Path_5193" data-name="Path 5193" d="M52.387,14.616l-.339-.847-32.03,5.775.33.893Z" transform="translate(-4.043 0)" fill="#6a1760" opacity="0.5"/>
  <path id="Path_5194" data-name="Path 5194" d="M21.01,22.223l32.056-5.912-.339-.847L20.679,21.33Z" transform="translate(-4.043 0)" fill="#6a1760" opacity="0.5"/>
  <path id="Path_5195" data-name="Path 5195" d="M21.67,24.01l16.946-3.172-.335-.868L21.34,23.117Z" transform="translate(-4.043 0)" fill="#6a1760" opacity="0.5"/>
  <path id="Path_5196" data-name="Path 5196" d="M25.631,34.717,57.809,28.17l-.339-.847L25.3,33.825Z" transform="translate(-4.043 0)" fill="#6a1760" opacity="0.5"/>
  <path id="Path_5197" data-name="Path 5197" d="M26.291,36.5l32.195-6.639-.339-.847L25.961,35.611Z" transform="translate(-4.043 0)" fill="#6a1760" opacity="0.5"/>
  <path id="Path_5198" data-name="Path 5198" d="M26.952,38.29,49.2,33.641l-.336-.861L26.622,37.4Z" transform="translate(-4.043 0)" fill="#6a1760" opacity="0.5"/>
  <path id="Path_5199" data-name="Path 5199" d="M23.32,28.47l32.117-6.23-.339-.847L22.99,27.577Z" transform="translate(-4.043 0)" fill="#6a1760" opacity="0.5"/>
  <path id="Path_5200" data-name="Path 5200" d="M23.981,30.257l27.706-5.449-.338-.854-27.7,5.41Z" transform="translate(-4.043 0)" fill="#6a1760" opacity="0.5"/>
  <path id="Path_5201" data-name="Path 5201" d="M20.317,23.377l-1.039-2.816-2.3.418,1.037,2.826Z" transform="translate(-4.043 0)" fill="#6a1760" opacity="0.5"/>
  <path id="Path_5202" data-name="Path 5202" d="M65.828,48.22,33.443,55.843l.33.893,32.394-7.669Z" transform="translate(-4.043 0)" fill="#6a1760" opacity="0.5"/>
  <path id="Path_5203" data-name="Path 5203" d="M66.507,49.915,34.1,57.629l.33.893,32.411-7.76Z" transform="translate(-4.043 0)" fill="#6a1760" opacity="0.5"/>
  <path id="Path_5204" data-name="Path 5204" d="M34.765,59.416l.33.893,17.133-4.148-.334-.869Z" transform="translate(-4.043 0)" fill="#6a1760" opacity="0.5"/>
  <path id="Path_5205" data-name="Path 5205" d="M30.371,57.47l1.036,2.824,2.318-.558-1.037-2.814Zm1.238,2.447L30.8,57.7l1.691-.4L33.3,59.51Z" transform="translate(-4.043 0)" fill="#6a1760" opacity="0.5"/>
  <path id="Path_5206" data-name="Path 5206" d="M20.618,30.9l2.305-.453-1.038-2.816-2.3.444Zm1.876-.694-1.67.328-.814-2.217,1.669-.321Z" transform="translate(-4.043 0)" fill="#6a1760" opacity="0.5"/>
  <path id="Path_5207" data-name="Path 5207" d="M30.993,52.328l-1.038-2.814-2.313.522,1.037,2.823Z" transform="translate(-4.043 0)" fill="#6a1760" opacity="0.5"/>
  <path id="Path_5208" data-name="Path 5208" d="M25.427,37.234l-1.038-2.815-2.307.468,1.037,2.824Zm-1.243-2.448L25,37l-1.675.346-.814-2.217Z" transform="translate(-4.043 0)" fill="#6a1760" opacity="0.5"/>
  <path id="Path_5209" data-name="Path 5209" d="M28.209,41.69l.331.893,32.254-6.949-.338-.847Z" transform="translate(-4.043 0)" fill="#6a1760" opacity="0.5"/>
  <path id="Path_5210" data-name="Path 5210" d="M29.2,44.369,61.472,37.33l-.338-.847L28.87,43.476Z" transform="translate(-4.043 0)" fill="#6a1760" opacity="0.5"/>
  <path id="Path_5211" data-name="Path 5211" d="M29.861,46.155l22.306-4.926-.336-.861-22.3,4.894Z" transform="translate(-4.043 0)" fill="#6a1760" opacity="0.5"/>
  <path id="Path_5212" data-name="Path 5212" d="M28.332,45.113,27.294,42.3l-2.309.5,1.036,2.823Z" transform="translate(-4.043 0)" fill="#6a1760" opacity="0.5"/>
  <path id="Path_5213" data-name="Path 5213" d="M54.793,19.572l-37.414,7.1.015.08,37.414-7.1Z" transform="translate(-4.043 0)" fill="#6a1760" opacity="0.5"/>
  <path id="Path_5214" data-name="Path 5214" d="M57.1,25.255,19.565,33.164l.017.08,37.539-7.909Z" transform="translate(-4.043 0)" fill="#6a1760" opacity="0.5"/>
  <path id="Path_5215" data-name="Path 5215" d="M60.46,33.142,22.623,41.667l.017.079,37.838-8.525Z" transform="translate(-4.043 0)" fill="#6a1760" opacity="0.5"/>
  <path id="Path_5216" data-name="Path 5216" d="M63.059,40.2,25.227,49.36l.019.08,37.833-9.159Z" transform="translate(-4.043 0)" fill="#6a1760"/>
  <path id="Path_5217" data-name="Path 5217" d="M65.717,46.658,27.885,55.816l.019.08,37.832-9.159Z" transform="translate(-4.043 0)" fill="#6a1760" opacity="0.5"/>
  <path id="Path_5218" data-name="Path 5218" d="M29.777,43.143,52.8,58.116l7.525-1.886L30.837,43Z" transform="translate(-4.043 0)" fill-rule="evenodd" opacity="0.3"/>
  <path id="Path_5219" data-name="Path 5219" d="M19.555,18.944l.784,2.349,7.686-1.233-7.7,2.055.787,2.375,19.308-3.357-.407-1.681-4.616.6L54.2,16.479l-1.976-3.516Z" transform="translate(-4.043 0)" fill="#ff0" fill-rule="evenodd" opacity="0.4"/>
  <path id="Path_5220" data-name="Path 5220" d="M30.6,48.944l.78,1.864,10.675-2.584L31.18,51.346l.487,1.2L62.03,45.608l-.815-1.533,3.537-.856-.76-1.815Z" transform="translate(-4.043 0)" fill="#ff80e5" fill-rule="evenodd" opacity="0.4"/>
  <path id="Path_5221" data-name="Path 5221" d="M24.763,11.825a5.069,5.069,0,0,1-.219-.63c-.042-.139.088-.139.186-.189l.565-.12a.5.5,0,0,1,.208-.07,2.281,2.281,0,0,1,1.031.027c.053.033.287.188.339.221a1.491,1.491,0,0,1,.563.853,1.134,1.134,0,0,1-.023.845c-.037.068-.236.406-.287.469,0,0,0,.015.006.021a2.078,2.078,0,0,1,1.882,1.505c.011.033-.028.046-.061.052l-.88.24-.157.026c-.028,0-.064-.045-.068-.057a1.352,1.352,0,0,0-.167-.293c-.054-.089-.345-.486-.409-.573s-.474-.463-.61-.413c-.026.01-.02.03-.013.051l.008.025a14.039,14.039,0,0,1,.5,1.314c.048.158-.054.2-.2.255-.078.026-.36.114-.4.121a1.565,1.565,0,0,1-.209.041,2.158,2.158,0,0,1-.214.028c-.038-.007-.131-.034-.145-.081l-.155-.516Zm1.432.885c.013.019.022.024.035.022.46.008.34-1.153-.382-1.076l-.009.015c.008.027.126.417.133.443a6.305,6.305,0,0,0,.223.6" transform="translate(-4.043 0)" fill="#683068"/>
  <path id="Path_5222" data-name="Path 5222" d="M28.7,12.633c-.16-.509-.342-1.013-.495-1.522-.064-.213-.167-.606.139-.706l1.612-.206c.133-.008.218.179.262.277.022.053.093.214.095.22s.043.125.056.165.035.139.044.167c.006.165-.12.22-.276.246-.081.02-.473.1-.554.11-.007,0-.03.02-.037.021s-.017.016-.017.016l.209.7.038.03.692-.079c.075-.013.213,0,.242.092l.172.569c.019.066,0,.176-.078.194-.254.034-.5.081-.753.136a.07.07,0,0,0-.007.072l.01.031c.023.08.153.461.183.539l0,.008,0,.006,0,.008c.016.025.028.043.061.037.26-.042.486-.147.738-.189a.407.407,0,0,1,.16-.013c.151.047.328.468.37.606a.588.588,0,0,1,.028.121c.184.491-1.3.455-2.022.67a.108.108,0,0,1-.111-.058l-.024-.078c-.024-.059-.2-.51-.212-.564a6.689,6.689,0,0,0-.271-.782c-.035-.119-.223-.714-.26-.839" transform="translate(-4.043 0)" fill="#683068"/>
  <path id="Path_5223" data-name="Path 5223" d="M31.583,12.563a.731.731,0,0,1-.053-.109c-.1-.3-.192-.608-.29-.911-.036-.12-.37-1.086-.405-1.2l-.032-.107c0-.012-.027-.091-.031-.1-.014-.047.088-.09.118-.111a9.394,9.394,0,0,0,.993-.238,1.449,1.449,0,0,1,1.542.533,1.928,1.928,0,0,1,.323.573V10.9c.022.094.066.336.068.342a2.264,2.264,0,0,1-.08.632,2.068,2.068,0,0,1-.545.666c-.075.06-.229.071-.265.167a1.5,1.5,0,0,0,.068.295c.076.252.193.5.271.754.014.047.076.279.092.332a.239.239,0,0,1-.07.172l-.175.085c0,.007-.456.121-.644.167l-.061.01c-.062.008-.171,0-.2-.072-.218-.631-.406-1.253-.625-1.884m.937-.854c.008,0,.023-.019.023-.019.155-.01.411-.156.233-.606-.215-.549-.48-.526-.652-.5-.026.005-.018.031-.012.051l.008.026c.005.02.219.541.225.561s.068.225.075.252.066.19.082.222Z" transform="translate(-4.043 0)" fill="#683068"/>
  <path id="Path_5224" data-name="Path 5224" d="M34.581,9.44c1.129-.336,1.554.053,2.062,1.053a2.848,2.848,0,0,1,.124.265c0,.013.06.177.081.243a4.265,4.265,0,0,1,.274,1.983,1.562,1.562,0,0,1-.05.286.443.443,0,0,1-.065.094,1.161,1.161,0,0,1-.815.452,1.262,1.262,0,0,1-1.342-.725c-.016-.032-.169-.278-.211-.348a.424.424,0,0,1-.039-.076l-.358-.879s-.016-.054-.023-.08c-.2-.662-.465-2.021.362-2.268M36,12.667c.33-.066.021-.975-.079-1.284-.008-.028-.016-.054-.02-.067-.056-.185-.3-.96-.609-.908-.227.037-.031.922.011,1.061.3,1.111.446,1.246.7,1.2" transform="translate(-4.043 0)" fill="#683068"/>
  <path id="Path_5225" data-name="Path 5225" d="M36.751,9.862a5.634,5.634,0,0,1-.219-.631c-.042-.139.088-.14.187-.19l.565-.12a.528.528,0,0,1,.208-.07,2.324,2.324,0,0,1,1.031.027c.053.033.286.189.339.222a1.494,1.494,0,0,1,.563.852,1.133,1.133,0,0,1-.024.845c-.037.068-.236.406-.287.47,0,0,0,.015.006.02A2.082,2.082,0,0,1,41,12.792c.01.034-.028.047-.062.053l-.88.24-.157.026c-.028,0-.064-.046-.068-.058a1.371,1.371,0,0,0-.166-.293c-.054-.088-.345-.486-.41-.573s-.474-.463-.609-.413c-.026.01-.02.03-.014.051l.008.025a13.887,13.887,0,0,1,.5,1.315c.048.158-.054.2-.2.255-.077.026-.36.114-.4.12a1.669,1.669,0,0,1-.209.042c-.035.005-.177.029-.213.027s-.131-.034-.146-.081l-.155-.515Zm1.432.884c.013.019.022.024.036.021.46.009.339-1.153-.383-1.076l-.008.016c.008.026.126.417.133.442.036.12.166.481.222.6" transform="translate(-4.043 0)" fill="#683068"/>
  <path id="Path_5226" data-name="Path 5226" d="M40.771,10.642c0-.014-.036-.119-.04-.131-.01-.035-.1-.283-.106-.31a4.265,4.265,0,0,0-.2-.551.092.092,0,0,0-.061-.038l-.579.024c-.119.013-.2-.093-.258-.166,0-.008-.009-.006-.011-.013-.059-.218-.146-.413-.206-.612-.046-.15.443-.238.563-.293.149-.031.832-.184.981-.215l.251-.042c.075-.011.279-.045.294-.048.465-.068.327.066.481.367a.934.934,0,0,0,.074.1.24.24,0,0,1,.027.045l.118.391a.171.171,0,0,1-.148.218c-.062.01-.352.071-.406.081-.025.01-.012.029-.009.036.077.259.2.522.306.782,0,0,.021.047.025.059.028.045.094.172.1.185.212.563.428,1.138.6,1.708l.018.06c.066.218.109.335-.142.453-.051.021-.366.115-.44.135l-.157.025c-.019,0-.129.022-.156.025a.582.582,0,0,1-.195-.1c-.21-.722-.459-1.453-.726-2.173" transform="translate(-4.043 0)" fill="#683068"/>
  <path id="Path_5227" data-name="Path 5227" d="M54.3,14.346s-.474-1.1-1.041-.663-7.01,5.809-7.01,5.809-.126,1.832-3.378,2.526c0,0-.442-.221,1.01-1.42s8.588-7.357,8.588-7.357,1.263-1.168,3.41-.032S54.3,14.346,54.3,14.346" transform="translate(-4.043 0)" fill="#063"/>
  <path id="Path_5228" data-name="Path 5228" d="M59.984,17.346c-1.248,1.872-2.777,4.389-10.451,12.25a90.663,90.663,0,0,1-16.7,13.166,3.186,3.186,0,0,1-1.642-.789,2.257,2.257,0,0,1-.726-1.611,90.62,90.62,0,0,1,13.165-16.7c7.862-7.672,10.388-9.187,12.251-10.45,0,0,1.168-.221,2.873,1.388s1.359,2.559,1.231,2.748" transform="translate(-4.043 0)" fill="#90bc1f"/>
  <path id="Path_5229" data-name="Path 5229" d="M30.686,41.2l-.873,1.715s-.095.253.042.379a.45.45,0,0,0,.473.011c.1-.053,1.684-.873,1.684-.873Z" transform="translate(-4.043 0)" fill="#c1c1c1"/>
  <path id="Path_5230" data-name="Path 5230" d="M34.384,41.8a.1.1,0,0,0-.067-.014c-.232.021-.884-.063-1.967-1.073-1.03-.961-1.006-1.7-1-1.772-.575.9-.883,1.424-.883,1.424a2.253,2.253,0,0,0,.726,1.61,3.178,3.178,0,0,0,1.642.789s.572-.335,1.55-.964" transform="translate(-4.043 0)" fill="#d9d700"/>
  <path id="Path_5231" data-name="Path 5231" d="M58.754,14.6c-1.705-1.61-2.873-1.389-2.873-1.389-1.845,1.251-4.343,2.753-12.025,10.232a6.3,6.3,0,0,0,1.985,3.376,10.992,10.992,0,0,0,3.852,2.526l.094-.007c7.45-7.655,8.964-10.139,10.2-11.991.127-.189.474-1.137-1.231-2.747" transform="translate(-4.043 0)" fill="#008836"/>
  <path id="Path_5232" data-name="Path 5232" d="M58.87,14.711a128.785,128.785,0,0,1-8.841,11.38c-4.5,5.009-18.144,16.333-18.144,16.333l.006.029a3.037,3.037,0,0,0,.942.307,90.544,90.544,0,0,0,16.7-13.165c7.673-7.863,9.2-10.379,10.451-12.25.123-.185.456-1.093-1.115-2.634" transform="translate(-4.043 0)" fill="#063" opacity="0.5"/>
  <path id="Path_5233" data-name="Path 5233" d="M56.07,13.9l.586-.609a1.9,1.9,0,0,0-.775-.086c-1.863,1.263-4.389,2.778-12.251,10.451a90.651,90.651,0,0,0-13.166,16.7,1.943,1.943,0,0,0,.042.387C40.362,24.649,56.07,13.9,56.07,13.9" transform="translate(-4.043 0)" fill="#fff" opacity="0.7"/>
  <path id="Path_5234" data-name="Path 5234" d="M59.984,17.346c.126-.189.474-1.137-1.231-2.748s-2.873-1.389-2.873-1.389-.948.694,1.231,2.747,2.873,1.39,2.873,1.39" transform="translate(-4.043 0)" fill="#3aa535"/>
  <path id="Path_5235" data-name="Path 5235" d="M59.668,16.748c.1-.151.268-.675-1.093-1.96a4.2,4.2,0,0,0-2.184-1.342s-.756.555.984,2.193,2.293,1.109,2.293,1.109" transform="translate(-4.043 0)" fill="#008836"/>
  <path id="Path_5236" data-name="Path 5236" d="M58.817,11.574s.636-.135,1.849,1.013,1.073,1.628.984,1.762l-2.24,2.239s-.378.5-1.929-.957-.9-1.816-.9-1.816Z" transform="translate(-4.043 0)" fill="#c1c1c1"/>
  <path id="Path_5237" data-name="Path 5237" d="M61.649,14.348c.09-.134.231-.615-.984-1.762s-1.849-1.012-1.849-1.012-.649.355.9,1.815,1.93.959,1.93.959" transform="translate(-4.043 0)" fill="#e8e8e8"/>
  <path id="Path_5238" data-name="Path 5238" d="M53.26,13.683a.437.437,0,0,1,.27-.1.749.749,0,0,0-.554.038l-3.6,2.968-6.5,5.43c3.251-.694,3.378-2.526,3.378-2.526s6.441-5.367,7.009-5.809" transform="translate(-4.043 0)" fill="#024220"/>
  <path id="Path_5239" data-name="Path 5239" d="M30.05,42.453l-.238.467s-.1.252.042.379a.454.454,0,0,0,.474.01l.427-.223Z" transform="translate(-4.043 0)" fill="#2d2e80"/>
  <path id="Path_5240" data-name="Path 5240" d="M31.52,41.979l-1.608,1.36a.508.508,0,0,0,.416-.029c.094-.053,1.684-.874,1.684-.874Z" transform="translate(-4.043 0)" fill="#063" opacity="0.5"/>
  <rect id="frame" width="2.099" height="1.391" transform="translate(25.87 41.98)" fill="none"/>
</svg>
