<svg id="pursuasive" xmlns="http://www.w3.org/2000/svg" xmlns:xlink="http://www.w3.org/1999/xlink" width="70" height="70" viewBox="0 0 70 70">
  <defs>
    <clipPath id="clip-path">
      <rect id="Rectangle_4779" data-name="Rectangle 4779" width="70" height="70" fill="none"/>
    </clipPath>
    <clipPath id="clip-path-3">
      <rect id="Rectangle_4742" data-name="Rectangle 4742" width="38.578" height="60.205" transform="translate(14.987 4.422)" fill="none"/>
    </clipPath>
    <clipPath id="clip-path-4">
      <rect id="Rectangle_4743" data-name="Rectangle 4743" width="36.332" height="21.884" transform="translate(14.355 5.392)" fill="none"/>
    </clipPath>
    <clipPath id="clip-path-5">
      <rect id="Rectangle_4744" data-name="Rectangle 4744" width="6.021" height="3.551" transform="translate(24.139 5.492)" fill="none"/>
    </clipPath>
    <clipPath id="clip-path-6">
      <rect id="Rectangle_4745" data-name="Rectangle 4745" width="2.76" height="1.182" transform="translate(19.454 14.386)" fill="none"/>
    </clipPath>
    <clipPath id="clip-path-7">
      <rect id="Rectangle_4746" data-name="Rectangle 4746" width="28.125" height="11.512" transform="translate(22.095 13.278)" fill="none"/>
    </clipPath>
    <clipPath id="clip-path-8">
      <rect id="Rectangle_4747" data-name="Rectangle 4747" width="0.852" height="2.73" transform="translate(29.326 5.492)" fill="none"/>
    </clipPath>
    <clipPath id="clip-path-9">
      <rect id="Rectangle_4748" data-name="Rectangle 4748" width="0.917" height="0.997" transform="translate(24.212 7.795)" fill="none"/>
    </clipPath>
    <clipPath id="clip-path-10">
      <rect id="Rectangle_4749" data-name="Rectangle 4749" width="2.282" height="10.54" transform="translate(37.566 11.723)" fill="none"/>
    </clipPath>
    <clipPath id="clip-path-11">
      <rect id="Rectangle_4750" data-name="Rectangle 4750" width="1.671" height="8.206" transform="translate(43.996 12.581)" fill="none"/>
    </clipPath>
    <clipPath id="clip-path-12">
      <rect id="Rectangle_4751" data-name="Rectangle 4751" width="6.339" height="6.99" transform="translate(25.838 9.186)" fill="none"/>
    </clipPath>
    <clipPath id="clip-path-13">
      <rect id="Rectangle_4752" data-name="Rectangle 4752" width="2.701" height="2.333" transform="translate(14.366 10.99)" fill="none"/>
    </clipPath>
    <clipPath id="clip-path-14">
      <rect id="Rectangle_4753" data-name="Rectangle 4753" width="5.311" height="1.787" transform="translate(26.212 2.272)" fill="none"/>
    </clipPath>
    <clipPath id="clip-path-15">
      <rect id="Rectangle_4754" data-name="Rectangle 4754" width="5.756" height="3.174" transform="translate(39.848 7.177)" fill="none"/>
    </clipPath>
    <clipPath id="clip-path-16">
      <rect id="Rectangle_4755" data-name="Rectangle 4755" width="4.397" height="1.917" transform="translate(34.835 4.333)" fill="none"/>
    </clipPath>
    <clipPath id="clip-path-17">
      <rect id="Rectangle_4756" data-name="Rectangle 4756" width="4.82" height="3.754" transform="translate(45.667 12.581)" fill="none"/>
    </clipPath>
    <clipPath id="clip-path-18">
      <rect id="Rectangle_4757" data-name="Rectangle 4757" width="2.313" height="10.16" transform="translate(47.097 23.785)" fill="none"/>
    </clipPath>
    <clipPath id="clip-path-19">
      <rect id="Rectangle_4758" data-name="Rectangle 4758" width="1.616" height="18.589" transform="translate(41.191 43.732)" fill="none"/>
    </clipPath>
    <clipPath id="clip-path-20">
      <rect id="Rectangle_4759" data-name="Rectangle 4759" width="12.793" height="6.567" transform="translate(15.716 28.44)" fill="none"/>
    </clipPath>
    <clipPath id="clip-path-21">
      <rect id="Rectangle_4760" data-name="Rectangle 4760" width="0.813" height="6.506" transform="translate(44.444 11.298)" fill="none"/>
    </clipPath>
    <clipPath id="clip-path-22">
      <rect id="Rectangle_4761" data-name="Rectangle 4761" width="0.937" height="3.61" transform="translate(49.009 16.176)" fill="none"/>
    </clipPath>
    <clipPath id="clip-path-23">
      <rect id="Rectangle_4762" data-name="Rectangle 4762" width="0.713" height="9.534" transform="translate(38.707 7.15)" fill="none"/>
    </clipPath>
    <clipPath id="clip-path-24">
      <rect id="Rectangle_4763" data-name="Rectangle 4763" width="4.811" height="1.418" transform="translate(16.328 9.575)" fill="none"/>
    </clipPath>
    <clipPath id="clip-path-25">
      <rect id="Rectangle_4764" data-name="Rectangle 4764" width="1.141" height="9.623" transform="translate(14.784 14.185)" fill="none"/>
    </clipPath>
    <clipPath id="clip-path-26">
      <rect id="Rectangle_4765" data-name="Rectangle 4765" width="2.943" height="20.41" transform="translate(28.555 42.36)" fill="none"/>
    </clipPath>
    <clipPath id="clip-path-27">
      <rect id="Rectangle_4766" data-name="Rectangle 4766" width="4.404" height="2.29" transform="translate(31.924 19.235)" fill="none"/>
    </clipPath>
    <clipPath id="clip-path-28">
      <rect id="Rectangle_4767" data-name="Rectangle 4767" width="4.605" height="1.095" transform="translate(39.063 20.786)" fill="none"/>
    </clipPath>
    <clipPath id="clip-path-29">
      <rect id="Rectangle_4768" data-name="Rectangle 4768" width="1.925" height="1.004" transform="translate(46.674 21.691)" fill="none"/>
    </clipPath>
    <clipPath id="clip-path-30">
      <rect id="Rectangle_4769" data-name="Rectangle 4769" width="2.668" height="0.748" transform="translate(55.662 22.549)" fill="none"/>
    </clipPath>
    <clipPath id="clip-path-31">
      <rect id="Rectangle_4770" data-name="Rectangle 4770" width="33.649" height="9.214" transform="translate(22.146 14.879)" fill="none"/>
    </clipPath>
    <clipPath id="clip-path-32">
      <rect id="Rectangle_4771" data-name="Rectangle 4771" width="25.007" height="10.587" transform="translate(31.252 10.124)" fill="none"/>
    </clipPath>
    <clipPath id="clip-path-33">
      <rect id="Rectangle_4772" data-name="Rectangle 4772" width="9.496" height="5.452" transform="translate(22.146 14.879)" fill="none"/>
    </clipPath>
    <clipPath id="clip-path-34">
      <rect id="Rectangle_4773" data-name="Rectangle 4773" width="8.789" height="2.045" transform="translate(13.834 6.681)" fill="none"/>
    </clipPath>
    <clipPath id="clip-path-35">
      <rect id="Rectangle_4774" data-name="Rectangle 4774" width="3.283" height="4.249" transform="translate(12.054 9.912)" fill="none"/>
    </clipPath>
    <clipPath id="clip-path-36">
      <rect id="Rectangle_4775" data-name="Rectangle 4775" width="2.546" height="7.053" transform="translate(29.069 13.277)" fill="none"/>
    </clipPath>
    <clipPath id="clip-path-37">
      <rect id="Rectangle_4776" data-name="Rectangle 4776" width="10.303" height="2.447" transform="translate(38.141 20.785)" fill="none"/>
    </clipPath>
    <clipPath id="clip-path-38">
      <rect id="Rectangle_4777" data-name="Rectangle 4777" width="8.572" height="5.854" transform="translate(21.995 11.539)" fill="none"/>
    </clipPath>
  </defs>
  <g id="Group_12747" data-name="Group 12747" clip-path="url(#clip-path)">
    <g id="Group_12746" data-name="Group 12746">
      <g id="Group_12745" data-name="Group 12745" clip-path="url(#clip-path)">
        <g id="Group_12639" data-name="Group 12639" opacity="0.3">
          <g id="Group_12638" data-name="Group 12638">
            <g id="Group_12637" data-name="Group 12637" clip-path="url(#clip-path-3)">
              <path id="Path_10308" data-name="Path 10308" d="M28.286,62.452c1.068.88,6.742,2.255,10.77,2.172s6.989-.926,7.669-2.172-.379-19.791.019-21.122,2.651-3.53,3.547-4.817,1.926-9.135,2.834-12.083a8.945,8.945,0,0,0-.551-6.851c-.806-1.744-3.671-2.3-4.342-3.2s-.734-3.529-5.557-4.652C41,9.338,40.2,7.585,38.284,7.073s-3.275.125-3.87,0S31.882,4.264,28.286,4.43,23.928,11,23.212,11.4s-6.087,1.857-7.474,3.248-.5,4.825-.122,7.865.539,7.062.644,9.055,11.609,7.9,13.624,10.144-2.609,19.9-1.6,20.736"/>
            </g>
          </g>
        </g>
        <path id="Path_10309" data-name="Path 10309" d="M22.094,17.8s.328-9.011.627-10.712,2.387-4.416,3.491-4.774,4.147.432,5.311,1.581a3.132,3.132,0,0,1,.716,1.492,4.961,4.961,0,0,1,2.6-1.044c1.79-.269,4.536,1.074,4.744,2.805,0,0,4.476.3,6.087,3.312a5.6,5.6,0,0,1,0,2.118s4.357,1.433,4.894,4.028-.9,6.535-.9,6.535-5.073,2.148-14.979.657-12.592-6-12.592-6" fill="#eab093"/>
        <path id="Path_10310" data-name="Path 10310" d="M49.667,23.142s-1.535,9.472-2.57,12.151a2.809,2.809,0,0,1-.236.5c-1.016,1.611-3.341,3.4-3.643,4.356s.123,17.008-.477,23.1c0,0-4.654,3.1-14.561,0,0,0,2.67-20.084,2.136-22.054a.07.07,0,0,0-.01-.028c-.595-1.985-7.9-7.059-10.729-8.4,0,0,0-.005-.009-.005a.015.015,0,0,0-.01-.005c-2.835-1.341-4.507-3.685-4.639-4.757-.081-.643.042-2.825.146-4.97.071-1.455.128-2.9.1-3.827-.066-2.306-.916-5.362-.8-6.137a4.322,4.322,0,0,1,1.7-2.329c.51-.293,3.822-1.082,6.477-1.932.6-.189,1.172-.383,1.668-.577,2.688-1.044,5.664-2.8,6.175-2.834.17-.01.444.189.722.515l.024.023a5.223,5.223,0,0,1,.808,1.3l0,.018a3.178,3.178,0,0,1,.293,1.4s-.01.061-.024.174c-.288,1.578-3.175,5.618-7.942,6.449l-2.06-.373-.09-.014a11.516,11.516,0,0,0-.028,2.924.051.051,0,0,0,.019.024c.473.487,7.356,2.164,12.572,5.972,0,0,9.283.581,13.455-.194a.066.066,0,0,0,.033,0,7.186,7.186,0,0,0,.931-.227c.033-.009.061-.023.094-.033a2.172,2.172,0,0,0,.435-.184.218.218,0,0,0,.033-.014" fill="#eab093"/>
        <g id="Group_12642" data-name="Group 12642" opacity="0.31">
          <g id="Group_12641" data-name="Group 12641">
            <g id="Group_12640" data-name="Group 12640" clip-path="url(#clip-path-4)">
              <path id="Path_10311" data-name="Path 10311" d="M50.683,17.355c.005.189.005.383,0,.567,0,.123,0,.236-.009.354-.01.246-.029.492-.052.728-.01.085-.019.17-.029.25-.028.265-.066.515-.108.761a16.939,16.939,0,0,1-.775,3.005,1.08,1.08,0,0,1-.043.122.21.21,0,0,1-.033.015,4.29,4.29,0,0,1-.434.184c-.034.009-.062.023-.1.033-3.869,1.408-13.153,1.351-13.153,1.351l2.107,2.551s-3.675-2.343-7.738-4.436a46.97,46.97,0,0,0-5.391-2.428,9.02,9.02,0,0,0-4.016-.742,8.859,8.859,0,0,0-5.849,3.354c.071-1.455.128-2.9.1-3.827-.067-2.305-.917-5.362-.8-6.137.926,1.163,7.633,1.147,8.475.879,3.938-1.258,8.117-6.25,8.146-7.2a1.524,1.524,0,0,0-.595-1.341,2.784,2.784,0,0,1,.718.51l.023.024a3.616,3.616,0,0,1,.808,1.294s0,.014,0,.019a4.774,4.774,0,0,1,.293,1.4s-.01.061-.024.175c-.009.09-.023.217-.038.368-.184,1.791-.708,7.394.062,8.131.916.874,6.623,1.054,6.982.156s.36-10.323.36-10.323c.335,2.858.155,10.394.245,10.819s4.342,1.1,4.81.354c.444-.689.959-5.13,1.025-5.683-.132,2.735-.6,6.907-.6,6.907.714.581,3.832.614,4.205.331a13.79,13.79,0,0,0,1.4-2.481.432.432,0,0,0,.019-.042" fill="#cd7575"/>
            </g>
          </g>
        </g>
        <g id="Group_12645" data-name="Group 12645" opacity="0.97">
          <g id="Group_12644" data-name="Group 12644">
            <g id="Group_12643" data-name="Group 12643" clip-path="url(#clip-path-5)">
              <path id="Path_10312" data-name="Path 10312" d="M24.212,8.222a.737.737,0,0,0,0,.629c.165.3,3.425.333,4.924-.508s.909-2.851.909-2.851Z" fill="#f1d8c1"/>
            </g>
          </g>
        </g>
        <g id="Group_12648" data-name="Group 12648" opacity="0.5">
          <g id="Group_12647" data-name="Group 12647">
            <g id="Group_12646" data-name="Group 12646" clip-path="url(#clip-path-6)">
              <path id="Path_10313" data-name="Path 10313" d="M19.454,14.386l2.76.507-.028.675s-.613-.287-2.732-1.182" fill="#d3728b"/>
            </g>
          </g>
        </g>
        <g id="Group_12651" data-name="Group 12651" opacity="0.3">
          <g id="Group_12650" data-name="Group 12650">
            <g id="Group_12649" data-name="Group 12649" clip-path="url(#clip-path-7)">
              <path id="Path_10314" data-name="Path 10314" d="M48.888,22.608l.78.534a47.879,47.879,0,0,1-13.716,1.583S24.42,19.717,22.1,17.8l.028-2.924s1.734.326,2.15.387a5.993,5.993,0,0,0,1.563-.288s.7,1.63,1.659,1.928a4.814,4.814,0,0,0,1.573.1,5.377,5.377,0,0,0,1.857-.369c.33-.236.689-3.359.689-3.359a69.887,69.887,0,0,0,0,7.12c.237.6,5.608,2.9,6.652,1.4,0,0,3.251.931,4.3.5A2.839,2.839,0,0,0,44,20.784s.147,1.7,1.46,2a3.374,3.374,0,0,0,2.986-.629,1.732,1.732,0,0,0,.156-.184,27.775,27.775,0,0,0,1.62-2.74L49.285,21.6Z" fill="#d3728b"/>
            </g>
          </g>
        </g>
        <path id="Path_10315" data-name="Path 10315" d="M28.18,63.248s2.669-20.084,2.135-22.054S22.407,34.1,19.567,32.756c.407.119,13.4,3.893,14.282,4.947.9,1.077-.241,19.039-5.669,25.545" fill="#a9725d"/>
        <path id="Path_10316" data-name="Path 10316" d="M24.212,8.222s-.068.7,1.553.821a6.658,6.658,0,0,0,3.562-.821,6.047,6.047,0,0,1-4.4.893c-2.809-.38-.71-.893-.71-.893" fill="#cd7575"/>
        <g id="Group_12654" data-name="Group 12654" opacity="0.97">
          <g id="Group_12653" data-name="Group 12653">
            <g id="Group_12652" data-name="Group 12652" clip-path="url(#clip-path-8)">
              <path id="Path_10317" data-name="Path 10317" d="M29.326,5.829a2.546,2.546,0,0,1,0,2.394s1.254-.613.719-2.73Z" fill="#fff"/>
            </g>
          </g>
        </g>
        <g id="Group_12657" data-name="Group 12657" opacity="0.97">
          <g id="Group_12656" data-name="Group 12656">
            <g id="Group_12655" data-name="Group 12655" clip-path="url(#clip-path-9)">
              <path id="Path_10318" data-name="Path 10318" d="M25.125,7.8a1.143,1.143,0,0,1-.455,1s-.441-.232-.458-.57Z" fill="#fff"/>
            </g>
          </g>
        </g>
        <path id="Path_10319" data-name="Path 10319" d="M50.683,17.355c.005.189.005.383,0,.567,0,.123,0,.236-.009.354-.01.246-.029.492-.052.728-.01.085-.019.17-.029.25-.028.265-.066.515-.108.761a16.939,16.939,0,0,1-.775,3.005,1.08,1.08,0,0,1-.043.122.21.21,0,0,1-.033.015,4.29,4.29,0,0,1-.434.184c-.034.009-.062.023-.1.033-3.869,1.408-13.153,1.351-13.153,1.351L22.095,17.8l.029-2.925a14.471,14.471,0,0,0,2.546.345c.827-.033,4.847-1.195,7.507-6.038-.184,1.791-.708,7.394.062,8.131.916.874,6.623,1.054,6.982.156s.36-10.323.36-10.323c.335,2.858.155,10.394.245,10.819s4.342,1.1,4.81.354c.444-.689.959-5.13,1.025-5.683-.132,2.735-.6,6.907-.6,6.907.714.581,3.832.614,4.205.331a13.79,13.79,0,0,0,1.4-2.481.432.432,0,0,0,.019-.042" fill="#cd7575"/>
        <path id="Path_10320" data-name="Path 10320" d="M24.476,8.1l-.265-2.977-.267,2.028-.776.118L22.84,8.7Z" fill="#cd7575"/>
        <g id="Group_12660" data-name="Group 12660" opacity="0.5">
          <g id="Group_12659" data-name="Group 12659">
            <g id="Group_12658" data-name="Group 12658" clip-path="url(#clip-path-10)">
              <path id="Path_10321" data-name="Path 10321" d="M37.566,22.263a32.581,32.581,0,0,0,1.656-4.791,44.7,44.7,0,0,0,.56-5.749s.112,5.241.044,6.245A17.55,17.55,0,0,1,38.267,21.8a6.982,6.982,0,0,1-.7.462" fill="#d3728b"/>
            </g>
          </g>
        </g>
        <g id="Group_12663" data-name="Group 12663" opacity="0.5">
          <g id="Group_12662" data-name="Group 12662">
            <g id="Group_12661" data-name="Group 12661" clip-path="url(#clip-path-11)">
              <path id="Path_10322" data-name="Path 10322" d="M44,20.786s.482-1.448.8-2.842.875-5.364.875-5.364-.536,5.982-.731,6.729A3.945,3.945,0,0,1,44,20.786" fill="#d3728b"/>
            </g>
          </g>
        </g>
        <g id="Group_12666" data-name="Group 12666" opacity="0.5">
          <g id="Group_12665" data-name="Group 12665">
            <g id="Group_12664" data-name="Group 12664" clip-path="url(#clip-path-12)">
              <path id="Path_10323" data-name="Path 10323" d="M25.838,14.977a12.173,12.173,0,0,0,6.339-5.791s-2,5.334-5.622,6.99Z" fill="#d3728b"/>
            </g>
          </g>
        </g>
        <path id="Path_10324" data-name="Path 10324" d="M32.177,9.186s-.261-1.824-1.23-2.273a1.724,1.724,0,0,0-.556-1.521,3.7,3.7,0,0,1,1.786,3.794" fill="#cd7575"/>
        <g id="Group_12669" data-name="Group 12669" opacity="0.97">
          <g id="Group_12668" data-name="Group 12668">
            <g id="Group_12667" data-name="Group 12667" clip-path="url(#clip-path-13)">
              <path id="Path_10325" data-name="Path 10325" d="M15.714,10.99s1.325.519,1.353,1.691-2.7.379-2.7.379.45-1.6,1.348-2.07" fill="#f0aa8a"/>
            </g>
          </g>
        </g>
        <g id="Group_12672" data-name="Group 12672" opacity="0.97">
          <g id="Group_12671" data-name="Group 12671">
            <g id="Group_12670" data-name="Group 12670" clip-path="url(#clip-path-14)">
              <path id="Path_10326" data-name="Path 10326" d="M26.212,2.316a16.811,16.811,0,0,0,3.114,1.492c1.541.507,2.2.089,2.2.089a7.743,7.743,0,0,0-5.311-1.581" fill="#f0cf9d"/>
            </g>
          </g>
        </g>
        <g id="Group_12675" data-name="Group 12675" opacity="0.97">
          <g id="Group_12674" data-name="Group 12674">
            <g id="Group_12673" data-name="Group 12673" clip-path="url(#clip-path-15)">
              <path id="Path_10327" data-name="Path 10327" d="M39.848,7.177a11.933,11.933,0,0,0,2.671,2.009A8.518,8.518,0,0,0,45.6,10.351S45.069,8.2,39.848,7.177" fill="#f0cf9d"/>
            </g>
          </g>
        </g>
        <g id="Group_12678" data-name="Group 12678" opacity="0.97">
          <g id="Group_12677" data-name="Group 12677">
            <g id="Group_12676" data-name="Group 12676" clip-path="url(#clip-path-16)">
              <path id="Path_10328" data-name="Path 10328" d="M34.835,4.345s1.5.8,2.73,1.358a4.72,4.72,0,0,0,1.667.547s-1.063-2.1-4.4-1.905" fill="#f0cf9d"/>
            </g>
          </g>
        </g>
        <g id="Group_12681" data-name="Group 12681" opacity="0.97">
          <g id="Group_12680" data-name="Group 12680">
            <g id="Group_12679" data-name="Group 12679" clip-path="url(#clip-path-17)">
              <path id="Path_10329" data-name="Path 10329" d="M45.667,12.581s1.17.63,2.708,1.671a12.046,12.046,0,0,1,2.112,2.082s-.434-2.269-4.82-3.753" fill="#f0cf9d"/>
            </g>
          </g>
        </g>
        <path id="Path_10330" data-name="Path 10330" d="M16.695,21.417a7.83,7.83,0,0,0,1.7,6.858c2.76,3.313,23.692,5.261,25.035,4.481S29.089,20.721,23.458,19.948s-6.763,1.469-6.763,1.469" fill="#f4bea6"/>
        <path id="Path_10331" data-name="Path 10331" d="M30.289,41.121A4.52,4.52,0,0,0,33.85,37.7L19.577,32.761s9.537,5.928,10.712,8.36" fill="#c5756c"/>
        <path id="Path_10332" data-name="Path 10332" d="M22.095,17.8a12.835,12.835,0,0,1,2.117-1.866,6.432,6.432,0,0,1,2-.335l-.374-.625a5.961,5.961,0,0,1-1.565.289,21.549,21.549,0,0,1-2.15-.387,12.385,12.385,0,0,0-.028,2.924" fill="#a63d52"/>
        <path id="Path_10333" data-name="Path 10333" d="M48.444,22.159s-.468,1.224-4.932,1.162S32.89,21.8,32.011,21.209c-.737-.5-2.29-3.179-2.942-4.2a5.377,5.377,0,0,0,1.857-.369c.33-.236.69-3.359.69-3.359a69.886,69.886,0,0,0,0,7.12c.236.6,5.607,2.9,6.652,1.4,0,0,3.25.931,4.294.5A2.842,2.842,0,0,0,44,20.784s.147,1.7,1.46,2a3.37,3.37,0,0,0,2.986-.628" fill="#a63d52"/>
        <path id="Path_10334" data-name="Path 10334" d="M50.22,19.235,49.285,21.6l-.685.373a28.063,28.063,0,0,0,1.62-2.74" fill="#a63d52"/>
        <g id="Group_12684" data-name="Group 12684" opacity="0.97">
          <g id="Group_12683" data-name="Group 12683">
            <g id="Group_12682" data-name="Group 12682" clip-path="url(#clip-path-18)">
              <path id="Path_10335" data-name="Path 10335" d="M47.1,33.945s1.5-5.61,2.313-10.16A28.194,28.194,0,0,0,47.1,33.945" fill="#f1d8c1"/>
            </g>
          </g>
        </g>
        <g id="Group_12687" data-name="Group 12687" opacity="0.97">
          <g id="Group_12686" data-name="Group 12686">
            <g id="Group_12685" data-name="Group 12685" clip-path="url(#clip-path-19)">
              <path id="Path_10336" data-name="Path 10336" d="M41.191,62.322S42.429,50.3,42.623,43.733c0,0,.6,12.651-.358,18.589Z" fill="#f1d8c1"/>
            </g>
          </g>
        </g>
        <g id="Group_12690" data-name="Group 12690" opacity="0.97">
          <g id="Group_12689" data-name="Group 12689">
            <g id="Group_12688" data-name="Group 12688" clip-path="url(#clip-path-20)">
              <path id="Path_10337" data-name="Path 10337" d="M15.716,28.44a6.206,6.206,0,0,0,3.513,3.745c2.746,1.074,9.28,2.822,9.28,2.822S18.32,32.274,15.716,28.44" fill="#f1d8c1"/>
            </g>
          </g>
        </g>
        <g id="Group_12693" data-name="Group 12693" opacity="0.97">
          <g id="Group_12692" data-name="Group 12692">
            <g id="Group_12691" data-name="Group 12691" clip-path="url(#clip-path-21)">
              <path id="Path_10338" data-name="Path 10338" d="M45.07,11.3a36.02,36.02,0,0,1-.627,6.506A11.045,11.045,0,0,0,45.07,11.3" fill="#f1d8c1"/>
            </g>
          </g>
        </g>
        <g id="Group_12696" data-name="Group 12696" opacity="0.97">
          <g id="Group_12695" data-name="Group 12695">
            <g id="Group_12694" data-name="Group 12694" clip-path="url(#clip-path-22)">
              <path id="Path_10339" data-name="Path 10339" d="M49.667,16.176a8.03,8.03,0,0,1-.658,3.61,3.489,3.489,0,0,0,.658-3.61" fill="#f1d8c1"/>
            </g>
          </g>
        </g>
        <g id="Group_12699" data-name="Group 12699" opacity="0.97">
          <g id="Group_12698" data-name="Group 12698">
            <g id="Group_12697" data-name="Group 12697" clip-path="url(#clip-path-23)">
              <path id="Path_10340" data-name="Path 10340" d="M38.707,7.15a39.305,39.305,0,0,1,0,9.534,16.842,16.842,0,0,0,0-9.534" fill="#f1d8c1"/>
            </g>
          </g>
        </g>
        <g id="Group_12702" data-name="Group 12702" opacity="0.97">
          <g id="Group_12701" data-name="Group 12701">
            <g id="Group_12700" data-name="Group 12700" clip-path="url(#clip-path-24)">
              <path id="Path_10341" data-name="Path 10341" d="M16.328,10.99a14.612,14.612,0,0,1,4.811-1.415,8.345,8.345,0,0,1-4.811,1.415" fill="#f1d8c1"/>
            </g>
          </g>
        </g>
        <g id="Group_12705" data-name="Group 12705" opacity="0.97">
          <g id="Group_12704" data-name="Group 12704">
            <g id="Group_12703" data-name="Group 12703" clip-path="url(#clip-path-25)">
              <path id="Path_10342" data-name="Path 10342" d="M14.784,14.185A10.073,10.073,0,0,1,15.9,17.8a34.4,34.4,0,0,1-.56,6s.221-7.005-.559-9.623" fill="#d4bdaa"/>
            </g>
          </g>
        </g>
        <g id="Group_12708" data-name="Group 12708" opacity="0.97">
          <g id="Group_12707" data-name="Group 12707">
            <g id="Group_12706" data-name="Group 12706" clip-path="url(#clip-path-26)">
              <path id="Path_10343" data-name="Path 10343" d="M28.555,62.769s3.549-13.487,2.852-20.41c0,0-1.4,8-2.852,20.41" fill="#f1d8c1"/>
            </g>
          </g>
        </g>
        <g id="Group_12711" data-name="Group 12711" opacity="0.97">
          <g id="Group_12710" data-name="Group 12710">
            <g id="Group_12709" data-name="Group 12709" clip-path="url(#clip-path-27)">
              <path id="Path_10344" data-name="Path 10344" d="M31.924,19.235c.167.791,2.592,2.755,4.4,2.189,0,0-2.238-.944-3.223-1.37s-1.181-.819-1.181-.819" fill="#f0a490"/>
            </g>
          </g>
        </g>
        <g id="Group_12714" data-name="Group 12714" opacity="0.97">
          <g id="Group_12713" data-name="Group 12713">
            <g id="Group_12712" data-name="Group 12712" clip-path="url(#clip-path-28)">
              <path id="Path_10345" data-name="Path 10345" d="M39.063,21.525s3.71,1.173,4.6-.739c0,0-2.615,1.209-4.6.739" fill="#f0a490"/>
            </g>
          </g>
        </g>
        <g id="Group_12717" data-name="Group 12717" opacity="0.97">
          <g id="Group_12716" data-name="Group 12716">
            <g id="Group_12715" data-name="Group 12715" clip-path="url(#clip-path-29)">
              <path id="Path_10346" data-name="Path 10346" d="M46.674,22.694a8.252,8.252,0,0,1,1.925-1,2.138,2.138,0,0,1-1.925,1" fill="#f0a490"/>
            </g>
          </g>
        </g>
        <path id="Path_10347" data-name="Path 10347" d="M32.521,17.5a7.194,7.194,0,0,0,3.637,1.071,3.449,3.449,0,0,0,3.064-1.1,10.4,10.4,0,0,1-6.7.027" fill="#a63d52"/>
        <path id="Path_10348" data-name="Path 10348" d="M40.2,18.2a3.191,3.191,0,0,0,1.912,1.177,2.751,2.751,0,0,0,2.335-.9A7.1,7.1,0,0,1,40.2,18.2" fill="#a63d52"/>
        <path id="Path_10349" data-name="Path 10349" d="M45.257,19.786a2.812,2.812,0,0,0,1.618.819,3.916,3.916,0,0,0,2.134-.638,7.59,7.59,0,0,1-3.752-.181" fill="#a63d52"/>
        <path id="Path_10350" data-name="Path 10350" d="M55.662,23.3s2.1-.051,2.225-.051a.528.528,0,0,0,.481-.277c.07-.208-.17-.414-.17-.414l-1.866-1.273Z" fill="#c1c1c1"/>
        <path id="Path_10351" data-name="Path 10351" d="M57.321,23.256c.3-.007.526-.012.565-.011a.534.534,0,0,0,.482-.278c.069-.207-.171-.414-.171-.414l-.508-.346Z" fill="#2d2e80"/>
        <g id="Group_12720" data-name="Group 12720" opacity="0.46" style="mix-blend-mode: normal;isolation: isolate">
          <g id="Group_12719" data-name="Group 12719">
            <g id="Group_12718" data-name="Group 12718" clip-path="url(#clip-path-30)">
              <path id="Path_10352" data-name="Path 10352" d="M55.662,23.3s2.1-.051,2.225-.051a.586.586,0,0,0,.443-.2l-2.42-.493Z" fill="#063"/>
            </g>
          </g>
        </g>
        <path id="Path_10353" data-name="Path 10353" d="M30.4,19.962q.623.191,1.244.368c-.207-.9.02-7.053.02-7.053l.418-3.04-.417-.114c-2.632,4.057-6.176,5.07-6.946,5.1a14.471,14.471,0,0,1-2.546-.345l-.024,2.4c2.162.76,4.85,1.643,8.251,2.681" fill="#90bc1f"/>
        <path id="Path_10354" data-name="Path 10354" d="M50.748,17.433a2.282,2.282,0,0,1-.016.37c-.188,1.391-2.243,4.356-2.243,4.356a3.373,3.373,0,0,1-2.986.629c-1.313-.3-1.459-2-1.459-2A2.839,2.839,0,0,1,42.608,22.3c-1.045.435-4.3-.5-4.3-.5a.882.882,0,0,1-.125.141A107.728,107.728,0,0,0,55,24.093a3.726,3.726,0,0,0,1.244-1.737,2.649,2.649,0,0,0-.16-2.066s-2.023-1.208-5.338-2.857" fill="#90bc1f"/>
        <g id="Group_12723" data-name="Group 12723" opacity="0.46" style="mix-blend-mode: normal;isolation: isolate">
          <g id="Group_12722" data-name="Group 12722">
            <g id="Group_12721" data-name="Group 12721" clip-path="url(#clip-path-31)">
              <path id="Path_10355" data-name="Path 10355" d="M30.4,19.962q.624.191,1.247.369a18.115,18.115,0,0,1-.086-2.576c-1.4-.388-2.639-.766-3.645-1.118-1.256-.441-2.542-.931-3.812-1.44-.858-.083-1.929-.318-1.929-.318l-.024,2.4c2.162.76,4.849,1.643,8.249,2.681" fill="#063"/>
              <path id="Path_10356" data-name="Path 10356" d="M45.5,22.788c-1.313-.3-1.46-2-1.46-2A2.842,2.842,0,0,1,42.608,22.3c-1.044.434-4.294-.5-4.294-.5a.94.94,0,0,1-.126.141A107.623,107.623,0,0,0,55,24.093a3.537,3.537,0,0,0,.8-.846l-.01-.033s-2.963-.575-7.043-1.432c-.155.236-.253.378-.253.378a3.374,3.374,0,0,1-2.986.628" fill="#063"/>
            </g>
          </g>
        </g>
        <path id="Path_10357" data-name="Path 10357" d="M55,24.094a3.731,3.731,0,0,0,1.244-1.737,2.645,2.645,0,0,0-.16-2.066s-.612-.366-1.712-.968a2.868,2.868,0,0,1-.03,2.387c-.545,1.65-1.169,2.1-1.419,2.213a.13.13,0,0,0-.061.052c1.361.1,2.138.119,2.138.119" fill="#d9d700"/>
        <g id="Group_12726" data-name="Group 12726" opacity="0.5" style="mix-blend-mode: normal;isolation: isolate">
          <g id="Group_12725" data-name="Group 12725">
            <g id="Group_12724" data-name="Group 12724" clip-path="url(#clip-path-32)">
              <path id="Path_10358" data-name="Path 10358" d="M31.662,10.124c-.134.207-.272.405-.411.6.243.064.489.131.735.2l.092-.681-.416-.114" fill="#fff"/>
              <path id="Path_10359" data-name="Path 10359" d="M50.748,17.435a2.279,2.279,0,0,1-.016.369v.008c1.855.891,3.705,1.856,5.528,2.9a2.213,2.213,0,0,0-.175-.421s-2.021-1.208-5.336-2.856" fill="#fff"/>
            </g>
          </g>
        </g>
        <path id="Path_10360" data-name="Path 10360" d="M29.989,19.838l.1-.046a12.941,12.941,0,0,0,1.466-2.151c.017-2.01.1-4.364.1-4.364l.417-3.037-.417-.115c-2.632,4.055-6.175,5.068-6.945,5.1a14.4,14.4,0,0,1-2.546-.344l-.024,2.4c2.076.73,4.633,1.572,7.843,2.557" fill="#008836"/>
        <g id="Group_12729" data-name="Group 12729" opacity="0.4">
          <g id="Group_12728" data-name="Group 12728">
            <g id="Group_12727" data-name="Group 12727" clip-path="url(#clip-path-33)">
              <path id="Path_10361" data-name="Path 10361" d="M30.4,19.962q.624.191,1.247.369a18.115,18.115,0,0,1-.086-2.576c-1.4-.388-2.639-.766-3.645-1.118-1.256-.441-2.542-.931-3.812-1.44-.858-.083-1.929-.318-1.929-.318l-.024,2.4c2.162.76,4.849,1.643,8.249,2.681" fill="#063"/>
            </g>
          </g>
        </g>
        <path id="Path_10362" data-name="Path 10362" d="M27.411,6.764c-3.931-.824-9.3-1.972-9.3-1.972s-1.958-.49-3.526,1.889,2.264.28,2.264.28-.135-1.4.7-1.269c.6.1,5.7,1.09,8.563,1.649Z" fill="#063"/>
        <path id="Path_10363" data-name="Path 10363" d="M26.536,7.152,23.18,6.491,17.8,5.466a.892.892,0,0,0-.593.274.508.508,0,0,1,.336-.048c.6.1,5.7,1.09,8.562,1.649Z" fill="#024220"/>
        <path id="Path_10364" data-name="Path 10364" d="M14.584,6.682s-1.327.43-2.173,3.048.045,3.4.281,3.521c.522.273,1.078.571,1.762.911a4.461,4.461,0,0,1-.088-1.1,4.322,4.322,0,0,1,1.7-2.329c.51-.293,3.822-1.082,6.477-1.932h0c.025-.337.051-.641.077-.907a56.2,56.2,0,0,0-8.039-1.209" fill="#008836"/>
        <g id="Group_12732" data-name="Group 12732" opacity="0.5" style="mix-blend-mode: normal;isolation: isolate">
          <g id="Group_12731" data-name="Group 12731">
            <g id="Group_12730" data-name="Group 12730" clip-path="url(#clip-path-34)">
              <path id="Path_10365" data-name="Path 10365" d="M22.623,7.889a56.168,56.168,0,0,0-8.039-1.208,2.223,2.223,0,0,0-.75.525l.947.3s3.01.3,7.771,1.224c.023-.309.047-.591.071-.838" fill="#fff"/>
            </g>
          </g>
        </g>
        <g id="Group_12735" data-name="Group 12735" opacity="0.46" style="mix-blend-mode: normal;isolation: isolate">
          <g id="Group_12734" data-name="Group 12734">
            <g id="Group_12733" data-name="Group 12733" clip-path="url(#clip-path-35)">
              <path id="Path_10366" data-name="Path 10366" d="M14.366,13.06a3.874,3.874,0,0,1,.971-1.7c-1.368-.648-2.42-1.168-2.983-1.449-.747,2.471.107,3.217.338,3.337.522.273,1.078.571,1.761.911a4.483,4.483,0,0,1-.087-1.1" fill="#063"/>
            </g>
          </g>
        </g>
        <path id="Path_10367" data-name="Path 10367" d="M14.866,10.2c1.085-3.34-.281-3.52-.281-3.52s-1.328.429-2.174,3.048.046,3.4.283,3.522c0,0,1.087.29,2.172-3.05" fill="#3aa535"/>
        <path id="Path_10368" data-name="Path 10368" d="M14.417,10.023c.866-2.666-.225-2.81-.225-2.81A4.928,4.928,0,0,0,12.7,9.824c-.675,2.09-.208,2.534-.019,2.633,0,0,.867.232,1.735-2.434" fill="#008836"/>
        <path id="Path_10369" data-name="Path 10369" d="M14.207,7.7s.868,0,.1,2.377-1.445,2.073-1.445,2.073L9.291,11.106c-.167-.089-.582-.5.019-2.367s1.331-2.085,1.331-2.085Z" fill="#c1c1c1"/>
        <path id="Path_10370" data-name="Path 10370" d="M10.737,9.029c.772-2.378-.1-2.377-.1-2.377s-.728.22-1.332,2.084-.187,2.28-.018,2.368c0,0,.673.3,1.445-2.075" fill="#e8e8e8"/>
        <path id="Path_10371" data-name="Path 10371" d="M32.106,7.774a4.833,4.833,0,0,1,.09.825c.229-.051.469-.112.722-.188,0,0,.206-.3-.812-.637" fill="#063"/>
        <path id="Path_10372" data-name="Path 10372" d="M32.178,8.266c.01.107.016.219.017.333q.345-.075.723-.187Z" fill="#024220"/>
        <g id="Group_12738" data-name="Group 12738" opacity="0.3" style="mix-blend-mode: normal;isolation: isolate">
          <g id="Group_12737" data-name="Group 12737">
            <g id="Group_12736" data-name="Group 12736" clip-path="url(#clip-path-36)">
              <path id="Path_10373" data-name="Path 10373" d="M31.6,20.33c-.207-.9.019-7.053.019-7.053s-.359,3.123-.689,3.359A5.383,5.383,0,0,1,29.069,17c.444.7,1.306,2.164,2.042,3.185l.485.14"/>
            </g>
          </g>
        </g>
        <g id="Group_12741" data-name="Group 12741" opacity="0.3" style="mix-blend-mode: normal;isolation: isolate">
          <g id="Group_12740" data-name="Group 12740">
            <g id="Group_12739" data-name="Group 12739" clip-path="url(#clip-path-37)">
              <path id="Path_10374" data-name="Path 10374" d="M45.458,22.788c-1.313-.3-1.46-2-1.46-2A2.842,2.842,0,0,1,42.562,22.3c-1.044.434-4.3-.5-4.3-.5a.842.842,0,0,1-.126.141c2.7.563,5.261.981,7.531,1.29,2.466-.275,2.772-1.072,2.772-1.072a3.374,3.374,0,0,1-2.986.628"/>
            </g>
          </g>
        </g>
        <g id="Group_12744" data-name="Group 12744" opacity="0.3" style="mix-blend-mode: normal;isolation: isolate">
          <g id="Group_12743" data-name="Group 12743">
            <g id="Group_12742" data-name="Group 12742" clip-path="url(#clip-path-38)">
              <path id="Path_10375" data-name="Path 10375" d="M22.42,17.393,22,17.244l.128-2.365a14.487,14.487,0,0,0,2.547.345,10.051,10.051,0,0,0,5.9-3.685s-2.539,4.357-3.548,4.8a7,7,0,0,0-4.6,1.059"/>
            </g>
          </g>
        </g>
      </g>
    </g>
  </g>
</svg>
