<svg id="reorder" xmlns="http://www.w3.org/2000/svg" xmlns:xlink="http://www.w3.org/1999/xlink" width="70" height="70" viewBox="0 0 70 70">
  <defs>
    <clipPath id="clip-path">
      <rect id="Rectangle_3483" data-name="Rectangle 3483" width="70" height="70" transform="translate(0 -1)" fill="none"/>
    </clipPath>
    <clipPath id="clip-path-2">
      <rect id="Rectangle_3479" data-name="Rectangle 3479" width="37" height="37" fill="none"/>
    </clipPath>
    <clipPath id="clip-path-3">
      <rect id="Rectangle_3478" data-name="Rectangle 3478" width="28.084" height="22.634" fill="none"/>
    </clipPath>
    <clipPath id="clip-path-4">
      <rect id="Rectangle_3481" data-name="Rectangle 3481" width="28.086" height="22.635" fill="none"/>
    </clipPath>
  </defs>
  <g id="Group_8802" data-name="Group 8802" transform="translate(0 1)" clip-path="url(#clip-path)">
    <g id="Group_14718" data-name="Group 14718" transform="translate(4)">
      <g id="Group_14716" data-name="Group 14716" transform="translate(13)">
        <g id="Group_14719" data-name="Group 14719">
          <g id="Group_8794" data-name="Group 8794">
            <g id="Group_8793" data-name="Group 8793" clip-path="url(#clip-path-2)">
              <g id="Group_8792" data-name="Group 8792" transform="translate(5.142 11.04)" opacity="0.3" style="mix-blend-mode: normal;isolation: isolate">
                <g id="Group_8791" data-name="Group 8791">
                  <g id="Group_8790" data-name="Group 8790" clip-path="url(#clip-path-3)">
                    <path id="Path_6457" data-name="Path 6457" d="M24.371,20.61a3.506,3.506,0,0,1,1.226.526,4.437,4.437,0,0,1,1.382,1.1q3.875,4.118,7.366,8.56C36,32.912,38.727,35.1,37.2,38.022a10.273,10.273,0,0,1-3.16,3.2A9.148,9.148,0,0,1,32.1,42.357c-1.764,1.043-4.294,1.212-5.78-.228a2.469,2.469,0,0,1-.445-.61,7.126,7.126,0,0,1-.35-.782l-1.881-4.751-1.877,4.749a3.814,3.814,0,0,1-.795,1.392,2.014,2.014,0,0,1-.533.374,1.858,1.858,0,0,1-.556.249,5.843,5.843,0,0,1-.862.188,6.938,6.938,0,0,1-3.036-.3A9.161,9.161,0,0,1,13.6,41.475c-.121-.083-.24-.168-.356-.255q-.2-.148-.393-.3l-.244-.188-.151-.118c-.1-.077-.194-.155-.29-.234l-.09-.074q-.16-.133-.316-.27l-.033-.03a7.1,7.1,0,0,1-1.644-1.987c-1.524-2.916.627-5.232,2.287-7.345,2.323-2.958,5.354-5.693,7.936-8.438a4.464,4.464,0,0,1,4.064-1.628" transform="translate(-9.567 -20.54)"/>
                  </g>
                </g>
              </g>
              <path id="Path_6458" data-name="Path 6458" d="M35.224,29.425a7.054,7.054,0,0,1-1.4,3.223c-1.523,1.892-5.142,2.679-7.047.836a3.816,3.816,0,0,1-.794-1.392l-3.247-8.2-1.446,3.656c-.4,1.016-1.106,2-.6,3.068.334.7,1.026,2.512.3,3.178a1.613,1.613,0,0,1-.648.318,7.7,7.7,0,0,1-6.632-1.531,10.267,10.267,0,0,1-3.161-3.2c-1.525-2.916.627-5.233,2.286-7.345,2.324-2.958,5.354-5.693,7.937-8.438a4.465,4.465,0,0,1,4.064-1.628,3.562,3.562,0,0,1,2.323,1.684c.554.959.632,2.136,1.191,3.093a9.629,9.629,0,0,0,.77,1.045,31.272,31.272,0,0,1,2,2.71c.232.376.376.8.574,1.2.622,1.254,1.98,2.21,2.769,3.4a6.071,6.071,0,0,1,.764,4.332" transform="translate(-4.637 -5.502)" fill="#bdbdbd"/>
              <path id="Path_6459" data-name="Path 6459" d="M17.58,44.758l4.175,2.195a1.052,1.052,0,0,1-.308.671,1.629,1.629,0,0,1-.648.318,7.7,7.7,0,0,1-6.633-1.532,12.353,12.353,0,0,1-2.774-2.578c-.059-.1-.117-.21-.171-.319a1.655,1.655,0,0,1-.2-.607,1.132,1.132,0,0,1,1.176-1.1c.675.01,1.086.577,1.545.981,1.035.909,2.615,1.326,3.836,1.967" transform="translate(-5.097 -19.337)" fill="#8a8a8a"/>
              <path id="Path_6460" data-name="Path 6460" d="M37.9,33.568A12.7,12.7,0,0,1,38.991,35.9a13.088,13.088,0,0,1,.815,2.39c.227,1.19-.138,4.639-2.026,4.356a1.825,1.825,0,0,1-.948-.495,7.243,7.243,0,0,1-.35-.784l-3.245-8.2-.512,1.3a2.732,2.732,0,0,1,.145-.8,2.65,2.65,0,0,1,3.041-1.646,3.526,3.526,0,0,1,1.987,1.55" transform="translate(-15.135 -14.78)" fill="#8a8a8a"/>
              <path id="Path_6461" data-name="Path 6461" d="M27.987,12.734a3.43,3.43,0,0,1,1.871,1.245q3.873,4.118,7.364,8.561c1.659,2.113,4.383,4.305,2.858,7.222a10.284,10.284,0,0,1-3.161,3.2c-1.472,1.105-3.668,2.189-4.99.909a3.808,3.808,0,0,1-.794-1.392l-3.247-8.206-3.245,8.205a3.814,3.814,0,0,1-.795,1.392c-1.322,1.28-3.518.2-4.99-.909a10.261,10.261,0,0,1-3.16-3.2c-1.525-2.916,1.2-5.111,2.858-7.222q3.485-4.437,7.363-8.56a3.9,3.9,0,0,1,1.606-1.186.906.906,0,0,1,.462-.059" transform="translate(-7.053 -5.886)" fill="#fff"/>
            </g>
          </g>
        </g>
      </g>
      <g id="Group_14717" data-name="Group 14717" transform="translate(13 31.284)">
        <g id="Group_14720" data-name="Group 14720" transform="translate(0 0)">
          <g id="Group_8799" data-name="Group 8799" transform="translate(5.14 10.847)" opacity="0.3" style="mix-blend-mode: normal;isolation: isolate">
            <g id="Group_8798" data-name="Group 8798">
              <g id="Group_8797" data-name="Group 8797" clip-path="url(#clip-path-4)">
                <path id="Path_6462" data-name="Path 6462" d="M24.369,43.145a3.507,3.507,0,0,0,1.226-.526,4.437,4.437,0,0,0,1.382-1.1q3.875-4.118,7.366-8.56C36,30.843,38.725,28.651,37.2,25.732a10.29,10.29,0,0,0-3.161-3.2A9.148,9.148,0,0,0,32.1,21.4c-1.764-1.043-4.294-1.212-5.78.228a2.469,2.469,0,0,0-.445.61,7.15,7.15,0,0,0-.35.784L23.639,27.77l-1.88-4.751a3.814,3.814,0,0,0-.795-1.392,2,2,0,0,0-.533-.374A1.858,1.858,0,0,0,19.875,21a5.824,5.824,0,0,0-.862-.187,6.935,6.935,0,0,0-3.035.3A9.156,9.156,0,0,0,13.6,22.281q-.181.124-.356.255c-.131.1-.262.2-.393.3l-.243.188-.152.118c-.1.077-.194.155-.29.234l-.089.074q-.161.133-.317.27l-.033.03a7.089,7.089,0,0,0-1.644,1.987c-1.525,2.916.627,5.232,2.286,7.344,2.323,2.959,5.354,5.694,7.936,8.439a4.465,4.465,0,0,0,4.064,1.628" transform="translate(-9.562 -20.581)"/>
              </g>
            </g>
          </g>
          <path id="Path_6463" data-name="Path 6463" d="M35.224,18.5a7.054,7.054,0,0,0-1.4-3.223c-1.523-1.892-5.142-2.679-7.047-.836a3.816,3.816,0,0,0-.794,1.392l-3.247,8.2-1.446-3.656c-.4-1.016-1.106-2-.6-3.068.334-.7,1.026-2.512.3-3.178a1.613,1.613,0,0,0-.648-.318,7.7,7.7,0,0,0-6.632,1.531,10.267,10.267,0,0,0-3.161,3.2c-1.525,2.916.627,5.233,2.286,7.345,2.324,2.958,5.354,5.693,7.937,8.438a4.465,4.465,0,0,0,4.064,1.628,3.562,3.562,0,0,0,2.323-1.684c.554-.959.632-2.136,1.191-3.093a9.688,9.688,0,0,1,.77-1.045,31.181,31.181,0,0,0,2-2.709c.232-.376.376-.8.574-1.2.622-1.254,1.98-2.21,2.769-3.4a6.071,6.071,0,0,0,.764-4.332" transform="translate(-4.637 -6.41)" fill="#bdbdbd"/>
          <path id="Path_6464" data-name="Path 6464" d="M17.58,17.156l4.175-2.195a1.052,1.052,0,0,0-.308-.671,1.629,1.629,0,0,0-.648-.318A7.7,7.7,0,0,0,14.166,15.5a12.365,12.365,0,0,0-2.774,2.578c-.059.1-.117.21-.171.319a1.655,1.655,0,0,0-.2.608A1.129,1.129,0,0,0,12.2,20.1c.675-.009,1.086-.576,1.545-.98,1.035-.909,2.615-1.325,3.836-1.967" transform="translate(-5.097 -6.564)" fill="#8a8a8a"/>
          <path id="Path_6465" data-name="Path 6465" d="M37.9,24.621a12.7,12.7,0,0,0,1.093-2.333,13.088,13.088,0,0,0,.815-2.39c.227-1.19-.138-4.639-2.026-4.356a1.825,1.825,0,0,0-.948.495,7.243,7.243,0,0,0-.35.784l-3.245,8.2-.512-1.3a2.732,2.732,0,0,0,.145.8,2.65,2.65,0,0,0,3.041,1.646,3.526,3.526,0,0,0,1.987-1.55" transform="translate(-15.135 -7.396)" fill="#8a8a8a"/>
          <path id="Path_6466" data-name="Path 6466" d="M27.987,35.976a3.43,3.43,0,0,0,1.871-1.245q3.873-4.118,7.364-8.56c1.659-2.114,4.383-4.306,2.858-7.223a10.284,10.284,0,0,0-3.161-3.2c-1.472-1.105-3.668-2.189-4.99-.909a3.8,3.8,0,0,0-.794,1.392l-3.247,8.206-3.245-8.205a3.814,3.814,0,0,0-.795-1.392c-1.322-1.28-3.518-.2-4.99.909a10.261,10.261,0,0,0-3.16,3.2c-1.525,2.916,1.2,5.111,2.858,7.222q3.485,4.437,7.363,8.56a3.9,3.9,0,0,0,1.606,1.186.906.906,0,0,0,.462.059" transform="translate(-7.053 -6.811)" fill="#fff"/>
        </g>
      </g>
    </g>
  </g>
</svg>
