<svg id="minus" xmlns="http://www.w3.org/2000/svg" width="70" height="70" viewBox="0 0 70 70">
  <rect id="frame" width="70" height="70" fill="none"/>
  <path id="Path_5583" data-name="Path 5583" d="M53.411,69.012c-3.467-.165-6.961-.772-10.376-.937-3.843-.187-7.748.463-11.6.416a14.221,14.221,0,0,1-4.8-.671,6.666,6.666,0,0,1-3.786-3.368,8.787,8.787,0,0,1-.5-5.017,6.668,6.668,0,0,1,.817-2.46c1.25-2.007,3.709-2.245,5.858-2.291q7.242-.157,14.488-.1c6.449.058,12.983.251,19.228,2.269A5.242,5.242,0,0,1,64.773,57.9C66.185,59.2,66.3,61.592,66.3,63.67a4,4,0,0,1-.129,1.225,2.893,2.893,0,0,1-.8,1.153c-3.19,3.084-7.77,3.161-11.958,2.963" transform="translate(-9.22 -22.738)" opacity="0.3"/>
  <path id="Path_5584" data-name="Path 5584" d="M53.411,62.011c-3.467-.165-6.961-.772-10.376-.937-3.843-.187-7.748.463-11.6.416a14.221,14.221,0,0,1-4.8-.671,6.666,6.666,0,0,1-3.786-3.368,8.787,8.787,0,0,1-.5-5.017,6.668,6.668,0,0,1,.817-2.46c1.25-2.007,3.709-2.245,5.858-2.291q7.242-.157,14.488-.1c6.449.058,12.983.251,19.228,2.269A5.242,5.242,0,0,1,64.773,50.9C66.185,52.2,66.3,54.591,66.3,56.669a4,4,0,0,1-.129,1.225,2.893,2.893,0,0,1-.8,1.153c-3.19,3.084-7.77,3.16-11.958,2.963" transform="translate(-9.22 -19.821)" fill="#b9b9b9"/>
  <path id="Path_5585" data-name="Path 5585" d="M53.411,56.942c-3.467-.141-6.961-.662-10.376-.8-3.845-.161-7.748.4-11.6.355a16.421,16.421,0,0,1-4.8-.575,6.44,6.44,0,0,1-3.786-2.886,6.533,6.533,0,0,1-.5-4.3,5.176,5.176,0,0,1,.817-2.109c1.25-1.72,3.709-1.925,5.858-1.964q7.242-.135,14.488-.083c6.449.048,12.983.215,19.228,1.944a5.618,5.618,0,0,1,2.036.894c1.412,1.119,1.528,3.166,1.524,4.947a2.963,2.963,0,0,1-.129,1.05,2.515,2.515,0,0,1-.8.989c-3.19,2.643-7.77,2.708-11.958,2.539" transform="translate(-9.221 -18.569)" fill="#fff"/>
</svg>
