<svg id="forwards" xmlns="http://www.w3.org/2000/svg" width="70" height="70" viewBox="0 0 70 70">
  <rect id="frame" width="70" height="70" fill="none"/>
  <path id="Path_5392" data-name="Path 5392" d="M63.614,49.763a6.536,6.536,0,0,0-.978-2.283,8.266,8.266,0,0,0-2.051-2.571q-7.661-7.206-15.927-13.7c-3.931-3.087-8.01-8.154-13.437-5.317-2.479,1.3-4.255,3.624-5.949,5.881a16.976,16.976,0,0,0-2.114,3.614c-1.94,3.282-2.255,7.989.424,10.754a4.6,4.6,0,0,0,1.133.827,13.424,13.424,0,0,0,1.455.652l8.839,3.5-8.839,3.5a7.094,7.094,0,0,0-2.589,1.479,3.737,3.737,0,0,0-.7.995,3.453,3.453,0,0,0-.463,1.035,10.769,10.769,0,0,0-.347,1.6,12.907,12.907,0,0,0,.551,5.647A17.043,17.043,0,0,0,24.8,69.8c.153.225.312.446.474.662.183.243.367.488.553.731.116.152.233.3.351.453.073.094.145.188.219.282.143.181.289.36.435.54l.138.167q.248.3.5.588l.055.061a13.2,13.2,0,0,0,3.7,3.058c5.427,2.837,9.734-1.166,13.665-4.253,5.5-4.322,10.592-9.961,15.7-14.765,2.055-1.933,3.642-4.64,3.029-7.56" transform="translate(-4.247 -10.441)" opacity="0.3"/>
  <path id="Path_5393" data-name="Path 5393" d="M29.892,22.312a13.128,13.128,0,0,0-6,2.6c-3.52,2.834-4.985,9.568-1.555,13.11A7.1,7.1,0,0,0,24.93,39.5l15.265,6.041-6.8,2.691c-1.891.748-3.726,2.057-5.707,1.115-1.306-.622-4.673-1.908-5.913-.549A3.016,3.016,0,0,0,21.182,50c-1.264,4.234.253,8.88,2.85,12.339,1.694,2.256,3.471,4.584,5.949,5.88,5.427,2.837,9.734-1.165,13.665-4.253,5.5-4.323,10.592-9.962,15.7-14.766,2.055-1.933,3.642-4.64,3.029-7.56a6.631,6.631,0,0,0-3.133-4.322c-1.785-1.03-3.974-1.177-5.755-2.214a17.96,17.96,0,0,1-1.944-1.431,58.029,58.029,0,0,0-5.04-3.724c-.7-.431-1.489-.7-2.227-1.068-2.332-1.157-4.111-3.684-6.322-5.152a11.291,11.291,0,0,0-8.06-1.421" transform="translate(-3.157 -9.218)" fill="#bebebe"/>
  <path id="Path_5394" data-name="Path 5394" d="M78.054,74.639,73.97,66.871a1.96,1.96,0,0,0-1.248.572,3.018,3.018,0,0,0-.592,1.206c-1.264,4.234.253,8.881,2.85,12.339a23.006,23.006,0,0,0,4.8,5.16c.2.11.391.218.593.318a3.076,3.076,0,0,0,1.131.373,2.1,2.1,0,0,0,2.039-2.188c-.017-1.256-1.073-2.02-1.825-2.876-1.689-1.924-2.466-4.866-3.66-7.136" transform="translate(-54.105 -27.863)" fill="#8b8b8b"/>
  <path id="Path_5395" data-name="Path 5395" d="M71.681,44.785a23.712,23.712,0,0,0-4.34-2.034,24.383,24.383,0,0,0-4.447-1.514c-2.214-.422-8.629.257-8.1,3.769a3.4,3.4,0,0,0,.918,1.76,13.425,13.425,0,0,0,1.455.652l15.265,6.04-2.413.955a5.105,5.105,0,0,0,1.486-.27,4.929,4.929,0,0,0,3.062-5.656,6.559,6.559,0,0,0-2.883-3.7" transform="translate(-35.39 -17.136)" fill="#8b8b8b"/>
  <path id="Path_5396" data-name="Path 5396" d="M62.214,36.568a6.386,6.386,0,0,0-2.316-3.48q-7.661-7.206-15.927-13.7c-3.931-3.087-8.01-8.154-13.437-5.317-2.479,1.3-4.255,3.624-5.949,5.88-2.056,2.738-4.073,6.824-1.691,9.283a7.092,7.092,0,0,0,2.589,1.478l15.265,6.041-15.265,6.04a7.085,7.085,0,0,0-2.589,1.479c-2.382,2.459-.366,6.545,1.691,9.283,1.694,2.256,3.47,4.584,5.949,5.88,5.427,2.837,9.506-2.229,13.437-5.316q8.257-6.485,15.927-13.7A7.262,7.262,0,0,0,62.1,37.428a1.7,1.7,0,0,0,.11-.86" transform="translate(-3.711 -5.515)" fill="#fff"/>
</svg>
