<svg id="recounts" xmlns="http://www.w3.org/2000/svg" xmlns:xlink="http://www.w3.org/1999/xlink" width="70" height="70" viewBox="0 0 70 70">
  <defs>
    <clipPath id="clip-path">
      <rect id="Rectangle_4792" data-name="Rectangle 4792" width="30.413" height="32.082" transform="translate(22.733 14.123)" fill="none"/>
    </clipPath>
    <clipPath id="clip-path-2">
      <rect id="Rectangle_4793" data-name="Rectangle 4793" width="33.06" height="19.215" transform="translate(18.708 16.111)" fill="none"/>
    </clipPath>
    <clipPath id="clip-path-3">
      <rect id="Rectangle_4796" data-name="Rectangle 4796" width="30.233" height="30.238" transform="translate(21.569 16.109)" fill="none"/>
    </clipPath>
    <clipPath id="clip-path-4">
      <rect id="Rectangle_4781" data-name="Rectangle 4781" width="31.85" height="31.976" transform="translate(1.278 37.699)" fill="none"/>
    </clipPath>
    <clipPath id="clip-path-5">
      <rect id="Rectangle_4782" data-name="Rectangle 4782" width="28.093" height="28.26" transform="translate(3.847 38.069)" fill="none"/>
    </clipPath>
    <clipPath id="clip-path-6">
      <rect id="Rectangle_4783" data-name="Rectangle 4783" width="27.592" height="26.233" transform="translate(2.333 36.646)" fill="none"/>
    </clipPath>
    <clipPath id="clip-path-7">
      <rect id="Rectangle_4784" data-name="Rectangle 4784" width="1.394" height="2.102" transform="translate(31.157 36.093)" fill="none"/>
    </clipPath>
  </defs>
  <path id="Path_10419" data-name="Path 10419" d="M55.8,36.92a20.536,20.536,0,0,1-5.095,13.545,20.71,20.71,0,0,1-3.284,3.012A20.55,20.55,0,0,1,18.7,24.749,20.549,20.549,0,0,1,55.8,36.92" transform="translate(0)" opacity="0.3"/>
  <path id="Path_10420" data-name="Path 10420" d="M35.259,7.238A30.088,30.088,0,0,0,5.373,33.708H0v2.556H0L7.632,43.9l7.633-7.632h0V33.708H10.484A25.032,25.032,0,1,1,35.256,62.386l0,5.063a29.921,29.921,0,0,0,17.824-5.843A30.328,30.328,0,0,0,57.9,57.194,30.11,30.11,0,0,0,35.259,7.238" transform="translate(0)" opacity="0.3"/>
  <path id="Path_10421" data-name="Path 10421" d="M55.8,34.79a20.536,20.536,0,0,1-5.095,13.545,20.709,20.709,0,0,1-3.284,3.012A20.55,20.55,0,0,1,18.7,22.619,20.549,20.549,0,0,1,55.8,34.79" transform="translate(0)" fill="#472172"/>
  <path id="Path_10422" data-name="Path 10422" d="M55.8,32.66a20.536,20.536,0,0,1-5.095,13.545,20.709,20.709,0,0,1-3.284,3.012A20.55,20.55,0,0,1,18.7,20.489,20.549,20.549,0,0,1,55.8,32.66" transform="translate(0)" fill="#735bd2"/>
  <path id="Path_10423" data-name="Path 10423" d="M52.347,32.658A17.091,17.091,0,1,1,35.256,15.567,17.088,17.088,0,0,1,52.347,32.658" transform="translate(0)" fill="#472172"/>
  <g id="Group_12780" data-name="Group 12780" transform="translate(0)" opacity="0.25" style="mix-blend-mode: lighten;isolation: isolate">
    <g id="Group_12779" data-name="Group 12779">
      <g id="Group_12778" data-name="Group 12778" clip-path="url(#clip-path)">
        <path id="Path_10424" data-name="Path 10424" d="M53.145,42.768a20.406,20.406,0,0,1-2.439,3.437L22.732,16.365a20.435,20.435,0,0,1,3.633-2.242Z" fill="#fff"/>
      </g>
    </g>
  </g>
  <path id="Path_10425" data-name="Path 10425" d="M51.8,32.66A16.543,16.543,0,1,1,35.256,16.109,16.523,16.523,0,0,1,51.8,32.66" transform="translate(0)" fill="#f1d2a1"/>
  <g id="Group_12781" data-name="Group 12781" transform="translate(0)" clip-path="url(#clip-path-2)">
    <path id="Path_10426" data-name="Path 10426" d="M18.89,34.294a16.547,16.547,0,0,1,32.878-2.668,16.546,16.546,0,1,0-32.843,3.7c-.021-.341-.035-.685-.035-1.032" fill="#eab998"/>
  </g>
  <path id="Path_10427" data-name="Path 10427" d="M34.474,19.364a1.148,1.148,0,0,1,.214-.035c.115-.007.165.019.15.077q-.191.719-.466,1.994-.311,1.427-.454,2c-.007.03-.053.065-.141.1a1.085,1.085,0,0,1-.262.08c-.2.036-.291.016-.272-.061q.147-.585.435-1.918.271-1.242.444-1.917a2.643,2.643,0,0,1-.383.083.362.362,0,0,1-.144-.01c-.06-.019-.065-.051-.016-.1a.835.835,0,0,1,.457-.163,1.6,1.6,0,0,0,.205-.057c.117-.041.195-.066.233-.077" transform="translate(0)" fill="#1b1464"/>
  <path id="Path_10428" data-name="Path 10428" d="M35.814,22.686l-.313.3a3.738,3.738,0,0,0-.3.31,3.59,3.59,0,0,1,.528.023c.191.021.317.033.377.035l.144,0c.226-.071.363-.082.438-.035.044.028.027.066-.052.115a.709.709,0,0,1-.153.073,2.311,2.311,0,0,1-1.01.1l-.422-.042a1.314,1.314,0,0,0-.332.013.629.629,0,0,1-.17.006c-.1,0-.132-.026-.1-.067s.08-.109.125-.163q.122-.141.345-.355.271-.255.358-.345a6.463,6.463,0,0,0,.591-.713,4.505,4.505,0,0,0,.46-.8,2.738,2.738,0,0,0,.259-.869.643.643,0,0,0-.182-.585.48.48,0,0,0-.156.147,3.478,3.478,0,0,0-.56,1.461c0,.027-.051.061-.14.1a1.02,1.02,0,0,1-.259.083c-.2.034-.288.013-.275-.064a4.692,4.692,0,0,1,.236-.86,2.434,2.434,0,0,1,.406-.706,1.433,1.433,0,0,1,.876-.47q.489-.077.652.243a.962.962,0,0,1,.054.671,4.278,4.278,0,0,1-.805,1.678,7.763,7.763,0,0,1-.617.713" transform="translate(0)" fill="#1b1464"/>
  <path id="Path_10429" data-name="Path 10429" d="M36.329,43q.271.308.016,1.084c-.026.078-.159.14-.4.185-.208.038-.3.017-.275-.064a1.855,1.855,0,0,0,.112-.6c0-.229-.052-.37-.156-.428a1.49,1.49,0,0,0-.25.339,4.705,4.705,0,0,0-.428,1.125,7.531,7.531,0,0,0-.188,1.036,2.257,2.257,0,0,1,.744-.256c.32-.038.5.068.54.32a1.6,1.6,0,0,1-.338,1.144,1.294,1.294,0,0,1-.71.521c-.356.106-.609.044-.761-.189a1.4,1.4,0,0,1-.191-.764,6.188,6.188,0,0,1,.115-1.157,6.427,6.427,0,0,1,.338-1.23,2.21,2.21,0,0,1,.557-.876,1.5,1.5,0,0,1,.639-.291q.458-.1.636.1m-1.122,2.733a.909.909,0,0,1-.463.131,2.56,2.56,0,0,0,.041.882.938.938,0,0,0,.173.339.4.4,0,0,0,.1-.112,2.05,2.05,0,0,0,.284-.677.667.667,0,0,0-.045-.537.563.563,0,0,0-.051-.045l-.038.022,0,0" transform="translate(0)" fill="#1b1464"/>
  <path id="Path_10430" data-name="Path 10430" d="M23.65,31.3a3.607,3.607,0,0,1-.137,1.218,3.933,3.933,0,0,1-.352.94,4.324,4.324,0,0,1-.642.8,1.848,1.848,0,0,1-.5.383,1.257,1.257,0,0,1-.47.128.366.366,0,0,1-.268-.051c-.066-.053,0-.116.2-.188a1.241,1.241,0,0,1,.259-.071,3.553,3.553,0,0,0,.272-.275,4.742,4.742,0,0,0,.454-.581,3.359,3.359,0,0,0,.275-.659c.015-.042.03-.09.044-.144a1.351,1.351,0,0,1-.444.115.641.641,0,0,1-.636-.233.909.909,0,0,1-.153-.467,1.7,1.7,0,0,1,.262-1.112,1.08,1.08,0,0,1,.457-.4,1.265,1.265,0,0,1,.831-.125.718.718,0,0,1,.54.719m-.8,1.055.054-.01c.024-.119.042-.234.055-.345a1.342,1.342,0,0,0-.167-1.007.494.494,0,0,0-.179-.131.32.32,0,0,0-.118.119,1.6,1.6,0,0,0-.249,1.093.813.813,0,0,0,.163.441.213.213,0,0,0,.038.035c.007-.041.054-.075.141-.115a1.085,1.085,0,0,1,.262-.08" transform="translate(0)" fill="#1b1464"/>
  <path id="Path_10431" data-name="Path 10431" d="M49.164,32.289a2.7,2.7,0,0,1-.537.79.548.548,0,0,1,.24.421.976.976,0,0,1-.064.566,1.341,1.341,0,0,1-.329.473,1.43,1.43,0,0,1-.742.361.816.816,0,0,1-.595-.063.514.514,0,0,1-.239-.416.771.771,0,0,1,.124-.476.592.592,0,0,1,.4-.186.9.9,0,0,1,.17-.009c.095,0,.13.027.1.07a.572.572,0,0,0-.039.668.392.392,0,0,0,.164.138l.031-.032a1,1,0,0,0,.342-.675,1.081,1.081,0,0,0-.131-.534.769.769,0,0,1-.195.02.169.169,0,0,1-.1-.026c-.029-.023-.025-.051.013-.083a1.016,1.016,0,0,1,.15-.1,2.476,2.476,0,0,0,.675-1.052,1.476,1.476,0,0,0,.061-1.24.559.559,0,0,0-.173-.189,1.222,1.222,0,0,0-.144.166A1.391,1.391,0,0,0,48.01,31.9c.015.079-.092.147-.32.2s-.349.05-.364-.023a1.249,1.249,0,0,1,.153-.741,1.538,1.538,0,0,1,.985-.9.768.768,0,0,1,.694.051.711.711,0,0,1,.281.47,2.215,2.215,0,0,1-.275,1.323" transform="translate(0)" fill="#1b1464"/>
  <rect id="Rectangle_4794" data-name="Rectangle 4794" width="2.364" height="8.365" transform="translate(34.074 24.929)" fill="#1b1464"/>
  <rect id="Rectangle_4795" data-name="Rectangle 4795" width="1.364" height="11.297" transform="translate(34.274 33.107) rotate(-60.001)" fill="#ed1c24"/>
  <path id="Path_10432" data-name="Path 10432" d="M36.665,33.067a1.41,1.41,0,1,1-1.409-1.409,1.409,1.409,0,0,1,1.409,1.409" transform="translate(0)" fill="#1b1464"/>
  <g id="Group_12786" data-name="Group 12786" transform="translate(0)" opacity="0.25" style="mix-blend-mode: lighten;isolation: isolate">
    <g id="Group_12785" data-name="Group 12785">
      <g id="Group_12784" data-name="Group 12784" clip-path="url(#clip-path-3)">
        <path id="Path_10433" data-name="Path 10433" d="M51.8,32.66a16.523,16.523,0,0,1-7.25,13.687L21.569,23.364A16.543,16.543,0,0,1,51.8,32.66" fill="#fff"/>
      </g>
    </g>
  </g>
  <path id="Path_10434" data-name="Path 10434" d="M35.259,5.108A30.088,30.088,0,0,0,5.373,31.578H0v2.556H0l7.632,7.632,7.633-7.632h0V31.578H10.484A25.032,25.032,0,1,1,35.256,60.256l0,5.063a29.921,29.921,0,0,0,17.824-5.843A30.328,30.328,0,0,0,57.9,55.064,30.11,30.11,0,0,0,35.259,5.108" transform="translate(0)" fill="#afafaf"/>
  <path id="Path_10435" data-name="Path 10435" d="M35.259,2.551A30.092,30.092,0,0,0,5.172,31.577H0l7.632,7.632,7.633-7.632H10.242A25.03,25.03,0,1,1,35.256,57.7l0,5.062a29.921,29.921,0,0,0,17.824-5.843A30.328,30.328,0,0,0,57.9,52.507,30.11,30.11,0,0,0,35.259,2.551" transform="translate(0)" fill="#fff"/>
  <g id="pen" transform="translate(-0.698 0.039)">
    <g id="Group_12753" data-name="Group 12753" opacity="0.3">
      <g id="Group_12752" data-name="Group 12752">
        <g id="Group_12751" data-name="Group 12751" clip-path="url(#clip-path-4)">
          <path id="Path_10393" data-name="Path 10393" d="M33.129,38.027v-.039a.524.524,0,0,0-.029-.156l-.008.01a.422.422,0,0,0-.032-.068c-.127-.137-.38-.042-.38-.042L31,38.585a2.28,2.28,0,0,0-.5-.157h0l-.062-.01c-.037-.006-.075-.014-.113-.018s-.079-.006-.119-.009-.062-.006-.093-.006A90.728,90.728,0,0,0,13.389,51.57c-5.759,5.9-8.054,8.8-9.375,10.669-.167-.081-.723-.377-.719-.751a.437.437,0,0,1,.026-.134l0-.015a.422.422,0,0,1,.068-.118l0,0c.442-.569,5.818-7.02,5.818-7.02H9.22c.108-.01,1.825-.226,2.509-3.315.005-.023.011-.045.016-.068,0,0-.222-.443-1.423,1.012s-7.368,8.6-7.368,8.6-1.17,1.265-.032,3.414a1.332,1.332,0,0,0,0,.342,1.946,1.946,0,0,0,.069.37,3.3,3.3,0,0,0,.13.4L1.364,66.7a.254.254,0,0,0-.08.078.969.969,0,0,0,.076.471,4.024,4.024,0,0,0,.9,1.337c.014.015.026.029.041.044.78.828,1.252,1.027,1.517,1.041a.4.4,0,0,0,.249-.054l1.744-1.744.068.03c.022.01.043.017.064.025.044.017.088.034.129.048L6.126,68c.041.012.082.024.121.033l.048.009c.038.008.076.015.112.02l.041,0c.035,0,.07.007.1.008h.032c.033,0,.066,0,.1,0l.018,0a.816.816,0,0,0,.368-.111C8.92,66.716,11.408,65.2,19.074,57.738h0c.086-.085.17-.166.258-.252A90.049,90.049,0,0,0,31.042,43.1q.282-.427.512-.788h0c.629-.98.966-1.552.966-1.552v0h0c-.013-.08-.029-.16-.048-.239,0-.014-.008-.028-.011-.042-.017-.063-.034-.126-.053-.188-.007-.022-.016-.043-.023-.065-.02-.058-.041-.116-.065-.173l-.01-.025c-.024-.056-.048-.112-.075-.167.165-.319.788-1.526.834-1.608a.434.434,0,0,0,.041-.1.336.336,0,0,0,.011-.062.537.537,0,0,0,.007-.056"/>
        </g>
      </g>
    </g>
    <path id="Path_10394" data-name="Path 10394" d="M2.342,62.1c-1.138-2.15.032-3.415.032-3.415s6.166-7.147,7.368-8.6,1.423-1.011,1.423-1.011c-.7,3.257-2.53,3.383-2.53,3.383s-5.376,6.452-5.819,7.021.664,1.043.664,1.043,0,3.731-1.138,1.581" fill="#063"/>
    <path id="Path_10395" data-name="Path 10395" d="M3.733,64.978C2.121,63.271,2.342,62.1,2.342,62.1c1.265-1.865,2.783-4.4,10.467-12.269A90.759,90.759,0,0,1,29.538,36.645a2.263,2.263,0,0,1,1.613.727,3.192,3.192,0,0,1,.79,1.645A90.808,90.808,0,0,1,18.754,55.745C10.88,63.431,8.36,64.962,6.485,66.211c-.19.128-1.14.475-2.752-1.233" fill="#90bc1f"/>
    <path id="Path_10396" data-name="Path 10396" d="M31.615,38.195s.821-1.591.874-1.686a.452.452,0,0,0-.011-.474c-.126-.137-.379-.042-.379-.042l-1.718.875Z" fill="#c1c1c1"/>
    <path id="Path_10397" data-name="Path 10397" d="M31.941,39.019a3.189,3.189,0,0,0-.79-1.644,2.26,2.26,0,0,0-1.613-.728s-.525.308-1.427.885c.071-.005.813-.03,1.775,1,1.012,1.085,1.1,1.738,1.075,1.97a.1.1,0,0,0,.014.067c.63-.979.966-1.552.966-1.552" fill="#d9d700"/>
    <path id="Path_10398" data-name="Path 10398" d="M6.485,66.213C8.339,64.977,10.828,63.461,18.494,56l.008-.1a11.026,11.026,0,0,0-2.53-3.858,6.314,6.314,0,0,0-3.381-1.988C5.1,57.752,3.6,60.255,2.342,62.1c0,0-.221,1.17,1.391,2.878S6.3,66.34,6.485,66.213" fill="#008836"/>
    <g id="Group_12756" data-name="Group 12756" opacity="0.46" style="mix-blend-mode: normal;isolation: isolate">
      <g id="Group_12755" data-name="Group 12755">
        <g id="Group_12754" data-name="Group 12754" clip-path="url(#clip-path-5)">
          <path id="Path_10399" data-name="Path 10399" d="M6.484,66.213c1.876-1.25,4.395-2.783,12.27-10.467A90.7,90.7,0,0,0,31.94,39.018a3.043,3.043,0,0,0-.307-.943l-.029-.006S20.262,51.73,15.245,56.241A128.772,128.772,0,0,1,3.847,65.1C5.39,66.67,6.3,66.336,6.484,66.213" fill="#063"/>
        </g>
      </g>
    </g>
    <g id="Group_12759" data-name="Group 12759" opacity="0.5" style="mix-blend-mode: normal;isolation: isolate">
      <g id="Group_12758" data-name="Group 12758">
        <g id="Group_12757" data-name="Group 12757" clip-path="url(#clip-path-6)">
          <path id="Path_10400" data-name="Path 10400" d="M29.925,36.688a1.935,1.935,0,0,0-.387-.042A90.745,90.745,0,0,0,12.809,49.833c-7.685,7.874-9.2,10.4-10.467,12.269a1.9,1.9,0,0,0,.086.777l.61-.587S13.8,46.559,29.925,36.688" fill="#fff"/>
        </g>
      </g>
    </g>
    <path id="Path_10401" data-name="Path 10401" d="M5.093,63.334C3.037,61.152,2.342,62.1,2.342,62.1s-.224,1.17,1.391,2.877,2.562,1.36,2.752,1.233c0,0,.664-.695-1.392-2.877" fill="#3aa535"/>
    <path id="Path_10402" data-name="Path 10402" d="M4.776,63.6c-1.641-1.742-2.2-.984-2.2-.984A4.2,4.2,0,0,0,3.924,64.8c1.287,1.363,1.811,1.2,1.963,1.095,0,0,.53-.554-1.111-2.3" fill="#008836"/>
    <path id="Path_10403" data-name="Path 10403" d="M2.949,62.8s.355-.65,1.819.9.959,1.932.959,1.932L3.484,67.881c-.135.089-.616.229-1.765-.985S.7,65.044.7,65.044Z" fill="#c1c1c1"/>
    <path id="Path_10404" data-name="Path 10404" d="M2.522,65.946C1.058,64.392.7,65.042.7,65.042s-.134.635,1.014,1.852,1.631,1.076,1.766.985c0,0,.5-.379-.961-1.933" fill="#e8e8e8"/>
    <path id="Path_10405" data-name="Path 10405" d="M8.635,52.457s1.834-.127,2.53-3.384L5.726,55.587l-2.973,3.6a.754.754,0,0,0-.038.556.442.442,0,0,1,.1-.271c.443-.569,5.819-7.02,5.819-7.02" fill="#024220"/>
    <path id="Path_10406" data-name="Path 10406" d="M32.266,36.937c.117-.225.207-.4.223-.428a.45.45,0,0,0-.01-.474c-.127-.137-.38-.042-.38-.042l-.467.238Z" fill="#2d2e80"/>
    <g id="Group_12762" data-name="Group 12762" opacity="0.46" style="mix-blend-mode: normal;isolation: isolate">
      <g id="Group_12761" data-name="Group 12761">
        <g id="Group_12760" data-name="Group 12760" clip-path="url(#clip-path-7)">
          <path id="Path_10407" data-name="Path 10407" d="M31.615,38.195s.822-1.591.875-1.686a.5.5,0,0,0,.029-.415L31.157,37.7Z" fill="#063"/>
        </g>
      </g>
    </g>
  </g>
  <rect id="Rectangle_4799" data-name="Rectangle 4799" width="70" height="70" transform="translate(0)" fill="none"/>
</svg>
