<svg id="draft" xmlns="http://www.w3.org/2000/svg" width="70" height="70" viewBox="0 0 70 70">
  <path id="Path_7627" data-name="Path 7627" d="M17.391,8.249,3.542,52.032l46.737,10.7,4.5-31.789Z" transform="translate(-1.188)" fill-rule="evenodd" opacity="0.3"/>
  <path id="Path_7628" data-name="Path 7628" d="M18.385,4.643S11.88,28.4,5.615,49.581c0,0,33.162,7.006,49.389,7.667L63.142,7.794Z" transform="translate(-1.188)" fill="#ff0" fill-rule="evenodd"/>
  <path id="Path_7629" data-name="Path 7629" d="M16.345,33.591a.432.432,0,0,1,.046-.118,1.954,1.954,0,0,1,1.012-.72c.092-.054.506-.237.568-.261l.46-.186a7.434,7.434,0,0,1,2.606-.684,3.25,3.25,0,0,1,1.151.3,3.76,3.76,0,0,1,1.763,1.819c0,.116.046.114.076.234a4.508,4.508,0,0,1,.231.469,7.521,7.521,0,0,1,.107.833,5.65,5.65,0,0,1,.108.733v.165c0,.083-.031.509-.031.608a6.2,6.2,0,0,0-.184.867,9.146,9.146,0,0,1-.368,1.14,3.622,3.622,0,0,1-.291.745,12.846,12.846,0,0,1-2.96,3.255c-.03.012-.4.259-.506.336l-.659.381c-.277.111-1.489.614-1.764.742l-.169.067c-.183.058-.6.208-.613.214l-.261.022c-.46-1.418-.276-1.459-.322-10.959m2.868,7.226.015-.007a1.8,1.8,0,0,0,.537-.513,3.977,3.977,0,0,0,.322-.426A5.631,5.631,0,0,0,21.3,37.037a3.794,3.794,0,0,0-.062-.95,1.165,1.165,0,0,1-.091-.294,1.535,1.535,0,0,0-1.089-.917.053.053,0,0,1-.046,0c-.016-.011-.03,0-.046-.015a.989.989,0,0,0-.552.007c-.015.007-.077.048-.092.053a.771.771,0,0,0-.077.13,41.6,41.6,0,0,0-.015,5.526v.05c0,.033-.015.155-.015.188" transform="translate(-1.188)" fill="#1b1464"/>
  <path id="Path_7630" data-name="Path 7630" d="M25.123,37.582V37.1c.014-.915-.078-3.869-.185-4.339,0,0-.03-.764-.046-1.072v-.017c0-.182.062-.4.062-.586,0-.116-.016-.209-.016-.324a5.392,5.392,0,0,1,.245-.743c.461-.251.9-.546,1.365-.764.323-.162.737-.329,1.074-.465l.091-.037,1.166-.353c.016,0,.23-.026.291-.034a4.74,4.74,0,0,1,1.381.024c.414.048.66.362,1,.557.108.2.307.307.4.5.06.174.138.341.183.521,0,.016.031.268.031.3.015-.006.031.053.031.07,0,.033.015.209.015.242,0,.066-.015.271-.015.271,0,.032-.062.337-.062.371s-.03.277-.03.309a4.769,4.769,0,0,1-.184.736.207.207,0,0,1-.031.078c0,.016-.015.089-.015.1a1.352,1.352,0,0,0-.108.176c-.153.26-.276.59-.429.866l-.031.013a4.469,4.469,0,0,0-.352.5c-.016.007-.031.062-.046.085-.077.2-.338.4-.445.608v.033l.031.021c.629.921,1.226,1.853,1.824,2.8a1.018,1.018,0,0,1,.093.392v.1a.79.79,0,0,1-.261.2c-.752.318-1.488.7-2.239,1-.231.093-.368.1-.522-.022-.03-.054-.169-.279-.183-.323-.032-.054-.169-.477-.185-.52-.03-.087-.107-.139-.138-.209a4.489,4.489,0,0,1-.184-.422A.368.368,0,0,1,28.6,37.6a1.11,1.11,0,0,1-.076-.085,3.8,3.8,0,0,0-.261-.474,3.5,3.5,0,0,0-.368-.612l-.016-.028-.015.007-.031.045c.016.291-.03.476-.03.739,0,.365.122.663.122,1.042,0,.3-.03.608-.03.905,0,.165.03.335.03.516v.232c-.092.169-.137.22-.275.276a10.375,10.375,0,0,0-1.5.736,1.383,1.383,0,0,1-.476.274l-.03.013-.322.013c-.046,0-.046-.1-.046-.114s-.093-.145-.093-.161c0-.067-.046-.263-.046-.312V37.808c0-.067-.046-.1-.046-.163a.06.06,0,0,1,.032-.063M27.9,33.757c.261-.1.353-.341.521-.573l.154-.228a2.383,2.383,0,0,0,.4-1.036.492.492,0,0,0-.076-.332c-.046,0-.107-.238-.139-.259a.916.916,0,0,0-1.027-.281l-.016.006c-.014.453-.014.717-.014,1.13,0,.3.03.566.03.864,0,.115-.03.276-.03.408v.05c0,.05.014.242.014.259.047.063.154,0,.185-.008" transform="translate(-1.188)" fill="#1b1464"/>
  <path id="Path_7631" data-name="Path 7631" d="M38.014,35.458,38,35.449c0-.017.032-.161.032-.178v-.033c0-.033-.032-.352-.032-.4a.551.551,0,0,0-.06-.323c-.507.2-.982.23-1.473.443a2.157,2.157,0,0,0-.46.235,1.183,1.183,0,0,0-.215.5v.016a.112.112,0,0,0,.016.043v.034a.211.211,0,0,0-.031.061v.364c-.015.2-.122.644-.367.759l-.062.025c-.046.018-.537.167-.6.191l-.4.16c-.414.166-1.487.516-1.5-.106v-.1c.046-.249.261-1.327.291-1.555l.093-.73a.336.336,0,0,1,.03-.111l.307-1.512c.107-.473.245-.975.368-1.453.092-.45.046-.862.138-1.312.031-.095.23-1,.246-1.107l.122-.694a2.685,2.685,0,0,1,.092-.3l.292-1.257c0-.033.061-.438.076-.478,0-.065.077-.476.093-.565a1.06,1.06,0,0,1,.06-.19v-.016l.031-.013a.127.127,0,0,1,.031.07l.015-.005c0-.017.062-.091.062-.108l.137-.122a20.324,20.324,0,0,1,1.963-.854c.169-.069.92-.371,1.089-.422.108-.027.322-.113.4-.028.077.069.031.086.077.184a4.2,4.2,0,0,1,.229.486,3.211,3.211,0,0,1,.215.575l.231,1.014.153.418c.168.593.245,1.256.414,1.85.184.653.337,1.335.46,2.012,0,.067.046.511.046.577l.153.649c.03.252.215,1.368.261,1.6,0,.2.03.4.046.577,0,.248-.384.567-.537.678l-.337.135q-.737.3-1.473.543c-.383.022-.705.4-.705-.213m-1-3.4.2-.081c.108-.043.4-.16.4-.342a.119.119,0,0,0-.016-.043c0-.033-.03-.219-.03-.252-.062-.273-.062-.587-.139-.87a1.321,1.321,0,0,0-.076-.283,5.972,5.972,0,0,0-.139-.754c-.06-.059-.106-.155-.229-.106a.218.218,0,0,0-.108.076,3.785,3.785,0,0,0-.245.991l-.23,1.778v.017c0,.032,0,.049.031.054.092-.038.49-.149.582-.185" transform="translate(-1.188)" fill="#1b1464"/>
  <path id="Path_7632" data-name="Path 7632" d="M41.689,33.651c-.062-1.776.2-8.211.184-9.609,0,0,.015-.139.015-.155.016-.072.046-.448.062-.537.092-.368.521-.54.8-.651l.061-.025c1.242-.5,2.485-.9,3.727-1.416.03-.011.2-.046.23-.009v.116a15.8,15.8,0,0,1,.076,1.919v.346a1.336,1.336,0,0,1-.123.332.634.634,0,0,1-.352.256l-.046.019c-.245.1-.476.175-.7.268-.062.024-.231.091-.245.1-.077.03-.476.191-.553.238-.03.012-.046.036-.076.081a4.169,4.169,0,0,0-.031.607v.033c0,.182,0,.628.107.667a.743.743,0,0,0,.153,0l.261-.1c.245-.1.491-.23.736-.329s.614-.247.721-.008c.016.092.077.563.077.663v.215a7.309,7.309,0,0,1-.123,1.255c-.061.438-.414.613-.736.742-.2.081-1.058.459-1.258.539-.03.012-.23.125-.23.208a3.435,3.435,0,0,0,.077.7c0,.017.015.027.015.044.032.219.016.39.032.632,0,.248.045.477.045.724v.083c-.015.056-.045.382-.045.432s-.032.475-.032.607c0,.165.032.534-.169.712a.486.486,0,0,0-.091.071c-.015.022-.108.092-.138.121-.138.089-.828.432-.966.505l-.23.091-.108.043-.03.013c-.384.154-.92.37-1.059-.037,0-.083-.03-.418-.03-.5" transform="translate(-1.188)" fill="#1b1464"/>
  <path id="Path_7633" data-name="Path 7633" d="M49.6,30.257c0-.976-.061-1.926-.046-7.1,0-.38-.275-.2-.536-.115-.016.006-.153.045-.169.051-.107.027-.629.22-.736.263-.092.037-.337.087-.337-.063V22.43c0-.033.014-.138.014-.171v-.017c0-.2-.03-.368-.03-.583,0-.1.016-.336.016-.352s.03-.228.03-.294a2,2,0,0,0,.062-.223.788.788,0,0,1,.045-.167l.016-.022.184-.108c.859-.3,1.7-.6,2.561-.947l.629-.252c.26-.122,1.5-.638,1.763-.759a2.863,2.863,0,0,1,.445-.212l.276-.111c.015-.006.077,0,.092,0l.031,0,.107.932c-.016.27.016.522.016.787v.33c-.139.8-1.043.932-1.5,1.3-.046.034-.154.143-.185.156a.089.089,0,0,1-.015.039l.077.3s0,.726.015,1.035a.436.436,0,0,0,.031.235l.061,5.379c-.03.443.03,1.277-.521,1.6-.138.089-.537.315-.552.321l-.322.129c-.552.223-1.38.572-1.519-.05Z" transform="translate(-1.188)" fill="#1b1464"/>
  <path id="Path_7634" data-name="Path 7634" d="M31.133,6.249l-.991,14.635a3.7,3.7,0,0,1-3.866,3.566,3.785,3.785,0,0,1-3.345-4.121l.365-5.4a.4.4,0,0,0-.353-.436.4.4,0,0,0-.409.377l-.365,5.4a4.837,4.837,0,0,0,1.057,3.391,4.261,4.261,0,0,0,3,1.6c.108.008.215.012.322.012A4.192,4.192,0,0,0,29.4,24.136a4.744,4.744,0,0,0,1.5-3.194L31.9,6.308a5.019,5.019,0,0,0-.017-.716l-.764-.053a4.187,4.187,0,0,1,.019.71" transform="translate(-1.188)" opacity="0.3"/>
  <path id="Path_7635" data-name="Path 7635" d="M31.316,2.056A4.816,4.816,0,0,0,28,.393a3.626,3.626,0,0,0-3.145,1.246,5.658,5.658,0,0,0-1.2,3.3L24.5,5a4.827,4.827,0,0,1,1-2.814,2.751,2.751,0,0,1,2.44-.95,4.006,4.006,0,0,1,3.7,4.28l-1.1,15.2a4,4,0,0,1-7.983-.577l.4-5.6a.423.423,0,0,0-.391-.453.436.436,0,0,0-.452.392l-.4,5.6A4.849,4.849,0,0,0,26.2,25.262c.119.009.237.013.356.013a4.85,4.85,0,0,0,4.828-4.5l1.1-15.2a4.815,4.815,0,0,0-1.17-3.521" transform="translate(-1.188)" fill="#ff00c3"/>
  <rect id="frame" width="70" height="70" fill="none"/>
</svg>
