<svg id="write" xmlns="http://www.w3.org/2000/svg" width="70" height="70" viewBox="0 0 70 70">
  <g id="Icon_-_Writing" data-name="Icon - Writing">
    <g id="Icon" transform="translate(2.064 0.867)">
      <path id="Path_232" data-name="Path 232" d="M122.667,774.617c-4.1-1.972-6.508.249-6.508.249S101.771,787.28,98.843,789.7s-2.037,2.865-2.037,2.865a12.141,12.141,0,0,0,4.485-1.8c.1-.07.2-.141.288-.212a6.8,6.8,0,0,0,.716-.635l0,0a5.782,5.782,0,0,0,.418-.481,3.985,3.985,0,0,0,.9-1.959s3.754-3.128,7.4-6.159l1.006-.836.187-.155c2.686-2.229,5.075-4.2,5.537-4.565a1.073,1.073,0,0,1,.181-.111.777.777,0,0,1,.071-.033.788.788,0,0,1,.089-.029.842.842,0,0,1,.2-.031c.756-.007,1.353,1.114,1.513,1.448-1.749,1.237-3.949,2.9-6.994,5.489-1.3,1.109-2.763,2.386-4.41,3.876l-.1.094c-2.755,2.494-6.029,5.57-9.969,9.415a180.306,180.306,0,0,0-22.876,27.917c-.736,1.1-1.368,2.073-1.891,2.89h0l-.021.033-.173.272-.03.048c-.06.093-.117.184-.173.272l-.023.037-.172.272-.008.012q-.144.229-.271.434a35.205,35.205,0,0,0,5.369,5.412c3.733,2.642,2.809-1.794,3.494-2.246l.3-.2q.5-.329,1.028-.688.757-.51,1.583-1.079c1.209-.832,2.522-1.757,3.917-2.769q.537-.389,1.089-.794.64-.471,1.3-.964T92.1,823.73q.675-.514,1.366-1.051c2.111-1.637,4.32-3.422,6.565-5.337,3.388-2.888,6.859-6.073,10.2-9.5,2.451-2.512,4.589-4.751,6.465-6.759.521-.558,1.018-1.094,1.5-1.617,7.73-8.392,10.475-12.364,12.4-15.255A35.154,35.154,0,0,0,122.667,774.617Z" transform="translate(-68.028 -767.741)" fill="#231f20" opacity="0.3" style="mix-blend-mode: multiply;isolation: isolate"/>
      <g id="Group_128" data-name="Group 128">
        <path id="Path_233" data-name="Path 233" d="M132.907,770.657s-.955-2.228-2.1-1.337-14.134,11.714-14.134,11.714-.255,3.693-6.812,5.093c0,0-.891-.446,2.037-2.865s17.317-14.834,17.317-14.834,2.547-2.355,6.876-.064S132.907,770.657,132.907,770.657Z" transform="translate(-83.46 -765.058)" fill="#063"/>
        <path id="Path_234" data-name="Path 234" d="M126.586,777.407c-2.517,3.775-5.6,8.849-21.073,24.7a182.653,182.653,0,0,1-33.678,26.548,6.419,6.419,0,0,1-3.311-1.591,4.553,4.553,0,0,1-1.464-3.247,182.679,182.679,0,0,1,26.548-33.679c15.853-15.47,20.946-18.526,24.7-21.073,0,0,2.355-.446,5.794,2.8S126.841,777.025,126.586,777.407Z" transform="translate(-65.68 -765.759)" fill="#95c11f"/>
        <path id="Path_235" data-name="Path 235" d="M66.52,865.851l-1.761,3.459s-.191.509.085.764a.912.912,0,0,0,.955.021c.191-.106,3.4-1.761,3.4-1.761Z" transform="translate(-64.694 -806.095)" fill="#c6c6c6"/>
        <path id="Path_236" data-name="Path 236" d="M74.962,863.783a.229.229,0,0,0-.135-.029c-.467.043-1.783-.127-3.968-2.164-2.077-1.937-2.027-3.429-2.017-3.573-1.161,1.816-1.782,2.872-1.782,2.872a4.552,4.552,0,0,0,1.465,3.247,6.417,6.417,0,0,0,3.31,1.591S72.989,865.05,74.962,863.783Z" transform="translate(-65.68 -802.831)" fill="#dedc00"/>
        <path id="Path_237" data-name="Path 237" d="M143.391,771.867c-3.438-3.247-5.794-2.8-5.794-2.8-3.719,2.522-8.757,5.551-24.248,20.632.058.452.553,3.358,4,6.807a22.191,22.191,0,0,0,7.767,5.093l.191-.015c15.022-15.434,18.075-20.444,20.563-24.177C146.128,777.025,146.829,775.114,143.391,771.867Z" transform="translate(-84.967 -765.759)" fill="#008d36"/>
        <path id="Path_238" data-name="Path 238" d="M126.384,774.273a260.138,260.138,0,0,1-17.827,22.947c-9.083,10.1-36.586,32.936-36.586,32.936l.013.061a6.1,6.1,0,0,0,1.9.618,182.653,182.653,0,0,0,33.678-26.548c15.471-15.852,18.556-20.926,21.073-24.7C128.881,779.211,129.552,777.382,126.384,774.273Z" transform="translate(-67.726 -767.937)" fill="#063" opacity="0.46" style="mix-blend-mode: multiply;isolation: isolate"/>
        <path id="Path_239" data-name="Path 239" d="M118.692,770.467l1.182-1.229a3.806,3.806,0,0,0-1.564-.172c-3.756,2.547-8.849,5.6-24.7,21.073A182.678,182.678,0,0,0,67.06,823.818a3.836,3.836,0,0,0,.085.779C87.017,792.135,118.692,770.467,118.692,770.467Z" transform="translate(-65.68 -765.76)" fill="#fff" opacity="0.5" style="mix-blend-mode: overlay;isolation: isolate"/>
        <path id="Path_240" data-name="Path 240" d="M162.9,777.407c.255-.382.955-2.292-2.483-5.539s-5.794-2.8-5.794-2.8-1.91,1.4,2.483,5.539S162.9,777.407,162.9,777.407Z" transform="translate(-101.992 -765.759)" fill="#3aaa35"/>
        <path id="Path_241" data-name="Path 241" d="M163.053,776.558c.2-.305.541-1.36-2.2-3.953s-4.4-2.706-4.4-2.706-1.525,1.118,1.982,4.422S163.053,776.558,163.053,776.558Z" transform="translate(-102.786 -766.115)" fill="#008d36"/>
        <path id="Path_242" data-name="Path 242" d="M161.649,763.422s1.281-.272,3.729,2.039,2.162,3.282,1.981,3.554l-4.516,4.515s-.762,1.015-3.89-1.931-1.819-3.662-1.819-3.662Z" transform="translate(-103.097 -763.412)" fill="#c6c6c6"/>
        <path id="Path_243" data-name="Path 243" d="M170.584,769.016c.181-.272.467-1.242-1.981-3.554s-3.729-2.039-3.729-2.039-1.308.715,1.819,3.662S170.584,769.016,170.584,769.016Z" transform="translate(-106.323 -763.412)" fill="#ededed"/>
        <path id="Path_244" data-name="Path 244" d="M130.9,770.521a.885.885,0,0,1,.545-.2,1.522,1.522,0,0,0-1.119.077l-7.258,5.984-13.115,10.95c6.557-1.4,6.812-5.093,6.812-5.093S129.751,771.412,130.9,770.521Z" transform="translate(-83.552 -766.259)" fill="#024220"/>
      </g>
      <path id="Path_245" data-name="Path 245" d="M65.238,870.167l-.479.942s-.191.509.085.764a.912.912,0,0,0,.955.021c.06-.033.409-.215.862-.45Z" transform="translate(-64.694 -807.893)" fill="#2d2e83"/>
      <path id="Path_246" data-name="Path 246" d="M68.394,868.53l-3.242,2.74a1.013,1.013,0,0,0,.837-.059c.191-.106,3.4-1.761,3.4-1.761Z" transform="translate(-64.885 -807.211)" fill="#063" opacity="0.46" style="mix-blend-mode: multiply;isolation: isolate"/>
    </g>
    <rect id="Frame" width="70" height="70" fill="none"/>
  </g>
</svg>
