<svg id="menu" xmlns="http://www.w3.org/2000/svg" xmlns:xlink="http://www.w3.org/1999/xlink" width="70" height="70" viewBox="0 0 70 70">
  <defs>
    <clipPath id="clip-path">
      <rect id="Rectangle_3385" data-name="Rectangle 3385" width="70" height="70" fill="none"/>
    </clipPath>
    <clipPath id="clip-path-3">
      <rect id="Rectangle_3381" data-name="Rectangle 3381" width="42.933" height="14.941" transform="translate(13.402 28.821)" fill="none"/>
    </clipPath>
    <clipPath id="clip-path-4">
      <rect id="Rectangle_3382" data-name="Rectangle 3382" width="42.933" height="14.941" transform="translate(13.402 47.596)" fill="none"/>
    </clipPath>
    <clipPath id="clip-path-5">
      <rect id="Rectangle_3383" data-name="Rectangle 3383" width="42.933" height="14.941" transform="translate(13.402 10.235)" fill="none"/>
    </clipPath>
  </defs>
  <g id="Group_8558" data-name="Group 8558">
    <g id="Group_8557" data-name="Group 8557" clip-path="url(#clip-path)">
      <g id="Group_8556" data-name="Group 8556">
        <g id="Group_8555" data-name="Group 8555" clip-path="url(#clip-path)">
          <g id="Group_8548" data-name="Group 8548" opacity="0.3" style="mix-blend-mode: normal;isolation: isolate">
            <g id="Group_8547" data-name="Group 8547">
              <g id="Group_8546" data-name="Group 8546" clip-path="url(#clip-path-3)">
                <path id="Path_6281" data-name="Path 6281" d="M28.749,31.955q-4.358.108-8.712.275c-2.093.085-4.485.337-5.7,2.045a5.178,5.178,0,0,0-.794,2.081,6.36,6.36,0,0,0,.49,4.187,6.094,6.094,0,0,0,3.688,2.739,15.806,15.806,0,0,0,4.676.459c2.137-.024,20.2-.056,21.394-.035,4.076.076,8.534-.087,11.633-2.739a2.527,2.527,0,0,0,.782-.983,2.967,2.967,0,0,0,.122-1.03c.005-3.766-1.959-7.224-5.983-7.811a14.066,14.066,0,0,0-3.063,0l-4.135.3a3.542,3.542,0,0,1-1.558-.121c-1.083-.428-1-1.561-.979-2.5"/>
              </g>
            </g>
          </g>
          <path id="Path_6282" data-name="Path 6282" d="M28.46,28.954q-4.357.109-8.712.275c-2.093.085-4.485.337-5.7,2.045a5.163,5.163,0,0,0-.794,2.081,6.372,6.372,0,0,0,.489,4.189,6.1,6.1,0,0,0,3.689,2.739,15.792,15.792,0,0,0,4.675.458c2.137-.024,20.2-.057,21.391-.035,4.077.075,8.534-.088,11.635-2.74a2.522,2.522,0,0,0,.78-.983,2.942,2.942,0,0,0,.124-1.03c0-2.7-.854-4.876-3.265-6.343a3.524,3.524,0,0,0-1.159-.486c-1.65-.311-3.316.316-4.989.128-.536-.061-6.434-.558-6.443-.414" fill="#bebebe"/>
          <path id="Path_6283" data-name="Path 6283" d="M38.726,39.121a.7.7,0,0,1-.275-.482c.016-.343.468-.448.812-.458a32.077,32.077,0,0,0,3.622-.323c2.459-.361,4.881-1.014,7.361-1.192a2.459,2.459,0,0,1,1.36.178,1.6,1.6,0,0,1,.621,1.921,2.58,2.58,0,0,1-1.57,1.443,7.031,7.031,0,0,1-2.163.34c-3.035.138-7.434.856-9.768-1.427" fill="#8b8b8b"/>
          <path id="Path_6284" data-name="Path 6284" d="M19.885,40.657c3.453.2,19.068-.147,23.533.069a6.357,6.357,0,0,0,2.254-.04,1.255,1.255,0,0,0,.655-.424.637.637,0,0,0,.032-.739c-.266-.347-1.166-.583-1.557-.817a4.4,4.4,0,0,0-1.824-.634c-2.273-.292-4.657.222-6.855-.182a32.4,32.4,0,0,0-7.477-.124,68.358,68.358,0,0,0-10.309.863c-3.023.639-.051,1.9,1.548,2.028" fill="#8b8b8b"/>
          <path id="Path_6285" data-name="Path 6285" d="M43.656,38.524c-3.373-.063-6.775-.5-10.1-.562-3.74-.074-7.539.557-11.293.6a15.823,15.823,0,0,1-4.674-.46A6.1,6.1,0,0,1,13.9,35.363a6.372,6.372,0,0,1-.489-4.189,5.163,5.163,0,0,1,.794-2.081c1.214-1.708,3.606-1.961,5.7-2.045q7.048-.286,14.1-.391c6.277-.093,12.635-.069,18.715,1.487a5.331,5.331,0,0,1,1.982.827c1.375,1.064,1.493,3.062,1.49,4.8a2.918,2.918,0,0,1-.124,1.03,2.522,2.522,0,0,1-.78.983c-3.1,2.652-7.558,2.814-11.634,2.74" fill="#fff"/>
          <g id="Group_8551" data-name="Group 8551" opacity="0.3" style="mix-blend-mode: normal;isolation: isolate">
            <g id="Group_8550" data-name="Group 8550">
              <g id="Group_8549" data-name="Group 8549" clip-path="url(#clip-path-4)">
                <path id="Path_6286" data-name="Path 6286" d="M28.749,50.73q-4.358.108-8.712.275c-2.093.085-4.485.337-5.7,2.045a5.178,5.178,0,0,0-.794,2.081,6.36,6.36,0,0,0,.49,4.187,6.094,6.094,0,0,0,3.688,2.739,15.805,15.805,0,0,0,4.676.459c2.137-.024,20.2-.056,21.394-.035,4.076.076,8.534-.087,11.633-2.739a2.527,2.527,0,0,0,.782-.983,2.967,2.967,0,0,0,.122-1.03c.005-3.766-1.959-7.224-5.983-7.811a14.066,14.066,0,0,0-3.063,0l-4.135.3A3.542,3.542,0,0,1,41.59,50.1c-1.083-.428-1-1.561-.979-2.5"/>
              </g>
            </g>
          </g>
          <path id="Path_6287" data-name="Path 6287" d="M28.46,47.729q-4.357.109-8.712.275c-2.093.085-4.485.337-5.7,2.045a5.163,5.163,0,0,0-.794,2.081,6.372,6.372,0,0,0,.489,4.189,6.1,6.1,0,0,0,3.689,2.739,15.792,15.792,0,0,0,4.675.458c2.137-.024,20.2-.057,21.391-.035,4.077.075,8.534-.088,11.635-2.74a2.522,2.522,0,0,0,.78-.983,2.942,2.942,0,0,0,.124-1.03c0-2.705-.854-4.876-3.265-6.343a3.524,3.524,0,0,0-1.159-.486c-1.65-.311-3.316.316-4.989.128-.536-.061-6.434-.558-6.443-.414" fill="#bebebe"/>
          <path id="Path_6288" data-name="Path 6288" d="M38.726,57.9a.7.7,0,0,1-.275-.482c.016-.343.468-.448.812-.458a32.077,32.077,0,0,0,3.622-.323c2.459-.361,4.881-1.014,7.361-1.192a2.459,2.459,0,0,1,1.36.178,1.6,1.6,0,0,1,.621,1.921,2.58,2.58,0,0,1-1.57,1.443,7.031,7.031,0,0,1-2.163.34c-3.035.138-7.434.856-9.768-1.427" fill="#8b8b8b"/>
          <path id="Path_6289" data-name="Path 6289" d="M19.885,59.432c3.453.2,19.068-.147,23.533.069a6.357,6.357,0,0,0,2.254-.04,1.255,1.255,0,0,0,.655-.424.637.637,0,0,0,.032-.739c-.266-.347-1.166-.583-1.557-.817a4.4,4.4,0,0,0-1.824-.634c-2.273-.292-4.657.222-6.855-.182a32.4,32.4,0,0,0-7.477-.124,68.359,68.359,0,0,0-10.309.863c-3.023.639-.051,1.9,1.548,2.028" fill="#8b8b8b"/>
          <path id="Path_6290" data-name="Path 6290" d="M43.656,57.3c-3.373-.063-6.775-.5-10.1-.562-3.74-.074-7.539.557-11.293.6a15.823,15.823,0,0,1-4.674-.46A6.1,6.1,0,0,1,13.9,54.138a6.372,6.372,0,0,1-.489-4.189,5.163,5.163,0,0,1,.794-2.081c1.214-1.708,3.606-1.961,5.7-2.045q7.048-.287,14.1-.391c6.277-.093,12.635-.069,18.715,1.487a5.331,5.331,0,0,1,1.982.827c1.375,1.064,1.493,3.062,1.49,4.8a2.918,2.918,0,0,1-.124,1.03,2.522,2.522,0,0,1-.78.983c-3.1,2.652-7.558,2.814-11.634,2.74" fill="#fff"/>
          <g id="Group_8554" data-name="Group 8554" opacity="0.3" style="mix-blend-mode: normal;isolation: isolate">
            <g id="Group_8553" data-name="Group 8553">
              <g id="Group_8552" data-name="Group 8552" clip-path="url(#clip-path-5)">
                <path id="Path_6291" data-name="Path 6291" d="M28.749,13.369q-4.358.108-8.712.275c-2.093.085-4.485.337-5.7,2.045a5.178,5.178,0,0,0-.794,2.081,6.36,6.36,0,0,0,.49,4.187A6.094,6.094,0,0,0,17.722,24.7a15.806,15.806,0,0,0,4.676.459c2.137-.024,20.2-.056,21.394-.035,4.076.076,8.534-.087,11.633-2.739a2.527,2.527,0,0,0,.782-.983,2.967,2.967,0,0,0,.122-1.03c.005-3.766-1.959-7.224-5.983-7.811a14.066,14.066,0,0,0-3.063,0l-4.135.3a3.542,3.542,0,0,1-1.558-.121c-1.083-.428-1-1.561-.979-2.5"/>
              </g>
            </g>
          </g>
          <path id="Path_6292" data-name="Path 6292" d="M28.46,10.368q-4.357.109-8.712.275c-2.093.085-4.485.337-5.7,2.045a5.163,5.163,0,0,0-.794,2.081,6.372,6.372,0,0,0,.489,4.189A6.1,6.1,0,0,0,17.433,21.7a15.792,15.792,0,0,0,4.675.458c2.137-.024,20.2-.057,21.391-.035,4.077.075,8.534-.088,11.635-2.74a2.522,2.522,0,0,0,.78-.983,2.942,2.942,0,0,0,.124-1.03c0-2.705-.854-4.876-3.265-6.343a3.524,3.524,0,0,0-1.159-.486c-1.65-.311-3.316.316-4.989.128-.536-.061-6.434-.558-6.443-.414" fill="#bebebe"/>
          <path id="Path_6293" data-name="Path 6293" d="M38.726,20.535a.7.7,0,0,1-.275-.482c.016-.343.468-.448.812-.458a32.076,32.076,0,0,0,3.622-.323c2.459-.361,4.881-1.014,7.361-1.192a2.459,2.459,0,0,1,1.36.178,1.6,1.6,0,0,1,.621,1.921,2.58,2.58,0,0,1-1.57,1.443,7.031,7.031,0,0,1-2.163.34c-3.035.138-7.434.856-9.768-1.427" fill="#8b8b8b"/>
          <path id="Path_6294" data-name="Path 6294" d="M19.885,22.071c3.453.2,19.068-.147,23.533.069a6.357,6.357,0,0,0,2.254-.04,1.255,1.255,0,0,0,.655-.424.637.637,0,0,0,.032-.739c-.266-.347-1.166-.583-1.557-.817a4.4,4.4,0,0,0-1.824-.634c-2.273-.292-4.657.222-6.855-.182a32.4,32.4,0,0,0-7.477-.124,68.358,68.358,0,0,0-10.309.863c-3.023.639-.051,1.9,1.548,2.028" fill="#8b8b8b"/>
          <path id="Path_6295" data-name="Path 6295" d="M43.656,19.938c-3.373-.063-6.775-.5-10.1-.562-3.74-.074-7.539.557-11.293.6a15.823,15.823,0,0,1-4.674-.46A6.1,6.1,0,0,1,13.9,16.777a6.372,6.372,0,0,1-.489-4.189,5.163,5.163,0,0,1,.794-2.081c1.214-1.708,3.606-1.961,5.7-2.045q7.048-.286,14.1-.391C40.284,7.978,46.642,8,52.722,9.558a5.331,5.331,0,0,1,1.982.827c1.375,1.064,1.493,3.062,1.49,4.8a2.918,2.918,0,0,1-.124,1.03,2.522,2.522,0,0,1-.78.983c-3.1,2.652-7.558,2.814-11.634,2.74" fill="#fff"/>
        </g>
      </g>
    </g>
  </g>
</svg>
