<svg id="flag" xmlns="http://www.w3.org/2000/svg" width="70" height="70" viewBox="0 0 70 70">
  <rect id="frame" width="70" height="70" transform="translate(0 0)" fill="none"/>
  <path id="Path_1529" data-name="Path 1529" d="M217.618-3907.172h0c-.206.325-.421.634-.638.936-.063.087-.128.172-.192.258-.167.223-.337.44-.509.651-.062.076-.124.153-.187.227a18.548,18.548,0,0,1-1.455,1.535l-.156.144c-.217.2-.436.392-.657.576l-.117.1a19.173,19.173,0,0,1-1.631,1.2l-.047.03q-.411.27-.822.511l-.321-.546h0l-2.759-4.686c-15.7,4.723-24.713,12.737-27.7,15.76h0l-.008.007c-.7.712-1.068,1.143-1.105,1.188l-.134-.227a3.714,3.714,0,0,0,.693-1.456,3.735,3.735,0,0,0-2.469-4.375c-.105-.035-.212-.064-.323-.091l-.018,0c-.125-.028-.251-.051-.377-.066a3.7,3.7,0,0,0-1.459.11,3.751,3.751,0,0,0-1.276.64,3.767,3.767,0,0,0-.4.36,3.745,3.745,0,0,0-.253.289,3.694,3.694,0,0,0-.357.544,3.729,3.729,0,0,0-.249.565,3.611,3.611,0,0,0-.1.368,3.793,3.793,0,0,0-.071.437c0,.042-.006.084-.009.126-.008.106-.011.212-.01.318,0,.042,0,.085,0,.127q.008.174.033.345c0,.026.005.052.01.078a3.644,3.644,0,0,0,.1.428h0a3.732,3.732,0,0,0,2.758,2.611,3.713,3.713,0,0,0,1.4.048l.38.645.456.774h0l27.137,46.1,0,0a1.378,1.378,0,0,0,1.865.456,1.378,1.378,0,0,0,.506-1.852l0,0-11.846-20.122h0l-.566-.961c.128-.152,4.039-4.777,12.071-9.607.184-.11.372-.22.559-.331q.249-.147.5-.294.279-.161.565-.322c.195-.11.393-.22.592-.33.174-.1.345-.191.522-.287q.522-.283,1.066-.564l.5-.254c.247-.125.5-.25.75-.376l.519-.254q.45-.218.911-.433c.125-.059.249-.118.376-.176.394-.182.8-.361,1.205-.54l2.87,4.875h0s9.822-.382,15.295-9Z" transform="translate(-167.768 3909.944)" opacity="0.3"/>
  <rect id="Rectangle_1590" data-name="Rectangle 1590" width="2.76" height="55.52" transform="translate(8.832 18.74) rotate(-30.486)" fill="#f19106"/>
  <path id="Path_1530" data-name="Path 1530" d="M199.379-3853.651l-15.644-26.572-1.441.961Z" transform="translate(-171.847 3898.715)" fill="#af680b"/>
  <circle id="Ellipse_374" data-name="Ellipse 374" cx="1.38" cy="1.38" r="1.38" transform="translate(36.787 64.47)" fill="#f19106"/>
  <path id="Path_1531" data-name="Path 1531" d="M181.9-3882.2l-2.378,1.4,1.03,1.749a2.1,2.1,0,0,0,1.716-.181,2.1,2.1,0,0,0,.838-.92Z" transform="translate(-170.693 3899.537)" fill="#af680b"/>
  <path id="Path_1532" data-name="Path 1532" d="M184.147-3893.345l15.429,26.207s9.187-11.06,28.818-16.966l-15.429-26.207C193.334-3904.405,184.147-3893.345,184.147-3893.345Z" transform="translate(-172.619 3911.252)" fill="#fcd030"/>
  <path id="Path_1533" data-name="Path 1533" d="M223.6-3902.918l15.429,26.207s9.822-.382,15.3-9L238.9-3911.923C233.426-3903.3,223.6-3902.918,223.6-3902.918Z" transform="translate(-189.06 3911.923)" fill="#bd1823"/>
  <path id="Path_1534" data-name="Path 1534" d="M237.726-3905.75c-.02.075-4.766,17.352,2.494,13.259,7.276-4.1,3.921-19.432,3.921-19.432A18.78,18.78,0,0,1,237.726-3905.75Z" transform="translate(-194.301 3911.923)" fill="#ff0019"/>
  <path id="Path_1535" data-name="Path 1535" d="M247.168-3880.368c-6.189,4.366-5.8,8.063-5.8,8.063l-12.025-20.424s-1.5-4.149,5.478-8.615Z" transform="translate(-191.394 3907.515)" fill="#870b17"/>
  <path id="Path_1536" data-name="Path 1536" d="M184.147-3893.345l15.429,26.207s9.187-11.06,28.818-16.966l-15.429-26.207C193.334-3904.405,184.147-3893.345,184.147-3893.345Z" transform="translate(-172.619 3911.252)" fill="#ff0019"/>
  <path id="Path_1537" data-name="Path 1537" d="M185.269-3883.294c-.747.757-1.122,1.206-1.122,1.206l15.429,26.207Z" transform="translate(-172.619 3899.994)" fill="#e10a17"/>
  <path id="Path_1538" data-name="Path 1538" d="M247.431-3880.757l-12.67-21.521c8.961,15.541-4.925,29.392-4.925,29.392h0A73.151,73.151,0,0,1,247.431-3880.757Z" transform="translate(-191.656 3907.905)" fill="#e10a17"/>
  <circle id="Ellipse_375" data-name="Ellipse 375" cx="3.734" cy="3.734" r="3.734" transform="translate(4.722 11.649)" fill="#fcd030"/>
  <path id="Path_1539" data-name="Path 1539" d="M172.574-3889.052a3.708,3.708,0,0,0,.051,1.86,3.714,3.714,0,0,0,.661.22,3.734,3.734,0,0,0,4.471-2.809,3.715,3.715,0,0,0-.051-1.86,3.785,3.785,0,0,0-.662-.22A3.733,3.733,0,0,0,172.574-3889.052Z" transform="translate(-167.758 3903.604)" fill="#fbd95d"/>
</svg>
