<svg id="plus" xmlns="http://www.w3.org/2000/svg" width="70" height="70" viewBox="0 0 70 70">
  <rect id="frame" width="70" height="70" fill="none"/>
  <path id="Path_5578" data-name="Path 5578" d="M64.273,47.56a5.242,5.242,0,0,0-2.036-1.043,46.916,46.916,0,0,0-11.1-2c.051-.605.1-1.21.125-1.815v0c.2-4.188.121-8.768-2.963-11.958a2.885,2.885,0,0,0-1.153-.8,4,4,0,0,0-1.225-.129c-2.078,0-4.465.113-5.772,1.524A5.25,5.25,0,0,0,39.1,33.378a46.573,46.573,0,0,0-1.982,10.866c-2.867.011-5.734.04-8.6.1-2.15.046-4.608.284-5.858,2.291a6.668,6.668,0,0,0-.817,2.46,8.787,8.787,0,0,0,.5,5.017,6.666,6.666,0,0,0,3.786,3.368,14.221,14.221,0,0,0,4.8.671c1.959.024,3.931-.131,5.9-.266.008,3.07.035,6.14.1,9.208.046,2.15.284,4.608,2.291,5.858a6.668,6.668,0,0,0,2.461.817,8.781,8.781,0,0,0,5.017-.5,6.664,6.664,0,0,0,3.368-3.786,14.2,14.2,0,0,0,.671-4.8c.026-2.055-.146-4.125-.285-6.191.82.076,1.639.141,2.457.18h0c4.188.2,8.768.121,11.958-2.963a2.893,2.893,0,0,0,.8-1.153,4,4,0,0,0,.129-1.225c0-2.078-.113-4.465-1.524-5.771" transform="translate(-9.012 -12.025)" opacity="0.3"/>
  <path id="Path_5579" data-name="Path 5579" d="M60.52,36.072c-.141,3.467-.662,6.961-.8,10.376-.16,3.843.4,7.748.356,11.6a16.421,16.421,0,0,1-.575,4.8,6.44,6.44,0,0,1-2.886,3.786,6.533,6.533,0,0,1-4.3.5A5.176,5.176,0,0,1,50.2,66.32c-2.326-1.562-3.414-4.76-3.344-7.451.058-2.21.822-4.325,1.011-6.52.184-2.134.271-4.22.286-6.376.048-6.449.215-12.983,1.944-19.228A5.618,5.618,0,0,1,51,24.71c.8-1.006,1.925-1.464,2.763-2.535a2.767,2.767,0,0,1,1.134-1,2.334,2.334,0,0,1,2.333.9c3.313,3.537,3.476,9.476,3.293,14" transform="translate(-19.5 -8.391)" fill="#b9b9b9"/>
  <path id="Path_5580" data-name="Path 5580" d="M53.911,61.971c-3.467-.165-6.961-.772-10.376-.937-3.843-.187-7.748.463-11.6.416a14.221,14.221,0,0,1-4.8-.671,6.666,6.666,0,0,1-3.786-3.368,8.787,8.787,0,0,1-.5-5.017,6.668,6.668,0,0,1,.817-2.46c1.25-2.007,3.709-2.245,5.858-2.291q7.242-.157,14.488-.1c6.449.058,12.983.251,19.228,2.269a5.242,5.242,0,0,1,2.036,1.043c1.412,1.306,1.528,3.694,1.524,5.771a4,4,0,0,1-.129,1.225,2.893,2.893,0,0,1-.8,1.153c-3.19,3.084-7.77,3.16-11.958,2.963" transform="translate(-9.428 -19.407)" fill="#b9b9b9"/>
  <path id="Path_5581" data-name="Path 5581" d="M59.951,31.448c-.141,3.467-.662,6.961-.8,10.376-.16,3.843.4,7.748.356,11.6a16.421,16.421,0,0,1-.575,4.8,6.44,6.44,0,0,1-2.886,3.786,6.533,6.533,0,0,1-4.3.5,5.176,5.176,0,0,1-2.109-.817c-1.72-1.25-1.925-3.709-1.964-5.858q-.135-7.242-.083-14.488c.048-6.449.215-12.983,1.944-19.228a5.618,5.618,0,0,1,.894-2.036c1.119-1.412,3.166-1.528,4.947-1.524a2.963,2.963,0,0,1,1.05.129,2.515,2.515,0,0,1,.989.8c2.643,3.19,2.708,7.77,2.539,11.958" transform="translate(-19.799 -7.335)" fill="#fff"/>
  <path id="Path_5582" data-name="Path 5582" d="M53.85,56.9c-3.467-.141-6.961-.662-10.376-.8-3.845-.161-7.748.4-11.6.355a16.421,16.421,0,0,1-4.8-.575,6.44,6.44,0,0,1-3.786-2.886,6.533,6.533,0,0,1-.5-4.3,5.176,5.176,0,0,1,.817-2.109c1.25-1.72,3.709-1.925,5.858-1.964q7.241-.135,14.488-.083c6.449.048,12.983.215,19.228,1.944a5.609,5.609,0,0,1,2.036.894c1.412,1.119,1.528,3.166,1.524,4.947a2.963,2.963,0,0,1-.129,1.05,2.515,2.515,0,0,1-.8.989C62.615,57,58.035,57.07,53.847,56.9" transform="translate(-9.403 -18.155)" fill="#fff"/>
</svg>
