<svg id="play" xmlns="http://www.w3.org/2000/svg" xmlns:xlink="http://www.w3.org/1999/xlink" width="70" height="70" viewBox="0 0 70 70">
  <defs>
    <clipPath id="clip-path">
      <rect id="Rectangle_5687" data-name="Rectangle 5687" width="70" height="70" fill="none"/>
    </clipPath>
    <clipPath id="clip-path-2">
      <rect id="Rectangle_5685" data-name="Rectangle 5685" width="37.726" height="47.099" transform="translate(16.01 13.611)" fill="none"/>
    </clipPath>
  </defs>
  <g id="Group_15847" data-name="Group 15847">
    <g id="Group_15846" data-name="Group 15846" clip-path="url(#clip-path)">
      <g id="Group_15845" data-name="Group 15845">
        <g id="Group_15849" data-name="Group 15849" transform="translate(2)">
          <g id="Group_15843" data-name="Group 15843" opacity="0.3">
            <g id="Group_15842" data-name="Group 15842">
              <g id="Group_15841" data-name="Group 15841" clip-path="url(#clip-path-2)">
                <path id="Path_13025" data-name="Path 13025" d="M53.171,41.237h0a3.442,3.442,0,0,0,.124-.959,35.1,35.1,0,0,0,.4-6.009c.112-2.294-2.1-4.555-6.762-8.283-9.871-7.9-16.451-13.819-24.129-12.065-5.747,1.314-6.577,9.51-6.632,13.549-.04,1.26-.093,3.211-.119,5.5-.039,1.272-.056,2.833-.01,4.526.051,6.483.418,13.758,1.71,16.244a11.261,11.261,0,0,0,2.514,4.836c5.154,5.154,13.528.43,24.264-8.374a58.372,58.372,0,0,0,7.262-6.55,6.6,6.6,0,0,0,1.383-2.415"/>
              </g>
            </g>
          </g>
          <path id="Path_13026" data-name="Path 13026" d="M53.425,36.916h0a3.447,3.447,0,0,0,.124-.959,35.117,35.117,0,0,0,.4-6.01c.112-2.294-2.1-4.555-6.762-8.283C37.311,13.767,30.731,7.845,23.053,9.6c-5.747,1.314-6.577,9.51-6.632,13.549-.04,1.261-.093,3.211-.119,5.5-.039,1.272-.056,2.833-.01,4.526.051,6.484.418,13.759,1.71,16.245a11.26,11.26,0,0,0,2.514,4.836c5.154,5.154,13.528.43,24.264-8.374a58.282,58.282,0,0,0,7.262-6.551,6.6,6.6,0,0,0,1.383-2.414" fill="#b6b6b6"/>
          <path id="Path_13027" data-name="Path 13027" d="M23.239,49.967c-.125-.281-.261-.558-.389-.825a29.821,29.821,0,0,1-2.3-8.735q-.719-5-1.017-10.054a4.226,4.226,0,0,0-.424-1.939,1.416,1.416,0,0,0-1.695-.689c-1.084.5-1.156,4.4-1.127,5.449a92.034,92.034,0,0,0,.657,12.039c.326,2.325,1.06,6.7,3.17,8.051a2.4,2.4,0,0,0,3.4-.751,3.15,3.15,0,0,0-.284-2.546" fill="#788284"/>
          <path id="Path_13028" data-name="Path 13028" d="M16.472,25.393S14.936,43.161,20.2,48.426s13.82.438,24.787-8.555,12.065-10.31,2.194-18.207S30.73,7.844,23.053,9.6s-6.581,15.794-6.581,15.794" fill="#fff"/>
        </g>
      </g>
    </g>
  </g>
</svg>
