<svg id="arrow-down" xmlns="http://www.w3.org/2000/svg" width="120" height="120" viewBox="0 0 120 120">
  <rect id="frame" width="120" height="120" fill="none"/>
  <path id="Path_1406" data-name="Path 1406" d="M51.443,182.606a4.747,4.747,0,0,1,3.793-1.686c1.686,0,2.948.317,3.9,1.686l7.689,7.584a5.987,5.987,0,0,1,1.686,3.9,5.467,5.467,0,0,1-1.686,3.791l-16.538,16.75,16.643,16.645a5.4,5.4,0,0,1,1.581,3.9,5.467,5.467,0,0,1-1.686,3.793l-7.689,7.689a5.23,5.23,0,0,1-4,1.686,5.459,5.459,0,0,1-3.791-1.686l-28.02-28.125a5.1,5.1,0,0,1-1.686-3.793,5.159,5.159,0,0,1,1.686-3.9Z" transform="translate(-154.674 116.07) rotate(-90)" fill="rgba(0,0,0,0.3)"/>
  <path id="Path_153" data-name="Path 153" d="M51.443,182.606a4.747,4.747,0,0,1,3.793-1.686c1.686,0,2.948.317,3.9,1.686l7.689,7.584a5.987,5.987,0,0,1,1.686,3.9,5.467,5.467,0,0,1-1.686,3.791l-16.538,16.75,16.643,16.645a5.4,5.4,0,0,1,1.581,3.9,5.467,5.467,0,0,1-1.686,3.793l-7.689,7.689a5.23,5.23,0,0,1-4,1.686,5.459,5.459,0,0,1-3.791-1.686l-28.02-28.125a5.1,5.1,0,0,1-1.686-3.793,5.159,5.159,0,0,1,1.686-3.9Z" transform="translate(-154.674 111.07) rotate(-90)" fill="#afafaf"/>
  <path id="Path_154" data-name="Path 154" d="M51.443,179.606a4.747,4.747,0,0,1,3.793-1.686c1.686,0,2.948.317,3.9,1.686l7.689,7.584a5.987,5.987,0,0,1,1.686,3.9,5.467,5.467,0,0,1-1.686,3.791l-16.538,16.75,16.643,16.645a5.4,5.4,0,0,1,1.581,3.9,5.467,5.467,0,0,1-1.686,3.793l-7.689,7.689a5.23,5.23,0,0,1-4,1.686,5.459,5.459,0,0,1-3.791-1.686l-28.02-28.125a5.1,5.1,0,0,1-1.686-3.793,5.159,5.159,0,0,1,1.686-3.9Z" transform="translate(-151.92 106.07) rotate(-90)" fill="#fff"/>
</svg>
