<svg id="arrow-right" xmlns="http://www.w3.org/2000/svg" width="120" height="120" viewBox="0 0 120 120">
  <path id="Path_5397" data-name="Path 5397" d="M98.134,67.41A11.205,11.205,0,0,0,96.458,63.5a14.17,14.17,0,0,0-3.516-4.408Q79.809,46.735,65.639,35.6C58.9,30.309,51.908,21.623,42.6,26.486c-4.249,2.222-7.3,6.213-10.2,10.081a29.1,29.1,0,0,0-3.624,6.2c-3.326,5.627-3.866,13.695.727,18.436a7.879,7.879,0,0,0,1.943,1.418,23.013,23.013,0,0,0,2.495,1.117l15.152,6L33.946,75.725a12.16,12.16,0,0,0-4.438,2.535,6.406,6.406,0,0,0-1.194,1.7,5.919,5.919,0,0,0-.794,1.775,18.461,18.461,0,0,0-.6,2.75,22.126,22.126,0,0,0,.945,9.681,29.217,29.217,0,0,0,3.723,7.587c.263.386.535.764.812,1.135.314.417.629.836.948,1.253.2.26.4.518.6.777.125.161.249.323.376.483.245.311.495.618.745.925l.236.286q.425.512.861,1.008l.094.105a22.63,22.63,0,0,0,6.338,5.243c9.3,4.863,16.687-2,23.425-7.291,9.436-7.41,18.158-17.076,26.913-25.312,3.523-3.313,6.243-7.954,5.192-12.96" opacity="0.3"/>
  <path id="Path_5398" data-name="Path 5398" d="M43.7,22.448a22.505,22.505,0,0,0-10.279,4.457c-6.034,4.859-8.546,16.4-2.666,22.474a12.174,12.174,0,0,0,4.438,2.534L61.36,62.269,49.7,66.882c-3.242,1.283-6.388,3.527-9.783,1.911-2.239-1.066-8.011-3.27-10.137-.941a5.171,5.171,0,0,0-1.015,2.068c-2.167,7.258.433,15.223,4.885,21.152,2.9,3.868,5.95,7.859,10.2,10.08,9.3,4.864,16.687-2,23.425-7.29,9.436-7.411,18.157-17.077,26.912-25.313,3.523-3.313,6.243-7.954,5.192-12.96a11.367,11.367,0,0,0-5.371-7.409c-3.06-1.766-6.813-2.017-9.865-3.8a30.79,30.79,0,0,1-3.333-2.454,99.476,99.476,0,0,0-8.64-6.384c-1.2-.739-2.552-1.2-3.818-1.831-4-1.983-7.048-6.315-10.837-8.832-3.882-2.579-8.97-3.249-13.817-2.436" fill="#bebebe"/>
  <path id="Path_5399" data-name="Path 5399" d="M38.921,80.187q-3.5-6.658-7-13.316a3.359,3.359,0,0,0-2.14.981,5.173,5.173,0,0,0-1.015,2.067c-2.167,7.259.433,15.224,4.885,21.153,2.43,3.237,4.969,6.546,8.222,8.846.335.188.67.373,1.016.545a5.268,5.268,0,0,0,1.938.639c2.007.142,3.521-1.889,3.5-3.751-.031-2.153-1.839-3.463-3.129-4.93-2.9-3.3-4.228-8.341-6.273-12.234" fill="#8b8b8b"/>
  <path id="Path_5400" data-name="Path 5400" d="M60.079,47.4a40.649,40.649,0,0,0-7.44-3.486,41.8,41.8,0,0,0-7.624-2.6c-3.795-.723-14.793.441-13.892,6.462A5.83,5.83,0,0,0,32.7,50.8a23.012,23.012,0,0,0,2.5,1.117L61.36,62.268,57.224,63.9a8.752,8.752,0,0,0,2.548-.462,8.45,8.45,0,0,0,5.249-9.7A11.243,11.243,0,0,0,60.079,47.4" fill="#8b8b8b"/>
  <path id="Path_5401" data-name="Path 5401" d="M98.158,53.233c-.347-2.429-2.2-4.3-3.971-5.965Q81.055,34.914,66.884,23.78C60.146,18.488,53.153,9.8,43.85,14.665c-4.25,2.222-7.295,6.212-10.2,10.08-3.525,4.694-6.982,11.7-2.9,15.914a12.166,12.166,0,0,0,4.438,2.534L61.36,53.549,35.191,63.9a12.154,12.154,0,0,0-4.438,2.535c-4.084,4.216-.627,11.22,2.9,15.913,2.9,3.868,5.949,7.859,10.2,10.08,9.3,4.864,16.3-3.822,23.034-9.114Q81.038,72.2,94.187,59.829c1.558-1.464,3.181-3.094,3.783-5.121a2.9,2.9,0,0,0,.188-1.475" fill="#fff"/>
  <rect id="frame" width="120" height="120" fill="none"/>
</svg>
