<svg id="Icon_-_Arrow_-_Left" data-name="Icon - Arrow - Left" xmlns="http://www.w3.org/2000/svg" width="120" height="120" viewBox="0 0 120 120">
  <rect id="frame" width="120" height="120" fill="none"/>
  <path id="Path_5393" data-name="Path 5393" d="M76.3,22.448a22.505,22.505,0,0,1,10.279,4.457c6.034,4.859,8.546,16.4,2.666,22.474a12.174,12.174,0,0,1-4.438,2.534L58.64,62.269,70.3,66.882c3.242,1.283,6.388,3.527,9.783,1.911,2.239-1.066,8.011-3.27,10.137-.941a5.171,5.171,0,0,1,1.015,2.068c2.167,7.258-.433,15.223-4.885,21.152-2.9,3.868-5.95,7.859-10.2,10.08-9.3,4.864-16.687-2-23.425-7.29-9.436-7.411-18.157-17.077-26.912-25.313-3.523-3.313-6.243-7.954-5.192-12.96a11.367,11.367,0,0,1,5.371-7.409c3.06-1.766,6.813-2.017,9.865-3.8a30.789,30.789,0,0,0,3.333-2.454,99.477,99.477,0,0,1,8.64-6.384c1.2-.739,2.552-1.2,3.818-1.831,4-1.983,7.048-6.315,10.837-8.832,3.882-2.579,8.97-3.249,13.817-2.436" transform="translate(-2.134)" fill="#bebebe"/>
  <path id="Path_5394" data-name="Path 5394" d="M81.079,80.187l7-13.316a3.359,3.359,0,0,1,2.14.981,5.173,5.173,0,0,1,1.015,2.067c2.167,7.259-.433,15.224-4.885,21.153-2.43,3.237-4.97,6.546-8.222,8.846-.335.188-.671.373-1.016.545a5.273,5.273,0,0,1-1.939.639c-2.007.142-3.521-1.889-3.495-3.751.029-2.153,1.839-3.463,3.128-4.93,2.9-3.3,4.228-8.341,6.274-12.234" transform="translate(-2.134)" fill="#8b8b8b"/>
  <path id="Path_5395" data-name="Path 5395" d="M59.921,47.4a40.649,40.649,0,0,1,7.44-3.486,41.8,41.8,0,0,1,7.624-2.6c3.795-.723,14.793.441,13.892,6.462A5.83,5.83,0,0,1,87.3,50.8a23.013,23.013,0,0,1-2.5,1.117L58.64,62.268,62.776,63.9a8.752,8.752,0,0,1-2.548-.462,8.45,8.45,0,0,1-5.249-9.7A11.243,11.243,0,0,1,59.921,47.4" transform="translate(-2.134)" fill="#8b8b8b"/>
  <path id="Path_5396" data-name="Path 5396" d="M21.842,53.233c.347-2.429,2.2-4.3,3.971-5.965q13.133-12.354,27.3-23.488C59.854,18.488,66.847,9.8,76.15,14.665c4.25,2.222,7.295,6.212,10.2,10.08,3.525,4.694,6.982,11.7,2.9,15.914a12.158,12.158,0,0,1-4.438,2.534L58.64,53.549,84.809,63.9a12.146,12.146,0,0,1,4.438,2.535c4.084,4.216.627,11.22-2.9,15.913-2.9,3.868-5.949,7.859-10.2,10.08-9.3,4.864-16.3-3.822-23.034-9.114Q38.962,72.2,25.813,59.829c-1.558-1.464-3.181-3.094-3.783-5.121a2.905,2.905,0,0,1-.188-1.475" transform="translate(-2.134)" fill="#fff"/>
</svg>
