<svg id="icon_-_awards" data-name="icon - awards" xmlns="http://www.w3.org/2000/svg" width="120" height="120" viewBox="0 0 120 120">
  <path id="Path_1284" data-name="Path 1284" d="M-322.5-304.424l-23.317,67.135,2.8,8.45h28.275l3.679-10.791h20.746l3.681,10.791h28.23l1.586-8.45-23.317-67.135Z" transform="translate(361.312 327.131)" opacity="0.3"/>
  <path id="Path_722" data-name="Path 722" d="M-322.5-304.424l-23.317,67.135,2.8,8.45h28.275l3.679-10.791h20.746l3.681,10.791h28.23l1.586-8.45-23.317-67.135Z" transform="translate(361.312 320.131)" fill="#ffb600"/>
  <path id="Path_723" data-name="Path 723" d="M-322.5-304.424h42.366l23.317,67.135h-29.7l-3.873-11.35H-312.2l-3.87,11.35h-29.74Z" transform="translate(361.312 320.131)" fill="#ff0"/>
  <path id="Path_724" data-name="Path 724" d="M-338.9-240.215a1.01,1.01,0,0,1-.314-.05.992.992,0,0,1-.626-1.255l20-59.66a.994.994,0,0,1,1.256-.625.993.993,0,0,1,.625,1.255l-20,59.659a.99.99,0,0,1-.94.676" transform="translate(361.312 320.131)" fill="#fff"/>
  <path id="Path_725" data-name="Path 725" d="M-287.574-282.887c.046-1.436.072-2.861.072-4.251h-26.315c0,1.39.027,2.815.073,4.251h-7.35v1.3c0,7.276,1.258,15.442,10.573,20.845a16.169,16.169,0,0,0,4.177,1.6,8.231,8.231,0,0,0,4.388,2.168v1.9a6.85,6.85,0,0,1-6.844,6.844h-1.757v2.6h19.794v-2.6h-1.756a6.851,6.851,0,0,1-6.844-6.844v-1.9a8.237,8.237,0,0,0,4.39-2.168,16.14,16.14,0,0,0,4.176-1.6c9.317-5.4,10.573-13.568,10.573-20.845v-1.3Zm-30.912,2.593h4.859c.373,6.1,1.471,12.256,4.382,17.289-7.62-4.433-9.085-10.855-9.241-17.289m26.412,17.289c2.914-5.035,4.011-11.194,4.384-17.289h4.858c-.155,6.435-1.622,12.856-9.242,17.289" transform="translate(361.312 320.131)" fill="#ffb600"/>
  <rect id="Rectangle_79" data-name="Rectangle 79" width="26.22" height="0.668" transform="translate(47.502 32.846)" fill="#ffcf30"/>
  <path id="Path_726" data-name="Path 726" d="M-290.141-247.936h-22.3l.24-.668h21.82Z" transform="translate(361.312 320.131)" fill="#ffcf30"/>
  <rect id="Rectangle_82" data-name="Rectangle 82" width="7.328" height="0.668" transform="translate(73.723 37.257)" fill="#ffcf30"/>
  <rect id="Rectangle_84" data-name="Rectangle 84" width="7.328" height="0.668" transform="translate(40.175 37.257)" fill="#ffcf30"/>
  <path id="Path_727" data-name="Path 727" d="M-280.127-281.319h-.057c-.55,10.306-5.443,16.55-12.215,19.2,3.043-4.884,5-13.157,4.952-25.163h-.035c-.486,18.854-6.233,27.55-13.165,27.55-6.917,0-12.589-9.41-13.151-27.55h-.049c0,11.707,2.006,20.132,5.118,25.133h0c-6.807-2.741-11.586-9.186-12.226-19.166h0c-.409,12.277,6.1,20.021,14.709,22.235a8.541,8.541,0,0,0,4.335,2.242v1.81h2.6v-1.811a8.737,8.737,0,0,0,4.418-2.226c8.556-2.129,14.857-9.3,14.765-22.25m-14.135,21.635c.036-.039.072-.081.107-.121-.035.04-.071.082-.107.121m1.252-1.523c.015-.023.03-.044.045-.065-.015.021-.03.042-.045.065m-.623.811.088-.109-.088.109" transform="translate(361.215 320.131)" fill="#e2a100"/>
  <path id="Path_728" data-name="Path 728" d="M-287.844-241.205h-26.892l-.549,1.585h27.974Z" transform="translate(361.312 320.131)" fill="#e2a100"/>
  <rect id="frame" width="120" height="120" fill="none"/>
</svg>
