<svg id="back" xmlns="http://www.w3.org/2000/svg" width="120" height="120" viewBox="0 0 120 120">
  <path id="Path_5402" data-name="Path 5402" d="M.532,56.26c1.153-3.43,35.754-32.107,40.523-33.467,3.467-.989,2.649,8.4,5.317,9.169S119.249,26.808,119.62,31c.047.538.024,1.9-.064,3.857a.4.4,0,0,1,.053.149c.371,4.2-3.218,65.035-8.178,65.4-.479.417-7.575-1.13-17.769-3.529-6.387-1.492-13.729-3.27-20.76-4.958l-.017,0c-20.169-4.82-28.177-5.985-28.177-5.985-3.435.754-4.984,9.906-8.036,9.9a2.307,2.307,0,0,1-.847-.29v0l-.008-.006C29.66,92.5-1.049,66.607.037,63.378c.129-.384-.393-6.107.5-7.118" transform="translate(0)" opacity="0.3"/>
  <path id="Path_5403" data-name="Path 5403" d="M41.045,19.98C36.81,21.188,7.585,41.413.532,49.441c-.888,1.012-.366,6.735-.5,7.118C-1.116,59.99,33.62,89.01,36.672,89.017s4.6-9.143,8.037-9.9S106.471,93.965,111.431,93.6s8.55-61.207,8.179-65.4-70.579,1.727-73.248.957-1.85-10.158-5.317-9.169" transform="translate(0)" fill="#bebebe"/>
  <path id="Path_5404" data-name="Path 5404" d="M41.055,15.975C36.286,17.335,1.685,46.012.532,49.442S33.63,85,36.682,85.012s4.6-9.143,8.037-9.9,61.4,8.169,66.358,7.8,8.913-54.53,8.543-58.727-70.579,1.727-73.248.957-1.851-10.158-5.317-9.169" transform="translate(0)" fill="#fff"/>
  <path id="Path_5405" data-name="Path 5405" d="M44.709,79.12c-1.43-.385-.17-4.138,1.447-4.029s39.16,5.13,51.476,6.469S112.2,92.931,111.432,93.6s-18.378-3.671-38.546-8.491S44.709,79.12,44.709,79.12" transform="translate(0)" fill="#8b8b8b"/>
  <path id="Path_5406" data-name="Path 5406" d="M.483,57.953S2.143,54.038,11.84,63.4,34.4,83.385,35.443,85.009a4.908,4.908,0,0,1,.382,3.721S13.767,73.556.483,57.953" transform="translate(0)" fill="#8b8b8b"/>
  <rect id="frame" width="120" height="120" transform="translate(0)" fill="none"/>
  <text id="Back-2" data-name="Back" transform="translate(22.292 59.374) rotate(2.25)" fill="#662d82" font-size="27" font-family="RammettoOne-Regular, Rammetto One"><tspan x="0" y="0">Back</tspan></text>
</svg>
