<svg id="back" xmlns="http://www.w3.org/2000/svg" width="120" height="120" viewBox="0 0 120 120">
  <path id="Path_5402" data-name="Path 5402" d="M.532,56.26c1.153-3.43,35.754-32.107,40.523-33.467,3.467-.989,2.649,8.4,5.317,9.169S119.249,26.808,119.62,31c.047.538.024,1.9-.064,3.857a.4.4,0,0,1,.053.149c.371,4.2-3.218,65.035-8.178,65.4-.479.417-7.575-1.13-17.769-3.529-6.387-1.492-13.729-3.27-20.76-4.958l-.017,0c-20.169-4.82-28.177-5.985-28.177-5.985-3.435.754-4.984,9.906-8.036,9.9a2.307,2.307,0,0,1-.847-.29v0l-.008-.006C29.66,92.5-1.049,66.607.037,63.378c.129-.384-.393-6.107.5-7.118" opacity="0.3"/>
  <path id="Path_5403" data-name="Path 5403" d="M41.045,19.98C36.81,21.188,7.585,41.413.532,49.441c-.888,1.012-.366,6.735-.5,7.118C-1.116,59.99,33.62,89.01,36.672,89.017s4.6-9.143,8.037-9.9S106.471,93.965,111.431,93.6s8.55-61.207,8.179-65.4-70.579,1.727-73.248.957-1.85-10.158-5.317-9.169" fill="#bebebe"/>
  <path id="Path_5404" data-name="Path 5404" d="M41.055,15.975C36.286,17.335,1.685,46.012.532,49.442S33.63,85,36.682,85.012s4.6-9.143,8.037-9.9,61.4,8.169,66.358,7.8,8.913-54.53,8.543-58.727-70.579,1.727-73.248.957-1.851-10.158-5.317-9.169" fill="#fff"/>
  <path id="Path_5405" data-name="Path 5405" d="M44.709,79.12c-1.43-.385-.17-4.138,1.447-4.029s39.16,5.13,51.476,6.469S112.2,92.931,111.432,93.6s-18.378-3.671-38.546-8.491S44.709,79.12,44.709,79.12" fill="#8b8b8b"/>
  <path id="Path_5406" data-name="Path 5406" d="M.483,57.953S2.143,54.038,11.84,63.4,34.4,83.385,35.443,85.009a4.908,4.908,0,0,1,.382,3.721S13.767,73.556.483,57.953" fill="#8b8b8b"/>
  <path id="Path_5407" data-name="Path 5407" d="M30.931,54.1c.07-.626.26-2.318.268-2.392.145-1.623.737-9.233.8-10.828.012-.11.065-.588.078-.7.016-.147.07-.625.074-.662.091-.474.375-2.679.465-3.153.758-1.107,4.029-.7,4.949-.6a19.513,19.513,0,0,1,4.064.977c3.2,1.066,4.357,2.687,3.977,6.072-.3,2.687-2.322,4.1-4.658,4.993-.041.033-.082.066-.119.062l0,.036c-.012.111,2.268,1.372,2.628,1.823a5.265,5.265,0,0,1,1.255,4.425c-.025.221-.078.7-.083.736a11.86,11.86,0,0,1-.307,1.419l-1.095,2.113c-.041.033-.933,1.013-1.31,1.381-1.3,1.308-4.332,1.75-5.98,1.826-.6.008-3.349-.039-3.9-.064l-.626-.07c-1.067-.12-1.267.006-1.18-1.1.016-.147.087-1.443.1-1.591,0,0,.025-.221.033-.294.169-1.509.4-2.9.569-4.408m5.636,2.905c3.288.257,4.545-6.31.628-6.6a.127.127,0,0,0-.077.028l-.082.065a21.849,21.849,0,0,0-.318,2.163c-.131,1.178-.149,3-.322,4.212-.009.074.135.127.171.131m1.059-12.439c1.889.436,3.529-3.554.454-4.048-.037,0-.082.066-.082.066l-.429,3.827Z" fill="#6e2988"/>
  <path id="Path_5408" data-name="Path 5408" d="M46.43,50.806c.013-.11.05-.441.054-.478.333-1.975.744-3.978,1.229-5.973.053-.143.225-.683.233-.757.09-.139.82-1.659,1.062-2.154,0-.037.086-.1.09-.139,2.166-2.7,5.255-4.329,9.036-2.825.036,0,.069.045.106.049a5.531,5.531,0,0,1,1.365.787,8.414,8.414,0,0,1,1.919,3.829c.733,2.765.051,5.856-.185,8.625.016.188-.083,1.406-.1,1.516-.017.148-.211,1.878-.281,2.5S60.716,58,60.7,58.107c-.061.552-.473,3.227-.576,3.811a1.759,1.759,0,0,1-1.87,1.393c-.221-.025.634,0-2.032-.489a2.919,2.919,0,0,1-.421-.233,1.229,1.229,0,0,1-.768-1.13c.029-.257.079-1.37.068-1.594.012-.111.024-.556.037-.667a.177.177,0,0,0-.172-.131c-.037,0-.151.02-.188.016-.111-.012-3.054-.342-3.169-.317-.11-.013-.09.138-.094.175s-.021.184-.021.184c-.017.482-.108,1.963-.083,2.078-.009.073.117.609.113.646l-.024.22c-.025.221-.07.291-.3.34-.626-.07-2.09.027-2.752-.048l-1.325-.148-1.288-.145c-.319-.147-.323-.446-.326-.745.432-3.528.526-7.021.917-10.517m6.042,2.615s1.059.193,1.1.2l1.656.186c.065-.253.292-1.607.324-1.9,0,0,.017-.147.021-.184.074-.662.018-1.489.092-2.151a19.681,19.681,0,0,0,.183-3.3c.154-2.367-.381-3.247-.986-3.166s-1.314,1.082-1.639,2.648c-.106.287-.34,1.043-.348,1.117a17.19,17.19,0,0,0-.416,2.375,24.813,24.813,0,0,0-.232,4.073.31.31,0,0,0,.249.1" fill="#6e2988"/>
  <path id="Path_5409" data-name="Path 5409" d="M63.106,51.968c0-.037-.024-.45-.024-.45a15.287,15.287,0,0,1,1.5-5.049,13.582,13.582,0,0,1,.8-1.774,8.423,8.423,0,0,1,8.2-4.372c.479.053.561-.012.912.177,3.982,1.043,5.038,3.918,4.556,8.224a20.987,20.987,0,0,1-.313,2.126A1.024,1.024,0,0,1,78,51.4c-.41-.008-2.3-.108-2.708-.117l-.993-.111-.884-.1c-.326-.074-.437-.422-.383-.9.037-.332,1.305-5,.365-5.25-2.931-.776-3.608,5.259-3.888,7.762-.013.11-.029.257-.046.4-.222,1.987-.61,5.112.992,6.446l.147.017c.957.107,1.652.222,2.13-4.047.128-1.141,3.583-.046,3.828.094.515.058,1.337.373,1.259,1.073-.78,6.955-2.5,9.3-8.127,8.665-2.539-.284-3.724-1.349-5.251-3.346a8.86,8.86,0,0,1-1.284-4.5c-.02-.152-.041-.3-.061-.455-.056-.49-.187-.989-.243-1.48-.017-.523.23-1.055.029-1.6.033-.294.186-1.656.223-1.987" fill="#6e2988"/>
  <path id="Path_5410" data-name="Path 5410" d="M79.254,63.168c.33-2.944.807-5.871,1.137-8.816.458-4.084.585-8.207,1.047-12.328.021-.184.119-.732.123-.769l.09-.139a3.542,3.542,0,0,1,.822-.019c1.591.1,2.658.223,4.167.392l1.067.12.065.082c0,.036.024,1.455,0,2.012-.034.965-.239,5.451-.309,6.411l.068.716.066.082a.13.13,0,0,0,.069.045c.148.016.541-.5.663-.6,1.372-1.6,3.026-4.057,3.265-6.192.063-.552.014-1.116.071-1.631.009-.074.017-.148.017-.148l.2-.089,6.477.726c.221.024.228.286.212.433-.4,3.607-3.75,8.523-6.451,10.68l-.017.147c4.815,2.589,5.035,7.607,5.19,11.872.017.189,0,.372.012.56.012.561-.778.957-1.24,1.091-.772-.087-4.2-.4-4.944-.442l-.552-.062-.588-.066a.278.278,0,0,1-.155-.278c-.329-3.055.1-8.224-2.092-10.594a2.344,2.344,0,0,0-.315-.184l-.086.1c-.041.368-.239,2.134-.28,2.5A34.812,34.812,0,0,1,86,65.19c-.639,1.047-2.009.968-3.158.914-.074-.009-1.554-.1-2.143-.166l-.221-.025c-.773-.087-1.341-.336-1.393-1.2.025-.22.149-1.324.173-1.545" fill="#6e2988"/>
  <rect id="frame" width="120" height="120" fill="none"/>
</svg>
