<svg id="beaver" xmlns="http://www.w3.org/2000/svg" width="120" height="120" viewBox="0 0 120 120">
  <path id="Path_5121" data-name="Path 5121" d="M108.54,51.551l-.021-.054c-.085-.22-.174-.442-.265-.667l-.042-.1c-.092-.226-.186-.455-.284-.686L107.912,50c-.415-.984-.874-2-1.36-3.034l-.039-.082c-.114-.242-.23-.484-.347-.728-.015-.03-.03-.061-.044-.091-.5-1.027-1.012-2.058-1.536-3.074l-.037-.072q-.18-.351-.362-.7l-.07-.135c-.119-.227-.237-.453-.356-.678-.02-.037-.04-.074-.059-.111-.388-.732-.774-1.449-1.152-2.141l-.019-.036c-.112-.205-.223-.406-.334-.607l-.091-.166-.308-.557-.112-.2-.293-.525-.081-.144c-.319-.568-.625-1.107-.914-1.612l-.105-.184-.24-.418-.106-.182-.228-.4c-.031-.052-.06-.1-.089-.153-.366-.63-.685-1.172-.944-1.607l-.007-.012c-.325-.548-.55-.923-.65-1.087,1.235.047,2.672.041,4.168.012a50.89,50.89,0,0,0-35.079-21.3Q64.21,10.366,61.4,11a8.215,8.215,0,0,0-1.183-1.455A51.048,51.048,0,0,0,49.06,10.841a6.474,6.474,0,0,0-.2,4.375,30.249,30.249,0,0,0-11.434,3.763A5.2,5.2,0,0,0,34.3,21.221a10.07,10.07,0,0,0-3.284,4.9A44.04,44.04,0,0,0,30,31.782l-.013.018c0,.02,0,.038,0,.058-.486,4.411-.375,9.752,1.591,14.312a11.378,11.378,0,0,0-.362,3.072,5.09,5.09,0,0,0,.173,1.093c.032.123.068.243.109.362l-.017.027.033.027C32.7,54.088,37.334,56.1,42.862,57.04c.358,1.206.824,2.827,1.242,4.292A22.83,22.83,0,0,0,36.317,63.9c-1.241-3.523-3.438-6.835-6.633-8.615a10.811,10.811,0,0,0-1.764-1.416,3.924,3.924,0,0,0-.1-.51,6.921,6.921,0,0,0-1.285-2.442,13.726,13.726,0,0,0-3.121-3.5c-.886-.607-1.952-1.422-3.171-1.238a1.278,1.278,0,0,0-.825,1.589,3.306,3.306,0,0,0,.161.551,3.543,3.543,0,0,0-2.534-.055c-.939.532-.528,1.77.049,2.393.325.331.654.657.98.986a4.283,4.283,0,0,0-3.158.083c-.876.63-.333,1.817.308,2.374q3.01,2.463,6.085,4.853h0l.541.478a1.514,1.514,0,0,0,.493.445l-.16.019c.016,2.164.115,4.318.267,6.465.213,4.18.879,9.821,5.177,12a2.419,2.419,0,0,0,.53.159,32.531,32.531,0,0,0,19.552-1.351,113.509,113.509,0,0,1-2.935,18.753c-.517,2.148-1.069,4.3-1.614,6.463.811.561,1.634,1.106,2.479,1.62l0-.018a50.626,50.626,0,0,0,20.612,7.074A50.927,50.927,0,0,0,111.4,60.467c0-.535-.024-1.065-.04-1.6a26.4,26.4,0,0,1-1.8-4.323c-.256-.915-.606-1.927-1.021-3" opacity="0.3"/>
  <path id="Path_5122" data-name="Path 5122" d="M42.657,62.936S31.942,56.43,18.4,68.331,28.525,80.923,42.14,74s5.079-8.744.517-11.067" fill="#93bb3f"/>
  <path id="Path_5123" data-name="Path 5123" d="M25.048,66.188s-4.411-10.179-9.31-12.644-5.4,2.47-4.407,9.027.632,11.157,3.276,12.867,14.434,3.326,10.441-9.25" fill="#93bb3f"/>
  <path id="Path_5124" data-name="Path 5124" d="M47.461,70.805c-8.523,6.673-20.144,10.539-30.91,7.711a2.509,2.509,0,0,1-.53-.159c-4.3-2.174-4.963-7.816-5.176-12-.152-2.148-.251-4.3-.267-6.465l.768-.092c1.1,4.018,1.351,8.551,2.649,12.4.6,1.579,1.555,3.344,3.009,4.008a30.533,30.533,0,0,0,4.727.939c8.984.948,17.9-2.008,25.73-6.343" fill="#8aae33"/>
  <path id="Path_5125" data-name="Path 5125" d="M17.691,55.073c4.6,2.322,7.22,7.783,8,12.688l-.178.065c-2.637-4.261-4.716-8.9-7.82-12.753" fill="#93bb3f"/>
  <path id="Path_5126" data-name="Path 5126" d="M39.495,18.783A55.529,55.529,0,0,1,45.926,15c1.608-.81,3.2-1.521,4.747-2.133a7.953,7.953,0,0,0-2.62-3.812C44.9,6.5,40.512,6.7,38.262,9.487c-2.145,2.66-1.567,6.716,1.233,9.3" fill="#8aae33"/>
  <path id="Path_5127" data-name="Path 5127" d="M32.787,103.2a50.879,50.879,0,0,0,51.025,2.523L80.834,53.944s-15.475-21.666-35.4-18.765S22.413,45.625,27.83,53.363c0,0,11.22,4.45,9.092,27.663A137.59,137.59,0,0,1,32.787,103.2" fill="#9ed516"/>
  <path id="Path_5128" data-name="Path 5128" d="M50.031,56.245s20.651,1.679,23.841-12.591S50.7,37.441,50.7,37.441" fill="#93bb3f"/>
  <path id="Path_5129" data-name="Path 5129" d="M27.973,53l-.285.719A10.565,10.565,0,0,1,30.537,56a19.679,19.679,0,0,1,3.775,6.355c3.613,10.858,1.234,22.654-1.143,33.562-.517,2.148-1.069,4.3-1.614,6.464.812.561,1.634,1.106,2.479,1.62.593-2.481,1.2-4.974,1.736-7.5A103.314,103.314,0,0,0,38.222,77.24a39.359,39.359,0,0,0-2.561-15.419c-1.607-3.6-3.975-7.136-7.688-8.818" fill="#afe40a"/>
  <path id="Path_5130" data-name="Path 5130" d="M59.751,45.636s-29.613,3.69-27.959,8.473c1.166,3.37,4.559,5.917,10.1,6.463.721,2.481,1.629,5.718,1.629,5.718l6.452-.239c0-1.379.238-4.026.44-6.023,9.972-2.176,9.337-14.392,9.337-14.392" fill="#9dc522"/>
  <path id="Path_5131" data-name="Path 5131" d="M109.442,74.434c-5.873-8.184-10.431-16.095-11.489-19.887-2.244-8.041-11.6-23.377-11.6-23.377,2.244,0,12.983-1.343,12.983-1.343A20.071,20.071,0,0,0,85.61,23.315c2.9-1.048,10.981-2.842,21.77,3.237C98.479,18.936,82.962,8.5,60.471,9.541,43,10.349,27.549,18.364,18.381,31.8c.286,9.859,12.058,14.331,12.058,14.331,2.245,1.871,14.027-5.8,23.191-3.366S75.137,58.288,77.381,64.459s-.187,14.027-2.431,21.32c-1.88,6.108-1.528,10.517.247,23.443a51.015,51.015,0,0,0,34.245-34.788" fill="#93bb3f"/>
  <path id="Path_5132" data-name="Path 5132" d="M104.975,80.445a4.672,4.672,0,0,0-3.439-2.017c-.914-.047-2.521.994-2.667-.518a9.1,9.1,0,0,1,.178-1.522c.156-2.134-2.352-3.575-4.5-3.456a8.672,8.672,0,0,0-6.693,4.37A14.474,14.474,0,0,0,86.11,85.29c.167,4.217,1.9,8.762,5.708,10.606a4.725,4.725,0,0,1,1.616.981,2.744,2.744,0,0,1,.531,1.936,51.118,51.118,0,0,0,12.021-15.507,6.279,6.279,0,0,0-1.011-2.861" fill="#693a1c"/>
  <path id="Path_5133" data-name="Path 5133" d="M90.379,72.925,95.46,97.46s5.167-4.688,6.466-7.432S103.813,78.3,103.813,78.3Z" fill="#9dc522"/>
  <path id="Path_5134" data-name="Path 5134" d="M57.183,37.9s2.992,18.7-19.637,18.328-20.2-21.881-18.141-30.11,20.2-14.4,29.549-9.164S57.183,37.9,57.183,37.9" fill="#93bb3f"/>
  <path id="Path_5135" data-name="Path 5135" d="M107.38,26.552c-.108-.093-.223-.188-.333-.282-.435-.2-.866-.4-1.29-.58.534.269,1.074.553,1.623.862" fill="#afd554"/>
  <path id="Path_5136" data-name="Path 5136" d="M94.084,25.718a20.666,20.666,0,0,0-4.732-1.845,16.032,16.032,0,0,0-1.544.467,18.626,18.626,0,0,1,6.276,1.378" fill="#afd554"/>
  <path id="Path_5137" data-name="Path 5137" d="M20.583,32.882c0-.02,0-.038,0-.058l.013-.018A43.867,43.867,0,0,1,21.6,27.145c1.389-5.556,10.11-10.169,18.508-10.97a57.837,57.837,0,0,1,22.558-5.61,62.871,62.871,0,0,1,28.677,5.317A62.892,62.892,0,0,0,60.472,9.541,57.863,57.863,0,0,0,37.913,15.15c-8.4.8-17.118,5.415-18.507,10.971a43.7,43.7,0,0,0-1.012,5.661l-.013.018c0,.02,0,.038,0,.058-.874,7.93.16,18.882,10.492,22.858-8.279-4.6-9.1-14.507-8.294-21.834" fill="#afd554"/>
  <path id="Path_5138" data-name="Path 5138" d="M77.148,86.8c2.244-7.294,4.675-15.149,2.431-21.32a25.3,25.3,0,0,0-4.436-7.006c-1.137-1.4-2.346-2.731-3.606-4.015a12.57,12.57,0,0,0-1.647-1.451c-.4-.285-1.7-.645-1.92-.906,3.3,3.93,7.583,7.328,9.411,12.354,2.244,6.171-.187,14.026-2.431,21.32-1.88,6.108-1.529,10.517.247,23.443.664-.2,1.319-.418,1.971-.645-1.574-11.647-1.816-15.937-.02-21.774" fill="#afd554"/>
  <path id="Path_5139" data-name="Path 5139" d="M88.666,68.911s2.4,12.3,20.315,14.309,2.5-15.962-11.782-21.375-9.885,2.128-8.533,7.066" fill="#93bb3f"/>
  <path id="Path_5140" data-name="Path 5140" d="M102.923,79.746s-4.56,10.114-3.086,15.4,5.461,2.33,9.643-2.816,7.826-7.977,7.312-11.083-7.255-12.914-13.869-1.5" fill="#93bb3f"/>
  <path id="Path_5141" data-name="Path 5141" d="M99.743,100.7a8.823,8.823,0,0,1-.693-4.01,3.409,3.409,0,0,1,2.423-2.992c1.341-.278,2.886.972,2.568,2.305,0,0,.128,5.812.1,8.494a1.451,1.451,0,0,1-.191.862c-.457.621-1.452.159-1.967-.416a12.471,12.471,0,0,1-2.244-4.243" fill="#ffdb10"/>
  <path id="Path_5142" data-name="Path 5142" d="M103.768,96.533q.586,3.851,1.064,7.71c.08.846-.345,2.08-1.414,1.932-1.2-.282-1.888-1.435-2.485-2.327a13.905,13.905,0,0,1-1.66-4.708c.772,2.184,1.935,4.585,3.931,5.833.18.08.33.193.461.137.118-.029.249-.667.25-.787q-.192-3.885-.287-7.778Z" fill="#faaf3b"/>
  <path id="Path_5143" data-name="Path 5143" d="M102.4,100.973a8.826,8.826,0,0,1-1.569-3.755,3.41,3.41,0,0,1,1.7-3.456c1.246-.57,3.03.305,3.017,1.675,0,0,1.418,5.638,1.991,8.258a1.455,1.455,0,0,1,.007.883c-.308.707-1.381.478-2.011.032a12.483,12.483,0,0,1-3.132-3.637" fill="#ffdb10"/>
  <path id="Path_5144" data-name="Path 5144" d="M104.912,96.044q1.6,3.552,3.093,7.142c.3.793.226,2.1-.843,2.241-1.233.051-2.2-.876-3.019-1.576a13.892,13.892,0,0,1-2.862-4.09c1.329,1.9,3.094,3.9,5.351,4.565.195.028.37.1.481.009.106-.061.062-.71.03-.826q-1.226-3.69-2.363-7.416Z" fill="#faaf3b"/>
  <path id="Path_5145" data-name="Path 5145" d="M105,99.368a8.831,8.831,0,0,1-2.358-3.317,3.409,3.409,0,0,1,.894-3.745c1.089-.83,3.022-.37,3.311.969,0,0,2.626,5.187,3.763,7.616a1.451,1.451,0,0,1,.2.86c-.145.757-1.242.77-1.954.474A12.475,12.475,0,0,1,105,99.368" fill="#ffdb10"/>
  <path id="Path_5146" data-name="Path 5146" d="M101.385,99.008a4.291,4.291,0,1,0-1.521-5.445,4.016,4.016,0,0,0,1.521,5.445" fill="#ffdb10"/>
  <path id="Path_5147" data-name="Path 5147" d="M20.821,29.372c0,4.915,2.654,8.9,5.928,8.9s5.928-3.984,5.928-8.9-2.654-8.9-5.928-8.9-5.928,3.984-5.928,8.9" fill="#8aae33"/>
  <path id="Path_5148" data-name="Path 5148" d="M21.772,28.389c0,4.113,2.221,7.447,4.961,7.447s4.961-3.334,4.961-7.447-2.221-7.447-4.961-7.447-4.961,3.334-4.961,7.447" fill="#5c7217"/>
  <path id="Path_5149" data-name="Path 5149" d="M22.951,27.8c0,3.135,1.693,5.677,3.782,5.677s3.782-2.542,3.782-5.677-1.693-5.677-3.782-5.677-3.782,2.542-3.782,5.677"/>
  <path id="Path_5150" data-name="Path 5150" d="M26.733,22.859c1.651,0,3.045,2.262,3.045,4.94s-1.394,4.94-3.045,4.94-3.045-2.262-3.045-4.94,1.394-4.94,3.045-4.94m0-.737c-2.089,0-3.782,2.542-3.782,5.677s1.693,5.677,3.782,5.677,3.782-2.541,3.782-5.677-1.693-5.677-3.782-5.677" fill="#d8df21"/>
  <path id="Path_5151" data-name="Path 5151" d="M25.218,26.223a2.152,2.152,0,0,0,1.831,2.368,2.153,2.153,0,0,0,1.832-2.368,2.153,2.153,0,0,0-1.832-2.368,2.152,2.152,0,0,0-1.831,2.368" fill="#fff"/>
  <path id="Path_5152" data-name="Path 5152" d="M60.489,20.933A8.089,8.089,0,1,0,71.9,20.2a8.089,8.089,0,0,0-11.416.734" fill="#8aae33"/>
  <path id="Path_5153" data-name="Path 5153" d="M59.287,26.257a5.865,5.865,0,1,0,5.865-5.865,5.865,5.865,0,0,0-5.865,5.865" fill="#5c7217"/>
  <path id="Path_5154" data-name="Path 5154" d="M60.729,25.483a4.423,4.423,0,1,0,4.423-4.423,4.423,4.423,0,0,0-4.423,4.423"/>
  <path id="Path_5155" data-name="Path 5155" d="M65.152,21.639a3.844,3.844,0,1,1-3.843,3.843,3.847,3.847,0,0,1,3.843-3.843m0-.58a4.424,4.424,0,1,0,4.423,4.423,4.423,4.423,0,0,0-4.423-4.423" fill="#d8df21"/>
  <path id="Path_5156" data-name="Path 5156" d="M63.408,24.46a1.908,1.908,0,1,0,1.9-2.061,1.987,1.987,0,0,0-1.9,2.061" fill="#fff"/>
  <path id="Path_5157" data-name="Path 5157" d="M61.581,16.158a11.107,11.107,0,1,0,14.7,5.531,11.107,11.107,0,0,0-14.7-5.531" fill="#8aae33"/>
  <path id="Path_5158" data-name="Path 5158" d="M56.174,26.251A8.052,8.052,0,1,0,64.227,18.2a8.053,8.053,0,0,0-8.053,8.053" fill="#5c7217"/>
  <path id="Path_5159" data-name="Path 5159" d="M35.375,22.6S19.258,39.692,19.614,49.242s25.912,10.094,33.2,6.162c16.318-8.8,2.694-45.172-17.441-32.8" fill="#ffdb10"/>
  <path id="Path_5160" data-name="Path 5160" d="M19.786,50.335c1.284.893,3.666,2.048,8.044,3.028,8.525,1.91,22.328.311,26.688-3.757l5.3-4.884c-.684,4.5-2.893,8.466-7,10.683-7,3.775-30.829,3.418-33.03-5.07" fill="#eec80a"/>
  <path id="Path_5161" data-name="Path 5161" d="M82.7,21.739a55.53,55.53,0,0,0-6.431-3.786c-1.608-.81-3.2-1.521-4.747-2.133a7.953,7.953,0,0,1,2.62-3.812c3.158-2.548,7.541-2.353,9.791.435,2.145,2.66,1.567,6.716-1.233,9.3" fill="#8aae33"/>
  <path id="Path_5162" data-name="Path 5162" d="M41.767,54.831s-.824,7.138-.824,9.884l-7.412.273s-2.2-7.824-2.745-9.47-1.372-4.119,0-5.354,9.471-2.2,10.3-.411.823,2.059.686,5.078" fill="#f1f1f1"/>
  <path id="Path_5163" data-name="Path 5163" d="M41.081,49.753c.824,1.784.824,2.059.686,5.079,0,0-.139,1.214-.3,2.826a50.441,50.441,0,0,1-10.209-.618c-.2-.667-.364-1.208-.469-1.522-.549-1.647-1.372-4.118,0-5.353s9.471-2.2,10.3-.412" fill="#e5e5e5"/>
  <path id="Path_5164" data-name="Path 5164" d="M36.684,65.036c-.079-.462-1.921-11.358-1.1-16.155l.559.1c-.805,4.7,1.079,15.85,1.1,15.963Z" fill="#cbcbcb"/>
  <path id="Path_5165" data-name="Path 5165" d="M19.809,50.206A32.035,32.035,0,0,0,37.9,54.55a23.061,23.061,0,0,0,15.09-6.928s-9.42-2.608-18.6-1.524-14.583,4.108-14.583,4.108" fill="#ffdb10"/>
  <path id="Path_5166" data-name="Path 5166" d="M20.082,50.391c5.754,2.22,11.655,3.531,17.755,2.99a57.9,57.9,0,0,0,13.452-2.522,17.569,17.569,0,0,0,4.146-2l.116.117c-5,6.529-19.679,9.025-27.212,6.377a22.721,22.721,0,0,1-8.46-4.625Z" fill="#faaf3b"/>
  <path id="Path_5167" data-name="Path 5167" d="M77.412,38.2c-.8-.995-.292-2.511.521-3.5a8.955,8.955,0,0,1,7.754-2.845,12.008,12.008,0,0,1,1.2.183c1.9,3.2,8.514,14.526,10.78,21.548-4.358,2.978-12.866.655-16.775-2.3-2.149-1.627-4.049-4.174-3.487-6.811a28.655,28.655,0,0,1,1.017-2.749,2.965,2.965,0,0,0-.276-2.8c-.222-.264-.513-.463-.729-.731" fill="#693a1c"/>
  <path id="Path_5168" data-name="Path 5168" d="M27.291,31.853c-5,8.519-5.45,17.535-1.013,20.138S38.362,49.8,43.359,41.277s5.45-17.536,1.013-20.138S32.288,23.334,27.291,31.853" fill="#ffea50"/>
  <path id="Path_5169" data-name="Path 5169" d="M41.911,40.394a1.891,1.891,0,1,0,1.888-2,1.946,1.946,0,0,0-1.888,2" fill="#faaf3b"/>
  <path id="Path_5170" data-name="Path 5170" d="M26.252,38.4a1.891,1.891,0,1,0,1.888-2,1.946,1.946,0,0,0-1.888,2" fill="#faaf3b"/>
  <path id="Path_5171" data-name="Path 5171" d="M91.253,60.061c10.671,1.813,21.351,7.806,26.505,17.671a2.468,2.468,0,0,1,.239.5c1.286,4.641-2.439,8.931-5.387,11.9-1.487,1.558-3.013,3.081-4.6,4.549l-.584-.507c2.233-3.516,5.416-6.753,7.386-10.3.763-1.508,1.425-3.4.939-4.922a30.49,30.49,0,0,0-2.487-4.128c-5.346-7.284-13.534-11.891-22.008-14.762" fill="#afd554"/>
  <path id="Path_5172" data-name="Path 5172" d="M99.655,92.668c-1.263-5.038.973-10.46,4.007-14.45l.15.079c-1.465,4.786-3.509,9.456-4.157,14.371" fill="#8aae33"/>
  <path id="Path_5173" data-name="Path 5173" d="M107.172,93.919q1.973,3.358,3.848,6.765c.388.756.451,2.059-.6,2.319-1.22.184-2.286-.632-3.171-1.239a13.891,13.891,0,0,1-3.288-3.757c1.526,1.742,3.5,3.54,5.814,3.959.2.007.378.056.479-.043.1-.072-.016-.713-.059-.824q-1.62-3.537-3.153-7.117Z" fill="#faaf3b"/>
  <path id="Path_5174" data-name="Path 5174" d="M14.083,49.9a8.834,8.834,0,0,1,2.133,3.466,3.408,3.408,0,0,1-1.139,3.677c-1.142.757-3.041.17-3.24-1.185,0,0-2.277-5.35-3.251-7.849a1.443,1.443,0,0,1-.143-.871c.194-.746,1.29-.687,1.98-.344a12.47,12.47,0,0,1,3.66,3.106" fill="#ffdb10"/>
  <path id="Path_5175" data-name="Path 5175" d="M11.894,55.265Q9.92,51.908,8.043,48.5a3.264,3.264,0,0,1-.23-.731,1.279,1.279,0,0,1,.825-1.589c1.22-.184,2.286.632,3.172,1.238A13.908,13.908,0,0,1,15.1,51.176c-1.527-1.742-3.5-3.54-5.815-3.957-.2-.007-.379-.056-.48.044-.1.071.017.713.06.824q1.621,3.535,3.156,7.115Z" fill="#faaf3b"/>
  <path id="Path_5176" data-name="Path 5176" d="M11.519,50.632a8.829,8.829,0,0,1,2.851,2.9,3.407,3.407,0,0,1-.292,3.838c-.945.992-2.927.843-3.423-.434,0,0-3.411-4.708-4.916-6.928a1.452,1.452,0,0,1-.334-.817c.024-.771,1.105-.957,1.855-.777a12.494,12.494,0,0,1,4.259,2.213" fill="#ffdb10"/>
  <path id="Path_5177" data-name="Path 5177" d="M11.014,56.143q-2.8-2.7-5.524-5.482c-.577-.624-.988-1.862-.049-2.394,1.126-.5,2.371,0,3.387.342a13.89,13.89,0,0,1,4.177,2.735c-1.939-1.268-4.32-2.471-6.664-2.251-.192.045-.38.047-.45.17-.076.1.207.682.279.778q2.509,2.97,4.948,6.007Z" fill="#faaf3b"/>
  <path id="Path_5178" data-name="Path 5178" d="M9.7,53.089a8.824,8.824,0,0,1,3.421,2.2A3.409,3.409,0,0,1,13.68,59.1c-.7,1.175-2.669,1.466-3.434.33,0,0-4.365-3.841-6.322-5.674a1.447,1.447,0,0,1-.506-.723c-.147-.757.867-1.177,1.638-1.166A12.471,12.471,0,0,1,9.7,53.089" fill="#ffdb10"/>
  <path id="Path_5179" data-name="Path 5179" d="M13.188,52.081a4.291,4.291,0,0,0-.564,8.488,4.291,4.291,0,0,0,.564-8.488" fill="#ffdb10"/>
  <path id="Path_5180" data-name="Path 5180" d="M9.7,58.956Q6.626,56.571,3.619,54.1c-.641-.558-1.184-1.745-.308-2.375,1.064-.623,2.357-.262,3.4-.027a13.915,13.915,0,0,1,4.448,2.267C9.1,52.919,6.6,51.981,4.3,52.453c-.185.066-.372.088-.429.218-.065.1.28.654.362.743Q7.045,56.1,9.8,58.85Z" fill="#faaf3b"/>
  <path id="Path_5181" data-name="Path 5181" d="M71.857,20.254a10.836,10.836,0,0,0-11.3.736l-.128-.113c1.469-3.141,5.857-4.338,8.952-2.856a6.047,6.047,0,0,1,2.577,2.123Z"/>
  <path id="Path_5182" data-name="Path 5182" d="M30.66,21.721c-3.249-1.735-5.046-1.863-7.814.7a6.728,6.728,0,0,1-1.065.926c1.037-4.667,6.659-6.414,8.879-1.622"/>
  <path id="Path_5183" data-name="Path 5183" d="M85.61,23.275a20.764,20.764,0,0,1,14.6,5.757l1.716,1.878L99.487,31c-3.8.1-9.377.426-13.129.277v-.2c1.074-.116,2.148-.316,3.219-.505l3.211-.607,6.407-1.3-.723,1.964A20.394,20.394,0,0,0,85.61,23.275" fill="#8aae33"/>
  <path id="Path_5184" data-name="Path 5184" d="M83.578,12.562c6.818,1.739,13.545,4.445,18.786,9.385l5.016,4.6L101.1,23.86a24.829,24.829,0,0,0-15.489-.545,25.864,25.864,0,0,1,16.3-1.666l-1.266,1.912a31.721,31.721,0,0,0-7.761-6.445,53.249,53.249,0,0,0-9.348-4.427Z" fill="#8aae33"/>
  <path id="Path_5185" data-name="Path 5185" d="M58.153,25.187a6.074,6.074,0,1,0,6.073-6.073,6.074,6.074,0,0,0-6.073,6.073"/>
  <path id="Path_5186" data-name="Path 5186" d="M64.227,19.911a5.277,5.277,0,1,1-5.277,5.277,5.283,5.283,0,0,1,5.277-5.277m0-.8A6.073,6.073,0,1,0,70.3,25.188a6.073,6.073,0,0,0-6.074-6.074" fill="#d8df21"/>
  <path id="Path_5187" data-name="Path 5187" d="M59.6,23.784a2.62,2.62,0,1,0,2.612-2.829A2.726,2.726,0,0,0,59.6,23.784" fill="#fff"/>
  <path id="Path_5188" data-name="Path 5188" d="M76.191,21.73A14.9,14.9,0,0,0,61.63,16.265l-.1-.215c3.7-3.132,9.762-2.1,12.821,1.479a8.4,8.4,0,0,1,2.02,4.118Z"/>
  <rect id="Rectangle_2370" data-name="Rectangle 2370" width="120" height="120" fill="none"/>
</svg>
