<svg id="bell" xmlns="http://www.w3.org/2000/svg" xmlns:xlink="http://www.w3.org/1999/xlink" width="70" height="70" viewBox="0 0 70 70">
  <defs>
    <clipPath id="clip-path">
      <rect id="Rectangle_2723" data-name="Rectangle 2723" width="52.033" height="66.165" fill="none"/>
    </clipPath>
    <clipPath id="clip-path-2">
      <rect id="Rectangle_2724" data-name="Rectangle 2724" width="10.887" height="13.491" fill="none"/>
    </clipPath>
    <clipPath id="clip-path-3">
      <rect id="Rectangle_2725" data-name="Rectangle 2725" width="21.078" height="24.286" fill="none"/>
    </clipPath>
    <clipPath id="clip-path-4">
      <rect id="Rectangle_2726" data-name="Rectangle 2726" width="20.363" height="16.276" fill="none"/>
    </clipPath>
    <clipPath id="clip-path-5">
      <rect id="Rectangle_2727" data-name="Rectangle 2727" width="13.575" height="8.758" fill="none"/>
    </clipPath>
    <clipPath id="clip-path-6">
      <rect id="Rectangle_2728" data-name="Rectangle 2728" width="3.51" height="3.285" fill="none"/>
    </clipPath>
    <clipPath id="clip-path-7">
      <rect id="Rectangle_2729" data-name="Rectangle 2729" width="23.182" height="19.293" fill="none"/>
    </clipPath>
    <clipPath id="clip-path-8">
      <rect id="Rectangle_2730" data-name="Rectangle 2730" width="13.822" height="17.081" fill="none"/>
    </clipPath>
    <clipPath id="clip-path-9">
      <rect id="Rectangle_2731" data-name="Rectangle 2731" width="9.213" height="8.757" fill="none"/>
    </clipPath>
    <clipPath id="clip-path-10">
      <rect id="Rectangle_2732" data-name="Rectangle 2732" width="10.166" height="6.879" fill="none"/>
    </clipPath>
    <clipPath id="clip-path-11">
      <rect id="Rectangle_2733" data-name="Rectangle 2733" width="2.057" height="4.623" fill="none"/>
    </clipPath>
  </defs>
  <g id="Group_3797" data-name="Group 3797" transform="translate(9.878 3.835)" opacity="0.3">
    <g id="Group_3796" data-name="Group 3796">
      <g id="Group_3795" data-name="Group 3795" clip-path="url(#clip-path)">
        <path id="Path_6302" data-name="Path 6302" d="M68.134,44.666a3.941,3.941,0,0,0-.717-.617c-1.1-.68-1.753.175-4.946-1.968a7.249,7.249,0,0,1-1.148-1.032l-.17-.184-.012-.013c-.057-.063-.115-.127-.173-.192l-.01-.011c-.306-.343-.629-.727-.973-1.14l0,0-.2-.239-.047-.057-.11-.134c-2.208-2.683-5.154-6.391-9.007-8.756l-.014-.009-.2-.123-.057-.034-.161-.094-.085-.049-.133-.075-.107-.06-.108-.058-.131-.071-.075-.039-.162-.083-.011-.005A14.035,14.035,0,0,0,43,28.021h-.019c-.083,0-.167,0-.251,0H42.7l-.248.007h-.03l-.253.012h-.016q-.668.038-1.359.145l-.051.008c-.072.011-.145.023-.218.036l-.088.015-.2.039-.1.02-.2.041-.114.025-.19.043-.122.03c-.062.015-.124.029-.186.045l-.129.034-.183.049-.134.038-.181.053-.139.043-.316.1-.17.057-.155.054-.169.06c-.1.022-.206.05-.307.08l-.006-.008a1.193,1.193,0,0,1-.076-.1l-.014-.022c-.025-.039-.048-.079-.071-.123l-.008-.016c-.022-.044-.043-.09-.064-.139l-.005-.012c-.02-.05-.04-.1-.058-.158l-.009-.029c-.018-.055-.035-.112-.051-.17,0-.01-.006-.02-.008-.032-.016-.061-.032-.124-.046-.19l0-.016c-.015-.066-.028-.135-.04-.2,0-.006,0-.013,0-.02-.012-.071-.024-.145-.035-.22l-.005-.036c-.01-.076-.02-.152-.03-.231,0-.011,0-.022,0-.033-.009-.083-.018-.168-.026-.254v0c-.008-.089-.015-.179-.022-.272l0-.023c-.006-.09-.012-.184-.017-.277l0-.036c0-.094-.009-.191-.013-.289V26.12c-.008-.208-.013-.424-.016-.645v-.012c0-.111,0-.224,0-.338v-.017c-.007-1.59.076-3.489.119-5.451,0-.031,0-.062,0-.093,0-.111,0-.224.006-.336,0-.054,0-.106,0-.159s0-.136,0-.2c0-.093,0-.186,0-.278a42.045,42.045,0,0,0-.226-5.5c-.015-.114-.029-.228-.045-.341,0-.009,0-.018,0-.027-.015-.107-.031-.215-.048-.321,0-.012,0-.025-.006-.038-.017-.1-.034-.206-.052-.308,0-.013-.005-.027-.008-.04q-.028-.153-.058-.3l0-.017c-.082-.407-.179-.8-.291-1.164-.01-.032-.019-.064-.029-.1-.019-.062-.04-.123-.061-.184-.014-.043-.029-.086-.043-.127s-.04-.108-.06-.162-.034-.092-.053-.138-.04-.1-.061-.147-.04-.1-.061-.142-.04-.09-.061-.134-.047-.1-.071-.144-.04-.081-.061-.121-.054-.1-.082-.147-.04-.071-.06-.1c-.032-.055-.065-.106-.1-.158-.018-.028-.034-.055-.053-.083-.052-.076-.1-.152-.16-.225h0a3.59,3.59,0,0,0-1.033-.941c-5.418-3.2-16.723,2.68-17.2,8.956,0,.043,0,.087-.006.131,0-.043,0-.087.006-.131-.006.077-.008.152-.009.224v.037c0,.02,0,.04,0,.059s0,.061,0,.089,0,.047,0,.071,0,.029,0,.044c0,.034.006.067.01.1.005.055.012.11.02.164q.008.053.017.1c0,.024.007.047.012.071s.015.062.022.092.015.069.024.1c0,.016.006.031.01.047.012.042.024.084.037.125s.017.062.027.093c0,.008,0,.017.008.025.009.029.022.059.031.088l.037.106c.006.015.01.03.016.045l0,0c.012.033.027.067.041.1.019.048.038.1.059.144l.007.016.041.088c.027.059.055.117.085.177.018.036.037.071.056.107s.034.067.052.1l.019.032.015.026c.022.038.043.076.065.114s.061.1.092.153.048.078.072.115c.01.016.019.032.03.048l.033.048.04.059c.025.037.05.075.075.111l.017.025.03.042c.024.035.05.069.075.1l.069.1q.1.127.2.253c.03.039.063.078.094.117s.079.1.12.146l.111.131.114.131.122.136.056.062.058.062c.043.047.087.094.131.141l.114.118.141.145.019.019.087.087q.291.29.6.576l.074.069c.064.058.129.116.194.174l.09.08.2.173.089.076.208.178.076.064c.076.064.152.127.229.19l.033.029c.469.385.957.767,1.456,1.143l0,0h0q.242.183.488.364l0,0h0l.139.1.007.005,0,0c.131.1.262.191.394.286l0,0,.169.121h0l.5.355.1.073h0c.776.547,1.552,1.081,2.3,1.593l.54.372.081.057.088.061c.769.531,1.49,1.04,2.127,1.518l.272.207.008,0,.255.2.012.009.234.187a.19.19,0,0,0,.021.017l.214.178.026.023c.068.057.133.114.2.17l.029.026c.061.054.119.106.177.159l.035.032c.054.05.106.1.157.149l.038.037c.049.048.1.1.141.143l.038.039c.043.046.083.09.124.135.012.014.026.027.037.041.038.043.072.086.107.128l.036.044c.032.04.061.08.09.12.011.016.024.031.034.047.027.038.05.075.074.113l.031.049c.022.036.04.072.058.107.009.016.019.033.026.049.018.036.03.07.044.1.006.015.015.032.02.047.013.036.022.071.03.106,0,.013.009.027.012.04a.914.914,0,0,1,.019.141v.006q-.136.1-.267.208l-.059.047c-.085.068-.169.137-.251.205l-.09.076-.218.188-.083.073c-.088.079-.175.158-.26.237l-.024.022c-.1.089-.189.179-.281.269l-.053.053c-.072.072-.144.145-.214.217l-.069.072c-.068.071-.134.142-.2.215l-.054.059q-.253.278-.484.563l-.039.049c-.064.079-.126.159-.188.238l-.047.061c-.064.083-.126.168-.188.253l-.024.033c-.143.2-.278.4-.408.6l-.026.04c-.055.087-.111.176-.164.264l-.026.044q-.277.46-.511.93l-.012.026q-.073.149-.143.3l-.008.017q-.225.484-.407.976l0,.006a18.635,18.635,0,0,0-.762,8.826l.007.053c.011.085.022.17.033.255,0,.027.007.054.011.082l.033.235c0,.027.008.054.012.082.015.094.029.187.043.281l.029.174.017.107c.012.069.024.139.036.208l.009.051c.1.6.222,1.186.348,1.761l0,0c.66,2.987,1.556,5.625,1.925,7.456l0,.016c.027.135.051.265.072.391l.012.075c0,.031.01.062.015.093.007.05.014.1.02.148,0,.022,0,.041.008.061,0,.037.009.074.013.11,0,.02,0,.041.005.061,0,.051.009.1.012.151l0,.027c0,.044.005.086.006.129,0,.014,0,.028,0,.042,0,.049,0,.1,0,.144-.073,3.762-1.16,4.262-1.132,5.573a3.364,3.364,0,0,0,.207,1.041c1,2.985,5.106,4.461,12.578,2.656.037.1.077.2.12.3l0,.009a6.81,6.81,0,0,0,1.784,2.479l.1.085.043.037A5.081,5.081,0,0,0,44.9,72.516a1.106,1.106,0,0,0,.223,0c.1.03.2.059.3.083A5.106,5.106,0,0,0,51.31,69.66a6.439,6.439,0,0,0,.229-2.991c0-.026-.008-.051-.011-.076a3.161,3.161,0,0,0-.185-1.744c.526-.24,1.06-.488,1.6-.751,14.609-8.213,17.813-16.65,15.186-19.433" transform="translate(-16.934 -6.574)"/>
      </g>
    </g>
  </g>
  <path id="Path_6303" data-name="Path 6303" d="M54.736,98.453a6.519,6.519,0,0,0,4.6,5.046,5.106,5.106,0,0,0,5.885-2.944,6.422,6.422,0,0,0,.229-2.99,9.8,9.8,0,0,0-3.3-6.316A5.18,5.18,0,0,0,59,89.928c-3.576-.047-4.819,5.795-4.262,8.525" transform="translate(-22.754 -37.47)" fill="#ff7e00"/>
  <g id="Group_3800" data-name="Group 3800" transform="translate(31.855 52.457)" opacity="0.46">
    <g id="Group_3799" data-name="Group 3799">
      <g id="Group_3798" data-name="Group 3798" clip-path="url(#clip-path-2)">
        <path id="Path_6304" data-name="Path 6304" d="M54.736,98.453a6.853,6.853,0,0,0,2.33,3.894,5.069,5.069,0,0,0,1.742,1.064,12.72,12.72,0,0,0,2.5-.307,3.09,3.09,0,0,1-.231-2.264,2.741,2.741,0,0,1,1.189-1.149,12.794,12.794,0,0,1,1.553-.793,3.594,3.594,0,0,0,1.25-.716c1.591-1.672-1.668-5.9-2.916-6.932A5.18,5.18,0,0,0,59,89.928c-3.576-.047-4.819,5.795-4.262,8.525" transform="translate(-54.609 -89.927)" fill="#99002a"/>
      </g>
    </g>
  </g>
  <path id="Path_6305" data-name="Path 6305" d="M56.773,72.845C41.669,80.1,33.8,78.925,32.354,74.627a3.381,3.381,0,0,1-.206-1.041c-.027-1.312,1.059-1.811,1.132-5.574.035-1.69-1.23-5-2.094-8.9l0,0C29.7,52.369,29.409,43.858,39.067,38.83c7.7-4.01,13.59-1.572,18.023,2.161,3.56,2.994,6.182,6.811,8.057,8.8A7.264,7.264,0,0,0,66.3,50.827c3.193,2.143,3.851,1.288,4.946,1.968a3.924,3.924,0,0,1,.717.617c2.627,2.783-.577,11.219-15.186,19.433" transform="translate(-12.669 -15.319)" fill="#ff7e00"/>
  <path id="Path_6306" data-name="Path 6306" d="M58.016,84.294c-15.1,7.253-22.975,6.081-24.419,1.783a3.381,3.381,0,0,1-.206-1.041c1.7.625,8.914,3.753,23.917-3.9,12.724-6.486,14.582-14.1,15.177-16.893a3.924,3.924,0,0,1,.718.617c2.627,2.783-.577,11.219-15.186,19.433" transform="translate(-13.913 -26.768)" fill="#ff3f00"/>
  <path id="Path_6307" data-name="Path 6307" d="M65.147,49.794c.485,2.9-.643,6.817-8.039,12.187-9.813,7.13-23.425,8.347-23.828,6.032.094-4.6-9.471-21.24,5.787-29.183,13.879-7.225,21.867,6.491,26.08,10.964" transform="translate(-12.669 -15.319)" fill="#ffa400"/>
  <path id="Path_6308" data-name="Path 6308" d="M48.678,39.7a1.464,1.464,0,0,0,.722-1.043.363.363,0,0,0-.057-.214.46.46,0,0,0-.295-.148,3.849,3.849,0,0,0-4.217,2.221c-.883,2.819,3.146-.279,3.847-.817" transform="translate(-18.627 -15.932)" fill="#ff7e00"/>
  <path id="Path_6309" data-name="Path 6309" d="M19.744,18.875q.245.185.492.367l.146.108.4.29.168.121q.249.179.5.356l.1.072c.942.665,1.895,1.314,2.842,1.97l.172.118.012.008a25.1,25.1,0,0,1,2.107,1.5c1.517,1.14,2.554,2.114,2.6,2.851a.82.82,0,0,1-.113.444,2.292,2.292,0,0,0,1.053.346,4.822,4.822,0,0,0,3.243-.977,4.671,4.671,0,0,0,1.479-2.368c-1.693-.013-1.139-5.32-1.074-10.757-.242-1.776-.1-3.671-.226-5.5A9.855,9.855,0,0,0,32.114,3.16a5.242,5.242,0,0,0-.136.792c-.583,5.694-18.287,12.6-18.1,7.223-.194,2.559,2.6,5.241,5.868,7.7" transform="translate(-5.778 -1.317)" fill="#b33404"/>
  <path id="Path_6310" data-name="Path 6310" d="M34.945,22.771a4.675,4.675,0,0,1-1.479,2.368,4.826,4.826,0,0,1-3.244.978,2.3,2.3,0,0,1-1.053-.347.819.819,0,0,0,.113-.444C29.113,22.413,13.425,15.8,13.876,9.859,14.359,3.582,25.664-2.3,31.082.9a3.579,3.579,0,0,1,1.033.94c3.735,4.9-.113,20.9,2.83,20.927" transform="translate(-5.778 0)" fill="#b23405"/>
  <g id="Group_3803" data-name="Group 3803" transform="translate(8.089 1.843)" opacity="0.29">
    <g id="Group_3802" data-name="Group 3802">
      <g id="Group_3801" data-name="Group 3801" clip-path="url(#clip-path-3)">
        <path id="Path_6311" data-name="Path 6311" d="M19.744,18.875q.245.185.492.367l.146.108.4.29.168.121q.249.179.5.356l.1.072c.942.665,1.895,1.314,2.842,1.97l.172.118.012.008a25.1,25.1,0,0,1,2.107,1.5c1.517,1.14,2.554,2.114,2.6,2.851a.82.82,0,0,1-.113.444,2.292,2.292,0,0,0,1.053.346,4.822,4.822,0,0,0,3.243-.977,4.671,4.671,0,0,0,1.479-2.368c-1.693-.013-1.139-5.32-1.074-10.757-.242-1.776-.1-3.671-.226-5.5A9.855,9.855,0,0,0,32.114,3.16a5.242,5.242,0,0,0-.136.792c-.583,5.694-18.287,12.6-18.1,7.223-.194,2.559,2.6,5.241,5.868,7.7" transform="translate(-13.866 -3.16)" fill="#773320"/>
      </g>
    </g>
  </g>
  <g id="Group_3806" data-name="Group 3806" transform="translate(8.089 9.859)" opacity="0.35">
    <g id="Group_3805" data-name="Group 3805">
      <g id="Group_3804" data-name="Group 3804" clip-path="url(#clip-path-4)">
        <path id="Path_6312" data-name="Path 6312" d="M19.744,24.6q.245.185.492.367l.146.108.4.29.168.121q.249.179.5.356l.1.072c.942.665,1.895,1.314,2.842,1.97l.172.118.012.008a25.1,25.1,0,0,1,2.107,1.505c1.517,1.14,2.554,2.114,2.6,2.851a.82.82,0,0,1-.113.444,2.292,2.292,0,0,0,1.053.346A3.52,3.52,0,0,0,34.2,30.531a.227.227,0,0,0,.012-.173.214.214,0,0,0-.149-.091c-1.325-.326-1.808,1.455-3.1.678a3.223,3.223,0,0,1-.981-1.079c-2.289-3.58-3.039-8.058-5.736-11.341a2.918,2.918,0,0,0-1.2-.973c-1.345-.481-9.505,3.689-9.176-.652-.194,2.559,2.6,5.241,5.868,7.7" transform="translate(-13.866 -16.901)" fill="#773320"/>
      </g>
    </g>
  </g>
  <g id="Group_3809" data-name="Group 3809" transform="translate(10.661 0.187)" opacity="0.11">
    <g id="Group_3808" data-name="Group 3808">
      <g id="Group_3807" data-name="Group 3807" clip-path="url(#clip-path-5)">
        <path id="Path_6313" data-name="Path 6313" d="M18.728,5.519C16.359,8.378,23.856,10.84,28.8,7.4S31.32,1.323,30.774.644s-7.346-.8-12.046,4.875" transform="translate(-18.277 -0.321)" fill="#ff0"/>
      </g>
    </g>
  </g>
  <g id="Group_3812" data-name="Group 3812" transform="translate(18.653 3.568)" opacity="0.28">
    <g id="Group_3811" data-name="Group 3811">
      <g id="Group_3810" data-name="Group 3810" clip-path="url(#clip-path-6)">
        <path id="Path_6314" data-name="Path 6314" d="M32.985,6.433c-2.6,2.084.464,4.316,2.031,1.959s-1.2-2.624-2.031-1.959" transform="translate(-31.976 -6.117)" fill="#ff0"/>
      </g>
    </g>
  </g>
  <g id="Group_3815" data-name="Group 3815" transform="translate(34.393 38.545)" opacity="0.28">
    <g id="Group_3814" data-name="Group 3814">
      <g id="Group_3813" data-name="Group 3813" clip-path="url(#clip-path-7)">
        <path id="Path_6315" data-name="Path 6315" d="M60.174,79.206c-1.353.483-1.689,5.747-.428,6.14s11.467-4.12,16.208-8.72,6.287-7.671,6.182-8.858-4.756-1.664-5.179-1.69-1.824,6.976-16.782,13.129" transform="translate(-58.959 -66.077)" fill="#ffffe2"/>
      </g>
    </g>
  </g>
  <g id="Group_3818" data-name="Group 3818" transform="translate(18.756 28.296)" opacity="0.28">
    <g id="Group_3817" data-name="Group 3817">
      <g id="Group_3816" data-name="Group 3816" clip-path="url(#clip-path-8)">
        <path id="Path_6316" data-name="Path 6316" d="M36.707,65.486c5.474,1.125,13.642-7.316,6.432-14.108S31.951,51.6,32.161,54.5s1.909,10.441,4.545,10.983" transform="translate(-32.153 -48.507)" fill="#ffffe2"/>
      </g>
    </g>
  </g>
  <g id="Group_3821" data-name="Group 3821" transform="translate(35.752 22.843)" opacity="0.28">
    <g id="Group_3820" data-name="Group 3820">
      <g id="Group_3819" data-name="Group 3819" clip-path="url(#clip-path-9)">
        <path id="Path_6317" data-name="Path 6317" d="M69.891,47.832c1.21.742.729-3.636-2.433-6.382S61.61,38.963,61.3,39.51s3.729,5.346,8.587,8.322" transform="translate(-61.288 -39.159)" fill="#ffffe2"/>
      </g>
    </g>
  </g>
  <path id="Path_6318" data-name="Path 6318" d="M57.234,86.388A40.282,40.282,0,0,0,73,79.331c7.944-5.82,8.962-12.02,8.962-12.02s-1.227,5.056-9.075,10.971a52.767,52.767,0,0,1-15.655,8.106" transform="translate(-23.847 -28.046)" fill="#ffe748"/>
  <path id="Path_6319" data-name="Path 6319" d="M69.955,79.757a33.084,33.084,0,0,0,5.632-2.92A8.69,8.69,0,0,0,78.3,73.921a60.013,60.013,0,0,1-8.34,5.836" transform="translate(-29.148 -30.8)" fill="#ffe748"/>
  <g id="Group_3824" data-name="Group 3824" transform="translate(44.854 43.992)" opacity="0.28">
    <g id="Group_3823" data-name="Group 3823">
      <g id="Group_3822" data-name="Group 3822" clip-path="url(#clip-path-10)">
        <path id="Path_6320" data-name="Path 6320" d="M80.218,82.293c2.147-2.235-2.087-4.208-3.164-3.933s3.565-2.946,3.565-2.946-.417-.005.343,1.332,4.034.994,6.1-.728a17.62,17.62,0,0,1-6.84,6.276" transform="translate(-76.892 -75.414)" fill="#ff0"/>
      </g>
    </g>
  </g>
  <g id="Group_3827" data-name="Group 3827" transform="translate(21.934 7.363)" opacity="0.11">
    <g id="Group_3826" data-name="Group 3826">
      <g id="Group_3825" data-name="Group 3825" clip-path="url(#clip-path-11)">
        <path id="Path_6321" data-name="Path 6321" d="M37.775,13.751c-.732.866,1.058,2.942,1.562,3.449s.344-3.46.006-4.335-1.568.885-1.568.885" transform="translate(-37.601 -12.622)" fill="#ff0"/>
      </g>
    </g>
  </g>
  <rect id="Rectangle_2734" data-name="Rectangle 2734" width="70" height="70" fill="none"/>
  <rect id="Rectangle_2735" data-name="Rectangle 2735" width="70" height="70" fill="none"/>
</svg>
