<svg id="bertie" xmlns="http://www.w3.org/2000/svg" xmlns:xlink="http://www.w3.org/1999/xlink" width="120" height="120.226" viewBox="0 0 120 120.226">
  <defs>
    <linearGradient id="linear-gradient" y1="0.5" x2="1" y2="0.5" gradientUnits="objectBoundingBox">
      <stop offset="0.163" stop-color="#fdbd10"/>
      <stop offset="0.52" stop-color="#fd0"/>
    </linearGradient>
    <linearGradient id="linear-gradient-2" y1="0.5" x2="1" y2="0.5" gradientUnits="objectBoundingBox">
      <stop offset="0.163" stop-color="#fcb614"/>
      <stop offset="0.274" stop-color="#fed105"/>
      <stop offset="0.342" stop-color="#fd0"/>
      <stop offset="0.456" stop-color="#fed006"/>
      <stop offset="0.653" stop-color="#fdc10e"/>
      <stop offset="0.811" stop-color="#fdbc11"/>
      <stop offset="0.826" stop-color="#fdc20d"/>
      <stop offset="0.881" stop-color="#fed503"/>
      <stop offset="0.918" stop-color="#fd0"/>
    </linearGradient>
    <linearGradient id="linear-gradient-3" x1="-101.77" y1="460.95" x2="-100.772" y2="460.95" xlink:href="#linear-gradient"/>
  </defs>
  <path id="Path_3504" data-name="Path 3504" d="M2782.267,586.607c-.3-.1-.591-.193-.89-.284a48.992,48.992,0,0,0-4.124,4.446c-1.122-4.3-8.659-6.981-17.43-6.053a32.947,32.947,0,0,0-5.051.927c-.026-.046-.054-.086-.081-.131-.18.043-.362.08-.541.125.032.055.062.1.1.158a21.406,21.406,0,0,0-6.526,3.042,8.014,8.014,0,0,0-3.862,7.977c0,.058-.009.117-.01.175a21.467,21.467,0,0,0-1.93,1.757,12.343,12.343,0,0,0-3.986,7.715c-.009.079-.012.159-.019.239-.018.135-.046.266-.058.4a9.588,9.588,0,0,0,.053,2.581c.037.235.089.466.149.7.737,3.427,3.326,6.25,7.072,8.172a18.311,18.311,0,0,0,.271,4.007,4.978,4.978,0,0,0,1.771,2.543,18.263,18.263,0,0,1,2.057,2.67,39.672,39.672,0,0,1,2.654,4.457,7.469,7.469,0,0,0,1.083,1.554,24.651,24.651,0,0,0-3.205,1.471,36.873,36.873,0,0,0-2.924-5.081c-7.855-11.444-20.472-16.43-28.18-11.138q-.364.25-.706.525a51.233,51.233,0,0,0-1.386,25.834,37.223,37.223,0,0,0,2.358,3.942,36.213,36.213,0,0,0,5.686,6.495,19.8,19.8,0,0,0-3.832,1.821,51,51,0,0,0,41.522,28.267c.231-.018.463-.031.692-.053.191-.019.38-.037.57-.057.215-.023.429-.052.644-.078q.608-.072,1.21-.159l.072-.009c.122-.018.247-.028.369-.047s.265-.05.4-.071c.171-.028.343-.054.515-.083.35-.061.7-.129,1.045-.2.185-.036.374-.062.559-.1.134-.027.265-.064.4-.092.178-.038.358-.07.535-.11h0c.3-.069.6-.15.9-.223s.595-.142.891-.22c.229-.061.456-.124.684-.188.2-.056.4-.118.606-.177l.3-.087c.23-.069.463-.132.692-.2.3-.1.6-.2.906-.3.2-.067.4-.135.6-.205.224-.079.451-.149.674-.23l0,0c.381-.14.755-.3,1.132-.443.244-.1.488-.19.73-.289.623-.256,1.238-.528,1.848-.807.177-.081.356-.158.532-.242q1.088-.513,2.145-1.076c.056-.03.114-.057.17-.087.691-.371,1.373-.76,2.046-1.161.134-.08.272-.153.406-.235a51.137,51.137,0,0,0,7.778-5.827c.025-.023.052-.044.077-.067.181-.165.351-.339.529-.506.029-.028.057-.056.086-.083q.281-.264.555-.531c.2-.194.407-.38.6-.577v0l-.028-.011c.869-.873,1.719-1.766,2.524-2.7a30.038,30.038,0,0,0-7.451-10.363,22.578,22.578,0,0,0,1.939-7.246c0-1.79-.285-2.527-.64-2.764a1.093,1.093,0,0,0,.324-1.057c-.075-.228-.4-.5-.908-.808h0c-.053-.032-.114-.066-.171-.1-.172-.1-.36-.208-.566-.319l-.119-.065-.392-.2-.176-.091-.494-.25-.032-.016c-.842-.422-1.816-.9-2.874-1.444l-.171-.089q-.361-.187-.734-.386l-.164-.087c3.835-7.668,5.313-15.481,3.291-19.875a5.238,5.238,0,0,0-5.765-3.189c-.066-.6-.148-1.183-.255-1.732a30.108,30.108,0,0,1-.864-4.688c0-.1,0-.195,0-.293.235-.221.464-.445.683-.673a12.337,12.337,0,0,0,3.987-7.715c.009-.083.013-.166.02-.249.017-.131.044-.259.056-.392a9.587,9.587,0,0,0-.053-2.581,7,7,0,0,0-.149-.7c-.769-3.576-3.557-6.49-7.568-8.414l-.025-.516-.025-.019a4.462,4.462,0,0,0-.015-.641c-.006-.052-.025-.1-.032-.152A35.582,35.582,0,0,1,2782.267,586.607Zm2.888,62.345a8.043,8.043,0,0,0,3.885-.075,46,46,0,0,0-3.182,6.533c-.2-.133-.4-.265-.606-.39-.3-1.214-.692-2.552-1.119-4.076a12.386,12.386,0,0,0-.689-2.408C2784.094,648.719,2784.678,648.858,2785.155,648.952Z" transform="translate(-2706.465 -574.887)" opacity="0.3"/>
  <path id="Path_3505" data-name="Path 3505" d="M2776.473,629.743c-7.841,9.785-11.893,22.728-9.05,28.907s11.5,3.257,19.347-6.527,11.891-22.727,9.048-28.906S2784.314,619.958,2776.473,629.743Z" transform="translate(-2706.465 -574.887)" fill="#6fcbdc" opacity="0.3"/>
  <path id="Path_3506" data-name="Path 3506" d="M2742.988,656.369c-5.617-3.243-13.529-.52-19.5,6.094a51.2,51.2,0,0,0,21.756,18.994C2750.683,671.365,2749.744,660.271,2742.988,656.369Z" transform="translate(-2706.465 -574.887)" fill="#6fcbdc" opacity="0.3"/>
  <path id="Path_3507" data-name="Path 3507" d="M2755.289,630.175c7.856,11.443,7.975,25.01.267,30.3s-20.325.305-28.181-11.137-7.973-25.011-.266-30.3S2747.434,618.731,2755.289,630.175Z" transform="translate(-2706.465 -574.887)" fill="#6fcbdc" opacity="0.3"/>
  <path id="Path_3508" data-name="Path 3508" d="M2725.993,633.633s15.106,4.706,20.243,13.63c0,0-8.016-7.216-10.865-8.173" transform="translate(-2706.465 -574.887)" fill="#6fcbdc" opacity="0.3" style="mix-blend-mode: screen;isolation: isolate"/>
  <path id="Path_3509" data-name="Path 3509" d="M2782.473,638.456s4.239-3.332,8.414-1.359c0,0-4.89-.8-7.094,1.2" transform="translate(-2706.465 -574.887)" fill="#6fcbdc" opacity="0.3" style="mix-blend-mode: screen;isolation: isolate"/>
  <path id="Path_3510" data-name="Path 3510" d="M2781.27,638.134s.99-1.919,6.285,1.9,11.408,5.8,11.77,6.915-1.77,2.775-5.717,2S2778.433,644.314,2781.27,638.134Z" transform="translate(-2706.465 -574.887)"/>
  <path id="Path_3511" data-name="Path 3511" d="M2798.42,646.143c-1.95-1.2-6.663-3.075-10.865-6.107a15.458,15.458,0,0,0-3.667-2.085c-.568.708,1.483,3.276,3.705,4.413C2787.593,642.364,2795.974,646.983,2798.42,646.143Z" transform="translate(-2706.465 -574.887)" fill="#29a9e1" opacity="0.4"/>
  <path id="Path_3512" data-name="Path 3512" d="M2747.077,646.755s-8.211-13.476-5.3-22.9c0,0,.511,8.528,1.753,12.294" transform="translate(-2706.465 -574.887)" fill="#6fcbdc" opacity="0.3" style="mix-blend-mode: screen;isolation: isolate"/>
  <path id="Path_3513" data-name="Path 3513" d="M2730.01,645.715s15.992,3.094,22.83-1.569-3.586-4.546-5.6-4.643-10.229,2.2-13.263,3.542S2728.21,645.419,2730.01,645.715Z" transform="translate(-2706.465 -574.887)"/>
  <path id="Path_3514" data-name="Path 3514" d="M2776.595,633.319c-16.862-5.171-35.064,9.064-34.18,35.261a23.561,23.561,0,0,0,5.028,13.826,51.1,51.1,0,0,0,36.573.622c4.237-5.029,7.6-12.421,9.271-22.657C2793.287,660.371,2793.457,638.489,2776.595,633.319Z" transform="translate(-2706.465 -574.887)" fill="url(#linear-gradient)"/>
  <path id="Path_3515" data-name="Path 3515" d="M2743.68,664.87c11.746-16.027,42.624-12.773,42.874-12.684a18.351,18.351,0,0,1,7.563,4.963,44.214,44.214,0,0,0-1.53-6.205c-1.44-8.174-9.463-10.519-15.983-11.949-15.916-3.492-29.294,8.266-33.733,20.828-.912,3.5-.477,2.694-.471,6.876Q2743.01,665.787,2743.68,664.87Z" transform="translate(-2706.465 -574.887)"/>
  <path id="Path_3516" data-name="Path 3516" d="M2749.227,639.575s2.241,1.334-.008,1.61-16.4,2.36-17.068,2.655S2742.374,639.072,2749.227,639.575Z" transform="translate(-2706.465 -574.887)" fill="#29a9e1" opacity="0.4"/>
  <path id="Path_3517" data-name="Path 3517" d="M2744.6,649.142s-5.135-3.514-13.167.567c0,0,8.056-2.5,12.339-.531" transform="translate(-2706.465 -574.887)" fill="#6fcbdc" opacity="0.3" style="mix-blend-mode: screen;isolation: isolate"/>
  <path id="Path_3518" data-name="Path 3518" d="M2747.753,644.679a27.3,27.3,0,0,1-5-.875,34.463,34.463,0,0,0,3.635.923C2747.6,644.9,2747.753,644.679,2747.753,644.679Z" transform="translate(-2706.465 -574.887)" fill="#676767"/>
  <path id="Path_3519" data-name="Path 3519" d="M2797.935,646.719a27.342,27.342,0,0,1-5.051-.461,34.375,34.375,0,0,0,3.7.621C2797.8,646.953,2797.935,646.719,2797.935,646.719Z" transform="translate(-2706.465 -574.887)" fill="#676767"/>
  <path id="Path_3520" data-name="Path 3520" d="M2797.7,648.526s-5.331,8.7-4.332,12.642l1,3.946s5.263-9.705,5.272-14.342S2797.7,648.526,2797.7,648.526Z" transform="translate(-2706.465 -574.887)"/>
  <path id="Path_3521" data-name="Path 3521" d="M2793.97,663.538s.71-7.01,2.269-10.005.945-4.119.945-4.119-3.575,6.6-3.839,9.452A9.484,9.484,0,0,0,2793.97,663.538Z" transform="translate(-2706.465 -574.887)" fill="#29a9e1" opacity="0.4"/>
  <path id="Path_3522" data-name="Path 3522" d="M2794.9,663.977a7.938,7.938,0,0,0-5.149,2.624,20.166,20.166,0,0,0-2.982,4.954s1.444.575,4.315-1.763A12.607,12.607,0,0,0,2794.9,663.977Z" transform="translate(-2706.465 -574.887)"/>
  <path id="Path_3523" data-name="Path 3523" d="M2791.083,669.792c-2.871,2.338-4.315,1.763-4.315,1.763a17.1,17.1,0,0,1,.835-1.743c.009.007,1.781,1.339,4.12-.591C2791.521,669.417,2791.308,669.609,2791.083,669.792Z" transform="translate(-2706.465 -574.887)" fill="#29a9e1" opacity="0.4"/>
  <path id="Path_3524" data-name="Path 3524" d="M2796.346,658.957a33.08,33.08,0,0,0,2.731-4.916,40.7,40.7,0,0,1-1.753,3.743C2796.636,658.949,2796.346,658.957,2796.346,658.957Z" transform="translate(-2706.465 -574.887)" fill="#676767"/>
  <path id="Path_3525" data-name="Path 3525" d="M2739.2,645.455a27.322,27.322,0,0,1-5.013-.772,34.519,34.519,0,0,0,3.653.847C2739.047,645.68,2739.2,645.455,2739.2,645.455Z" transform="translate(-2706.465 -574.887)" fill="#676767"/>
  <path id="Path_3526" data-name="Path 3526" d="M2758.961,648.22a15.191,15.191,0,0,1,.568-5.125,18.017,18.017,0,0,0-.94,3.637C2758.52,647.982,2758.961,648.22,2758.961,648.22Z" transform="translate(-2706.465 -574.887)" fill="#676767"/>
  <path id="Path_3527" data-name="Path 3527" d="M2782.85,649.749a18.077,18.077,0,0,0-.753-5.063,22.162,22.162,0,0,1,.982,3.623C2783.205,649.539,2782.85,649.749,2782.85,649.749Z" transform="translate(-2706.465 -574.887)" fill="#676767"/>
  <path id="Path_3528" data-name="Path 3528" d="M2790.533,650.411a14.432,14.432,0,0,0-.572-4.517,17.328,17.328,0,0,1,.847,3.219C2790.891,650.212,2790.533,650.411,2790.533,650.411Z" transform="translate(-2706.465 -574.887)" fill="#676767"/>
  <path id="Path_3529" data-name="Path 3529" d="M2772.489,633.679a8.815,8.815,0,0,1,1.758,3.619" transform="translate(-2706.465 -574.887)" fill="#c49a6c"/>
  <path id="Path_3530" data-name="Path 3530" d="M2756.419,641.205a8.805,8.805,0,0,1,.7-3.963" transform="translate(-2706.465 -574.887)" fill="#c49a6c"/>
  <path id="Path_3531" data-name="Path 3531" d="M2749.915,647.39a6.536,6.536,0,0,1,.31-2.776" transform="translate(-2706.465 -574.887)" fill="#c49a6c"/>
  <path id="Path_3532" data-name="Path 3532" d="M2751.125,640.966s-3.511,6.1-2.828,9.846l-3.426,4.571s.091-4.2.826-5.794S2749.96,641.349,2751.125,640.966Z" transform="translate(-2706.465 -574.887)" fill="#ddbd25" style="mix-blend-mode: multiply;isolation: isolate"/>
  <path id="Path_3533" data-name="Path 3533" d="M2742.45,658.024s-3.472,7.667-2.244,11.742c0,0,2.866-3.947,3.491-4.959S2744,660.441,2742.45,658.024Z" transform="translate(-2706.465 -574.887)"/>
  <path id="Path_3534" data-name="Path 3534" d="M2740.988,661.968s-.771,5.446.6,5.88l-1.382,1.918S2739.2,668.11,2740.988,661.968Z" transform="translate(-2706.465 -574.887)" fill="#29a9e1" opacity="0.4"/>
  <path id="Path_3535" data-name="Path 3535" d="M2736.089,676.035a50.976,50.976,0,0,0,69.064-7.654c-4.281-9.834-12.933-15.7-20.229-16.655C2770.752,649.863,2749.666,649.018,2736.089,676.035Z" transform="translate(-2706.465 -574.887)" fill="url(#linear-gradient-2)"/>
  <path id="Path_3536" data-name="Path 3536" d="M2738.446,677.68a50.979,50.979,0,0,0,64.211-6.588,65.721,65.721,0,0,0-22.215-4.612C2758.843,665.5,2745.192,672.716,2738.446,677.68Z" transform="translate(-2706.465 -574.887)"/>
  <path id="Path_3537" data-name="Path 3537" d="M2744.685,661.59a12.414,12.414,0,0,1,.464-4.19,14.659,14.659,0,0,0-.768,2.973C2744.324,661.4,2744.685,661.59,2744.685,661.59Z" transform="translate(-2706.465 -574.887)" fill="#676767"/>
  <path id="Path_3538" data-name="Path 3538" d="M2759.369,683.882a25.377,25.377,0,0,1,1.779-6.12,31.348,31.348,0,0,0-1.764,4.345C2759.016,683.6,2759.369,683.882,2759.369,683.882Z" transform="translate(-2706.465 -574.887)" fill="#676767"/>
  <path id="Path_3539" data-name="Path 3539" d="M2744.386,682.769a25.449,25.449,0,0,1,1.779-6.12,31.427,31.427,0,0,0-1.764,4.345C2744.032,682.485,2744.386,682.769,2744.386,682.769Z" transform="translate(-2706.465 -574.887)" fill="#676767"/>
  <path id="Path_3540" data-name="Path 3540" d="M2751.565,667.221a11.014,11.014,0,0,1,.386-5.014" transform="translate(-2706.465 -574.887)" fill="#c49a6c"/>
  <path id="Path_3541" data-name="Path 3541" d="M2790.932,657.558a11.03,11.03,0,0,1,2.2,4.522" transform="translate(-2706.465 -574.887)" fill="#c49a6c"/>
  <path id="Path_3542" data-name="Path 3542" d="M2767.139,661.555a11,11,0,0,1,.868-4.951" transform="translate(-2706.465 -574.887)" fill="#c49a6c"/>
  <path id="Path_3543" data-name="Path 3543" d="M2773.23,650.924c12.051-5.7,8.147-15.457,8.147-15.457l5.288,3.954s.591,9.235-1.741,12.3Z" transform="translate(-2706.465 -574.887)" fill="#c0272d"/>
  <path id="Path_3544" data-name="Path 3544" d="M2769.706,651.075c-9.237,1.359-14.029,7.767-17.147,11.717-2.111,2.674-7.143,2.842-10.175,2.671a2.551,2.551,0,0,0-2.4,1.212l-4.924,8.557c.256.2.508.407.768.6a3.144,3.144,0,0,1,.344.033l.048.015.043.013c1.132.35,12.562,3.5,19.367-9.766,7.164-13.968,26.56-14.592,26.56-14.592S2778.942,649.716,2769.706,651.075Z" transform="translate(-2706.465 -574.887)" fill="#ec1e24"/>
  <path id="Path_3545" data-name="Path 3545" d="M2782.19,651.539s-3.248-1.823-12.484-.464c-8.759,1.288-13.52,7.117-16.649,11.085h0a10.451,10.451,0,0,0,.66,7.128,25.235,25.235,0,0,0,1.913-3.157C2762.794,652.163,2782.19,651.539,2782.19,651.539Z" transform="translate(-2706.465 -574.887)" fill="#f2f2f2" opacity="0.2"/>
  <path id="Path_3546" data-name="Path 3546" d="M2736.232,675.888" transform="translate(-2706.465 -574.887)" fill="#ec1e24"/>
  <path id="Path_3547" data-name="Path 3547" d="M2760.04,642.817l3.209-2.3,3.6,1.629.386,3.93-3.209,2.3-3.6-1.63Z" transform="translate(-2706.465 -574.887)" fill="#faec22"/>
  <path id="Path_3548" data-name="Path 3548" d="M2761.037,643.269l2.319-1.661,2.6,1.179.279,2.839-2.319,1.661-2.6-1.178Z" transform="translate(-2706.465 -574.887)" fill="#ddbd25" opacity="0.5" style="mix-blend-mode: multiply;isolation: isolate"/>
  <path id="Path_3549" data-name="Path 3549" d="M2761.505,643.228l1.755-1.433,2.41,1.057.1,2.271-1.92,1.495-2.322-.852Z" transform="translate(-2706.465 -574.887)" fill="#faec22"/>
  <path id="Path_3550" data-name="Path 3550" d="M2742.96,659.1a24.9,24.9,0,0,1-13.313-13.631s4.822.672,7.419,3.311S2742.96,659.1,2742.96,659.1Z" transform="translate(-2706.465 -574.887)"/>
  <path id="Path_3551" data-name="Path 3551" d="M2742.331,657.7s-6.211-6.836-6.942-7.809-2.949-4.025-1.243-3.068S2738.768,649.01,2742.331,657.7Z" transform="translate(-2706.465 -574.887)" fill="#29a9e1" opacity="0.4"/>
  <path id="Path_3552" data-name="Path 3552" d="M2735.543,652.351a28.925,28.925,0,0,0,4.12,2.791s-2.233-1.163-3.2-1.859S2735.543,652.351,2735.543,652.351Z" transform="translate(-2706.465 -574.887)" fill="#676767"/>
  <path id="Path_3553" data-name="Path 3553" d="M2785.841,591.417c.495,4.676-6.566,9.255-15.773,10.23a29.2,29.2,0,0,1-9.139-.386,18.6,18.6,0,0,1-3.7-1.173,9.4,9.4,0,0,0-1.448-.685,19.978,19.978,0,0,0-2.2-.145,3.366,3.366,0,0,0-1.494-.01,16.677,16.677,0,0,0,.226-2.434,8.013,8.013,0,0,1,3.862-7.977,25.525,25.525,0,0,1,12.1-4.121C2777.483,583.742,2785.347,586.743,2785.841,591.417Z" transform="translate(-2706.465 -574.887)" fill="#c49a6c"/>
  <path id="Path_3554" data-name="Path 3554" d="M2786.166,597.819l-.285-5.742c-3.1-2.739-9.808-4.179-17.364-3.379-4.613.488-9.452,1.718-13.292,4.247a11.708,11.708,0,0,0-2.872,2.547l.351,7.063-1.938.1q-.056.381-.12.755a4.018,4.018,0,0,1,1.635,0,23.349,23.349,0,0,1,2.408.123,10.636,10.636,0,0,1,1.578.67,21.443,21.443,0,0,0,4.04,1.138,34.851,34.851,0,0,0,10,.294c8.245-.873,14.941-4.14,16.846-7.858Z" transform="translate(-2706.465 -574.887)" fill="#ec1e79"/>
  <path id="Path_3555" data-name="Path 3555" d="M2793.676,604.286a9.587,9.587,0,0,0-.053-2.581c-.037-.234-.088-.467-.149-.7-1.686-7.847-13.078-12.522-25.827-10.484-7.289,1.166-13.473,4.279-17.276,8.223a12.338,12.338,0,0,0-3.986,7.715,9.588,9.588,0,0,0,.052,2.581c.037.233.089.467.149.7,1.687,7.847,13.079,12.523,25.827,10.483,7.29-1.165,13.473-4.279,17.276-8.223A12.337,12.337,0,0,0,2793.676,604.286Z" transform="translate(-2706.465 -574.887)" fill="#c6b198"/>
  <path id="Path_3556" data-name="Path 3556" d="M2793.6,604.927a9.548,9.548,0,0,0-.053-2.581c-.037-.233-.088-.466-.148-.7-1.688-7.846-13.078-12.523-25.827-10.483-7.29,1.166-13.474,4.278-17.276,8.223a12.332,12.332,0,0,0-3.988,7.714,9.568,9.568,0,0,0,.053,2.581c.037.235.089.467.149.7,1.687,7.846,13.079,12.522,25.827,10.483,7.29-1.166,13.474-4.279,17.276-8.223A12.337,12.337,0,0,0,2793.6,604.927Z" transform="translate(-2706.465 -574.887)" fill="#8c6339"/>
  <path id="Path_3557" data-name="Path 3557" d="M2755.147,601.139s3.211-6.792,16.616-7.042,17.819,5.914,17.17,11.168-17.626,11.982-28.6,8.485S2755.147,601.139,2755.147,601.139Z" transform="translate(-2706.465 -574.887)" fill="#8c6339" opacity="0.5" style="mix-blend-mode: multiply;isolation: isolate"/>
  <path id="Path_3558" data-name="Path 3558" d="M2767.335,595.686c-5.257-19.328-17.5-20.8-17.5-20.8s-6.867,2,7.287,5.782C2763.919,582.486,2767.335,595.686,2767.335,595.686Z" transform="translate(-2706.465 -574.887)"/>
  <path id="Path_3559" data-name="Path 3559" d="M2767.335,595.686c-5.929-14.735-8.559-14.322-8.559-14.322l.787-.013a28.868,28.868,0,0,1,7.115,12.3" transform="translate(-2706.465 -574.887)"/>
  <path id="Path_3560" data-name="Path 3560" d="M2780.708,597.978s10.21-18.877,25.839-19.974c0,0,4.678,1.624-10.892,5.965C2788.183,586.051,2780.708,597.978,2780.708,597.978Z" transform="translate(-2706.465 -574.887)"/>
  <path id="Path_3561" data-name="Path 3561" d="M2749.833,574.887a3.292,3.292,0,0,0-1.5.933c-.354.575,1.406-.047,1.627-.161s6.439,2.128,7.4,2.963S2753.442,575.169,2749.833,574.887Z" transform="translate(-2706.465 -574.887)" fill="#29a9e1" opacity="0.4"/>
  <path id="Path_3562" data-name="Path 3562" d="M2806.547,578a73.831,73.831,0,0,1-7.568,3.1,42.881,42.881,0,0,0-5.734,2.307,29.2,29.2,0,0,1,6.358-3.818A22.746,22.746,0,0,1,2806.547,578Z" transform="translate(-2706.465 -574.887)" fill="#29a9e1" opacity="0.4"/>
  <path id="Path_3563" data-name="Path 3563" d="M2783.346,616.589l-26.722-17.008s-8.032,6.46-6.888,15.263c3.382,3.379,9.151,5.483,15.843,5.688L2783,616.767C2783.113,616.707,2783.231,616.649,2783.346,616.589Z" transform="translate(-2706.465 -574.887)" fill="#8c6339" opacity="0.5" style="mix-blend-mode: multiply;isolation: isolate"/>
  <path id="Path_3564" data-name="Path 3564" d="M2782.876,597.937c-9.6-4.394-21.673-3.857-25.892,3.991a26.386,26.386,0,0,0-3.363,13.114c.074,2.453-.269,5.12.232,7.519a4.976,4.976,0,0,0,1.771,2.543,18.261,18.261,0,0,1,2.057,2.67,39.939,39.939,0,0,1,2.655,4.457,4.465,4.465,0,0,0,3.766,2.671,28.585,28.585,0,0,0,7.093.285c1.121-.166,2.227-.384,3.345-.617.966-.2,2.022-.3,2.924-.584,1.034-.325,1.007-.9,1.363-1.759.394-.949,1.523-1.367,2.249-2.056,2.724-2.586,8.927-2.563,9.1-7.313a20.92,20.92,0,0,0-.382-4.562,30.108,30.108,0,0,1-.864-4.688c-.071-1.922.054-3.845.026-5.77C2788.9,603.542,2787.405,600.012,2782.876,597.937Z" transform="translate(-2706.465 -574.887)"/>
  <path id="Path_3565" data-name="Path 3565" d="M2782.876,597.937c-9.6-4.394-21.673-3.857-25.892,3.991a26.386,26.386,0,0,0-3.363,13.114c.074,2.453-.269,5.12.232,7.519a4.976,4.976,0,0,0,1.771,2.543,18.261,18.261,0,0,1,2.057,2.67,39.939,39.939,0,0,1,2.655,4.457c1,1.8,1.94,2.754,4.263,2.662,2.847-.11,9.867-.209,12.564-.755,1.246-.253,1.556-.82,1.909-1.906.368-1.135,1.39-1.475,2.307-2.184a8.988,8.988,0,0,1,2.78-1.79,19.778,19.778,0,0,0,2.775-1.1c1.747-.88,3.169-2.232,3.246-4.3a20.92,20.92,0,0,0-.382-4.562,30.108,30.108,0,0,1-.864-4.688c-.071-1.922.054-3.845.026-5.77C2788.9,603.542,2787.405,600.012,2782.876,597.937Z" transform="translate(-2706.465 -574.887)" fill="#29a9e1" opacity="0.3"/>
  <path id="Path_3566" data-name="Path 3566" d="M2757.4,604.42s1.077-5.042,4.586-5.93,6.994-1.662,9.083.041,8.519.761,8.524.76c.76-.111,1.509-.337,2.27-.416a8.877,8.877,0,0,1,3.115.307,7.3,7.3,0,0,0-2.029-1.151,8.352,8.352,0,0,0-1.327-.68,3.189,3.189,0,0,0-1.313-.048,3.718,3.718,0,0,1-1.066-.133c-.686-.13-1.391-.193-2.084-.288-.98-.137-2.027-.185-2.991-.416l-4.254-1.017-2.376-.174a33.639,33.639,0,0,1-3.7.975,2.7,2.7,0,0,0-.909.36,10.747,10.747,0,0,1-2.762.974C2759.487,597.766,2756.654,600.414,2757.4,604.42Z" transform="translate(-2706.465 -574.887)"/>
  <path id="Path_3567" data-name="Path 3567" d="M2758.179,599.736s-1.82,8.276-.662,12.68a8.374,8.374,0,0,0-3.961,2.629S2753.741,605.355,2758.179,599.736Z" transform="translate(-2706.465 -574.887)" fill="#cccbcb"/>
  <path id="Path_3568" data-name="Path 3568" d="M2763.378,596.421a7.012,7.012,0,0,1,3.822-.339c1.278.263,2.31,1.177,3.505,1.672a14.066,14.066,0,0,0,4.155,1,38.271,38.271,0,0,0,4.6-.326c.73-.025,1.08-.431,1.724-.618a3.542,3.542,0,0,1,1.887.174c-1.242-.377-2.327-1.142-3.6-1.441-.914-.213-1.8-.556-2.712-.785a23.453,23.453,0,0,0-6.886-.7A21.31,21.31,0,0,0,2763.378,596.421Z" transform="translate(-2706.465 -574.887)" fill="#676767"/>
  <path id="Path_3569" data-name="Path 3569" d="M2781.341,611.282s-1.947-7.851,1.82-9.362,6.163,2.023,4.932,11.022l-2.687-1A12.447,12.447,0,0,0,2781.341,611.282Z" transform="translate(-2706.465 -574.887)" fill="#676767"/>
  <path id="Path_3570" data-name="Path 3570" d="M2760.447,612.536c-1.688-5.914-.241-11.1,5.965-11.568s5.313,9.653,5.313,9.653a28.44,28.44,0,0,0-2.938.139,19.574,19.574,0,0,0-4.318.986,22.866,22.866,0,0,1-4.147.8" transform="translate(-2706.465 -574.887)" fill="#676767"/>
  <path id="Path_3571" data-name="Path 3571" d="M2781.325,611.056s-2.008-8.669,1.749-10.3,6.183,2.28,5.019,12.188l-2.7-1.124S2782.6,610.809,2781.325,611.056Z" transform="translate(-2706.465 -574.887)" fill="#29a9e1" opacity="0.3"/>
  <path id="Path_3572" data-name="Path 3572" d="M2760.43,612.262c-1.734-6.531-.326-12.238,5.88-12.7s5.388,10.683,5.388,10.683a25.687,25.687,0,0,0-2.936.129,17.746,17.746,0,0,0-4.314,1.051,20.83,20.83,0,0,1-4.144.849" transform="translate(-2706.465 -574.887)" fill="#29a9e1" opacity="0.3"/>
  <path id="Path_3573" data-name="Path 3573" d="M2758.935,612.15a5.026,5.026,0,0,0,2.047.307c1.115-.077,5.87-2.378,10.6-2.117,0,0,.194-6.765-2.315-8.069s-9.328,1.641-7.407,9.656A8.173,8.173,0,0,1,2758.935,612.15Z" transform="translate(-2706.465 -574.887)" fill="#4d4e4e"/>
  <path id="Path_3574" data-name="Path 3574" d="M2781.5,611.377s-.817-7.393.872-8.861,6.089,1.515,4.585,10.177A11.1,11.1,0,0,0,2781.5,611.377Z" transform="translate(-2706.465 -574.887)" fill="#4d4e4e"/>
  <path id="Path_3575" data-name="Path 3575" d="M2771,610.267s-.035-7.625-3.489-7.267c-2.961.307-5.733,2.569-4.972,8.8C2762.538,611.8,2767.224,609.844,2771,610.267Z" transform="translate(-2706.465 -574.887)" fill="#fff"/>
  <path id="Path_3576" data-name="Path 3576" d="M2781.5,611.191s-.531-6.147.425-7.392,3.08-.731,3.882,1.608a13.54,13.54,0,0,1,.273,7.014A8.738,8.738,0,0,0,2781.5,611.191Z" transform="translate(-2706.465 -574.887)" fill="#fff"/>
  <path id="Path_3577" data-name="Path 3577" d="M2760.1,598.243c.24-.194.488-.374.737-.543a11.152,11.152,0,0,1,1.664-.767,5.006,5.006,0,0,0,1.547-.775,4.376,4.376,0,0,0-1.366.411,9.067,9.067,0,0,1-.949.364c-.175.039-.37.038-.539.091a7,7,0,0,0-1.183.339c-1.467.774-2,2.545-2.354,4.062a51.13,51.13,0,0,0-1.036,5.9,20.762,20.762,0,0,0-.165,5.493,5.66,5.66,0,0,1,1.058-.4c-.645-2.453-.365-6.105.008-8.861a3.893,3.893,0,0,1,.077-.558c.069-.464.138-.894.2-1.282A5.9,5.9,0,0,1,2760.1,598.243Z" transform="translate(-2706.465 -574.887)" fill="#cccbcb"/>
  <path id="Path_3578" data-name="Path 3578" d="M2754.019,614.087s1.362-5.248,1.812-7.786.539-3.637.539-3.637a24.051,24.051,0,0,0-2.89,11.29" transform="translate(-2706.465 -574.887)" fill="#cccbcb"/>
  <path id="Path_3579" data-name="Path 3579" d="M2765.017,599.548s8.351.8,10.032,1.318,7.451-.132,8.519-.245" transform="translate(-2706.465 -574.887)" fill="#4d4e4e"/>
  <path id="Path_3580" data-name="Path 3580" d="M2770.11,601.6s5.192.5,6.237.821,4.633-.083,5.3-.153" transform="translate(-2706.465 -574.887)" fill="#4d4e4e"/>
  <path id="Path_3581" data-name="Path 3581" d="M2780.367,613.413s4.113,7.309,2.409,11.242" transform="translate(-2706.465 -574.887)"/>
  <path id="Path_3582" data-name="Path 3582" d="M2772.8,613.185s-5.418,5.768-4.771,12.752" transform="translate(-2706.465 -574.887)"/>
  <path id="Path_3583" data-name="Path 3583" d="M2761.762,613.478s5.067.017,6.969-1.063a8.7,8.7,0,0,1,2.854-1.186s-2.432.667-3.437,1.085A59.505,59.505,0,0,1,2761.762,613.478Z" transform="translate(-2706.465 -574.887)" fill="#ddbd25" style="mix-blend-mode: multiply;isolation: isolate"/>
  <path id="Path_3584" data-name="Path 3584" d="M2781.528,611.893s3.014,2.072,5.091,1.619a13.709,13.709,0,0,1-2.659-.588C2783.507,612.642,2781.528,611.893,2781.528,611.893Z" transform="translate(-2706.465 -574.887)" fill="#ddbd25" style="mix-blend-mode: multiply;isolation: isolate"/>
  <path id="Path_3585" data-name="Path 3585" d="M2765.9,606.893a1.927,1.927,0,0,0-.051,2.893c1.48,1.569,2.455-1.506,1.935-2.362S2766.4,606.221,2765.9,606.893Z" transform="translate(-2706.465 -574.887)" fill="#f05a26"/>
  <path id="Path_3586" data-name="Path 3586" d="M2766.13,607.274a1.416,1.416,0,0,0-.038,2.125c1.088,1.152,1.8-1.106,1.423-1.734S2766.5,606.781,2766.13,607.274Z" transform="translate(-2706.465 -574.887)"/>
  <path id="Path_3587" data-name="Path 3587" d="M2771.041,611.1s.054-5.824-3.4-5.51c-2.963.269-5.76,2.03-5.072,6.78A26.475,26.475,0,0,1,2771.041,611.1Z" transform="translate(-2706.465 -574.887)" fill="none"/>
  <path id="Path_3588" data-name="Path 3588" d="M2782.5,607.722a2,2,0,0,0-.067,2.769c1.26,1.456,2.12-1.512,1.681-2.315S2782.937,607.068,2782.5,607.722Z" transform="translate(-2706.465 -574.887)" fill="#f05a26"/>
  <path id="Path_3589" data-name="Path 3589" d="M2782.645,608.162a1.4,1.4,0,0,0-.047,1.937c.882,1.018,1.484-1.056,1.178-1.62S2782.949,607.7,2782.645,608.162Z" transform="translate(-2706.465 -574.887)"/>
  <path id="Path_3590" data-name="Path 3590" d="M2781.523,611.682s-.458-4.689.512-5.652,3.087-.594,3.861,1.184a7.983,7.983,0,0,1,.19,5.353A10.508,10.508,0,0,0,2781.523,611.682Z" transform="translate(-2706.465 -574.887)" fill="none"/>
  <path id="Path_3591" data-name="Path 3591" d="M2771.051,603.719c-.216-.993-1.088-5.181-1.145-5.648-.063-.5-.213-1.013-.82-.95-.776.081-1.216.028-1.243.249l-.13,1.1-.683-.843s-.182-.419-1.224-.055a11.373,11.373,0,0,0-5.093,3.524,6,6,0,0,0-1.1,2.567l-.012.014.009.006a9.393,9.393,0,0,0,.056,3.492c0-.025.008-.047.011-.073a11.09,11.09,0,0,0,.1,1.225,8.292,8.292,0,0,1,.211-2.733,8.459,8.459,0,0,1,.3-.864c.867-2.029,2.815-3.421,6.095-3.649,3.7-.254,4.866,2.819,5.2,5.345A11.258,11.258,0,0,0,2771.051,603.719Zm-.182-.5a2.662,2.662,0,0,1,.177.489c-.046-.131-.093-.26-.145-.388v0Z" transform="translate(-2706.465 -574.887)" fill="#cccbcb"/>
  <path id="Path_3592" data-name="Path 3592" d="M2786.857,600.808a6.92,6.92,0,0,0-3.513-2.394c-.685-.194-.755.171-.755.171l-.342.771s-.152-.72-.189-.9-.307-.092-.8-.077c-.382.01-.425.451-.415.871.007.24-.038,1.668-.081,2.935a16.582,16.582,0,0,0-.076,2.016c0,.01,0,.018,0,.026s0,.008,0-.013c.015.838.069,1.469.069,1.469a5.85,5.85,0,0,1,.138-1.15,10.877,10.877,0,0,0-.095,2.263c-.033-1.98.4-4.182,2.332-4.883a3.621,3.621,0,0,1,2.979.017l.007,0a2.767,2.767,0,0,1,.377.24l.005,0c.022.018.045.037.066.056.061.048.118.1.177.156a4.556,4.556,0,0,1,1.072,1.674c.027.08.054.158.076.244,0,0-.006-.033-.016-.081a7.357,7.357,0,0,1,.349,1.505A9.05,9.05,0,0,0,2786.857,600.808Z" transform="translate(-2706.465 -574.887)" fill="#cccbcb"/>
  <path id="Path_3593" data-name="Path 3593" d="M2768.351,613.484l-9.181,3.039.65,3.139,8.451-4.03Z" transform="translate(-2706.465 -574.887)" fill="#6fcbdc" opacity="0.3" style="mix-blend-mode: overlay;isolation: isolate"/>
  <path id="Path_3594" data-name="Path 3594" d="M2783.644,613.564l-.316,2.4,5.443,3.709-.246-3.933Z" transform="translate(-2706.465 -574.887)" fill="#6fcbdc" opacity="0.3" style="mix-blend-mode: overlay;isolation: isolate"/>
  <path id="Path_3595" data-name="Path 3595" d="M2773.593,613.508s-2.2.626-2.39,3.679c0,0,6.57,1.517,10.621.4,0,0-.272-3.261-2.106-3.879A54.808,54.808,0,0,0,2773.593,613.508Z" transform="translate(-2706.465 -574.887)" fill="gray"/>
  <path id="Path_3596" data-name="Path 3596" d="M2773.7,613.831a3.312,3.312,0,0,0-1.655,2.813,7.95,7.95,0,0,1,.658-1.59A3.814,3.814,0,0,1,2773.7,613.831Z" transform="translate(-2706.465 -574.887)" fill="#b3b2b3"/>
  <path id="Path_3597" data-name="Path 3597" d="M2774.212,614.548a2.612,2.612,0,0,0-1.07,2.344,9.761,9.761,0,0,1,.441-1.3A3.7,3.7,0,0,1,2774.212,614.548Z" transform="translate(-2706.465 -574.887)" fill="#b3b2b3"/>
  <path id="Path_3598" data-name="Path 3598" d="M2774.933,615.271s-.736.291-.655,1.839a9.009,9.009,0,0,1,.267-1.023A3.086,3.086,0,0,1,2774.933,615.271Z" transform="translate(-2706.465 -574.887)" fill="#b3b2b3"/>
  <path id="Path_3599" data-name="Path 3599" d="M2775.778,616.017s-.436.2-.385,1.267a7.176,7.176,0,0,1,.157-.705A2.25,2.25,0,0,1,2775.778,616.017Z" transform="translate(-2706.465 -574.887)" fill="#b3b2b3"/>
  <path id="Path_3600" data-name="Path 3600" d="M2779.546,614.332a3.392,3.392,0,0,1,1.407,2.787,8,8,0,0,0-.54-1.542A4.01,4.01,0,0,0,2779.546,614.332Z" transform="translate(-2706.465 -574.887)" fill="#b3b2b3"/>
  <path id="Path_3601" data-name="Path 3601" d="M2779.036,614.935a2.633,2.633,0,0,1,.889,2.285,9.737,9.737,0,0,0-.35-1.254A3.731,3.731,0,0,0,2779.036,614.935Z" transform="translate(-2706.465 -574.887)" fill="#b3b2b3"/>
  <path id="Path_3602" data-name="Path 3602" d="M2778.342,615.518s.667.352.529,1.77a8.917,8.917,0,0,0-.206-.974A3.05,3.05,0,0,0,2778.342,615.518Z" transform="translate(-2706.465 -574.887)" fill="#b3b2b3"/>
  <path id="Path_3603" data-name="Path 3603" d="M2777.531,616.1s.4.236.3,1.214c0,0-.053-.426-.115-.669A2.332,2.332,0,0,0,2777.531,616.1Z" transform="translate(-2706.465 -574.887)" fill="#b3b2b3"/>
  <path id="Path_3604" data-name="Path 3604" d="M2771.855,612.059a52.741,52.741,0,0,0,4.754,3.307c2.108,1.235,4.572-3.308,4.572-3.308" transform="translate(-2706.465 -574.887)" fill="url(#linear-gradient-3)"/>
  <path id="Path_3605" data-name="Path 3605" d="M2753.556,615.045a5.308,5.308,0,0,0-.223-1.22,27.813,27.813,0,0,1-.3-3.154,23.992,23.992,0,0,1,.2-4.253,13.6,13.6,0,0,1,1.229-4.448c.33-.615.908-1.052,1.27-1.646a9.5,9.5,0,0,1,.7-.936,7.131,7.131,0,0,1,2-1.657,9.556,9.556,0,0,1,3.334-1.19c.377-.07.816-.2,1.219-.3.288-.07.554-.232.841-.3.262-.067.546-.1.814-.156a2.687,2.687,0,0,1,1.288-.112c-.3.142-.664.174-.983.3-.389.153-.761.34-1.149.5-.6.24-1.223.408-1.8.693a10.871,10.871,0,0,1-1.63.869,3.238,3.238,0,0,0-1.64,1.584c-.326.511-.674.978-.96,1.514a33.044,33.044,0,0,0-1.48,3.187,43.306,43.306,0,0,0-2.585,9.7C2753.65,614.355,2753.6,614.7,2753.556,615.045Z" transform="translate(-2706.465 -574.887)" fill="#cccbcb"/>
  <path id="Path_3606" data-name="Path 3606" d="M2770.062,595.987a8.327,8.327,0,0,0,1.108.3c.906.164,1.812.34,2.722.479a47.639,47.639,0,0,0,7.038.37c-1.238-.993-3.639-1.339-5.149-1.631a24.24,24.24,0,0,0-3.826-.428,18.839,18.839,0,0,0-1.939-.062c-1.605.111-2.114.238-1.971.346A19.115,19.115,0,0,1,2770.062,595.987Z" transform="translate(-2706.465 -574.887)" fill="#cccbcb"/>
  <path id="Path_3607" data-name="Path 3607" d="M2763.7,595.978l-2.424,1.473s4.5-1.978,7.8-1.8l.114-.572A43.442,43.442,0,0,0,2763.7,595.978Z" transform="translate(-2706.465 -574.887)" fill="#cccbcb"/>
  <path id="Path_3608" data-name="Path 3608" d="M2758.628,626.3s6.833,5.8,8.019,6.163c.681.205,1.311,1.1,1.877,1.515,5.305,3.865,11.352-1.806,14.743-5.625a6.6,6.6,0,0,0-2.2,1.6,8.637,8.637,0,0,1-2.145,1.145,10.251,10.251,0,0,1-2.815,1.057c-.955.113-1.986.181-3,.221a9.107,9.107,0,0,1-3.531-.7,5.3,5.3,0,0,1-1.178-.659,1.841,1.841,0,0,0-1.4-.343,7.456,7.456,0,0,1-4.279-1.752,12.859,12.859,0,0,0-1.653-1.308C2760.258,627.168,2759.425,626.778,2758.628,626.3Z" transform="translate(-2706.465 -574.887)"/>
  <path id="Path_3609" data-name="Path 3609" d="M2772.369,621.17s1.008,4.351,1.81,4.79a4.929,4.929,0,0,0,3.256.22c.581-.315,2.541-4.049,2.688-4.534s-.566-.45-2.949-.715S2772.143,620.271,2772.369,621.17Z" transform="translate(-2706.465 -574.887)" fill="#ec1e79"/>
  <path id="Path_3610" data-name="Path 3610" d="M2777.078,626.294a1.861,1.861,0,0,0,.309-1.091,2.457,2.457,0,0,0-2.771-2.034,3.06,3.06,0,0,0-1.556.507,5.181,5.181,0,0,0,1.119,2.284A5.348,5.348,0,0,0,2777.078,626.294Z" transform="translate(-2706.465 -574.887)" fill="#a00813"/>
  <path id="Path_3611" data-name="Path 3611" d="M2802.656,671.094a65.684,65.684,0,0,0-22.214-4.614,73.031,73.031,0,0,0-27.347,3.638c-.069.082-6.573,7.707-5.958,11.635.322.316.66.625,1.009.93a50.989,50.989,0,0,0,54.51-11.589Z" transform="translate(-2706.465 -574.887)" fill="#29a9e1" opacity="0.3"/>
  <rect id="frame" width="120" height="120" transform="translate(0 0.226)" fill="none"/>
</svg>
