<svg xmlns="http://www.w3.org/2000/svg" width="70" height="70" viewBox="0 0 70 70">
  <g id="trash" transform="translate(-484.397 -923)">
    <rect id="Frame" width="70" height="70" transform="translate(484.397 923)" fill="none"/>
    <path id="Path_6322" data-name="Path 6322" d="M74.2,33.927a1.944,1.944,0,0,0,.064-.439c0-.029,0-.058,0-.088a2.945,2.945,0,0,0-.042-.487c0-.013,0-.026-.005-.038a4.55,4.55,0,0,0-.15-.566c-.013-.04-.026-.08-.04-.121-.068-.2-.15-.4-.248-.608-.015-.033-.033-.066-.049-.1q-.145-.3-.328-.624c-.016-.029-.03-.056-.048-.085-.133-.229-.282-.465-.442-.707l-.1-.146c-.167-.245-.344-.495-.537-.751l-.015-.021h0A30.466,30.466,0,0,0,69.979,26.5h0l-.022-.022c-.278-.291-.569-.585-.87-.882l-.183-.18c-.306-.3-.619-.6-.946-.9l-.032-.031h0c-.191-.177-.383-.355-.582-.533l.084-.205a4.362,4.362,0,0,0-1.587-5.22l-9.866-6.687a4.365,4.365,0,0,0-5.438.458l-.16.153a36.543,36.543,0,0,0-7.282-2.8h-.006c-.285-.068-.558-.124-.822-.173l-.146-.026c-.237-.041-.466-.075-.685-.1l-.069-.009c-.23-.024-.448-.038-.659-.044l-.15,0c-.189,0-.37,0-.541.017l-.056,0a3.909,3.909,0,0,0-.509.083c-.04.009-.079.019-.118.03a2.568,2.568,0,0,0-.414.143l-.023.009a1.885,1.885,0,0,0-.35.217c-.026.02-.051.041-.075.062a1.6,1.6,0,0,0-.12.114l0-.011a1.5,1.5,0,0,0-.148.184h0l-2.43,3.585a2.652,2.652,0,0,0,.074,2.486l0,0c.011.028.027.058.04.086.06.142.127.288.2.437.021.043.04.084.062.127.013.024.024.048.037.074l-21.6,37.134a1.088,1.088,0,0,0-.113.216c-.01.025-.016.052-.024.077a1.2,1.2,0,0,0-.044.167c-.006.031-.01.064-.014.1a1.674,1.674,0,0,0-.011.174c0,.036,0,.071,0,.107,0,.064.009.131.019.2,0,.034.008.067.013.1.016.09.037.184.064.281,0,.013.005.026.009.04.032.113.072.23.118.349.01.027.023.055.034.082.038.1.079.191.127.291.016.034.033.068.05.1q.073.15.159.3l.024.046c.005.01.013.022.019.031.1.184.218.373.345.568.012.019.026.039.038.058q.187.283.407.581l.032.044c.151.2.316.413.489.626l.073.089q.27.327.569.666l.005.006.008.009q.377.424.8.862l.02.022q.423.436.888.884l.029.027q.464.445.968.9l.04.036q.5.452,1.044.912l.044.037q.543.459,1.121.922l.043.034q.582.465,1.2.932l.033.024q.623.472,1.278.94l.017.012q.663.475,1.356.944a52.109,52.109,0,0,0,9.163,5.052h0l.037.015.15.059c.316.127.626.246.927.354l.128.047c.314.111.617.21.912.3l.175.054c.286.085.561.159.826.222l.16.037c.265.06.521.111.764.149l.1.013c.24.035.469.06.684.071l.045,0a4.69,4.69,0,0,0,.607-.012l.095-.007a2.788,2.788,0,0,0,.489-.1l.083-.026a1.675,1.675,0,0,0,.387-.184c.017-.011.03-.024.047-.035a1.191,1.191,0,0,0,.289-.288L68.424,38.789c.2.021.387.033.57.04.048,0,.092,0,.139,0,.143,0,.281,0,.414,0l.152-.008c.139-.01.271-.026.4-.047.02,0,.046,0,.066-.008v0a2.033,2.033,0,0,0,1.395-.782l2.43-3.586h0a1.474,1.474,0,0,0,.116-.2L74.1,34.2a1.8,1.8,0,0,0,.073-.19c.009-.027.018-.053.026-.08M57.052,16.214q-.78-.494-1.55-.958l-.051-.031q-.785-.471-1.556-.91l-.051-.03h0c-.45-.255-.895-.5-1.335-.739a2.162,2.162,0,0,1,2.244.1l9.865,6.686a2.162,2.162,0,0,1,.921,2.049,78.542,78.542,0,0,0-6.3-4.735q-1.044-.708-2.078-1.363h0l-.108-.067" transform="translate(478.172 919.333)" opacity="0.3"/>
    <path id="Path_6323" data-name="Path 6323" d="M66.291,34.244,37.719,70.723C36.4,72.676,29.2,70.11,21.651,64.992s-12.6-10.849-11.276-12.8l23.3-40.054Z" transform="translate(479.931 918.147)" fill="#cbc8e5"/>
    <path id="Path_6324" data-name="Path 6324" d="M66.291,34.244,37.719,70.723C36.4,72.676,29.2,70.11,21.651,64.992a49.142,49.142,0,0,1-8.887-7.5,15.607,15.607,0,0,1-1.977-2.668c-.636-1.136-.807-2.053-.412-2.634l23.3-40.054Z" transform="translate(479.931 918.147)" fill="#cbc8e5"/>
    <path id="Path_6325" data-name="Path 6325" d="M66.291,34.244l-.351.448-2.781,3.551L37.719,70.723C36.4,72.676,29.2,70.11,21.651,64.992a49.142,49.142,0,0,1-8.887-7.5,15.607,15.607,0,0,1-1.977-2.668c-.636-1.136-.807-2.053-.412-2.634L31.12,16.528l2.268-3.9.286-.491Z" transform="translate(479.931 918.147)" fill="#cbc8e5"/>
    <path id="Path_6326" data-name="Path 6326" d="M13.21,58.206a15.617,15.617,0,0,1-1.977-2.668,1.193,1.193,0,0,1,.138-.274L35.592,13.848l3.557,2.411Z" transform="translate(479.486 917.434)" fill="#dbdaee"/>
    <path id="Path_6327" data-name="Path 6327" d="M81.04,47.174,52.468,83.654c-.75,1.107-3.387.762-6.906-.677L75.134,43.171Z" transform="translate(465.181 905.216)" fill="#adaacb"/>
    <path id="Path_6328" data-name="Path 6328" d="M13.943,62.641a1,1,0,0,1-.3-1.345l2.334-3.875L32.388,30.2A1,1,0,1,1,34.1,31.233L17.7,58.455l-2.334,3.874a1,1,0,0,1-1.374.341l-.046-.029" transform="translate(478.539 910.823)" fill="#ece9f5"/>
    <path id="Path_6329" data-name="Path 6329" d="M20.9,69.1a1,1,0,0,1-.284-1.363L39.87,37.272a1,1,0,0,1,1.692,1.07L22.307,68.807a1,1,0,0,1-1.381.311L20.9,69.1" transform="translate(475.641 907.868)" fill="#ece9f5"/>
    <path id="Path_6330" data-name="Path 6330" d="M28.141,74.96a1,1,0,0,1-.273-1.381l19.84-29.955a1,1,0,0,1,1.669,1.105L29.538,74.684a1,1,0,0,1-1.387.282l-.009-.006" transform="translate(472.623 905.215)" fill="#ece9f5"/>
    <path id="Path_6331" data-name="Path 6331" d="M35.643,80.351l-.009-.006a1,1,0,0,1-.253-1.393L55.856,49.426a1,1,0,0,1,1.384-.258l.009.006a1,1,0,0,1,.252,1.393L37.027,80.093a1,1,0,0,1-1.384.258" transform="translate(469.498 902.789)" fill="#ece9f5"/>
    <path id="Path_6332" data-name="Path 6332" d="M43.432,85.294l-.027-.019a1,1,0,0,1-.222-1.4L64.345,54.706a1,1,0,0,1,1.62,1.175L44.8,85.053a1,1,0,0,1-1.371.241" transform="translate(466.252 900.583)" fill="#ece9f5"/>
    <path id="Path_6333" data-name="Path 6333" d="M51.589,89.7l-.044-.032a1,1,0,0,1-.193-1.4l2.735-3.6L73.293,59.343a1,1,0,1,1,1.595,1.21L55.681,85.877l-2.735,3.6a1,1,0,0,1-1.358.224" transform="translate(462.854 898.643)" fill="#ece9f5"/>
    <path id="Path_6334" data-name="Path 6334" d="M13.512,62.349a1,1,0,0,1-.3-1.345l2.334-3.875L31.957,29.907a1,1,0,1,1,1.714,1.034L17.266,58.163l-2.334,3.874a1,1,0,0,1-1.374.341l-.045-.029" transform="translate(478.718 910.945)" fill="#ada8c9"/>
    <path id="Path_6335" data-name="Path 6335" d="M20.468,68.808a1,1,0,0,1-.284-1.363L39.44,36.981a1,1,0,0,1,1.692,1.07L21.877,68.515a1,1,0,0,1-1.381.312l-.027-.018" transform="translate(475.82 907.99)" fill="#a4a0c1"/>
    <path id="Path_6336" data-name="Path 6336" d="M27.711,74.668a1,1,0,0,1-.273-1.381l19.84-29.955a1,1,0,0,1,1.669,1.105L29.108,74.392a1,1,0,0,1-1.387.282l-.009-.006" transform="translate(472.802 905.336)" fill="#a4a0c1"/>
    <path id="Path_6337" data-name="Path 6337" d="M35.212,80.059l-.009-.006a1,1,0,0,1-.253-1.393L55.425,49.134a1,1,0,0,1,1.384-.258l.009.006a1,1,0,0,1,.252,1.393L36.6,79.8a1,1,0,0,1-1.384.258" transform="translate(469.677 902.911)" fill="#a4a0c1"/>
    <path id="Path_6338" data-name="Path 6338" d="M43,85l-.027-.019a1,1,0,0,1-.222-1.4L63.914,54.414a1,1,0,0,1,1.62,1.175L44.372,84.761A1,1,0,0,1,43,85" transform="translate(466.432 900.704)" fill="#a4a0c1"/>
    <path id="Path_6339" data-name="Path 6339" d="M51.158,89.413l-.044-.032a1,1,0,0,1-.193-1.4l2.735-3.6L72.862,59.052a1,1,0,1,1,1.595,1.21L55.25,85.585l-2.735,3.6a1,1,0,0,1-1.358.224" transform="translate(463.033 898.765)" fill="#9895b2"/>
    <path id="Path_6340" data-name="Path 6340" d="M80.909,35.043l-2.781,3.551c-3.963-.467-10.742-3.538-17.757-8.293S47.991,20.387,46.089,16.879l2.267-3.9A21.959,21.959,0,0,0,52.2,18.011a68.238,68.238,0,0,0,10.6,8.7,68.161,68.161,0,0,0,12.013,6.623,21.948,21.948,0,0,0,6.1,1.7" transform="translate(464.962 917.796)" fill="#adaacb"/>
    <path id="Path_6341" data-name="Path 6341" d="M81.4,35.043,79.45,37.527c-3.947-.424-10.785-3.508-17.862-8.3s-12.475-10-14.331-13.514l1.585-2.728a21.959,21.959,0,0,0,3.842,5.031,68.238,68.238,0,0,0,10.6,8.7A68.162,68.162,0,0,0,75.3,33.338a21.948,21.948,0,0,0,6.1,1.7" transform="translate(464.475 917.796)" fill="#a4a0c1"/>
    <path id="Path_6342" data-name="Path 6342" d="M82.9,33.686c-1.579,2.329-10.16-.732-19.167-6.836S48.708,13.909,50.287,11.58s10.16.732,19.167,6.836S84.483,31.357,82.9,33.686Z" transform="translate(463.318 918.705)" fill="none" stroke="#fff" stroke-width="0.076"/>
    <path id="Path_6343" data-name="Path 6343" d="M84.865,29.737l-2.43,3.586c-1.732,2.555-11.145-.8-21.025-7.5S44.922,11.627,46.654,9.072l2.43-3.586a2.844,2.844,0,0,0,.177,2.737,20.823,20.823,0,0,0,3.975,5.31,68.185,68.185,0,0,0,10.6,8.705,68.176,68.176,0,0,0,12.013,6.623,20.818,20.818,0,0,0,6.4,1.725c1.271.057,2.177-.213,2.608-.849" transform="translate(464.841 920.918)" fill="#cbc8e5"/>
    <path id="Path_6344" data-name="Path 6344" d="M53.7,15.531l-2.43,3.585a20.355,20.355,0,0,1-4.294-5.776L49.4,9.754q.049.123.106.247a20.791,20.791,0,0,0,3.975,5.311c.071.073.141.146.212.219" transform="translate(464.594 919.14)" fill="#dbdaee"/>
    <path id="Path_6345" data-name="Path 6345" d="M97.885,44.788l-2.43,3.586c-2.659.481-8.185-1.456-14.477-5.06l2.43-3.585a58.621,58.621,0,0,0,6.86,3.4,20.818,20.818,0,0,0,6.4,1.725,5.477,5.477,0,0,0,1.212-.066" transform="translate(450.425 906.651)" fill="#adaacb"/>
    <path id="Path_6346" data-name="Path 6346" d="M86.6,29.126c-.431.636-1.337.905-2.608.849a20.818,20.818,0,0,1-6.4-1.725,68.176,68.176,0,0,1-12.013-6.623,68.185,68.185,0,0,1-10.6-8.705A20.823,20.823,0,0,1,51,7.612a2.844,2.844,0,0,1-.177-2.737c1.732-2.554,11.145.8,21.026,7.5S88.332,26.571,86.6,29.126" transform="translate(463.106 921.53)" fill="#d3d0e9"/>
    <path id="Path_6347" data-name="Path 6347" d="M55.706,4.379,68.71,17,53.636,11.461A16.983,16.983,0,0,1,51,7.612a2.842,2.842,0,0,1-.178-2.736c.657-.969,2.416-1.088,4.887-.5" transform="translate(463.106 921.53)" fill="#dbdaee"/>
    <path id="Path_6348" data-name="Path 6348" d="M99.576,38.4c-.431.636-1.337.905-2.608.849a20.818,20.818,0,0,1-6.4-1.725q-.363-.148-.736-.309l-8.142-10.94,16.159,6.877c1.749,2.318,2.442,4.2,1.732,5.248" transform="translate(450.13 912.257)" fill="#dbdaee"/>
    <path id="Path_6349" data-name="Path 6349" d="M73.411,12.585c1.085.617,2.195,1.283,3.316,2l-7.673.047-1.81-1.29Z" transform="translate(456.147 917.96)" fill="#adaacb"/>
    <path id="Path_6350" data-name="Path 6350" d="M101.26,32.078l-4.049.948-1.856-1.235,3.854-1.731q1.11,1.03,2.052,2.017" transform="translate(444.435 910.679)" fill="#adaacb"/>
    <path id="Path_6351" data-name="Path 6351" d="M86.6,29.606c-.431.636-1.337.905-2.608.849a20.818,20.818,0,0,1-6.4-1.725,68.2,68.2,0,0,1-12.013-6.623,68.206,68.206,0,0,1-10.6-8.705A20.809,20.809,0,0,1,51,8.092c-.523-1.16-.608-2.1-.177-2.737a1.459,1.459,0,0,1,.148-.185,3.179,3.179,0,0,0,.27,2.568,20.478,20.478,0,0,0,3.947,5.352,66.693,66.693,0,0,0,10.586,8.728,66.712,66.712,0,0,0,12.03,6.6A20.478,20.478,0,0,0,84.232,30.1a3.178,3.178,0,0,0,2.484-.7,1.466,1.466,0,0,1-.117.206" transform="translate(463.106 921.05)" fill="#ece9f5"/>
    <path id="Path_6352" data-name="Path 6352" d="M85.474,23.466c-.03.044-.172.008-.373-.088-.1-.045-.205-.1-.324-.174s-.218-.133-.333-.211c-.479-.325-.832-.652-.826-.762l.009-.022,1.322-3.265a2.168,2.168,0,0,0-.788-2.594L74.294,9.663a2.166,2.166,0,0,0-2.7.229l-2.541,2.435-.021.021a2.335,2.335,0,0,1-1.014-.49c-.066-.044-.13-.089-.189-.133-.108-.078-.205-.155-.291-.226-.222-.187-.358-.341-.351-.408l.036-.032,2.861-2.745a4.365,4.365,0,0,1,5.438-.458l9.866,6.686a4.361,4.361,0,0,1,1.586,5.22l-1.5,3.695a.022.022,0,0,1,0,.009" transform="translate(456.172 920.24)" fill="#cbc8e5"/>
    <path id="Path_6353" data-name="Path 6353" d="M86.717,19.946a3.814,3.814,0,0,0-1.388-4.564L75.465,8.7a3.815,3.815,0,0,0-4.754.4l-2.924,2.791c.086.072.183.149.291.226l2.884-2.754A3.449,3.449,0,0,1,75.261,9l9.865,6.686a3.451,3.451,0,0,1,1.252,4.133l-1.35,3.776c.119.07.229.128.324.174Z" transform="translate(455.921 919.851)" fill="#dbdaee"/>
    <path id="Path_6354" data-name="Path 6354" d="M84.955,23.819c-.321-.246-.536-.464-.532-.55l.009-.021,1.322-3.266a2.169,2.169,0,0,0-.788-2.594L75.1,10.7a2.166,2.166,0,0,0-2.7.229l-2.542,2.435-.02.021a1.523,1.523,0,0,1-.717-.3L71.9,10.406a2.9,2.9,0,0,1,3.613-.306l9.865,6.687a2.9,2.9,0,0,1,1.056,3.469Z" transform="translate(455.366 919.201)" fill="#adaacb"/>
    <path id="Path_6355" data-name="Path 6355" d="M84.955,23.819c-.321-.246-.536-.464-.532-.55l.009-.021,1.322-3.266a2.169,2.169,0,0,0-.788-2.594L75.1,10.7a2.166,2.166,0,0,0-2.7.229l-2.542,2.435-.02.021a1.523,1.523,0,0,1-.717-.3L71.9,10.406a2.9,2.9,0,0,1,3.613-.306l9.865,6.687a2.9,2.9,0,0,1,1.056,3.469Z" transform="translate(455.366 919.201)" fill="#adaacb"/>
  </g>
</svg>
