<svg id="book" xmlns="http://www.w3.org/2000/svg" xmlns:xlink="http://www.w3.org/1999/xlink" width="70" height="73.816" viewBox="0 0 70 73.816">
  <defs>
    <clipPath id="clip-path">
      <rect id="Rectangle_3462" data-name="Rectangle 3462" width="70" height="73.816" fill="none"/>
    </clipPath>
    <clipPath id="clip-path-2">
      <rect id="Rectangle_3436" data-name="Rectangle 3436" width="70" height="73.816" transform="translate(0 0)" fill="none"/>
    </clipPath>
    <clipPath id="clip-path-3">
      <rect id="Rectangle_3435" data-name="Rectangle 3435" width="65.527" height="68.112" transform="translate(4.473 5.703)" fill="none"/>
    </clipPath>
    <clipPath id="clip-path-4">
      <path id="Path_6372" data-name="Path 6372" d="M34.932,65.974c6.631-.393,8.357,1.348,8.357,1.348C53.343,39.707,63.161,18.308,63.161,18.308c-4.963-1.79-9.787-6.644-9.787-6.644Z" fill="none"/>
    </clipPath>
    <linearGradient id="linear-gradient" x1="-0.296" y1="1.285" x2="-0.28" y2="1.285" gradientUnits="objectBoundingBox">
      <stop offset="0" stop-color="#9ba1d3"/>
      <stop offset="1" stop-color="#e7e2ef"/>
    </linearGradient>
    <clipPath id="clip-path-6">
      <rect id="Rectangle_3438" data-name="Rectangle 3438" width="22.932" height="53.04" transform="translate(42.856 16.331)" fill="none"/>
    </clipPath>
    <clipPath id="clip-path-7">
      <rect id="Rectangle_3439" data-name="Rectangle 3439" width="22.653" height="55.657" transform="translate(34.931 11.664)" fill="none"/>
    </clipPath>
    <clipPath id="clip-path-8">
      <path id="Path_6375" data-name="Path 6375" d="M17.514,0a1.716,1.716,0,0,0-1.469.664S7.124,35.614,0,53.637l0,.035v.051c.007.322.17,1.435,2.073,1.3,0,0,17.29,8.407,31.217,12.713l1.236-.476S44.572,45.821,55.9,9.392L54.6,7.352A177.253,177.253,0,0,0,19.771.544,6.093,6.093,0,0,0,17.59,0Z" fill="none"/>
    </clipPath>
    <linearGradient id="linear-gradient-2" x1="0.131" y1="0.983" x2="0.144" y2="0.983" gradientUnits="objectBoundingBox">
      <stop offset="0" stop-color="#d92f9a"/>
      <stop offset="1" stop-color="#a22aa7"/>
    </linearGradient>
    <clipPath id="clip-path-10">
      <rect id="Rectangle_3442" data-name="Rectangle 3442" width="22.611" height="60.38" transform="translate(33.29 7.351)" fill="none"/>
    </clipPath>
    <clipPath id="clip-path-11">
      <rect id="Rectangle_3443" data-name="Rectangle 3443" width="17.486" height="43.479" transform="translate(42.07 20.672)" fill="none"/>
    </clipPath>
    <clipPath id="clip-path-12">
      <rect id="Rectangle_3444" data-name="Rectangle 3444" width="9.026" height="24.325" transform="translate(44.706 27.358)" fill="none"/>
    </clipPath>
    <clipPath id="clip-path-13">
      <rect id="Rectangle_3445" data-name="Rectangle 3445" width="6.632" height="17.275" transform="translate(40.833 41.712)" fill="none"/>
    </clipPath>
    <clipPath id="clip-path-14">
      <rect id="Rectangle_3446" data-name="Rectangle 3446" width="19.771" height="55.029" fill="none"/>
    </clipPath>
    <clipPath id="clip-path-15">
      <rect id="Rectangle_3448" data-name="Rectangle 3448" width="37.242" height="25.681" transform="translate(0 42.05)" fill="none"/>
    </clipPath>
    <clipPath id="clip-path-16">
      <path id="Path_6381" data-name="Path 6381" d="M0,53.637s-.15,1.544,2.07,1.38c0,0,17.291,8.409,31.218,12.714l1.235-.476s1-2.129,2.717-6.178C26.508,55.318,12.1,46.889,4.04,42.05,2.507,46.6,1.421,50.047,0,53.637" fill="none"/>
    </clipPath>
    <linearGradient id="linear-gradient-3" x1="-0.018" y1="0.936" x2="0.01" y2="0.936" gradientUnits="objectBoundingBox">
      <stop offset="0" stop-color="#440090"/>
      <stop offset="1" stop-color="#e7e2ef"/>
    </linearGradient>
    <clipPath id="clip-path-17">
      <rect id="Rectangle_3450" data-name="Rectangle 3450" width="21.668" height="21.069" transform="translate(16.331 19.724)" fill="none"/>
    </clipPath>
    <clipPath id="clip-path-18">
      <path id="Path_6383" data-name="Path 6383" d="M28.027,38.061a6.9,6.9,0,0,0-.147.771l.73.278a.26.26,0,0,1,0-.111c.134-.273.568.163.591-.374-.183-.276-.817-.362-1.175-.564" fill="none" clip-rule="evenodd"/>
    </clipPath>
    <linearGradient id="linear-gradient-4" x1="-18.848" y1="22.353" x2="-18.17" y2="22.353" gradientUnits="objectBoundingBox">
      <stop offset="0" stop-color="#440090"/>
      <stop offset="0.098" stop-color="#480692"/>
      <stop offset="0.235" stop-color="#55189a"/>
      <stop offset="0.393" stop-color="#6a35a6"/>
      <stop offset="0.568" stop-color="#885eb7"/>
      <stop offset="0.757" stop-color="#ae93cd"/>
      <stop offset="0.954" stop-color="#dbd2e8"/>
      <stop offset="1" stop-color="#e7e2ef"/>
    </linearGradient>
    <clipPath id="clip-path-19">
      <rect id="Rectangle_3451" data-name="Rectangle 3451" width="24.922" height="16.225" transform="translate(36.076 22.596)" fill="none"/>
    </clipPath>
    <clipPath id="clip-path-20">
      <path id="Path_6385" data-name="Path 6385" d="M41.387,21.567a20.51,20.51,0,0,0-5.563,2.687c-.62.72,1.548,5.855,2.267,6.476s7.3,2.575,8.048,2.682,11.071,4.294,11.666,4.482.864-.249,1.329-.887a52.5,52.5,0,0,0,2.008-5.513s.534-1.271-.223-1.773c0,0-9.917-6.283-11.5-6.655-1.55-.363-7.125-1.5-7.983-1.5h-.048" fill="none"/>
    </clipPath>
    <linearGradient id="linear-gradient-5" x1="-1.492" y1="1.947" x2="-1.451" y2="1.947" xlink:href="#linear-gradient-2"/>
    <clipPath id="clip-path-22">
      <rect id="Rectangle_3454" data-name="Rectangle 3454" width="23.08" height="13.685" transform="translate(35.715 24.254)" fill="none"/>
    </clipPath>
    <clipPath id="clip-path-23">
      <rect id="Rectangle_3455" data-name="Rectangle 3455" width="24.199" height="7.601" transform="translate(35.877 21.589)" fill="none"/>
    </clipPath>
    <clipPath id="clip-path-24">
      <rect id="Rectangle_3456" data-name="Rectangle 3456" width="22.954" height="16.042" transform="translate(29.726 43.182)" fill="none"/>
    </clipPath>
    <clipPath id="clip-path-25">
      <path id="Path_6390" data-name="Path 6390" d="M34.906,42.238a19.155,19.155,0,0,0-5.343,2.206c-.619.639,1.126,5.554,1.764,6.174S38,53.419,38.7,53.561s10.108,4.614,10.653,4.822.821-.186,1.289-.757a49.018,49.018,0,0,0,2.177-5.041s.568-1.157-.112-1.668c0,0-8.922-6.41-10.381-6.842s-6.755-1.837-7.414-1.837h-.006" fill="none"/>
    </clipPath>
    <linearGradient id="linear-gradient-6" x1="-1.181" y1="1.313" x2="-1.14" y2="1.313" xlink:href="#linear-gradient-2"/>
    <clipPath id="clip-path-27">
      <rect id="Rectangle_3459" data-name="Rectangle 3459" width="20.868" height="13.995" transform="translate(29.433 44.444)" fill="none"/>
    </clipPath>
    <clipPath id="clip-path-28">
      <rect id="Rectangle_3460" data-name="Rectangle 3460" width="22.203" height="8.138" transform="translate(29.745 42.237)" fill="none"/>
    </clipPath>
  </defs>
  <g id="Group_8747" data-name="Group 8747">
    <g id="Group_8746" data-name="Group 8746" clip-path="url(#clip-path)">
      <g id="Group_8680" data-name="Group 8680">
        <g id="Group_8679" data-name="Group 8679" clip-path="url(#clip-path-2)">
          <g id="Group_8678" data-name="Group 8678" opacity="0.3" style="mix-blend-mode: overlay;isolation: isolate">
            <g id="Group_8677" data-name="Group 8677">
              <g id="Group_8676" data-name="Group 8676" clip-path="url(#clip-path-3)">
                <path id="Path_6370" data-name="Path 6370" d="M70,25.559h0l-.169-.387-.212-.484a80.235,80.235,0,0,0-9.5-3.834l-.124-.129q.671-1.644,1.351-3.334l-1.059-2.043A163.655,163.655,0,0,0,28.079,6.387a5.933,5.933,0,0,0-.716-.34,2.739,2.739,0,0,0-2.587-.018,1.363,1.363,0,0,0-.212.211s-.215.584-.606,1.638l-.224.6-.255.685c-.542,1.45-1.266,3.379-2.13,5.65-.048.126-.1.254-.145.382-2.952,7.76-7.44,19.291-11.76,29.361C8.308,47.2,7.184,49.752,6.1,52.1l-.009.02q-.314.682-.623,1.341c-.009.021-.019.042-.029.063q-.148.316-.3.629l-.027.058-.274.575c-.01.022-.021.045-.032.067l-.277.575c-.018.039-.037.077-.056.116-.092.191,1.151-1.709,1.059-1.522,0,0,.728-1.217.748-1.247,1.111-1.687,2.282-3.326.125,1.871-.168.406-.227,2.57.5,2.57,0,0,.46.274,1.287.753l.486.281c.261.15.548.315.859.492l.654.373.669.378q.6.339,1.275.715c.659.368,1.368.76,2.119,1.171l.106.058c1.392.762,2.925,1.587,4.553,2.441l.109.057q1.06.556,2.17,1.125l.1.053,1.069.544.691.348q.552.277,1.112.554c3.636,1.8,7.461,3.572,11.061,5.011l1.2-.368s.08-.142.236-.422l7.428,3.032,1.089-.092q.323-.518.655-1.065c.148-.244.3-.491.447-.743q.339-.565.687-1.159.232-.4.467-.8.59-1.016,1.2-2.094.486-.862.984-1.76.249-.448.5-.9c.135-.245.271-.492.406-.741a.6.6,0,0,1,.083.085c.007.01.2-.348.46-.8.021.011.038.02.05.025a.786.786,0,0,0,.117.046l.029.008a.64.64,0,0,0,.1.019h.007a.623.623,0,0,0,.106,0l.022,0a.527.527,0,0,0,.093-.023l.008,0a.7.7,0,0,0,.1-.046.083.083,0,0,0,.016-.009.821.821,0,0,0,.094-.06l.006,0a1.286,1.286,0,0,0,.1-.084l.006,0c.142-.123.29-.285.463-.466a32.1,32.1,0,0,0,2.033-3.769l.015-.02a2.469,2.469,0,0,0,.152-.324l.267-.554a2.068,2.068,0,0,0,.279-1.126.762.762,0,0,0-.247-.476l-.107-.092-.023-.019-.022-.019-.014-.012-.038-.032-.014-.013-.009-.008c1.917-3.686,3.828-7.461,5.617-11.053.041-.066.212-.426.433-.867l.055.024a.9.9,0,0,0,.128.041l.032.006a.6.6,0,0,0,.11.014h.008a.676.676,0,0,0,.112-.01l.024-.005a.691.691,0,0,0,.1-.03l.009,0a.662.662,0,0,0,.1-.055l.016-.01a.9.9,0,0,0,.1-.07l.007-.005c.036-.029.071-.061.107-.1l.007-.007c.143-.14.291-.321.464-.525a14.18,14.18,0,0,0,1.059-2.1c.317-.712.638-1.467.881-2.046l.016-.022a2.672,2.672,0,0,0,.142-.355c.154-.37.251-.607.251-.607a2.63,2.63,0,0,0,.241-.793,1.586,1.586,0,0,0,.007-.284,1.086,1.086,0,0,0-.019-.141.822.822,0,0,0-.254-.455C67.733,30.4,70,25.559,70,25.559" fill-rule="evenodd"/>
              </g>
            </g>
          </g>
          <path id="Path_6371" data-name="Path 6371" d="M49.823,11.8s11.2,2.646,15.484,4.528l.481.875S52.327,53.176,44,69.19l-1.141.181L31.72,65.841c-3.843-1.218,18.1-54.038,18.1-54.038" fill="#a22aa7"/>
        </g>
      </g>
      <g id="Group_8682" data-name="Group 8682">
        <g id="Group_8681" data-name="Group 8681" clip-path="url(#clip-path-4)">
          <rect id="Rectangle_3437" data-name="Rectangle 3437" width="61.586" height="43.726" transform="translate(18.902 62.241) rotate(-72.414)" fill="url(#linear-gradient)"/>
        </g>
      </g>
      <g id="Group_8690" data-name="Group 8690">
        <g id="Group_8689" data-name="Group 8689" clip-path="url(#clip-path-2)">
          <g id="Group_8685" data-name="Group 8685" style="mix-blend-mode: multiply;isolation: isolate">
            <g id="Group_8684" data-name="Group 8684">
              <g id="Group_8683" data-name="Group 8683" clip-path="url(#clip-path-6)">
                <path id="Path_6373" data-name="Path 6373" d="M65.306,16.331c-17.415,44.567-22.45,53.04-22.45,53.04L44,69.19c8.329-16.014,21.79-51.983,21.79-51.983Z" fill="#c822e2"/>
              </g>
            </g>
          </g>
          <g id="Group_8688" data-name="Group 8688" opacity="0.51" style="mix-blend-mode: multiply;isolation: isolate">
            <g id="Group_8687" data-name="Group 8687">
              <g id="Group_8686" data-name="Group 8686" clip-path="url(#clip-path-7)">
                <path id="Path_6374" data-name="Path 6374" d="M34.931,65.973c6.632-.393,8.358,1.347,8.358,1.347,4.1-11.256,8.157-21.479,11.528-29.641-5.906,9.727-9.9,6.406-9.9,6.406,5.4-13.253,10.057-29.71,10.057-29.71l2.612.827a38.408,38.408,0,0,1-4.211-3.539Z" fill="#9ba1d3"/>
              </g>
            </g>
          </g>
        </g>
      </g>
      <g id="Group_8692" data-name="Group 8692">
        <g id="Group_8691" data-name="Group 8691" clip-path="url(#clip-path-8)">
          <rect id="Rectangle_3441" data-name="Rectangle 3441" width="75.702" height="82.77" transform="translate(-21.777 7.931) rotate(-20.01)" fill="url(#linear-gradient-2)"/>
        </g>
      </g>
      <g id="Group_8722" data-name="Group 8722">
        <g id="Group_8721" data-name="Group 8721" clip-path="url(#clip-path-2)">
          <g id="Group_8695" data-name="Group 8695" style="mix-blend-mode: multiply;isolation: isolate">
            <g id="Group_8694" data-name="Group 8694">
              <g id="Group_8693" data-name="Group 8693" clip-path="url(#clip-path-10)">
                <path id="Path_6376" data-name="Path 6376" d="M55.9,9.392,54.6,7.351A572.572,572.572,0,0,1,33.29,67.731l1.235-.476S44.572,45.82,55.9,9.392" fill="#c822e2"/>
              </g>
            </g>
          </g>
          <g id="Group_8698" data-name="Group 8698" opacity="0.51" style="mix-blend-mode: multiply;isolation: isolate">
            <g id="Group_8697" data-name="Group 8697">
              <g id="Group_8696" data-name="Group 8696" clip-path="url(#clip-path-11)">
                <path id="Path_6377" data-name="Path 6377" d="M59.556,20.672,42.07,64.151A431.453,431.453,0,0,1,59.556,20.672" fill="#9ba1d3"/>
              </g>
            </g>
          </g>
          <g id="Group_8701" data-name="Group 8701" opacity="0.51" style="mix-blend-mode: multiply;isolation: isolate">
            <g id="Group_8700" data-name="Group 8700">
              <g id="Group_8699" data-name="Group 8699" clip-path="url(#clip-path-12)">
                <path id="Path_6378" data-name="Path 6378" d="M53.732,27.358s-5.036,14.6-9.026,24.325c0,0,2.264-7.381,9.026-24.325" fill="#9ba1d3"/>
              </g>
            </g>
          </g>
          <g id="Group_8704" data-name="Group 8704" opacity="0.51" style="mix-blend-mode: multiply;isolation: isolate">
            <g id="Group_8703" data-name="Group 8703">
              <g id="Group_8702" data-name="Group 8702" clip-path="url(#clip-path-13)">
                <path id="Path_6379" data-name="Path 6379" d="M47.465,41.712S43.787,52.4,40.833,58.987c0,0,4-11.024,6.632-17.275" fill="#9ba1d3"/>
              </g>
            </g>
          </g>
          <g id="Group_8707" data-name="Group 8707" opacity="0.3" style="mix-blend-mode: overlay;isolation: isolate">
            <g id="Group_8706" data-name="Group 8706">
              <g id="Group_8705" data-name="Group 8705" clip-path="url(#clip-path-14)">
                <path id="Path_6380" data-name="Path 6380" d="M19.771.544s-2.733-1.3-3.726.121c0,0-8.921,34.949-16.043,52.972,0,0-.15,1.544,2.07,1.38C12.678,30.109,19.771.544,19.771.544" fill="#fff"/>
              </g>
            </g>
          </g>
          <g id="Group_8712" data-name="Group 8712" opacity="0.11" style="mix-blend-mode: multiply;isolation: isolate">
            <g id="Group_8711" data-name="Group 8711">
              <g id="Group_8710" data-name="Group 8710" clip-path="url(#clip-path-15)">
                <g id="Group_8709" data-name="Group 8709">
                  <g id="Group_8708" data-name="Group 8708" clip-path="url(#clip-path-16)">
                    <rect id="Rectangle_3447" data-name="Rectangle 3447" width="35.777" height="43.402" transform="matrix(0.302, -0.953, 0.953, 0.302, -7.544, 65.386)" fill="url(#linear-gradient-3)"/>
                  </g>
                </g>
              </g>
            </g>
          </g>
          <g id="Group_8717" data-name="Group 8717" opacity="0.47" style="mix-blend-mode: multiply;isolation: isolate">
            <g id="Group_8716" data-name="Group 8716">
              <g id="Group_8715" data-name="Group 8715" clip-path="url(#clip-path-17)">
                <path id="Path_6382" data-name="Path 6382" d="M35.56,28c-1.018-2.171-3.067-3.932-6.487-4.7-.086-.016-.349-.073-.349-.073.071-1.1-.062-2.389-.625-2.79a3.112,3.112,0,0,0-1.951-.349,12.389,12.389,0,0,1-1.739.255,9.935,9.935,0,0,1-1.3-.413,4.348,4.348,0,0,0-3.051.153c-2.091,1.034-3.483,4.874-3.68,7.8a21.587,21.587,0,0,0,.48,5.977c.075.369.215,1.652.487,1.857a1.291,1.291,0,0,0,.222.119c.246.031.52.073.813.123a16.454,16.454,0,0,1,.4-4.185,2.047,2.047,0,0,1,1.858-1.852,4.308,4.308,0,0,0,2.746-2.756c.014-.041.028-.079.041-.116.084-.242.138-.418.153-.472.063-.221.418-1.115.567-1.506a.666.666,0,0,1-.325-.728c.381-.046.5.342.643.319.128-.241-.42-.454-.145-.776.37.106.131.688.458.732.088-.24-.2-.593.1-.7.233.144-.079.682.034.811.113,0,.116-.2.225-.2a.667.667,0,0,0,.388.045c-.058.274-.082.478-.27.59.134.136-.006.182,0,.334.019.32.323.682.311.891a.39.39,0,0,1-.648.281c-.084-.195.035-.42-.193-.49-.276-.084-.4.341-.473.6-.3,1.046-.648,2.228-1.045,3.4-.3.9-.633,1.5-.96,2.294-.424,1.035-1.014,2-1.339,2.919a3.928,3.928,0,0,0-.233,1.03c.364.082.728.167,1.081.254.148.035.3.071.439.107.219.028.272-.032.284-.074v0a.906.906,0,0,1-.17-.411c-.1-.448.422-.918.422-.918.248-.262.628-.425.595-.788a.637.637,0,0,0-.209-.446.212.212,0,0,1,.242.109.682.682,0,0,0,.256.356.416.416,0,0,1,.233.385.871.871,0,0,1-.213.417c-.1.128-.052.468-.1.624s-.133.483-.133.483a.368.368,0,0,0,.14.33.317.317,0,0,1-.285-.049.211.211,0,0,0,.1.206.408.408,0,0,1-.177.042l.166.048h0c.721.2,1.268.388,1.616.521.472.181,1.029.487,1.915.833a.416.416,0,0,1,0-.061c.032-.269.26-.077.349-.21.149-.208-.04-.275.109-.483-.794-.309-1.52.557-1.752-.448.306-.112.748.094,1.1.1a8.467,8.467,0,0,0-1.49-1.309c.067-1.229,1.289-.294,1.586.2.126.013.01-.108.093-.227,1.221.018,1.805-1.227,3.525-.239,1.066.612.776,1.458,1.257,2.532-.032.27-.29,0-.348.21a7.777,7.777,0,0,1,.816.156c-.356.243-.967-.117-1.392-.037-.135.307.327.362.269.636-.066.385-.3.379-.471.512-.45-.206-.287-.671-.479-.985-.324-.093-.4.391-.583.64.792.3,1.574.588,2.245.836l1.67.529c-.356-2.069.923-5.62,2.351-7.276.417.592,1.2,1.516,2.262,1.344C36.027,33,36.616,30.249,35.56,28M20.99,23.618a1.09,1.09,0,0,0-.237,1.764,1.2,1.2,0,1,1,1.272-1.751,1.088,1.088,0,0,0-1.035-.013m-.119,4.97-.174-.344-.38.171.265-.325-.1-.191.214.034.15-.157.034.215.31.129-.308.063Zm11.63-1.95.173-.181.038.247.358.15-.355.072-.009.468-.2-.4-.438.2.305-.375-.119-.221Zm-3.53-.763.154-.241.1.269.278.072-.226.177.152.491-.372-.365-.267.1.079-.275-.319-.257Zm-1.95-1.49.106-.112.024.153.139.066-.138.07-.009.22-.12-.176-.224.068.069-.179-.051-.159Zm7.821,7.1-.191.035.088-.173-.183-.32.283.18.185-.3L35,31.261l.175.084-.173.088.018.408Z" fill="#440090" fill-rule="evenodd"/>
                <g id="Group_8714" data-name="Group 8714">
                  <g id="Group_8713" data-name="Group 8713" clip-path="url(#clip-path-18)">
                    <rect id="Rectangle_3449" data-name="Rectangle 3449" width="1.475" height="1.611" transform="translate(27.537 39.042) rotate(-70.759)" fill="url(#linear-gradient-4)"/>
                  </g>
                </g>
              </g>
            </g>
          </g>
          <g id="Group_8720" data-name="Group 8720" opacity="0.51" style="mix-blend-mode: multiply;isolation: isolate">
            <g id="Group_8719" data-name="Group 8719">
              <g id="Group_8718" data-name="Group 8718" clip-path="url(#clip-path-19)">
                <path id="Path_6384" data-name="Path 6384" d="M60.592,30.751s-9.917-6.284-11.5-6.655-7.361-1.548-8.031-1.5a8.256,8.256,0,0,0-2.5.951,4.512,4.512,0,0,1-1.4.42c-.491.072,0,.184-.361.638-.3.379-.618,0-.545.482.048.316-.225.238-.176.555.235,1.538.427,5.034,1.682,6.116.719.621,7.292,2.573,8.048,2.682.364.052,1.359.761,1.554.536.461-.535-.077-.529.758-.261.717.23,1.7.536,2.406.806a46.8,46.8,0,0,1,4.446,1.867c-.4.805,1.9.966,2.382,1.431a24.738,24.738,0,0,1,1.3-2.88c.464-.638,2.153-3.418,2.153-3.418s.533-1.27-.224-1.772" fill="#9ba1d3" fill-rule="evenodd"/>
              </g>
            </g>
          </g>
        </g>
      </g>
      <g id="Group_8724" data-name="Group 8724">
        <g id="Group_8723" data-name="Group 8723" clip-path="url(#clip-path-20)">
          <rect id="Rectangle_3453" data-name="Rectangle 3453" width="24.318" height="30.436" transform="translate(30.065 36.289) rotate(-70.759)" fill="url(#linear-gradient-5)"/>
        </g>
      </g>
      <g id="Group_8735" data-name="Group 8735">
        <g id="Group_8734" data-name="Group 8734" clip-path="url(#clip-path-2)">
          <g id="Group_8727" data-name="Group 8727" style="mix-blend-mode: multiply;isolation: isolate">
            <g id="Group_8726" data-name="Group 8726">
              <g id="Group_8725" data-name="Group 8725" clip-path="url(#clip-path-22)">
                <path id="Path_6386" data-name="Path 6386" d="M38.091,30.73c.719.621,7.3,2.575,8.049,2.682s11.071,4.294,11.665,4.482c.437.139.7-.061.99-.429L46.663,32.313s-5.772-.783-8-2.275-2.834-5.784-2.834-5.784c-.621.719,1.547,5.855,2.266,6.476" fill="#c822e2" fill-rule="evenodd"/>
              </g>
            </g>
          </g>
          <path id="Path_6387" data-name="Path 6387" d="M61.143,31.493s.534-1.27-.224-1.772c0,0-5.9-3.74-9.326-5.619l-.531-.166s-1.038-.853-1.6.1-2.542,7.744-2.271,8.266,11.606,5.16,11.606,5.16c.106-.134.215-.289.339-.458a52.314,52.314,0,0,0,2.009-5.514" fill="#a22aa7" fill-rule="evenodd"/>
          <g id="Group_8730" data-name="Group 8730" opacity="0.3" style="mix-blend-mode: overlay;isolation: isolate">
            <g id="Group_8729" data-name="Group 8729">
              <g id="Group_8728" data-name="Group 8728" clip-path="url(#clip-path-23)">
                <path id="Path_6388" data-name="Path 6388" d="M49.418,23.066c-2.069-.487-4.165-.9-6.259-1.26a5.82,5.82,0,0,0-2.263-.151,17.336,17.336,0,0,0-5.02,2.429,5.606,5.606,0,0,0,2.468-.836,11.4,11.4,0,0,1,3.445-1.015,9.252,9.252,0,0,1,3.006.312l4.1.792s.548.61.331,1.021a1.241,1.241,0,0,1,1.165-.373c.558.177,7.92,4.232,9.683,5.2-2.428-1.522-9.352-5.817-10.657-6.124" fill="#fff" fill-rule="evenodd"/>
              </g>
            </g>
          </g>
          <g id="Group_8733" data-name="Group 8733" opacity="0.51" style="mix-blend-mode: multiply;isolation: isolate">
            <g id="Group_8732" data-name="Group 8732">
              <g id="Group_8731" data-name="Group 8731" clip-path="url(#clip-path-24)">
                <path id="Path_6389" data-name="Path 6389" d="M52.346,51.862s-8.922-6.41-10.381-6.843-6.792-1.846-7.42-1.837a7.723,7.723,0,0,0-2.384.753,4.243,4.243,0,0,1-1.33.316c-.463.041-.013.172-.373.577-.3.337-.577-.03-.535.42.028.3-.223.21-.195.509.136,1.45.126,4.726,1.238,5.805.638.618,6.673,2.8,7.372,2.943.338.069,1.229.785,1.423.585.46-.474-.043-.5.723-.2.657.253,1.56.594,2.2.884a44.053,44.053,0,0,1,4.052,1.986c-.414.731,1.725,1.006,2.147,1.466A23.172,23.172,0,0,1,50.262,56.6c.468-.57,2.2-3.075,2.2-3.075s.568-1.158-.112-1.668" fill="#9ba1d3" fill-rule="evenodd"/>
              </g>
            </g>
          </g>
        </g>
      </g>
      <g id="Group_8737" data-name="Group 8737">
        <g id="Group_8736" data-name="Group 8736" clip-path="url(#clip-path-25)">
          <rect id="Rectangle_3458" data-name="Rectangle 3458" width="24.485" height="28.848" transform="translate(23.147 56.181) rotate(-67.423)" fill="url(#linear-gradient-6)"/>
        </g>
      </g>
      <g id="Group_8745" data-name="Group 8745">
        <g id="Group_8744" data-name="Group 8744" clip-path="url(#clip-path-2)">
          <g id="Group_8740" data-name="Group 8740" style="mix-blend-mode: multiply;isolation: isolate">
            <g id="Group_8739" data-name="Group 8739">
              <g id="Group_8738" data-name="Group 8738" clip-path="url(#clip-path-27)">
                <path id="Path_6391" data-name="Path 6391" d="M31.327,50.617c.638.619,6.677,2.8,7.373,2.943s10.108,4.614,10.653,4.823c.4.153.655-.02.948-.348L39.248,52.562S33.9,51.517,31.9,50s-2.333-5.557-2.333-5.557c-.619.638,1.126,5.554,1.764,6.173" fill="#c822e2" fill-rule="evenodd"/>
              </g>
            </g>
          </g>
          <path id="Path_6392" data-name="Path 6392" d="M52.819,52.585s.568-1.158-.112-1.668c0,0-5.31-3.814-8.407-5.756-.309-.118-.486-.184-.486-.184s-.924-.853-1.5.009-2.8,7.1-2.571,7.6S50.3,58.036,50.3,58.036c.106-.119.216-.258.341-.41a49.018,49.018,0,0,0,2.177-5.041" fill="#a22aa7" fill-rule="evenodd"/>
          <g id="Group_8743" data-name="Group 8743" opacity="0.3" style="mix-blend-mode: overlay;isolation: isolate">
            <g id="Group_8742" data-name="Group 8742">
              <g id="Group_8741" data-name="Group 8741" clip-path="url(#clip-path-28)">
                <path id="Path_6393" data-name="Path 6393" d="M42.326,44.074c-1.459-.433-6.788-1.846-7.42-1.837a8.615,8.615,0,0,0-2.38.754,20.277,20.277,0,0,0-2.781,1.166,5.054,5.054,0,0,0,1.6-.45c.546-.172,1.126-.208,1.68-.354.533-.14.992-.475,1.509-.625a3,3,0,0,1,1.342.021c1.017.171,1.985.542,2.982.795l2.967.755s.479.6.253.971a1.16,1.16,0,0,1,1.108-.284c.512.195,7.169,4.384,8.763,5.389-2.186-1.555-8.423-5.945-9.622-6.3" fill="#fff" fill-rule="evenodd"/>
              </g>
            </g>
          </g>
        </g>
      </g>
    </g>
  </g>
</svg>
