<svg id="Icon_-_Skills" data-name="Icon - Skills" xmlns="http://www.w3.org/2000/svg" width="120" height="120" viewBox="0 0 120 120">
  <rect id="frame" width="120" height="120" fill="none"/>
  <g id="skills" transform="translate(0 0.005)">
    <path id="Path_3009" data-name="Path 3009" d="M110.248,35,95.376,27.8l.348-1.432a8.183,8.183,0,0,0-6.015-9.886l-45.6-11.1a8.182,8.182,0,0,0-9.885,6.015L15.983,86.307A8.183,8.183,0,0,0,22,96.193l2.87.7a8.123,8.123,0,0,0,2.405,1.78l42.243,20.453a8.183,8.183,0,0,0,10.931-3.8l33.6-69.4a8.183,8.183,0,0,0-3.8-10.93" opacity="0.3"/>
    <path id="Path_3010" data-name="Path 3010" d="M66.412,103.6,21.035,92.553a8.3,8.3,0,0,1-6.1-10.026L33.119,7.837a8.3,8.3,0,0,1,10.025-6.1L88.522,12.785a8.3,8.3,0,0,1,6.1,10.025L76.438,97.5a8.3,8.3,0,0,1-10.026,6.1" fill="#ccc"/>
    <path id="Path_3011" data-name="Path 3011" d="M67.621,101a6.853,6.853,0,0,1-1.615-.194L20.629,89.753a6.807,6.807,0,0,1-5-8.214L33.816,6.85a6.777,6.777,0,0,1,6.6-5.192,6.847,6.847,0,0,1,1.615.194L87.406,12.9a6.806,6.806,0,0,1,5,8.213L74.221,95.8a6.779,6.779,0,0,1-6.6,5.191" fill="#662d91"/>
    <path id="Path_3012" data-name="Path 3012" d="M40.416,3.158h0a5.333,5.333,0,0,1,1.259.152L87.052,14.358a5.3,5.3,0,0,1,3.895,6.4L72.763,95.449a5.291,5.291,0,0,1-6.4,3.893L20.985,88.3a5.3,5.3,0,0,1-3.9-6.4L35.274,7.2a5.282,5.282,0,0,1,5.142-4.047m0-3a8.3,8.3,0,0,0-8.056,6.337L14.175,81.185a8.3,8.3,0,0,0,6.1,10.026l45.377,11.046a8.292,8.292,0,0,0,10.026-6.1l18.184-74.69a8.3,8.3,0,0,0-6.1-10.025L42.385.4a8.353,8.353,0,0,0-1.97-.237" fill="#421866"/>
    <path id="Path_3013" data-name="Path 3013" d="M40.416,2.158h0a6.317,6.317,0,0,1,1.495.181L87.289,13.386A6.3,6.3,0,0,1,91.918,21L73.735,95.685a6.288,6.288,0,0,1-7.61,4.629L20.748,89.268a6.3,6.3,0,0,1-4.63-7.61L34.3,6.968a6.281,6.281,0,0,1,6.114-4.81m0-2a8.3,8.3,0,0,0-8.056,6.337L14.175,81.185a8.3,8.3,0,0,0,6.1,10.026l45.377,11.046a8.287,8.287,0,0,0,10.026-6.1L93.861,21.469a8.3,8.3,0,0,0-6.1-10.026L42.385.4a8.353,8.353,0,0,0-1.97-.237" fill="#fff"/>
    <path id="Path_3014" data-name="Path 3014" d="M54.295,29.626,43.589,27.02a4.288,4.288,0,0,1,2.029-8.333l10.706,2.606a4.288,4.288,0,1,1-2.029,8.333" opacity="0.3"/>
    <path id="Path_3015" data-name="Path 3015" d="M53.828,28.859,43.122,26.253a4.288,4.288,0,0,1,2.029-8.333l10.706,2.606a4.288,4.288,0,1,1-2.029,8.333" fill="#29abe2"/>
    <path id="Path_3016" data-name="Path 3016" d="M44.6,22.853a4.288,4.288,0,1,1-3.152-5.181A4.288,4.288,0,0,1,44.6,22.853" opacity="0.3"/>
    <path id="Path_3017" data-name="Path 3017" d="M44.137,22.086a4.288,4.288,0,1,1-3.152-5.181,4.288,4.288,0,0,1,3.152,5.181" fill="#29abe2"/>
    <path id="Path_3018" data-name="Path 3018" d="M51.66,40.447,40.954,37.841a4.288,4.288,0,1,1,2.029-8.333l10.706,2.606a4.288,4.288,0,0,1-2.029,8.333" opacity="0.3"/>
    <path id="Path_3019" data-name="Path 3019" d="M51.194,39.68,40.488,37.074a4.288,4.288,0,0,1,2.029-8.333l10.706,2.606a4.288,4.288,0,1,1-2.029,8.333" fill="red"/>
    <path id="Path_3020" data-name="Path 3020" d="M41.969,33.674a4.288,4.288,0,1,1-3.152-5.181,4.288,4.288,0,0,1,3.152,5.181" opacity="0.3"/>
    <path id="Path_3021" data-name="Path 3021" d="M41.5,32.907a4.288,4.288,0,1,1-3.152-5.181A4.288,4.288,0,0,1,41.5,32.907" fill="red"/>
    <path id="Path_3022" data-name="Path 3022" d="M49.026,51.269,38.319,48.663a4.288,4.288,0,1,1,2.029-8.333l10.707,2.606a4.288,4.288,0,0,1-2.029,8.333" opacity="0.3"/>
    <path id="Path_3023" data-name="Path 3023" d="M48.559,50.5,37.853,47.9a4.288,4.288,0,1,1,2.029-8.333l10.706,2.606A4.288,4.288,0,1,1,48.559,50.5" fill="#a67c52"/>
    <path id="Path_3024" data-name="Path 3024" d="M39.334,44.5a4.288,4.288,0,1,1-3.152-5.181A4.288,4.288,0,0,1,39.334,44.5" opacity="0.3"/>
    <path id="Path_3025" data-name="Path 3025" d="M38.868,43.729a4.288,4.288,0,1,1-3.152-5.181,4.288,4.288,0,0,1,3.152,5.181" fill="#a67c52"/>
    <path id="Path_3026" data-name="Path 3026" d="M68.336,115.406,26.3,95.055A8.3,8.3,0,0,1,22.449,83.97l33.5-69.188a8.3,8.3,0,0,1,11.085-3.853l42.035,20.352a8.3,8.3,0,0,1,3.852,11.085l-33.5,69.188a8.3,8.3,0,0,1-11.085,3.852" fill="#ccc"/>
    <path id="Path_3027" data-name="Path 3027" d="M71.486,113.266a6.719,6.719,0,0,1-2.956-.682L26.5,92.233a6.8,6.8,0,0,1-3.156-9.082l33.5-69.188a6.84,6.84,0,0,1,6.125-3.838,6.726,6.726,0,0,1,2.957.682l42.034,20.352a6.8,6.8,0,0,1,3.156,9.081l-33.5,69.188a6.844,6.844,0,0,1-6.125,3.838" fill="#662d91"/>
    <path id="Path_3028" data-name="Path 3028" d="M62.963,11.624h0a5.251,5.251,0,0,1,2.3.531L107.3,32.508a5.3,5.3,0,0,1,2.459,7.077l-33.5,69.188a5.29,5.29,0,0,1-7.077,2.46L27.149,90.881a5.3,5.3,0,0,1-2.46-7.078l33.5-69.188a5.266,5.266,0,0,1,4.775-2.991m0-3a8.3,8.3,0,0,0-7.475,4.684L21.989,82.5a8.3,8.3,0,0,0,3.853,11.085l42.034,20.352a8.291,8.291,0,0,0,11.085-3.852l33.5-69.188a8.3,8.3,0,0,0-3.853-11.086L66.573,9.455a8.265,8.265,0,0,0-3.61-.831" fill="#421866"/>
    <path id="Path_3029" data-name="Path 3029" d="M62.963,10.624h0a6.239,6.239,0,0,1,2.739.631l42.034,20.353a6.3,6.3,0,0,1,2.924,8.413l-33.5,69.188a6.29,6.29,0,0,1-8.413,2.924L26.713,91.781a6.305,6.305,0,0,1-2.924-8.413l33.5-69.188a6.258,6.258,0,0,1,5.675-3.556m0-2a8.3,8.3,0,0,0-7.475,4.684L21.989,82.5a8.3,8.3,0,0,0,3.853,11.085l42.034,20.352a8.291,8.291,0,0,0,11.085-3.852l33.5-69.188a8.3,8.3,0,0,0-3.853-11.086L66.573,9.455a8.265,8.265,0,0,0-3.61-.831" fill="#fff"/>
    <path id="Path_3030" data-name="Path 3030" d="M72.063,40.539l-9.917-4.8a4.288,4.288,0,1,1,3.737-7.719l9.917,4.8a4.288,4.288,0,0,1-3.737,7.719" opacity="0.3"/>
    <path id="Path_3031" data-name="Path 3031" d="M71.769,39.691l-9.917-4.8a4.288,4.288,0,1,1,3.737-7.719l9.918,4.8a4.288,4.288,0,0,1-3.738,7.719" fill="#29abe2"/>
    <path id="Path_3032" data-name="Path 3032" d="M64.015,31.877a4.288,4.288,0,1,1-1.991-5.728,4.288,4.288,0,0,1,1.991,5.728" opacity="0.3"/>
    <path id="Path_3033" data-name="Path 3033" d="M63.72,31.03A4.288,4.288,0,1,1,61.729,25.3,4.288,4.288,0,0,1,63.72,31.03" fill="#29abe2"/>
    <path id="Path_3034" data-name="Path 3034" d="M95.168,51.725l-9.917-4.8A4.288,4.288,0,0,1,88.988,39.2l9.918,4.8a4.288,4.288,0,0,1-3.738,7.719" opacity="0.3"/>
    <path id="Path_3035" data-name="Path 3035" d="M94.873,50.877l-9.917-4.8a4.288,4.288,0,1,1,3.737-7.719l9.917,4.8a4.288,4.288,0,0,1-3.737,7.719" fill="#fbb03b"/>
    <path id="Path_3036" data-name="Path 3036" d="M87.119,43.064a4.288,4.288,0,1,1-1.991-5.728,4.288,4.288,0,0,1,1.991,5.728" opacity="0.3"/>
    <path id="Path_3037" data-name="Path 3037" d="M86.825,42.216a4.289,4.289,0,1,1-1.992-5.728,4.289,4.289,0,0,1,1.992,5.728" fill="#fbb03b"/>
    <path id="Path_3038" data-name="Path 3038" d="M67.21,50.563l-9.917-4.8a4.288,4.288,0,1,1,3.737-7.719l9.918,4.8a4.288,4.288,0,0,1-3.738,7.719" opacity="0.3"/>
    <path id="Path_3039" data-name="Path 3039" d="M66.915,49.715,57,44.913a4.288,4.288,0,1,1,3.737-7.719L70.653,42a4.288,4.288,0,0,1-3.738,7.719" fill="red"/>
    <path id="Path_3040" data-name="Path 3040" d="M59.161,41.9a4.288,4.288,0,1,1-1.991-5.728A4.288,4.288,0,0,1,59.161,41.9" opacity="0.3"/>
    <path id="Path_3041" data-name="Path 3041" d="M58.867,41.054a4.288,4.288,0,1,1-1.991-5.728,4.288,4.288,0,0,1,1.991,5.728" fill="red"/>
    <path id="Path_3042" data-name="Path 3042" d="M90.314,61.75l-9.917-4.8a4.288,4.288,0,1,1,3.737-7.719l9.917,4.8a4.288,4.288,0,0,1-3.737,7.719" opacity="0.3"/>
    <path id="Path_3043" data-name="Path 3043" d="M90.019,60.9,80.1,56.1a4.288,4.288,0,0,1,3.737-7.719l9.918,4.8A4.288,4.288,0,0,1,90.019,60.9" fill="#ed1e79"/>
    <path id="Path_3044" data-name="Path 3044" d="M82.266,53.088a4.288,4.288,0,1,1-1.991-5.728,4.288,4.288,0,0,1,1.991,5.728" opacity="0.3"/>
    <path id="Path_3045" data-name="Path 3045" d="M81.971,52.241a4.288,4.288,0,1,1-1.991-5.728,4.288,4.288,0,0,1,1.991,5.728" fill="#ed1e79"/>
    <path id="Path_3046" data-name="Path 3046" d="M62.356,60.587l-9.917-4.8a4.288,4.288,0,0,1,3.737-7.719l9.918,4.8a4.288,4.288,0,0,1-3.738,7.719" opacity="0.3"/>
    <path id="Path_3047" data-name="Path 3047" d="M62.062,59.74l-9.917-4.8a4.288,4.288,0,1,1,3.737-7.719l9.917,4.8a4.288,4.288,0,0,1-3.737,7.719" fill="#a67c52"/>
    <path id="Path_3048" data-name="Path 3048" d="M54.308,51.926A4.288,4.288,0,1,1,52.317,46.2a4.288,4.288,0,0,1,1.991,5.728" opacity="0.3"/>
    <path id="Path_3049" data-name="Path 3049" d="M54.013,51.078a4.288,4.288,0,1,1-1.991-5.728,4.288,4.288,0,0,1,1.991,5.728" fill="#a67c52"/>
    <path id="Path_3050" data-name="Path 3050" d="M85.46,71.774l-9.917-4.8a4.288,4.288,0,0,1,3.737-7.719l9.918,4.8a4.288,4.288,0,0,1-3.738,7.719" opacity="0.3"/>
    <path id="Path_3051" data-name="Path 3051" d="M85.166,70.926l-9.917-4.8A4.288,4.288,0,0,1,78.986,58.4l9.918,4.8a4.288,4.288,0,0,1-3.738,7.719" fill="#39b54a"/>
    <path id="Path_3052" data-name="Path 3052" d="M77.412,63.113a4.288,4.288,0,1,1-1.991-5.728,4.288,4.288,0,0,1,1.991,5.728" opacity="0.3"/>
    <path id="Path_3053" data-name="Path 3053" d="M77.117,62.265a4.288,4.288,0,1,1-1.991-5.728,4.288,4.288,0,0,1,1.991,5.728" fill="#39b54a"/>
    <path id="Path_3054" data-name="Path 3054" d="M60.3,94.295l-9.917-4.8a4.288,4.288,0,1,1,3.737-7.719l9.918,4.8A4.288,4.288,0,0,1,60.3,94.295" opacity="0.3"/>
    <path id="Path_3055" data-name="Path 3055" d="M60,93.448l-9.917-4.8a4.288,4.288,0,1,1,3.737-7.719l9.918,4.8A4.288,4.288,0,0,1,60,93.448" fill="#8cc63f"/>
    <path id="Path_3056" data-name="Path 3056" d="M52.247,85.634a4.288,4.288,0,1,1-1.991-5.728,4.288,4.288,0,0,1,1.991,5.728" opacity="0.3"/>
    <path id="Path_3057" data-name="Path 3057" d="M51.953,84.786a4.288,4.288,0,1,1-1.991-5.728,4.288,4.288,0,0,1,1.991,5.728" fill="#8cc63f"/>
  </g>
</svg>
