<svg id="Icon_-_Tick" data-name="Icon - Tick" xmlns="http://www.w3.org/2000/svg" width="120" height="120" viewBox="0 0 120 120">
  <rect id="Frame" width="120" height="120" fill="none"/>
  <path id="Path_1407" data-name="Path 1407" d="M873.776,745.594l-6.683-6.893a4.7,4.7,0,0,0-3.4-1.452,4.86,4.86,0,0,0-3.283,1.452l-14.3,14.756-13.6,13.786-4.456,4.6-13.128-13.789a4.635,4.635,0,0,0-3.283-1.452,4.7,4.7,0,0,0-3.4,1.452l-6.683,6.893a4.871,4.871,0,0,0-1.405,3.266,5.229,5.229,0,0,0,1.405,3.509l23.327,24.069a4.271,4.271,0,0,0,3.4,1.45,3.675,3.675,0,0,0,3.283-1.45l14.3-14.756,13.364-13.667,14.3-14.756a5.228,5.228,0,0,0,1.405-3.506A4.038,4.038,0,0,0,873.776,745.594Z" transform="translate(-779.675 -700.249)" fill="rgba(0,0,0,0.3)"/>
  <path id="Path_227" data-name="Path 227" d="M873.776,745.594l-6.683-6.893a4.7,4.7,0,0,0-3.4-1.452,4.86,4.86,0,0,0-3.283,1.452l-14.3,14.756-13.6,13.786-4.456,4.6-13.128-13.789a4.635,4.635,0,0,0-3.283-1.452,4.7,4.7,0,0,0-3.4,1.452l-6.683,6.893a4.871,4.871,0,0,0-1.405,3.266,5.229,5.229,0,0,0,1.405,3.509l23.327,24.069a4.271,4.271,0,0,0,3.4,1.45,3.675,3.675,0,0,0,3.283-1.45l14.3-14.756,13.364-13.667,14.3-14.756a5.228,5.228,0,0,0,1.405-3.506A4.038,4.038,0,0,0,873.776,745.594Z" transform="translate(-779.675 -704.249)" fill="#afafaf"/>
  <path id="Path_1216" data-name="Path 1216" d="M873.776,745.594l-6.683-6.893a4.7,4.7,0,0,0-3.4-1.452,4.86,4.86,0,0,0-3.283,1.452l-14.3,14.756-13.6,13.786-4.456,4.6-13.128-13.789a4.635,4.635,0,0,0-3.283-1.452,4.7,4.7,0,0,0-3.4,1.452l-6.683,6.893a4.871,4.871,0,0,0-1.405,3.266,5.229,5.229,0,0,0,1.405,3.509l23.327,24.069a4.271,4.271,0,0,0,3.4,1.45,3.675,3.675,0,0,0,3.283-1.45l14.3-14.756,13.364-13.667,14.3-14.756a5.228,5.228,0,0,0,1.405-3.506A4.038,4.038,0,0,0,873.776,745.594Z" transform="translate(-779.675 -709.46)" fill="#fff"/>
</svg>
