<svg id="Icon_-_Chest" data-name="Icon - Chest" xmlns="http://www.w3.org/2000/svg" width="120" height="120" viewBox="0 0 120 120">
  <rect id="frame" width="120" height="120" fill="none"/>
  <g id="Chest" transform="translate(-3752.561 853.106)">
    <path id="Path_1675" data-name="Path 1675" d="M3864.826-789.741l.006-.021c.019-.065.041-.147.064-.241l.007-.026a14.187,14.187,0,0,0,.27-1.423l0-.021c.03-.21.058-.439.083-.684v-.014c.05-.475.088-1.019.11-1.625,0-.035,0-.065,0-.1.01-.291.014-.6.014-.924,0-.035,0-.066,0-.1,0-.312-.01-.644-.021-.984,0-.052,0-.1,0-.152-.013-.317-.034-.654-.057-.995-.006-.086-.007-.164-.015-.252-.025-.344-.061-.709-.1-1.077-.01-.1-.015-.181-.026-.278-.042-.387-.1-.794-.155-1.207-.011-.088-.02-.169-.032-.26-.062-.425-.138-.871-.216-1.323-.017-.087-.026-.167-.042-.255q-.147-.817-.335-1.688v0c-.108-.5-.223-.973-.342-1.43-.012-.046-.023-.093-.036-.138-.113-.43-.232-.837-.353-1.228-.02-.062-.039-.124-.059-.185-.119-.375-.241-.731-.366-1.072-.022-.063-.046-.126-.068-.186q-.189-.5-.381-.949c-.023-.056-.048-.109-.072-.164-.13-.3-.261-.581-.394-.848-.02-.041-.041-.08-.061-.121-.138-.271-.275-.53-.413-.771l-.033-.053c-.131-.23-.265-.445-.4-.648l-.058-.091c-.13-.2-.26-.38-.388-.554-.026-.036-.052-.072-.08-.108-.122-.163-.243-.313-.36-.455-.03-.034-.057-.068-.086-.1-.116-.136-.229-.26-.339-.375-.027-.03-.055-.057-.082-.085-.108-.112-.215-.216-.317-.31l-.064-.058c-.1-.093-.2-.18-.3-.256l-.038-.03c-.089-.072-.174-.135-.253-.191l-.038-.027c-.082-.058-.157-.107-.226-.151l-.035-.021c-.067-.041-.126-.075-.178-.1l-.021-.011a1.918,1.918,0,0,0-.205-.1s-10.32-6.418-11.578-6.922a3.441,3.441,0,0,0-.381-.119h0a16.638,16.638,0,0,0-3.772-.259s-1.494-.812-3.833-2.1c-1.168-.646-2.548-1.413-4.058-2.26-.754-.423-1.542-.865-2.351-1.323-2.427-1.372-5.053-2.875-7.605-4.372-.425-.249-.848-.5-1.268-.746a121.2,121.2,0,0,1-10.942-7.017c-.086-.067-.153-.126-.23-.189h0c-.163-.132-.308-.257-.44-.375l-.032-.029c-.118-.107-.224-.209-.315-.3-.032-.035-.057-.065-.085-.1-.06-.067-.121-.134-.164-.193a.975.975,0,0,1-.139-.246,7.917,7.917,0,0,0-2.619-3.2c-.161-.129-.321-.255-.48-.374-.32-.24-.63-.46-.919-.654-.144-.1-.282-.188-.413-.271-.652-.419-1.107-.665-1.107-.665h0l-7.8-3.649c-21.645-2.266-34.23,17.241-36.622,28.316a61.543,61.543,0,0,0-1.132,19.758,3.263,3.263,0,0,1,.25.3,2.356,2.356,0,0,1,.311.573,1.74,1.74,0,0,1,.109.521,1.728,1.728,0,0,1-.183.85,1.978,1.978,0,0,1-.148.255l-.021.03a2.04,2.04,0,0,1-.138.179l-.025.029c-.04.045-.077.083-.1.108l-.018.016-.033.031h0L3765.6-767.9h0l52.852,33.977h0l0,0h0l12.124-7.257,24.247-14.515,8.936-30.329h0a3.639,3.639,0,0,1-.279-1.224l0-.035a2.594,2.594,0,0,1,.014-.353,2.281,2.281,0,0,1,.055-.32,2.546,2.546,0,0,1,1.22-1.591h0l.014-.04,0-.012C3864.794-789.633,3864.808-789.682,3864.826-789.741Z" transform="translate(0 0.812)" fill="rgba(0,0,0,0.3)"/>
    <g id="Icon" transform="translate(3759.728 -853.099)">
      <path id="Path_1676" data-name="Path 1676" d="M3797.813-852.918l7.8,3.65s4.657,2.516,5.538,5.159a4.611,4.611,0,0,0,1.406,1.432c6.145,4.834,30.056,17.824,30.056,17.824a14.222,14.222,0,0,1,4.153.377c1.258.5,11.578,6.922,11.578,6.922s4.026,1.51,6.041,10.824.378,13.843.378,13.843a2.616,2.616,0,0,0-1.007,3.524l-8.936,30.329-36.371,21.772L3765.6-771.241l-5.538-30.707a1.9,1.9,0,0,0,0-2.9,61.522,61.522,0,0,1,1.134-19.758C3763.583-835.677,3776.168-855.183,3797.813-852.918Z" transform="translate(-3759.728 853.099)" fill="#dfa1c4"/>
      <path id="Path_1677" data-name="Path 1677" d="M3779.047-837.568c-10.067,9.439-9.941,25.925-9.941,25.925l38.509,23.408s1.385-15.228,9.942-25.8,20.007-12.823,26.551-11.823a16.6,16.6,0,0,0-3.772-.257s-23.912-12.989-30.056-17.824l-5.182-3.571S3793.331-850.957,3779.047-837.568Z" transform="translate(-3757.448 854.361)" fill="#a422b0"/>
      <path id="Path_1678" data-name="Path 1678" d="M3779.687-837.016c14.283-13.39,26.051-9.942,26.051-9.942l4.941,3.406.01-.024a3.992,3.992,0,0,1-1.175-1.243c-.881-2.643-5.538-5.159-5.538-5.159s-7.047-1.51-16.737,3.775-19.129,13.465-20.765,36.622L3808-784.411l.251-3.272-38.509-23.408S3769.62-827.577,3779.687-837.016Z" transform="translate(-3758.088 853.809)" fill="#c576a8"/>
      <path id="Path_1679" data-name="Path 1679" d="M3769.746-818.735h0l-3.272,1.51h0l41.53,25.17.251-3.272-38.51-23.408Z" transform="translate(-3758.088 861.453)" fill="#ebbdd6"/>
      <path id="Path_1680" data-name="Path 1680" d="M3852.323-801.828l-45.558,22.509.251,29.593,36.371-21.772Z" transform="translate(-3748.292 865.563)" fill="#c576a8"/>
      <path id="Path_1681" data-name="Path 1681" d="M3818.137-776.732l-48.453-30.916-9.2-4.826a2.125,2.125,0,0,1-.487.649l5.538,30.707,52.852,33.977Z" transform="translate(-3759.664 862.975)" fill="#dfa1c4"/>
      <path id="Path_1682" data-name="Path 1682" d="M3864.7-802.325l-46.313,24.289-58.394-36.245a1.9,1.9,0,0,1,0,2.9l58.521,35.993,45.18-23.408A2.616,2.616,0,0,1,3864.7-802.325Z" transform="translate(-3759.664 862.536)" fill="#a03d6a"/>
      <path id="Path_1683" data-name="Path 1683" d="M3853.282-804.663l-46.313,24.289v2.565l.127.078,45.18-23.408A2.616,2.616,0,0,1,3853.282-804.663Z" transform="translate(-3748.244 864.874)" fill="#87325d"/>
      <path id="Path_1684" data-name="Path 1684" d="M3817.319-813.434c-10.755,11.683-10.35,38.221-10.35,38.221l46.313-24.289v0c.008-.022,1.631-4.551-.378-13.841-1.853-8.564-5.4-10.528-5.963-10.789l-.078-.035C3840.143-828.293,3828.074-825.117,3817.319-813.434Z" transform="translate(-3748.244 859.714)" fill="#c576a8"/>
      <path id="Path_1685" data-name="Path 1685" d="M3815.031-794.153s1.193-9.644,6.662-16.6,14.217-10.34,16.9-8.451,4.275,9.943,3.479,11.633Z" transform="translate(-3746.283 861.212)" fill="#952cae"/>
      <path id="Path_1686" data-name="Path 1686" d="M3842.949-816.749a6.549,6.549,0,0,0-5.147-2.869l0,.019a2.708,2.708,0,0,1,.868.365c2.684,1.888,4.275,9.943,3.479,11.633l-27.044,13.422-.4,3.479,30.724-15.212C3845.435-808.993,3844.838-813.865,3842.949-816.749Z" transform="translate(-3746.362 861.238)" fill="#d188b5"/>
      <path id="Path_1687" data-name="Path 1687" d="M3833.286-819.618l0,.019a2.708,2.708,0,0,1,.868.365c2.684,1.888,4.275,9.943,3.479,11.633l3.282,1.689c0-3.082-.6-7.953-2.486-10.837A6.549,6.549,0,0,0,3833.286-819.618Z" transform="translate(-3741.845 861.238)" fill="#b1568a"/>
      <path id="Path_1688" data-name="Path 1688" d="M3841.307-812.185l.3-.609a16.845,16.845,0,0,0-2.149-5.555h-.3l-17.9,8.054-.65.358a35.065,35.065,0,0,0-4.618,10.052Z" transform="translate(-3746.05 861.547)" fill="#a231b1"/>
      <path id="Path_1689" data-name="Path 1689" d="M3828.469-824.439l-37.06-22.617a34.45,34.45,0,0,0-10.047,4.96l.012.342,39.17,21.7h0a31.43,31.43,0,0,1,7.925-4.389Z" transform="translate(-3754.469 854.568)" fill="#b229c1"/>
      <path id="Path_1690" data-name="Path 1690" d="M3815.516-814.569l-39.543-21.92a3.855,3.855,0,0,0-.521-.16,33.7,33.7,0,0,0-4.689,9.658l39.114,22.6.765-.644a45,45,0,0,1,4.877-9.528Z" transform="translate(-3757.046 857.098)" fill="#b229c1"/>
      <path id="Path_1691" data-name="Path 1691" d="M3806.394-836.43s-4.842-3-12.971-1.96-12.8,6.576-14.18,9.975a11.183,11.183,0,0,0,2.19,11.93c3.458,3.46,11.587,6.745,19.2,4.555s11.3-7.84,11.874-9.4S3816.135-830.435,3806.394-836.43Z" transform="translate(-3755.185 856.622)" fill="#891e94"/>
      <path id="Path_1692" data-name="Path 1692" d="M3803.632-832.7v1.366s-2.333,2.447-3.643,2.959a57.841,57.841,0,0,1-5.864,1.366l-.056-1.366Z" transform="translate(-3751.379 858.059)" fill="#601466"/>
      <path id="Path_1693" data-name="Path 1693" d="M3797.339-836s-2.959,2.333-3.244,4.1a19.916,19.916,0,0,0,0,4.325,23.9,23.9,0,0,0,5.578-1.365,25.427,25.427,0,0,0,3.984-2.96S3802.234-834.914,3797.339-836Z" transform="translate(-3751.404 857.257)" fill="#a422b0"/>
      <path id="Path_1694" data-name="Path 1694" d="M3796.947-836a17.252,17.252,0,0,0-1.37,1.241l5.938,3.339,1.438-.206c.2-.169.313-.275.313-.275S3801.843-834.914,3796.947-836Z" transform="translate(-3751.013 857.257)" fill="#b929c9"/>
      <path id="Path_1695" data-name="Path 1695" d="M3803.648-832.572a4.365,4.365,0,0,0-.414-.644,27.277,27.277,0,0,1-3.457,2.635c-1.251.684-5.768,1.368-5.771,1.368.036.577.08.966.08.966a23.9,23.9,0,0,0,5.578-1.365A25.427,25.427,0,0,0,3803.648-832.572Z" transform="translate(-3751.395 857.933)" fill="#cc2fce"/>
      <path id="Path_1696" data-name="Path 1696" d="M3781.925-821.993s-.865-.692-.433-4.411a9.186,9.186,0,0,1,2.159-4.454,16.1,16.1,0,0,1,12.41-5.662s-2.982,1.254-2.507,8.776v1.038l-6.4,1.9-3.415,1.773Z" transform="translate(-3754.466 857.129)" fill="#b929c9"/>
      <path id="Path_1697" data-name="Path 1697" d="M3793.971-836.131v-.367l-.174-.022a4.357,4.357,0,0,0-1.569.8,37.729,37.729,0,0,0-1.467,3.594l-.07,2.693.22.428.33.022.048-.7.5-2.418,1.561-2.715Z" transform="translate(-3752.2 857.129)" fill="#cc2fce"/>
      <path id="Path_1698" data-name="Path 1698" d="M3793.854-836.207a11.009,11.009,0,0,0-2.033,2.724,12.013,12.013,0,0,0-.649,3.718s1.082-4.064,2.682-4.885Z" transform="translate(-3752.083 857.205)" fill="#601466"/>
      <path id="Path_1699" data-name="Path 1699" d="M3795.616-836.52a16.1,16.1,0,0,0-12.41,5.662l6.833,3.763,2.3.617.765-.228v-1.038C3792.634-835.266,3795.616-836.52,3795.616-836.52Z" transform="translate(-3754.02 857.129)" fill="#a422b0"/>
      <path id="Path_1700" data-name="Path 1700" d="M3781.622-824.427l-.07.05a1.407,1.407,0,0,0,.33.643l1.816-1.038,3.415-1.773,6.4-1.9v-.909a21.5,21.5,0,0,0-6.917,1.536A12.932,12.932,0,0,0,3781.622-824.427Z" transform="translate(-3754.422 858.871)" fill="#cc2fce"/>
      <path id="Path_1701" data-name="Path 1701" d="M3793.531-828.625v1.426s-8.387.682-11.542,4.666a14.483,14.483,0,0,1-.52-2.546l.433,1.167a12.953,12.953,0,0,1,6.4-3.676C3792.364-828.539,3793.315-828.452,3793.531-828.625Z" transform="translate(-3754.443 859.049)" fill="#601467"/>
      <path id="Path_1702" data-name="Path 1702" d="M3791.555-816.833l.173,1.21s6.744.087,10.981-3.847,3.727-7.865,3.727-7.865Z" transform="translate(-3751.991 859.362)" fill="#5b1563"/>
      <path id="Path_1703" data-name="Path 1703" d="M3792.247-817.489l-.691,1.081a27.52,27.52,0,0,0,7.306-1.427c2.767-1.167,7.746-4.577,7.591-9.854s-7.244,6.093-7.244,6.093Z" transform="translate(-3751.991 858.937)" fill="#db34e0"/>
      <path id="Path_1704" data-name="Path 1704" d="M3794.419-826.095s9.106-1.3,11.526-4.582a7.872,7.872,0,0,1-.389,6.053c-1.556,3.329-6.269,7.653-13.445,7.522a8.652,8.652,0,0,0,2.308-5.4C3794.4-825.532,3794.419-826.095,3794.419-826.095Z" transform="translate(-3751.855 858.55)" fill="#b929c9"/>
      <path id="Path_1705" data-name="Path 1705" d="M3793.969-826.095s-.006.219-.007,1.113l.055.055,7.763,4.408a12.281,12.281,0,0,0,3.327-4.1,7.872,7.872,0,0,0,.389-6.053C3803.075-827.391,3793.969-826.095,3793.969-826.095Z" transform="translate(-3751.406 858.55)" fill="#a422b0"/>
      <path id="Path_1706" data-name="Path 1706" d="M3783.279-821.944v1.3a13.349,13.349,0,0,0,6.21,3.7,7.442,7.442,0,0,0,3.471-5.546C3793.4-826.4,3783.279-821.944,3783.279-821.944Z" transform="translate(-3754.002 860.15)" fill="#5b1563"/>
      <path id="Path_1707" data-name="Path 1707" d="M3793.091-826.365s-5.447.736-6.917,1.9-2.9,2.593-2.9,2.593v.476s2.98,3.069,6.115,3.718c0,0,3.179-1.945,3.7-4.8S3793.091-826.365,3793.091-826.365Z" transform="translate(-3754.002 859.598)" fill="#b929c9"/>
      <path id="Path_1708" data-name="Path 1708" d="M3789.394-817.674s3.179-1.945,3.7-4.8,0-3.891,0-3.891a8.078,8.078,0,0,1-3.7,7.74c-2.468-.316-5.527-2.758-6.04-3.181l-.075-.062v.476S3786.259-818.323,3789.394-817.674Z" transform="translate(-3754.002 859.598)" fill="#db34e0"/>
      <path id="Path_1709" data-name="Path 1709" d="M3805.468-836.18c4.092,2.479,8.829,5.89,7.471,13,.81-2.809,1.521-8.841-6.548-13.807,0,0-4.842-3-12.971-1.959s-12.8,6.575-14.18,9.974a11.619,11.619,0,0,0-.809,3.77c.113-.976.908-5.34,6.264-9.306C3790.768-839,3801.374-838.659,3805.468-836.18Z" transform="translate(-3755.181 856.486)" fill="#cc2fce"/>
      <path id="Path_1710" data-name="Path 1710" d="M3805.468-835.623c4.092,2.479,8.829,5.89,7.471,13,.81-2.809,1.521-8.841-6.548-13.807,0,0-4.842-3-12.971-1.96s-12.8,6.576-14.18,9.975a11.617,11.617,0,0,0-.809,3.77c.113-.977.908-5.34,6.264-9.306C3790.768-838.448,3801.374-838.1,3805.468-835.623Z" transform="translate(-3755.181 856.622)" fill="#601467"/>
      <path id="Path_1711" data-name="Path 1711" d="M3767.392-802.034l40.084,24.744V-760.3L3770.2-783.758Z" transform="translate(-3757.865 865.513)" fill="#9f22a9"/>
      <path id="Path_1712" data-name="Path 1712" d="M3807.476-764.424,3773-785.7l-1.417-13.744-4.191-2.587,2.8,18.276,37.281,23.458Z" transform="translate(-3757.865 865.513)" fill="#c576a8"/>
      <path id="Path_1713" data-name="Path 1713" d="M3806.928-763.494v-4.124L3772.452-788.9l-2.8,1.945Z" transform="translate(-3757.317 868.707)" fill="#efc8dd"/>
      <path id="Path_1714" data-name="Path 1714" d="M3771.164-796.068l.7,6.759,34.7,20.8v-6.928Z" transform="translate(-3756.948 866.964)" fill="#a231b0"/>
      <path id="Path_1715" data-name="Path 1715" d="M3770.4-793l-1.275-10.031a7.815,7.815,0,0,1,2.543-6.917c3.328-3.048,8.524-3.373,8.524-3.373s7.962,1.067,11.882,6.254,4.077,13.143,3.883,15.679-.886,7.609-.886,7.609l-5.3,2.767Z" transform="translate(-3757.464 862.769)" fill="#662648"/>
      <path id="Path_1716" data-name="Path 1716" d="M3771.469-794.841l16.178,10.261s1.046-6.646.793-8.8-.138-10.278-7.979-14.863-10.145.889-10.145,2.591S3771.469-794.841,3771.469-794.841Z" transform="translate(-3757.154 863.569)" fill="#00fef9"/>
      <path id="Path_1717" data-name="Path 1717" d="M3775.92-795.159l.461-4.128s-2.191-1.96-2.075-4.381,2.075-2.652,3.919-1.96,3.1,3.482,3,5.419a2.313,2.313,0,0,1-1.959,2.19l1.037,5.764Z" transform="translate(-3756.185 864.557)"/>
      <path id="Path_1718" data-name="Path 1718" d="M3814.2-778.79,3813.7-761.8l23.259-13.856,4.619-18.175Z" transform="translate(-3746.606 867.508)" fill="#952cae"/>
      <path id="Path_1719" data-name="Path 1719" d="M3813.844-769.221l20.6-11.778,4.132-6.761-2.368-.385-22.15,11.563Z" transform="translate(-3746.572 868.89)" fill="#a231b0"/>
      <path id="Path_1720" data-name="Path 1720" d="M3837.425-791.548l-3.6,14.573L3813.81-765.49l-.107,3.691,23.259-13.856,4.619-18.175Z" transform="translate(-3746.606 867.508)" fill="#b1568a"/>
      <path id="Path_1721" data-name="Path 1721" d="M3813.7-765.1l23.259-13.856-3.134-1.32-20.017,11.485Z" transform="translate(-3746.606 870.804)" fill="#d188b5"/>
    </g>
  </g>
</svg>
