<svg id="claw" xmlns="http://www.w3.org/2000/svg" xmlns:xlink="http://www.w3.org/1999/xlink" width="120" height="120" viewBox="0 0 120 120">
  <defs>
    <linearGradient id="linear-gradient" y1="0.5" x2="1" y2="0.5" gradientUnits="objectBoundingBox">
      <stop offset="0" stop-color="#cba88b"/>
      <stop offset="1" stop-color="#b48362"/>
    </linearGradient>
    <linearGradient id="linear-gradient-6" x1="0" y1="0.5" x2="1" y2="0.5" xlink:href="#linear-gradient"/>
  </defs>
  <path id="Path_3365" data-name="Path 3365" d="M2083.756,402.668l-21.993-11.451c-.047-.179-.092-.354-.138-.531l-.527-13.323a32.255,32.255,0,0,1,2.267-2.3s4.442,1.57,6.958-1.175.85-8.922.85-8.922l0,0,.024-.042.031-.052.085-.154.011-.021c.016-.031.032-.063.051-.1s.051-.1.078-.159c.013-.026.025-.049.038-.078l0-.008c.026-.055.052-.111.079-.172s.059-.13.089-.2l.025-.062.016-.036c.023-.057.045-.108.069-.168.033-.085.067-.176.1-.269l.015-.04.026-.068h0l0-.015c.047-.133.092-.271.139-.418.027-.089.054-.18.081-.274.044-.153.085-.307.125-.472.026-.107.05-.219.074-.332.036-.167.07-.333.1-.511.006-.038.015-.072.021-.11l0-.06c.013-.083.023-.169.036-.252a51.093,51.093,0,0,0-68.355-8.982c0,.282-.005.562.011.87.347,6.691,4.536,9.556,6.777,10.14a34.822,34.822,0,0,0,7.268.28c-4.888,11.744-19.7,48.253-18.643,56.944l.137-.007a1.243,1.243,0,0,0,.1.505c.086.139.182.27.269.408l.013.032q.623.987,1.289,1.945c.123.175.254.344.378.518.415.58.839,1.151,1.277,1.712.06.077.114.159.174.235l.121.135a51.218,51.218,0,0,0,25.869,17.37l.066-.091.042.013-.033.046c.274.079.548.16.824.234l.028-.037a41.3,41.3,0,0,0,7.013,1.454c.4.048.666.068,1,.117A51.139,51.139,0,0,0,2083.756,402.668Z" transform="translate(-1973.44 -333.787)" opacity="0.3" style="mix-blend-mode: normal;isolation: isolate"/>
  <path id="Path_3366" data-name="Path 3366" d="M2070.868,354.94l.409.374A2.33,2.33,0,0,0,2070.868,354.94Z" transform="translate(-1973.44 -333.787)" fill="#af8864"/>
  <path id="Path_3367" data-name="Path 3367" d="M1999.218,431.528a51.9,51.9,0,0,0,27.92,13.081c.46.054.731.071,1.136.138q2.531.252,5.13.256a50.935,50.935,0,0,0,26.156-7.189c1.853-13.172-4.568-34.067-8.119-47.884l-1.08-22.753s-1.454-15.844-19.418-18.65c-15.691-2.452-19.231,4.531-21.193,11,0,0-21.445,50.21-20.182,60.606l.138-.007a1.241,1.241,0,0,0,.1.505,51.3,51.3,0,0,0,3.4,4.85C1994.594,427.049,1996.523,429.03,1999.218,431.528Z" transform="translate(-1973.44 -333.787)" fill="#f6cb9d"/>
  <path id="Path_3368" data-name="Path 3368" d="M1989.869,418.14l55.962,25.336a51.257,51.257,0,0,0,36.933-36.124L2049.3,389.93S1992.438,390.448,1989.869,418.14Z" transform="translate(-1973.44 -333.787)" fill="#f6cb9d"/>
  <path id="Path_3369" data-name="Path 3369" d="M2043.509,400.291c3.361-23.781-3.366-30.112-3.9-30.75s-23.255-6.619-23.255-6.619-23.078,40.652-25.287,48.069a25.751,25.751,0,0,0-1.362,9.139s.133.345.384.945A51.274,51.274,0,0,0,2019.2,442.99c1.179-1.645,2.378-3.262,3.345-4.449C2022.544,438.541,2040.33,422.79,2043.509,400.291Z" transform="translate(-1973.44 -333.787)" fill="#f4e1be"/>
  <path id="Path_3370" data-name="Path 3370" d="M2051.567,391.11l.194,2.747,21.115,22.589,6.208.451a50.794,50.794,0,0,0,3.68-9.545Z" transform="translate(-1973.44 -333.787)" fill="#f6d5b1"/>
  <path id="Path_3371" data-name="Path 3371" d="M2034.778,433.5c.42-.542.805-1.116,1.2-1.674s.794-1.116,1.172-1.69l1.148-1.706c.749-1.151,1.5-2.295,2.225-3.457s1.453-2.328,2.145-3.483l1.118-1.867,1.682,1.435.721.615c.246.2.515.4.774.6s.536.389.81.582.548.386.835.567c1.128.751,2.317,1.449,3.518,2.132,2.413,1.357,4.909,2.616,7.451,3.785l-.022.07c-2.754-.528-5.5-1.155-8.229-1.913-1.365-.385-2.731-.791-4.1-1.28-.341-.114-.681-.246-1.022-.378s-.684-.256-1.024-.41c-.158-.07-.317-.137-.475-.2-.592.578-1.184,1.152-1.784,1.722-1,.961-2.026,1.9-3.043,2.844l-1.551,1.389c-.51.467-1.042.915-1.567,1.367s-1.041.91-1.589,1.338l-1.612,1.3-.031-.031Z" transform="translate(-1973.44 -333.787)" fill="#fffeba"/>
  <path id="Path_3372" data-name="Path 3372" d="M2037.176,439.308c.394-.562.793-1.117,1.172-1.691l1.148-1.706c.749-1.15,1.5-2.3,2.225-3.457s1.453-2.328,2.145-3.482l1.118-1.868,1.683,1.435.72.615c.246.205.515.4.774.6s.536.39.81.583.548.385.835.567c1.128.75,2.317,1.448,3.518,2.131,2.413,1.357,4.909,2.616,7.451,3.785l-.022.07c-2.754-.528-5.495-1.155-8.228-1.913-1.366-.385-2.732-.79-4.095-1.28-.342-.114-.682-.246-1.023-.378s-.684-.256-1.024-.41c-.158-.07-.316-.136-.475-.205-.592.579-1.184,1.152-1.784,1.722-1,.961-2.026,1.9-3.043,2.844l-1.55,1.39c-.511.466-1.043.915-1.568,1.366s-1.041.909-1.588,1.339l-1.613,1.3-.031-.031,1.241-1.652C2036.392,440.439,2036.777,439.866,2037.176,439.308Z" transform="translate(-1973.44 -333.787)" fill="#fffeba"/>
  <path id="Path_3373" data-name="Path 3373" d="M2050.849,370.8l1.466,37.04-3.622-32.9" transform="translate(-1973.44 -333.787)" fill="#fff"/>
  <path id="Path_3374" data-name="Path 3374" d="M2025.643,338.38l-.65-2.278c-.118,0,7.925-3.59,14.481-1.539l.45,4.636Z" transform="translate(-1973.44 -333.787)" fill="#7fb7df"/>
  <path id="Path_3375" data-name="Path 3375" d="M2031.061,334.584l3.053,3.13,5.15-.026-.344-3.192A15.86,15.86,0,0,0,2031.061,334.584Z" transform="translate(-1973.44 -333.787)" fill="#fff" opacity="0.43"/>
  <path id="Path_3376" data-name="Path 3376" d="M2051.48,344.91l1.849-2.458c.087.051-3.663-5.775-9.56-6.97l-1.343,4.71Z" transform="translate(-1973.44 -333.787)" fill="#7fb7df"/>
  <path id="Path_3377" data-name="Path 3377" d="M2044.631,335.748l.855,4.288,4.332,2.786,1.451-2.865A15.852,15.852,0,0,0,2044.631,335.748Z" transform="translate(-1973.44 -333.787)" fill="#fff" opacity="0.43"/>
  <path id="Path_3378" data-name="Path 3378" d="M2012.909,376.593a30.37,30.37,0,0,1,.227,9.716c-.646,4.184-1.616,8.782-1.14,13.031.6,5.391,11.334,9.262,15.853,8.709s8.893-4.9,8.893-4.9,4.418-10.589,3.675-17.221c-.532-4.745-8.7-7.228-12.363-8.39-5.795-1.839-12.879-2.018-16.708-7.5A56.593,56.593,0,0,1,2012.909,376.593Z" transform="translate(-1973.44 -333.787)" opacity="0.57" fill="url(#linear-gradient)"/>
  <path id="Path_3379" data-name="Path 3379" d="M2053.377,375.058s4.442,1.57,6.957-1.175.851-8.922.851-8.922S2055.13,369.231,2053.377,375.058Z" transform="translate(-1973.44 -333.787)" fill="#f6cb9d"/>
  <path id="Path_3380" data-name="Path 3380" d="M2020.4,342.907" transform="translate(-1973.44 -333.787)" fill="none" stroke="#f6cb9d" stroke-width="0.588"/>
  <path id="Path_3381" data-name="Path 3381" d="M2009.331,363.142s-6.146.354-8.387-.229-6.431-3.449-6.777-10.14,3.69-7.045,4.488-7.154a27.387,27.387,0,0,0,7.829-2.275c3.036-1.56,18.274-6.518,28.128-6.627s17.541,5.988,20.1,8.02a24.527,24.527,0,0,1,4.079,4.054,7.123,7.123,0,0,1,.782,2.663q.393,1.627.831,3.244a.816.816,0,0,0,.127.3.938.938,0,0,0,.311.217c1.9,1.027,1.74,3.428,1.72,5.286a11.125,11.125,0,0,1-1.381,4.461s-5.271,7.781-7.808,10.1c-5.92,5.4-11.448,15.445-11.269,17.667a27.061,27.061,0,0,1-.555,5.826c-3.3,7.954-10.455,7.088-18.159,3.781s-5.995-15.087-5.963-17.472-.272-5.354-3.7-10.458a31.839,31.839,0,0,1-4.4-11.26" transform="translate(-1973.44 -333.787)" fill="#f6cb9d"/>
  <path id="Path_3382" data-name="Path 3382" d="M2061.929,363.328a27.294,27.294,0,0,0-13.406,8.557,52.938,52.938,0,0,0-4.25,6.069,20.1,20.1,0,0,0-4.106,15.8,7.487,7.487,0,0,0,.512,2.686,2.963,2.963,0,0,0,1.036,1.22,23.069,23.069,0,0,0,.393-4.936c-.179-2.222,5.349-12.265,11.269-17.667,2.537-2.316,7.808-10.1,7.808-10.1A8.9,8.9,0,0,0,2061.929,363.328Z" transform="translate(-1973.44 -333.787)" opacity="0.5" fill="url(#linear-gradient)" style="mix-blend-mode: multiply;isolation: isolate"/>
  <path id="Path_3383" data-name="Path 3383" d="M2012.285,350.993a11.712,11.712,0,0,1-6.761.812c-3.244-.812-5.408-1.439-6.9.227s-.4,8.818,10.686,7.671A15.39,15.39,0,0,1,2012.285,350.993Z" transform="translate(-1973.44 -333.787)" opacity="0.5" fill="url(#linear-gradient)" style="mix-blend-mode: multiply;isolation: isolate"/>
  <path id="Path_3384" data-name="Path 3384" d="M2012.285,350.993a11.712,11.712,0,0,1-6.761.812c-3.244-.812-5.408-1.439-6.9.227s-.4,8.818,10.686,7.671A15.39,15.39,0,0,1,2012.285,350.993Z" transform="translate(-1973.44 -333.787)" opacity="0.5" fill="url(#linear-gradient)" style="mix-blend-mode: multiply;isolation: isolate"/>
  <path id="Path_3385" data-name="Path 3385" d="M2053.705,351.4" transform="translate(-1973.44 -333.787)" fill="none" stroke="#f6cb9d" stroke-width="0.588"/>
  <path id="Path_3386" data-name="Path 3386" d="M2062.234,356.734l-8.857,2.969-10.1-7.123v-3.342a10.1,10.1,0,0,0-8.244,2.274c-2.735,2.176-10.212,18.714-13.74,25.285a38.53,38.53,0,0,0-4.009,13.914c.188,4.3,1.352,9.577,6.114,11.621,7.7,3.307,14.858,4.173,18.159-3.781,0,0,.207-1.02.375-2.307-1.034-2.913-2.988-3.952,2.107-14.347S2056.1,367.97,2056.1,367.97a23.78,23.78,0,0,0,5.082-3.009,10.874,10.874,0,0,0,1.287-3.764A23.209,23.209,0,0,0,2062.234,356.734Z" transform="translate(-1973.44 -333.787)" fill="#f4e1be"/>
  <path id="Path_3387" data-name="Path 3387" d="M2039.9,401.439a22.987,22.987,0,0,1-15.969-3.164s-4.61-2.648-4.806-11.671c-.034-1.556-.081-2.969-.144-4.28a39.332,39.332,0,0,0-1.7,8.387c.011.251.026.507.044.764l.008.108q.025.35.063.7c0,.036.007.073.011.109.057.54.134,1.086.235,1.631.006.035.014.07.02.1q.064.339.142.676c.016.069.033.139.05.208q.07.294.153.585c.02.072.04.145.061.217.063.214.132.425.2.635.015.045.028.09.044.134q.136.383.295.753c.02.045.042.089.062.134q.129.3.275.582c.038.075.079.149.119.224.087.16.177.319.272.474.046.078.093.154.142.23.1.161.213.317.325.472.044.06.086.122.131.181.16.209.329.413.508.608.026.029.056.055.083.084.154.164.316.324.485.477.066.059.135.116.2.173.14.12.284.235.434.347.079.058.158.115.24.171.157.109.322.212.49.312.077.046.152.093.231.137.25.138.508.268.781.385h0l.011.005c.22.094.44.187.659.277l.229.092c.146.06.293.119.439.176l.273.106c.13.05.26.1.39.148l.293.108c.123.045.245.088.367.131.1.036.2.072.3.106q.175.06.351.117c.1.034.206.069.309.1s.233.072.349.107q.312.1.623.182c.088.025.177.051.265.074.127.034.254.066.381.1.08.02.161.041.242.06.129.031.258.06.387.089l.225.049c.133.028.266.054.4.079l.2.036c.141.025.281.049.421.071l.132.02a15.134,15.134,0,0,0,2.066.169h.038c.16,0,.32,0,.478-.008l.068,0c.158-.006.314-.015.47-.028l.051,0a8.287,8.287,0,0,0,6.1-3.252Z" transform="translate(-1973.44 -333.787)" fill="#f6cb9d"/>
  <path id="Path_3388" data-name="Path 3388" d="M2039.312,392.708c1.353-12.825,12.106-24.254,12.106-24.254l1.335-1.668-2.772-1.6-6.31-1.444-3.767-1.582-3.519-1.288s-8.343,20.131-8.533,22.293S2039.312,392.708,2039.312,392.708Z" transform="translate(-1973.44 -333.787)" fill="#45121c"/>
  <path id="Path_3389" data-name="Path 3389" d="M2042.729,365.714s1.334,8.435-7.7,13.535-8.146-6.935-8.146-6.935,6.133-12.68,9.291-13.072A6.12,6.12,0,0,1,2042.729,365.714Z" transform="translate(-1973.44 -333.787)" fill="#17070a"/>
  <path id="Path_3390" data-name="Path 3390" d="M2027.423,371.234s5.534,3.013,5.927,6.642c0,0,3.832,1.667,4.907,5.3s.942,9.146-.61,11.928c0,0-7.1-1.033-7.606-1.16s-8.153-.81-7.179-7.162S2027.423,371.234,2027.423,371.234Z" transform="translate(-1973.44 -333.787)" fill="#793b46"/>
  <path id="Path_3391" data-name="Path 3391" d="M2038.257,362.162s-2.251-2.231-4.052-1.631c0,0,1.159-1.629,2.76-1.321a6.14,6.14,0,0,1,4.144,2C2042.559,362.764,2038.257,362.162,2038.257,362.162Z" transform="translate(-1973.44 -333.787)" fill="#45121c"/>
  <path id="Path_3392" data-name="Path 3392" d="M2039.154,361.051s-1.463.089-1.906,2.881a9.914,9.914,0,0,0,.177,4.522,33.663,33.663,0,0,0,3.99-3.493C2042.39,363.755,2041.681,361.672,2039.154,361.051Z" transform="translate(-1973.44 -333.787)" fill="#fff"/>
  <path id="Path_3393" data-name="Path 3393" d="M2040.689,392.236c-.081-1.925.634-4.807,3.346-10.339a36.715,36.715,0,0,1,7.341-10.294" transform="translate(-1973.44 -333.787)" fill="none" stroke="#af8864" stroke-width="0.78"/>
  <path id="Path_3394" data-name="Path 3394" d="M2051.965,366.592s-.887,3.768-2.261,5.186,4.384-.089,5.471-3.254C2055.733,366.9,2052.083,366.136,2051.965,366.592Z" transform="translate(-1973.44 -333.787)" fill="#fff"/>
  <path id="Path_3395" data-name="Path 3395" d="M2051.965,366.592a4.356,4.356,0,0,1-2.7,1.685,3.337,3.337,0,0,1,0-2.483C2049.793,364.42,2052.763,365.44,2051.965,366.592Z" transform="translate(-1973.44 -333.787)" fill="#fff"/>
  <path id="Path_3396" data-name="Path 3396" d="M2045.626,364.752a10,10,0,0,0,0,3.126s1.862.177,3.635-2.084a2.79,2.79,0,0,0-2.084-1.155C2045.67,364.464,2045.626,364.752,2045.626,364.752Z" transform="translate(-1973.44 -333.787)" fill="#fff"/>
  <path id="Path_3397" data-name="Path 3397" d="M2042.833,363.666a5.516,5.516,0,0,0-.177,3.039,3.621,3.621,0,0,0,2.918-1.519A2.754,2.754,0,0,0,2042.833,363.666Z" transform="translate(-1973.44 -333.787)" fill="#fff"/>
  <path id="Path_3398" data-name="Path 3398" d="M2041.415,364.961s1.064-.659,1.6-.378a14.919,14.919,0,0,0,2.563.6l3.687.608,2.7.8,2.737.674s-2.914-2.073-3.092-2.3-.323-.355-1.048-.448-5.778-.582-6.266-.848-3.147-2.392-3.369-2.614a2.605,2.605,0,0,0-2.155.121Z" transform="translate(-1973.44 -333.787)" fill="#fff"/>
  <path id="Path_3399" data-name="Path 3399" d="M2022.862,386.778a5.139,5.139,0,0,0,.207,2.538c.466.669,1.862-1.556,1.862-1.556a6.043,6.043,0,0,0,0-2.224A1.849,1.849,0,0,0,2022.862,386.778Z" transform="translate(-1973.44 -333.787)" fill="#fff"/>
  <path id="Path_3400" data-name="Path 3400" d="M2027.518,392.726a10.623,10.623,0,0,0,.839-6.776c-2.627-.259-4.439,3.113-4.439,3.113s-.1,1.9,1.128,2.68A7.481,7.481,0,0,0,2027.518,392.726Z" transform="translate(-1973.44 -333.787)" fill="#fff"/>
  <path id="Path_3401" data-name="Path 3401" d="M2037.966,394.226s2.1-2.819,3.869-3.116a6.982,6.982,0,0,1-.869,5.062,7.294,7.294,0,0,1-2.709-.549C2036.983,395.054,2037.966,394.226,2037.966,394.226Z" transform="translate(-1973.44 -333.787)" fill="#fff"/>
  <path id="Path_3402" data-name="Path 3402" d="M2037.647,395.1a3.983,3.983,0,0,0-.2-2.374s-1.552-.31-2.845,1.6a5.592,5.592,0,0,0,1.57.77A3.951,3.951,0,0,0,2037.647,395.1Z" transform="translate(-1973.44 -333.787)" fill="#fff"/>
  <path id="Path_3403" data-name="Path 3403" d="M2030.828,393.94a4.779,4.779,0,0,1,1.966-1.679c.982-.259,1.623,1.6,1.536,2.069S2030.828,393.94,2030.828,393.94Z" transform="translate(-1973.44 -333.787)" fill="#fff"/>
  <path id="Path_3404" data-name="Path 3404" d="M2030.828,393.94s-.517-1.99-1.086-2.4a4.1,4.1,0,0,0-2.737,1.068C2026.069,393.352,2030.828,393.94,2030.828,393.94Z" transform="translate(-1973.44 -333.787)" fill="#fff"/>
  <path id="Path_3405" data-name="Path 3405" d="M2022.8,387.476a5.367,5.367,0,0,0,2.75,5.147c3.259,2.069,5.793,1.415,7.6,1.845s4.82.839,5.487,1.307a5.089,5.089,0,0,0,2.323.4l-1.172-1.222a8.807,8.807,0,0,1-2.706-.155,35.125,35.125,0,0,0-3.881-.855l-3.672-.128S2023.724,391.02,2022.8,387.476Z" transform="translate(-1973.44 -333.787)" fill="#fff"/>
  <path id="Path_3406" data-name="Path 3406" d="M2035.761,359.7a4.4,4.4,0,0,0-1.093,4.936s2.536-1.283,3.378-2.79S2037.023,359.552,2035.761,359.7Z" transform="translate(-1973.44 -333.787)" fill="#fff"/>
  <path id="Path_3407" data-name="Path 3407" d="M2027.423,371.234s5.534,3.013,5.927,6.642c0,0,.317,4.309.98,5.609" transform="translate(-1973.44 -333.787)" fill="none" stroke="#45121c" stroke-width="0.673"/>
  <path id="Path_3408" data-name="Path 3408" d="M2053.372,359.99s0,2.242-2.493,4.649c0,0,4.228,1.593,4.349,3.638" transform="translate(-1973.44 -333.787)" fill="none" stroke="#af8864" stroke-width="0.78"/>
  <path id="Path_3409" data-name="Path 3409" d="M2050.879,364.639s-6.385-.847-6.583-.974-4.711-4.709-7.554-4.494" transform="translate(-1973.44 -333.787)" fill="none" stroke="#af8864" stroke-width="0.78"/>
  <path id="Path_3410" data-name="Path 3410" d="M2036.965,359.21s-3.009-.939-8.608,10.236-5.512,14.979-5.555,18.03,1.2,4.543,4.057,6.053a69.107,69.107,0,0,0,7.479,1.191c4.29.455,4.7,1.24,5.139,1.456s1.708.782,1.886-.773" transform="translate(-1973.44 -333.787)" fill="none" stroke="#af8864" stroke-width="0.78"/>
  <path id="Path_3411" data-name="Path 3411" d="M2043.273,352.58s8.779,6.978,10.1,7.642c0,0,5.91.248,8.767-2.667l.09-.821a16.718,16.718,0,0,0-5.672.5,3.2,3.2,0,0,1-1.927-.828,39.811,39.811,0,0,0-6.711-4.488C2046.661,351.451,2043.871,350.786,2043.273,352.58Z" transform="translate(-1973.44 -333.787)" fill="#5b222f"/>
  <path id="Path_3412" data-name="Path 3412" d="M2023.935,398.275s-4.61-2.648-4.806-11.671-.785-13.534-3.04-18.045-4.722-11.475,4.308-25.2c0,0-.345.259-.9.7,0,0-8.446,5.168-14.631,4.96s-9.532.843-6.351,6.841l0,0a3.781,3.781,0,0,1,.114-3.828c1.487-1.666,3.651-1.039,6.9-.227a11.518,11.518,0,0,0,6.609-.746,9.547,9.547,0,0,0-1.74,2.982,20.766,20.766,0,0,0-.542,11.431c.239.9.572,2.013,1.02,3.22.065.166.122.329.192.5.01.026.02.056.031.083a26.962,26.962,0,0,0,2.64,5.129c3.425,5.1,3.729,8.072,3.7,10.458s-1.742,14.165,5.963,17.472c6.6,2.833,12.795,3.869,16.51-.893A22.988,22.988,0,0,1,2023.935,398.275Z" transform="translate(-1973.44 -333.787)" opacity="0.5" fill="url(#linear-gradient)" style="mix-blend-mode: multiply;isolation: isolate"/>
  <path id="Path_3413" data-name="Path 3413" d="M2030.041,343.946s2.944-1.963,4.988-1.369,6.641,4.075,6.641,4.075l1.059,1.039-5.46-2.607S2030.821,343.737,2030.041,343.946Z" transform="translate(-1973.44 -333.787)" fill="#af8864"/>
  <path id="Path_3414" data-name="Path 3414" d="M2042.426,349.582s1.1-2.839.847-4.005-3.591-6.134-12.341-5.063c-4.552.557-4.463,2.778-4.463,2.778a9.016,9.016,0,0,0,6.176,4.4c4.522.945,8.925,1.713,9.22,1.891" transform="translate(-1973.44 -333.787)" fill="#f4e1be"/>
  <path id="Path_3415" data-name="Path 3415" d="M2042.426,348.906c.088-.014.174-.036.26-.057a8.268,8.268,0,0,0,.587-3.273c-.255-1.166-3.591-6.133-12.341-5.062-4.552.557-4.463,2.778-4.463,2.778C2029.008,342.9,2042.426,348.906,2042.426,348.906Z" transform="translate(-1973.44 -333.787)" fill="#af8864"/>
  <path id="Path_3416" data-name="Path 3416" d="M2028.174,343.562s4.961-.756,8.52.667,3.55,3.9,2.665,3.918-6.543-.94-8.563-2.395A15.414,15.414,0,0,1,2028.174,343.562Z" transform="translate(-1973.44 -333.787)" fill="#fff"/>
  <path id="Path_3417" data-name="Path 3417" d="M2033.87,346.9s2.36.35,2.99-.56a1.561,1.561,0,0,0,0-1.925c-.192-.193-4.6-1.838-7.158-.823S2032.892,346.633,2033.87,346.9Z" transform="translate(-1973.44 -333.787)" fill="#a06355"/>
  <ellipse id="Ellipse_392" data-name="Ellipse 392" cx="1.716" cy="1.271" rx="1.716" ry="1.271" transform="translate(57.628 9.576)" fill="#211d1c"/>
  <path id="Path_3418" data-name="Path 3418" d="M2035.863,345.5c-.062.265-.624.359-1.254.21s-1.09-.484-1.027-.749.624-.359,1.254-.21S2035.926,345.238,2035.863,345.5Z" transform="translate(-1973.44 -333.787)" fill="#fcfcfc"/>
  <path id="Path_3419" data-name="Path 3419" d="M2027.6,341.565a13.768,13.768,0,0,1,10.2-.54c5.29,1.975,5.467,4.583,5.467,5.406" transform="translate(-1973.44 -333.787)" fill="none" stroke="#231f20" stroke-width="1.128"/>
  <path id="Path_3420" data-name="Path 3420" d="M2028.357,343.52a16.877,16.877,0,0,1,7.378.416c3.722,1.143,4.4,2.964,4.27,3.925" transform="translate(-1973.44 -333.787)" fill="none" stroke="#231f20" stroke-width="0.588"/>
  <path id="Path_3421" data-name="Path 3421" d="M2027.849,343.354a17.649,17.649,0,0,1,1.679,1.556c.728.793,5.856,3.341,10.362,3.237" transform="translate(-1973.44 -333.787)" fill="none" stroke="#231f20" stroke-width="0.642"/>
  <line id="Line_7" data-name="Line 7" x2="3.51" y2="1.377" transform="translate(66.322 14.075)" fill="none" stroke="#231f20" stroke-width="1.023"/>
  <path id="Path_3422" data-name="Path 3422" d="M2054.533,348.641s6.966-2.262,6.082,1.117" transform="translate(-1973.44 -333.787)" fill="none" stroke="#231f20" stroke-width="1.273"/>
  <path id="Path_3423" data-name="Path 3423" d="M2054.193,348.829s-.654,1.141.764,2.321,5.719,3.365,6.332,4.164" transform="translate(-1973.44 -333.787)" fill="none"/>
  <path id="Path_3424" data-name="Path 3424" d="M2060.543,349.257s-.178,1.755-.148,1.852a2.616,2.616,0,0,0,0,1.251,8.327,8.327,0,0,1,.033,2.512c-.046.259-5.252-3.461-5.608-3.85s-2.193-2.3.762-2.6S2060.688,347.6,2060.543,349.257Z" transform="translate(-1973.44 -333.787)" fill="#af8864"/>
  <path id="Path_3425" data-name="Path 3425" d="M2055.276,351.4c1.345,1.038,5.109,3.691,5.148,3.471a8.327,8.327,0,0,0-.033-2.512,1.847,1.847,0,0,1-.042-.959Z" transform="translate(-1973.44 -333.787)" fill="#af8864"/>
  <path id="Path_3426" data-name="Path 3426" d="M2054.854,351.056c.529.505,5.525,4.07,5.57,3.816a8.327,8.327,0,0,0-.033-2.512,2.616,2.616,0,0,1,0-1.251.292.292,0,0,1,0-.053Z" transform="translate(-1973.44 -333.787)" fill="#f6cb9d"/>
  <path id="Path_3427" data-name="Path 3427" d="M2054.854,351.056c.529.505,5.525,4.07,5.57,3.816a8.327,8.327,0,0,0-.033-2.512,2.616,2.616,0,0,1,0-1.251.292.292,0,0,1,0-.053Z" transform="translate(-1973.44 -333.787)" opacity="0.5" fill="url(#linear-gradient-6)" style="mix-blend-mode: multiply;isolation: isolate"/>
  <path id="Path_3428" data-name="Path 3428" d="M2056.714,352.33s2.206.2,2.853-.232.613-.946.265-1.211a5.829,5.829,0,0,0-5.523-.481,3.983,3.983,0,0,0,1.067,1.089C2056.057,351.954,2056.714,352.33,2056.714,352.33Z" transform="translate(-1973.44 -333.787)" fill="#fff"/>
  <path id="Path_3429" data-name="Path 3429" d="M2057.35,349.965a3.327,3.327,0,0,1,1.515,1.007c.535.712-.809,1.412-1.179,1.4s-.972-.045-.972-.045a10.254,10.254,0,0,1-1.9-1.308c-.444-.506-.9-.581.147-.925A3.65,3.65,0,0,1,2057.35,349.965Z" transform="translate(-1973.44 -333.787)" fill="#8d5b43"/>
  <path id="Path_3430" data-name="Path 3430" d="M2055.049,350.13s1.322-.21,1.82.432a.961.961,0,0,1-.679,1.454,9.8,9.8,0,0,1-1.488-1.1A.514.514,0,0,1,2055.049,350.13Z" transform="translate(-1973.44 -333.787)" fill="#211f23"/>
  <path id="Path_3431" data-name="Path 3431" d="M2058.223,351.389c-.031.139-.447.164-.929.057s-.848-.309-.817-.448.448-.164.93-.057S2058.254,351.249,2058.223,351.389Z" transform="translate(-1973.44 -333.787)" fill="#fcfcfa"/>
  <path id="Path_3432" data-name="Path 3432" d="M2054.331,350.44a5.81,5.81,0,0,1,5.5.447c.348.265.381.78-.265,1.211s-2.853.232-2.853.232l.325.214s1.825.066,2.189,0a1.406,1.406,0,0,0,.985-.877c.117-.432.965-.664.965-.664s-3.512-2.412-7.045-.875Z" transform="translate(-1973.44 -333.787)" fill="#231f20"/>
  <path id="Path_3433" data-name="Path 3433" d="M2056.8,352.376" transform="translate(-1973.44 -333.787)" fill="#f6cb9d"/>
  <path id="Path_3434" data-name="Path 3434" d="M2054.47,440.361c-1.2-.683-2.39-1.381-3.518-2.131-.287-.182-.562-.375-.835-.568s-.554-.378-.81-.582-.528-.393-.774-.6l-.721-.615-1.682-1.435-1.118,1.867c-.692,1.155-1.415,2.329-2.145,3.484s-1.477,2.305-2.225,3.456l-.916,1.361q1.506-.185,2.985-.457c.856-.791,1.715-1.582,2.558-2.391.6-.57,1.193-1.143,1.785-1.722.158.068.317.135.475.2.34.154.683.277,1.024.41s.681.264,1.022.378c.659.237,1.319.452,1.979.657q1.536-.584,3.021-1.264C2054.541,440.4,2054.5,440.38,2054.47,440.361Z" transform="translate(-1973.44 -333.787)" fill="#fffeba"/>
  <path id="Path_3435" data-name="Path 3435" d="M2040.694,413.489a97.545,97.545,0,0,1-14.11,20.486c-1.591,1.919-3.536,3.583-4.98,5.645-.752,1.124-1.534,2.235-2.33,3.338.274.079.547.16.824.234a36.285,36.285,0,0,0,2.433-3.473c7.214-7.843,14.035-16.3,18.251-26.188C2040.81,413.475,2040.718,413.435,2040.694,413.489Z" transform="translate(-1973.44 -333.787)" fill="#af8864"/>
  <rect id="frame" width="120" height="120" fill="none"/>
</svg>
