<svg id="Icon_-_Customise" data-name="Icon - Customise" xmlns="http://www.w3.org/2000/svg" width="120" height="120.005" viewBox="0 0 120 120.005">
  <rect id="frame" width="120" height="120" fill="none"/>
  <g id="Icon_-_Skills" data-name="Icon - Skills" transform="translate(0 0.005)">
    <rect id="frame-2" data-name="frame" width="120" height="120" fill="none"/>
    <g id="skills" transform="translate(0 0.005)">
      <path id="Path_3009" data-name="Path 3009" d="M110.248,35,95.376,27.8l.348-1.432a8.183,8.183,0,0,0-6.015-9.886l-45.6-11.1a8.182,8.182,0,0,0-9.885,6.015L15.983,86.307A8.183,8.183,0,0,0,22,96.193l2.87.7a8.123,8.123,0,0,0,2.405,1.78l42.243,20.453a8.183,8.183,0,0,0,10.931-3.8l33.6-69.4a8.183,8.183,0,0,0-3.8-10.93" opacity="0.3"/>
      <path id="Path_3010" data-name="Path 3010" d="M66.412,103.6,21.035,92.553a8.3,8.3,0,0,1-6.1-10.026L33.119,7.837a8.3,8.3,0,0,1,10.025-6.1L88.522,12.785a8.3,8.3,0,0,1,6.1,10.025L76.438,97.5a8.3,8.3,0,0,1-10.026,6.1" fill="#ccc"/>
      <path id="Path_3011" data-name="Path 3011" d="M67.621,101a6.853,6.853,0,0,1-1.615-.194L20.629,89.753a6.807,6.807,0,0,1-5-8.214L33.816,6.85a6.777,6.777,0,0,1,6.6-5.192,6.847,6.847,0,0,1,1.615.194L87.406,12.9a6.806,6.806,0,0,1,5,8.213L74.221,95.8a6.779,6.779,0,0,1-6.6,5.191" fill="#662d91"/>
      <path id="Path_3012" data-name="Path 3012" d="M40.416,3.158h0a5.333,5.333,0,0,1,1.259.152L87.052,14.358a5.3,5.3,0,0,1,3.895,6.4L72.763,95.449a5.291,5.291,0,0,1-6.4,3.893L20.985,88.3a5.3,5.3,0,0,1-3.9-6.4L35.274,7.2a5.282,5.282,0,0,1,5.142-4.047m0-3a8.3,8.3,0,0,0-8.056,6.337L14.175,81.185a8.3,8.3,0,0,0,6.1,10.026l45.377,11.046a8.292,8.292,0,0,0,10.026-6.1l18.184-74.69a8.3,8.3,0,0,0-6.1-10.025L42.385.4a8.353,8.353,0,0,0-1.97-.237" fill="#421866"/>
      <path id="Path_3013" data-name="Path 3013" d="M40.416,2.158h0a6.317,6.317,0,0,1,1.495.181L87.289,13.386A6.3,6.3,0,0,1,91.918,21L73.735,95.685a6.288,6.288,0,0,1-7.61,4.629L20.748,89.268a6.3,6.3,0,0,1-4.63-7.61L34.3,6.968a6.281,6.281,0,0,1,6.114-4.81m0-2a8.3,8.3,0,0,0-8.056,6.337L14.175,81.185a8.3,8.3,0,0,0,6.1,10.026l45.377,11.046a8.287,8.287,0,0,0,10.026-6.1L93.861,21.469a8.3,8.3,0,0,0-6.1-10.026L42.385.4a8.353,8.353,0,0,0-1.97-.237" fill="#fff"/>
      <path id="Path_3014" data-name="Path 3014" d="M54.295,29.626,43.589,27.02a4.288,4.288,0,0,1,2.029-8.333l10.706,2.606a4.288,4.288,0,1,1-2.029,8.333" opacity="0.3"/>
      <path id="Path_3015" data-name="Path 3015" d="M53.828,28.859,43.122,26.253a4.288,4.288,0,0,1,2.029-8.333l10.706,2.606a4.288,4.288,0,1,1-2.029,8.333" fill="#29abe2"/>
      <path id="Path_3016" data-name="Path 3016" d="M44.6,22.853a4.288,4.288,0,1,1-3.152-5.181A4.288,4.288,0,0,1,44.6,22.853" opacity="0.3"/>
      <path id="Path_3017" data-name="Path 3017" d="M44.137,22.086a4.288,4.288,0,1,1-3.152-5.181,4.288,4.288,0,0,1,3.152,5.181" fill="#29abe2"/>
      <path id="Path_3018" data-name="Path 3018" d="M51.66,40.447,40.954,37.841a4.288,4.288,0,1,1,2.029-8.333l10.706,2.606a4.288,4.288,0,0,1-2.029,8.333" opacity="0.3"/>
      <path id="Path_3019" data-name="Path 3019" d="M51.194,39.68,40.488,37.074a4.288,4.288,0,0,1,2.029-8.333l10.706,2.606a4.288,4.288,0,1,1-2.029,8.333" fill="red"/>
      <path id="Path_3020" data-name="Path 3020" d="M41.969,33.674a4.288,4.288,0,1,1-3.152-5.181,4.288,4.288,0,0,1,3.152,5.181" opacity="0.3"/>
      <path id="Path_3021" data-name="Path 3021" d="M41.5,32.907a4.288,4.288,0,1,1-3.152-5.181A4.288,4.288,0,0,1,41.5,32.907" fill="red"/>
      <path id="Path_3022" data-name="Path 3022" d="M49.026,51.269,38.319,48.663a4.288,4.288,0,1,1,2.029-8.333l10.707,2.606a4.288,4.288,0,0,1-2.029,8.333" opacity="0.3"/>
      <path id="Path_3023" data-name="Path 3023" d="M48.559,50.5,37.853,47.9a4.288,4.288,0,1,1,2.029-8.333l10.706,2.606A4.288,4.288,0,1,1,48.559,50.5" fill="#a67c52"/>
      <path id="Path_3024" data-name="Path 3024" d="M39.334,44.5a4.288,4.288,0,1,1-3.152-5.181A4.288,4.288,0,0,1,39.334,44.5" opacity="0.3"/>
      <path id="Path_3025" data-name="Path 3025" d="M38.868,43.729a4.288,4.288,0,1,1-3.152-5.181,4.288,4.288,0,0,1,3.152,5.181" fill="#a67c52"/>
      <path id="Path_3026" data-name="Path 3026" d="M68.336,115.406,26.3,95.055A8.3,8.3,0,0,1,22.449,83.97l33.5-69.188a8.3,8.3,0,0,1,11.085-3.853l42.035,20.352a8.3,8.3,0,0,1,3.852,11.085l-33.5,69.188a8.3,8.3,0,0,1-11.085,3.852" fill="#ccc"/>
      <path id="Path_3027" data-name="Path 3027" d="M71.486,113.266a6.719,6.719,0,0,1-2.956-.682L26.5,92.233a6.8,6.8,0,0,1-3.156-9.082l33.5-69.188a6.84,6.84,0,0,1,6.125-3.838,6.726,6.726,0,0,1,2.957.682l42.034,20.352a6.8,6.8,0,0,1,3.156,9.081l-33.5,69.188a6.844,6.844,0,0,1-6.125,3.838" fill="#662d91"/>
      <path id="Path_3028" data-name="Path 3028" d="M62.963,11.624h0a5.251,5.251,0,0,1,2.3.531L107.3,32.508a5.3,5.3,0,0,1,2.459,7.077l-33.5,69.188a5.29,5.29,0,0,1-7.077,2.46L27.149,90.881a5.3,5.3,0,0,1-2.46-7.078l33.5-69.188a5.266,5.266,0,0,1,4.775-2.991m0-3a8.3,8.3,0,0,0-7.475,4.684L21.989,82.5a8.3,8.3,0,0,0,3.853,11.085l42.034,20.352a8.291,8.291,0,0,0,11.085-3.852l33.5-69.188a8.3,8.3,0,0,0-3.853-11.086L66.573,9.455a8.265,8.265,0,0,0-3.61-.831" fill="#421866"/>
      <path id="Path_3029" data-name="Path 3029" d="M62.963,10.624h0a6.239,6.239,0,0,1,2.739.631l42.034,20.353a6.3,6.3,0,0,1,2.924,8.413l-33.5,69.188a6.29,6.29,0,0,1-8.413,2.924L26.713,91.781a6.305,6.305,0,0,1-2.924-8.413l33.5-69.188a6.258,6.258,0,0,1,5.675-3.556m0-2a8.3,8.3,0,0,0-7.475,4.684L21.989,82.5a8.3,8.3,0,0,0,3.853,11.085l42.034,20.352a8.291,8.291,0,0,0,11.085-3.852l33.5-69.188a8.3,8.3,0,0,0-3.853-11.086L66.573,9.455a8.265,8.265,0,0,0-3.61-.831" fill="#fff"/>
      <path id="Path_3030" data-name="Path 3030" d="M72.063,40.539l-9.917-4.8a4.288,4.288,0,1,1,3.737-7.719l9.917,4.8a4.288,4.288,0,0,1-3.737,7.719" opacity="0.3"/>
      <path id="Path_3031" data-name="Path 3031" d="M71.769,39.691l-9.917-4.8a4.288,4.288,0,1,1,3.737-7.719l9.918,4.8a4.288,4.288,0,0,1-3.738,7.719" fill="#29abe2"/>
      <path id="Path_3032" data-name="Path 3032" d="M64.015,31.877a4.288,4.288,0,1,1-1.991-5.728,4.288,4.288,0,0,1,1.991,5.728" opacity="0.3"/>
      <path id="Path_3033" data-name="Path 3033" d="M63.72,31.03A4.288,4.288,0,1,1,61.729,25.3,4.288,4.288,0,0,1,63.72,31.03" fill="#29abe2"/>
      <path id="Path_3034" data-name="Path 3034" d="M95.168,51.725l-9.917-4.8A4.288,4.288,0,0,1,88.988,39.2l9.918,4.8a4.288,4.288,0,0,1-3.738,7.719" opacity="0.3"/>
      <path id="Path_3035" data-name="Path 3035" d="M94.873,50.877l-9.917-4.8a4.288,4.288,0,1,1,3.737-7.719l9.917,4.8a4.288,4.288,0,0,1-3.737,7.719" fill="#fbb03b"/>
      <path id="Path_3036" data-name="Path 3036" d="M87.119,43.064a4.288,4.288,0,1,1-1.991-5.728,4.288,4.288,0,0,1,1.991,5.728" opacity="0.3"/>
      <path id="Path_3037" data-name="Path 3037" d="M86.825,42.216a4.289,4.289,0,1,1-1.992-5.728,4.289,4.289,0,0,1,1.992,5.728" fill="#fbb03b"/>
      <path id="Path_3038" data-name="Path 3038" d="M67.21,50.563l-9.917-4.8a4.288,4.288,0,1,1,3.737-7.719l9.918,4.8a4.288,4.288,0,0,1-3.738,7.719" opacity="0.3"/>
      <path id="Path_3039" data-name="Path 3039" d="M66.915,49.715,57,44.913a4.288,4.288,0,1,1,3.737-7.719L70.653,42a4.288,4.288,0,0,1-3.738,7.719" fill="red"/>
      <path id="Path_3040" data-name="Path 3040" d="M59.161,41.9a4.288,4.288,0,1,1-1.991-5.728A4.288,4.288,0,0,1,59.161,41.9" opacity="0.3"/>
      <path id="Path_3041" data-name="Path 3041" d="M58.867,41.054a4.288,4.288,0,1,1-1.991-5.728,4.288,4.288,0,0,1,1.991,5.728" fill="red"/>
      <path id="Path_3042" data-name="Path 3042" d="M90.314,61.75l-9.917-4.8a4.288,4.288,0,1,1,3.737-7.719l9.917,4.8a4.288,4.288,0,0,1-3.737,7.719" opacity="0.3"/>
      <path id="Path_3043" data-name="Path 3043" d="M90.019,60.9,80.1,56.1a4.288,4.288,0,0,1,3.737-7.719l9.918,4.8A4.288,4.288,0,0,1,90.019,60.9" fill="#ed1e79"/>
      <path id="Path_3044" data-name="Path 3044" d="M82.266,53.088a4.288,4.288,0,1,1-1.991-5.728,4.288,4.288,0,0,1,1.991,5.728" opacity="0.3"/>
      <path id="Path_3045" data-name="Path 3045" d="M81.971,52.241a4.288,4.288,0,1,1-1.991-5.728,4.288,4.288,0,0,1,1.991,5.728" fill="#ed1e79"/>
      <path id="Path_3046" data-name="Path 3046" d="M62.356,60.587l-9.917-4.8a4.288,4.288,0,0,1,3.737-7.719l9.918,4.8a4.288,4.288,0,0,1-3.738,7.719" opacity="0.3"/>
      <path id="Path_3047" data-name="Path 3047" d="M62.062,59.74l-9.917-4.8a4.288,4.288,0,1,1,3.737-7.719l9.917,4.8a4.288,4.288,0,0,1-3.737,7.719" fill="#a67c52"/>
      <path id="Path_3048" data-name="Path 3048" d="M54.308,51.926A4.288,4.288,0,1,1,52.317,46.2a4.288,4.288,0,0,1,1.991,5.728" opacity="0.3"/>
      <path id="Path_3049" data-name="Path 3049" d="M54.013,51.078a4.288,4.288,0,1,1-1.991-5.728,4.288,4.288,0,0,1,1.991,5.728" fill="#a67c52"/>
      <path id="Path_3050" data-name="Path 3050" d="M85.46,71.774l-9.917-4.8a4.288,4.288,0,0,1,3.737-7.719l9.918,4.8a4.288,4.288,0,0,1-3.738,7.719" opacity="0.3"/>
      <path id="Path_3051" data-name="Path 3051" d="M85.166,70.926l-9.917-4.8A4.288,4.288,0,0,1,78.986,58.4l9.918,4.8a4.288,4.288,0,0,1-3.738,7.719" fill="#39b54a"/>
      <path id="Path_3052" data-name="Path 3052" d="M77.412,63.113a4.288,4.288,0,1,1-1.991-5.728,4.288,4.288,0,0,1,1.991,5.728" opacity="0.3"/>
      <path id="Path_3053" data-name="Path 3053" d="M77.117,62.265a4.288,4.288,0,1,1-1.991-5.728,4.288,4.288,0,0,1,1.991,5.728" fill="#39b54a"/>
      <path id="Path_3054" data-name="Path 3054" d="M60.3,94.295l-9.917-4.8a4.288,4.288,0,1,1,3.737-7.719l9.918,4.8A4.288,4.288,0,0,1,60.3,94.295" opacity="0.3"/>
      <path id="Path_3055" data-name="Path 3055" d="M60,93.448l-9.917-4.8a4.288,4.288,0,1,1,3.737-7.719l9.918,4.8A4.288,4.288,0,0,1,60,93.448" fill="#8cc63f"/>
      <path id="Path_3056" data-name="Path 3056" d="M52.247,85.634a4.288,4.288,0,1,1-1.991-5.728,4.288,4.288,0,0,1,1.991,5.728" opacity="0.3"/>
      <path id="Path_3057" data-name="Path 3057" d="M51.953,84.786a4.288,4.288,0,1,1-1.991-5.728,4.288,4.288,0,0,1,1.991,5.728" fill="#8cc63f"/>
    </g>
  </g>
  <g id="Shadow" transform="translate(12.697 60.318)" style="mix-blend-mode: multiply;isolation: isolate">
    <path id="Path_286" data-name="Path 286" d="M-798.556,2652.2l32.075,2.59s5.777-.1,7.67,3.088,2.291,9.363,2.291,10.26v24.4s-.2,3.985-3.885,5.18-11.256,3.885-11.256,3.885a26.233,26.233,0,0,1-6.475-.1c-3.586-.5-29.285-5.678-29.285-5.678s-2.391.6-2.391-3.984v-16.834s-2.59-.4-2.69-2.491.1-7.57.1-7.57a11.581,11.581,0,0,1,5.08-9.264C-802.042,2652-798.556,2652.2-798.556,2652.2Z" transform="translate(812.53 -2646.167)" fill="rgba(0,0,0,0.3)"/>
    <path id="Path_295" data-name="Path 295" d="M-795.652,2653.935l3.784-.811.194-4.4,12.4.7.772,3.283,1.2,2.781,3.979-1.247-.233-3.311s-.232-3.669-3.708-3.978-11.547-.7-11.547-.7-4.867-.463-7.068.811S-795.652,2653.935-795.652,2653.935Z" transform="translate(812.53 -2646.167)" fill="rgba(0,0,0,0.3)"/>
    <path id="Path_296" data-name="Path 296" d="M-798.2,2653.626s-1.275-6.991,3.939-6.8,12.938.7,12.938.7c2.106.008,3.775.786,3.9,3.862l.116,4.094-2.549-.116.027-3.384c-.056-1.418-.751-2.113-2.447-2.224-2.318-.152-11.947-.456-11.947-.456s-1.429-.077-1.468,1.661.039,2.974.039,2.974Z" transform="translate(812.53 -2646.167)" fill="rgba(0,0,0,0.3)"/>
    <path id="Path_297" data-name="Path 297" d="M-790.451,2677.989s-.474,7.115-.521,10.531-.048,5.645-.048,5.645.285,4.317-1.8,6.973l-6.215-1.091-1.755-1.138a5.219,5.219,0,0,0,1-3.274c.1-2.324.57-4.506-.237-5.455a11.124,11.124,0,0,1-1.328-3.653s.047-4.506.806-5.313a3.036,3.036,0,0,0,.712-1.992s.379-2.277.522-2.609S-790.451,2677.989-790.451,2677.989Z" transform="translate(812.53 -2646.167)" fill="rgba(0,0,0,0.3)"/>
  </g>
  <g id="Icon" transform="translate(12.697 57.502)">
    <g id="Group_142" data-name="Group 142">
      <path id="Path_301" data-name="Path 301" d="M-798.556,2649.379l32.075,2.59s5.777-.1,7.67,3.088,2.291,9.364,2.291,10.26v24.405s-.2,3.984-3.885,5.179-11.256,3.885-11.256,3.885a26.193,26.193,0,0,1-6.475-.1c-3.586-.5-29.285-5.678-29.285-5.678s-2.391.6-2.391-3.985V2672.19s-2.59-.4-2.69-2.49.1-7.571.1-7.571a11.578,11.578,0,0,1,5.08-9.263C-802.042,2649.18-798.556,2649.379-798.556,2649.379Z" transform="translate(812.53 -2643.35)" fill="#4b8bbd"/>
      <path id="Path_302" data-name="Path 302" d="M-777.239,2673.386l2.47.368,0-8.268-2.776-.742S-779.076,2672.74-777.239,2673.386Z" transform="translate(812.53 -2643.35)" fill="#23617c"/>
      <path id="Path_303" data-name="Path 303" d="M-774.773,2665.486l-3.716-.282,3.312-8.644,11.229-2.02.686,1.091-3.594,1.09-4.969,3.292-2.14,2.444A9.249,9.249,0,0,0-774.773,2665.486Z" transform="translate(812.53 -2643.35)" fill="#23617c"/>
      <path id="Path_304" data-name="Path 304" d="M-786.512,2681.339a3.8,3.8,0,0,0-3.368-3.889c-3.511-.522-7.638-.9-7.638-.9s-3.083.332-3.13,3.179,0,7.922,0,7.922a3.55,3.55,0,0,0,2.8,3.32c2.7.522,7.495,1.328,7.495,1.328s3.795-.189,3.843-3.036S-786.512,2681.339-786.512,2681.339Zm-3.131,7.116c0,.474-.854.569-.854.569l-6.831-1.043c-2.324-.665-.711-8.254-.711-8.254s5.265.474,6.688.569a1.811,1.811,0,0,1,1.708,1.281Z" transform="translate(812.53 -2643.35)" fill="#397b9f"/>
      <path id="Path_305" data-name="Path 305" d="M-786.621,2680.672a3.872,3.872,0,0,0-3.432-3.965c-3.578-.531-7.784-.918-7.784-.918s-3.142.338-3.191,3.239,0,8.073,0,8.073a3.62,3.62,0,0,0,2.853,3.385c2.755.531,7.638,1.353,7.638,1.353s3.868-.193,3.916-3.094S-786.621,2680.672-786.621,2680.672Zm-3.191,7.251c0,.484-.87.58-.87.58l-6.962-1.063c-2.368-.677-.725-8.412-.725-8.412s5.367.483,6.817.58a1.845,1.845,0,0,1,1.74,1.305Z" transform="translate(812.53 -2643.35)" fill="#c1920e"/>
      <path id="Path_306" data-name="Path 306" d="M-756.52,2689.722v-24.405c0-.9-.4-7.072-2.291-10.26a4.365,4.365,0,0,0-.6-.783l-7.27.982s-7.869,1.793-8.068,9.165,0,31.875,0,31.875-.2,2.689,3.088,2.49c0,0,7.57-2.689,11.256-3.885S-756.52,2689.722-756.52,2689.722Z" transform="translate(812.53 -2643.35)" fill="#397b9f"/>
      <path id="Path_307" data-name="Path 307" d="M-759.411,2654.274c-2.288-2.386-7.07-2.3-7.07-2.3l-6.847-.553-4.808,1.748-6.674,11.854s-1.295,10.758,2.69,10.957,4.881-2.589,4.881-2.589.2-4.881.2-6.176a12.412,12.412,0,0,1,2.988-8.268c2.789-2.988,7.371-3.686,7.371-3.686Z" transform="translate(812.53 -2643.35)" fill="#397b9f"/>
      <path id="Path_308" data-name="Path 308" d="M-766.481,2651.969l-32.075-2.59s-3.486-.2-8.766,3.487a11.578,11.578,0,0,0-5.08,9.263s-.2,5.479-.1,7.571,2.69,2.49,2.69,2.49,24.205,3.586,26.7,3.785a2.418,2.418,0,0,0,2.789-1.992s.3-7.471.3-8.467.9-4.482,3.486-8.367c2.378-3.567,9.707-4.95,10.89-5.152C-766.162,2651.964-766.481,2651.969-766.481,2651.969Z" transform="translate(812.53 -2643.35)" fill="#4f9ed3"/>
      <path id="Path_309" data-name="Path 309" d="M-766.481,2651.969l-32.075-2.59s-3.486-.2-8.766,3.487a11.778,11.778,0,0,0-3.988,4.681l32.458,3.857h0a26.262,26.262,0,0,1,2.309-4.254c2.378-3.567,9.707-4.95,10.89-5.152C-766.162,2651.964-766.481,2651.969-766.481,2651.969Z" transform="translate(812.53 -2643.35)" fill="#57b6ea"/>
      <path id="Path_310" data-name="Path 310" d="M-795.652,2651.118l3.784-.811.194-4.4,12.4.7.772,3.283,1.2,2.781,3.979-1.247-.233-3.31s-.232-3.669-3.708-3.978-11.547-.7-11.547-.7-4.867-.463-7.068.812S-795.652,2651.118-795.652,2651.118Z" transform="translate(812.53 -2643.35)" fill="#b24e2c"/>
      <path id="Path_311" data-name="Path 311" d="M-798.2,2650.809s-1.275-6.99,3.939-6.8,12.938.7,12.938.7c2.106.008,3.775.786,3.9,3.862l.116,4.094-2.549-.116.027-3.383c-.056-1.418-.751-2.113-2.447-2.225-2.318-.152-11.947-.455-11.947-.455s-1.429-.078-1.468,1.66.039,2.974.039,2.974Z" transform="translate(812.53 -2643.35)" fill="#943d22"/>
      <path id="Path_312" data-name="Path 312" d="M-790.451,2675.172s-.474,7.116-.521,10.531-.048,5.645-.048,5.645.285,4.317-1.8,6.973l-6.215-1.091-1.755-1.138a5.218,5.218,0,0,0,1-3.273c.1-2.325.57-4.507-.237-5.456a11.114,11.114,0,0,1-1.328-3.652s.047-4.507.806-5.313a3.039,3.039,0,0,0,.712-1.993s.379-2.277.522-2.609S-790.451,2675.172-790.451,2675.172Z" transform="translate(812.53 -2643.35)" fill="#993d20"/>
      <path id="Path_313" data-name="Path 313" d="M-800.792,2696.092l6.12,1.186c1.043-.9,1.612-4.6,1.66-5.123s-.285-3.985-.285-3.985a40.991,40.991,0,0,1-.474-4.364,15.185,15.185,0,0,1,.522-4.27l.332-2.941.236-1.846c-2.6-.482-6.545-1.175-6.64-.953-.143.332-.522,2.609-.522,2.609a3.039,3.039,0,0,1-.712,1.993c-.759.806-.806,5.313-.806,5.313a11.114,11.114,0,0,0,1.328,3.652c.807.949.332,3.131.237,5.456A5.218,5.218,0,0,1-800.792,2696.092Z" transform="translate(812.53 -2643.35)" fill="#b24e2c"/>
      <path id="Path_314" data-name="Path 314" d="M-788.411,2680.58a3.8,3.8,0,0,0-3.368-3.89c-3.51-.522-7.637-.9-7.637-.9s-3.084.332-3.131,3.178,0,7.922,0,7.922a3.552,3.552,0,0,0,2.8,3.321c2.7.522,7.495,1.328,7.495,1.328s3.795-.19,3.842-3.036S-788.411,2680.58-788.411,2680.58Zm-3.131,7.116c0,.474-.853.569-.853.569l-6.831-1.044c-2.325-.664-.712-8.254-.712-8.254s5.266.474,6.689.569a1.81,1.81,0,0,1,1.707,1.281Z" transform="translate(812.53 -2643.35)" fill="#f9cd41"/>
      <path id="Path_315" data-name="Path 315" d="M-768.783,2658.368a5.015,5.015,0,0,1,1.142-.5,14.752,14.752,0,0,1,7.005-.764,4.663,4.663,0,0,0-3.95-2.135l-2.1.283s-7.869,1.793-8.068,9.165c-.007.267-.014.561-.02.872A12.1,12.1,0,0,1-768.783,2658.368Z" transform="translate(812.53 -2643.35)" fill="#23617c"/>
    </g>
  </g>
</svg>
