<svg id="dens" xmlns="http://www.w3.org/2000/svg" xmlns:xlink="http://www.w3.org/1999/xlink" width="70" height="70" viewBox="0 0 70 70">
  <defs>
    <clipPath id="clip-path">
      <rect id="Rectangle_5118" data-name="Rectangle 5118" width="70" height="70" fill="none"/>
    </clipPath>
    <clipPath id="clip-path-3">
      <rect id="Rectangle_5107" data-name="Rectangle 5107" width="58.658" height="31.602" transform="translate(5.671 37.424)" fill="none"/>
    </clipPath>
    <clipPath id="clip-path-4">
      <rect id="Rectangle_5108" data-name="Rectangle 5108" width="58.658" height="31.602" transform="translate(5.671 32.846)" fill="none"/>
    </clipPath>
    <clipPath id="clip-path-5">
      <rect id="Rectangle_5109" data-name="Rectangle 5109" width="4.938" height="7.636" transform="translate(31.943 4.459)" fill="none"/>
    </clipPath>
    <clipPath id="clip-path-6">
      <rect id="Rectangle_5110" data-name="Rectangle 5110" width="3.306" height="5.113" transform="translate(54.128 19.023)" fill="none"/>
    </clipPath>
    <clipPath id="clip-path-7">
      <rect id="Rectangle_5111" data-name="Rectangle 5111" width="2.967" height="1.44" transform="translate(44.435 37.041)" fill="none"/>
    </clipPath>
    <clipPath id="clip-path-8">
      <rect id="Rectangle_5112" data-name="Rectangle 5112" width="4.708" height="21.917" transform="translate(51.615 27.404)" fill="none"/>
    </clipPath>
    <clipPath id="clip-path-9">
      <rect id="Rectangle_5113" data-name="Rectangle 5113" width="3.219" height="4.979" transform="translate(8.711 19.732)" fill="none"/>
    </clipPath>
    <clipPath id="clip-path-10">
      <rect id="Rectangle_5114" data-name="Rectangle 5114" width="25.941" height="5.044" transform="translate(28.019 50.598)" fill="none"/>
    </clipPath>
    <clipPath id="clip-path-11">
      <rect id="Rectangle_5115" data-name="Rectangle 5115" width="3.447" height="1.469" transform="translate(29.445 46.444)" fill="none"/>
    </clipPath>
    <clipPath id="clip-path-12">
      <rect id="Rectangle_5116" data-name="Rectangle 5116" width="2.141" height="3.311" transform="translate(33.328 32.339)" fill="none"/>
    </clipPath>
  </defs>
  <rect id="frame" width="70" height="70" fill="none"/>
  <g id="Group_14402" data-name="Group 14402">
    <g id="Group_14401" data-name="Group 14401" clip-path="url(#clip-path)">
      <g id="Group_14400" data-name="Group 14400">
        <g id="Group_14399" data-name="Group 14399" clip-path="url(#clip-path)">
          <g id="Group_14371" data-name="Group 14371" opacity="0.3">
            <g id="Group_14370" data-name="Group 14370">
              <g id="Group_14369" data-name="Group 14369" clip-path="url(#clip-path-3)">
                <path id="Path_12138" data-name="Path 12138" d="M35,64.48A29.331,29.331,0,0,1,5.758,37.424q-.087,1.125-.087,2.273a29.329,29.329,0,1,0,58.658,0q0-1.147-.087-2.273A29.331,29.331,0,0,1,35,64.48"/>
              </g>
            </g>
          </g>
          <path id="Path_12139" data-name="Path 12139" d="M35,5.352A29.331,29.331,0,0,1,64.242,32.408q.087-1.125.087-2.273a29.329,29.329,0,0,0-58.658,0q0,1.147.087,2.273A29.331,29.331,0,0,1,35,5.352" fill="#fff"/>
          <path id="Path_12140" data-name="Path 12140" d="M64.329,35.119q0-.6-.024-1.193l-.206.337a29.248,29.248,0,0,1-8.36,17.046v4.549a29.241,29.241,0,0,0,8.59-20.739" fill="#e4794e"/>
          <path id="Path_12141" data-name="Path 12141" d="M14.335,51.383A29.236,29.236,0,0,1,5.758,32.846q-.087,1.125-.087,2.273A29.235,29.235,0,0,0,14.335,55.93Z" fill="#1f7182"/>
          <path id="Path_12142" data-name="Path 12142" d="M5.846,33.774c.016.15.032.3.051.45-.019-.149-.035-.3-.051-.45" fill="#0f3d6d"/>
          <path id="Path_12143" data-name="Path 12143" d="M5.726,36.9c.01.163.019.325.031.486-.012-.161-.021-.323-.031-.486" fill="#0f3d6d"/>
          <path id="Path_12144" data-name="Path 12144" d="M5.689,36.11c.006.175.011.349.02.523-.009-.174-.014-.348-.02-.523" fill="#0f3d6d"/>
          <path id="Path_12145" data-name="Path 12145" d="M5.671,35.119q0,.381.01.759-.011-.378-.01-.759" fill="#0f3d6d"/>
          <path id="Path_12146" data-name="Path 12146" d="M6.155,35.9c.022.118.043.235.066.352-.023-.117-.044-.234-.066-.352" fill="#0f3d6d"/>
          <path id="Path_12147" data-name="Path 12147" d="M6.037,35.209c.02.124.039.248.06.372-.021-.124-.04-.248-.06-.372" fill="#0f3d6d"/>
          <path id="Path_12148" data-name="Path 12148" d="M5.935,34.506c.017.133.035.267.055.4-.02-.132-.038-.266-.055-.4" fill="#0f3d6d"/>
          <path id="Path_12149" data-name="Path 12149" d="M6.288,36.579c.023.112.046.224.071.335-.025-.111-.048-.223-.071-.335" fill="#0f3d6d"/>
          <path id="Path_12150" data-name="Path 12150" d="M6.271,41.049c-.035-.172-.067-.344-.1-.517.033.173.065.345.1.517" fill="#0f3d6d"/>
          <path id="Path_12151" data-name="Path 12151" d="M6.427,41.764c-.041-.174-.078-.351-.115-.528.037.177.074.354.115.528" fill="#0f3d6d"/>
          <path id="Path_12152" data-name="Path 12152" d="M55.739,51.312v0a29.323,29.323,0,0,1-41.4.074V55.93a29.489,29.489,0,0,1-4.743-6.152,29.335,29.335,0,0,0,46.147,6.08Z" fill="#0f3d6d"/>
          <path id="Path_12153" data-name="Path 12153" d="M6.132,40.327c-.03-.167-.057-.336-.084-.5.027.168.054.337.084.5" fill="#0f3d6d"/>
          <path id="Path_12154" data-name="Path 12154" d="M6.011,39.6c-.025-.163-.047-.327-.069-.491.022.164.044.328.069.491" fill="#0f3d6d"/>
          <path id="Path_12155" data-name="Path 12155" d="M5.823,38.126c-.016-.158-.029-.318-.043-.477.014.159.027.319.043.477" fill="#0f3d6d"/>
          <path id="Path_12156" data-name="Path 12156" d="M5.908,38.865c-.02-.161-.038-.323-.056-.484.018.161.036.323.056.484" fill="#0f3d6d"/>
          <path id="Path_12157" data-name="Path 12157" d="M7.4,40.505c.029.082.059.163.09.245-.031-.082-.061-.163-.09-.245" fill="#0f3d6d"/>
          <path id="Path_12158" data-name="Path 12158" d="M8.142,42.372c.026.059.053.119.08.178-.027-.059-.054-.119-.08-.178" fill="#0f3d6d"/>
          <path id="Path_12159" data-name="Path 12159" d="M8.707,43.58l.052.1-.052-.1" fill="#0f3d6d"/>
          <path id="Path_12160" data-name="Path 12160" d="M8.418,42.98l.069.145-.069-.145" fill="#0f3d6d"/>
          <path id="Path_12161" data-name="Path 12161" d="M9.009,44.172l.021.04-.021-.04" fill="#0f3d6d"/>
          <path id="Path_12162" data-name="Path 12162" d="M64.1,34.264c.069-.114.138-.226.206-.337q.012.294.018.589-.017-.84-.081-1.669-.079,1.044-.233,2.068.049-.324.09-.651" fill="#0f3d6d"/>
          <path id="Path_12163" data-name="Path 12163" d="M6.436,37.25c.025.107.05.214.076.321-.026-.107-.051-.214-.076-.321" fill="#0f3d6d"/>
          <path id="Path_12164" data-name="Path 12164" d="M5.758,32.846c.018.231.038.462.061.691-.023-.229-.043-.46-.061-.691" fill="#0f3d6d"/>
          <path id="Path_12165" data-name="Path 12165" d="M64.323,34.522q.006.3.006.6,0-.3-.006-.6" fill="#0f3d6d"/>
          <path id="Path_12166" data-name="Path 12166" d="M6.969,39.223l.087.278-.087-.278" fill="#0f3d6d"/>
          <path id="Path_12167" data-name="Path 12167" d="M6.777,38.573l.084.293-.084-.293" fill="#0f3d6d"/>
          <path id="Path_12168" data-name="Path 12168" d="M6.6,37.915c.025.1.053.2.08.307-.027-.1-.055-.205-.08-.307" fill="#0f3d6d"/>
          <path id="Path_12169" data-name="Path 12169" d="M7.176,39.868c.029.088.059.175.089.262-.03-.087-.06-.174-.089-.262" fill="#0f3d6d"/>
          <path id="Path_12170" data-name="Path 12170" d="M7.632,41.134c.029.076.059.151.089.226-.03-.075-.06-.15-.089-.226" fill="#0f3d6d"/>
          <path id="Path_12171" data-name="Path 12171" d="M7.88,41.757c.028.068.057.136.086.2-.029-.068-.058-.136-.086-.2" fill="#0f3d6d"/>
          <path id="Path_12172" data-name="Path 12172" d="M6.6,42.474q-.069-.27-.133-.542.065.271.133.542" fill="#0f3d6d"/>
          <path id="Path_12173" data-name="Path 12173" d="M63.785,36.22c.024-.124.047-.249.07-.373-.023.124-.046.249-.07.373" fill="#0f3d6d"/>
          <path id="Path_12174" data-name="Path 12174" d="M62,42.045c.033-.077.065-.155.1-.232-.032.077-.064.155-.1.232" fill="#0f3d6d"/>
          <path id="Path_12175" data-name="Path 12175" d="M61.748,42.618c.032-.071.064-.142.095-.213-.031.071-.063.142-.095.213" fill="#0f3d6d"/>
          <path id="Path_12176" data-name="Path 12176" d="M61.243,43.678c.019-.036.038-.074.056-.112-.018.038-.037.076-.056.112" fill="#0f3d6d"/>
          <path id="Path_12177" data-name="Path 12177" d="M61.491,43.171c.029-.061.058-.121.086-.182-.028.061-.057.121-.086.182" fill="#0f3d6d"/>
          <path id="Path_12178" data-name="Path 12178" d="M62.24,41.461c.033-.082.065-.164.1-.246-.032.082-.064.164-.1.246" fill="#0f3d6d"/>
          <path id="Path_12179" data-name="Path 12179" d="M62.689,40.265c.033-.094.064-.19.1-.285-.032.1-.063.191-.1.285" fill="#0f3d6d"/>
          <path id="Path_12180" data-name="Path 12180" d="M62.471,40.867c.032-.086.064-.173.1-.26-.031.087-.063.174-.1.26" fill="#0f3d6d"/>
          <path id="Path_12181" data-name="Path 12181" d="M58.811,47.7l.014-.02-.014.02" fill="#0f3d6d"/>
          <path id="Path_12182" data-name="Path 12182" d="M62.973,39.406c.036-.113.072-.225.106-.339-.034.114-.07.226-.106.339" fill="#0f3d6d"/>
          <path id="Path_12183" data-name="Path 12183" d="M56.151,50.889l.009-.01-.009.01" fill="#0f3d6d"/>
          <path id="Path_12184" data-name="Path 12184" d="M60.131,45.7c.009-.014.017-.029.026-.044-.009.015-.017.03-.026.044" fill="#0f3d6d"/>
          <path id="Path_12185" data-name="Path 12185" d="M63.871,40.311q-.129.721-.293,1.432.164-.709.293-1.432" fill="#0f3d6d"/>
          <path id="Path_12186" data-name="Path 12186" d="M59.806,46.226c.017-.027.034-.055.052-.082-.018.027-.035.055-.052.082" fill="#0f3d6d"/>
          <path id="Path_12187" data-name="Path 12187" d="M59.138,47.235c.015-.022.031-.044.046-.067-.015.023-.031.045-.046.067" fill="#0f3d6d"/>
          <path id="Path_12188" data-name="Path 12188" d="M59.473,46.739l.056-.085-.056.085" fill="#0f3d6d"/>
          <path id="Path_12189" data-name="Path 12189" d="M63.166,38.771c.032-.111.065-.221.1-.332-.03.111-.063.221-.1.332" fill="#0f3d6d"/>
          <path id="Path_12190" data-name="Path 12190" d="M7.995,46.579c-.083-.2-.164-.394-.243-.592.079.2.16.4.243.592" fill="#0f3d6d"/>
          <path id="Path_12191" data-name="Path 12191" d="M8.283,47.236c-.09-.2-.178-.4-.264-.6.086.2.174.4.264.6" fill="#0f3d6d"/>
          <path id="Path_12192" data-name="Path 12192" d="M8.588,47.884q-.146-.3-.283-.6.138.3.283.6" fill="#0f3d6d"/>
          <path id="Path_12193" data-name="Path 12193" d="M7.722,45.914c-.077-.194-.151-.39-.224-.587.073.2.147.393.224.587" fill="#0f3d6d"/>
          <path id="Path_12194" data-name="Path 12194" d="M7,43.872c-.058-.186-.113-.374-.168-.561.055.187.11.375.168.561" fill="#0f3d6d"/>
          <path id="Path_12195" data-name="Path 12195" d="M7.224,44.56c-.064-.189-.126-.38-.186-.571.06.191.122.382.186.571" fill="#0f3d6d"/>
          <path id="Path_12196" data-name="Path 12196" d="M7.465,45.241q-.105-.288-.2-.578.1.29.2.578" fill="#0f3d6d"/>
          <path id="Path_12197" data-name="Path 12197" d="M9.242,49.155q-.165-.3-.323-.609.158.306.323.609" fill="#0f3d6d"/>
          <path id="Path_12198" data-name="Path 12198" d="M63.651,36.865c.026-.118.051-.237.075-.355-.024.118-.049.237-.075.355" fill="#0f3d6d"/>
          <path id="Path_12199" data-name="Path 12199" d="M8.907,48.524q-.154-.3-.3-.607.148.306.3.607" fill="#0f3d6d"/>
          <path id="Path_12200" data-name="Path 12200" d="M63.341,38.14c.03-.112.06-.223.088-.336-.028.113-.058.224-.088.336" fill="#0f3d6d"/>
          <path id="Path_12201" data-name="Path 12201" d="M63.5,37.506c.028-.115.055-.229.081-.344-.026.115-.053.229-.081.344" fill="#0f3d6d"/>
          <path id="Path_12202" data-name="Path 12202" d="M6.792,43.176q-.078-.276-.151-.554.074.277.151.554" fill="#0f3d6d"/>
          <path id="Path_12203" data-name="Path 12203" d="M9.591,49.777q-.175-.3-.344-.612.168.309.344.612" fill="#0f3d6d"/>
          <path id="Path_12204" data-name="Path 12204" d="M63.9,35.57c.024-.138.045-.276.067-.415-.022.139-.043.277-.067.415" fill="#0f3d6d"/>
          <g id="Group_14374" data-name="Group 14374" opacity="0.3">
            <g id="Group_14373" data-name="Group 14373">
              <g id="Group_14372" data-name="Group 14372" clip-path="url(#clip-path-4)">
                <path id="Path_12205" data-name="Path 12205" d="M35,59.9A29.331,29.331,0,0,1,5.758,32.846q-.087,1.125-.087,2.273a29.329,29.329,0,0,0,58.658,0q0-1.147-.087-2.273A29.331,29.331,0,0,1,35,59.9"/>
              </g>
            </g>
          </g>
          <path id="Path_12206" data-name="Path 12206" d="M55.739,10.071a29.329,29.329,0,0,0-41.478,0L35,30.81Z" fill="#69a2ff"/>
          <path id="Path_12207" data-name="Path 12207" d="M24.49,20.3l22.588-1.72L35,30.772Z" fill="#2e57ad"/>
          <path id="Path_12208" data-name="Path 12208" d="M33.463,4.986a2.914,2.914,0,0,0-.794.951,4.528,4.528,0,0,0-.4,4.089,4.057,4.057,0,0,0,4.571,1.957,2.609,2.609,0,0,0,.981-.429,2.493,2.493,0,0,0,.683-.872,4.957,4.957,0,0,0-.367-4.748,3.49,3.49,0,0,0-4.673-.948" fill="#3c60c7"/>
          <g id="Group_14377" data-name="Group 14377" opacity="0.2">
            <g id="Group_14376" data-name="Group 14376">
              <g id="Group_14375" data-name="Group 14375" clip-path="url(#clip-path-5)">
                <path id="Path_12209" data-name="Path 12209" d="M35.64,11.113a4.9,4.9,0,0,1-.631-3.218,4.357,4.357,0,0,1,.708-2.146,2.3,2.3,0,0,1,1.163-.907,3.438,3.438,0,0,0-3.416.144,2.929,2.929,0,0,0-.8.951,4.532,4.532,0,0,0-.4,4.09,4.032,4.032,0,0,0,4.359,2,2.957,2.957,0,0,1-.988-.912" fill="#66cff0"/>
              </g>
            </g>
          </g>
          <path id="Path_12210" data-name="Path 12210" d="M21.088,13.649l5.257-.055a2.989,2.989,0,0,1,2.832-1.211c1.848.275,4.105-.055,4.545-1.321S33.667,7.7,31.3,8.254c0,0-.44-2.643-2.753-1.487a3.076,3.076,0,0,0-1.875-2.25,2.281,2.281,0,0,0-3.029,2.636s-1.536-.881-2.555-.165-.358,2.024-.358,2.024-1.652.068-1.707,2.27a2.24,2.24,0,0,0,2.065,2.367" fill="#1847c5"/>
          <path id="Path_12211" data-name="Path 12211" d="M33.537,11.413a2.835,2.835,0,0,1-2.13.289,2.138,2.138,0,0,1-2.593.186,17.114,17.114,0,0,1-2.046.505,1.456,1.456,0,0,1-1.232-.16.9.9,0,0,1-.193-1.01,1.379,1.379,0,0,1,.8-.714,1.9,1.9,0,0,1,1.559.1,1.426,1.426,0,0,1,2.036-.687A4.292,4.292,0,0,0,28.358,8.49a.417.417,0,0,0-.311-.092.44.44,0,0,0-.229.206l-.707,1.041a2.689,2.689,0,0,0-2.755-1.8,3.042,3.042,0,0,1,.278-2.528,2.375,2.375,0,0,1,1.211-.943,2.29,2.29,0,0,0-2.2,2.777s-1.537-.881-2.555-.165-.358,2.024-.358,2.024-1.652.068-1.707,2.27a2.24,2.24,0,0,0,2.065,2.367l5.257-.055a2.988,2.988,0,0,1,2.832-1.211c1.663.248,3.657,0,4.36-.97" fill="#0b2a8c"/>
          <path id="Path_12212" data-name="Path 12212" d="M49.809,15.994a9.126,9.126,0,0,0-6.591-2.957C38.732,13.2,37.741,15,37.08,15.064a3.664,3.664,0,0,0-3.543-1.422c-2.4.33-3.944,4.281-3.944,4.281a24.591,24.591,0,0,0-6.725.748L26.2,22.007a14.992,14.992,0,0,0,6.692-.433L46.1,19.7Z" fill="#263d86"/>
          <path id="Path_12213" data-name="Path 12213" d="M33.537,13.649c-2.4.33-3.944,4.28-3.944,4.28H31.3s1.816-6.008,5.78-2.86a3.663,3.663,0,0,0-3.543-1.421" fill="#3c60c7"/>
          <path id="Path_12214" data-name="Path 12214" d="M43.219,13.043c-4.487.165-5.478,1.962-6.138,2.027l1.6,1.772a7.046,7.046,0,0,1,5.8-3.733,7.138,7.138,0,0,0-1.26-.066" fill="#3c60c7"/>
          <path id="Path_12215" data-name="Path 12215" d="M26.345,13.594l1.144,6.827,3.811.5L28.822,14.64l1.762-2.477h-.991l-1.156,1.816-.822-2.367s-1.726-.741-1.27,1.982" fill="#573a8d"/>
          <path id="Path_12216" data-name="Path 12216" d="M27.615,14.53l.7-.894-.7-2.024s-1.727-.74-1.27,1.982l1.144,6.827,1.688.219Z" fill="#2a2355"/>
          <path id="Path_12217" data-name="Path 12217" d="M35,30.81,45.081,20.729a42.2,42.2,0,0,0-8.256,1.527,5.952,5.952,0,0,1,2.22,2.14,4.522,4.522,0,0,0-2.769.486c-.258.177-.477.407-.736.583a5.43,5.43,0,0,1-2.181.63c-.719.125-1.676.378-1.982,1.092Z" fill="#2e737d"/>
          <path id="Path_12218" data-name="Path 12218" d="M35.588,23.48a.851.851,0,0,0-.3-.654,8.2,8.2,0,0,0-2.649-1.51A14.147,14.147,0,0,0,26.444,20.2a18.1,18.1,0,0,0-1.878.176L29.989,25.8a13.769,13.769,0,0,0,2.77-.66c.716-.252,2.758-.787,2.829-1.659" fill="#4a8f8f"/>
          <path id="Path_12219" data-name="Path 12219" d="M26.268,21.631c-.138.012-.273.026-.406.041L29.99,25.8a13.71,13.71,0,0,0,2.769-.661,17.671,17.671,0,0,0,1.716-.624c-.973-1.177-3.413-3.285-8.207-2.884" fill="#275d69"/>
          <path id="Path_12220" data-name="Path 12220" d="M35,30.81l2.468-2.468a1.99,1.99,0,0,0-.189-.2,3.4,3.4,0,0,0-1.108-.621,4.331,4.331,0,0,0-1.338-.324,4.56,4.56,0,0,0-1.866.4,2.8,2.8,0,0,0-.741.438Z" fill="#265d68"/>
          <path id="Path_12221" data-name="Path 12221" d="M35.122,9.41s4.022-.6,5.949,0a9.719,9.719,0,0,0,4.734-.268H49.2s-1.575-1.714-3.391-1.163a3.192,3.192,0,0,0-3.646-2.973c-3.51.165-3.455,2.973-3.455,2.973S36.109,7.87,35.122,9.41" fill="#66cff0"/>
          <path id="Path_12222" data-name="Path 12222" d="M49.644,13.939s.453-1.236-.53-1.769-2.262.413-2.262.413a2.049,2.049,0,0,0-2.977-2.037,2.766,2.766,0,0,0-1.439,2.2c-2.183-.792-2.3,1.612-2.3,1.612-2.169-.245-2.394,1.673-1.869,2.756s2.572,1.144,4.192.707a2.681,2.681,0,0,1,2.652.786l2.337-.247L51.06,14.75a1.61,1.61,0,0,0-1.416-.811" fill="#1847c5"/>
          <path id="Path_12223" data-name="Path 12223" d="M49.644,13.939s.453-1.236-.53-1.769-2.262.413-2.262.413A2.057,2.057,0,0,0,44.6,10.334a2.13,2.13,0,0,1,1.177.716,2.728,2.728,0,0,1,.511,2.226,2.416,2.416,0,0,0-2.271,1.89l-.739-.855a.392.392,0,0,0-.225-.159.374.374,0,0,0-.268.114,3.852,3.852,0,0,0-1.079,1.42,1.282,1.282,0,0,1,1.888.4,1.711,1.711,0,0,1,1.381-.251,1.239,1.239,0,0,1,.784.555.81.81,0,0,1-.068.921,1.308,1.308,0,0,1-1.082.271,15.6,15.6,0,0,1-1.878-.238,1.921,1.921,0,0,1-2.332.1,2.552,2.552,0,0,1-1.931-.037c.729.8,2.533.806,3.991.412a2.681,2.681,0,0,1,2.652.786l2.337-.247L51.06,14.75a1.61,1.61,0,0,0-1.416-.811" fill="#0b2a8c"/>
          <path id="Path_12224" data-name="Path 12224" d="M43.984,17.706l.3,3.841,1.9-1.921-.229-1.336a1.954,1.954,0,0,0-1.971-.584" fill="#2a2355"/>
          <path id="Path_12225" data-name="Path 12225" d="M44.072,18.849l.911,1.988-.7.709Z" fill="#573a8d"/>
          <path id="Path_12226" data-name="Path 12226" d="M55.74,10.071,35,30.81l.009.009,13.681,5.123,15.638-5.258A29.235,29.235,0,0,0,55.74,10.071" fill="#d5a4ff"/>
          <path id="Path_12227" data-name="Path 12227" d="M55.147,19.376a1.954,1.954,0,0,0-.532.637,3.033,3.033,0,0,0-.268,2.738,2.717,2.717,0,0,0,3.06,1.31,1.737,1.737,0,0,0,.657-.287,1.67,1.67,0,0,0,.458-.584,3.318,3.318,0,0,0-.246-3.179,2.337,2.337,0,0,0-3.129-.635" fill="#e4794e"/>
          <g id="Group_14380" data-name="Group 14380" opacity="0.33">
            <g id="Group_14379" data-name="Group 14379">
              <g id="Group_14378" data-name="Group 14378" clip-path="url(#clip-path-6)">
                <path id="Path_12228" data-name="Path 12228" d="M56.6,23.479a3.278,3.278,0,0,1-.423-2.154,2.927,2.927,0,0,1,.474-1.437,1.537,1.537,0,0,1,.78-.607,2.3,2.3,0,0,0-2.288.1,1.954,1.954,0,0,0-.532.637,3.03,3.03,0,0,0-.268,2.738,2.7,2.7,0,0,0,2.919,1.338,1.968,1.968,0,0,1-.662-.611" fill="#fbbe55"/>
              </g>
            </g>
          </g>
          <path id="Path_12229" data-name="Path 12229" d="M64.013,26.5c-.369.219-.73.457-1.089.688a6.349,6.349,0,0,1-3.2,1.257c-2.372.043-4.045-2.257-6.184-3.284-2.274-1.092-5.008-.671-7.338.3s-4.416,2.439-6.7,3.508a21.263,21.263,0,0,1-3.966,1.393l-.087,0L35,30.81,55.74,51.549A29.287,29.287,0,0,0,64.013,26.5" fill="#e4794e"/>
          <path id="Path_12230" data-name="Path 12230" d="M47.412,43.21l8.338,8.338a29.209,29.209,0,0,0,6.751-10.5A19.422,19.422,0,0,0,47.412,43.21Z" fill="#f8a84d"/>
          <path id="Path_12231" data-name="Path 12231" d="M44.435,31.35c5.484-1.428,6.528-4.653,6.559-6.819a11.086,11.086,0,0,0-4.793.93c-2.329.968-4.416,2.439-6.7,3.508a21.238,21.238,0,0,1-3.966,1.393l-.087,0s.347,3.235,8.989.985" fill="#f8a84d"/>
          <path id="Path_12232" data-name="Path 12232" d="M54.406,35.026c1.484.075,3.124.256,4.116,1.361a16.187,16.187,0,0,1-7.361,1.364,44.592,44.592,0,0,1-7.477-1.021,1.032,1.032,0,0,1-.618-.277c-1.272-1.518,3.9-1.53,4.259-1.537q3.542-.066,7.081.11" fill="#23a0a3"/>
          <path id="Path_12233" data-name="Path 12233" d="M56,36.477a1.911,1.911,0,0,0-.686-1.385c-.306-.031-.611-.051-.911-.066q-3.537-.178-7.081-.11c-.051,0-.2,0-.418.008a2.028,2.028,0,0,0-.881,1.553,1.617,1.617,0,0,0,.179.728,34.452,34.452,0,0,0,4.956.547,18.526,18.526,0,0,0,4.592-.419,1.657,1.657,0,0,0,.25-.856" fill="#d5a4ff"/>
          <path id="Path_12234" data-name="Path 12234" d="M50.007,35.872a1.575,1.575,0,0,1,.4-1.268,1.621,1.621,0,0,0,.413-1.266,3.431,3.431,0,0,1,.858,1.974,1.713,1.713,0,0,1-.122.9c-.38.783-1.339.356-1.547-.34" fill="#f0f"/>
          <path id="Path_12235" data-name="Path 12235" d="M44.645,37.158a.7.7,0,0,0-.162.36.525.525,0,0,0,.2.418,1.328,1.328,0,0,0,.424.22,6.072,6.072,0,0,0,1.375.323,2.377,2.377,0,0,0,1.214-.113c.185-.08.371-.231.37-.432A.542.542,0,0,0,48,37.706a3.051,3.051,0,0,0-.668-.834,2.693,2.693,0,0,0-.835-.593c-.75-.294-1.427.305-1.851.879" fill="#9f4731"/>
          <g id="Group_14383" data-name="Group 14383" opacity="0.3">
            <g id="Group_14382" data-name="Group 14382">
              <g id="Group_14381" data-name="Group 14381" clip-path="url(#clip-path-7)">
                <path id="Path_12236" data-name="Path 12236" d="M45.19,37.118a1.137,1.137,0,0,1,.824,0c.525.225.732.873,1.2,1.2a.6.6,0,0,1,.187.16,14.612,14.612,0,0,1-2.633-.295.464.464,0,0,1-.2-.08c-.452-.38.342-.887.619-.989"/>
              </g>
            </g>
          </g>
          <path id="Path_12237" data-name="Path 12237" d="M54.01,29.156s.035.248.083.691c.291,2.675,1.064,12.449-2.478,17.549l4.125,4.153,2.15-2.4s-.45-16.892-2.15-20.307-1.73.312-1.73.312" fill="#9e4832"/>
          <path id="Path_12238" data-name="Path 12238" d="M54.893,27.73c.015-.023-5.436,1.54-3.019,8.969,0,0,3.042-6.509,3.209-9.045" fill="#257d3c"/>
          <path id="Path_12239" data-name="Path 12239" d="M55.74,27.1a1.293,1.293,0,0,0-1.281-1.031c-1.068.025-1.894,1.589-1.894,1.589Z" fill="#3f9b53"/>
          <g id="Group_14386" data-name="Group 14386" opacity="0.3">
            <g id="Group_14385" data-name="Group 14385">
              <g id="Group_14384" data-name="Group 14384" clip-path="url(#clip-path-8)">
                <path id="Path_12240" data-name="Path 12240" d="M56.323,30.71a8.705,8.705,0,0,0-.583-1.865c-1.7-3.414-1.73.311-1.73.311s.035.248.083.691c.291,2.674,1.064,12.448-2.478,17.549l1.911,1.924c.418-2.445.95-5.455,1.226-6.573.5-2.007-.082-10.546.988-10.977a1.179,1.179,0,0,0,.583-1.06"/>
              </g>
            </g>
          </g>
          <path id="Path_12241" data-name="Path 12241" d="M62.473,31.829c.02.019-.572-5.621-8.308-4.532,0,0,5.882,4.128,8.35,4.732" fill="#257d3c"/>
          <path id="Path_12242" data-name="Path 12242" d="M54.67,27.328c.032-.021-7.946-.787-8.657,9.791,0,0,7.4-6.678,8.946-9.791" fill="#3f9b53"/>
          <path id="Path_12243" data-name="Path 12243" d="M54.459,26.87s5.224,10.907,8.195,13.608l.081-.362c.014.045,3.1-9.75-8.276-13.246" fill="#3f9b53"/>
          <path id="Path_12244" data-name="Path 12244" d="M56.171,30.277c1.788,3.44,4.591,8.482,6.482,10.2-.027-4.6-6.33-10.974-6.33-10.974a3.28,3.28,0,0,0-.152.773" fill="#257d3c"/>
          <path id="Path_12245" data-name="Path 12245" d="M54.855,27.068c-.607-.3-3.729,5.812.793,12.5,0,0,6.3-9.04-.793-12.5" fill="#3f9b53"/>
          <path id="Path_12246" data-name="Path 12246" d="M14.262,10.057a29.329,29.329,0,0,0,0,41.478L35,30.8Z" fill="#18b3b5"/>
          <path id="Path_12247" data-name="Path 12247" d="M14.281,51.563,29.217,36.579l-1.764-3.826-2.9-1.828L19.24,32.448l-1.393,3.665-1.285-1.734L13.181,30.83l-2.134,1.359-2.7,3.1L6.2,36.215a29.251,29.251,0,0,0,8.083,15.348" fill="#33929b"/>
          <path id="Path_12248" data-name="Path 12248" d="M11.046,32.189l-2.7,3.1-2.153.93a29.22,29.22,0,0,0,3.322,9.1c.165-1.628.351-3.445.459-4.6.058-.623.091-1.243.118-1.861a11.609,11.609,0,0,1,.971-2.953q.312-.919.623-1.84a5.011,5.011,0,0,0,.569-2.641Z" fill="#1f7182"/>
          <path id="Path_12249" data-name="Path 12249" d="M9.7,20.075a1.908,1.908,0,0,0-.518.62,2.953,2.953,0,0,0-.261,2.666,2.645,2.645,0,0,0,2.98,1.276,1.694,1.694,0,0,0,.64-.28,1.62,1.62,0,0,0,.445-.568,3.232,3.232,0,0,0-.239-3.1A2.276,2.276,0,0,0,9.7,20.075" fill="#1f7182"/>
          <g id="Group_14389" data-name="Group 14389" opacity="0.33">
            <g id="Group_14388" data-name="Group 14388">
              <g id="Group_14387" data-name="Group 14387" clip-path="url(#clip-path-9)">
                <path id="Path_12250" data-name="Path 12250" d="M11.122,24.071a3.19,3.19,0,0,1-.411-2.1,2.835,2.835,0,0,1,.461-1.4,1.5,1.5,0,0,1,.759-.591,2.241,2.241,0,0,0-2.228.094,1.887,1.887,0,0,0-.518.62,2.953,2.953,0,0,0-.261,2.666,2.63,2.63,0,0,0,2.842,1.3,1.919,1.919,0,0,1-.644-.594" fill="#3fbfc5"/>
              </g>
            </g>
          </g>
          <path id="Path_12251" data-name="Path 12251" d="M25.97,31.732l.806,7.3,2.441-2.448-2.031-4.421Z" fill="#3fbfc5"/>
          <path id="Path_12252" data-name="Path 12252" d="M19.84,38.14l-.234-1.133-1.4-1.67-.309.813-1.285-1.734L15.44,33.189l.54,1.87,1.1,4.385,2.746,6.521,4.44-4.44,0,0Z" fill="#3fbfc5"/>
          <path id="Path_12253" data-name="Path 12253" d="M22.765,35.706a3.437,3.437,0,0,0,.1-1.28,3.72,3.72,0,0,0-.049-1.148l-.976-1.949-2.616.786-1.385,3.858,1,1.111c.256.286.509.574.767.857a1.344,1.344,0,0,0,.592.355c.283.077.325-.011.509-.213.3-.333.623-.653.935-.98a8.572,8.572,0,0,0,.892-.937,1.9,1.9,0,0,0,.233-.46" fill="#1f7182"/>
          <path id="Path_12254" data-name="Path 12254" d="M19.278,31.58a2.333,2.333,0,0,0-.038.868,2.128,2.128,0,0,0,.218.546,2.789,2.789,0,0,0,.639.986.679.679,0,0,0,.623.138c.439-.157.744-.884.951-1.265a.335.335,0,0,1,.169-.18.29.29,0,0,1,.181.015,1.457,1.457,0,0,1,.673.576,8.1,8.1,0,0,0,.553.611c.213.246.339.5.644.662a.919.919,0,0,0,1.007-.069,1.484,1.484,0,0,0,.275-.371c.235-.4.417-1.241.83-1.488.371-.222.734.213.972.426.257.231.87.594,1.008.9l-3.692-8.265c-.32-.715-.639-1.431-.984-2.135a4.527,4.527,0,0,0-1.18-1.835.54.54,0,0,0-.482-.065c-.636.226-.689,1.585-.814,2.134-.2.876-.386,1.755-.564,2.636-.348,1.718-.693,3.442-.989,5.17" fill="#d1f8f6"/>
          <path id="Path_12255" data-name="Path 12255" d="M8.377,35.291a7.374,7.374,0,0,1,.264-.74c.245-.641.484-1.284.724-1.927q.894-2.4,1.778-4.8c.11-.3.128-.827.424-1.025.413-.276.9.359,1.094.672.9,1.439,1.677,2.969,2.511,4.446q.507.9,1.012,1.791c.2.352.745,1.037.38,1.386a.244.244,0,0,1-.113.068.3.3,0,0,1-.137-.01,4.754,4.754,0,0,1-1.874-1.269c-.437-.369-1.132-1.035-1.76-.866a.909.909,0,0,0-.528.451,3.024,3.024,0,0,0-.246.668q-.172.6-.391,1.183a1.37,1.37,0,0,1-.238.448.734.734,0,0,1-.8.187c-.121-.049-.25-.132-.371-.084a.341.341,0,0,0-.14.124c-.191.26-.316.6-.614.73a.744.744,0,0,1-.882-.391,1.356,1.356,0,0,1-.1-1.042" fill="#d1f8f6"/>
          <path id="Path_12256" data-name="Path 12256" d="M28.062,27.346c.375-.79-.921-1.315-1.252-.555a.7.7,0,0,0,.29.859.718.718,0,0,0,.962-.3" fill="#dafcfb"/>
          <path id="Path_12257" data-name="Path 12257" d="M16.9,28.439c.375-.79-.921-1.315-1.252-.555a.7.7,0,0,0,.29.859.718.718,0,0,0,.962-.3" fill="#dafcfb"/>
          <path id="Path_12258" data-name="Path 12258" d="M14.834,38.756c.375-.79-.921-1.315-1.252-.555a.7.7,0,0,0,.29.859.718.718,0,0,0,.962-.3" fill="#dafcfb"/>
          <path id="Path_12259" data-name="Path 12259" d="M14.995,23.039c.273-.574-.67-.956-.911-.4a.511.511,0,0,0,.212.625.522.522,0,0,0,.7-.221" fill="#dafcfb"/>
          <path id="Path_12260" data-name="Path 12260" d="M15.342,15.116c.273-.574-.67-.956-.911-.4a.511.511,0,0,0,.212.625.522.522,0,0,0,.7-.221" fill="#dafcfb"/>
          <path id="Path_12261" data-name="Path 12261" d="M17.985,19.062c.273-.574-.67-.956-.911-.4a.511.511,0,0,0,.212.625.522.522,0,0,0,.7-.221" fill="#dafcfb"/>
          <path id="Path_12262" data-name="Path 12262" d="M12.933,19.307c.273-.574-.67-.956-.911-.4a.511.511,0,0,0,.212.625.522.522,0,0,0,.7-.221" fill="#dafcfb"/>
          <path id="Path_12263" data-name="Path 12263" d="M11.469,23.083c.136-.287-.335-.478-.455-.2a.255.255,0,0,0,.105.312.26.26,0,0,0,.35-.11" fill="#dafcfb"/>
          <path id="Path_12264" data-name="Path 12264" d="M18.477,23.824c.136-.287-.335-.478-.455-.2a.257.257,0,0,0,.105.313.262.262,0,0,0,.35-.111" fill="#dafcfb"/>
          <path id="Path_12265" data-name="Path 12265" d="M30.258,31.178c.136-.287-.335-.478-.455-.2a.257.257,0,0,0,.105.313.262.262,0,0,0,.35-.111" fill="#dafcfb"/>
          <path id="Path_12266" data-name="Path 12266" d="M22.521,41.044c.136-.287-.335-.478-.455-.2a.257.257,0,0,0,.1.313.262.262,0,0,0,.35-.111" fill="#dafcfb"/>
          <path id="Path_12267" data-name="Path 12267" d="M15.264,19.374c.089-.188-.22-.314-.3-.133a.169.169,0,0,0,.069.206.172.172,0,0,0,.23-.073" fill="#dafcfb"/>
          <path id="Path_12268" data-name="Path 12268" d="M9.509,27.218c.136-.287-.335-.478-.455-.2a.257.257,0,0,0,.105.313.262.262,0,0,0,.35-.111" fill="#dafcfb"/>
          <path id="Path_12269" data-name="Path 12269" d="M21.405,22.746l.232-1.1c-.628.235-.682,1.583-.806,2.129-.2.877-.386,1.756-.564,2.637-.348,1.718-.693,3.442-.989,5.17a2.333,2.333,0,0,0-.038.868,2.157,2.157,0,0,0,.218.546,2.789,2.789,0,0,0,.639.986.678.678,0,0,0,.623.137c.439-.156.744-.883.951-1.264a.339.339,0,0,1,.169-.18.29.29,0,0,1,.181.015,1.457,1.457,0,0,1,.673.576,2.256,2.256,0,0,0,.179.216Z" fill="#81c3cb"/>
          <path id="Path_12270" data-name="Path 12270" d="M11.494,28.132l-.172-.968c-.079.223-.113.483-.179.661q-.885,2.4-1.778,4.8-.358.964-.724,1.927a7.632,7.632,0,0,0-.264.74,1.356,1.356,0,0,0,.1,1.042.745.745,0,0,0,.882.392c.3-.126.422-.47.614-.731a.339.339,0,0,1,.139-.124c.121-.047.25.036.371.084a.735.735,0,0,0,.8-.186,1.375,1.375,0,0,0,.238-.449q.219-.583.392-1.182a3.011,3.011,0,0,1,.245-.669c.006-.012.014-.023.021-.035.143-1.148.316-2.544.329-2.644.022-.171-1.008-2.657-1.008-2.657" fill="#81c3cb"/>
          <path id="Path_12271" data-name="Path 12271" d="M26.975,33.035c.257.231.87.6,1.009.9l-2.595-5.808L26,32.61c.371-.222.735.212.972.425" fill="#fff"/>
          <path id="Path_12272" data-name="Path 12272" d="M15.933,35.022h0a2.126,2.126,0,0,0,.38.13.31.31,0,0,0,.138.01.244.244,0,0,0,.113-.068c.365-.349-.182-1.034-.381-1.386l-1.011-1.791q-.141-.249-.279-.5h0Z" fill="#fff"/>
          <path id="Path_12273" data-name="Path 12273" d="M14.261,51.549a29.329,29.329,0,0,0,41.478,0L35,30.81Z" fill="#11a5d2"/>
          <path id="Path_12274" data-name="Path 12274" d="M47.4,43.21l8.337,8.338a29.327,29.327,0,0,1-41.476,0s8.64-8.564,8.672-8.557a35.592,35.592,0,0,0,12.51,1.184c6.013-.743,7.743-2.054,11.957-.965" fill="#0b4e9b"/>
          <path id="Path_12275" data-name="Path 12275" d="M22.954,42.921a38.9,38.9,0,0,0,12.189.945c4.055-.3,8.24-2.14,12.276-.727l-.037.142c-4.123-.97-8.069.923-12.165,1.255a30.8,30.8,0,0,1-12.3-1.474l.042-.141" fill="#d1f8f6"/>
          <path id="Path_12276" data-name="Path 12276" d="M29,36.809l11.919-.08L35,30.837Z" fill="#1ae6ee"/>
          <g id="Group_14392" data-name="Group 14392" opacity="0.6">
            <g id="Group_14391" data-name="Group 14391">
              <g id="Group_14390" data-name="Group 14390" clip-path="url(#clip-path-10)">
                <path id="Path_12277" data-name="Path 12277" d="M40.995,51.041c3.838.625,7.634,1.686,11.523,1.726a2.8,2.8,0,0,1,1.442.259,7.268,7.268,0,0,1-4.487,2.434,19.786,19.786,0,0,1-5.2.015,158.636,158.636,0,0,1-16.251-2.326c.218-1.642,4.421-2.24,5.655-2.4a25.431,25.431,0,0,1,7.321.292" fill="#0f3d6d"/>
              </g>
            </g>
          </g>
          <path id="Path_12278" data-name="Path 12278" d="M55.739,51.549s-11.557,3.032-12.52,3.156-11.176-2.6-16.488-3.116a52.492,52.492,0,0,0-11.793.613,29.328,29.328,0,0,0,40.8-.653" fill="#0f3d6d"/>
          <path id="Path_12279" data-name="Path 12279" d="M28.175,38.362s7.474-.508,9.621.024" fill="#d1f8f6"/>
          <path id="Path_12280" data-name="Path 12280" d="M31.931,37.349a36.42,36.42,0,0,1,6.137.015" fill="#d1f8f6"/>
          <path id="Path_12281" data-name="Path 12281" d="M30.749,39.82s10.178-.66,13.1.031" fill="#d1f8f6"/>
          <path id="Path_12282" data-name="Path 12282" d="M24.108,41.892s14.57-1.41,18.755.066" fill="#d1f8f6"/>
          <path id="Path_12283" data-name="Path 12283" d="M44.788,48.113l1.741-1.275.649,2.984Z"/>
          <path id="Path_12284" data-name="Path 12284" d="M44.788,48.113s-2.858,2.753-5.007,2.147-3.361-6.5,5.007-2.147"/>
          <path id="Path_12285" data-name="Path 12285" d="M26.936,51.491l1.149-.841.429,1.969Z"/>
          <path id="Path_12286" data-name="Path 12286" d="M26.936,51.491s-1.886,1.817-3.305,1.417-2.219-4.288,3.305-1.417"/>
          <g id="Group_14395" data-name="Group 14395" opacity="0.5">
            <g id="Group_14394" data-name="Group 14394">
              <g id="Group_14393" data-name="Group 14393" clip-path="url(#clip-path-11)">
                <path id="Path_12287" data-name="Path 12287" d="M31.975,47.055l.669-.49.249,1.146Z"/>
                <path id="Path_12288" data-name="Path 12288" d="M31.975,47.055s-1.1,1.057-1.925.825-1.29-2.5,1.925-.825"/>
              </g>
            </g>
          </g>
          <path id="Path_12289" data-name="Path 12289" d="M33.987,32.567a1.271,1.271,0,0,0-.344.412,1.964,1.964,0,0,0-.174,1.773,1.759,1.759,0,0,0,1.981.849,1.147,1.147,0,0,0,.426-.186,1.08,1.08,0,0,0,.3-.379,2.149,2.149,0,0,0-.159-2.058,1.513,1.513,0,0,0-2.026-.411" fill="#11a5d2"/>
          <g id="Group_14398" data-name="Group 14398" opacity="0.4">
            <g id="Group_14397" data-name="Group 14397">
              <g id="Group_14396" data-name="Group 14396" clip-path="url(#clip-path-12)">
                <path id="Path_12290" data-name="Path 12290" d="M34.931,35.224a2.127,2.127,0,0,1-.274-1.4,1.894,1.894,0,0,1,.307-.93,1,1,0,0,1,.505-.393,1.492,1.492,0,0,0-1.482.062,1.276,1.276,0,0,0-.344.413,1.963,1.963,0,0,0-.173,1.773,1.746,1.746,0,0,0,1.889.866,1.286,1.286,0,0,1-.428-.4" fill="#1ae6ee"/>
              </g>
            </g>
          </g>
        </g>
      </g>
    </g>
  </g>
</svg>
