<svg id="dice" xmlns="http://www.w3.org/2000/svg" width="120" height="120" viewBox="0 0 120 120">
  <path id="Path_5442" data-name="Path 5442" d="M89.349,31.372c.365-2.159-17.057-3.263-31.74-2.092-5.194.194-9.738.684-12.39,1.6-.743.256-1.6.578-2.532.957C29.537,36.243,8.738,48.389,9.509,52.444a4.681,4.681,0,0,0,.075,1.536.18.18,0,0,0-.03.13A36.942,36.942,0,0,0,11.6,60.374c4.427,11.245,14.545,31.808,17.379,34.984,2.112,2.373,12.3,6.236,20.289,8.65l.024.011h.015a77.915,77.915,0,0,0,7.625,1.987c.14.028.272.052.4.071l.031,0a4.658,4.658,0,0,0,1.783.088c.477-.013.977-.048,1.5-.1a19.469,19.469,0,0,0,3.191-.529c1.058-.227,2.1-.494,3.064-.773,7.548-2.188,17.444-7.838,17.444-7.838l0,0c1.436-.761,2.845-1.534,4.2-2.305l.014-.008-.007,0c6.907-3.921,12.506-7.794,13.605-9.685,2.669-4.59-9.519-51.79-12.8-53.562" opacity="0.3"/>
  <path id="Path_5443" data-name="Path 5443" d="M30.789,88.182c-2.965-3.049-21.554-38.8-20.562-44.139S37.646,25.024,47.1,21.771s42.182-1.317,45.571.512,15.973,50.57,13.218,55.311S73,99.135,62.628,99.436c-7.433.216-29.014-8.348-31.839-11.254" fill="#ffadf3"/>
  <path id="Path_5444" data-name="Path 5444" d="M10.227,44.043S38.5,50.486,44.366,49.277s47.784-23.9,48.307-26.993-34.35-4.093-47.914.384S9.426,39.828,10.227,44.043" fill="#f6e2ff"/>
  <path id="Path_5445" data-name="Path 5445" d="M61.625,99.414c-.246.581-4.755-.424-10.3-2.111h-.015l-.025-.012c-8.247-2.492-18.77-6.482-20.952-8.931-2.926-3.281-13.374-24.514-17.946-36.127a38.209,38.209,0,0,1-2.113-6.468c-.326-2.077,28.234,4.088,30.522,6.5S62.235,97.973,61.625,99.414" fill="#ec61b4"/>
  <path id="Path_5446" data-name="Path 5446" d="M70.241,53.689a11.646,11.646,0,0,1,.678,2.441c.69,4.1-.948,7.943-4.127,9.3-2.715,1.151-5.936.217-8.349-2.157a11.694,11.694,0,0,1-2.353-3.383c-2.28-4.918-.977-10.513,3.036-12.329,4.054-1.839,9.087.991,11.115,6.133" fill="#990079"/>
  <path id="Path_5447" data-name="Path 5447" d="M34.915,35.206c.873,2.253-2.206,5.546-6.877,7.357s-9.165,1.452-10.038-.8,2.2-5.547,6.876-7.357,9.166-1.453,10.039.8" fill="#af028f"/>
  <path id="Path_5448" data-name="Path 5448" d="M56.209,29.742C57.082,32,54,35.288,49.332,37.1s-9.165,1.452-10.038-.8,2.205-5.547,6.876-7.357,9.166-1.453,10.039.8" fill="#af028f"/>
  <path id="Path_5449" data-name="Path 5449" d="M78.656,24.371c.873,2.253-2.206,5.546-6.877,7.357s-9.165,1.452-10.038-.8,2.2-5.547,6.876-7.357,9.166-1.453,10.039.8" fill="#af028f"/>
  <path id="Path_5450" data-name="Path 5450" d="M26.762,68.232c-2.667.767-6.446-2.316-8.494-6.945-.223-.5-.42-1.013-.586-1.511l0-.006c-1.373-4.143-.734-7.87,1.684-8.644,2.314-.749,5.48,1.46,7.634,5.074a18.077,18.077,0,0,1,1.066,2.114c2,4.733,1.39,9.143-1.3,9.918" fill="#890071"/>
  <path id="Path_5451" data-name="Path 5451" d="M52.4,80.846c.038.1.074.19.1.284.009,0,.009,0,.005.012,1.586,4.293.712,8.159-1.957,8.792-2.618.621-6.079-2.114-7.909-6.2-.062-.123-.121-.256-.173-.39-1.817-4.38-1.092-8.575,1.664-9.313,2.783-.74,6.512,2.341,8.267,6.815" fill="#890071"/>
  <path id="Path_5452" data-name="Path 5452" d="M81.282,77.741a9.513,9.513,0,0,1,.442,1.448c.9,3.968-.887,7.849-4.321,9.18a7.617,7.617,0,0,1-6.7-.746.019.019,0,0,0-.011-.01A9.564,9.564,0,0,1,67,83.441c-2.044-4.418-.517-9.453,3.523-11.11,4.08-1.68,8.944.807,10.764,5.41" fill="#990079"/>
  <path id="Path_5453" data-name="Path 5453" d="M93.02,42.141a12.844,12.844,0,0,1,.508,4.253c-.186,3.318-1.743,6.167-4.188,7.214-2.389,1.031-5.1.1-7.088-2.174a11.116,11.116,0,0,1-2.06-3.588c-1.758-4.917-.315-10.4,3.329-12.084,3.684-1.7,7.986,1.241,9.5,6.379" fill="#990079"/>
  <path id="Path_5454" data-name="Path 5454" d="M100.972,68.088c.065.221.115.441.165.661.875,4.146-1.158,8.349-4.681,9.722a6.865,6.865,0,0,1-7.946-2.426,8.7,8.7,0,0,1-1.322-2.431c-1.53-4.328.314-9.253,4.222-10.867,3.946-1.628,8.268.822,9.562,5.341" fill="#990079"/>
  <path id="Path_5455" data-name="Path 5455" d="M13.782,44.826s18.7,5.092,28.453,3.758S85.412,27.835,85.412,27.835,53.487,46.881,48.955,49.644s-1.709,15.38-1.709,15.38-4.465-11.8-8.17-13.333c-2.8-1.155-25.294-6.865-25.294-6.865" fill="#fdd0ff"/>
  <path id="Path_5456" data-name="Path 5456" d="M10.592,44.125s21.189,5.265,32.174,3.32S81.069,30.6,81.069,30.6s-27.705,15.509-36.7,18.68-33.774-5.152-33.774-5.152" fill="#fff"/>
  <path id="Path_5457" data-name="Path 5457" d="M53.52,97.8c7.032,1.5,6.077-4.4,6.077-4.4A21.885,21.885,0,0,0,68.56,96.55c5.159.574,18.938-6.574,18.938-6.574s-10.219,5.835-18.015,8.1c-3.226.936-7.384,1.757-9.877,1.357A61.063,61.063,0,0,1,53.52,97.8" fill="#c4499e"/>
  <path id="Path_5458" data-name="Path 5458" d="M52.234,76.064S58.005,90.126,62.27,93.17s11.976,1.519,17.367-.163a82.958,82.958,0,0,0,12.212-5.416s-11.514,6.017-18.994,8.743-12.635-.978-14.034-3.273-6.587-17-6.587-17" fill="#fdd0ff"/>
  <path id="Path_5459" data-name="Path 5459" d="M93.02,42.141a12.844,12.844,0,0,1,.508,4.253c-1.173-2.7-3.722-7.077-7.644-5.88C80.3,42.22,82.271,51.447,82.271,51.447l-.019-.013a11.116,11.116,0,0,1-2.06-3.588c-1.758-4.917-.315-10.4,3.329-12.084,3.684-1.7,7.986,1.241,9.5,6.379" fill="#121364" opacity="0.3"/>
  <path id="Path_5460" data-name="Path 5460" d="M70.241,53.689a11.646,11.646,0,0,1,.678,2.441c-2.106-3-6.046-7.063-10.614-4.279-6.829,4.161-1.847,11.418-1.847,11.418h-.015a11.694,11.694,0,0,1-2.353-3.383c-2.28-4.918-.977-10.513,3.036-12.329,4.054-1.839,9.087.991,11.115,6.133" fill="#121364" opacity="0.3"/>
  <path id="Path_5461" data-name="Path 5461" d="M81.282,77.741a9.513,9.513,0,0,1,.442,1.448c-1.15-1.786-5.316-7.339-10.285-3.427-5.715,4.51-.976,11.523-.75,11.851A9.564,9.564,0,0,1,67,83.441c-2.044-4.418-.517-9.453,3.523-11.11,4.08-1.68,8.944.807,10.764,5.41" fill="#121364" opacity="0.3"/>
  <path id="Path_5462" data-name="Path 5462" d="M100.972,68.088c.065.221.115.441.165.661-1.491-1.83-4.3-3.931-8.5-1.682-6.611,3.542-3.462,9.524-3.462,9.524l-.662-.546a8.7,8.7,0,0,1-1.322-2.431c-1.53-4.328.314-9.253,4.222-10.867,3.946-1.628,8.268.822,9.562,5.341" fill="#121364" opacity="0.3"/>
  <path id="Path_5463" data-name="Path 5463" d="M58.847,63.644s3.695,2.927,7.929,1.286,4.292-6.549,4.292-6.549.081,5.788-4.339,7.634-7.882-2.371-7.882-2.371" fill="#fff"/>
  <path id="Path_5464" data-name="Path 5464" d="M68.412,85.659s3.54,3.968,8.521,2.17a7.109,7.109,0,0,0,5.014-6.274s.519,5.5-4.771,7.2c-4.651,1.5-8.764-3.1-8.764-3.1" fill="#fff"/>
  <path id="Path_5465" data-name="Path 5465" d="M82.654,51.867s2.49,2.986,7,.882,3.821-8.281,3.821-8.281,1.083,6.574-3.48,9.216c-3.948,2.287-7.342-1.817-7.342-1.817" fill="#fff"/>
  <path id="Path_5466" data-name="Path 5466" d="M89.6,77.187s2.183,2.284,6.85.443a8.077,8.077,0,0,0,4.893-6.82s.251,5.373-4.126,7.692A6.363,6.363,0,0,1,89.6,77.187" fill="#fff"/>
  <path id="Path_5467" data-name="Path 5467" d="M43.363,85.133s3.51,5.277,6.947,4.384,2.645-6.949,2.645-6.949,1.719,5.707-2.289,7.751-7.3-5.186-7.3-5.186" fill="#ffbad6"/>
  <path id="Path_5468" data-name="Path 5468" d="M19.166,63.034s3.77,5.527,7.524,4.427S28.809,60.5,28.809,60.5s1.8,5.486-1.465,7.731-7.461-3.842-8.178-5.2" fill="#ffbad6"/>
  <path id="Path_5469" data-name="Path 5469" d="M27,56.2c-1.655-1.562-3.951-3.108-6.284-2.7-4.045.716-3.211,5.448-3.034,6.267-1.374-4.143-.734-7.869,1.683-8.644,2.315-.75,5.481,1.459,7.635,5.074" fill="#121364" opacity="0.3"/>
  <path id="Path_5470" data-name="Path 5470" d="M52.4,80.846c.038.1.074.19.1.284-.214-.424-3.823-7.249-7.988-5.55-4.042,1.651-2.121,7.462-1.873,8.154-.062-.123-.121-.256-.173-.39-1.817-4.38-1.092-8.575,1.664-9.313,2.783-.74,6.512,2.341,8.267,6.815" fill="#121364" opacity="0.3"/>
  <path id="Path_5471" data-name="Path 5471" d="M40.1,37.332s2.84,1.506,8.479-.235a13.092,13.092,0,0,0,7.725-6.046s-.479,3.86-7.1,6.383-9.1-.1-9.1-.1" fill="#fff"/>
  <path id="Path_5472" data-name="Path 5472" d="M18.4,42.418s2.305,2.15,9.2-.479,7.441-5.613,7.441-5.613-.439,3.7-7,6.464-9.342.068-9.646-.372" fill="#fff"/>
  <path id="Path_5473" data-name="Path 5473" d="M61.741,30.928s1.658,3.7,10.046.21,6.869-6.767,6.869-6.767,1.872,3.679-6.419,7.326-10.351-.051-10.5-.769" fill="#fff"/>
  <path id="Path_5474" data-name="Path 5474" d="M51.283,97.29c-8.246-2.493-18.77-6.482-20.951-8.932-2.927-3.28-13.375-24.514-17.947-36.126l-.006-.124S22.993,75.6,30.429,84.068C37.642,92.27,50.488,97,51.283,97.29" fill="#fdd0ff"/>
  <path id="Path_5475" data-name="Path 5475" d="M47.155,45.1c-3.93.172-2.662-7.283,6.414-7.377s.025,7.095-6.414,7.377" fill="#fff"/>
  <rect id="frame" width="120" height="120" fill="none"/>
</svg>
