<svg id="dictionary" xmlns="http://www.w3.org/2000/svg" width="120" height="120" viewBox="0 0 120 120">
  <path id="Path_3332" data-name="Path 3332" d="M597.076,1000.139c-1-3.325-19.009-64.808-19.009-64.808l-44-1.917-5.69-1.231.224,2.009c-7.069-.906-38.409-4.9-43.06-5.149-5.249-.278-5.052,4.268-5.052,4.268s-.033,54.684.26,60.27,4.152,4.6,4.152,4.6l50.854.384c5.188,5.018,9.032.887,9.032.887l49.952,4.045A2.38,2.38,0,0,0,597.076,1000.139Z" transform="translate(-480 -900)" opacity="0.3"/>
  <path id="Path_3333" data-name="Path 3333" d="M537.363,995.358l-51.522-.39s-3.911,1-4.208-4.658-.263-61.061-.263-61.061-.2-4.607,5.118-4.325,45.061,5.4,45.061,5.4Z" transform="translate(-480 -900)" fill="#c1272d"/>
  <path id="Path_3334" data-name="Path 3334" d="M537.682,993.881l-50.274-.38s-3.815.977-4.1-4.545-.257-59.582-.257-59.582-.194-4.494,4.995-4.22,43.968,5.271,43.968,5.271Z" transform="translate(-480 -900)" fill="#d62b37"/>
  <path id="Path_3335" data-name="Path 3335" d="M546.513,996.256l50.609,4.1a2.412,2.412,0,0,0,2.367-3.4c-1.01-3.369-19.26-65.659-19.26-65.659l-46.542-2.028Z" transform="translate(-480 -900)" fill="#c1272d"/>
  <path id="Path_3336" data-name="Path 3336" d="M546.362,995.24l49.919,4.042a2.379,2.379,0,0,0,2.335-3.353c-1-3.324-19-64.766-19-64.766l-45.909-2Z" transform="translate(-480 -900)" fill="#d62b37"/>
  <path id="Path_3337" data-name="Path 3337" d="M537.363,995.358,529.888,928.1l8.251,1.785,8.374,66.366S542.619,1000.441,537.363,995.358Z" transform="translate(-480 -900)" fill="#c1272d"/>
  <path id="Path_3338" data-name="Path 3338" d="M537.256,993.886l-7.475-67.252,8.251,1.785,8.33,66.821S542.511,998.969,537.256,993.886Z" transform="translate(-480 -900)" fill="#d62b37"/>
  <path id="Path_3339" data-name="Path 3339" d="M541.936,993.848a11.463,11.463,0,0,1-4.887-2.005L491.191,992l-.317-4.559,45.961.816,7.888,1.706,49.152,2.811.78,3.427-48.743-3.083A5.5,5.5,0,0,1,541.936,993.848Z" transform="translate(-480 -900)" opacity="0.3"/>
  <path id="Path_3340" data-name="Path 3340" d="M595.78,995.773l-16.086-69.12s-21.1-11.683-45.753,1.44l8.148,65.095A182.42,182.42,0,0,1,595.78,995.773Z" transform="translate(-480 -900)" fill="#e6e6e6"/>
  <path id="Path_3341" data-name="Path 3341" d="M544.968,992.589s31.687-3.254,46.79.593l-.686-3.191-33.533-.011S545.47,990.347,544.968,992.589Z" transform="translate(-480 -900)" opacity="0.1"/>
  <path id="Path_3342" data-name="Path 3342" d="M596.42,992.815,580.334,923.7s-21.744-8.725-46.393,4.4l8.148,65.095A138.8,138.8,0,0,1,596.42,992.815Z" transform="translate(-480 -900)" fill="#f2f2f2"/>
  <path id="Path_3343" data-name="Path 3343" d="M545.131,992.263s27.16-6.19,47.405-2.679l-1.394-4.938-44.937-1.536Z" transform="translate(-480 -900)" opacity="0.1"/>
  <path id="Path_3344" data-name="Path 3344" d="M599.522,989.26l-16.086-69.119s-24.846-5.171-49.495,7.952l8.148,65.095S570.593,983.429,599.522,989.26Z" transform="translate(-480 -900)" fill="#fff"/>
  <path id="Path_3345" data-name="Path 3345" d="M489.262,991.96l-.535-68.345s21.081-10.813,45.167,4.473l8.187,65.091S516.966,984.938,489.262,991.96Z" transform="translate(-480 -900)" fill="#ccc"/>
  <path id="Path_3346" data-name="Path 3346" d="M490.432,988.139l.292,2.671s20.21-5.364,38.475-1.072L501.1,985.015Z" transform="translate(-480 -900)" opacity="0.1"/>
  <path id="Path_3347" data-name="Path 3347" d="M487.7,990.155l-.535-68.345s22.646-9.008,46.732,6.278l8.187,65.091S515.4,983.132,487.7,990.155Z" transform="translate(-480 -900)" fill="#e6e6e6"/>
  <path id="Path_3348" data-name="Path 3348" d="M490.018,984.58l.157,2.2s20.472-3.548,39.2.769l-27.9-5.773Z" transform="translate(-480 -900)" opacity="0.1"/>
  <path id="Path_3349" data-name="Path 3349" d="M485.547,985.779l-.535-68.345a73.884,73.884,0,0,1,48.882,10.654l8.187,65.091S513.251,978.756,485.547,985.779Z" transform="translate(-480 -900)" fill="#f2f2f2"/>
  <path id="Path_3350" data-name="Path 3350" d="M504.807,938.049l-6.538-.309a10.418,10.418,0,0,0-1.247,3.345.822.822,0,0,0,.479.9,4.935,4.935,0,0,0,1.551.259l-.044.924-6.331-.3.044-.925a6.408,6.408,0,0,0,.968-.139,2.547,2.547,0,0,0,.731-.29,2.042,2.042,0,0,0,.569-.517,4.746,4.746,0,0,0,.477-.8l6.8-14.939,1.709.081,4.884,13.754q.431,1.2.733,1.887a3.619,3.619,0,0,0,.668,1.062,2.08,2.08,0,0,0,.854.538,7.308,7.308,0,0,0,1.273.269l-.045.947-8.733-.413.044-.947a5.561,5.561,0,0,0,1.605-.156.719.719,0,0,0,.521-.716,2.891,2.891,0,0,0-.123-.84q-.138-.515-.38-1.268Zm-5.941-1.671,5.5.26-2.326-7.126-.093,0Z" transform="translate(-480 -900)" fill="#333"/>
  <path id="Path_3351" data-name="Path 3351" d="M586.067,977.729l-16.875,1.383-.043-.531,10.283-16.971-5.832.477a3.536,3.536,0,0,0-2.5,1.064,4.867,4.867,0,0,0-.97,2.748l-.9.074-.016-4.733,14.938-1.224.044.531-10.176,16.87,6.593-.54a8.3,8.3,0,0,0,2.023-.375,2.645,2.645,0,0,0,1.231-.843,3.651,3.651,0,0,0,.657-1.47,15.235,15.235,0,0,0,.3-2.276l1.06-.087Z" transform="translate(-480 -900)" fill="#333"/>
  <path id="Path_3352" data-name="Path 3352" d="M515.016,930.886a42.619,42.619,0,0,1,13.122,4.275" transform="translate(-480 -900)" fill="none" stroke="#333" stroke-linecap="round" stroke-width="1"/>
  <path id="Path_3353" data-name="Path 3353" d="M515.848,937.585a42.608,42.608,0,0,1,13.122,4.275" transform="translate(-480 -900)" fill="none" stroke="#333" stroke-linecap="round" stroke-width="1"/>
  <path id="Path_3354" data-name="Path 3354" d="M516.369,944.327a42.6,42.6,0,0,1,13.122,4.275" transform="translate(-480 -900)" fill="none" stroke="#333" stroke-linecap="round" stroke-width="1"/>
  <path id="Path_3355" data-name="Path 3355" d="M494.934,951.485c6.512-2.983,32.348,1.3,36.584,5.4" transform="translate(-480 -900)" fill="none" stroke="#333" stroke-linecap="round" stroke-width="1"/>
  <path id="Path_3356" data-name="Path 3356" d="M495.155,961.324c6.512-2.984,32.347,1.3,36.584,5.4" transform="translate(-480 -900)" fill="none" stroke="#333" stroke-linecap="round" stroke-width="1"/>
  <path id="Path_3357" data-name="Path 3357" d="M495.375,971.162c6.512-2.983,32.348,1.3,36.585,5.4" transform="translate(-480 -900)" fill="none" stroke="#333" stroke-linecap="round" stroke-width="1"/>
  <path id="Path_3358" data-name="Path 3358" d="M541.524,935.967c5.287-4.833,31.193-8.665,36.481-6.058" transform="translate(-480 -900)" fill="none" stroke="#333" stroke-linecap="round" stroke-width="1"/>
  <path id="Path_3359" data-name="Path 3359" d="M542.6,942.725c5.287-4.833,31.193-8.665,36.481-6.058" transform="translate(-480 -900)" fill="none" stroke="#333" stroke-linecap="round" stroke-width="1"/>
  <path id="Path_3360" data-name="Path 3360" d="M544.278,949.714c5.287-4.834,31.193-8.666,36.482-6.059" transform="translate(-480 -900)" fill="none" stroke="#333" stroke-linecap="round" stroke-width="1"/>
  <path id="Path_3361" data-name="Path 3361" d="M545.734,957.952c6.855-4.353,30.47-7.959,36.482-6.058" transform="translate(-480 -900)" fill="none" stroke="#333" stroke-linecap="round" stroke-width="1"/>
  <path id="Path_3362" data-name="Path 3362" d="M547.436,966.342c2.276-2.081,7.607-4.368,14.336-4.674" transform="translate(-480 -900)" fill="none" stroke="#333" stroke-linecap="round" stroke-width="1"/>
  <path id="Path_3363" data-name="Path 3363" d="M548.961,974.133c3.551-2.54,8.016-3.712,15.324-4.146" transform="translate(-480 -900)" fill="none" stroke="#333" stroke-linecap="round" stroke-width="1"/>
  <path id="Path_3364" data-name="Path 3364" d="M549.589,982.04c2.3-2.1,9.458-4.336,16.463-4.21" transform="translate(-480 -900)" fill="none" stroke="#333" stroke-linecap="round" stroke-width="1"/>
  <rect id="Frame" width="120" height="120" fill="none"/>
</svg>
