<svg id="icon-half-opacity" xmlns="http://www.w3.org/2000/svg" width="120" height="120" viewBox="0 0 120 120">
  <rect id="Frame" width="120" height="120" fill="none"/>
  <path id="dopr-shadow" d="M1265.055,1629.945a35.993,35.993,0,0,1-35.826-32.586c-.106,1.124-.173,2.26-.173,3.412a36,36,0,0,0,72,0c0-1.152-.067-2.288-.173-3.412A35.991,35.991,0,0,1,1265.055,1629.945Z" transform="translate(-1205.021 -1530.944)" fill="rgba(0,0,0)" opacity="0.3"/>
  <path id="colour" d="M1301.023,1587.766c0-.216.033-.425.033-.641s-.029-.425-.033-.64v-.137h-.006a35.969,35.969,0,0,0-71.922,0h-.108v8.8h.131a35.957,35.957,0,0,0,71.877,0h.028v-.57c0-.214.033-.421.033-.635s-.028-.422-.033-.636Zm-35.968,32.256v-65.8a32.9,32.9,0,0,1,0,65.8Z" transform="translate(-1205.021 -1530.944)" opacity="0.7" fill="current"/>
  <path id="shadow" d="M1265.055,1623.122a35.993,35.993,0,0,1-35.826-32.586c-.106,1.124-.173,2.26-.173,3.412a36,36,0,0,0,72,0c0-1.152-.067-2.288-.173-3.412A35.991,35.991,0,0,1,1265.055,1623.122Z" transform="translate(-1205.021 -1530.944)" fill="rgba(0,0,0)" opacity="0.5"/>
</svg>
