<svg id="icon-drawing-arrow-up" xmlns="http://www.w3.org/2000/svg" width="120" height="120" viewBox="0 0 120 120">
  <rect id="frame" width="120" height="120" fill="none"/>
  <path id="drop-shadow" d="M1369.324,1373.073l-7.584,7.689a5.984,5.984,0,0,1-3.9,1.686,5.468,5.468,0,0,1-3.791-1.686l-16.75-16.538-16.645,16.643a5.4,5.4,0,0,1-3.9,1.581,5.466,5.466,0,0,1-3.793-1.686l-7.689-7.689a5.259,5.259,0,0,1-1.052-1.353,5.438,5.438,0,0,0-.634,2.353,5.232,5.232,0,0,0,1.686,4l7.689,7.689a5.466,5.466,0,0,0,3.793,1.686,5.4,5.4,0,0,0,3.9-1.581l16.645-16.643,16.75,16.538a5.468,5.468,0,0,0,3.791,1.686,5.984,5.984,0,0,0,3.9-1.686l7.584-7.689c1.369-.952,1.687-2.214,1.687-3.9a4.748,4.748,0,0,0-.535-2.341A3.673,3.673,0,0,1,1369.324,1373.073Z" transform="translate(-1277.299 -1299.012)" fill="rgba(0,0,0)" opacity="0.3"/>
  <path id="colour" d="M1371.011,1364.173a4.746,4.746,0,0,0-1.687-3.793l-28.234-28.118a5.159,5.159,0,0,0-3.9-1.686,5.1,5.1,0,0,0-3.793,1.686l-28.125,28.02a5.464,5.464,0,0,0-1.686,3.791,5.24,5.24,0,0,0,.634,2.647,5.438,5.438,0,0,0-.634,2.353,5.232,5.232,0,0,0,1.686,4l7.689,7.689a5.466,5.466,0,0,0,3.793,1.686,5.4,5.4,0,0,0,3.9-1.581l16.645-16.643,16.75,16.538a5.468,5.468,0,0,0,3.791,1.686,5.984,5.984,0,0,0,3.9-1.686l7.584-7.689c1.369-.952,1.687-2.214,1.687-3.9a4.748,4.748,0,0,0-.535-2.341A5.377,5.377,0,0,0,1371.011,1364.173Z" transform="translate(-1277.299 -1299.012)" fill="current"/>
  <path id="shadow" d="M1369.324,1368.073l-7.584,7.689a5.984,5.984,0,0,1-3.9,1.686,5.468,5.468,0,0,1-3.791-1.686l-16.75-16.538-16.645,16.643a5.4,5.4,0,0,1-3.9,1.581,5.466,5.466,0,0,1-3.793-1.686l-7.689-7.689a5.259,5.259,0,0,1-1.052-1.353,5.438,5.438,0,0,0-.634,2.353,5.232,5.232,0,0,0,1.686,4l7.689,7.689a5.466,5.466,0,0,0,3.793,1.686,5.4,5.4,0,0,0,3.9-1.581l16.645-16.643,16.75,16.538a5.468,5.468,0,0,0,3.791,1.686,5.984,5.984,0,0,0,3.9-1.686l7.584-7.689c1.369-.952,1.687-2.214,1.687-3.9a4.748,4.748,0,0,0-.535-2.341A3.673,3.673,0,0,1,1369.324,1368.073Z" transform="translate(-1277.299 -1299.012)" fill="rgba(0,0,0)" opacity="0.5"/>
</svg>
