<svg id="icon-small-line" xmlns="http://www.w3.org/2000/svg" width="120" height="120" viewBox="0 0 120 120">
  <path id="drop-shadow" d="M977.915,2106.854c-.312-11.414-11.087-19-11.434-19.236-3.852-3-6.172-5.988-6.971-8.912,1.156-4.284,5.149-7.94,6.832-9.128,2.106-1.47,2.377-10.056,1.282-11.643a5.1,5.1,0,0,0-7.1-1.3c-.458.319-11.222,7.892-11.547,19.288a18.787,18.787,0,0,0,.144,2.841c-.068.561-.129,1.125-.144,1.706-.2,7.137,3.575,13.782,11.275,19.783l.309.228c1.564,1.081,5.65,4.777,6.821,9.116-.8,2.945-3.147,5.955-7.044,8.976-1.962,1.522-2.144,10.113-.906,11.709a5.107,5.107,0,0,0,7.163.907c7.707-5.976,11.517-12.635,11.323-19.793C977.9,2110.814,977.941,2107.8,977.915,2106.854Z" transform="translate(-903.445 -2031.725)" fill="rgba(0,0,0)" opacity="0.3"/>
  <path id="colour" d="M977.915,2102.306c-.312-11.413-11.087-19-11.434-19.235-3.852-3-6.172-5.988-6.971-8.912,1.156-4.285,5.149-7.941,6.832-9.128,2.106-1.471,2.377-10.056,1.282-11.643a5.1,5.1,0,0,0-7.1-1.295c-.458.318-11.222,7.891-11.547,19.287a18.806,18.806,0,0,0,.144,2.842c-.068.561-.129,1.125-.144,1.706-.2,7.137,3.575,13.782,11.275,19.783l.309.228c1.564,1.081,5.65,4.776,6.821,9.115-.8,2.946-3.147,5.956-7.044,8.977-1.962,1.521-2.144,10.113-.906,11.708a5.105,5.105,0,0,0,7.163.908c7.707-5.977,11.517-12.636,11.323-19.793C977.9,2106.266,977.941,2103.257,977.915,2102.306Z" transform="translate(-903.445 -2031.725)" fill="current"/>
  <g id="shadow" transform="translate(-903.445 -2031.725)" fill="rgba(0,0,0)" opacity="0.5">
    <path id="Path_1794" data-name="Path 1794" d="M968.245,2057.922a5.069,5.069,0,0,1-1.9,2.561c-1.953,1.378-7.037,6.074-7.162,11.226a8.518,8.518,0,0,0,.33,2.45c1.156-4.285,5.149-7.941,6.832-9.128C967.581,2064.165,968.181,2060.839,968.245,2057.922Z"/>
    <path id="Path_1795" data-name="Path 1795" d="M977.915,2102.306h0c.194,7.158-3.616,13.817-11.323,19.793a5.043,5.043,0,0,1-7.906-2.3c-.143,2.557.119,5.137.743,5.941a5.105,5.105,0,0,0,7.163.908c7.707-5.977,11.517-12.636,11.323-19.793C977.9,2106.266,977.941,2103.257,977.915,2102.306Z"/>
    <path id="Path_1796" data-name="Path 1796" d="M960.558,2095.939c1.564,1.081,5.65,4.776,6.821,9.115a10.051,10.051,0,0,1-.326.97,8.859,8.859,0,0,0,.654-3.441c-.139-5.2-5.339-9.941-7.149-11.192l-.309-.228c-6.67-5.2-10.385-10.88-11.131-16.945v0c-.068.561-.129,1.125-.144,1.706-.2,7.137,3.575,13.782,11.275,19.783Z"/>
  </g>
  <rect id="Frame" width="120" height="120" fill="none"/>
</svg>
