<svg id="icon-full-opacity" xmlns="http://www.w3.org/2000/svg" width="120" height="120" viewBox="0 0 120 120">
  <path id="drop-shadow" d="M1265.055,1754.33a35.994,35.994,0,0,1-35.826-32.587c-.106,1.124-.173,2.26-.173,3.412a36,36,0,0,0,72,0c0-1.152-.067-2.288-.173-3.412A35.992,35.992,0,0,1,1265.055,1754.33Z" transform="translate(-1205.021 -1655.582)" fill="rgba(0,0,0)" opacity="0.3"/>
  <path id="colour" d="M1301.023,1712.15c0-.215.033-.424.033-.641s-.029-.425-.033-.64v-.136h-.006a35.969,35.969,0,0,0-71.922,0h-.108v8.8h.131a35.957,35.957,0,0,0,71.877,0h.028v-.57c0-.213.033-.421.033-.635s-.028-.422-.033-.635Z" transform="translate(-1205.021 -1655.582)" fill="current"/>
  <path id="shadow" d="M1265.055,1747.507a35.993,35.993,0,0,1-35.826-32.586c-.106,1.124-.173,2.259-.173,3.411a36,36,0,0,0,72,0c0-1.152-.067-2.287-.173-3.411A35.991,35.991,0,0,1,1265.055,1747.507Z" transform="translate(-1205.021 -1655.582)" fill="rgba(0,0,0)" opacity="0.5"/>
  <rect id="Frame" width="120" height="120" fill="none"/>
</svg>
