<svg id="drawings" xmlns="http://www.w3.org/2000/svg" width="70" height="70" viewBox="0 0 70 70">
  <path id="Path_5314" data-name="Path 5314" d="M54.541,51.46V14.95H46.306L45.3,4.6l-3.373-.029,1.01,10.375H41.17V10.834H36.7V2.259H33.28v8.575H28.829v4.113H27.048l1.01-10.374L24.684,4.6,23.677,14.947H15.458V51.458H10.317v6.416H19.5L18.318,70l3.373-.022,1.178-12.1H33.281v7.384H36.7v-7.38H47.114l1.178,12.1L51.666,70l-1.18-12.122h9.2V51.462Z" opacity="0.3"/>
  <rect id="Rectangle_2971" data-name="Rectangle 2971" width="49.366" height="67.741" transform="translate(10.317 2.259)" fill="none"/>
  <rect id="Rectangle_2972" data-name="Rectangle 2972" width="70" height="70" fill="none"/>
  <rect id="Rectangle_2973" data-name="Rectangle 2973" width="3.421" height="63.003" transform="translate(33.281)" fill="#442f2a"/>
  <path id="Path_5315" data-name="Path 5315" d="M21.691,67.72l-3.373.022,6.367-65.4,3.373-.029Z" fill="#442f2a"/>
  <path id="Path_5316" data-name="Path 5316" d="M48.292,67.72l3.373.022L45.3,2.346l-3.373-.029Z" fill="#442f2a"/>
  <path id="Path_5317" data-name="Path 5317" d="M35,12.692H15.458V54.859H54.542V12.692Z" fill="#fff0dd"/>
  <rect id="Rectangle_2974" data-name="Rectangle 2974" width="9.788" height="6.119" transform="translate(16.113 44.563)" fill="none"/>
  <rect id="Rectangle_2975" data-name="Rectangle 2975" width="1.542" height="1.751" transform="translate(15.942 42.946)" fill="none"/>
  <rect id="Rectangle_2976" data-name="Rectangle 2976" width="38.496" height="7.825" transform="translate(15.931 42.91)" fill="none"/>
  <rect id="Rectangle_2977" data-name="Rectangle 2977" width="70" height="70" fill="none"/>
  <path id="Path_5330" data-name="Path 5330" d="M35,49.716H10.317v5.9H59.683v-5.9Z" fill="#6d4c41"/>
  <path id="Path_5331" data-name="Path 5331" d="M35,49.2H10.317v3.085h36.51V49.2Z" fill="#b7988e"/>
  <rect id="Rectangle_2978" data-name="Rectangle 2978" width="13.679" height="3.085" transform="translate(46.005 49.202)" fill="#b7988e"/>
  <path id="Path_5332" data-name="Path 5332" d="M35,49.716H10.317V52.8h36.51V49.716Z" fill="#8a6e63"/>
  <rect id="Rectangle_2979" data-name="Rectangle 2979" width="13.679" height="3.085" transform="translate(46.005 49.716)" fill="#8a6e63"/>
  <rect id="Rectangle_2980" data-name="Rectangle 2980" width="12.342" height="4.114" transform="translate(28.829 8.578)" fill="#b7988e"/>
  <rect id="Rectangle_2981" data-name="Rectangle 2981" width="12.342" height="4.114" transform="translate(28.829 9.092)" fill="#8a6e63"/>
  <path id="Path_5333" data-name="Path 5333" d="M19.059,51.317a1.03,1.03,0,1,1-1.028-.972,1.015,1.015,0,0,1,1.028.972m31.882,0a1.03,1.03,0,1,0,1.028-.972,1.015,1.015,0,0,0-1.028.972" fill="#ccd5d9"/>
  <path id="Path_5334" data-name="Path 5334" d="M15.966,43.22s.031.947,1.615,1.19a15.534,15.534,0,0,0,4.12.1c1.346-.13,2.509-.195,3.626,1.387s-.576,2.845-1.68,3.262-2.259.6-4.331-1.069-3.378-3.368-3.35-4.873" fill="#c3ae95"/>
  <path id="Path_5335" data-name="Path 5335" d="M25.278,47.227c.292-2.176-2.79-1.541-4.325-1.441s-3.939-.35-4.484-1.214a2.043,2.043,0,0,1-.383-.992.869.869,0,0,1-.117-.36c.074,1.958,1.279,3.2,3.35,4.873s3.228,1.486,4.331,1.068c.064-.024.129-.05.2-.08a2.686,2.686,0,0,0,1.432-1.854" fill="#958275"/>
  <path id="Path_5336" data-name="Path 5336" d="M20.175,48.715a3.669,3.669,0,0,0,3.733.481c.068-.025.138-.055.21-.086a2.891,2.891,0,0,0,1.542-1.994c0-.019.005-.037.007-.058l-.028.009a7.764,7.764,0,0,1-5.464,1.648" fill="#736358"/>
  <path id="Path_5337" data-name="Path 5337" d="M15.966,43.22s.031.947,1.615,1.19a15.534,15.534,0,0,0,4.12.1c1.346-.13,2.509-.195,3.626,1.387s-.576,2.845-1.68,3.262-2.259.6-4.331-1.069-3.378-3.368-3.35-4.873" fill="#fff" opacity="0.3"/>
  <path id="Path_5338" data-name="Path 5338" d="M45.925,46.673c-5.146-.648-15.167-.843-15.167-.843-.84.014-5.456.058-5.456.058l-.088,2.154s4.9.467,5.27.538c0,0,9.891,1.146,15.615,1.057,12.352-.191,9.163-1.789-.174-2.964" fill="#016289"/>
  <path id="Path_5339" data-name="Path 5339" d="M30.761,45.83c-.607.01-3.186.037-4.57.051l.249,1.641s29.677,2.523,27.31.725c-1.05-.508-3.892-1.078-7.825-1.575-5.145-.647-15.164-.842-15.164-.842" fill="#0971b4"/>
  <path id="Path_5340" data-name="Path 5340" d="M30.761,45.83c-.587.01-3.022.036-4.433.05l.161.512S57.961,49.115,50.456,47.4l-.777-.175c-1.092-.189-2.354-.375-3.754-.551-5.145-.648-15.164-.843-15.164-.843" fill="#1498d4"/>
  <path id="Path_5341" data-name="Path 5341" d="M25.217,48.043s.507.048,1.208.117l.084-2.283-1.2.012Z" fill="#f5ac3c"/>
  <path id="Path_5342" data-name="Path 5342" d="M25.286,46.317l1.2.074.019-.514-1.2.012Z" fill="#f5e531"/>
  <path id="Path_5343" data-name="Path 5343" d="M25.217,48.043s.507.048,1.208.117l.024-.661-1.178-.006h-.032Z" fill="#ef8f22"/>
  <path id="Path_5344" data-name="Path 5344" d="M17.011,43.85a.508.508,0,0,0,.467.546.371.371,0,0,1,.031.736c-.344.014-.133.939.323,1.265s-.417.017-.809-.532a4.824,4.824,0,0,1-.6-1.4s.053-1.6.587-.615" fill="#b200b7"/>
  <path id="Path_5345" data-name="Path 5345" d="M18.626,47.507S15.64,45.331,15.8,42.786s2.137-.493,1.362.82a2.229,2.229,0,0,0,.785,2.862c.515.406.911.792.684,1.039" fill="#f0f"/>
  <path id="Path_5346" data-name="Path 5346" d="M17.3,43.163s-.314-.86-.918-.638a.876.876,0,0,0-.578.826s-.116-1.4.505-1.7,1.192.983.992,1.508" fill="#fff" opacity="0.3"/>
  <path id="Path_5347" data-name="Path 5347" d="M36.306,18.493c1.907.309-.033,5.057-.567,6.219a2.725,2.725,0,0,1-2.815,1.672c-3.971-.639-1.572-8.694,3.382-7.891" fill="#1d1d1b" opacity="0.3"/>
  <path id="Path_5348" data-name="Path 5348" d="M23.487,28.247c-.079-2.009.727-4.476,2.2-5.075.707-.288,2.29,2.323,2.666,3.483a3.067,3.067,0,0,1,.031,2.136A2.687,2.687,0,0,1,25.1,30.685a2.519,2.519,0,0,1-1.609-2.438" fill="#1d1d1b" opacity="0.3"/>
  <path id="Path_5349" data-name="Path 5349" d="M40.387,29.024a2.671,2.671,0,0,1-1.168-2.98c.283-1.219,1.635-6.046,3.3-5.143,4.305,2.351,1.32,10-2.128,8.123" fill="#1d1d1b" opacity="0.3"/>
  <path id="Path_5350" data-name="Path 5350" d="M46.736,36.064a2.524,2.524,0,0,1-2.767.922,2.682,2.682,0,0,1-1.424-3.493,3.037,3.037,0,0,1,1.331-1.665c1.009-.672,3.846-1.761,4.225-1.108.789,1.377-.087,3.807-1.365,5.344" fill="#1d1d1b" opacity="0.3"/>
  <path id="Path_5351" data-name="Path 5351" d="M40.1,40.049a7.661,7.661,0,0,1-4.63,4.375c-1.606.547-2.644-.977-4.322-1.662-1.378-.56-3.24.017-4.025-1.143a7.622,7.622,0,0,1-.7-7.148c.638-1.559,2.284-2,3.6-2.826,1.949-1.22,3.85-2.328,6.1-1.406,2.118.861,2.853,2.8,3.473,4.863.494,1.612,1.206,3.247.506,4.947" fill="#1d1d1b" opacity="0.3"/>
  <path id="Path_5352" data-name="Path 5352" d="M35.848,16.842c1.907.309-.032,5.057-.566,6.219a2.725,2.725,0,0,1-2.816,1.672c-3.972-.64-1.569-8.695,3.382-7.891" fill="#89c33f"/>
  <path id="Path_5353" data-name="Path 5353" d="M23.03,26.595c-.079-2.008.727-4.475,2.2-5.075.707-.288,2.29,2.323,2.666,3.483a3.055,3.055,0,0,1,.031,2.136,2.688,2.688,0,0,1-3.289,1.894,2.522,2.522,0,0,1-1.609-2.438" fill="#f0f"/>
  <path id="Path_5354" data-name="Path 5354" d="M39.927,27.373a2.671,2.671,0,0,1-1.167-2.98c.283-1.22,1.637-6.047,3.3-5.143,4.307,2.35,1.323,10-2.129,8.123" fill="#29a8df"/>
  <path id="Path_5355" data-name="Path 5355" d="M46.279,34.411a2.521,2.521,0,0,1-2.766.922A2.68,2.68,0,0,1,42.09,31.84a3.031,3.031,0,0,1,1.33-1.665c1.009-.672,3.846-1.761,4.225-1.108.789,1.379-.086,3.806-1.366,5.344" fill="gold"/>
  <path id="Path_5356" data-name="Path 5356" d="M40.233,37.886a7.658,7.658,0,0,1-4.63,4.378c-1.606.547-2.644-.978-4.322-1.662-1.378-.56-3.24.017-4.025-1.143a7.623,7.623,0,0,1-.7-7.147c.642-1.558,2.285-2,3.6-2.825,1.949-1.221,3.85-2.329,6.1-1.407,2.119.861,2.854,2.8,3.475,4.863.491,1.607,1.2,3.243.505,4.943" fill="#754c24"/>
  <path id="Path_5357" data-name="Path 5357" d="M27.043,23.264c-.612-1-1.378-1.92-1.812-1.743-1.445.587-2.247,2.968-2.2,4.954a33.089,33.089,0,0,1,4.016-3.211" fill="#fff" opacity="0.2"/>
  <path id="Path_5358" data-name="Path 5358" d="M35.848,16.842c-2.907-.472-4.934,2.109-5.308,4.451a11.3,11.3,0,0,1,5.808-1.132c.429-1.559.577-3.144-.5-3.319" fill="#fff" opacity="0.2"/>
  <path id="Path_5359" data-name="Path 5359" d="M42.06,19.25c-.912-.5-1.728.733-2.328,2.144a13.82,13.82,0,0,1,3.977,4.015c.876-2.028.694-4.879-1.649-6.159" fill="#fff" opacity="0.2"/>
  <path id="Path_5360" data-name="Path 5360" d="M47.644,29.07c-.191-.331-1.012-.216-1.908.066a25.97,25.97,0,0,1,1.38,4.037c.767-1.408,1.127-3.059.528-4.1" fill="#fff" opacity="0.2"/>
  <path id="Path_5361" data-name="Path 5361" d="M39.731,32.942c-.622-2.066-1.356-4-3.476-4.863-2.253-.921-4.151.186-6.1,1.406-1.318.829-2.964,1.268-3.6,2.826a7.869,7.869,0,0,0-.282.821c2.1-.456,5.585-.916,8.466.128a13.194,13.194,0,0,1,5.511,4.584c.67-1.685-.036-3.307-.518-4.9" fill="#fff" opacity="0.2"/>
  <path id="Path_5362" data-name="Path 5362" d="M23.827,25.1c.121-.655.569-1.38,1.1-1.471.248-.037.576.924.584,1.328a1.062,1.062,0,0,1-.143.711.875.875,0,0,1-1.172.385l-.037-.02a.947.947,0,0,1-.337-.933" fill="#fff" opacity="0.3"/>
  <path id="Path_5363" data-name="Path 5363" d="M31.7,29.887a3.168,3.168,0,0,0-.589.456c-.192.184-.353.434-.561.6-.094.075-.205.137-.306.206-.228.155-.454.314-.678.475q-.385.277-.763.567a1.132,1.132,0,0,0-.253.21,2.156,2.156,0,0,0-.11.233,2.778,2.778,0,0,0-.287.747,1.378,1.378,0,0,0,.066.711,1.1,1.1,0,0,0,.178.4,1.947,1.947,0,0,0,1.33.533,2.127,2.127,0,0,0,1.758-.88c.364-.513.489-1.161.881-1.655a1.381,1.381,0,0,1,.479-.416,1.98,1.98,0,0,0,.346-.273,5.261,5.261,0,0,0,.642-.676,1.616,1.616,0,0,0,.434-1.073c-.041-.544-.547-.739-1.02-.7a3.655,3.655,0,0,0-1.547.533" fill="#fff" opacity="0.3"/>
  <path id="Path_5364" data-name="Path 5364" d="M34.111,18.515c.635.219-.35,1.707-.608,2.059a.946.946,0,0,1-1.046.383c-1.28-.509.073-3.056,1.654-2.442" fill="#fff" opacity="0.3"/>
  <path id="Path_5365" data-name="Path 5365" d="M40.465,22.594a.911.911,0,0,1-.218-1.05c.153-.374.862-1.874,1.357-1.488,1.277,1-.128,3.351-1.139,2.538" fill="#fff" opacity="0.3"/>
  <path id="Path_5366" data-name="Path 5366" d="M46.664,31.712a.943.943,0,0,1-.992.394.988.988,0,0,1-.577-1.249,1.28,1.28,0,0,1,.467-.642c.366-.276,1.362-.7,1.517-.486a2.015,2.015,0,0,1-.415,1.983" fill="#fff" opacity="0.3"/>
  <rect id="frame" width="70" height="70" fill="none"/>
</svg>
