<svg id="icon-stickers" xmlns="http://www.w3.org/2000/svg" xmlns:xlink="http://www.w3.org/1999/xlink" width="120" height="120" viewBox="0 0 120 120">
  <defs>
    <clipPath id="clip-path">
      <rect id="Rectangle_1597" data-name="Rectangle 1597" width="92.567" height="105.08" fill="none"/>
    </clipPath>
    <clipPath id="clip-path-3">
      <rect id="Rectangle_1595" data-name="Rectangle 1595" width="62.232" height="63.157" transform="translate(15.005)" fill="none"/>
    </clipPath>
  </defs>
  <rect id="frame" width="120" height="120" fill="none"/>
  <g id="Group_1612" data-name="Group 1612" transform="translate(13.395 5.936)">
    <g id="Group_1611" data-name="Group 1611" clip-path="url(#clip-path)">
      <g id="Group_1610" data-name="Group 1610">
        <g id="Group_1609" data-name="Group 1609" clip-path="url(#clip-path)">
          <g id="Group_1608" data-name="Group 1608" opacity="0.2">
            <g id="Group_1607" data-name="Group 1607">
              <g id="Group_1606" data-name="Group 1606" clip-path="url(#clip-path-3)">
                <path id="Path_1829" data-name="Path 1829" d="M29.439,62.958a65,65,0,0,1,16.169-1.973A64.548,64.548,0,0,1,62.52,63.157c8.833-6.024,14.717-16.763,14.717-29.014C77.237,15.286,63.306,0,46.121,0S15.005,15.286,15.005,34.143c0,12.119,5.76,22.756,14.434,28.815"/>
              </g>
            </g>
          </g>
          <path id="Path_1830" data-name="Path 1830" d="M25.726,64.066a62.455,62.455,0,0,1,19.882-3.081,61.933,61.933,0,0,1,20.6,3.326,33.231,33.231,0,1,0-40.477-.245" fill="#fff"/>
          <path id="Path_1831" data-name="Path 1831" d="M68.313,37.843A22.192,22.192,0,1,1,46.12,15.651,22.193,22.193,0,0,1,68.313,37.843" fill="#e21b72"/>
          <path id="Path_1832" data-name="Path 1832" d="M58.956,37.843A12.836,12.836,0,1,1,46.121,25.008,12.835,12.835,0,0,1,58.956,37.843"/>
          <path id="Path_1833" data-name="Path 1833" d="M58.87,46.274a3.119,3.119,0,1,1-3.119-3.119,3.118,3.118,0,0,1,3.119,3.119" fill="#fff"/>
          <path id="Path_1834" data-name="Path 1834" d="M42.076,25.4a6.785,6.785,0,1,1-9.6,0,6.785,6.785,0,0,1,9.6,0" fill="#fff"/>
          <path id="Path_1835" data-name="Path 1835" d="M.008,71.662S-.38,64.8,4.276,66.325s35.1,16.777,80.1,1.271c0,0,4.849-5.34,7.563-3.051s-1.908,38.963-42.661,40.486S.008,71.662.008,71.662" fill="#2b1940"/>
          <path id="Path_1836" data-name="Path 1836" d="M42.806,94.776s-2.151-2.089-1.529-6.559c.669-4.8,4.434-5.125,5.242-3.69s.052,3.2,0,4.749,2.071,4.062,3.738,2.582.712-4.91,1-6.6,2.115-1.835,3.657-.212,2.46,8.18-.679,10.791-8.95,3.1-11.426-1.059" fill="#110d1e"/>
          <path id="Path_1837" data-name="Path 1837" d="M39.566,92.449c1.024-.745.922-14.7.885-18.04a104.509,104.509,0,0,1-13.184-1.37c1.665,13.055,11.2,20.2,12.3,19.41" fill="#fff"/>
          <path id="Path_1838" data-name="Path 1838" d="M13.1,69.567c.375,9.1,3.414,14.419,3.414,14.419,3.11-2.213,7.4-9.247,8.631-11.33A98.813,98.813,0,0,1,13.1,69.567" fill="#fff"/>
          <path id="Path_1839" data-name="Path 1839" d="M4.276,66.325a4.657,4.657,0,0,0-.54-.145,40.9,40.9,0,0,0,2.7,12.729c2.1-1.541,4.529-7.465,5.412-9.756-3.889-1.319-6.465-2.463-7.575-2.828" fill="#fff"/>
          <path id="Path_1840" data-name="Path 1840" d="M63.378,72.951a115.349,115.349,0,0,1-13.847,1.444c-.042,3.838-.045,14.728,1.222,18.115,0,0,9.127-3.266,12.625-19.559" fill="#fff"/>
          <path id="Path_1841" data-name="Path 1841" d="M78.329,69.522C74.3,70.705,70.4,71.64,66.64,72.367c1.129,2.3,4.639,8.968,8.421,11.055,0,0,2.688-3.226,3.268-13.9" fill="#fff"/>
          <path id="Path_1842" data-name="Path 1842" d="M84.373,67.6q-1.65.568-3.27,1.081c.884,1.646,4.183,7.52,6.951,9.05,0,0,3.309-6.979,4.153-12.786a1.055,1.055,0,0,0-.271-.4c-2.713-2.289-7.563,3.05-7.563,3.05" fill="#fff"/>
          <path id="Path_1843" data-name="Path 1843" d="M35.092,78.488c1.788.11,3.583.177,5.378.216,0-1.865-.01-3.433-.019-4.3a104.546,104.546,0,0,1-13.185-1.37,29.6,29.6,0,0,0,.991,4.708c2.27.348,4.548.6,6.835.741" fill="#d1cce7"/>
          <path id="Path_1844" data-name="Path 1844" d="M16.449,75.134q3.066.87,6.162,1.556c1.134-1.705,2.057-3.234,2.529-4.034A98.813,98.813,0,0,1,13.1,69.567a42.213,42.213,0,0,0,.429,4.545,26.882,26.882,0,0,0,2.925,1.022" fill="#d1cce7"/>
          <path id="Path_1845" data-name="Path 1845" d="M7.927,71.228c.808.493,1.633.963,2.468,1.409.625-1.383,1.142-2.665,1.456-3.484-3.889-1.319-6.465-2.464-7.575-2.828a4.514,4.514,0,0,0-.54-.145c.008.621.045,1.242.1,1.857a34.444,34.444,0,0,0,4.092,3.191" fill="#d1cce7"/>
          <path id="Path_1846" data-name="Path 1846" d="M50.743,78.543A63.506,63.506,0,0,0,62.3,77.069c.4-1.273.764-2.641,1.079-4.118a114.942,114.942,0,0,1-13.847,1.444c-.011,1-.019,2.49,0,4.2.4-.014.812-.031,1.216-.051" fill="#d1cce7"/>
          <path id="Path_1847" data-name="Path 1847" d="M78.252,70.736c.028-.395.055-.8.077-1.214C74.3,70.705,70.4,71.64,66.641,72.367c.324.66.841,1.678,1.507,2.843,3.394-1.328,6.738-2.973,10.1-4.474" fill="#d1cce7"/>
          <path id="Path_1848" data-name="Path 1848" d="M91.9,66.651c.124-.576.23-1.151.31-1.71a1.068,1.068,0,0,0-.271-.4c-2.714-2.288-7.563,3.051-7.563,3.051q-1.65.568-3.271,1.081c.1.179.225.413.375.684a35.866,35.866,0,0,1,10.42-2.71" fill="#d1cce7"/>
          <path id="Path_1849" data-name="Path 1849" d="M49.519,95.907c-11.674-5.113-23.994-.517-29.543,2.177,7.144,4.4,16.675,7.42,29.3,6.948,11.174-.418,19.63-3.478,25.966-7.748-11.319-6.922-25.722-1.377-25.722-1.377" fill="#e84163"/>
          <path id="Path_1850" data-name="Path 1850" d="M22.767,98.075S29.06,93.6,40.2,94.32c0,0,1.655.42.969.845s-10.1-.265-15.655,5.447c0,0-4.642-1.745-2.744-2.537" fill="#ed7180"/>
        </g>
      </g>
    </g>
  </g>
</svg>