<svg id="icon-drawing-arrow-down" xmlns="http://www.w3.org/2000/svg" width="120" height="120" viewBox="0 0 120 120">
  <rect id="frame" width="120" height="120" fill="none"/>
  <path id="drop-shadow" d="M1215.406,1352.742l-28.125,28.02a5.1,5.1,0,0,1-3.793,1.686,5.159,5.159,0,0,1-3.9-1.686l-28.234-28.118a4.714,4.714,0,0,1-1.151-1.452,5.376,5.376,0,0,0-.535,2.659,4.745,4.745,0,0,0,1.686,3.793l28.234,28.118a5.159,5.159,0,0,0,3.9,1.686,5.1,5.1,0,0,0,3.793-1.686l28.125-28.02a5.46,5.46,0,0,0,1.686-3.791,5.229,5.229,0,0,0-.634-2.647A5.437,5.437,0,0,1,1215.406,1352.742Z" transform="translate(-1123.379 -1299.012)" fill="rgba(0,0,0)" opacity="0.3"/>
  <path id="colour" d="M1217.092,1343.951a5.229,5.229,0,0,0-1.686-4l-7.689-7.689a5.466,5.466,0,0,0-3.793-1.686,5.4,5.4,0,0,0-3.9,1.581l-16.645,16.643-16.75-16.538a5.468,5.468,0,0,0-3.791-1.686,5.983,5.983,0,0,0-3.9,1.686l-7.584,7.689c-1.369.952-1.686,2.214-1.686,3.9a4.738,4.738,0,0,0,.535,2.341,5.376,5.376,0,0,0-.535,2.659,4.745,4.745,0,0,0,1.686,3.793l28.234,28.118a5.159,5.159,0,0,0,3.9,1.686,5.1,5.1,0,0,0,3.793-1.686l28.125-28.02a5.46,5.46,0,0,0,1.686-3.791,5.229,5.229,0,0,0-.634-2.647A5.439,5.439,0,0,0,1217.092,1343.951Z" transform="translate(-1123.379 -1299.012)" fill="current"/>
  <path id="shadow" d="M1215.406,1347.742l-28.125,28.02a5.1,5.1,0,0,1-3.793,1.686,5.159,5.159,0,0,1-3.9-1.686l-28.234-28.118a4.714,4.714,0,0,1-1.151-1.452,5.376,5.376,0,0,0-.535,2.659,4.745,4.745,0,0,0,1.686,3.793l28.234,28.118a5.159,5.159,0,0,0,3.9,1.686,5.1,5.1,0,0,0,3.793-1.686l28.125-28.02a5.46,5.46,0,0,0,1.686-3.791,5.229,5.229,0,0,0-.634-2.647A5.437,5.437,0,0,1,1215.406,1347.742Z" transform="translate(-1123.379 -1299.012)" fill="rgba(0,0,0)" opacity="0.5"/>
</svg>
