<svg id="icon-colour-mixer" xmlns="http://www.w3.org/2000/svg" width="120" height="120" viewBox="0 0 120 120">
  <rect id="frame" width="120" height="120" fill="none"/>
  <path id="colour" d="M79.08,25.03a25.019,25.019,0,0,0-48.324-9.111A24.953,24.953,0,0,0,0,40.265c0,.652.048,1.293.1,1.932-.049.64-.1,1.281-.1,1.933a25.019,25.019,0,0,0,48.325,9.111A24.956,24.956,0,0,0,79.08,28.9c0-.653-.048-1.293-.1-1.933.049-.64.1-1.28.1-1.932M.4,44.612c-.006-.032-.01-.065-.015-.1.006.032.009.065.015.1M6.674,57.241c-.153-.166-.307-.331-.455-.5.149.17.3.335.455.5m-1.53-1.819q-.174-.228-.344-.46.169.232.344.46M3.8,53.472c-.084-.135-.166-.271-.248-.408.082.137.164.273.248.408M2.638,51.4c-.056-.113-.109-.226-.164-.34.055.114.108.227.164.34M1.68,49.226c-.033-.088-.064-.177-.1-.265.032.088.063.177.1.265M.933,46.959C.916,46.9.9,46.835.885,46.774c.016.061.031.124.048.185M7.8,58.387c.189.18.385.353.58.527-.195-.174-.391-.347-.58-.527M22.53,65.168c.822.082,1.656.127,2.5.127-.844,0-1.678-.045-2.5-.127M9.525,59.89c.233.185.475.359.716.536-.241-.177-.483-.351-.716-.536m1.87,1.348c.281.183.571.351.86.523-.289-.172-.579-.339-.86-.523m2,1.18c.328.173.668.325,1,.484-.337-.159-.676-.311-1-.484m2.128,1c.377.155.766.285,1.151.422-.386-.137-.774-.267-1.151-.422m2.239.8c.432.131.877.232,1.318.339-.441-.108-.886-.207-1.318-.339M20.1,64.8c.518.1,1.049.17,1.578.241-.529-.071-1.06-.137-1.578-.241M56.55,49.933c-.822.082-1.656.126-2.5.126.844,0,1.678-.044,2.5-.126M70.7,43.682c.2-.176.394-.351.586-.532-.192.182-.389.356-.586.532M57.394,49.81c.53-.071,1.062-.137,1.582-.241-.52.1-1.052.17-1.582.241m2.595-.489c.444-.109.891-.209,1.326-.341-.435.132-.882.232-1.326.341M62.4,48.6c.387-.138.777-.268,1.154-.423-.377.156-.767.285-1.154.423m2.279-.937c.336-.158.675-.311,1-.483-.328.173-.667.325-1,.483m2.148-1.141c.288-.172.579-.339.859-.522-.28.183-.571.35-.859.522m2.012-1.334c.241-.177.484-.351.718-.537-.234.186-.477.36-.718.537m9.84-15.813c.006-.033.01-.066.015-.1,0,.033-.009.066-.015.1M72.4,42.009c.155-.168.31-.335.46-.506-.15.171-.305.338-.46.506m1.531-1.819c.117-.154.234-.309.348-.466-.114.157-.231.312-.348.466m1.35-1.953c.084-.135.166-.271.248-.408-.082.137-.164.273-.248.408m1.157-2.069c.057-.114.111-.23.166-.345-.055.115-.109.231-.166.345m.957-2.174c.035-.09.067-.182.1-.273-.033.091-.065.183-.1.273m.749-2.267c.017-.064.032-.129.05-.193-.018.065-.033.129-.05.193" transform="translate(20.138 22.916)" fill="current"/>
  <path id="cirlcle" d="M50.06,40.265a25.03,25.03,0,1,1-25.03-25.03,25.03,25.03,0,0,1,25.03,25.03" transform="translate(20.138 22.916)" fill="#ebebeb" opacity="0.605"/>
  <path id="circle" d="M79.081,25.03A25.03,25.03,0,1,1,54.051,0a25.03,25.03,0,0,1,25.03,25.03" transform="translate(20.138 22.916)" fill="#ebebeb" opacity="0.513"/>
  <path id="drop-shadow" d="M54.05,54.021a25.019,25.019,0,0,1-5.726-.684A25,25,0,0,1,.1,46.158c-.048.64-.1,1.281-.1,1.934A25.019,25.019,0,0,0,48.324,57.2,24.953,24.953,0,0,0,79.08,32.856c0-.652-.048-1.292-.1-1.932a25.016,25.016,0,0,1-24.933,23.1" transform="translate(20.138 22.916)" fill="#1d1d1b" opacity="0.3"/>
  <path id="Shadow" d="M54.05,50.059a25.019,25.019,0,0,1-5.726-.684A25,25,0,0,1,.1,42.2c-.048.64-.1,1.281-.1,1.934a25.019,25.019,0,0,0,48.324,9.11A24.953,24.953,0,0,0,79.08,28.894c0-.652-.048-1.292-.1-1.932a25.016,25.016,0,0,1-24.933,23.1" transform="translate(20.138 22.916)" opacity="0.3"/>
</svg>