<svg id="eat" xmlns="http://www.w3.org/2000/svg" xmlns:xlink="http://www.w3.org/1999/xlink" width="70" height="70" viewBox="0 0 70 70">
  <defs>
    <clipPath id="clip-path">
      <rect id="Rectangle_3376" data-name="Rectangle 3376" width="70" height="70" fill="none"/>
    </clipPath>
    <clipPath id="clip-path-3">
      <path id="Path_6262" data-name="Path 6262" d="M32.392,27.616c-7.129,2.355-15.243,1.252-21.119.149-4.534-.851-7.735-1.7-8.123-.965C1.986,29.009,20.641,52.825,37.856,47.816S54.682,13.864,54.005,13.435a.087.087,0,0,0-.05-.013c-.962,0-9.187,10.109-21.563,14.194" fill="none"/>
    </clipPath>
    <linearGradient id="linear-gradient" x1="0.029" y1="1.235" x2="0.046" y2="1.235" gradientUnits="objectBoundingBox">
      <stop offset="0" stop-color="#630612"/>
      <stop offset="0.292" stop-color="#5e0612"/>
      <stop offset="0.625" stop-color="#500812"/>
      <stop offset="0.978" stop-color="#390b12"/>
      <stop offset="1" stop-color="#380c13"/>
    </linearGradient>
    <clipPath id="clip-path-5">
      <rect id="Rectangle_3367" data-name="Rectangle 3367" width="27.496" height="32.757" transform="translate(32.921 36.964)" fill="none"/>
    </clipPath>
    <clipPath id="clip-path-6">
      <rect id="Rectangle_3368" data-name="Rectangle 3368" width="22.615" height="8.673" transform="translate(8.221 27.167)" fill="none"/>
    </clipPath>
    <clipPath id="clip-path-7">
      <rect id="Rectangle_3369" data-name="Rectangle 3369" width="19.039" height="18.092" transform="translate(31.165 16.133)" fill="none"/>
    </clipPath>
    <clipPath id="clip-path-8">
      <rect id="Rectangle_3370" data-name="Rectangle 3370" width="9.072" height="3.176" transform="translate(44.252 30.169)" fill="none"/>
    </clipPath>
    <clipPath id="clip-path-9">
      <path id="Path_6271" data-name="Path 6271" d="M47.563,29.143C45.491,32.673,33.647,40,31.516,40.769a11.2,11.2,0,0,0-1.776.856h-.011a51.365,51.365,0,0,0-6.045,4.794A30.087,30.087,0,0,0,28.67,48.04a7.867,7.867,0,0,0,3.357-.5c1.524-.433,3.069-.866,4.176-.229,4.193,2.406,19.016,16.6,25.517,11.957,6.424-4.576,11.946-22.6,2.449-28.364-.535-.329-1.053-.632-1.564-.909l-.015-.012c-4.134-2.306-7.489-3.326-10.032-3.326a5.384,5.384,0,0,0-4.995,2.482" fill="none"/>
    </clipPath>
    <linearGradient id="linear-gradient-2" x1="-0.474" y1="1.162" x2="-0.454" y2="1.162" gradientUnits="objectBoundingBox">
      <stop offset="0" stop-color="#c20a24"/>
      <stop offset="0.433" stop-color="#c70e20"/>
      <stop offset="0.991" stop-color="#d71916"/>
      <stop offset="1" stop-color="#d81a16"/>
    </linearGradient>
    <clipPath id="clip-path-11">
      <rect id="Rectangle_3373" data-name="Rectangle 3373" width="45.581" height="30.201" transform="translate(23.684 29.998)" fill="none"/>
    </clipPath>
    <clipPath id="clip-path-12">
      <rect id="Rectangle_3374" data-name="Rectangle 3374" width="20.128" height="9.306" transform="translate(34.034 39.415)" fill="none"/>
    </clipPath>
  </defs>
  <g id="Group_8535" data-name="Group 8535">
    <g id="Group_8534" data-name="Group 8534" clip-path="url(#clip-path)">
      <g id="Group_8507" data-name="Group 8507">
        <g id="Group_8506" data-name="Group 8506" clip-path="url(#clip-path)">
          <path id="Path_6260" data-name="Path 6260" d="M1.163,26.169C-.636,29.1,16.912,53.51,36.655,48.136S59.937,13.1,56.973,10.854s-9.119,10.2-26.034,14.313-27.452-2.787-29.776,1"/>
          <path id="Path_6261" data-name="Path 6261" d="M4.461,33.432S17.1,52.5,36.655,50.153s21.02-30.606,21.02-30.606S54.94,42.575,37.856,47.816,4.461,33.432,4.461,33.432" fill="#3f0005"/>
        </g>
      </g>
      <g id="Group_8509" data-name="Group 8509">
        <g id="Group_8508" data-name="Group 8508" clip-path="url(#clip-path-3)">
          <rect id="Rectangle_3366" data-name="Rectangle 3366" width="60.588" height="50.336" transform="translate(-6.651 15.415) rotate(-13)" fill="url(#linear-gradient)"/>
        </g>
      </g>
      <g id="Group_8523" data-name="Group 8523">
        <g id="Group_8522" data-name="Group 8522" clip-path="url(#clip-path)">
          <g id="Group_8512" data-name="Group 8512" opacity="0.3">
            <g id="Group_8511" data-name="Group 8511">
              <g id="Group_8510" data-name="Group 8510" clip-path="url(#clip-path-5)">
                <path id="Path_6263" data-name="Path 6263" d="M32.921,49.018c2.635,1.411,5.9,13.295,15.364,19.1,10.023,6.156,12.506-6.976,12.088-13.87-.4-6.611-9.552-17.288-9.552-17.288S42.8,45.61,32.921,49.018"/>
              </g>
            </g>
          </g>
          <path id="Path_6264" data-name="Path 6264" d="M30.613,28.127s.035.427.079,1.082l.007.075c.076,1.313.189,3.45.143,4.834l0,.012-.009.015a2.729,2.729,0,0,1-.219,1.314c-.521.457-7.238.556-9.885-.005s-5-4.673-5-4.673-1.439,1.6-2.806.737a46.275,46.275,0,0,1-4.707-4.352c11.047,4.135,22.392.961,22.392.961" fill="#fff"/>
          <path id="Path_6265" data-name="Path 6265" d="M50.2,16.133a45.072,45.072,0,0,1-1.972,6.108c-.755,1.416-2.794.734-2.794.734s-.043,4.665-2.084,6.458-7.345,4.93-8.024,4.788c-.186-.028-.583-.514-1.054-1.184-.866-1.247-2.029-3.185-2.647-4.266-.279-.478-.463-.789-.463-.789S42.616,25.165,50.2,16.133" fill="#fff"/>
          <g id="Group_8515" data-name="Group 8515" opacity="0.13">
            <g id="Group_8514" data-name="Group 8514">
              <g id="Group_8513" data-name="Group 8513" clip-path="url(#clip-path-6)">
                <path id="Path_6266" data-name="Path 6266" d="M30.613,28.127s.035.427.079,1.082l.007.075s-11.489.379-13.053.918,1.664,4.492,4.541,5.2,8.567-.54,8.649-1.254a2.729,2.729,0,0,1-.219,1.314c-.521.457-7.238.556-9.885-.005s-5-4.673-5-4.673-1.439,1.6-2.806.737a46.275,46.275,0,0,1-4.707-4.352c11.047,4.135,22.392.961,22.392.961" fill="#964299"/>
              </g>
            </g>
          </g>
          <g id="Group_8518" data-name="Group 8518" opacity="0.13">
            <g id="Group_8517" data-name="Group 8517">
              <g id="Group_8516" data-name="Group 8516" clip-path="url(#clip-path-7)">
                <path id="Path_6267" data-name="Path 6267" d="M50.2,16.133a45.072,45.072,0,0,1-1.972,6.108c-.755,1.416-2.794.734-2.794.734s-.043,4.665-2.084,6.458-7.345,4.93-8.024,4.788c-.186-.028-.583-.514-1.054-1.184l.015.008c1.171.846,6.113-1.435,8.2-3.406s1.72-6.661,1.135-6.6c-.6.079-11.994,5.729-11.994,5.729-.279-.478-.463-.789-.463-.789S42.616,25.165,50.2,16.133" fill="#964299"/>
              </g>
            </g>
          </g>
          <path id="Path_6268" data-name="Path 6268" d="M32.7,28.79c-.347.049,1.7,3.684,2.515,3.873S34.029,28.6,32.7,28.79" fill="#fff"/>
          <path id="Path_6269" data-name="Path 6269" d="M29.725,29.486c-.3-.476-.122,3.851.119,4.613s1.188-2.568-.119-4.613" fill="#fff"/>
          <g id="Group_8521" data-name="Group 8521" opacity="0.5" style="mix-blend-mode: soft-light;isolation: isolate">
            <g id="Group_8520" data-name="Group 8520">
              <g id="Group_8519" data-name="Group 8519" clip-path="url(#clip-path-8)">
                <path id="Path_6270" data-name="Path 6270" d="M44.273,33.036c-.236.815,1.577-.174,4.611-.749s4.4-.531,4.44-.8-5.977-3.633-9.051,1.547" fill="#ffaea6"/>
              </g>
            </g>
          </g>
        </g>
      </g>
      <g id="Group_8525" data-name="Group 8525">
        <g id="Group_8524" data-name="Group 8524" clip-path="url(#clip-path-9)">
          <rect id="Rectangle_3372" data-name="Rectangle 3372" width="49.982" height="37.258" transform="translate(23.684 26.661)" fill="url(#linear-gradient-2)"/>
        </g>
      </g>
      <g id="Group_8533" data-name="Group 8533">
        <g id="Group_8532" data-name="Group 8532" clip-path="url(#clip-path)">
          <g id="Group_8528" data-name="Group 8528" opacity="0.5" style="mix-blend-mode: multiply;isolation: isolate">
            <g id="Group_8527" data-name="Group 8527">
              <g id="Group_8526" data-name="Group 8526" clip-path="url(#clip-path-11)">
                <path id="Path_6272" data-name="Path 6272" d="M61.72,59.272c-6.5,4.646-21.325-9.55-25.517-11.958-4.087-2.347-12.519-.9-12.519-.9a51.417,51.417,0,0,1,6.044-4.794c-2.267,1.45,1.218.181,16.746,10.967,4.511,3.133,11.09,4.681,14.856,2.267,2.738-1.756,4.518-5.924,5.545-8.646C71.11,34.99,63,30.367,62.6,30c.512.278,1.029.581,1.565.91,9.5,5.761,3.975,23.789-2.449,28.364" fill="#842287"/>
              </g>
            </g>
          </g>
          <g id="Group_8531" data-name="Group 8531" style="mix-blend-mode: soft-light;isolation: isolate">
            <g id="Group_8530" data-name="Group 8530">
              <g id="Group_8529" data-name="Group 8529" clip-path="url(#clip-path-12)">
                <path id="Path_6273" data-name="Path 6273" d="M37.158,39.456c-6.16.5-1.584,4.725.02,5.443s8.249,5.928,14.176,2.864c9.657-4.992-8.214-8.791-14.2-8.307" fill="#ffaea6"/>
              </g>
            </g>
          </g>
          <path id="Path_6274" data-name="Path 6274" d="M52.61,49.86c.234-1.471,3.745-.7,3.6.76s-3.714-.062-3.6-.76" fill="#ffaea6"/>
        </g>
      </g>
    </g>
  </g>
</svg>
