<svg id="eek" xmlns="http://www.w3.org/2000/svg" width="120" height="120.004" viewBox="0 0 120 120.004">
  <path id="Path_4147" data-name="Path 4147" d="M21.85,60.865l4.1,1.665,1.9.771a3.459,3.459,0,0,0,.424.8,1.639,1.639,0,0,0,.446.429.947.947,0,0,0,.279.125,1.081,1.081,0,0,0,.836-.186A1.486,1.486,0,0,0,30,64.354a3.126,3.126,0,0,0,.63-.876c.281-.513.542-1.04.781-1.577l3.686,1,21.653,4.8c0,.04-.006.083-.008.124-.006.1-.012.192-.019.293v.014c0,.046-.007.093-.01.14l-.7,5.519h0c-.08.379-.169.744-.265,1.089-.036.128-.073.253-.112.376A6.9,6.9,0,0,1,55,76.76l-.6.983c-.086.141-.155.254-.227.374l-.385.632c-.04.067-.07.116-.1.171l-.279.46c-.016.027-.03.049-.04.065l-.039.065-.005.008.005.033,0,.019c0,.018.006.046.01.071s.011.076.018.127l.024.164,0,.015c.01.067.02.14.032.221.006.042.012.084.019.131q.015.106.033.225c.006.038.011.073.017.113.01.073.022.152.034.231l0,.025c0,.032.009.062.014.094s.013.091.02.138c.012.081.024.163.037.249l.009.06c.008.05.015.1.023.151s.017.114.026.172l.006.042c.005.033.011.066.016.1s.014.094.021.143c0,0-.4.471-1.03,1.306l-.006.007c-.242.32-.517.689-.821,1.113l0,0c-.686.955-1.506,2.16-2.363,3.553l-.022-.013v0c-.142.23-.284.466-.427.706-.01.018-.021.036-.032.054-.141.238-.282.482-.424.729l-.033.058q-.213.374-.425.759l-.033.058q-.213.392-.426.794l-.027.05q-.217.416-.431.842l-.014.026a42.275,42.275,0,0,0-2.364,5.692c-.065.2-.129.393-.19.591q-.073.237-.144.474c-.129.438-.253.879-.363,1.322a27.128,27.128,0,0,0-.541,2.8v0c-.008.057-.018.114-.025.171a.654.654,0,0,0-.041.165h.017q-.066.522-.108,1.045s5.034,3.333,13.948,5.1l.307.059c1.047.2,2.145.38,3.295.529l.025,0q.547.072,1.109.134c.171.023.31.042.492.05l.023,0c.7.07,1.425.125,2.159.171A50.419,50.419,0,0,0,94.939,96.749c-.105-.34-.216-.695-.338-1.072a95.345,95.345,0,0,0-3.684-9.4c.069-.061.134-.126.2-.188.03-.028.064-.053.093-.082h0c.028-.027.051-.057.078-.084.044-.043.09-.084.133-.129.077-.079.148-.164.221-.246.092-.1.187-.206.273-.314l-.175-.3-.1-.173-.1-.176c-.075-.129-.16-.274-.254-.437l-.01-.017c-.421-.724-1.014-1.758-1.687-2.97l.133-.033a28.973,28.973,0,0,0,2.86-.871Q93.3,80,93.946,79.7c.277-.127.547-.258.8-.4a8.781,8.781,0,0,0,1.391-.919s.811,1.168,1.73,1.152a3.085,3.085,0,0,0,1.082-2.99,4.066,4.066,0,0,0,1.892.649s.5-2.786-3.9-6.37l0,0c-.193-.157-.39-.314-.6-.475-.253-.193-.519-.389-.807-.587l-.016-.012,0,0c4.313,1.23,9.472,2.543,13.778,2.434a50.455,50.455,0,0,0,1.234-7.153c-.639-.061-1.29-.143-1.962-.268-6.993-1.3-15.972-6.2-21.034-6.271a19.4,19.4,0,0,0-5.817.725l0-.008a9.248,9.248,0,0,0-.764-1.4,29.264,29.264,0,0,0,9.514-3.326,13.291,13.291,0,0,0,2.28-1.72c1.079-1.03,2.212-2.092,3.222-3.245,4.108.789,8.167-.4,12.9-3.279A50.694,50.694,0,0,0,88.167,17.849l-.132.19-.127.186c-.061.089-.118.175-.174.26-.041.061-.083.123-.121.182s-.091.14-.136.21c-.186.29-.342.543-.468.754L87,19.653c-.008.015-.018.031-.026.045a30.03,30.03,0,0,0-2.8-4.257A50.334,50.334,0,0,0,61.717,9.428c-.078.038-.154.067-.232.107l0,0a26.65,26.65,0,0,0-6.95,4.873,10.089,10.089,0,0,0-1.76,2.223c-.586.388-1.01.709-1.288.934a32.232,32.232,0,0,0-2.45-3.152c-.338-.386-.707-.791-1.1-1.206-.568-.591-1.21-1.2-1.893-1.811A50.613,50.613,0,0,0,22.709,25.949a21.814,21.814,0,0,0,1.407,4.859c4.6,10.963,11.414,14.4,15.48,15.137.138.193.285.383.434.574.019.023.036.047.054.07a20.65,20.65,0,0,0,1.593,1.773l.11.108c.265.261.537.519.819.774l.044.039c.61.549,1.258,1.081,1.933,1.6l.119.088q.453.344.922.674l.116.083q1.045.73,2.146,1.4l.142.085q.469.283.944.554l.2.115q.519.292,1.041.569l.043.023q.561.3,1.123.571l.158.076q.46.223.918.433l.275.124q.432.194.86.374l.218.093q.532.222,1.055.421c.045.018.09.033.135.05q.444.168.878.319l.3.1c.19.064.378.126.564.184l-.016,0a17.4,17.4,0,0,0-.461,1.846l-.257-.577-.549-.027c-.4-.02-1-.049-1.719-.082l-.1-.005-.248-.011c-.046,0-.091-.005-.138-.006l-.8-.036h-.009l-.377-.016-.1-.005-.414-.017h-.005c-2.614-.111-5.777-.224-7.751-.224a76.089,76.089,0,0,1-8.2-.783c-.393-.053-.778-.106-1.149-.158-.348-.048-.685-.1-1.006-.143l-.753-.11c.008-.182.021-.364.019-.547,0-.2-.013-.406-.035-.608a3.589,3.589,0,0,0-.128-.667A3.074,3.074,0,0,0,32.4,54.7a4.13,4.13,0,0,0-.3-.567,8.608,8.608,0,0,0-.6-.81v0c-.048-.058-.1-.116-.15-.172l-.027-.027a1.043,1.043,0,0,0-.177-.15l0,0a.687.687,0,0,0-.178-.088,1.563,1.563,0,0,0-1.481.526l-3.78.694a20.435,20.435,0,0,1-1.846-1.12c-.092-.064-.184-.129-.275-.195-.183-.132-.362-.269-.529-.408a5.209,5.209,0,0,1-.654-.629,11.34,11.34,0,0,0-1.605-1.674l-.122-1.261L19.043,30.5c-.839,1.168-1.634,2.367-2.373,3.606l1.525,16.4c-.053-.033-.106-.064-.16-.092l-.027-.014a1.812,1.812,0,0,0-.408-.154c-.014,0-.029-.006-.044-.009a1.622,1.622,0,0,0-.437-.038l-.043,0a1.827,1.827,0,0,0-.485.1,1.555,1.555,0,0,0-.45.263,2.37,2.37,0,0,0-.28.26c-.068.076-.133.155-.194.235a5.369,5.369,0,0,0-.441.693c-.04.073-.073.149-.11.225-.085.174-.164.351-.232.533-.032.083-.062.166-.09.251-.065.195-.121.4-.17.6-.016.066-.035.13-.049.2a12.239,12.239,0,0,0-.222,2.973,8.812,8.812,0,0,0,1.008,4.265,2.512,2.512,0,0,0,.394.515l.041.04a1.254,1.254,0,0,0,.25.185l0,0a1.652,1.652,0,0,0,.4.143c.072.019.145.037.219.052a5.125,5.125,0,0,0,1.094.129,2.4,2.4,0,0,0,1.528-.572l2.042,19.465,1.69,13.53,2.758,2.862c.053.049.105.1.158.151L24.761,86.638ZM84.741,70.912q.287.174.566.349c.118.073.237.147.352.22.2.129.4.258.593.387.09.06.184.12.273.18q.382.257.737.505C89,73.769,90.2,74.765,90.2,74.766a17.057,17.057,0,0,1-3.251,1.372l-.676-1.316c-.067-.14-.136-.28-.2-.419v0c-.12-.253-.232-.5-.346-.748-.062-.136-.129-.276-.19-.411l-.024-.053q-.252-.562-.475-1.1c-.009-.02-.018-.041-.026-.061-.018-.042-.031-.08-.048-.122-.128-.311-.251-.616-.361-.908,0-.015-.012-.031-.018-.047l0-.006c-.021-.058-.036-.108-.057-.164l.218.128M80.186,57.936c.251-.045.5-.087.751-.135,0,0-.278.076-.752.2,0-.022,0-.045,0-.067m-23-.582c.115.035.229.067.343.1.013.031.026.061.04.092-.044-.021-.078-.036-.118-.056l-.036-.016-.056-.026c-.055-.025-.116-.054-.165-.075-.025-.012-.046-.02-.07-.03l-.061-.025c.041.013.082.024.123.036M21.325,55.44l.112.111.133.132.28,5.181Z" transform="translate(0.894 0.208)" opacity="0.3"/>
  <path id="Path_3753" data-name="Path 3753" d="M4456.815,2122.929a2.5,2.5,0,0,0,.253,1.342,2.052,2.052,0,0,0,1.587.851c1.968.206,3.776-1.094,5.738-1.344a11.322,11.322,0,0,0,2.019-.254,2.413,2.413,0,0,0,1.611-2.939,3.141,3.141,0,0,0-.66-1,12.013,12.013,0,0,0-3.775-2.552c-1.551-.743-3.947-1.371-5.265.187C4457.15,2118.606,4456.847,2121.206,4456.815,2122.929Z" transform="translate(-4395.621 -2063.276)" fill="#bac5d6"/>
  <path id="Path_3754" data-name="Path 3754" d="M4449.58,2124.823a11.815,11.815,0,0,0,5.987,1.048,3.34,3.34,0,0,0,2.486-1.084,3.829,3.829,0,0,0,.5-1.17,8.43,8.43,0,0,0,.464-2.262,2.832,2.832,0,0,0-.769-2.115,3.991,3.991,0,0,0-2.227-.848,34.329,34.329,0,0,0-9-.153c-.639.074-1.634.187-1.848.894a3.945,3.945,0,0,0,.641,2.33A8.138,8.138,0,0,0,4449.58,2124.823Z" transform="translate(-4395.621 -2063.276)" fill="#a9b0b4"/>
  <path id="Path_3755" data-name="Path 3755" d="M4478.85,2149.538c4.631,10.331,5.226,15.411,5.226,15.411a48.832,48.832,0,0,1-27.232,8.843c-16.005.125-25.489-6.163-25.489-6.163.9-11.229,10.277-22.311,10.277-22.311l30.351-1.7Z" transform="translate(-4395.621 -2063.276)" fill="#e18843"/>
  <path id="Path_3756" data-name="Path 3756" d="M4441.632,2145.318s-9.382,11.082-10.277,22.311c0,0,.271.178.787.47.85-2.766,2.288-7.278,3.8-11.3a45.951,45.951,0,0,1,6.952-11.55Z" transform="translate(-4395.621 -2063.276)" fill="#efbf5e"/>
  <path id="Path_3757" data-name="Path 3757" d="M4476.955,2147.9l-4.972-4.289-30.351,1.7s-.4.474-1.036,1.313c2.351,1.461,6.656,3.975,8.823,4.229l-.8,12.282s3.166,2.667,5.768.432l.62-12.1s12.406.084,14.8-.61A75.494,75.494,0,0,0,4476.955,2147.9Z" transform="translate(-4395.621 -2063.276)" fill="#ab7346"/>
  <path id="Path_3758" data-name="Path 3758" d="M4448.426,2150.984a.89.89,0,0,1,.285.211.847.847,0,0,1,.139.374,24.035,24.035,0,0,1-.079,5.451c-.069,1.782-.141,3.564-.205,5.346-.033.915.052,1.078.849,1.535a5.864,5.864,0,0,0,2.144.791c1.767.225,3.157-.753,3.145-2.535q-.021-2.826.115-5.652.067-1.411.174-2.822c.051-.678-.088-1.6.667-1.945a5.95,5.95,0,0,1,2.078-.106l2.756-.068a.605.605,0,0,0,.457-.141c.879-1.006-1.974-.517-2.094-.5l-3.736.553a.5.5,0,0,0-.227.071.471.471,0,0,0-.135.183,3.794,3.794,0,0,0-.383,1.475q-.281,4.207-.292,8.428c0,.51.081,1.5-.3,1.906a3.1,3.1,0,0,1-1.613.562,4.636,4.636,0,0,1-2.707-.767,2.387,2.387,0,0,1-.6-2.039c.1-3.006.534-6.006.8-9a1.571,1.571,0,0,0-1.306-1.964c-.736-.3-1.949-1.086-2.718-1.051C4445.909,2150.214,4447.676,2150.576,4448.426,2150.984Z" transform="translate(-4395.621 -2063.276)" fill="#6a3821"/>
  <path id="Path_3759" data-name="Path 3759" d="M4446.879,2146.509s9.065,2.512,12.435,1.066-3.06-12.265-3.06-12.265l-8.837-1.2Z" transform="translate(-4395.621 -2063.276)" fill="#883633"/>
  <path id="Path_3760" data-name="Path 3760" d="M4448.12,2142.686a2.446,2.446,0,0,0,1.794.238.909.909,0,0,0,.484-.263.409.409,0,0,0,.029-.514c-.158-.18-.443-.124-.676-.074a3.91,3.91,0,0,1-.965.085c-.177-.006-.388-.049-.451-.214a.111.111,0,0,1,0-.094.138.138,0,0,1,.1-.051l.6-.107a1,1,0,0,0,.478-.175.344.344,0,0,0,.085-.457.375.375,0,0,0-.231-.117,4.143,4.143,0,0,0-.7.016.563.563,0,0,1-.562-.327.184.184,0,0,1,.008-.144.248.248,0,0,1,.177-.092,6.179,6.179,0,0,1,1.006-.112c.247-.007.544-.027.66-.245a.483.483,0,0,0-.081-.5,1.463,1.463,0,0,0-1.279-.409,2.279,2.279,0,0,0-.927.207,1.038,1.038,0,0,0-.575.721,1.611,1.611,0,0,0,.086.675,7.515,7.515,0,0,0,.369,1.109A1.842,1.842,0,0,0,4448.12,2142.686Z" transform="translate(-4395.621 -2063.276)" fill="#ebcb4d"/>
  <path id="Path_3761" data-name="Path 3761" d="M4451.1,2139.475a1.245,1.245,0,0,0-.287.321,1.8,1.8,0,0,0,.79,2.258,1.986,1.986,0,0,0,1.9-.044.422.422,0,0,0,.247-.295.319.319,0,0,0-.267-.3,1.008,1.008,0,0,0-.435.037,7.315,7.315,0,0,1-1.14.162.556.556,0,0,1-.237-.021.194.194,0,0,1-.134-.18.2.2,0,0,1,.157-.169.8.8,0,0,1,.244-.013,1.586,1.586,0,0,0,.714-.155.4.4,0,0,0,.235-.226.311.311,0,0,0-.256-.351.866.866,0,0,0-.475.075,1.032,1.032,0,0,1-.471.1.182.182,0,0,1-.09-.031c-.071-.056-.043-.171.006-.247a1.457,1.457,0,0,1,.989-.531.944.944,0,0,0,.306-.1.3.3,0,0,0,.155-.267c-.012-.126-.128-.215-.235-.284a.907.907,0,0,0-.891-.2A2.318,2.318,0,0,0,4451.1,2139.475Z" transform="translate(-4395.621 -2063.276)" fill="#ebcb4d"/>
  <path id="Path_3762" data-name="Path 3762" d="M4454.126,2140.05a18.775,18.775,0,0,1,.75,1.918.7.7,0,0,0,.147.289.234.234,0,0,0,.3.041c.1-.083.076-.245.039-.372l-.312-1.069a10.888,10.888,0,0,1,1.249.472,1.4,1.4,0,0,0,.579.17.443.443,0,0,0,.446-.336.327.327,0,0,0-.16-.316.628.628,0,0,0-.218-.06l-1.351-.205.514-1.069a.655.655,0,0,0,.092-.353c-.016-.122-.135-.239-.253-.2s-.149.156-.184.261a2.224,2.224,0,0,1-.657.98.11.11,0,0,1-.079.037.116.116,0,0,1-.074-.055,4.969,4.969,0,0,1-.527-.874c-.088-.187-.156-.676-.384-.719C4453.306,2138.448,4454.037,2139.855,4454.126,2140.05Z" transform="translate(-4395.621 -2063.276)" fill="#ebcb4d"/>
  <path id="Path_3763" data-name="Path 3763" d="M4446,2139.467s5.569,3.262,13.435-.409-2.679-6.207-2.679-6.207l-11.858-.344Z" transform="translate(-4395.621 -2063.276)" opacity="0.3"/>
  <path id="Path_3764" data-name="Path 3764" d="M4436.587,2163.574c1.37-3.388,4.037-9.66,4.037-9.66a9.714,9.714,0,0,0-3.255-2.549c-2.408,3.927-5.084,9.331-5.858,14.884C4433.08,2166.245,4435.659,2165.87,4436.587,2163.574Z" transform="translate(-4395.621 -2063.276)" fill="#ab7346"/>
  <path id="Path_3765" data-name="Path 3765" d="M4432.764,2166.086c.85-2.691,2-6.175,3.192-9.365a33.408,33.408,0,0,1,2.374-4.915,7.51,7.51,0,0,0-.943-.518v0c-.141.23-.284.467-.426.707l-.033.054c-.141.238-.282.482-.424.729l-.033.058c-.142.248-.284.5-.425.759l-.032.058q-.215.39-.426.793l-.027.051c-.146.277-.289.557-.432.841l-.013.027a35.708,35.708,0,0,0-3.585,10.8v.005A9.4,9.4,0,0,0,4432.764,2166.086Z" transform="translate(-4395.621 -2063.276)" fill="#d3a568"/>
  <path id="Path_3766" data-name="Path 3766" d="M4481.24,2155.3a9.351,9.351,0,0,0-5.17,2.007s-.725,6.847,2.3,11.1a38.986,38.986,0,0,0,5.7-3.452A46.564,46.564,0,0,0,4481.24,2155.3Z" transform="translate(-4395.621 -2063.276)" fill="#ab7346"/>
  <path id="Path_3767" data-name="Path 3767" d="M4478.85,2149.538l-4.213-3.634-4.167,1.073s-14.64-.2-8.293,6.18c0,0,7.822,2.055,13.176,0,0,0,4.116,7.8,5.42,13.94a32.817,32.817,0,0,0,3.3-2.149S4483.481,2159.869,4478.85,2149.538Z" transform="translate(-4395.621 -2063.276)" fill="#a86730"/>
  <path id="Path_3768" data-name="Path 3768" d="M4484.061,2164.836l-.008-.053-.026-.162,0-.024a52.144,52.144,0,0,0-2.783-9.3,9.037,9.037,0,0,0-4.193,1.352,55.018,55.018,0,0,1,3.726,10.448l.046-.027c.218-.127.424-.25.621-.369l.179-.109c.191-.117.375-.231.545-.338l.027-.017c.187-.119.359-.23.519-.335l.09-.059c.312-.206.571-.384.771-.525l.046-.033c.192-.136.327-.236.4-.289l.018-.013.043-.034-.005-.041Z" transform="translate(-4395.621 -2063.276)" fill="#805735"/>
  <path id="Path_3769" data-name="Path 3769" d="M4443.733,2152.922s-1.153.334-1.451-.152-2.51-5.023-2.51-5.023l1.86-2.429Z" transform="translate(-4395.621 -2063.276)" fill="#a86730"/>
  <path id="Path_3770" data-name="Path 3770" d="M4439.772,2147.748s.208.425.5,1.025c.6-.884,1.177-1.669,1.671-2.318l-.314-1.137-1.856,2.425Z" transform="translate(-4395.621 -2063.276)" fill="#ab7346"/>
  <path id="Path_3771" data-name="Path 3771" d="M4448.2,2172.429a30.232,30.232,0,0,1-3.234-1.291c-.269-.113-.541-.221-.816-.32-.2-.072-.629-.3-.834-.263-.294.056-.009.284.087.457a3.38,3.38,0,0,1,.271.768l.17.639a55.136,55.136,0,0,0,6.928,1.1A5.617,5.617,0,0,0,4448.2,2172.429Z" transform="translate(-4395.621 -2063.276)" fill="#a86730"/>
  <path id="Path_3772" data-name="Path 3772" d="M4474.553,2083.6s7.139-13.718,21.417-15.118a25.568,25.568,0,0,1,11.759,15.118c3.079,10.75-4.2,21.557-9.8,25.2s-10.219,5.04-14.978,3.78S4474.553,2083.6,4474.553,2083.6Z" transform="translate(-4395.621 -2063.276)" fill="#bcc4c8"/>
  <path id="Path_3773" data-name="Path 3773" d="M4505.472,2078.163a25.19,25.19,0,0,0-9.5-9.683c-12.385,1.214-19.4,11.692-21.037,14.45,0,0,.6.948,2.98-1.992s8.679-9.658,18.057-11.2A25.233,25.233,0,0,1,4505.472,2078.163Z" transform="translate(-4395.621 -2063.276)" fill="#fcfcfd"/>
  <path id="Path_3774" data-name="Path 3774" d="M4495.27,2080.184s4.9,5.547,4.62,10.57-1.109,11.741-2.3,13a18.319,18.319,0,0,1-12.254,4.2c-5.681-.39-6.65-15.621-6.65-15.621S4486.146,2083.724,4495.27,2080.184Z" transform="translate(-4395.621 -2063.276)" fill="#b06e7a"/>
  <path id="Path_3775" data-name="Path 3775" d="M4495.27,2080.184s-12.318,12.793-13.858,18.952-2.73-9.476-2.73-9.476Z" transform="translate(-4395.621 -2063.276)" fill="#905a66"/>
  <path id="Path_3776" data-name="Path 3776" d="M4479.593,2092.557s.979-2.1,6.859-6.439a136.27,136.27,0,0,1,11.758-7.7s2.1-1.68-2.1,0-12.893,5.513-16.517,9.8S4479.593,2092.557,4479.593,2092.557Z" transform="translate(-4395.621 -2063.276)" fill="#ebeded"/>
  <path id="Path_3777" data-name="Path 3777" d="M4439.592,2081.1s-9.515-15.147-23.068-11.822c0,0-10.093,11.4-4.47,24.8s14.562,15.566,17.734,15.278S4439.592,2081.1,4439.592,2081.1Z" transform="translate(-4395.621 -2063.276)" fill="#b3babf"/>
  <path id="Path_3778" data-name="Path 3778" d="M4419.223,2077.055s-3.5,11.244-.629,18.189,4.49,6.838,4.49,6.838l5.623,3.027,5.731-15.138Z" transform="translate(-4395.621 -2063.276)" fill="#c37a86"/>
  <path id="Path_3779" data-name="Path 3779" d="M4416.524,2069.281s-7,7.92-6.084,18.315a33.714,33.714,0,0,1,6.516-16.714s-.432-1.6,8.015.49,14.139,11.7,14.14,11.7c.305-1.23.481-1.972.481-1.972S4430.077,2065.956,4416.524,2069.281Z" transform="translate(-4395.621 -2063.276)" fill="#fcfcfd"/>
  <path id="Path_3780" data-name="Path 3780" d="M4418.594,2076.263s11.194,13.924,11.951,17.925,4.758-4.65,4.758-4.65S4422.755,2077.726,4418.594,2076.263Z" transform="translate(-4395.621 -2063.276)" fill="#875661"/>
  <path id="Path_3781" data-name="Path 3781" d="M4434.114,2090.754c-4.65-8.192-16.437-15.051-16.437-15.051s14.652,5.509,19.113,12.646S4434.114,2090.754,4434.114,2090.754Z" transform="translate(-4395.621 -2063.276)" fill="#fcfcfd"/>
  <path id="Path_3782" data-name="Path 3782" d="M4436.308,2087.517s-9.705,7.32-10.786,15.214,12.219,16,20.545,18.166,27.574,1.838,34.6-4.866a28.124,28.124,0,0,0,4.976-5.607c.669-1.123,1.305-3.1.761-4.318.424.33,1.053.656,1.442.287.295-.282.207-.77.062-1.152a6.806,6.806,0,0,0-1.366-2.206,1.934,1.934,0,0,0,.7.3.659.659,0,0,0,.669-.278.837.837,0,0,0-.041-.721,5.64,5.64,0,0,0-1.248-1.641c-1.425-1.461-2.824-2.956-4.314-4.349l.665.041a1.483,1.483,0,0,0,1.329-.366.951.951,0,0,0,.045-.945,2.224,2.224,0,0,0-.639-.749,14.646,14.646,0,0,0-4.145-2.15l-1.406-1.425-7.332-6.637s-11.841-4.049-12.327-4.207-13.95,0-13.95,0Z" transform="translate(-4395.621 -2063.276)" fill="#b3babf"/>
  <path id="Path_3783" data-name="Path 3783" d="M4428.822,2110.809s-2.255-5.627-1.751-8.223,6.635-12.667,10.468-16.2h0l-1.231,1.136s-9.705,7.319-10.786,15.213c-.378,2.754,1,5.533,3.3,8.078Z" transform="translate(-4395.621 -2063.276)" fill="#f2f7f9"/>
  <path id="Path_3784" data-name="Path 3784" d="M4444.792,2100.7a60.922,60.922,0,0,0-8.01-3.1c-2.86-.7-4-.617-4.254-1.537a6.474,6.474,0,0,1,2.179-5.708c2.141-1.649,2.975-1.9,5.875-2.08s5.032.9,5.52,2.478,1.265,4.677.632,6.624,2.486.466,2.486.466l3.3,1.565v1.974l-2.66-1.19Z" transform="translate(-4395.621 -2063.276)" fill="#c7cfd1"/>
  <path id="Path_3785" data-name="Path 3785" d="M4456.088,2101.823a35,35,0,0,0,5.947-.66,41.486,41.486,0,0,1,11.066-1.148c3.6.3,1.089-4.854.617-5.9s-2.037-3.946-4.842-4.622-8.535-1.238-8.535-1.238-4.181,1.1-4.47,1.715-5.01,6.714-5.01,6.714l2.941,5.138Z" transform="translate(-4395.621 -2063.276)" fill="#b9c2c6"/>
  <path id="Path_3786" data-name="Path 3786" d="M4475.444,2107.272c.5-9.227-10.89-1.38-17.57-4.24s-3.12-10.394.989-12.629,13.477-.409,14.49-.36,1.686-2.116,1.686-2.116l-4.209-3.81s-11.841-4.049-12.327-4.207-13.95,0-13.95,0l-8.245,7.608s-.536.405-1.365,1.121c1.491-.214,9.829-1.273,10.944,1.548a12.473,12.473,0,0,1,.36,9.155,4.8,4.8,0,0,1,2.74-.747c1.514.1,3.1,1.612,3.028,1.973s-1.338-.937-1.679-.937-3.223-.505-4.954.288l-1.009,1.946s-.5.505-1.8,0-8-3.8-9.732-3.27-2.884,8.6,1.225,13.507,7.93,7.563,18.383,8.359S4474.939,2116.5,4475.444,2107.272Z" transform="translate(-4395.621 -2063.276)" fill="#f2f7f9"/>
  <path id="Path_3787" data-name="Path 3787" d="M4444.026,2105.591a3.356,3.356,0,0,0,1.14.721,7.49,7.49,0,0,0,3.653.542,3.63,3.63,0,0,0,1.529-.451,1.81,1.81,0,0,0,.891-1.272.361.361,0,0,0-.062-.294.409.409,0,0,0-.263-.094,39.629,39.629,0,0,0-4.408-.321C4445.764,2104.423,4442.74,2104.254,4444.026,2105.591Z" transform="translate(-4395.621 -2063.276)" fill="#b1b6b8"/>
  <path id="Path_3788" data-name="Path 3788" d="M4486.408,2106.106c.423.33,1.052.656,1.441.287.295-.282.207-.77.063-1.152a6.811,6.811,0,0,0-1.367-2.205,1.949,1.949,0,0,0,.7.3.658.658,0,0,0,.669-.279.835.835,0,0,0-.041-.72,5.653,5.653,0,0,0-1.248-1.641c-1.425-1.461-2.824-2.956-4.314-4.349l.665.04a1.479,1.479,0,0,0,1.329-.365.951.951,0,0,0,.045-.945,2.224,2.224,0,0,0-.639-.749,14.672,14.672,0,0,0-4.145-2.15l-1.406-1.425-7.332-6.637-.413-.141.641,1.806s7.2,8.37,9.865,16.516-3.869,13.371-9.865,15.625-19.273,4.178-28.271.667a52.29,52.29,0,0,1-13.965-7.781c4.3,4.75,11.824,8.68,17.245,10.088,8.327,2.163,27.574,1.838,34.6-4.866a28.124,28.124,0,0,0,4.976-5.607C4486.315,2109.3,4486.951,2107.319,4486.408,2106.106Z" transform="translate(-4395.621 -2063.276)" fill="#96a1a6"/>
  <path id="Path_3789" data-name="Path 3789" d="M4443.4,2101.98a2.4,2.4,0,0,0-.459,1.77,2.748,2.748,0,0,0,1.707,1.734,8,8,0,0,0,4.9.563,3.16,3.16,0,0,0,2.038-1.128,2.679,2.679,0,0,0-.059-2.771C4449.925,2099.315,4445.155,2099.349,4443.4,2101.98Z" transform="translate(-4395.621 -2063.276)" fill="#e9919d"/>
  <path id="Path_3790" data-name="Path 3790" d="M4446.813,2107.425a5.774,5.774,0,0,0-.1.907,5.2,5.2,0,0,0,.138,1.065q.143.687.328,1.362c.145.53-.039.584-.584.541a10.572,10.572,0,0,1-3.133-.741,1.213,1.213,0,0,0-1.045-.1,3.211,3.211,0,0,0,1.241.554,26.719,26.719,0,0,0,4.663,1.028,8.95,8.95,0,0,0,4.677-.666c.264-.125.564-.37.465-.644a5.562,5.562,0,0,1-1.55.589,11.111,11.111,0,0,1-3.41.021,1.523,1.523,0,0,1-.658-.168c-.482-.3-.419-1.457-.434-1.951a9.253,9.253,0,0,1,.269-2.519,1.778,1.778,0,0,0,.079-.509.522.522,0,0,0-.237-.434C4446.88,2105.4,4446.861,2107.121,4446.813,2107.425Z" transform="translate(-4395.621 -2063.276)" fill="#402026"/>
  <path id="Path_3791" data-name="Path 3791" d="M4447.654,2106.871c.012-.056.016-.114.03-.17a1.778,1.778,0,0,0,.079-.509.522.522,0,0,0-.237-.434c-.435-.243-.585.458-.652,1.036A7.555,7.555,0,0,0,4447.654,2106.871Z" transform="translate(-4395.621 -2063.276)" fill="#2d1318"/>
  <path id="Path_3792" data-name="Path 3792" d="M4447.434,2100.953a7.926,7.926,0,0,1,4.134,1.682,1.684,1.684,0,0,0,.215.117,3.381,3.381,0,0,0-.262-.6c-1.6-2.833-6.366-2.8-8.125-.168a3.243,3.243,0,0,0-.315.612c.037,0,.069,0,.11-.005C4444.734,2102.4,4445.745,2100.963,4447.434,2100.953Z" transform="translate(-4395.621 -2063.276)" fill="#f5bbc4"/>
  <path id="Path_3793" data-name="Path 3793" d="M4451.807,2102.875a2.231,2.231,0,0,1-.424.976,3.139,3.139,0,0,1-2.011,1.332,6.2,6.2,0,0,1-2.947-.066,8.1,8.1,0,0,1-2.528-.8,4.164,4.164,0,0,1-.985-.942,1.7,1.7,0,0,0,.025.375,2.748,2.748,0,0,0,1.707,1.734,8,8,0,0,0,4.9.563,3.156,3.156,0,0,0,2.038-1.128,2.1,2.1,0,0,0,.352-1.046,2.476,2.476,0,0,0-.021-.567A3.143,3.143,0,0,1,4451.807,2102.875Z" transform="translate(-4395.621 -2063.276)" fill="#a1666f"/>
  <path id="Path_3794" data-name="Path 3794" d="M4444.049,2103.2a.6.6,0,0,0-.136.178.561.561,0,0,0,.09.474,2.091,2.091,0,0,0,.4.529,1.046,1.046,0,0,0,.588.282.436.436,0,0,0,.271-.046.564.564,0,0,0,.182-.54,1.459,1.459,0,0,0-.446-1.087C4444.668,2102.737,4444.3,2102.949,4444.049,2103.2Z" transform="translate(-4395.621 -2063.276)" fill="#432126"/>
  <path id="Path_3795" data-name="Path 3795" d="M4448.286,2104.372a.8.8,0,0,0,.074.419.478.478,0,0,0,.325.258.673.673,0,0,0,.3-.03,2.4,2.4,0,0,0,.808-.4.977.977,0,0,0,.3-.332.818.818,0,0,0,.038-.546.8.8,0,0,0-.291-.472c-.289-.206-.747-.027-1.007.158A1.285,1.285,0,0,0,4448.286,2104.372Z" transform="translate(-4395.621 -2063.276)" fill="#432126"/>
  <path id="Path_3796" data-name="Path 3796" d="M4437.26,2104.034c-.184-.23-.684-.047-.87.109a.418.418,0,0,0-.163.338.378.378,0,0,0,.257.311.641.641,0,0,0,.419-.014.669.669,0,0,0,.376-.288A.418.418,0,0,0,4437.26,2104.034Z" transform="translate(-4395.621 -2063.276)" fill="#77787f"/>
  <path id="Path_3797" data-name="Path 3797" d="M4435.2,2105.832a.424.424,0,0,0-.049.286.38.38,0,0,0,.235.291.413.413,0,0,0,.3-.017.728.728,0,0,0,.245-.189.634.634,0,0,0,.178-.4.341.341,0,0,0-.237-.339A.807.807,0,0,0,4435.2,2105.832Z" transform="translate(-4395.621 -2063.276)" fill="#77787f"/>
  <path id="Path_3798" data-name="Path 3798" d="M4436.121,2108.867a.4.4,0,0,0,.06.446.383.383,0,0,0,.346.077.769.769,0,0,0,.317-.181.708.708,0,0,0,.19-.234.348.348,0,0,0,0-.294C4436.811,2108.238,4436.27,2108.545,4436.121,2108.867Z" transform="translate(-4395.621 -2063.276)" fill="#77787f"/>
  <path id="Path_3799" data-name="Path 3799" d="M4464.731,2108.179a.62.62,0,0,0,.207.714.173.173,0,0,0,.089.032.19.19,0,0,0,.106-.048,1.269,1.269,0,0,0,.449-.672.582.582,0,0,0,0-.369C4465.369,2107.317,4464.83,2107.894,4464.731,2108.179Z" transform="translate(-4395.621 -2063.276)" fill="#606267"/>
  <path id="Path_3800" data-name="Path 3800" d="M4465.854,2108.851a.217.217,0,0,0-.215.251.466.466,0,0,0,.111.392.517.517,0,0,0,.293.093.792.792,0,0,0,.561-.079.427.427,0,0,0,.05-.6C4466.481,2108.735,4466.075,2108.812,4465.854,2108.851Z" transform="translate(-4395.621 -2063.276)" fill="#606267"/>
  <path id="Path_3801" data-name="Path 3801" d="M4466.389,2110.538a.94.94,0,0,0-.632,0,.425.425,0,0,0-.247.524c.1.213.378.254.611.251a.711.711,0,0,0,.556-.179.369.369,0,0,0-.223-.6" transform="translate(-4395.621 -2063.276)" fill="#606267"/>
  <path id="Path_3802" data-name="Path 3802" d="M4473.9,2102.5a3.379,3.379,0,0,1,1.218-.677,16.581,16.581,0,0,1-3.314,2.782l-3.871,2.711a4.791,4.791,0,0,1-1.789.909c-.2.038-.543.031-.456-.224.056-.166.6-.316.746-.383a18.931,18.931,0,0,0,1.939-1.054,40.689,40.689,0,0,0,3.549-2.53C4472.578,2103.522,4473.233,2103,4473.9,2102.5Z" transform="translate(-4395.621 -2063.276)" fill="#606267"/>
  <path id="Path_3803" data-name="Path 3803" d="M4475.8,2105.62a.253.253,0,0,1,.236-.013c.122.087,0,.276-.116.367a10.589,10.589,0,0,1-3.028,1.4l-5.214,1.777c-.313.107-.617-.04-.34-.326.2-.209.934-.307,1.219-.4.812-.275,1.619-.569,2.421-.874C4472.594,2106.935,4474.194,2106.273,4475.8,2105.62Z" transform="translate(-4395.621 -2063.276)" fill="#606267"/>
  <path id="Path_3804" data-name="Path 3804" d="M4474.978,2111.214c.165.016.378.083.373.249a35.615,35.615,0,0,1-6.162-.184c-.262-.031-1.784-.208-1.489-.577s1.77,0,2.178.033C4471.578,2110.886,4473.278,2111.05,4474.978,2111.214Z" transform="translate(-4395.621 -2063.276)" fill="#606267"/>
  <path id="Path_3805" data-name="Path 3805" d="M4433.842,2103.608a30.592,30.592,0,0,1-4.489-4.1c-.111-.115-.231-.269-.175-.419-.062.165,1.057.921,1.2,1.02a13.785,13.785,0,0,1,1.239,1.075,15.557,15.557,0,0,0,2.778,2.073c.218.121.791.5.412.724C4434.511,2104.157,4434.062,2103.762,4433.842,2103.608Z" transform="translate(-4395.621 -2063.276)" fill="#77787f"/>
  <path id="Path_3806" data-name="Path 3806" d="M4434.453,2105.388c.132.067.286.181.248.324-.048.182-.316.147-.488.071q-2.959-1.311-5.884-2.7a10.315,10.315,0,0,1-1.053-.55c-.228-.143-.648-.33-.237-.471.322-.11.8.22,1.081.34q.642.279,1.282.564Q4431.958,2104.111,4434.453,2105.388Z" transform="translate(-4395.621 -2063.276)" fill="#77787f"/>
  <path id="Path_3807" data-name="Path 3807" d="M4429.426,2107.247l-1.283-.34c-.127.182.128.386.336.462a48.991,48.991,0,0,0,6.091,1.78c.3.066.717.054.775-.244.134-.693-2.027-.739-2.375-.806C4431.776,2107.87,4430.6,2107.558,4429.426,2107.247Z" transform="translate(-4395.621 -2063.276)" fill="#77787f"/>
  <path id="Path_3808" data-name="Path 3808" d="M4444.553,2100.015s-4.676-2.475-7.771-2.935-3.313-.838-3.34-1.432.649-4.785,4.812-5.245a6.409,6.409,0,0,1,6.083,2.595s1.433,3.974,1.406,4.38A5.247,5.247,0,0,1,4444.553,2100.015Z" transform="translate(-4395.621 -2063.276)" fill="#fff"/>
  <path id="Path_3809" data-name="Path 3809" d="M4441.86,2098.385a1.623,1.623,0,0,0,.818.658,1.425,1.425,0,0,0,1.362-.4,2.246,2.246,0,0,0,.552-1.221,4.991,4.991,0,0,0-.232-2.568,1.671,1.671,0,0,0-1.083-1.158,1.538,1.538,0,0,0-1.389.457A3.3,3.3,0,0,0,4441.86,2098.385Z" transform="translate(-4395.621 -2063.276)" fill="#66b49a"/>
  <path id="Path_3810" data-name="Path 3810" d="M4442.224,2097.863a1.086,1.086,0,0,0,.527.487.843.843,0,0,0,.879-.293,1.776,1.776,0,0,0,.356-.9,4.194,4.194,0,0,0-.15-1.9,1.183,1.183,0,0,0-.7-.857.92.92,0,0,0-.9.338A2.721,2.721,0,0,0,4442.224,2097.863Z" transform="translate(-4395.621 -2063.276)" fill="#050606"/>
  <path id="Path_3811" data-name="Path 3811" d="M4442.149,2094.53a1.844,1.844,0,0,0-.488.629.877.877,0,0,0,.018.773.581.581,0,0,0,.686.266.766.766,0,0,0,.373-.412,1.8,1.8,0,0,0,.148-.5.849.849,0,0,0-.108-.616.422.422,0,0,0-.563-.126" transform="translate(-4395.621 -2063.276)" fill="#fff"/>
  <path id="Path_3812" data-name="Path 3812" d="M4471.208,2099.514a5.438,5.438,0,0,0-4.572-6.678,6.6,6.6,0,0,0-6.538,2.519,6.291,6.291,0,0,0-1.271,5.808s6.906-1.514,8.4-1.7A23.269,23.269,0,0,1,4471.208,2099.514Z" transform="translate(-4395.621 -2063.276)" fill="#dafcfb"/>
  <path id="Path_3813" data-name="Path 3813" d="M4463.738,2099.555c.081.177.192.485.409.5a3.753,3.753,0,0,0,.833-.147q.735-.135,1.467-.292a.613.613,0,0,0,.451-.222,3.617,3.617,0,0,0,.163-.439,4.742,4.742,0,0,0,.22-.879,9.592,9.592,0,0,0-.019-1.372,1.754,1.754,0,0,0-.911-1.394,1.816,1.816,0,0,0-1.6.106,2.7,2.7,0,0,0-1.332,2.027A4.181,4.181,0,0,0,4463.738,2099.555Z" transform="translate(-4395.621 -2063.276)" fill="#66b49a"/>
  <path id="Path_3814" data-name="Path 3814" d="M4464.295,2099.112a1.17,1.17,0,0,0,.461.6.992.992,0,0,0,1.013-.071,1.693,1.693,0,0,0,.583-.794,3.82,3.82,0,0,0,.259-1.891,1.221,1.221,0,0,0-.564-1.006,1.075,1.075,0,0,0-1.041.111A2.51,2.51,0,0,0,4464.295,2099.112Z" transform="translate(-4395.621 -2063.276)" fill="#050606"/>
  <path id="Path_3815" data-name="Path 3815" d="M4464.951,2095.843a1.9,1.9,0,0,0-.664.494.8.8,0,0,0-.152.758.676.676,0,0,0,.68.428.8.8,0,0,0,.493-.311,1.676,1.676,0,0,0,.272-.454.782.782,0,0,0,.019-.628.5.5,0,0,0-.578-.259" transform="translate(-4395.621 -2063.276)" fill="#fff"/>
  <path id="Path_3816" data-name="Path 3816" d="M4445.568,2094.3a8.01,8.01,0,0,0-5.216-4.562,4.9,4.9,0,0,0-3.878.708,9.316,9.316,0,0,0-2.317,2.211,3.139,3.139,0,0,0-.49.8,5.769,5.769,0,0,0-.169,1.168,7.1,7.1,0,0,0-.119,1.032c0,.227.045.515.266.569a.363.363,0,0,0,.373-.2,1.2,1.2,0,0,0,.112-.435,5.774,5.774,0,0,1,2.164-3.824,4.887,4.887,0,0,1,1.8-.843,3.794,3.794,0,0,1,1.91-.07,8.386,8.386,0,0,1,2.737,1.363,9.3,9.3,0,0,1,2.2,2.854,4.958,4.958,0,0,1,.553,2.533c-.064.851-.673,1.523-.91,2.324a2.87,2.87,0,0,0,1.052-1.192,4.125,4.125,0,0,0,.672-1.626,3.951,3.951,0,0,0-.309-1.687C4445.865,2095.046,4445.728,2094.668,4445.568,2094.3Z" transform="translate(-4395.621 -2063.276)" fill="#5d6b73"/>
  <path id="Path_3817" data-name="Path 3817" d="M4458.682,2100.526s-.728-1.111-.093-3.581a7.826,7.826,0,0,1,6.564-5.46,6.452,6.452,0,0,1,5.965,2.595c.325.576.218,3.764.218,3.764a5.1,5.1,0,0,0-3.512-4.68c-3.66-1.49-6.869,1.038-8.113,2.679S4458.682,2100.526,4458.682,2100.526Z" transform="translate(-4395.621 -2063.276)" fill="#5d6b73"/>
  <path id="Path_3818" data-name="Path 3818" d="M4471.944,2089.43a.89.89,0,0,1,.431.429.622.622,0,0,1-.473.721,1.705,1.705,0,0,1-.946-.094c-1.971-.6-3.9-1.491-5.964-1.53-2.262-.042-4.4.947-6.609,1.435-.721.159-1.037-.18-.59-.742a5.437,5.437,0,0,1,1.875-.981,13.793,13.793,0,0,1,4.178-1.027A13.607,13.607,0,0,1,4471.944,2089.43Z" transform="translate(-4395.621 -2063.276)" fill="#323a3d"/>
  <path id="Path_3819" data-name="Path 3819" d="M4473.052,2095.946a6.917,6.917,0,0,0-2.038-4.276,9.285,9.285,0,0,0-6.986-2.383c-4.411.26-8.739,3.229-9.35,8.066-.977,7.73,5.136,9.182,9.831,8.462S4473.71,2101.51,4473.052,2095.946Zm-8.49,7.9c-3.87.564-8.91-.573-8.1-6.629.5-3.79,4.072-6.116,7.709-6.319a7.909,7.909,0,0,1,5.758,1.866,5.315,5.315,0,0,1,1.68,3.351C4472.147,2100.473,4468.433,2103.281,4464.562,2103.845Z" transform="translate(-4395.621 -2063.276)" fill="#caad46"/>
  <path id="Path_3820" data-name="Path 3820" d="M4472.28,2095.676a6.92,6.92,0,0,0-2.038-4.277,9.289,9.289,0,0,0-6.986-2.383c-4.411.26-8.739,3.229-9.35,8.067-.977,7.729,5.136,9.181,9.831,8.462S4472.938,2101.239,4472.28,2095.676Zm-8.49,7.9c-3.871.565-8.91-.573-8.1-6.629.5-3.79,4.072-6.115,7.709-6.319a7.905,7.905,0,0,1,5.758,1.867,5.311,5.311,0,0,1,1.68,3.35C4471.375,2100.2,4467.661,2103.011,4463.79,2103.574Z" transform="translate(-4395.621 -2063.276)" fill="#f9d55c"/>
  <path id="Path_3821" data-name="Path 3821" d="M4463.79,2103.574c-3.871.565-8.91-.573-8.1-6.629.5-3.79,4.072-6.115,7.709-6.319a7.905,7.905,0,0,1,5.758,1.867,5.311,5.311,0,0,1,1.68,3.35C4471.375,2100.2,4467.661,2103.011,4463.79,2103.574Z" transform="translate(-4395.621 -2063.276)" fill="#549797" opacity="0.3"/>
  <path id="Path_3822" data-name="Path 3822" d="M4443.128,2089.09a5.408,5.408,0,0,0,1.734.033,1.705,1.705,0,0,0,1.31-1.027,18.907,18.907,0,0,0-10.7.115c-.484.15-1.194.473-1.141,1.07C4437.31,2089.181,4440.117,2088.718,4443.128,2089.09Z" transform="translate(-4395.621 -2063.276)" fill="#323a3d"/>
  <path id="Path_3823" data-name="Path 3823" d="M4461.458,2064.955c-7.4-1.243-6.344,6.417-6.344,6.417l7.6,4.083C4466.338,2074.963,4470.037,2066.4,4461.458,2064.955Z" transform="translate(-4395.621 -2063.276)" fill="#73c861"/>
  <path id="Path_3824" data-name="Path 3824" d="M4461.458,2064.955c-7.4-1.243-6.344,6.417-6.344,6.417S4456.412,2065.965,4461.458,2064.955Z" transform="translate(-4395.621 -2063.276)" fill="#9fe084"/>
  <path id="Path_3825" data-name="Path 3825" d="M4462.717,2065.248a5.455,5.455,0,0,1,1.192,4.465c-.244,1.514-1.732,3.377-3.031,4.756l1.836.986C4466.145,2074.99,4469.637,2067.289,4462.717,2065.248Z" transform="translate(-4395.621 -2063.276)" fill="#559848"/>
  <path id="Path_3826" data-name="Path 3826" d="M4440.709,2079.91s1.79-3.564,8.71-7.1,12.472-1.658,17.446,1.154,8.174,9.261,8.174,9.261Z" transform="translate(-4395.621 -2063.276)" fill="#4e9894"/>
  <path id="Path_3827" data-name="Path 3827" d="M4466.865,2073.967a29.015,29.015,0,0,0-4.151-1.971c.349.207,6.666,4.019,5.593,7.914-.312,1.13.385,2.062,1.546,2.817l5.186.5S4471.839,2076.778,4466.865,2073.967Z" transform="translate(-4395.621 -2063.276)" fill="#387271"/>
  <path id="Path_3828" data-name="Path 3828" d="M4436.308,2087.517a39.028,39.028,0,0,1,18.058-6.019c10.778-.84,21.416,6.893,23.8,9.256,0,0-.123-4.1-2-6.334s-8.158-7.93-18.93-8.651-17.4,4.686-18.125,5.335S4436.75,2083.406,4436.308,2087.517Z" transform="translate(-4395.621 -2063.276)" fill="#71c6c4"/>
  <path id="Path_3829" data-name="Path 3829" d="M4469.271,2079.116a29.8,29.8,0,0,0-12.036-3.347c-10.771-.721-17.4,4.686-18.124,5.334a7.524,7.524,0,0,0-2.016,3.014,25.774,25.774,0,0,1,6.99-4.311C4447.967,2078.3,4459.161,2074.692,4469.271,2079.116Z" transform="translate(-4395.621 -2063.276)" fill="#9bdedb"/>
  <path id="Path_3830" data-name="Path 3830" d="M4476.165,2084.42a23.78,23.78,0,0,0-6.892-5.3,5.116,5.116,0,0,1,2.134,3.716c.288,2.595-.349,2.947-.349,2.947h0a35.254,35.254,0,0,1,7.1,4.972S4478.039,2086.655,4476.165,2084.42Z" transform="translate(-4395.621 -2063.276)" fill="#549797"/>
  <path id="Path_3831" data-name="Path 3831" d="M4459.964,2071.2a15.574,15.574,0,0,0-10.545,1.618c-6.92,3.532-8.71,7.1-8.71,7.1l1.211.117,1.155-.909S4451.7,2071.02,4459.964,2071.2Z" transform="translate(-4395.621 -2063.276)" fill="#6cb0ae"/>
  <path id="Path_3832" data-name="Path 3832" d="M4448.888,2081.289a2.835,2.835,0,0,0-2.027,1.489,6.559,6.559,0,0,0,.133,6.979,13.037,13.037,0,0,1,2.9-6.859,5.6,5.6,0,0,0,.6,4.179,15.161,15.161,0,0,0,2.7,3.369c.168.17.462.34.614.155a30.5,30.5,0,0,1-1.714-7.653,2.179,2.179,0,0,0-.4-1.31c-.417-.457-.7-.1-1.1-.043C4450.086,2081.666,4449.483,2081.245,4448.888,2081.289Z" transform="translate(-4395.621 -2063.276)" fill="#bcc7cb"/>
  <path id="Path_3833" data-name="Path 3833" d="M4451.19,2082.79a17.126,17.126,0,0,0,2.67,7.833,47.358,47.358,0,0,1-1.6-7.868,2.475,2.475,0,0,0-.193-.826C4451.49,2080.777,4451.124,2082.189,4451.19,2082.79Z" transform="translate(-4395.621 -2063.276)" fill="#8e9a9e"/>
  <path id="Path_3834" data-name="Path 3834" d="M4454.032,2080.732a1,1,0,0,1,.621-.119,1.223,1.223,0,0,1,.455.218,6.432,6.432,0,0,1,2.387,3.185,8.14,8.14,0,0,1,.306,3.995c-.054.333-.235.749-.571.714a.709.709,0,0,1-.444-.344l-3.487-4.739A2.182,2.182,0,0,1,4454.032,2080.732Z" transform="translate(-4395.621 -2063.276)" fill="#bcc7cb"/>
  <path id="Path_3835" data-name="Path 3835" d="M4457.5,2084.016a6.442,6.442,0,0,0-2.329-3.138c-.068.085-.081.236.01.491a1.627,1.627,0,0,0,.359.511,6.566,6.566,0,0,1,1.428,2.669c.266,1.012.286,2.071.472,3.1a.566.566,0,0,0,.114.291.2.2,0,0,0,.256.034A8.143,8.143,0,0,0,4457.5,2084.016Z" transform="translate(-4395.621 -2063.276)" fill="#8e9a9e"/>
  <path id="Path_3836" data-name="Path 3836" d="M4455.008,2135.9s1.492,13.31,7.169,17.257c0,0,13.084,1.136,17.68-4.65,0,0-6.056-10.134-7.678-15.259l-4.3-3.664S4454.868,2133.295,4455.008,2135.9Z" transform="translate(-4395.621 -2063.276)" fill="#4e9894"/>
  <path id="Path_3837" data-name="Path 3837" d="M4466.448,2150.724s-3.893-14.166-4.433-15.894a9.63,9.63,0,0,0-1.351-2.776c-2.973,1.2-5.721,2.641-5.656,3.846,0,0,1.492,13.31,7.169,17.257a38.918,38.918,0,0,0,5.1.017Z" transform="translate(-4395.621 -2063.276)" fill="#73c861"/>
  <path id="Path_3838" data-name="Path 3838" d="M4459.527,2145.466a34.825,34.825,0,0,1-2.846-11.478c-1.039.657-1.705,1.314-1.673,1.912,0,0,1.492,13.31,7.169,17.257,0,0,.755.065,1.958.084A47.392,47.392,0,0,1,4459.527,2145.466Z" transform="translate(-4395.621 -2063.276)" fill="#306360"/>
  <path id="Path_3839" data-name="Path 3839" d="M4479.857,2148.507s-1.476-2.47-3.165-5.586h0c-3.327,2.794-13.246,9.353-13.246,9.353.206.348.42.668.639.966C4467.886,2153.307,4476.346,2152.927,4479.857,2148.507Z" transform="translate(-4395.621 -2063.276)" fill="#4b4ec8"/>
  <path id="Path_3840" data-name="Path 3840" d="M4474.009,2137.678l.006.014h0l-4.865,3.6c.951,3.287,2.056,6.834,2.056,6.834l1.076,4.383c2.96-.65,5.859-1.845,7.575-4C4479.857,2148.507,4476.4,2142.718,4474.009,2137.678Z" transform="translate(-4395.621 -2063.276)" fill="#559848"/>
  <path id="Path_3841" data-name="Path 3841" d="M4479.857,2148.507l-.059-.1-.091-.155c-.384-.649-1.457-2.485-2.695-4.746l-.007-.013c-.1-.184-.2-.37-.3-.558l-.009-.016h0c-1.27,1.067-3.5,2.683-5.775,4.272.179.582.289.936.289.936l1.076,4.38c.121-.027.241-.057.362-.085.224-.054.449-.1.673-.165.149-.04.3-.087.445-.13.218-.063.436-.125.65-.195.153-.05.3-.108.451-.162.206-.073.413-.144.614-.225.155-.062.3-.133.455-.2.189-.083.38-.163.563-.253.161-.079.312-.168.467-.253s.335-.176.494-.272.32-.214.479-.322c.137-.094.28-.181.411-.281.177-.134.339-.283.5-.428.1-.087.206-.166.3-.257A7.925,7.925,0,0,0,4479.857,2148.507Z" transform="translate(-4395.621 -2063.276)" fill="#4e9894"/>
  <path id="Path_3842" data-name="Path 3842" d="M4466.448,2150.724l-.107-.389c-1.7,1.148-2.9,1.939-2.9,1.939.206.348.42.668.639.966h.011c.229.005.476.007.738.007h.056c.242,0,.5,0,.762-.008h.077c.258-.006.529-.015.805-.026l.171-.007c.186-.008.381-.021.574-.032Z" transform="translate(-4395.621 -2063.276)" fill="#4e9894"/>
  <path id="Path_3843" data-name="Path 3843" d="M4474.015,2137.692a37.477,37.477,0,0,1-1.836-4.444l-.466-.4-13.693,8.565s1.345,5.535,2.589,6.205l13.406-9.929Z" transform="translate(-4395.621 -2063.276)" fill="#37399a"/>
  <path id="Path_3844" data-name="Path 3844" d="M4463.007,2138.3l-4.987,3.119s1.345,5.535,2.589,6.205l4.138-3.065C4464.162,2142.44,4463.525,2140.146,4463.007,2138.3Z" transform="translate(-4395.621 -2063.276)" fill="#4e9894"/>
  <path id="Path_3845" data-name="Path 3845" d="M4467.59,2135.429a10.37,10.37,0,0,1,.289,1.075c.193.969.705,2.834,1.271,4.791l4.865-3.6h0l-.006-.014c-.191-.4-.374-.8-.548-1.185l-.011-.024c-.173-.387-.338-.765-.491-1.133l-.011-.026c-.152-.366-.293-.721-.42-1.06l-.01-.026c-.127-.341-.241-.668-.339-.976l-.466-.4Z" transform="translate(-4395.621 -2063.276)" fill="#387271"/>
  <path id="Path_3846" data-name="Path 3846" d="M4474.752,2144.438l2.7,6.131h0a9,9,0,0,0,2.4-2.062s-1.543-2.584-3.279-5.8Z" transform="translate(-4395.621 -2063.276)" fill="#37399a"/>
  <path id="Path_3847" data-name="Path 3847" d="M4471.713,2132.851l-3.834-3.267s-.989.282-2.416.745a42.116,42.116,0,0,1,2.127,5.1Z" transform="translate(-4395.621 -2063.276)" fill="#559848"/>
  <path id="Path_3848" data-name="Path 3848" d="M4472.528,2134.25l-.01-.026Z" transform="translate(-4395.621 -2063.276)" fill="#559848"/>
  <path id="Path_3849" data-name="Path 3849" d="M4472.959,2135.336l-.011-.026Z" transform="translate(-4395.621 -2063.276)" fill="#559848"/>
  <path id="Path_3850" data-name="Path 3850" d="M4473.461,2136.493l-.011-.024Z" transform="translate(-4395.621 -2063.276)" fill="#559848"/>
  <path id="Path_3851" data-name="Path 3851" d="M4479.857,2148.507s-.267-.448-.695-1.185c-1.83,2-6.88,5.19-6.88,5.19C4475.242,2151.862,4478.141,2150.667,4479.857,2148.507Z" transform="translate(-4395.621 -2063.276)" fill="#559848"/>
  <path id="Path_3852" data-name="Path 3852" d="M4479.857,2148.507s-.241-.4-.635-1.082l-.06-.1a18.873,18.873,0,0,1-2.264,1.981l.558,1.266h0c.058-.036.112-.076.169-.112.215-.136.424-.277.625-.426.089-.066.175-.135.261-.2q.258-.205.5-.427c.074-.068.148-.134.219-.2A7.688,7.688,0,0,0,4479.857,2148.507Z" transform="translate(-4395.621 -2063.276)" fill="#387271"/>
  <path id="Path_3853" data-name="Path 3853" d="M4474.751,2144.438l-2.233-5.068,1.665-1.327,2.395,4.664Z" transform="translate(-4395.621 -2063.276)" fill="#559848"/>
  <path id="Path_3854" data-name="Path 3854" d="M4472.179,2133.248l-4.185-3.566c-.065-.024-.127-.053-.193-.076-.414.121-2.611.767-5.076,1.66h.535a1.6,1.6,0,0,1,.686.1,1.562,1.562,0,0,1,.683,1.041,21.953,21.953,0,0,1,.87,4.574,2.35,2.35,0,0,1,1.081.334.8.8,0,0,1,.3,1,1.077,1.077,0,0,1-.815.416,1.7,1.7,0,0,0-.89.284c-.239.207-.271.67.02.793a5.967,5.967,0,0,1-1.183-.217,3.5,3.5,0,0,0-4.162,3.7,5.006,5.006,0,0,0,.247,1.154,3.947,3.947,0,0,0,.7,1.376,3.764,3.764,0,0,0,3.429,1,34.652,34.652,0,0,0,3.586-1.01,10.887,10.887,0,0,1,4.777-.147,1.356,1.356,0,0,1,.593.223,1.374,1.374,0,0,1,.359.53,15.843,15.843,0,0,1,1.3,4.447,8.118,8.118,0,0,0,2.378-.348,5.423,5.423,0,0,0,.793-.315,8.817,8.817,0,0,0,1.563-1.376,2.146,2.146,0,0,0,.185-.462C4479.028,2147.108,4473.688,2138.014,4472.179,2133.248Z" transform="translate(-4395.621 -2063.276)" opacity="0.3"/>
  <path id="Path_3855" data-name="Path 3855" d="M4483.448,2133.023c5.955,4.088,5.332,7.447,5.332,7.447a4.065,4.065,0,0,1-1.892-.649,3.084,3.084,0,0,1-1.081,2.99c-.92.016-1.731-1.152-1.731-1.152-4.271,3.514-16.328,4.325-17.788,4.405s-1.405.84-3.838.912-5.029-5.641-4.055-7.047a3.066,3.066,0,0,1,2.6-1.281s0-.672,1.081-1.21,2.111-.991,2.948.263a26.431,26.431,0,0,1,1.623,2.66,4.2,4.2,0,0,0,.836,1.082s8.129-1.827,10.661-3.4c0,0-6.011-5.017-10.769-6.3,0,0-2.916-.3-.728-2.627S4478.98,2129.956,4483.448,2133.023Z" transform="translate(-4395.621 -2063.276)" fill="#e0e7ea"/>
  <path id="Path_3856" data-name="Path 3856" d="M4467.37,2131.746a28.224,28.224,0,0,1,7.889,4.124c.388-1,1.716-3.054,6.194-4.032-4.971-2.61-12.907-4.746-14.811-2.719C4464.454,2131.449,4467.37,2131.746,4467.37,2131.746Z" transform="translate(-4395.621 -2063.276)" fill="#762f2e"/>
  <path id="Path_3857" data-name="Path 3857" d="M4464.774,2145.822a6.566,6.566,0,0,1-3.946.43,2.462,2.462,0,0,0,1.622.724c2.433-.073,2.378-.832,3.838-.912s13.517-.891,17.788-4.405c-3.838,2.055-16,3.3-17.006,3.416A8.988,8.988,0,0,0,4464.774,2145.822Z" transform="translate(-4395.621 -2063.276)" fill="#a9b0b4"/>
  <path id="Path_3858" data-name="Path 3858" d="M4483.448,2133.023c-4.468-3.067-14.619-6.233-16.806-3.9s.728,2.627.728,2.627c4.758,1.279,10.769,6.3,10.769,6.3l1.774-1.3-5.731-4.151s8.3.305,10.7,1.511C4484.445,2133.747,4483.981,2133.389,4483.448,2133.023Z" transform="translate(-4395.621 -2063.276)" opacity="0.3"/>
  <path id="Path_3859" data-name="Path 3859" d="M4477.384,2137.44c.472.368.755.6.755.6s-.283-.234-.755-.6Z" transform="translate(-4395.621 -2063.276)" fill="#f9fcfc"/>
  <path id="Path_3860" data-name="Path 3860" d="M4479.913,2136.739l-1.774,1.3c-2.532,1.574-10.661,3.4-10.661,3.4l.811.767s11.03-2.714,12.976-5.471C4481.265,2136.739,4481.211,2136.469,4479.913,2136.739Z" transform="translate(-4395.621 -2063.276)" fill="#f9fcfc"/>
  <path id="Path_3861" data-name="Path 3861" d="M4464.459,2137.538a3.421,3.421,0,0,0,.371-.067c-.8-.939-1.757-.531-2.759-.032-1.081.537-1.081,1.209-1.081,1.209a3.066,3.066,0,0,0-2.6,1.281,2.158,2.158,0,0,0-.151,1.487,1.948,1.948,0,0,1,.994-.955c.488-.2,1.042-.192,1.519-.415a.659.659,0,0,0,.353-.319,1.359,1.359,0,0,0,.04-.43c.044-.706.8-1.127,1.47-1.344A10.556,10.556,0,0,1,4464.459,2137.538Z" transform="translate(-4395.621 -2063.276)" fill="#f9fcfc"/>
  <path id="Path_3862" data-name="Path 3862" d="M4463.394,2131.716s8.72-1.231,12.692-.654,14.857,5.046,22.354,4.325,12.256-1.9,15.572-6c0,0-3.893,2.175-6.993,1.743a17.25,17.25,0,0,0-4.47-.216s4.686-1.266,6.344-3.985a22.92,22.92,0,0,1-12.4,1.1c-6.993-1.3-15.972-6.2-21.034-6.272s-7.632,1.442-7.632,1.442S4457.613,2132.336,4463.394,2131.716Z" transform="translate(-4395.621 -2063.276)" fill="#f9d443"/>
  <path id="Path_3863" data-name="Path 3863" d="M4463.394,2131.716s2.7-.381,5.784-.62a12.378,12.378,0,0,0,2.479-4.917c.107-1.277-1.847-3.735-1.85-3.739a9.307,9.307,0,0,0-1.979.764S4457.613,2132.336,4463.394,2131.716Z" transform="translate(-4395.621 -2063.276)" fill="#b99629"/>
  <path id="Path_3864" data-name="Path 3864" d="M4507.019,2131.134a20.706,20.706,0,0,0-4.145-.247c-.109.009-.214.023-.324.03,0,0-7.137-1-9.8-.426,0,0,8.507.813,10.381,1.377s7.281.683,10.886-2.477C4514.012,2129.391,4510.119,2131.566,4507.019,2131.134Z" transform="translate(-4395.621 -2063.276)" fill="#fef9cb"/>
  <path id="Path_3865" data-name="Path 3865" d="M4490.966,2128.007c7.209,1.852,14.057,1.956,18.094-.908a22.915,22.915,0,0,1-12.4,1.1c-5.951-1.1-13.332-4.809-18.522-5.936A44.765,44.765,0,0,0,4490.966,2128.007Z" transform="translate(-4395.621 -2063.276)" fill="#fef9cb"/>
  <path id="Path_3866" data-name="Path 3866" d="M4444.768,2129.119s-.157,8.161-1.833,10.918l-1.677,2.757s1.293,9.138,1.755,9.624.6,1.082,1.938-.594a17.507,17.507,0,0,0,3.39-8.219c.271-3.081.757-8.813.757-8.813S4447.2,2129.178,4444.768,2129.119Z" transform="translate(-4395.621 -2063.276)" fill="#4b4ec8"/>
  <path id="Path_3867" data-name="Path 3867" d="M4446.122,2135.514l-2.175,1.563.717-5.636Z" transform="translate(-4395.621 -2063.276)" fill="#6dc6cb"/>
  <path id="Path_3868" data-name="Path 3868" d="M4445.842,2130.491a6.437,6.437,0,0,0-.17-1.1,1.924,1.924,0,0,0-.9-.275s-.157,8.16-1.833,10.918l-1.677,2.757s.137.965.337,2.281a13.235,13.235,0,0,0,2.343-3.848C4444.881,2138.739,4446.045,2133.218,4445.842,2130.491Z" transform="translate(-4395.621 -2063.276)" fill="#797fe3"/>
  <path id="Path_3869" data-name="Path 3869" d="M4444.665,2131.44l-.015.113a41.934,41.934,0,0,1-.7,5.519v0l1.34-.963c.129-.671.242-1.344.334-2Z" transform="translate(-4395.621 -2063.276)" fill="#9ceefd"/>
  <path id="Path_3870" data-name="Path 3870" d="M4443.938,2145.552c-.156-.683-1.256-3.62-1.6-4.533-1.076,1.771-1.079,1.775-1.079,1.775s.154,1.084.374,2.524c.418,2.743,1.078,6.781,1.381,7.1.462.486.6,1.081,1.938-.595.106-.133.218-.295.328-.448C4444.819,2149.38,4444.066,2146.109,4443.938,2145.552Z" transform="translate(-4395.621 -2063.276)" fill="#4e9894"/>
  <path id="Path_3871" data-name="Path 3871" d="M4445.842,2130.491a6.437,6.437,0,0,0-.17-1.1,1.924,1.924,0,0,0-.9-.275s-.157,8.16-1.833,10.918l-1.677,2.757s.137.965.337,2.281a13.235,13.235,0,0,0,2.343-3.848C4444.881,2138.739,4446.045,2133.218,4445.842,2130.491Z" transform="translate(-4395.621 -2063.276)" fill="none"/>
  <path id="Path_3872" data-name="Path 3872" d="M4441.268,2142.861c.033.232.157,1.093.327,2.214a14.01,14.01,0,0,0,1.482-2.065c-.3-.812-.589-1.593-.74-1.991-.329.541-.557.917-.715,1.178l-.32.525-.044.072.005.034Z" transform="translate(-4395.621 -2063.276)" fill="#6dc6cb"/>
  <path id="Path_3873" data-name="Path 3873" d="M4447.638,2141.026l-6.006,4.292c.307,2.016.745,4.727,1.076,6.152h0l3.795-2.944.73-.746a14.533,14.533,0,0,0,1.108-4.174l.017-.19Z" transform="translate(-4395.621 -2063.276)" fill="#4e9894"/>
  <path id="Path_3874" data-name="Path 3874" d="M4441.74,2146.022l.025.162c.078.5.16,1.015.245,1.532l.021.122c.088.533.178,1.062.267,1.561l.012.067c.091.509.181.985.267,1.4l.006.029c.042.2.082.39.121.559l0,.015,2.2-1.707-.97-4.211c-.059-.261-.256-.849-.5-1.527l-1.81,1.293C4441.666,2145.545,4441.7,2145.782,4441.74,2146.022Z" transform="translate(-4395.621 -2063.276)" fill="#73c861"/>
  <path id="Path_3875" data-name="Path 3875" d="M4445.64,2129.375a1.91,1.91,0,0,0-.872-.256s-.019.948-.109,2.305l.006.016,3.346,9.354.621-.544c.233-2.712.466-5.457.466-5.457a17.3,17.3,0,0,0-2.133-4.175l-1.293-1.224Z" transform="translate(-4395.621 -2063.276)" fill="#73c861"/>
  <path id="Path_3876" data-name="Path 3876" d="M4444.767,2129.165l0,.11v.02c0,.053,0,.115-.006.19v.021c0,.068,0,.146-.009.23l0,.055c0,.094-.008.2-.013.307h0c0,.119-.011.246-.018.382l0,.039q-.009.171-.02.36l-.006.1c-.008.134-.017.273-.026.417l0,.025.006.016.956,2.674a18.312,18.312,0,0,0,.221-3.623,6.437,6.437,0,0,0-.17-1.1,2.314,2.314,0,0,0-.344-.152c-.035-.013-.07-.035-.106-.046a1.69,1.69,0,0,0-.454-.077v.046Z" transform="translate(-4395.621 -2063.276)" fill="#94e09a"/>
  <path id="Path_3877" data-name="Path 3877" d="M4448.678,2133.716l-2.556,1.8,1.889,5.28.621-.544c.233-2.712.466-5.457.466-5.457S4448.947,2134.35,4448.678,2133.716Z" transform="translate(-4395.621 -2063.276)" fill="#4e9894"/>
  <path id="Path_3878" data-name="Path 3878" d="M4449.1,2134.793a19.651,19.651,0,0,0-1.336-2.955l-.5.467s.649,10.652-2.082,15.842c-.987,1.876-1.642,3.3-2.08,4.365.4.459.6.881,1.853-.688a17.508,17.508,0,0,0,3.39-8.218C4448.612,2140.524,4449.1,2134.793,4449.1,2134.793Z" transform="translate(-4395.621 -2063.276)" fill="#306360"/>
  <path id="Path_3879" data-name="Path 3879" d="M4444.894,2129.391s1.531,4.915,4.326,6a12.523,12.523,0,0,0,5.354.793s7.882-3.088,10.267-5.689S4444.894,2129.391,4444.894,2129.391Z" transform="translate(-4395.621 -2063.276)" fill="#f7ca3f"/>
  <path id="Path_3880" data-name="Path 3880" d="M4444.665,2120.491s-2.022,6.1.429,9.2,6.845,3.677,6.845,3.677,10.323.36,14.823-4.614,2.9-6.272,2.114-7.678c0,0-11.527,3.136-14.3,3.28s-2.053.289-2.053.289S4445.173,2120.445,4444.665,2120.491Z" transform="translate(-4395.621 -2063.276)" fill="#fbe949"/>
  <path id="Path_3881" data-name="Path 3881" d="M4445.436,2121.761a5.215,5.215,0,0,1,.348-.8,4.68,4.68,0,0,0-1.119-.469s-1.888,5.726.229,8.9c-.054-1.089-.061-2.18-.007-3.269A18.887,18.887,0,0,1,4445.436,2121.761Z" transform="translate(-4395.621 -2063.276)" fill="#fef9cb"/>
  <path id="Path_3882" data-name="Path 3882" d="M4468.876,2121.078s-11.527,3.135-14.3,3.279c-1.8.094-2.128.188-2.136.242-.808-.461-7.3-4.151-7.773-4.108,0,0-.15.461-.319,1.181.2.137.372.259.517.363a36.567,36.567,0,0,0,6.866,3.862,10.4,10.4,0,0,0,3.2.916c2.023.163,3.974-.685,5.826-1.515q.518,3.285,1.036,6.57a12.263,12.263,0,0,0,4.975-3.113C4471.262,2123.781,4469.662,2122.483,4468.876,2121.078Z" transform="translate(-4395.621 -2063.276)" fill="#bba62f"/>
  <path id="Path_3883" data-name="Path 3883" d="M4466.762,2128.755c.112-.124.2-.235.308-.354a75.9,75.9,0,0,1-7.846,2.874c-2.786.847-6,2.184-8.9,1.251a8.387,8.387,0,0,1-2.111-1.1,19.62,19.62,0,0,1-3.136-2.652c-.115-.12-.509-.618-.946-1.163a5.37,5.37,0,0,0,.967,2.084c2.451,3.1,6.845,3.677,6.845,3.677S4462.262,2133.729,4466.762,2128.755Z" transform="translate(-4395.621 -2063.276)" fill="#b9992a"/>
  <path id="Path_3884" data-name="Path 3884" d="M4446,2137.859a1.611,1.611,0,0,0,.091.626,1.424,1.424,0,0,0,1.349.717,1.741,1.741,0,0,0,.46-.05,1.324,1.324,0,0,0,.939-1.16,1.467,1.467,0,0,0-.713-1.332,1.8,1.8,0,0,0-1.564-.086A1.412,1.412,0,0,0,4446,2137.859Z" transform="translate(-4395.621 -2063.276)" fill="#f5df60"/>
  <path id="Path_3885" data-name="Path 3885" d="M4448.122,2136.66a1.8,1.8,0,0,0-1.564-.086,1.413,1.413,0,0,0-.562,1.285,1.611,1.611,0,0,0,.091.626,1.026,1.026,0,0,0,.463.484c0-.011-.012-.017-.017-.028a1.523,1.523,0,0,1,.023-1.1,1.887,1.887,0,0,1,1.636-1.128C4448.167,2136.7,4448.148,2136.675,4448.122,2136.66Z" transform="translate(-4395.621 -2063.276)" fill="#fef7bb"/>
  <path id="Path_3886" data-name="Path 3886" d="M4445.178,2144.363a1.443,1.443,0,0,0,.085.572,1.3,1.3,0,0,0,1.235.657,1.566,1.566,0,0,0,.421-.046,1.21,1.21,0,0,0,.86-1.062,1.346,1.346,0,0,0-.654-1.22,1.646,1.646,0,0,0-1.431-.079A1.3,1.3,0,0,0,4445.178,2144.363Z" transform="translate(-4395.621 -2063.276)" fill="#f5df60"/>
  <path id="Path_3887" data-name="Path 3887" d="M4447.125,2143.264a1.646,1.646,0,0,0-1.431-.079,1.3,1.3,0,0,0-.516,1.178,1.47,1.47,0,0,0,.085.572.938.938,0,0,0,.423.444c0-.01-.011-.015-.015-.026a1.391,1.391,0,0,1,.021-1,1.726,1.726,0,0,1,1.5-1.033C4447.167,2143.3,4447.149,2143.278,4447.125,2143.264Z" transform="translate(-4395.621 -2063.276)" fill="#fef7bb"/>
  <path id="Path_3888" data-name="Path 3888" d="M4457.535,2139.085c.155-.038.361-.055.433.088a.46.46,0,0,1-.219.178,5.619,5.619,0,0,1-1.591.516.324.324,0,0,1-.146,0c-.5-.156.126-.439.276-.476Z" transform="translate(-4395.621 -2063.276)" fill="#002613"/>
  <path id="Path_3889" data-name="Path 3889" d="M4459,2144.583c.155-.038.36-.055.432.087a.455.455,0,0,1-.218.179,5.619,5.619,0,0,1-1.591.516.328.328,0,0,1-.146,0c-.5-.156.126-.439.276-.476Z" transform="translate(-4395.621 -2063.276)" fill="#002613"/>
  <path id="Path_3890" data-name="Path 3890" d="M4461.026,2147.6c.155-.038.361-.054.433.088a.452.452,0,0,1-.219.179,5.638,5.638,0,0,1-1.591.516.314.314,0,0,1-.146,0c-.5-.155.126-.439.276-.476Z" transform="translate(-4395.621 -2063.276)" fill="#002613"/>
  <path id="Path_3891" data-name="Path 3891" d="M4463.054,2150.791c.155-.038.36-.054.432.088a.454.454,0,0,1-.218.179,5.648,5.648,0,0,1-1.591.516.311.311,0,0,1-.146,0c-.5-.155.126-.439.276-.476Z" transform="translate(-4395.621 -2063.276)" fill="#002613"/>
  <path id="Path_3892" data-name="Path 3892" d="M4449.687,2148.734a4.529,4.529,0,0,0-1.256,1.856,3.1,3.1,0,0,0,.807,2.925,4.129,4.129,0,0,0,2.773,1.163,4.033,4.033,0,0,0,4.138-2.722,3.753,3.753,0,0,0-.922-3.416C4453.443,2146.631,4451.368,2147.043,4449.687,2148.734Z" transform="translate(-4395.621 -2063.276)" opacity="0.3"/>
  <path id="Path_3893" data-name="Path 3893" d="M4449.687,2147.965a4.538,4.538,0,0,0-1.256,1.857,3.1,3.1,0,0,0,.807,2.925,4.123,4.123,0,0,0,2.773,1.162,4.032,4.032,0,0,0,4.138-2.721,3.753,3.753,0,0,0-.922-3.416C4453.443,2145.863,4451.368,2146.274,4449.687,2147.965Z" transform="translate(-4395.621 -2063.276)" fill="#f5df60"/>
  <path id="Path_3894" data-name="Path 3894" d="M4453.56,2146.656a8.143,8.143,0,0,1,1.055,1.712,3.536,3.536,0,0,1,.126,2.732,3.242,3.242,0,0,1-2.5,1.8,4.457,4.457,0,0,1-2.518-.3c-.361-.187-.66-.721-1.065-.771h-.036a3.225,3.225,0,0,0,.619.916,4.119,4.119,0,0,0,2.773,1.163,4.032,4.032,0,0,0,4.138-2.721,3.753,3.753,0,0,0-.922-3.416A3.959,3.959,0,0,0,4453.56,2146.656Z" transform="translate(-4395.621 -2063.276)" fill="#b8aa47"/>
  <path id="Path_3895" data-name="Path 3895" d="M4449.687,2147.966a4.528,4.528,0,0,0-1.256,1.856,3.1,3.1,0,0,0,.807,2.924,3.474,3.474,0,0,0,.75.57,4.252,4.252,0,0,1-1.052-2.033,3.912,3.912,0,0,1,1.557-3.343,9.292,9.292,0,0,1,2.565-1.4A4.064,4.064,0,0,0,4449.687,2147.966Z" transform="translate(-4395.621 -2063.276)" fill="#fef9cb"/>
  <path id="Path_3896" data-name="Path 3896" d="M4450.287,2149.1a.524.524,0,0,1-.04-.576.739.739,0,0,1,.488-.343.586.586,0,0,1,.446.058.342.342,0,0,1,.142.4.234.234,0,0,0-.039.124.167.167,0,0,0,.048.081l.744.835,1.077-.749a.2.2,0,0,0,.059-.056.239.239,0,0,0,.02-.1.526.526,0,0,1,.686-.4.77.77,0,0,1,.469.718.584.584,0,0,1-.207.492c-.236.166-.561.038-.811-.106a5.138,5.138,0,0,1-1.02.789,2.287,2.287,0,0,1,.763.657.482.482,0,0,1,.638.181.631.631,0,0,1-.071.692.934.934,0,0,1-.643.323.456.456,0,0,1-.391-.111.564.564,0,0,1-.088-.166.822.822,0,0,1-.066-.631,5.04,5.04,0,0,1-.539-.747l-.8.633a.2.2,0,0,0-.074.086.291.291,0,0,0,.014.145.439.439,0,0,1-.252.441,1.278,1.278,0,0,1-.528.109.486.486,0,0,1-.213-.019.347.347,0,0,1-.162-.156.694.694,0,0,1,.263-.928,3.693,3.693,0,0,1,.525-.163,2.086,2.086,0,0,0,.742-.558.089.089,0,0,0,.03-.052.085.085,0,0,0-.027-.052,3.354,3.354,0,0,0-.6-.7C4450.68,2149.158,4450.463,2149.308,4450.287,2149.1Z" transform="translate(-4395.621 -2063.276)" fill="#997029"/>
  <path id="Path_3897" data-name="Path 3897" d="M4451.8,2173.521c-.254.131-.691,0-1.266-.02-.2-.009-.348-.031-.55-.058a3.524,3.524,0,0,1-.527-.148,34.473,34.473,0,0,1-6.48-2.727c-.118-.065-.156-.057-.142-.19.017-.17.266-.163.427-.106,1.372.487,2.746.976,4.075,1.572a13.885,13.885,0,0,0,1.383.577,14.073,14.073,0,0,1,2.938.894C4451.723,2173.356,4451.868,2173.484,4451.8,2173.521Z" transform="translate(-4395.621 -2063.276)" fill="#6a3821"/>
  <path id="Path_3898" data-name="Path 3898" d="M4433.908,2165.45a3.545,3.545,0,0,0,1.843-1.424,15.924,15.924,0,0,0,1.1-1.793c.381-.887.748-1.779,1.114-2.672q1.074-2.618,2.085-5.26a.663.663,0,0,0,.065-.384.671.671,0,0,0-.226-.309,8.922,8.922,0,0,0-2.367-1.759.384.384,0,0,1-.154-.1c-.1-.135.019-.323.136-.446.276-.29,2.634,1.648,2.9,1.979a1.22,1.22,0,0,1,.333.653,1.205,1.205,0,0,1-.1.468q-1.05,2.964-2.252,5.871-.6,1.452-1.239,2.889a10.177,10.177,0,0,1-1.311,1.935,2.869,2.869,0,0,1-.574.652,2.58,2.58,0,0,1-.909.384,11.393,11.393,0,0,1-2.9.449C4431.454,2165.583,4433.215,2165.709,4433.908,2165.45Z" transform="translate(-4395.621 -2063.276)" fill="#6a3821"/>
  <path id="Path_3899" data-name="Path 3899" d="M4476.25,2156.749a.832.832,0,0,0-.544.879,21.231,21.231,0,0,0,2.493,10.982l.472-.223c-2.123-2.948-2.433-6.786-2.649-10.412a1.023,1.023,0,0,1,.055-.507.994.994,0,0,1,.414-.382,12.748,12.748,0,0,1,4.774-1.713c-.5-.755-1.681-.072-2.422.2A16.8,16.8,0,0,0,4476.25,2156.749Z" transform="translate(-4395.621 -2063.276)" fill="#6a3821"/>
  <path id="Path_3900" data-name="Path 3900" d="M4418.06,2119.744s9.822,1.586,13.67,1.586,12.217.43,12.217.43l1.8,4.04-1.056,5.182-21.653-4.8-5.911-1.6S4417.267,2120.969,4418.06,2119.744Z" transform="translate(-4395.621 -2063.276)" fill="none"/>
  <path id="Path_3901" data-name="Path 3901" d="M4409.27,2144.025l3.429,5.889-2.911-25.773-1.165-12.045-4.037-45.05s-.8-3.745-1.665-3.745-1.4,1.446-1.4,1.947.855,8.07.855,8.07l4.052,43.573Z" transform="translate(-4395.621 -2063.276)" fill="#895c3f"/>
  <path id="Path_3902" data-name="Path 3902" d="M4408.623,2112.1l-4.037-45.05s-.8-3.745-1.665-3.745a.948.948,0,0,0-.639.291l1.282,9.185s1.3,10.286,1.3,11.2,2.464,36.84,2.464,36.84l.731,11.691,1.209,11.518,3.429,5.889-2.911-25.773Z" transform="translate(-4395.621 -2063.276)" fill="#513226"/>
  <path id="Path_3903" data-name="Path 3903" d="M4409.788,2124.141l-1.165-12.045-1.494-16.668c.111,3.273.632,17.965,1.355,26.311.817,9.431,1.808,19.92,1.808,19.92l.667,5.268,1.74,2.987Z" transform="translate(-4395.621 -2063.276)" fill="#392419"/>
  <path id="Path_3904" data-name="Path 3904" d="M4404.529,2113.574a2.122,2.122,0,0,0-.924.759,8.476,8.476,0,0,0-1.314,5.468,8.827,8.827,0,0,0,1.008,4.265,1.934,1.934,0,0,0,.688.742,2.26,2.26,0,0,0,.618.195,4.107,4.107,0,0,0,1.459.1,3.05,3.05,0,0,0,2.208-1.986,7.324,7.324,0,0,0,.324-3.066,11.862,11.862,0,0,0-.9-4.216C4407.17,2114.656,4406.08,2113.023,4404.529,2113.574Z" transform="translate(-4395.621 -2063.276)" fill="#9ceefd"/>
  <path id="Path_3905" data-name="Path 3905" d="M4402.694,2117.064a5.16,5.16,0,0,1,1.154-1.465,2.933,2.933,0,0,1,1.718-.639,1.116,1.116,0,0,0,.791-.2.692.692,0,0,0,.023-.8c0-.01-.015-.015-.02-.025a1.81,1.81,0,0,0-1.831-.365,2.112,2.112,0,0,0-.924.758,6.758,6.758,0,0,0-1.234,3.33C4402.474,2117.459,4402.581,2117.257,4402.694,2117.064Z" transform="translate(-4395.621 -2063.276)" fill="#def9ff"/>
  <path id="Path_3906" data-name="Path 3906" d="M4407.7,2115.832a6.936,6.936,0,0,0-.606-1.08,12.616,12.616,0,0,0,.3,1.743,10.547,10.547,0,0,1-.529,5.836,3.32,3.32,0,0,1-1.15,1.639,3.391,3.391,0,0,1-2.126.4c-.028,0-.063-.011-.1-.018a1.579,1.579,0,0,0,.491.452,2.215,2.215,0,0,0,.618.194,4.085,4.085,0,0,0,1.459.1,3.048,3.048,0,0,0,2.208-1.986,7.324,7.324,0,0,0,.324-3.066A11.862,11.862,0,0,0,4407.7,2115.832Z" transform="translate(-4395.621 -2063.276)" fill="#60a2ba"/>
  <path id="Path_3907" data-name="Path 3907" d="M4407.7,2115.832a5.836,5.836,0,0,0-1.083-1.658,6,6,0,0,0,.742,2.877c.18.271.4.514.569.794a3.376,3.376,0,0,1,.253.547,7.031,7.031,0,0,1,.3,3.347,11.625,11.625,0,0,1-.382,1.747,3.644,3.644,0,0,0,.17-.372,7.324,7.324,0,0,0,.324-3.066A11.862,11.862,0,0,0,4407.7,2115.832Z" transform="translate(-4395.621 -2063.276)" fill="#366277"/>
  <path id="Path_3908" data-name="Path 3908" d="M4403.685,2122.257a.2.2,0,0,0-.04.06c-.033.085.052.18.143.186a.312.312,0,0,0,.236-.12c.061-.067.108-.147.174-.21a.159.159,0,0,1,.109-.051.177.177,0,0,1,.082.032l.484.282a.246.246,0,0,0,.065-.34c-.085-.114-.274-.156-.291-.3a.36.36,0,0,1,.109-.234.947.947,0,0,0,.17-.4.078.078,0,0,0-.077-.109.414.414,0,0,0-.391.177c-.043.065-.078.151-.154.166a.184.184,0,0,1-.116-.025,5.007,5.007,0,0,1-.428-.318.145.145,0,0,0-.073-.029.116.116,0,0,0-.1.068c-.072.134.029.294.141.4C4404.085,2121.817,4403.963,2121.915,4403.685,2122.257Z" transform="translate(-4395.621 -2063.276)" fill="#fdffff"/>
  <path id="Path_3909" data-name="Path 3909" d="M4406.136,2119.36l-.205-.223a.411.411,0,0,1-.113-.174.143.143,0,0,1,.083-.171.2.2,0,0,1,.163.053l.316.216c.022.015.049.031.074.02a.084.084,0,0,0,.037-.048.844.844,0,0,1,.423-.42.576.576,0,0,1-.141.561.168.168,0,0,0-.041.081c0,.053.045.093.086.129a.658.658,0,0,1,.2.308.191.191,0,0,1-.027.2.178.178,0,0,1-.183.012.439.439,0,0,1-.145-.092.363.363,0,0,0-.1-.078c-.108-.042-.206.077-.257.181s-.129.23-.242.21-.146-.191-.118-.313a1.124,1.124,0,0,1,.184-.405" transform="translate(-4395.621 -2063.276)" fill="#fdffff"/>
  <path id="Path_3910" data-name="Path 3910" d="M4404.54,2119.241c.063.073.138.168.232.144a.151.151,0,0,0,.086-.193.377.377,0,0,0-.153-.176.691.691,0,0,1-.18-.154c-.117-.17-.018-.4.083-.58s.206-.406.1-.581a.452.452,0,0,0-.336.227.781.781,0,0,1-.29.3,1.683,1.683,0,0,0-.555-.571.074.074,0,0,0-.054-.017c-.033.007-.042.049-.041.082a2.256,2.256,0,0,0,.351.844.247.247,0,0,1,.027.092.265.265,0,0,1-.07.158l-.218.291c-.063.085-.126.205-.059.286a.169.169,0,0,0,.2.023.726.726,0,0,0,.166-.141C4404.072,2119.032,4404.3,2118.959,4404.54,2119.241Z" transform="translate(-4395.621 -2063.276)" fill="#feffff"/>
  <path id="Path_3911" data-name="Path 3911" d="M4404.587,2115.482c0-.065.024-.143.088-.156.08-.015.135.075.173.147a1.125,1.125,0,0,0,.225.3.108.108,0,0,0,.07.038.092.092,0,0,0,.052-.018c.158-.1.241-.337.427-.332a.092.092,0,0,1,.068.025c.037.041.006.1-.025.149l-.235.335a.179.179,0,0,0-.046.146c.021.066.106.081.174.1a.524.524,0,0,1,.287.192.172.172,0,0,1,.044.131c-.017.085-.132.112-.213.082a2.526,2.526,0,0,1-.223-.134c-.369-.178-.672.581-.757.176-.034-.164.1-.366.106-.533C4404.805,2115.875,4404.6,2115.719,4404.587,2115.482Z" transform="translate(-4395.621 -2063.276)" fill="#f8feff"/>
  <path id="Path_3912" data-name="Path 3912" d="M4408.056,2117.519l1.453,1.441.279,5.181,6.326,2.568.541-6.082,1.432-3.847-.652-.092-3.781.7a14.375,14.375,0,0,1-3.3-2.352c-.941-1.109-2.049-2.487-2.968-1.92S4406.93,2116.4,4408.056,2117.519Z" transform="translate(-4395.621 -2063.276)" fill="#9ceefd"/>
  <path id="Path_3913" data-name="Path 3913" d="M4416.655,2120.627l.485-1.3a14.571,14.571,0,0,0-1.807.276,7.587,7.587,0,0,1-3.545-.432,4.467,4.467,0,0,1-2.406-1.658l-2.453-2.585a4.66,4.66,0,0,0,1.127,2.595l1.453,1.441.279,5.181,6.326,2.568Z" transform="translate(-4395.621 -2063.276)" fill="#68afc8"/>
  <path id="Path_3914" data-name="Path 3914" d="M4409.375,2118.827a7.034,7.034,0,0,1,.629.543.368.368,0,0,0,.568-.072,4.407,4.407,0,0,0-1.433-1.1c-.94-.547-1.88-3.113-2.234-4.042a4.79,4.79,0,0,0,1.151,3.367Z" transform="translate(-4395.621 -2063.276)" fill="#366277"/>
  <path id="Path_3915" data-name="Path 3915" d="M4417.824,2116.743l-.389-.055-3.781.7a14.375,14.375,0,0,1-3.3-2.352c-.941-1.108-2.049-2.487-2.968-1.92a1.278,1.278,0,0,0-.472,1.008,2,2,0,0,1,1.713.4,38.306,38.306,0,0,0,4.923,3.866,22.455,22.455,0,0,0,3.865-1.027Z" transform="translate(-4395.621 -2063.276)" fill="#def9ff"/>
  <path id="Path_3916" data-name="Path 3916" d="M4409.66,2116.384c-.021-.036-.038-.087-.005-.114s.082,0,.114.035l.262.256a.426.426,0,0,0,.219.139c.121.018.229-.068.337-.126a.111.111,0,0,1,.06-.018c.054.005.07.081.049.131s-.064.089-.081.14c-.034.1.045.206.119.287l.349.381a.318.318,0,0,1-.331-.056.822.822,0,0,0-.305-.174.5.5,0,0,0-.389.154c-.057.049-.129.107-.2.078s-.077-.151-.024-.218a1.129,1.129,0,0,1,.2-.152c.168-.132.072-.229-.043-.333A1.682,1.682,0,0,1,4409.66,2116.384Z" transform="translate(-4395.621 -2063.276)" fill="#fdffff"/>
  <path id="Path_3917" data-name="Path 3917" d="M4413.781,2118.56l.4.076a.332.332,0,0,0,.113.008.323.323,0,0,0,.161-.1l.187-.179a.093.093,0,0,1,.047-.032c.046-.011.085.045.078.092a.258.258,0,0,1-.075.119.184.184,0,0,0-.062.123.2.2,0,0,0,.079.125l.307.285a.153.153,0,0,1,.046.063.1.1,0,0,1-.08.108.218.218,0,0,1-.144-.033c-.1-.051-.183-.123-.28-.175a.376.376,0,0,0-.317-.035.641.641,0,0,0-.113.074,1.145,1.145,0,0,1-.4.185.282.282,0,0,1-.17,0,.114.114,0,0,1-.074-.137c.019-.051.079-.071.131-.084.118-.031.423-.051.432-.216,0-.076-.045-.1-.1-.132C4413.947,2118.7,4413.734,2118.552,4413.781,2118.56Z" transform="translate(-4395.621 -2063.276)" fill="#fcfeff"/>
  <path id="Path_3918" data-name="Path 3918" d="M4411.438,2121.443a.155.155,0,0,0,.1.058.076.076,0,0,0,.086-.057.1.1,0,0,0-.007-.046,1.188,1.188,0,0,0-.124-.208.254.254,0,0,1-.035-.231.315.315,0,0,1,.11-.111l.26-.185c.093-.067.2-.151.195-.266,0-.059-.046-.123-.1-.116s-.083.064-.113.11a.4.4,0,0,1-.647.029,2.413,2.413,0,0,1-.123-.208.275.275,0,0,0-.187-.14.087.087,0,0,0-.061.013.091.091,0,0,0-.024.082c.02.171.215.287.221.459a.388.388,0,0,1-.091.228,1.258,1.258,0,0,1-.482.394c-.054.026-.121.063-.115.123a.1.1,0,0,0,.042.066.272.272,0,0,0,.3,0,1.709,1.709,0,0,0,.239-.2C4411.192,2120.951,4411.24,2121.223,4411.438,2121.443Z" transform="translate(-4395.621 -2063.276)" fill="#95c8d9"/>
  <path id="Path_3919" data-name="Path 3919" d="M4413.276,2121.767c-.037-.048-.063-.137,0-.154a.082.082,0,0,1,.059.011,1.4,1.4,0,0,1,.265.207.414.414,0,0,0,.3.119.668.668,0,0,0,.284-.166.283.283,0,0,1,.308-.055c.025.016.048.046.037.074a.083.083,0,0,1-.03.034l-.195.156c-.059.046-.122.13-.071.186a.159.159,0,0,0,.1.034.728.728,0,0,1,.29.1.067.067,0,0,1,.03.03c.013.031-.024.059-.055.072a.729.729,0,0,1-.339.046,1.084,1.084,0,0,0-.37-.029.61.61,0,0,0-.227.132l-.309.244a.4.4,0,0,1-.151.088.14.14,0,0,1-.154-.056c-.038-.073.021-.158.085-.21.128-.1.337-.182.417-.334C4413.644,2122.114,4413.384,2121.907,4413.276,2121.767Z" transform="translate(-4395.621 -2063.276)" fill="#91c6d8"/>
  <path id="Path_3920" data-name="Path 3920" d="M4411.822,2123.381c0-.038,0-.083.03-.1.048-.033.109.025.128.08.061.178-.018.4.1.55s.387.139.53.283c.014.014.027.038.012.051a.039.039,0,0,1-.024.008.642.642,0,0,1-.265-.033c-.1-.033-.209-.086-.286-.022a.246.246,0,0,0-.058.2l0,.188a.155.155,0,0,1,0,.03c-.014.064-.116.061-.155.009a.308.308,0,0,1-.037-.188.464.464,0,0,0-.12-.334.982.982,0,0,0-.2-.117.711.711,0,0,1-.262-.265s.466.15.5.148C4411.932,2123.851,4411.831,2123.539,4411.822,2123.381Z" transform="translate(-4395.621 -2063.276)" fill="#9acadb"/>
  <path id="Path_3921" data-name="Path 3921" d="M4417.435,2116.688a11.245,11.245,0,0,0-1.918,8.951,4.584,4.584,0,0,0,.7,1.741,1.333,1.333,0,0,0,.725.553,1.15,1.15,0,0,0,1-.3,3.106,3.106,0,0,0,.631-.876,14.822,14.822,0,0,0,2.069-7.165,4.584,4.584,0,0,0-.163-1.276,5.265,5.265,0,0,0-1.024-1.71,1.186,1.186,0,0,0-.535-.44A1.56,1.56,0,0,0,4417.435,2116.688Z" transform="translate(-4395.621 -2063.276)" fill="#fff"/>
  <path id="Path_3922" data-name="Path 3922" d="M4420.474,2118.313a5.265,5.265,0,0,0-1.024-1.71,1.655,1.655,0,0,0-.357-.353c.23.289.424.667.242.978-.065.111-.17.193-.243.3a1.148,1.148,0,0,0-.144.37c-.515,2-.471,4.119-1.048,6.1-.118.409-.318.865-.727.983a1.267,1.267,0,0,1-.6-.018,3.509,3.509,0,0,1-1.243-.474,10.856,10.856,0,0,0,.184,1.147,4.584,4.584,0,0,0,.7,1.741,1.345,1.345,0,0,0,.725.554,1.153,1.153,0,0,0,1-.3,3.084,3.084,0,0,0,.63-.876,14.812,14.812,0,0,0,2.07-7.165A4.548,4.548,0,0,0,4420.474,2118.313Z" transform="translate(-4395.621 -2063.276)" fill="#bac5d6"/>
  <path id="Path_3923" data-name="Path 3923" d="M4419.142,2117.509a11.539,11.539,0,0,0-1.718,4.251c-.085,1.732-.531,3.174.269,4.832a11.144,11.144,0,0,0,1.984-3.623C4420.207,2121.061,4419.142,2117.509,4419.142,2117.509Z" transform="translate(-4395.621 -2063.276)" fill="#383153"/>
  <path id="Path_3924" data-name="Path 3924" d="M4418.06,2119.744s9.822,1.586,13.67,1.586,12.217.43,12.217.43l1.8,4.04-1.056,5.182-21.653-4.8-5.911-1.6S4417.267,2120.969,4418.06,2119.744Z" transform="translate(-4395.621 -2063.276)" fill="#e0e7ea"/>
  <path id="Path_3925" data-name="Path 3925" d="M4429.164,2122.265c3.925.34,11.063.582,15.321.7l-.538-1.209s-8.369-.43-12.217-.43-13.67-1.586-13.67-1.586a3.538,3.538,0,0,0-.367.859C4419.349,2120.923,4424.376,2121.849,4429.164,2122.265Z" transform="translate(-4395.621 -2063.276)" fill="#f9fcfc"/>
  <path id="Path_3926" data-name="Path 3926" d="M4445.743,2125.8l-1.8-4.04s-1.985-.1-4.466-.207a11.781,11.781,0,0,0-2.7,3.388,8.182,8.182,0,0,0-.672,4.019l.009.122,8.568,1.9Z" transform="translate(-4395.621 -2063.276)" fill="#883633"/>
  <path id="Path_3927" data-name="Path 3927" d="M4445.209,2128.423l-.425-1.113s-1.564.652-8.705,0a93.484,93.484,0,0,1-16.072-3.457,19.137,19.137,0,0,0-.865-2.093,7.02,7.02,0,0,1-.435-1.914l-.647-.1c-.793,1.225-.937,4.83-.937,4.83l5.911,1.6,21.653,4.8Z" transform="translate(-4395.621 -2063.276)" fill="#a9b0b4"/>
  <path id="Path_3928" data-name="Path 3928" d="M4444.784,2127.31s-1.559.648-8.653,0a10.471,10.471,0,0,0-.021,1.645l.009.122,8.568,1.9.522-2.559Z" transform="translate(-4395.621 -2063.276)" fill="#642624"/>
  <path id="Path_3929" data-name="Path 3929" d="M4464.7,2105.763s2.376,9.806,0,19.121c0,0,1.015.876,1.59-2.639a41.146,41.146,0,0,0-.464-16.824" transform="translate(-4395.621 -2063.276)" fill="#7c5339"/>
  <rect id="frame" width="120" height="120.004" fill="none"/>
</svg>
