<svg id="Icon_-_Report" data-name="Icon - Report" xmlns="http://www.w3.org/2000/svg" width="120" height="120" viewBox="0 0 120 120">
  <rect id="frame" width="120" height="120" fill="none"/>
  <g id="Icon" transform="translate(-166.71 3727.305)">
    <g id="Group_1544" data-name="Group 1544" opacity="0.3">
      <path id="Path_1540" data-name="Path 1540" d="M220.163-3644.76l-7.3-48.979v-10.784h27.354v10.784l-7.357,48.979Zm16.738,17.918a10.547,10.547,0,0,1-10.559,10.56,10.549,10.549,0,0,1-10.56-10.56,10.548,10.548,0,0,1,10.56-10.56A10.547,10.547,0,0,1,236.9-3626.842Z"/>
    </g>
    <g id="Group_1546" data-name="Group 1546">
      <path id="Path_1541" data-name="Path 1541" d="M226.342-3647.875a10.547,10.547,0,0,0-10.56,10.559v6.284a10.548,10.548,0,0,0,10.56,10.56,10.547,10.547,0,0,0,10.559-10.56v-6.284A10.546,10.546,0,0,0,226.342-3647.875Z" fill="#afafaf"/>
      <path id="Path_1542" data-name="Path 1542" d="M212.861-3715v17.069l7.3,48.979h12.7l7.357-48.979V-3715Z" fill="#afafaf"/>
      <g id="Group_1545" data-name="Group 1545">
        <path id="Path_1543" data-name="Path 1543" d="M220.163-3655.233l-7.3-48.98V-3715h27.354v10.784l-7.357,48.98Zm16.738,17.917a10.547,10.547,0,0,1-10.559,10.56,10.548,10.548,0,0,1-10.56-10.56,10.548,10.548,0,0,1,10.56-10.559A10.546,10.546,0,0,1,236.9-3637.316Z" fill="#fff"/>
      </g>
    </g>
  </g>
</svg>
