<svg id="Icon_-_Facebook" data-name="Icon - Facebook" xmlns="http://www.w3.org/2000/svg" width="120" height="120" viewBox="0 0 120 120">
  <rect id="frame" width="120" height="120" fill="none"/>
  <path id="facebook-01" d="M49.4,13.25h7.5V.5a106.344,106.344,0,0,0-11-.5C35.025,0,27.65,6.625,27.65,18.75v10.5H15.4V43.5H27.65V80H42.275V43.5H54.65l1.875-14.25H42.4V20.125C42.4,16.125,43.525,13.25,49.4,13.25Z" transform="translate(23.85 27)" fill="rgba(0,0,0,0.3)"/>
  <path id="facebook-01-2" data-name="facebook-01" d="M49.4,13.25h7.5V.5a106.344,106.344,0,0,0-11-.5C35.025,0,27.65,6.625,27.65,18.75v10.5H15.4V43.5H27.65V80H42.275V43.5H54.65l1.875-14.25H42.4V20.125C42.4,16.125,43.525,13.25,49.4,13.25Z" transform="translate(23.85 20)" fill="#afafaf"/>
  <path id="facebook-01-3" data-name="facebook-01" d="M49.4,13.25h7.5V.5a106.344,106.344,0,0,0-11-.5C35.025,0,27.65,6.625,27.65,18.75v10.5H15.4V43.5H27.65V80H42.275V43.5H54.65l1.875-14.25H42.4V20.125C42.4,16.125,43.525,13.25,49.4,13.25Z" transform="translate(23.85 13)" fill="#fff"/>
</svg>
