<svg id="Icon_-_Flag" data-name="Icon - Flag" xmlns="http://www.w3.org/2000/svg" width="120" height="120" viewBox="0 0 120 120">
  <rect id="frame" width="120" height="120" transform="translate(0 0)" fill="none"/>
  <g id="Icon" transform="translate(-164.385 3911.923)">
    <path id="Path_1529" data-name="Path 1529" d="M249.842-3907.172l0,0c-.354.557-.721,1.087-1.094,1.6-.108.15-.219.3-.329.443q-.431.573-.873,1.116c-.107.13-.212.262-.321.389a31.744,31.744,0,0,1-2.5,2.632l-.267.246q-.558.512-1.126.988l-.2.169a32.811,32.811,0,0,1-2.8,2.062l-.08.052q-.705.462-1.41.877l-.551-.936h0l-4.73-8.033c-26.913,8.1-42.365,21.835-47.479,27.017h0l-.013.013c-1.2,1.22-1.831,1.959-1.9,2.036l-.229-.389a6.365,6.365,0,0,0,1.188-2.495,6.4,6.4,0,0,0-4.233-7.5c-.18-.06-.364-.111-.553-.156l-.03-.008c-.215-.049-.431-.087-.646-.114a6.366,6.366,0,0,0-2.5.188,6.431,6.431,0,0,0-2.187,1.1,6.5,6.5,0,0,0-.681.617,6.369,6.369,0,0,0-.433.495,6.331,6.331,0,0,0-.612.933,6.374,6.374,0,0,0-.427.969,6.162,6.162,0,0,0-.178.631,6.516,6.516,0,0,0-.121.749c-.008.072-.011.144-.016.216-.013.182-.019.364-.017.545,0,.073,0,.146.006.219q.014.3.056.591c.006.044.009.089.017.134a6.259,6.259,0,0,0,.163.733v0h0a6.4,6.4,0,0,0,4.728,4.475,6.354,6.354,0,0,0,2.4.082l.651,1.1.781,1.328h0l46.521,79.02.006,0a2.362,2.362,0,0,0,3.2.782,2.362,2.362,0,0,0,.868-3.175l.006,0L211.6-3829.922l0,0-.971-1.648c.219-.261,6.924-8.189,20.693-16.47.315-.189.638-.378.959-.567q.427-.252.863-.5.479-.276.968-.552c.334-.189.674-.377,1.015-.566.3-.164.592-.328.9-.492q.9-.484,1.827-.967c.281-.145.569-.29.854-.435.424-.215.851-.43,1.285-.645q.441-.217.889-.435.771-.374,1.562-.742c.215-.1.426-.2.644-.3.676-.311,1.367-.619,2.066-.925l4.92,8.358h0l0,0s16.837-.655,26.22-15.437Z" opacity="0.3"/>
    <g id="Group_1543" data-name="Group 1543">
      <rect id="Rectangle_1590" data-name="Rectangle 1590" width="4.731" height="95.177" transform="translate(179.525 -3879.797) rotate(-30.486)" fill="#f19106"/>
      <path id="Path_1530" data-name="Path 1530" d="M211.582-3834.67l-26.818-45.552-2.47,1.648Z" fill="#af680b"/>
      <circle id="Ellipse_374" data-name="Ellipse 374" cx="2.366" cy="2.366" r="2.366" transform="translate(227.449 -3801.404)" fill="#f19106"/>
      <path id="Path_1531" data-name="Path 1531" d="M183.6-3882.2l-4.077,2.4,1.765,3a3.6,3.6,0,0,0,2.942-.311,3.6,3.6,0,0,0,1.437-1.577Z" fill="#af680b"/>
      <path id="Path_1532" data-name="Path 1532" d="M184.147-3881.226,210.6-3836.3s15.749-18.96,49.4-29.085l-26.449-44.926C199.9-3900.187,184.147-3881.226,184.147-3881.226Z" fill="#fcd030"/>
      <path id="Path_1533" data-name="Path 1533" d="M223.6-3896.486l26.449,44.926s16.838-.655,26.221-15.437l-26.449-44.926C240.442-3897.141,223.6-3896.486,223.6-3896.486Z" fill="#bd1823"/>
      <path id="Path_1534" data-name="Path 1534" d="M238.828-3901.341c-.035.128-8.171,29.746,4.275,22.73,12.473-7.032,6.722-33.312,6.722-33.312A32.193,32.193,0,0,1,238.828-3901.341Z" fill="#ff0019"/>
      <path id="Path_1535" data-name="Path 1535" d="M260-3865.385c-10.61,7.484-9.947,13.822-9.947,13.822l-20.614-35.013s-2.572-7.113,9.391-14.768Z" fill="#870b17"/>
      <path id="Path_1536" data-name="Path 1536" d="M184.147-3881.226,210.6-3836.3s15.749-18.96,49.4-29.085l-26.449-44.926C199.9-3900.187,184.147-3881.226,184.147-3881.226Z" fill="#ff0019"/>
      <path id="Path_1537" data-name="Path 1537" d="M186.071-3883.294c-1.281,1.3-1.924,2.068-1.924,2.068L210.6-3836.3Z" fill="#e10a17"/>
      <path id="Path_1538" data-name="Path 1538" d="M260-3865.385l-21.72-36.893c15.362,26.641-8.443,50.386-8.443,50.386h0A125.406,125.406,0,0,1,260-3865.385Z" fill="#e10a17"/>
      <circle id="Ellipse_375" data-name="Ellipse 375" cx="6.401" cy="6.401" r="6.401" transform="translate(172.48 -3891.955)" fill="#fcd030"/>
      <path id="Path_1539" data-name="Path 1539" d="M172.641-3886.978a6.357,6.357,0,0,0,.088,3.189,6.434,6.434,0,0,0,1.134.377,6.4,6.4,0,0,0,7.665-4.816,6.368,6.368,0,0,0-.088-3.189,6.437,6.437,0,0,0-1.135-.377A6.4,6.4,0,0,0,172.641-3886.978Z" fill="#fbd95d"/>
    </g>
  </g>
</svg>
