<svg id="flip" xmlns="http://www.w3.org/2000/svg" xmlns:xlink="http://www.w3.org/1999/xlink" width="70" height="70" viewBox="0 0 70 70">
  <defs>
    <clipPath id="clip-path">
      <rect id="Rectangle_3363" data-name="Rectangle 3363" width="70" height="70" fill="none"/>
    </clipPath>
    <clipPath id="clip-path-2">
      <rect id="Rectangle_3359" data-name="Rectangle 3359" width="30.509" height="26.626" transform="translate(2.376 14.633)" fill="none"/>
    </clipPath>
    <clipPath id="clip-path-3">
      <rect id="Rectangle_3360" data-name="Rectangle 3360" width="20.4" height="36.777" transform="translate(7.159 26.815)" fill="none"/>
    </clipPath>
    <clipPath id="clip-path-4">
      <rect id="Rectangle_3361" data-name="Rectangle 3361" width="30.304" height="27.687" transform="translate(36.869 35.906)" fill="none"/>
    </clipPath>
    <clipPath id="clip-path-5">
      <rect id="Rectangle_3362" data-name="Rectangle 3362" width="20.426" height="36.778" transform="translate(42.227 17.132)" fill="none"/>
    </clipPath>
  </defs>
  <g id="Group_8505" data-name="Group 8505">
    <g id="Group_8504" data-name="Group 8504" clip-path="url(#clip-path)">
      <g id="Group_8494" data-name="Group 8494" opacity="0.3">
        <g id="Group_8493" data-name="Group 8493">
          <g id="Group_8492" data-name="Group 8492" clip-path="url(#clip-path-2)">
            <path id="Path_6241" data-name="Path 6241" d="M26.465,17.625a5.387,5.387,0,0,0-2.77-.488c-3.2.07-6.36.505-9.534.853a9.937,9.937,0,0,1-7.645-2.11,8.141,8.141,0,0,0-1.286-.971,1.888,1.888,0,0,0-1.554-.178c-.932.368-1.148,1.57-1.2,2.571a22.073,22.073,0,0,0,.1,5.2A14.748,14.748,0,0,0,4.651,27.28C5.8,29.223,7.8,31.7,9.957,31.746a3.443,3.443,0,0,0,1.6-.438l7.784-3.675-.3,8.6a3.445,3.445,0,0,0,.231,1.644c.894,1.961,3.96,2.816,6.2,3.105a12.9,12.9,0,0,0,5.218.006c3.247-1.043,2.054-6.658,1.572-9.089a2.82,2.82,0,0,0-.289-.892,4.749,4.749,0,0,0-.534-.652c-1.01-1.175-1.267-3.126-1.589-4.6a34.512,34.512,0,0,0-1.62-5.628,5.854,5.854,0,0,0-1.268-2.106,1.866,1.866,0,0,0-.5-.4"/>
          </g>
        </g>
      </g>
      <g id="Group_8497" data-name="Group 8497" opacity="0.3">
        <g id="Group_8496" data-name="Group 8496">
          <g id="Group_8495" data-name="Group 8495" clip-path="url(#clip-path-3)">
            <path id="Path_6242" data-name="Path 6242" d="M27.276,57.817a18.962,18.962,0,0,0,.218-5.021,2.943,2.943,0,0,0-.727-2.036,3.253,3.253,0,0,0-.853-.509L22.521,48.67c-.534-.248-1.111-.3-1.633-.511s-.625-.347-.97-.907a18.944,18.944,0,0,1-1.493-2.946,18.62,18.62,0,0,1-1.258-6.877,23.357,23.357,0,0,1,2.552-8.921c.528-.95-.2-.875.169-1.693-1.481,1-3.055,2.381-4.667,3.5,0,0-7.931,5.068-8.061,19.857C7.1,56.447,12.12,60.9,14.754,62.3a9.491,9.491,0,0,0,7.765.782,12.126,12.126,0,0,0,4.107-3.64,6,6,0,0,0,.65-1.625"/>
          </g>
        </g>
      </g>
      <g id="Group_8500" data-name="Group 8500" opacity="0.3">
        <g id="Group_8499" data-name="Group 8499">
          <g id="Group_8498" data-name="Group 8498" clip-path="url(#clip-path-4)">
            <path id="Path_6243" data-name="Path 6243" d="M43.348,63.1a5.387,5.387,0,0,0,2.77.488c4.329-.094,9.8-.929,13.943-1.379,1.844-.2,3.926-.279,5.586-1.2a3.206,3.206,0,0,0,1.509-3.194c-.021-1.609-.046-3.2.015-4.82a.547.547,0,0,0-.4-.654,23.3,23.3,0,0,1-3.96-1.913c-.933-.688-1.68-1.426-2.95-1.453a3.443,3.443,0,0,0-1.6.438l-7.784,3.675.3-8.6a3.445,3.445,0,0,0-.231-1.644c-.682-1.5-2.317-2.069-3.743-2.591A16.642,16.642,0,0,1,42.568,38.4a23.221,23.221,0,0,0-3.362-2.247,1.843,1.843,0,0,0-1.135-.228,1.374,1.374,0,0,0-.914.811,3.553,3.553,0,0,0-.246,1.237,26.833,26.833,0,0,0,1.346,9.593c1.223,3.976,1.69,9.01,3.319,13.028a5.854,5.854,0,0,0,1.268,2.106,1.866,1.866,0,0,0,.5.395"/>
          </g>
        </g>
      </g>
      <g id="Group_8503" data-name="Group 8503" opacity="0.3">
        <g id="Group_8502" data-name="Group 8502">
          <g id="Group_8501" data-name="Group 8501" clip-path="url(#clip-path-5)">
            <path id="Path_6244" data-name="Path 6244" d="M42.244,22.923a5.808,5.808,0,0,0,.622,2.454c.834,1.552,2.429,2.53,3.619,3.777,3.961,4.149,6.16,8.406,6.16,14.142a23.357,23.357,0,0,1-2.552,8.921c-.527.95.2.875-.169,1.693,1.481-1,3.055-2.381,4.667-3.5,0,0,7.931-5.068,8.062-19.857.055-6.279-4.961-10.737-7.6-12.132a10.272,10.272,0,0,0-5.736-1.253c-.858.083-1.66.423-2.495.486-1.117.083-2.219.007-3.338.17a1.494,1.494,0,0,0-.666.213,1.588,1.588,0,0,0-.454,1.3c-.037,1.148-.194,2.39-.125,3.586"/>
          </g>
        </g>
      </g>
      <path id="Path_6245" data-name="Path 6245" d="M26.465,12.2a5.376,5.376,0,0,0-2.77-.488c-2.438.053-4.869.306-7.29.585a15.111,15.111,0,0,1-3.4.266,15.407,15.407,0,0,1-3.382-.941,10.6,10.6,0,0,0-4.952-.978,11.212,11.212,0,0,1-1.307.189.921.921,0,0,0-.5.089.788.788,0,0,0-.26.6,16.41,16.41,0,0,0-.071,5.255,15.9,15.9,0,0,0,2.125,5.077C5.8,23.8,7.8,26.276,9.957,26.321a3.443,3.443,0,0,0,1.6-.438l7.784-3.675-.3,8.6a3.445,3.445,0,0,0,.231,1.644c.894,1.961,3.96,2.816,6.2,3.1a12.9,12.9,0,0,0,5.218.006c2.039-.655,1.789-2.389,2.042-4.1a12.175,12.175,0,0,0-.968-6.917,21.566,21.566,0,0,1-1.958-4.418A33.732,33.732,0,0,0,28.237,14.7,5.854,5.854,0,0,0,26.969,12.6a1.866,1.866,0,0,0-.5-.4" fill="#b7b7b7"/>
      <path id="Path_6246" data-name="Path 6246" d="M4.641,21.25a3.314,3.314,0,0,0,1.241,1.206,1.318,1.318,0,0,0,1.591-.286,1.455,1.455,0,0,0,.145-1.226,6.255,6.255,0,0,0-1.352-2.165,18.181,18.181,0,0,1-1.817-2.762A4.918,4.918,0,0,1,3.7,13.3c.034-.363.139-.719.148-1.083a1.133,1.133,0,0,0-.4-.97c-1.3-.909-1.035,3.664-.972,4.3a12.072,12.072,0,0,0,2.168,5.7" fill="#848484"/>
      <path id="Path_6247" data-name="Path 6247" d="M25.478,35.558c2.029.264,5.872.8,6-2.307a4.139,4.139,0,0,0-.25-1.445,3.178,3.178,0,0,0-1.008-1.618,3.554,3.554,0,0,0-1.035-.475,23.966,23.966,0,0,0-3.8-.9,5.6,5.6,0,0,0-4.222.617,3.171,3.171,0,0,0-1.24,2.6c.094,2.752,3.392,3.25,5.557,3.529" fill="#848484"/>
      <path id="Path_6248" data-name="Path 6248" d="M27.276,52.392a33.167,33.167,0,0,0,.344-5.061,3.5,3.5,0,0,0-.185-1.729,3.322,3.322,0,0,0-1.885-1.424A1.649,1.649,0,0,0,24.536,44c-.338.088-.61.494-.431.794a1.333,1.333,0,0,1-1.1-.53c-.911-.9-1.771-1.84-2.6-2.813a10.069,10.069,0,0,1-1.794-2.132A17.513,17.513,0,0,1,17.167,32a23.357,23.357,0,0,1,2.552-8.921c.528-.95-.2-.875.169-1.693-1.481,1-3.055,2.381-4.667,3.5,0,0-7.931,5.068-8.061,19.857C7.1,51.022,12.12,55.48,14.754,56.875a9.491,9.491,0,0,0,7.765.782,12.126,12.126,0,0,0,4.107-3.64,6,6,0,0,0,.65-1.625" fill="#b7b7b7"/>
      <path id="Path_6249" data-name="Path 6249" d="M16.975,30.33c.316-.176.595-1.249.668-1.518.312-1.154.723-2.276,1.094-3.412.724-2.217,1.371-4.59.643-6.9-.059-.187-.158-.4-.352-.432-.232-.036-.4.211-.49.426a9.48,9.48,0,0,0-.742,2.826,5.893,5.893,0,0,1-.522,2.527c-.2.338-.5.619-.691.965a3.236,3.236,0,0,0-.329,1.093,9,9,0,0,0,.27,3.9c.146.491.3.607.451.524" fill="#848484"/>
      <path id="Path_6250" data-name="Path 6250" d="M17.369,54.347a2.837,2.837,0,0,0-.4-.934,7.226,7.226,0,0,0-2.3-1.92c-2.035-1.279-4.128-2.778-5-5.018-.716-1.842-.489-3.892-.408-5.867.076-1.827.038-4.172-1.3-5.577-1.026,1.3-.752,2.4-.6,3.876a53.047,53.047,0,0,1-.2,5.836c-.038,4.284,3.057,10.456,7.424,11.928a2.286,2.286,0,0,0,2.389-.456,2.053,2.053,0,0,0,.4-1.868" fill="#848484"/>
      <path id="Path_6251" data-name="Path 6251" d="M43.348,57.674a5.376,5.376,0,0,0,2.77.488c4.329-.094,9.8-.929,13.943-1.379,1.873-.2,4.018-.278,5.686-1.252,2.2-1.286,1.483-4.168,1.431-6.316a2.262,2.262,0,0,0-1.459-2.705,14.225,14.225,0,0,1-3.241-1.622,4.008,4.008,0,0,0-2.622-1.335,3.443,3.443,0,0,0-1.6.438l-7.784,3.675.3-8.6a3.445,3.445,0,0,0-.231-1.644c-.534-1.17-1.554-1.466-2.519-2.128a12.688,12.688,0,0,0-2.91-1.948c-.539-.195-1.1-.325-1.624-.56a12.558,12.558,0,0,1-2.09-1.385,4.677,4.677,0,0,0-2.27-1,2.016,2.016,0,0,0-2.06,1.116,3.059,3.059,0,0,0-.115,1.244,36.065,36.065,0,0,0,1.309,9.385c1.223,3.976,1.69,9.01,3.319,13.028a5.854,5.854,0,0,0,1.268,2.106,1.866,1.866,0,0,0,.5.4" fill="#b7b7b7"/>
      <path id="Path_6252" data-name="Path 6252" d="M45.014,56.812c1.422,2.009,5.389,1.143,7.372.825C54.473,57.3,59.32,57.16,60.281,55a3.71,3.71,0,0,0-.156-2.7,1.846,1.846,0,0,0-.42-.753,1.75,1.75,0,0,0-.907-.379c-2.916-.538-5.861.672-8.826.734-1.714.035-3.608-.268-4.993.743a1.535,1.535,0,0,0-.548.638,1.96,1.96,0,0,0-.094.778,4.882,4.882,0,0,0,.677,2.755" fill="#848484"/>
      <path id="Path_6253" data-name="Path 6253" d="M42.214,17.513a8.059,8.059,0,0,0,.391,1.86c.617,1.74,2.65,3.065,3.881,4.354,3.96,4.15,6.16,8.407,6.16,14.142a23.356,23.356,0,0,1-2.552,8.922c-.528.95.2.875-.17,1.693,1.482-1,3.055-2.381,4.668-3.5,0,0,7.931-5.068,8.061-19.857.055-6.28-4.96-10.737-7.6-12.132a29.692,29.692,0,0,0-6.029-2.032,8.474,8.474,0,0,0-2.745-.447,6.592,6.592,0,0,0-2.3.651,2.965,2.965,0,0,0-1.232.874,3.019,3.019,0,0,0-.447,1.467,19.51,19.51,0,0,0-.092,4" fill="#b7b7b7"/>
      <path id="Path_6254" data-name="Path 6254" d="M57.465,32.055a33.948,33.948,0,0,0-3.885,5.358L52.392,39.3a6.589,6.589,0,0,0-1.03,2.2,1.979,1.979,0,0,0,2.915,2.3c3.146-1.459,8.681-9.191,5.7-12.527a1.144,1.144,0,0,0-1.036-.459,1.358,1.358,0,0,0-.577.356c-.313.281-.613.575-.9.879" fill="#848484"/>
      <path id="Path_6255" data-name="Path 6255" d="M42.214,17.513a8.059,8.059,0,0,0,.391,1.86c.417,1.175,4.637,6.338,5.878,5.027a1.553,1.553,0,0,0,.317-.965,15.921,15.921,0,0,0-3.338-11.061,2.767,2.767,0,0,0-1.1-.94c-1.337-.512-1.949,1.092-2.058,2.078a19.51,19.51,0,0,0-.092,4" fill="#848484"/>
      <path id="Path_6256" data-name="Path 6256" d="M26.465,6.774a5.386,5.386,0,0,0-2.77-.488c-4.329.094-9.8.929-13.944,1.379C6.8,7.986,2.257,8.3,2.58,11.638a12.946,12.946,0,0,0,2.071,4.791C5.8,18.372,7.8,20.85,9.957,20.9a3.443,3.443,0,0,0,1.6-.438l7.784-3.675-.3,8.6a3.445,3.445,0,0,0,.231,1.644c.894,1.961,3.96,2.816,6.2,3.1a12.908,12.908,0,0,0,5.219.006c3.194-1.024,1.733-5,.858-7.835-1.223-3.976-1.69-9.01-3.319-13.028a5.854,5.854,0,0,0-1.268-2.106,1.866,1.866,0,0,0-.5-.395" fill="#fff"/>
      <path id="Path_6257" data-name="Path 6257" d="M27.276,46.967a3.4,3.4,0,0,0-.068-1.891c-.617-1.74-2.65-3.066-3.881-4.355-3.961-4.149-6.16-8.406-6.16-14.142a23.357,23.357,0,0,1,2.552-8.921c.528-.95-.2-.875.169-1.693-1.481,1-3.055,2.38-4.667,3.5,0,0-7.931,5.068-8.061,19.857C7.1,45.6,12.12,50.055,14.754,51.45a9.491,9.491,0,0,0,7.765.782,12.126,12.126,0,0,0,4.107-3.64,6,6,0,0,0,.65-1.625" fill="#fff"/>
      <path id="Path_6258" data-name="Path 6258" d="M43.348,52.249a5.387,5.387,0,0,0,2.77.488c4.329-.094,9.8-.929,13.944-1.379,2.953-.321,7.494-.633,7.171-3.973a12.946,12.946,0,0,0-2.071-4.791c-1.153-1.943-3.152-4.421-5.306-4.466a3.443,3.443,0,0,0-1.6.438l-7.784,3.675.3-8.6A3.445,3.445,0,0,0,50.536,32c-.894-1.961-3.96-2.816-6.2-3.1a12.908,12.908,0,0,0-5.219-.006c-3.194,1.024-1.733,5-.858,7.835,1.223,3.976,1.69,9.01,3.319,13.028a5.854,5.854,0,0,0,1.268,2.106,1.866,1.866,0,0,0,.5.4" fill="#fff"/>
      <path id="Path_6259" data-name="Path 6259" d="M42.536,12.057a3.4,3.4,0,0,0,.068,1.891c.617,1.74,2.65,3.066,3.881,4.355,3.961,4.149,6.16,8.406,6.16,14.142a23.357,23.357,0,0,1-2.552,8.921c-.528.95.2.875-.169,1.693,1.481-1,3.055-2.38,4.667-3.5,0,0,7.931-5.068,8.061-19.857.056-6.279-4.96-10.737-7.594-12.132a9.491,9.491,0,0,0-7.765-.782,12.126,12.126,0,0,0-4.107,3.64,6,6,0,0,0-.65,1.625" fill="#fff"/>
    </g>
  </g>
  <rect id="Rectangle_3364" data-name="Rectangle 3364" width="70" height="70" fill="none"/>
</svg>
