<svg id="Icon-followers" xmlns="http://www.w3.org/2000/svg" xmlns:xlink="http://www.w3.org/1999/xlink" width="120" height="120" viewBox="0 0 120 120">
  <defs>
    <clipPath id="clip-path">
      <rect id="Rectangle_1627" data-name="Rectangle 1627" width="120" height="120" fill="none"/>
    </clipPath>
    <clipPath id="clip-path-2">
      <rect id="Rectangle_1626" data-name="Rectangle 1626" width="120" height="118.809" transform="translate(0 0.595)" fill="none"/>
    </clipPath>
    <clipPath id="clip-path-3">
      <rect id="Rectangle_1619" data-name="Rectangle 1619" width="119.993" height="111.806" transform="translate(0.005 7.6)" fill="none"/>
    </clipPath>
    <clipPath id="clip-path-4">
      <rect id="Rectangle_1618" data-name="Rectangle 1618" width="119.992" height="111.804" transform="translate(0.005 7.6)" fill="none"/>
    </clipPath>
    <clipPath id="clip-path-5">
      <rect id="Rectangle_1621" data-name="Rectangle 1621" width="76.507" height="34.936" transform="translate(0.001 0.596)" fill="none"/>
    </clipPath>
    <clipPath id="clip-path-6">
      <rect id="Rectangle_1620" data-name="Rectangle 1620" width="76.507" height="34.935" transform="translate(0.001 0.596)" fill="none"/>
    </clipPath>
    <clipPath id="clip-path-7">
      <rect id="Rectangle_1623" data-name="Rectangle 1623" width="78.902" height="24.852" transform="translate(41.089 18.153)" fill="none"/>
    </clipPath>
    <clipPath id="clip-path-8">
      <rect id="Rectangle_1622" data-name="Rectangle 1622" width="78.902" height="24.848" transform="translate(41.089 18.156)" fill="none"/>
    </clipPath>
    <clipPath id="clip-path-9">
      <rect id="Rectangle_1625" data-name="Rectangle 1625" width="67.84" height="28.729" transform="translate(18.118 49.55)" fill="none"/>
    </clipPath>
    <clipPath id="clip-path-10">
      <rect id="Rectangle_1624" data-name="Rectangle 1624" width="67.84" height="28.729" transform="translate(18.118 49.551)" fill="none"/>
    </clipPath>
  </defs>
  <g id="Group_1681" data-name="Group 1681" clip-path="url(#clip-path)">
    <g id="Group_1680" data-name="Group 1680">
      <g id="Group_1679" data-name="Group 1679" clip-path="url(#clip-path-2)">
        <g id="Group_1663" data-name="Group 1663" opacity="0.3">
          <g id="Group_1662" data-name="Group 1662">
            <g id="Group_1661" data-name="Group 1661" clip-path="url(#clip-path-3)">
              <g id="Group_1660" data-name="Group 1660">
                <g id="Group_1659" data-name="Group 1659" clip-path="url(#clip-path-4)">
                  <path id="Path_1893" data-name="Path 1893" d="M110.705,72.161c.112-.13.221-.264.332-.4a38.128,38.128,0,0,0,8.639-17.428A22.534,22.534,0,0,0,119.991,50c-.015-.624-.06-1.243-.126-1.856,0-.042-.009-.085-.013-.127q-.1-.9-.278-1.79c-.008-.035-.015-.072-.023-.109a22.054,22.054,0,0,0-1.765-5.228c-.014-.028-.026-.056-.04-.083q-.39-.8-.843-1.555l-.064-.1q-.46-.765-.981-1.487l-.012-.017a20.8,20.8,0,0,0-2.355-2.719l-.1-.1q-.615-.59-1.28-1.129l-.148-.118c-.447-.356-.908-.7-1.386-1.014-.032-.022-.066-.042-.1-.063a19.9,19.9,0,0,0-3.132-1.681c-.056-.025-.111-.05-.167-.072-.526-.219-1.066-.415-1.616-.591l-.235-.072c-.553-.168-1.116-.317-1.691-.438l-.195-.037c-.6-.122-1.208-.223-1.831-.291A20.3,20.3,0,0,0,86.346,33.8a22.127,22.127,0,0,0-5.169,6.07,20.84,20.84,0,0,0-2.737-5.685,33.545,33.545,0,0,0-.581-9.5,22.481,22.481,0,0,0-1.351-4.129c-.25-.571-.526-1.126-.819-1.668l-.061-.113q-.438-.8-.935-1.548l-.063-.094a21.877,21.877,0,0,0-3.616-4.167l-.07-.065q-.662-.587-1.368-1.116l-.1-.075c-.477-.353-.967-.689-1.471-1l-.018-.01a20.973,20.973,0,0,0-3.211-1.624c-.042-.017-.083-.036-.126-.051-.529-.209-1.068-.4-1.613-.56l-.182-.053c-.548-.161-1.1-.3-1.666-.414l-.117-.022a19.991,19.991,0,0,0-3.536-.367h-.181q-.855,0-1.719.068l-.244.021q-.865.081-1.734.236l-.188.038c-.6.116-1.205.254-1.808.427A20.3,20.3,0,0,0,39.23,18.323,22.15,22.15,0,0,0,36.75,25.9a20.876,20.876,0,0,0-6.284-5.183,20.089,20.089,0,0,0-15.737-1.559c-.61.176-1.2.382-1.778.608-.051.02-.1.037-.154.059-.549.219-1.082.462-1.6.725l-.213.109c-.51.265-1.006.548-1.484.852-.055.036-.109.073-.164.108a19.865,19.865,0,0,0-2.749,2.154c-.042.04-.086.078-.128.118-.4.381-.781.78-1.147,1.191l-.169.192c-.356.412-.7.837-1.019,1.275-.044.059-.086.121-.129.181-.329.458-.644.926-.934,1.41l-.018.03c-.291.487-.559.987-.81,1.494-.025.051-.051.1-.074.148-.24.5-.457,1-.658,1.514-.031.08-.063.16-.093.239q-.289.765-.52,1.551c-.022.075-.042.152-.064.227-.152.543-.289,1.093-.4,1.65l-.012.07c-.109.556-.194,1.12-.26,1.687-.006.051-.014.1-.02.155-.06.556-.095,1.116-.113,1.677,0,.092-.006.183-.008.273q-.015.83.031,1.664c0,.089.012.179.019.267.039.57.1,1.141.179,1.713v.029a22.39,22.39,0,0,0,1.051,4.211,36.715,36.715,0,0,0,9.418,13.837l-.021-.014q.632.6,1.287,1.179c.132.116.267.232.4.348.348.3.7.6,1.055.893.158.134.317.263.477.389q.583.471,1.181.926c.1.077.2.156.3.235.5.372,1,.738,1.505,1.093.14.1.281.195.422.292q.582.4,1.172.793c.159.1.317.209.476.312q.673.438,1.355.858c.077.048.154.1.232.145q.805.492,1.62.96l.378.215q.5.284,1,.562c-.052.052-.1.112-.15.166-.234.24-.455.491-.675.745-.163.187-.331.368-.486.562-.238.3-.457.606-.675.919-.116.164-.243.32-.354.49-.307.468-.591.953-.855,1.447-.119.223-.219.456-.329.682-.142.3-.287.59-.414.895-.108.256-.2.518-.3.778-.106.288-.211.575-.3.867-.086.273-.161.549-.235.827s-.15.583-.214.878-.117.568-.166.857-.092.6-.129.9-.07.577-.092.867c-.024.315-.033.63-.042.947-.008.282-.021.564-.017.848.006.355.034.713.059,1.07.017.246.022.493.049.739v.026a19.738,19.738,0,0,0,.783,3.749A33.584,33.584,0,0,0,28.7,103.291l.164.149a51.411,51.411,0,0,0,4.112,3.337l.145.106c1.434,1.042,2.908,2.014,4.4,2.918.045.028.09.056.136.083,1.495.9,3,1.735,4.5,2.5l.138.07c1.5.764,2.978,1.465,4.423,2.1l.145.065c1.436.629,2.829,1.2,4.16,1.71l.162.063c1.315.5,2.561.948,3.719,1.339l.172.058c1.144.386,2.192.715,3.126.994l.141.041c.454.136.891.263,1.284.373a5.861,5.861,0,0,0,5.527-1.368c.187-.178.4-.386.605-.584l.078-.075c.21-.2.425-.415.652-.639l.23-.229q.539-.537,1.127-1.143c.14-.143.279-.287.423-.436.206-.214.413-.434.625-.659.19-.2.384-.41.579-.621.281-.3.564-.613.854-.934.251-.278.5-.56.761-.851.186-.211.372-.425.561-.642.284-.327.57-.663.858-1,.188-.222.375-.445.565-.674q.521-.628,1.044-1.284.24-.3.48-.607.525-.667,1.05-1.363c.1-.128.193-.251.289-.381.418-.558.832-1.133,1.245-1.716.133-.191.267-.384.4-.579q.564-.812,1.117-1.65c.062-.094.125-.184.187-.279.417-.64.825-1.295,1.227-1.957.111-.183.221-.366.33-.551q.55-.924,1.074-1.87c.044-.081.091-.159.135-.24.382-.7.748-1.412,1.1-2.13.089-.181.176-.362.263-.543.322-.667.633-1.339.927-2.02.034-.078.07-.154.1-.232l.369-.187.244-.125q.806-.41,1.653-.859l.277-.147q.428-.228.865-.467c.121-.065.242-.132.364-.2l.913-.506.084-.048q1.005-.565,2.044-1.18l.229-.135c.325-.194.652-.39.981-.591.107-.065.215-.132.322-.2q1.619-.993,3.276-2.1l.194-.131c.347-.232.693-.471,1.04-.71l.3-.206q1.667-1.166,3.323-2.438l.195-.149q.516-.4,1.029-.814l.3-.238q1.613-1.305,3.17-2.717l.246-.222q.477-.438.945-.887c.106-.1.21-.2.315-.3q1.476-1.426,2.857-2.953l.295-.326c.275-.311.545-.623.813-.938"/>
                </g>
              </g>
            </g>
          </g>
        </g>
        <path id="Path_1894" data-name="Path 1894" d="M14.728,12.151a20.09,20.09,0,0,1,15.737,1.56A20.864,20.864,0,0,1,36.752,18.9a22.132,22.132,0,0,1,2.481-7.582A20.285,20.285,0,0,1,51.661,1.39C63.382-1.985,75.2,5.753,77.86,17.684c4.68,22.1-15.467,45.262-22.873,52.836a6.653,6.653,0,0,1-6.221,1.792c-10.3-2.476-39.68-11.375-47.471-32.58-4.061-11.4,1.71-24.2,13.433-27.581" fill="red"/>
        <path id="Path_1895" data-name="Path 1895" d="M47.694,57.1c1.112-.313,24.422-9.193,29.552-22.7-4.09,16.11-16.73,30.47-22.263,36.128a6.656,6.656,0,0,1-6.22,1.792c-7.695-1.85-26.037-7.287-38.072-18.76,11.526,8.714,35.923,3.84,37,3.537" fill="#c00"/>
        <g id="Group_1668" data-name="Group 1668" opacity="0.34">
          <g id="Group_1667" data-name="Group 1667">
            <g id="Group_1666" data-name="Group 1666" clip-path="url(#clip-path-5)">
              <g id="Group_1665" data-name="Group 1665">
                <g id="Group_1664" data-name="Group 1664" clip-path="url(#clip-path-6)">
                  <path id="Path_1896" data-name="Path 1896" d="M53.526,6.741a23.074,23.074,0,0,0-12.942,9.021A18.76,18.76,0,0,0,37.73,22.31a17.747,17.747,0,0,0-6.049-4.092,22.961,22.961,0,0,0-15.7-.557C6.6,20.364.634,27.851.243,35.532-1.273,25.36,4.428,15.121,14.727,12.155a20.088,20.088,0,0,1,15.735,1.559A20.9,20.9,0,0,1,36.749,18.9a22.145,22.145,0,0,1,2.48-7.582A20.286,20.286,0,0,1,51.658,1.4C61.965-1.575,72.34,4.048,76.507,13.556,72.048,7.2,62.928,4.033,53.526,6.741" fill="#fff"/>
                </g>
              </g>
            </g>
          </g>
        </g>
        <path id="Path_1897" data-name="Path 1897" d="M62.1,30.621a22.107,22.107,0,0,0-7.885-10.489A22,22,0,0,0,39.772,32.259c-7.867,17.474,1.558,39.49,8.033,51.249,7.26-10.181,21.111-33.286,14.3-52.887" fill="#960000"/>
        <path id="Path_1898" data-name="Path 1898" d="M63.358,18.276a20.091,20.091,0,0,1,13.97,7.412,20.867,20.867,0,0,1,3.85,7.182A22.151,22.151,0,0,1,86.349,26.8a20.28,20.28,0,0,1,15.264-4.471c12.126,1.321,20.128,12.964,18.062,25.012-4.051,22.224-31.476,36.015-41.2,40.215a6.652,6.652,0,0,1-6.435-.7c-8.592-6.2-32.4-25.573-31.57-48.149.567-12.088,10.763-21.748,22.89-20.425" fill="red"/>
        <path id="Path_1899" data-name="Path 1899" d="M76.818,72.361c1.148.133,26.084.757,35.955-9.8-9.9,13.361-27.039,21.855-34.3,24.992a6.654,6.654,0,0,1-6.435-.7c-6.419-4.63-21.328-16.618-28.113-31.8,7.36,12.434,31.782,17.177,32.9,17.306" fill="#c00"/>
        <g id="Group_1673" data-name="Group 1673" opacity="0.34">
          <g id="Group_1672" data-name="Group 1672">
            <g id="Group_1671" data-name="Group 1671" clip-path="url(#clip-path-7)">
              <g id="Group_1670" data-name="Group 1670">
                <g id="Group_1669" data-name="Group 1669" clip-path="url(#clip-path-8)">
                  <path id="Path_1900" data-name="Path 1900" d="M101.31,27.982a23.081,23.081,0,0,0-15.395,3.44A18.751,18.751,0,0,0,80.79,36.4a17.741,17.741,0,0,0-4.046-6.082,22.958,22.958,0,0,0-14.315-6.468c-9.71-1.059-18.065,3.607-21.34,10.566,2.455-9.987,11.613-17.3,22.267-16.138a20.1,20.1,0,0,1,13.969,7.411,20.862,20.862,0,0,1,3.85,7.183A22.142,22.142,0,0,1,86.346,26.8a20.289,20.289,0,0,1,15.264-4.47c10.663,1.162,18.13,10.3,18.381,20.679-1.714-7.58-8.954-13.962-18.681-15.023" fill="#fff"/>
                </g>
              </g>
            </g>
          </g>
        </g>
        <path id="Path_1901" data-name="Path 1901" d="M88.016,65.136A22,22,0,0,0,75.552,50.978a22.1,22.1,0,0,0-9.369,9.187A37.925,37.925,0,0,0,62.2,78.841a112.4,112.4,0,0,0,9.836,8.011,6.654,6.654,0,0,0,6.436.7c2.4-1.038,5.889-2.663,9.834-4.855a37.131,37.131,0,0,0-.291-17.562" fill="#960000"/>
        <path id="Path_1902" data-name="Path 1902" d="M64.66,50.075a17.657,17.657,0,0,0-11.3,8.1,18.344,18.344,0,0,0-2.509,6.709A19.458,19.458,0,0,0,45.632,60.2a17.834,17.834,0,0,0-13.823-2.1C21.405,60.681,15.8,71.765,19.021,82.017,25.165,100.9,50.678,109.686,59.645,112.2a5.853,5.853,0,0,0,5.523-1.369C71.922,104.423,90.384,84.743,87,65.175,85.087,54.711,75.069,47.5,64.66,50.075" fill="red"/>
        <path id="Path_1903" data-name="Path 1903" d="M59.3,98.771c-.984.25-22.633,3.728-32.473-4.306C37.02,104.939,52.951,110.321,59.649,112.2a5.855,5.855,0,0,0,5.524-1.368c5.046-4.789,16.623-16.985,20.748-31.006-4.949,11.7-25.665,18.7-26.621,18.945" fill="#c00"/>
        <g id="Group_1678" data-name="Group 1678" opacity="0.34">
          <g id="Group_1677" data-name="Group 1677">
            <g id="Group_1676" data-name="Group 1676" clip-path="url(#clip-path-9)">
              <g id="Group_1675" data-name="Group 1675">
                <g id="Group_1674" data-name="Group 1674" clip-path="url(#clip-path-10)">
                  <path id="Path_1904" data-name="Path 1904" d="M32.742,62.995A20.288,20.288,0,0,1,46.557,64.18a16.474,16.474,0,0,1,5.05,3.732,15.581,15.581,0,0,1,2.809-5.773A20.175,20.175,0,0,1,66.125,54.82c8.334-2.064,16.161,1.017,19.833,6.694-3.314-8.41-12.152-13.7-21.3-11.438a17.66,17.66,0,0,0-11.3,8.1,18.342,18.342,0,0,0-2.509,6.71,19.481,19.481,0,0,0-5.211-4.692,17.842,17.842,0,0,0-13.823-2.1c-9.151,2.266-14.581,11.1-13.578,20.175.6-6.8,6.157-13.215,14.505-15.284" fill="#fff"/>
                </g>
              </g>
            </g>
          </g>
        </g>
      </g>
    </g>
  </g>
</svg>
