<svg id="heroes" xmlns="http://www.w3.org/2000/svg" width="119.892" height="119.892" viewBox="0 0 119.892 119.892">
  <path id="Path_3436" data-name="Path 3436" d="M2368.637,325.128h-37.262l3.475,11.828A59.709,59.709,0,0,1,2368.637,325.128Z" transform="translate(-2310.747 -325.076)" fill="#067196"/>
  <path id="Path_3437" data-name="Path 3437" d="M2320.951,351.517l20.842,30.846,15.064-13.374-21.7-32.248A60.32,60.32,0,0,0,2320.951,351.517Z" transform="translate(-2310.747 -325.076)" opacity="0.3"/>
  <path id="Path_3438" data-name="Path 3438" d="M2406.234,336.741l-21.7,32.248,15.064,13.374,20.842-30.846A60.32,60.32,0,0,0,2406.234,336.741Z" transform="translate(-2310.747 -325.076)" opacity="0.3"/>
  <path id="Path_3439" data-name="Path 3439" d="M2320.676,345.11l10.7-19.982,25.481,37.861-15.063,13.374Z" transform="translate(-2310.747 -325.076)" fill="#8bc53f"/>
  <path id="Path_3440" data-name="Path 3440" d="M2372.75,325.128h37.261l-3.475,11.828A59.7,59.7,0,0,0,2372.75,325.128Z" transform="translate(-2310.747 -325.076)" fill="#a50000"/>
  <path id="Path_3441" data-name="Path 3441" d="M2420.711,345.11l-10.7-19.982-25.481,37.861,15.063,13.374Z" transform="translate(-2310.747 -325.076)" fill="#f6921e"/>
  <path id="Path_3442" data-name="Path 3442" d="M2410.011,325.128l-25.481,37.861,7.929,7.04,23.2-34.344Z" transform="translate(-2310.747 -325.076)" fill="red"/>
  <path id="Path_3443" data-name="Path 3443" d="M2331.409,325.128l25.481,37.861-7.929,7.04-23.2-34.344Z" transform="translate(-2310.747 -325.076)" fill="#29aae1"/>
  <path id="top-7" d="M2370.693,357.885A38.613,38.613,0,1,1,2332.08,396.5h0A38.613,38.613,0,0,1,2370.693,357.885Z" transform="translate(-2310.747 -325.076)" opacity="0.3"/>
  <path id="top-7-2" data-name="top-7" d="M2370.693,350.745a38.613,38.613,0,1,1-38.613,38.613h0A38.613,38.613,0,0,1,2370.693,350.745Z" transform="translate(-2310.747 -325.076)" fill="#b58a1f"/>
  <path id="top-7-3" data-name="top-7" d="M2370.693,346.184A38.613,38.613,0,1,1,2332.08,384.8h0A38.613,38.613,0,0,1,2370.693,346.184Z" transform="translate(-2310.747 -325.076)" fill="#fce856"/>
  <path id="top-7-4" data-name="top-7" d="M2370.693,350.769a34.028,34.028,0,1,1-34.028,34.028h0A34.028,34.028,0,0,1,2370.693,350.769Z" transform="translate(-2310.747 -325.076)" fill="#e2901a"/>
  <path id="Path_38" data-name="Path 38" d="M2373.65,358.147c4.316.7-.073,11.443-1.28,14.072A6.17,6.17,0,0,1,2366,376C2357.014,374.556,2362.443,356.329,2373.65,358.147Z" transform="translate(-2310.747 -325.076)" fill="#1d1d1b" opacity="0.2"/>
  <path id="Path_39" data-name="Path 39" d="M2344.645,380.217c-.179-4.546,1.645-10.128,4.98-11.483,1.6-.651,5.182,5.255,6.032,7.881a6.928,6.928,0,0,1,.072,4.832c-1.151,3.388-4.488,5.308-7.442,4.287A5.7,5.7,0,0,1,2344.645,380.217Z" transform="translate(-2310.747 -325.076)" fill="#1d1d1b" opacity="0.2"/>
  <path id="Path_40" data-name="Path 40" d="M2382.884,381.976a6.041,6.041,0,0,1-2.64-6.743c.64-2.759,3.7-13.681,7.456-11.636C2397.442,368.916,2390.689,386.227,2382.884,381.976Z" transform="translate(-2310.747 -325.076)" fill="#1d1d1b" opacity="0.2"/>
  <path id="Path_41" data-name="Path 41" d="M2397.25,397.9a5.705,5.705,0,0,1-6.259,2.086c-2.933-1.009-4.376-4.555-3.222-7.9a6.869,6.869,0,0,1,3.011-3.765c2.283-1.521,8.7-3.986,9.56-2.508C2402.127,388.929,2400.144,394.427,2397.25,397.9Z" transform="translate(-2310.747 -325.076)" fill="#1d1d1b" opacity="0.2"/>
  <path id="Path_42" data-name="Path 42" d="M2382.241,406.922a17.328,17.328,0,0,1-10.476,9.9c-3.633,1.238-5.983-2.211-9.779-3.76-3.117-1.267-7.331.038-9.107-2.586a17.249,17.249,0,0,1-1.593-16.175c1.444-3.526,5.167-4.518,8.147-6.394,4.41-2.761,8.712-5.266,13.8-3.182,4.794,1.948,6.456,6.328,7.86,11C2382.215,399.376,2383.825,403.076,2382.241,406.922Z" transform="translate(-2310.747 -325.076)" fill="#1d1d1b" opacity="0.2"/>
  <path id="Path_43" data-name="Path 43" d="M2372.615,354.411c4.316.7-.072,11.444-1.28,14.073a6.168,6.168,0,0,1-6.371,3.783C2355.975,370.818,2361.412,352.591,2372.615,354.411Z" transform="translate(-2310.747 -325.076)" fill="#fce856"/>
  <path id="Path_44" data-name="Path 44" d="M2343.612,376.479c-.18-4.545,1.644-10.127,4.98-11.483,1.6-.651,5.182,5.255,6.032,7.881a6.917,6.917,0,0,1,.071,4.832c-1.151,3.387-4.488,5.308-7.442,4.287A5.705,5.705,0,0,1,2343.612,376.479Z" transform="translate(-2310.747 -325.076)" fill="#fce856"/>
  <path id="Path_45" data-name="Path 45" d="M2381.845,378.239a6.041,6.041,0,0,1-2.639-6.743c.64-2.76,3.7-13.682,7.456-11.636C2396.409,365.178,2389.656,382.491,2381.845,378.239Z" transform="translate(-2310.747 -325.076)" fill="#fce856"/>
  <path id="Path_46" data-name="Path 46" d="M2396.216,394.165a5.7,5.7,0,0,1-6.257,2.087c-2.934-1.01-4.377-4.555-3.222-7.905a6.858,6.858,0,0,1,3.011-3.765c2.282-1.521,8.7-3.987,9.558-2.508C2401.092,385.193,2399.112,390.686,2396.216,394.165Z" transform="translate(-2310.747 -325.076)" fill="#fce856"/>
  <path id="Path_47" data-name="Path 47" d="M2382.537,402.028a17.332,17.332,0,0,1-10.476,9.906c-3.635,1.238-5.983-2.212-9.779-3.761-3.119-1.267-7.331.039-9.107-2.585a17.248,17.248,0,0,1-1.595-16.172c1.452-3.525,5.169-4.519,8.149-6.393,4.41-2.761,8.711-5.268,13.8-3.183,4.793,1.947,6.455,6.328,7.862,11C2382.5,394.481,2384.112,398.182,2382.537,402.028Z" transform="translate(-2310.747 -325.076)" fill="#fce856"/>
  <path id="Path_48" data-name="Path 48" d="M2352.693,368.943c-1.386-2.27-3.118-4.347-4.1-3.946-3.268,1.328-5.084,6.716-4.987,11.21A74.886,74.886,0,0,1,2352.693,368.943Z" transform="translate(-2310.747 -325.076)" fill="#fff" opacity="0.4" style="mix-blend-mode: normal;isolation: isolate"/>
  <path id="Path_49" data-name="Path 49" d="M2372.615,354.411c-6.578-1.067-11.163,4.773-12.011,10.071a25.557,25.557,0,0,1,13.142-2.56C2374.718,358.393,2375.052,354.807,2372.615,354.411Z" transform="translate(-2310.747 -325.076)" fill="#fff" opacity="0.4" style="mix-blend-mode: normal;isolation: isolate"/>
  <path id="Path_50" data-name="Path 50" d="M2386.67,359.86c-2.062-1.122-3.91,1.658-5.267,4.85a31.251,31.251,0,0,1,9,9.085C2392.386,369.207,2391.974,362.756,2386.67,359.86Z" transform="translate(-2310.747 -325.076)" fill="#fff" opacity="0.4" style="mix-blend-mode: normal;isolation: isolate"/>
  <path id="Path_51" data-name="Path 51" d="M2399.306,382.079c-.433-.75-2.29-.488-4.316.149a58.663,58.663,0,0,1,3.12,9.134C2399.847,388.177,2400.662,384.442,2399.306,382.079Z" transform="translate(-2310.747 -325.076)" fill="#fff" opacity="0.4" style="mix-blend-mode: normal;isolation: isolate"/>
  <path id="Path_52" data-name="Path 52" d="M2381.4,390.84c-1.408-4.675-3.069-9.055-7.864-11-5.1-2.086-9.394.42-13.8,3.181-2.981,1.875-6.705,2.868-8.149,6.393a17.727,17.727,0,0,0-.639,1.857c4.751-1.03,12.637-2.072,19.157.292,5.129,1.859,9.456,6.378,12.469,10.372C2384.089,398.12,2382.492,394.45,2381.4,390.84Z" transform="translate(-2310.747 -325.076)" fill="#fff" opacity="0.4" style="mix-blend-mode: normal;isolation: isolate"/>
  <path id="Path_53" data-name="Path 53" d="M2345.416,373.105c.273-1.482,1.288-3.122,2.5-3.329.561-.084,1.3,2.091,1.32,3a2.413,2.413,0,0,1-.322,1.611,1.979,1.979,0,0,1-2.651.869l-.085-.044A2.144,2.144,0,0,1,2345.416,373.105Z" transform="translate(-2310.747 -325.076)" fill="#fff" opacity="0.4" style="mix-blend-mode: normal;isolation: isolate"/>
  <path id="Path_54" data-name="Path 54" d="M2363.223,383.927a7.194,7.194,0,0,0-1.332,1.031c-.435.417-.8.983-1.27,1.353-.213.167-.464.308-.693.464q-.772.528-1.533,1.075-.875.629-1.727,1.283a2.537,2.537,0,0,0-.573.475,5.282,5.282,0,0,0-.248.528,6.238,6.238,0,0,0-.649,1.689,3.1,3.1,0,0,0,.148,1.61,2.461,2.461,0,0,0,.4.915,4.4,4.4,0,0,0,3.009,1.208,4.818,4.818,0,0,0,3.977-1.992c.823-1.16,1.107-2.627,1.993-3.746a3.15,3.15,0,0,1,1.085-.941,4.43,4.43,0,0,0,.783-.616,11.858,11.858,0,0,0,1.451-1.53,3.657,3.657,0,0,0,.984-2.429c-.093-1.23-1.238-1.671-2.309-1.584A8.273,8.273,0,0,0,2363.223,383.927Z" transform="translate(-2310.747 -325.076)" fill="#fff" opacity="0.4" style="mix-blend-mode: normal;isolation: isolate"/>
  <path id="Path_55" data-name="Path 55" d="M2368.685,358.2c1.437.5-.792,3.862-1.376,4.658a2.138,2.138,0,0,1-2.368.867C2362.047,362.571,2365.108,356.808,2368.685,358.2Z" transform="translate(-2310.747 -325.076)" fill="#fff" opacity="0.4" style="mix-blend-mode: normal;isolation: isolate"/>
  <path id="Path_56" data-name="Path 56" d="M2383.062,367.427a2.061,2.061,0,0,1-.493-2.376c.345-.847,1.95-4.241,3.071-3.366C2388.529,363.945,2385.35,369.267,2383.062,367.427Z" transform="translate(-2310.747 -325.076)" fill="#fff" opacity="0.4" style="mix-blend-mode: normal;isolation: isolate"/>
  <path id="Path_57" data-name="Path 57" d="M2397.089,388.057a2.132,2.132,0,0,1-2.244.891,2.233,2.233,0,0,1-1.3-2.826,2.88,2.88,0,0,1,1.055-1.452c.829-.626,3.082-1.593,3.432-1.1C2398.7,384.708,2398.129,386.749,2397.089,388.057Z" transform="translate(-2310.747 -325.076)" fill="#fff" opacity="0.4" style="mix-blend-mode: normal;isolation: isolate"/>
  <rect id="Frame" width="119.892" height="119.892" fill="none"/>
</svg>
