<svg id="high-five" xmlns="http://www.w3.org/2000/svg" width="70" height="70" viewBox="0 0 70 70">
  <path id="Path_13505" data-name="Path 13505" d="M49.987,27.305c5.824,0,4.16-21.633,17.473-16.64,4.388,1.645-1.208,8.369-2.183,11.594a12.438,12.438,0,0,0,.359,6.874c1.628,5.9,4.99,11.631,4.263,17.96-.422,3.672-2.316,7.1-4.409,10.073C61.915,62.243,56.6,67.341,50.457,69.022c-10.661,2.92-23.727-4.039-32.3-9.816-3.924-2.646-8.121-5.764-10.982-9.6-.966-1.293-2.358-3.6-1.8-5.327.815-2.541,5.225-2.547,4.341-3.43C5.555,36.692-.766,33.961.077,28.928c.67-4,4.638-3.253,7.241-2.935.294.036,2.494.61,2.641.206.157-.432-3.245-3.058-4.9-6.382-.868-1.742-1.395-3.926-.381-5.547,2.2-3.515,7.285-.576,9.545.5.53.253,2.228,1.4,2.854,1.027.475-.285-.293-2.8-.36-3.249-.338-2.257-.343-5.443,2.135-6.486C22.434,4.551,26.827,7.6,29.306,9.824,36.428,16.2,43.8,27.305,49.987,27.305" transform="translate(0 0)" fill-rule="evenodd" opacity="0.3"/>
  <path id="Path_13506" data-name="Path 13506" d="M49.987,21.648c5.824,0,4.16-21.633,17.473-16.64,4.388,1.645-1.208,8.369-2.183,11.594a12.438,12.438,0,0,0,.359,6.874c1.628,5.9,4.99,11.631,4.263,17.96-.422,3.672-2.316,7.1-4.409,10.073C61.915,56.586,56.6,61.684,50.457,63.365c-10.661,2.92-23.727-4.039-32.3-9.816-3.924-2.646-8.121-5.764-10.982-9.6-.966-1.293-2.358-3.6-1.8-5.327.815-2.541,5.225-2.547,4.341-3.43C5.555,31.035-.766,28.3.077,23.271c.67-4,4.638-3.253,7.241-2.935.294.036,2.494.61,2.641.206.157-.432-3.245-3.058-4.9-6.382-.868-1.742-1.395-3.926-.381-5.547,2.2-3.515,7.285-.576,9.545.5.53.253,2.228,1.4,2.854,1.027.475-.285-.293-2.8-.36-3.249C16.378,4.632,16.373,1.446,18.851.4c3.583-1.509,7.976,1.544,10.455,3.764C36.428,10.545,43.8,21.648,49.987,21.648" transform="translate(0 0)" fill="#ffda00" fill-rule="evenodd"/>
  <path id="Path_13507" data-name="Path 13507" d="M17.075,10.139c-.626.375-2.324-.775-2.854-1.027,2.03.978,20.3,16.022,20.3,16.022C27.213,18.026,16.609,6.009,16.609,6.009c.027.3.064.6.106.88.067.448.836,2.965.36,3.25" transform="translate(0 0)" fill="#ffbc00" fill-rule="evenodd"/>
  <path id="Path_13508" data-name="Path 13508" d="M7.115,17.215h0C8.6,19,10.063,20.255,9.959,20.542c-.147.4-2.347-.169-2.641-.2,3.313.95,20.953,11.69,20.953,11.69Z" transform="translate(0 0)" fill="#ffbc00" fill-rule="evenodd"/>
  <path id="Path_13509" data-name="Path 13509" d="M7.783,36.452c2.337.008,18.807,7.683,18.807,7.683S5.166,31.362,5,31.234a55.421,55.421,0,0,1,4.712,3.961c.495.5-.669.715-1.932,1.257" transform="translate(0 0)" fill="#ffbc00" fill-rule="evenodd"/>
  <path id="Path_13510" data-name="Path 13510" d="M49.987,21.648c-1.87,0-3.848-1.015-5.9-2.607,1.922,1.634,3.763,3.469,3.162,6.833s1.081,18.26,1.081,18.26a61.4,61.4,0,0,1,4.21-24.322,3.127,3.127,0,0,1-2.557,1.836" transform="translate(0 0)" fill="#ffbc00" fill-rule="evenodd"/>
  <path id="Path_13511" data-name="Path 13511" d="M54.168,16.168Z" transform="translate(0 0)" fill="#ffbc00" fill-rule="evenodd"/>
  <path id="Path_13512" data-name="Path 13512" d="M65.489,51.51c2.093-2.973,3.988-6.4,4.409-10.073.515-4.478-1.018-8.655-2.535-12.806,1.37,17.414-14.82,20.9-14.82,20.9s4.8,5.418-8.452,9.262S5.27,39.833,5.265,39.83a9.3,9.3,0,0,0,1.913,4.123c2.862,3.833,7.058,6.951,10.983,9.6,8.568,5.776,21.635,12.735,32.3,9.816,6.141-1.681,11.458-6.78,15.033-11.856" transform="translate(0 0)" fill="#ffbc00" fill-rule="evenodd"/>
  <path id="Path_13513" data-name="Path 13513" d="M67.949,7.368a3.334,3.334,0,0,0-.351-2.3c-.046-.019-.091-.039-.139-.057a8.9,8.9,0,0,0-5.319-.551,9.968,9.968,0,0,0-4.633,4.361,4.623,4.623,0,0,0-.538,2.545,2.422,2.422,0,0,0,1.485,2.015,3.338,3.338,0,0,0,1.741,0A12.5,12.5,0,0,0,65.6,10.808a6.241,6.241,0,0,0,2.346-3.44" transform="translate(0 0)" fill="#ffe564" fill-rule="evenodd"/>
  <path id="Path_13514" data-name="Path 13514" d="M19.87,3.02A5.889,5.889,0,0,0,22.5,5.392L29.8,9.65a11.15,11.15,0,0,0,4.817,1.876c.3-.556-.114-1.212-.506-1.7A43.2,43.2,0,0,0,28.7,3.812,16.2,16.2,0,0,0,22.676.469C20.942-.047,18.793.64,19.87,3.02" transform="translate(0 0)" fill="#ffe564" fill-rule="evenodd"/>
  <path id="Path_13515" data-name="Path 13515" d="M6.486,10.312A5.9,5.9,0,0,0,9.3,12.468l7.614,3.666a11.141,11.141,0,0,0,4.952,1.487c.251-.578-.211-1.2-.64-1.659A43.2,43.2,0,0,0,15.348,10.4,16.222,16.222,0,0,0,9.08,7.546c-1.769-.377-3.856.479-2.594,2.766" transform="translate(0 0)" fill="#ffe564" fill-rule="evenodd"/>
  <path id="Path_13516" data-name="Path 13516" d="M58.043,24.082a7.554,7.554,0,0,1-.463,4.54q-1.638,5.07-3.275,10.14c-.675,2.088-1.4,4.257-2.966,5.7-.759-.357-.932-1.367-.984-2.19a57.269,57.269,0,0,1-.018-10.531,19.42,19.42,0,0,1,2.849-8.185c1.2-1.886,3.835-2.823,4.857.521" transform="translate(0 0)" fill="#ffe564" fill-rule="evenodd"/>
  <path id="Path_13517" data-name="Path 13517" d="M2.613,23.8a5.9,5.9,0,0,0,3.1,1.725l8.066,2.522a11.145,11.145,0,0,0,5.115.752c.164-.607-.383-1.155-.874-1.548A43.315,43.315,0,0,0,11.4,22.6a16.232,16.232,0,0,0-6.616-1.915C2.973,20.57,1.032,21.719,2.613,23.8" transform="translate(0 0)" fill="#ffe564" fill-rule="evenodd"/>
  <rect id="Rectangle_6034" data-name="Rectangle 6034" width="70" height="70" transform="translate(0 0)" fill="none"/>
</svg>
