<svg id="icon-stencil" xmlns="http://www.w3.org/2000/svg" width="120" height="120" viewBox="0 0 120 120">
  <rect id="frame" width="120" height="120" fill="none"/>
  <path id="Path_1815" data-name="Path 1815" d="M97.033,26.012q-.388-.388-.785-.765l-.072-.066q-.366-.346-.736-.681l-.005,0q-.807-.726-1.642-1.4l-.006-.005a41.549,41.549,0,0,0-46.7-3.78h0l-.012.006q-.864.495-1.708,1.033l-.071.046q-.528.338-1.047.693l-.056.038c-.161.111-.322.224-.482.337l-.225.161c-.23.166-.459.333-.686.5-.113.084-.225.168-.337.254l-.358.277q-.211.167-.421.335l-.35.284c-.184.152-.368.305-.55.461l-.248.212q-.3.26-.593.523l-.1.09c-.224.2-.446.41-.667.618L39,25.35q-.342.327-.679.662a41.467,41.467,0,0,0-11.543,36.5l-.146-.146s1.569,7.692-2.691,12.093l-.219.219s-3.862,2.595-.59,5.868l-.561-.562c-.076-.075-.155-.147-.234-.215l-.057-.049c-.079-.066-.159-.13-.241-.189l-.026-.018c-.075-.054-.152-.105-.229-.153l-.062-.038c-.083-.049-.167-.1-.252-.139l-.048-.023c-.073-.036-.147-.069-.221-.1l-.067-.028c-.084-.033-.169-.063-.254-.089l-.066-.02c-.07-.02-.14-.038-.209-.054-.024-.006-.047-.012-.071-.016-.083-.017-.165-.031-.248-.042L20.2,78.8q-.1-.011-.2-.015c-.023,0-.046,0-.069,0-.08,0-.159,0-.237.006l-.081.006c-.023,0-.047,0-.069.006l0,0a2.315,2.315,0,0,0-1.392.647l-.8.8c-1.07,1.07-2,1.88-.633,3.243-1.364-1.363-2.173-.437-3.243.633l-.8.8c-1.07,1.07-.832,3.043.531,4.407l-.111-.111-2.032,3.94a3.834,3.834,0,0,0,.734,4.11L13.8,99.26a7.222,7.222,0,0,0,9.518,9.518l1.993,1.993a3.832,3.832,0,0,0,4.109.734l3.94-2.032-.111-.111c1.363,1.363,3.337,1.6,4.408.531l.8-.8c1.071-1.071,1.616-2.261.253-3.624,1.363,1.363,2.553.818,3.623-.252l.8-.8a2.309,2.309,0,0,0,.647-1.393l0,0c0-.023,0-.046.006-.069s.005-.054.007-.082c0-.078.007-.157.005-.237,0-.023,0-.046,0-.069,0-.065-.008-.131-.014-.2l-.009-.078c-.011-.083-.024-.165-.042-.248,0-.024-.01-.047-.016-.071-.016-.069-.034-.139-.054-.208l-.02-.068c-.026-.084-.056-.169-.089-.253l-.028-.067c-.031-.074-.064-.147-.1-.221l-.023-.048c-.043-.085-.09-.169-.139-.252-.013-.021-.026-.041-.038-.062-.048-.077-.1-.154-.153-.229l-.018-.026c-.059-.082-.123-.162-.189-.241l-.048-.057c-.069-.079-.14-.157-.216-.233l-.239-.239c3.273,3.273,5.869-.59,5.869-.59l.218-.219c4.4-4.259,12.094-2.69,12.094-2.69a41.492,41.492,0,0,0,34.585-9.76q.974-.859,1.9-1.791a41.516,41.516,0,0,0,0-58.714" opacity="0.3"/>
  <path id="Path_1816" data-name="Path 1816" d="M38.37,20.333A41.518,41.518,0,1,1,60.587,90.591l.007.007S52.9,89.029,48.5,93.288l-.219.219s-2.6,3.863-5.869.59L31.991,83.674l-1.619-1.619-7.191-7.19c-3.273-3.274.59-5.869.59-5.869l.219-.219c4.259-4.4,2.69-12.093,2.69-12.093l.147.146a41.467,41.467,0,0,1,11.543-36.5" fill="#fdd61b"/>
  <path id="Path_1817" data-name="Path 1817" d="M38.37,20.333a41.542,41.542,0,0,1,8.769-6.7A26.684,26.684,0,0,0,42.5,18.1a53.3,53.3,0,0,0-8.246,13.547,47.363,47.363,0,0,0-3.786,14.16c-.57,7.789,2.979,15.955,8.126,21.572C43.084,72.284,49.2,77.6,56.124,78.149a24.856,24.856,0,0,0,11.538-1.964A61.214,61.214,0,0,0,88.957,58.528c7.834-10.359,11.1-22.779,7.136-35.41a41.284,41.284,0,0,0-2.254-5.709,42.153,42.153,0,0,1,3.246,2.924A41.523,41.523,0,0,1,60.594,90.6S52.9,89.029,48.5,93.288l-.219.219s-2.6,3.863-5.869.59L23.181,74.865c-3.273-3.274.59-5.869.59-5.869l.219-.219c4.259-4.4,2.69-12.093,2.69-12.093l.147.146a41.467,41.467,0,0,1,11.543-36.5" fill="#f7b909"/>
  <path id="Path_1818" data-name="Path 1818" d="M75.3,14.154c-10.222-2.894-19.829-.576-21.458,5.177S59.179,32.1,69.4,34.989s19.83.577,21.458-5.177S85.522,17.048,75.3,14.154" fill="#ffe89b"/>
  <path id="Path_1819" data-name="Path 1819" d="M17.414,74.57c-1.07,1.07-2,1.879-.633,3.243L38.762,99.794c1.363,1.363,2.554.817,3.623-.253l.8-.8c1.071-1.071.832-3.045-.531-4.408L22.619,74.3c-1.363-1.363-3.337-1.6-4.407-.531Z" fill="#678da5"/>
  <path id="Path_1820" data-name="Path 1820" d="M12.74,79.243c-1.07,1.07-.832,3.044.531,4.407L33.3,103.683c1.363,1.363,3.337,1.6,4.407.532l.8-.8c1.071-1.071,1.616-2.261.253-3.624L16.781,77.812c-1.364-1.363-2.173-.437-3.243.633Z" fill="#678da5"/>
  <path id="Path_1821" data-name="Path 1821" d="M11.863,91.589a3.833,3.833,0,0,1-.734-4.11l2.032-3.94,20.255,20.255-3.94,2.032a3.833,3.833,0,0,1-4.11-.734Z" fill="#678da5"/>
  <path id="Path_1822" data-name="Path 1822" d="M23.407,103.085a7.224,7.224,0,0,1-9.538-9.538Z" fill="#3a4e69"/>
  <path id="Path_1823" data-name="Path 1823" d="M38.677,99.708s-1.171-1.508-3.061-3.636c-.94-1.07-2.058-2.295-3.278-3.587-.615-.641-1.235-1.318-1.892-1.979L28.464,88.49c-.675-.665-1.35-1.329-2.015-1.982s-1.338-1.278-1.979-1.893c-1.291-1.221-2.517-2.339-3.586-3.278-2.129-1.89-3.638-3.06-3.638-3.06s1.17,1.509,3.06,3.638c.939,1.069,2.057,2.295,3.278,3.586.615.641,1.234,1.319,1.893,1.979L27.459,89.5l2.016,1.981c.661.657,1.338,1.278,1.979,1.892,1.292,1.22,2.517,2.338,3.587,3.278,2.128,1.89,3.636,3.061,3.636,3.061" fill="#3a4e69"/>
  <path id="Path_1824" data-name="Path 1824" d="M32.364,102.743s-.966-1.3-2.549-3.124c-.786-.916-1.725-1.962-2.753-3.061-.518-.546-1.039-1.123-1.6-1.684l-1.675-1.71-1.71-1.676c-.559-.558-1.138-1.078-1.683-1.6-1.1-1.028-2.145-1.967-3.061-2.753-1.821-1.582-3.125-2.547-3.125-2.547s.965,1.3,2.547,3.125c.786.916,1.725,1.963,2.753,3.061.519.545,1.039,1.124,1.6,1.683l1.676,1.71,1.71,1.675c.561.557,1.138,1.078,1.683,1.6,1.1,1.027,2.146,1.966,3.062,2.752,1.821,1.583,3.124,2.549,3.124,2.549" fill="#3a4e69"/>
  <path id="Path_1825" data-name="Path 1825" d="M45.5,60.383c.75-.829,1.535-1.618,2.295-2.381l.2-.2a13.273,13.273,0,0,1-2.833-3.689,5.712,5.712,0,0,1,1.459-6.588,4.463,4.463,0,0,1,5.544-.511c2.6,1.638,3.111,4.531,1.342,7.551a19.8,19.8,0,0,1-2.5,3.191c.431.419.9.881,1.415,1.4l4.5,4.5c.518.516.98.986,1.4,1.418a19.846,19.846,0,0,1,3.191-2.5c3.021-1.768,5.914-1.254,7.55,1.343a4.463,4.463,0,0,1-.51,5.544,5.71,5.71,0,0,1-6.588,1.458,13.336,13.336,0,0,1-3.689-2.832l-.2.2c-.763.76-1.552,1.545-2.382,2.3l-18.4,18.4-1.51-1.51L54.2,69.048l.039-.038c.8-.721,1.541-1.46,2.327-2.242l.216-.216c-.412-.424-.866-.887-1.371-1.389l-4.5-4.5c-.5-.505-.963-.957-1.387-1.369l-.216.217c-.782.786-1.521,1.528-2.242,2.326l-.018.02L28.608,80.293l-1.51-1.51Zm6.165-6.9c.681-1.163,1.5-3.316-.639-4.666a2.335,2.335,0,0,0-2.977.292,3.564,3.564,0,0,0-.971,4.057,11.214,11.214,0,0,0,2.4,3.1,17.832,17.832,0,0,0,2.188-2.779M62.589,64.412a17.893,17.893,0,0,0-2.78,2.187A11.176,11.176,0,0,0,62.9,69a3.566,3.566,0,0,0,4.058-.972,2.333,2.333,0,0,0,.291-2.976,3.529,3.529,0,0,0-.487-.619c-1.338-1.338-3.147-.623-4.178-.02" fill="#f29100"/>
  <path id="Path_1826" data-name="Path 1826" d="M19.6,73.122A3.782,3.782,0,0,1,22.619,74.3L42.652,94.337a3.776,3.776,0,0,1,1.181,3.016Z" fill="#92bfd6"/>
  <path id="Path_1827" data-name="Path 1827" d="M49.306,59.509c-.607.61-1.188,1.194-1.755,1.8L46.041,59.8c.581-.617,1.174-1.213,1.752-1.794l.2-.2-.059-.059.015-.015L49.517,59.3l-.211.212" fill="#c97200"/>
  <path id="Path_1828" data-name="Path 1828" d="M56.778,66.557l1.851,1.851-.014.014-.342-.34-.2.2c-.581.578-1.177,1.172-1.8,1.753l-1.51-1.511c.6-.567,1.188-1.148,1.8-1.755l.212-.211" fill="#c97200"/>
</svg>
