<svg id="ignite" xmlns="http://www.w3.org/2000/svg" xmlns:xlink="http://www.w3.org/1999/xlink" width="70" height="70" viewBox="0 0 70 70">
  <defs>
    <linearGradient id="linear-gradient" x1="0.5" x2="0.5" y2="1" gradientUnits="objectBoundingBox">
      <stop offset="0" stop-color="#7267ff"/>
      <stop offset="1" stop-color="#ff62e7"/>
    </linearGradient>
    <linearGradient id="linear-gradient-2" x1="0.5" x2="0.5" y2="1" gradientUnits="objectBoundingBox">
      <stop offset="0" stop-color="#fff"/>
      <stop offset="0.03" stop-color="#fff787"/>
      <stop offset="0.182" stop-color="#fbf387" stop-opacity="0.937"/>
      <stop offset="1" stop-color="#fbf387" stop-opacity="0"/>
    </linearGradient>
    <clipPath id="clip-path">
      <rect id="Rectangle_5694" data-name="Rectangle 5694" width="57.592" height="14.433" fill="none"/>
    </clipPath>
    <clipPath id="clip-path-2">
      <rect id="Rectangle_5693" data-name="Rectangle 5693" width="57.592" height="14.433" transform="translate(0 0)" fill="none"/>
    </clipPath>
    <clipPath id="clip-path-3">
      <rect id="Rectangle_5689" data-name="Rectangle 5689" width="54.01" height="1.948" transform="translate(1.198 12.485)" fill="none"/>
    </clipPath>
    <clipPath id="clip-path-4">
      <rect id="Rectangle_5690" data-name="Rectangle 5690" width="51.24" height="5.14" transform="translate(2.672 8.599)" fill="none"/>
    </clipPath>
    <clipPath id="clip-path-5">
      <rect id="Rectangle_5691" data-name="Rectangle 5691" width="50.204" height="3.131" transform="translate(3.036 2.613)" fill="none"/>
    </clipPath>
    <clipPath id="clip-path-6">
      <rect id="Rectangle_5692" data-name="Rectangle 5692" width="2.788" height="1.182" transform="translate(0.016 7.548)" fill="none"/>
    </clipPath>
  </defs>
  <path id="Path_13030" data-name="Path 13030" d="M32.6,0c-2.3.855-7.723,3.536-6.926,6.413s3.226,2.149,5.043,4.376-3.419,4.521-7.625,7.19-4.025,8.052-2.473,9.448,3.037,2.471.737,3.327-9.842,3.236-9.51,11.119,2.125,14.212,15.9,20.042,25.5-1.976,28.8-11.433.511-13.533.511-13.533c.864,3.2-2.937,8.042-7.631,6.549s-5.143-8.092-2.745-12.09S53.6,29.8,53.6,29.8c-1.339-5.885-3.514-12.019-7.038-11.792s-8.023,5.782-9.965,3.814-.885-5.442,1.025-6.742,3.544-4.778.392-5.9S31.9,7.571,31.166,4.309,32.6,0,32.6,0Z" fill="url(#linear-gradient)"/>
  <path id="Path_13031" data-name="Path 13031" d="M42.551,28.114h0m-13.943-9.8c-2.619.987-1.444,3.092.287,3.2s3.668,1.312-.3,2.375-3.95,9.334-.289,10.005S35,36.328,33.808,38.9s-3.968.766-3.968.766c2.3,5.643-7.67,2.487-5.843-.864A2.8,2.8,0,0,1,28.539,37.8c-9.183-8.182-16.628,5.286-7.978,17s24.007,9.643,29.129,4.464S48.361,45.56,48.361,45.56s2.746,5.488.062,6.411-7.208-2.88-7.052-6.536S45.7,42.478,45.7,42.478c-9.58-5.438-3.186-14.316-3.152-14.364-3.038,4.195-7.155,2.632-8.328.721s.746-2.508.985-4.241-2.456-2.093-3.3-3.366,1.788-.723,2.157-2.329-2.208-3.057-2.208-3.057c1.748,1.843-.628,1.481-3.247,2.468" fill="url(#linear-gradient-2)"/>
  <g id="Group_15865" data-name="Group 15865" transform="translate(5.432 50.157)">
    <g id="Group_15864" data-name="Group 15864" clip-path="url(#clip-path)">
      <g id="Group_15863" data-name="Group 15863">
        <g id="Group_15862" data-name="Group 15862" clip-path="url(#clip-path-2)">
          <g id="Group_15852" data-name="Group 15852" opacity="0.3">
            <g id="Group_15851" data-name="Group 15851">
              <g id="Group_15850" data-name="Group 15850" clip-path="url(#clip-path-3)">
                <path id="Path_13033" data-name="Path 13033" d="M53.838,12.864c-3.06-.109-7.012-.289-22.28-.375-9.891-.035-19.773.125-29.44.475-.6.1-.935.238-.919.38s.3.283.787.4c9.569.419,19.4.649,29.291.685,15.277.024,19.275-.124,22.356-.215.312-.009,1.6-.1,1.575-.647s-1.37-.7-1.37-.7" fill="#1b0623"/>
              </g>
            </g>
          </g>
          <path id="Path_13034" data-name="Path 13034" d="M50.078,4.313s.623-1.465-.32-1.6S37.783,1.329,37.783,1.329s-1.867,1.556-5.51-.917c0,0-.193-.625,2.284-.335s14.9,1.473,14.9,1.473,2.274.138,3.154,3.231-2.534-.468-2.534-.468" fill="#063"/>
          <path id="Path_13035" data-name="Path 13035" d="M52.415,12.495c-2.933.521-6.74,1.364-21.285,1.228A119.944,119.944,0,0,1,3.242,9.812a4.216,4.216,0,0,1-.75-2.292,2.993,2.993,0,0,1,.875-2.17A120.016,120.016,0,0,1,31.4,2.64c14.538.49,18.3,1.517,21.213,2.14,0,0,1.282.914,1.305,4.02s-1.2,3.642-1.5,3.695" fill="#95c11f"/>
          <path id="Path_13036" data-name="Path 13036" d="M2.764,6.333l-2.44.736S0,7.21,0,7.457a.6.6,0,0,0,.424.462c.137.042,2.38.812,2.38.812Z" fill="#c6c6c6"/>
          <path id="Path_13037" data-name="Path 13037" d="M5.584,10.412a.149.149,0,0,0-.048-.077c-.232-.2-.749-.9-.776-2.865a3.23,3.23,0,0,1,.778-2.579c-1.388.274-2.171.459-2.171.459a2.993,2.993,0,0,0-.875,2.17,4.219,4.219,0,0,0,.75,2.292s.845.24,2.342.6" fill="#dedc00"/>
          <path id="Path_13038" data-name="Path 13038" d="M53.915,8.8c-.023-3.1-1.3-4.019-1.3-4.019C49.724,4.164,46,3.151,31.812,2.656A8.34,8.34,0,0,0,30.4,7.645a14.585,14.585,0,0,0,1.113,6l.094.084c14.142.112,17.906-.716,20.8-1.232.3-.051,1.524-.587,1.5-3.692" fill="#008d36"/>
          <g id="Group_15855" data-name="Group 15855" opacity="0.46" style="mix-blend-mode: multiply;isolation: isolate">
            <g id="Group_15854" data-name="Group 15854">
              <g id="Group_15853" data-name="Group 15853" clip-path="url(#clip-path-4)">
                <path id="Path_13039" data-name="Path 13039" d="M53.913,9.015a170.877,170.877,0,0,1-18.98,1.971C26.018,11.266,2.7,8.6,2.7,8.6l-.023.034a3.976,3.976,0,0,0,.57,1.182,119.942,119.942,0,0,0,27.887,3.91c14.545.135,18.353-.707,21.286-1.228.29-.054,1.462-.566,1.5-3.481" fill="#063"/>
              </g>
            </g>
          </g>
          <g id="Group_15858" data-name="Group 15858" opacity="0.5" style="mix-blend-mode: overlay;isolation: isolate">
            <g id="Group_15857" data-name="Group 15857">
              <g id="Group_15856" data-name="Group 15856" clip-path="url(#clip-path-5)">
                <path id="Path_13040" data-name="Path 13040" d="M52.12,5.6l1.12,0a2.523,2.523,0,0,0-.629-.82C49.7,4.156,45.936,3.128,31.4,2.641A119.892,119.892,0,0,0,3.368,5.35a2.441,2.441,0,0,0-.332.394C27.456.421,52.12,5.6,52.12,5.6" fill="#fff"/>
              </g>
            </g>
          </g>
          <path id="Path_13041" data-name="Path 13041" d="M52.416,12.5c.3-.053,1.521-.588,1.5-3.694S52.61,4.783,52.61,4.783s-1.531-.27-1.5,3.694,1.3,4.019,1.3,4.019" fill="#3aaa35"/>
          <path id="Path_13042" data-name="Path 13042" d="M52.7,11.644c.235-.044.891-.361.875-2.839s-.715-3.316-.715-3.316-1.223-.215-1.2,2.949S52.7,11.644,52.7,11.644" fill="#008d36"/>
          <path id="Path_13043" data-name="Path 13043" d="M56.864,6.092s.711.484.727,2.695-.574,2.516-.785,2.553l-4.193-.09s-.827.1-.851-2.722S52.672,6,52.672,6Z" fill="#c6c6c6"/>
          <path id="Path_13044" data-name="Path 13044" d="M56.805,11.34c.211-.038.8-.343.785-2.554s-.727-2.694-.727-2.694-.933-.3-.91,2.526.852,2.722.852,2.722" fill="#ededed"/>
          <path id="Path_13045" data-name="Path 13045" d="M49.758,2.71a.58.58,0,0,1,.342.168,1,1,0,0,0-.544-.5l-6.135-.723L32.271.414c3.642,2.473,5.509.916,5.509.916S48.814,2.57,49.758,2.71" fill="#024220"/>
          <path id="Path_13046" data-name="Path 13046" d="M.988,6.869l-.664.2S0,7.21,0,7.457a.6.6,0,0,0,.424.463c.043.013.288.1.605.2Z" fill="#2d2e83"/>
          <g id="Group_15861" data-name="Group 15861" opacity="0.46" style="mix-blend-mode: multiply;isolation: isolate">
            <g id="Group_15860" data-name="Group 15860">
              <g id="Group_15859" data-name="Group 15859" clip-path="url(#clip-path-6)">
                <path id="Path_13047" data-name="Path 13047" d="M2.788,7.841.016,7.548a.662.662,0,0,0,.408.37c.137.043,2.38.813,2.38.813Z" fill="#063"/>
              </g>
            </g>
          </g>
        </g>
      </g>
    </g>
  </g>
  <rect id="frame" width="70" height="70" fill="none"/>
</svg>
