<svg id="Icon_-_Instagram" data-name="Icon - Instagram" xmlns="http://www.w3.org/2000/svg" width="120" height="120" viewBox="0 0 120 120">
  <rect id="frame" width="120" height="120" fill="none"/>
  <g id="instagram" transform="translate(25.241 30.241)">
    <path id="Path_1408" data-name="Path 1408" d="M57.932,0H11.586A11.621,11.621,0,0,0,0,11.586V57.932A11.621,11.621,0,0,0,11.586,69.519H57.932A11.621,11.621,0,0,0,69.519,57.932V11.586A11.621,11.621,0,0,0,57.932,0Zm5.793,57.932a5.81,5.81,0,0,1-5.793,5.793H11.586a5.81,5.81,0,0,1-5.793-5.793V11.586a5.81,5.81,0,0,1,5.793-5.793H57.932a5.81,5.81,0,0,1,5.793,5.793Z" fill="rgba(0,0,0,0.3)"/>
    <path id="Path_1409" data-name="Path 1409" d="M23.38,6a17.38,17.38,0,1,0,17.38,17.38A17.431,17.431,0,0,0,23.38,6Zm0,28.966A11.586,11.586,0,1,1,34.966,23.38,11.621,11.621,0,0,1,23.38,34.966Z" transform="translate(11.38 11.38)" fill="rgba(0,0,0,0.3)"/>
    <ellipse id="Ellipse_133" data-name="Ellipse 133" cx="4.5" cy="4" rx="4.5" ry="4" transform="translate(49 12)" fill="rgba(0,0,0,0.3)"/>
  </g>
  <g id="instagram-2" data-name="instagram" transform="translate(25.241 26.241)">
    <path id="Path_1408-2" data-name="Path 1408" d="M57.932,0H11.586A11.621,11.621,0,0,0,0,11.586V57.932A11.621,11.621,0,0,0,11.586,69.519H57.932A11.621,11.621,0,0,0,69.519,57.932V11.586A11.621,11.621,0,0,0,57.932,0Zm5.793,57.932a5.81,5.81,0,0,1-5.793,5.793H11.586a5.81,5.81,0,0,1-5.793-5.793V11.586a5.81,5.81,0,0,1,5.793-5.793H57.932a5.81,5.81,0,0,1,5.793,5.793Z" fill="#afafaf"/>
    <path id="Path_1409-2" data-name="Path 1409" d="M23.38,6a17.38,17.38,0,1,0,17.38,17.38A17.431,17.431,0,0,0,23.38,6Zm0,28.966A11.586,11.586,0,1,1,34.966,23.38,11.621,11.621,0,0,1,23.38,34.966Z" transform="translate(11.38 11.38)" fill="#afafaf"/>
    <ellipse id="Ellipse_133-2" data-name="Ellipse 133" cx="4.5" cy="4" rx="4.5" ry="4" transform="translate(49 12)" fill="#afafaf"/>
  </g>
  <g id="instagram-3" data-name="instagram" transform="translate(25.241 21.241)">
    <path id="Path_1408-3" data-name="Path 1408" d="M57.932,0H11.586A11.621,11.621,0,0,0,0,11.586V57.932A11.621,11.621,0,0,0,11.586,69.519H57.932A11.621,11.621,0,0,0,69.519,57.932V11.586A11.621,11.621,0,0,0,57.932,0Zm5.793,57.932a5.81,5.81,0,0,1-5.793,5.793H11.586a5.81,5.81,0,0,1-5.793-5.793V11.586a5.81,5.81,0,0,1,5.793-5.793H57.932a5.81,5.81,0,0,1,5.793,5.793Z" fill="#fff"/>
    <path id="Path_1409-3" data-name="Path 1409" d="M23.38,6a17.38,17.38,0,1,0,17.38,17.38A17.431,17.431,0,0,0,23.38,6Zm0,28.966A11.586,11.586,0,1,1,34.966,23.38,11.621,11.621,0,0,1,23.38,34.966Z" transform="translate(11.38 11.38)" fill="#fff"/>
    <ellipse id="Ellipse_133-3" data-name="Ellipse 133" cx="4.5" cy="4" rx="4.5" ry="4" transform="translate(49 12)" fill="#fff"/>
  </g>
</svg>
