<svg id="letter-writing" xmlns="http://www.w3.org/2000/svg" xmlns:xlink="http://www.w3.org/1999/xlink" width="70" height="70.245" viewBox="0 0 70 70.245">
  <defs>
    <clipPath id="clip-path">
      <rect id="Rectangle_4741" data-name="Rectangle 4741" width="70" height="70.245" fill="none"/>
    </clipPath>
    <clipPath id="clip-path-2">
      <rect id="Rectangle_4740" data-name="Rectangle 4740" width="70" height="70.245" transform="translate(0 0)" fill="none"/>
    </clipPath>
    <clipPath id="clip-path-3">
      <rect id="Rectangle_4725" data-name="Rectangle 4725" width="62.131" height="51.626" transform="translate(3.497 11.497)" fill="none"/>
    </clipPath>
    <clipPath id="clip-path-4">
      <rect id="Rectangle_4726" data-name="Rectangle 4726" width="3.717" height="44.567" transform="translate(61.619 8.881)" fill="none"/>
    </clipPath>
    <clipPath id="clip-path-5">
      <rect id="Rectangle_4727" data-name="Rectangle 4727" width="54.773" height="9.654" transform="translate(9.775 50.839)" fill="none"/>
    </clipPath>
    <clipPath id="clip-path-6">
      <rect id="Rectangle_4728" data-name="Rectangle 4728" width="60.517" height="50.613" transform="translate(3.806 9.295)" fill="none"/>
    </clipPath>
    <clipPath id="clip-path-7">
      <rect id="Rectangle_4729" data-name="Rectangle 4729" width="34.971" height="33.755" transform="translate(28.321 9.866)" fill="none"/>
    </clipPath>
    <clipPath id="clip-path-8">
      <rect id="Rectangle_4730" data-name="Rectangle 4730" width="60.747" height="44.921" transform="translate(3.205 8.867)" fill="none"/>
    </clipPath>
    <clipPath id="clip-path-9">
      <rect id="Rectangle_4731" data-name="Rectangle 4731" width="11.923" height="6.881" transform="translate(52.277 47.638)" fill="none"/>
    </clipPath>
    <clipPath id="clip-path-10">
      <rect id="Rectangle_4732" data-name="Rectangle 4732" width="3.725" height="27.212" transform="translate(61.537 9.837)" fill="none"/>
    </clipPath>
    <clipPath id="clip-path-11">
      <rect id="Rectangle_4733" data-name="Rectangle 4733" width="15.433" height="12.66" transform="translate(33.129 27.651)" fill="none"/>
    </clipPath>
    <clipPath id="clip-path-12">
      <rect id="Rectangle_4734" data-name="Rectangle 4734" width="24.514" height="20.972" transform="translate(3.807 18.676)" fill="none"/>
    </clipPath>
    <clipPath id="clip-path-13">
      <rect id="Rectangle_4735" data-name="Rectangle 4735" width="11.908" height="6.65" transform="translate(49.322 48.148)" fill="none"/>
    </clipPath>
    <clipPath id="clip-path-14">
      <rect id="Rectangle_4736" data-name="Rectangle 4736" width="32.247" height="32.121" transform="translate(21.638 2.771)" fill="none"/>
    </clipPath>
    <clipPath id="clip-path-15">
      <rect id="Rectangle_4737" data-name="Rectangle 4737" width="28.501" height="28.332" transform="translate(22.011 3.608)" fill="none"/>
    </clipPath>
    <clipPath id="clip-path-16">
      <rect id="Rectangle_4738" data-name="Rectangle 4738" width="26.456" height="27.826" transform="translate(20.576 2.082)" fill="none"/>
    </clipPath>
    <clipPath id="clip-path-17">
      <rect id="Rectangle_4739" data-name="Rectangle 4739" width="2.12" height="1.405" transform="translate(20.019 31.151)" fill="none"/>
    </clipPath>
  </defs>
  <g id="Group_12636" data-name="Group 12636" clip-path="url(#clip-path)">
    <g id="Group_12635" data-name="Group 12635">
      <g id="Group_12634" data-name="Group 12634" clip-path="url(#clip-path-2)">
        <g id="Group_12591" data-name="Group 12591" opacity="0.3">
          <g id="Group_12590" data-name="Group 12590">
            <g id="Group_12589" data-name="Group 12589" clip-path="url(#clip-path-3)">
              <path id="Path_10262" data-name="Path 10262" d="M65.21,18.325c-.2-3.353-.5-5.724-.914-6.337a.231.231,0,0,0-.046-.063c-.114-.485-.255-.527-.411-.21-1.812-.528-8.689-.052-17.2.975l-.017,0-.826.1c-.59.072-1.184.146-1.788.222-1.259.164-2.538.338-3.845.516-1.679.233-3.391.485-5.109.745-.421.064-.837.131-1.255.2l-.89.139c-.556.088-1.113.173-1.668.261h-.008c-1.7.28-3.388.564-5.045.859-.791.138-1.573.282-2.35.426q-.7.129-1.4.261l-.032.006H22.4l-.255.048-.162.032c-1.576.3-3.1.6-4.567.913l-.534.114-.011,0-.592.127-.614.135-.359.08-.215.048c-.488.109-.969.218-1.436.327q-1.2.282-2.3.565l-.168.043-.261.068q-.523.135-1.018.272c-.426.116-.837.231-1.228.344-.3.091-.594.181-.877.271A18.7,18.7,0,0,0,4.1,21.307c-.3.18-.563,1.59-.6,3.972,0,.025,0,.05,0,.075,0,.154,0,.311,0,.474,0,.125,0,.255,0,.385v.04c0,.287.007.582.016.891.041,1.354.144,2.914.33,4.663.016.147.034.3.051.448.015.126.029.254.044.382,0,.022.006.043.008.065.034.285.07.573.108.867h0c.031.245.065.492.1.742.051.372.1.747.163,1.131.073.476.155.965.24,1.46.022.13.045.261.068.392q.069.392.142.79.049.261.1.526.114.6.239,1.21v0c.024.119.047.235.072.355.216,1.038.459,2.111.73,3.207q.2.825.424,1.67a.2.2,0,0,1,.007.026q.154.583.318,1.177l.012.043q.159.573.327,1.154c.006.02.011.039.016.058q.159.546.326,1.1c.012.04.023.08.035.121s.032.1.046.145q.254.828.526,1.671c.011.036.024.073.036.11q.249.77.516,1.55c.034.1.064.193.1.291.029.082.06.165.088.246q.264.757.545,1.525l.1.26q.306.833.635,1.678c.026.07.051.139.078.209,0,.021.012.034.014.048.135.326.256.653.393.986.011.034.031.074.043.109.795,1.977,2.793,3.788,3.366,4.442l.019.023a4.234,4.234,0,0,0,2.49.891c9.353,1.291,40.271-3.885,46.721-5.8a1.128,1.128,0,0,0,1.387-1.056,20.945,20.945,0,0,0,.371-2.594c.041-.4.078-.833.11-1.3.107-1.38.2-3.009.28-4.821v-.007c.052-1.137.095-2.345.138-3.6.045-1.572.088-3.223.111-4.907.024-1.19.038-2.4.051-3.618v-.008a146.255,146.255,0,0,0-.32-16.888"/>
            </g>
          </g>
        </g>
        <path id="Path_10263" data-name="Path 10263" d="M65.072,18.929c.055,1.574.1,3.263.127,5.033.02,1.192.03,2.421.042,3.664.006,1.637,0,3.3,0,4.964-.013,1.218-.026,2.428-.05,3.619-.024,1.684-.066,3.334-.111,4.907-.044,1.257-.086,2.464-.138,3.6v.007c-.079,1.813-.174,3.442-.28,4.822-.033.462-.069.9-.11,1.294a9.012,9.012,0,0,1-.607,3.191c-1.477,1.451-46.986,9.31-50.362,5.366-.548-.636-2.582-2.467-3.386-4.465-.011-.034-.031-.074-.043-.109-.136-.332-.257-.66-.393-.986,0-.014-.01-.027-.013-.048-.517-1.327-.994-2.631-1.441-3.918S7.458,47.335,7.083,46.1q-.755-2.5-1.339-4.839c-.324-1.274-.607-2.517-.857-3.715-.345-1.664-.631-3.251-.86-4.737-.2-1.284-.348-2.5-.475-3.636-.185-1.75-.288-3.31-.329-4.664-.1-3.506.212-5.613.584-5.833A22.507,22.507,0,0,1,8.39,16.916c1.441-.417,3.122-.858,4.975-1.293,1.187-.276,2.445-.555,3.76-.833,1.594-.337,3.261-.669,4.985-.994h.007c1.236-.232,2.5-.469,3.779-.693,1.657-.3,3.343-.579,5.045-.858h.007q1.9-.3,3.813-.6c1.719-.26,3.431-.512,5.11-.746,1.307-.177,2.586-.351,3.845-.515,1.78-.225,3.505-.436,5.155-.615,1.332-.153,2.617-.284,3.832-.4,1.914-.185,3.663-.32,5.176-.4,3.416-.188,5.672-.111,6.072.324l.008.006c.564.649.919,4.472,1.113,9.632" fill="#ededed"/>
        <path id="Path_10264" data-name="Path 10264" d="M6.283,19.133c-1.043.722,6.551,7.5,13.541,13.855s17.42,4.329,23.673-1.131,17.649-20.243,16.825-21.6S44.035,12.48,31.452,14.8,7.979,17.96,6.283,19.133" fill="#fff"/>
        <path id="Path_10265" data-name="Path 10265" d="M15.1,59.764c-.835-1.438,6.033-12.126,20.315-13.7S61.245,54.72,61.245,54.72,32.021,61.353,15.1,59.764" fill="#e1e1e1"/>
        <path id="Path_10266" data-name="Path 10266" d="M46.39,40.154c.543,2.371,12.188,11.5,15.088,11.819S59.691,33.194,58.861,27.9,45.743,37.329,46.39,40.154" fill="#e1e1e1"/>
        <path id="Path_10267" data-name="Path 10267" d="M13.365,15.623c-.445,1.2-.9,2.384-1.505,3.98-2.236.529-2.976.716-4.863,1.214.563-1.554.98-2.739,1.394-3.9,1.44-.416,3.121-.857,4.974-1.292" fill="#008836"/>
        <path id="Path_10268" data-name="Path 10268" d="M22.11,13.8c-.412,1.17-.839,2.341-1.413,3.918-1.968.378-2.943.577-4.9,1,.538-1.579.943-2.748,1.333-3.929,1.594-.336,3.26-.668,4.984-.993" fill="#90bc1f"/>
        <path id="Path_10269" data-name="Path 10269" d="M30.941,12.244c-.4,1.2-.8,2.365-1.35,3.96-1.979.294-2.967.451-4.939.794.5-1.568.875-2.725,1.244-3.9,1.657-.3,3.343-.579,5.045-.858" fill="#008836"/>
        <path id="Path_10270" data-name="Path 10270" d="M39.871,10.9c-.4,1.275-.786,2.477-1.337,4.173-1.99.209-2.983.324-4.973.584.489-1.623.844-2.792,1.2-4.012,1.719-.26,3.431-.512,5.11-.745" fill="#90bc1f"/>
        <path id="Path_10271" data-name="Path 10271" d="M48.872,9.77c-.414,1.434-.787,2.685-1.353,4.547-2,.125-3,.2-4.993.372.493-1.752.834-2.977,1.191-4.3,1.78-.225,3.505-.436,5.155-.615" fill="#008836"/>
        <path id="Path_10272" data-name="Path 10272" d="M57.879,8.967c-.424,1.629-.776,2.934-1.347,4.975-2,.039-3,.077-5,.159.491-1.938.811-3.218,1.171-4.731,1.914-.185,3.663-.32,5.176-.4" fill="#90bc1f"/>
        <path id="Path_10273" data-name="Path 10273" d="M65.2,24.716l-5.823-2.474L59.2,17.394l5.87,2.289Z" fill="#008836"/>
        <path id="Path_10274" data-name="Path 10274" d="M65.241,27.626c.006,1.637,0,3.3,0,4.964l-5.551-2.358-.173-4.842Z" fill="#90bc1f"/>
        <path id="Path_10275" data-name="Path 10275" d="M65.187,36.209c-.024,1.684-.066,3.335-.111,4.907L60,39.713l-.174-4.841Z" fill="#008836"/>
        <path id="Path_10276" data-name="Path 10276" d="M64.938,44.717v.007c-.078,1.813-.174,3.442-.28,4.821l-4.34-1.851-.174-4.848Z" fill="#90bc1f"/>
        <path id="Path_10277" data-name="Path 10277" d="M8.531,30.976l-4.979-1.8c-.185-1.75-.288-3.31-.329-4.664L7.36,26Z" fill="#008836"/>
        <path id="Path_10278" data-name="Path 10278" d="M10.536,38.737,4.888,37.55c-.346-1.665-.631-3.251-.861-4.738l5.339.956Z" fill="#90bc1f"/>
        <path id="Path_10279" data-name="Path 10279" d="M12.532,48,7.083,46.858q-.755-2.5-1.339-4.839l5.624,1Z" fill="#008836"/>
        <path id="Path_10280" data-name="Path 10280" d="M14.535,55.747l-4.383-.923c-.137-.333-.258-.66-.394-.986,0-.014-.01-.027-.013-.048Q8.971,51.8,8.3,49.872l5.061.906Z" fill="#90bc1f"/>
        <g id="Group_12594" data-name="Group 12594" opacity="0.3">
          <g id="Group_12593" data-name="Group 12593">
            <g id="Group_12592" data-name="Group 12592" clip-path="url(#clip-path-4)">
              <path id="Path_10281" data-name="Path 10281" d="M63.958,9.3c-.731-3.117-2.609,12.037-2.307,23.615.219,8.378,1.58,19.945,1.935,20.53S67.1,22.682,63.958,9.3"/>
            </g>
          </g>
        </g>
        <g id="Group_12597" data-name="Group 12597" opacity="0.3">
          <g id="Group_12596" data-name="Group 12596">
            <g id="Group_12595" data-name="Group 12595" clip-path="url(#clip-path-5)">
              <path id="Path_10282" data-name="Path 10282" d="M64.547,50.839a8.956,8.956,0,0,1-.606,3.189C62.462,55.485,16.954,63.34,13.58,59.4c-.546-.635-3.092-3.494-3.806-5.525,2.969,4.722,11.733,7.483,31.09,4.26S63.44,53.74,64.547,50.839"/>
            </g>
          </g>
        </g>
        <g id="Group_12600" data-name="Group 12600" opacity="0.3">
          <g id="Group_12599" data-name="Group 12599">
            <g id="Group_12598" data-name="Group 12598" clip-path="url(#clip-path-6)">
              <path id="Path_10283" data-name="Path 10283" d="M3.806,18.676C3.727,20.494,20,36.927,29.931,40.282S59.043,12.912,63.958,9.294c0,0,.212.161.364,1.434S45.313,30.591,41.958,35.478s18.756,18.015,21.983,18.55c0,0-.684.546-1.154.462S45.035,44.842,39.873,37.3c0,0-3.884,4.407-6.468,4.883s-5.917-2.641-6.592-2.832c0,0-11.163,13.274-11.717,20.416,0,0,.073.559-.812-.533S25.82,39.571,25.785,39.3,9.365,27.015,3.806,18.676"/>
            </g>
          </g>
        </g>
        <g id="Group_12603" data-name="Group 12603" opacity="0.3">
          <g id="Group_12602" data-name="Group 12602">
            <g id="Group_12601" data-name="Group 12601" clip-path="url(#clip-path-7)">
              <path id="Path_10284" data-name="Path 10284" d="M28.321,39.649s3.968,4.171,5.565,3.964c2.94-.38,6.343-1.573,14.623-11.132C63.361,15.335,63.292,9.866,63.292,9.866s-4.893,6.207-12.8,15.563S36.163,39.174,34.326,40.041s-6.005-.392-6.005-.392"/>
            </g>
          </g>
        </g>
        <g id="Group_12606" data-name="Group 12606" opacity="0.3">
          <g id="Group_12605" data-name="Group 12605">
            <g id="Group_12604" data-name="Group 12604" clip-path="url(#clip-path-8)">
              <path id="Path_10285" data-name="Path 10285" d="M63.951,9.288c-.273-.06-8.685-.607-26.56,3.028C21.224,15.6,6.491,15.807,4.7,19.195s-.514,6.711.134,13.817c.62,6.778,4.55,19.61,4.915,20.776C2.2,34.435,2.77,19.3,3.806,18.676,11.213,14.24,61.887,7.05,63.951,9.288" fill="#fff"/>
            </g>
          </g>
        </g>
        <g id="Group_12609" data-name="Group 12609" opacity="0.3">
          <g id="Group_12608" data-name="Group 12608">
            <g id="Group_12607" data-name="Group 12607" clip-path="url(#clip-path-9)">
              <path id="Path_10286" data-name="Path 10286" d="M52.277,47.638a59.057,59.057,0,0,0,6.544,4.655c2.9,1.655,3.967,2.2,3.967,2.2s1.17.31,1.4-1.119-4.547-.695-11.915-5.733"/>
            </g>
          </g>
        </g>
        <path id="Path_10287" data-name="Path 10287" d="M41,38.76c-.972-.392,3.561,5.938,9.449,9.58a67.715,67.715,0,0,0,10.672,5.431S53.072,47.534,41,38.76" fill="#fff"/>
        <path id="Path_10288" data-name="Path 10288" d="M15.316,58.374s6.84-12.928,11.5-19.026c0,0-9.656,8.207-11.5,19.026" fill="#fff"/>
        <g id="Group_12612" data-name="Group 12612" opacity="0.3">
          <g id="Group_12611" data-name="Group 12611">
            <g id="Group_12610" data-name="Group 12610" clip-path="url(#clip-path-10)">
              <path id="Path_10289" data-name="Path 10289" d="M61.632,31.953c.656,11.906,3.228.139,3.589-6.817s-1.759-14.552-1.929-15.27-2.213,12.059-1.66,22.087" fill="#fff"/>
            </g>
          </g>
        </g>
        <g id="Group_12615" data-name="Group 12615" opacity="0.3">
          <g id="Group_12614" data-name="Group 12614">
            <g id="Group_12613" data-name="Group 12613" clip-path="url(#clip-path-11)">
              <path id="Path_10290" data-name="Path 10290" d="M33.211,40.311c-1.39,0,15.351-12.66,15.351-12.66s-9.173,10.633-15.351,12.66" fill="#fff"/>
            </g>
          </g>
        </g>
        <g id="Group_12618" data-name="Group 12618" opacity="0.3">
          <g id="Group_12617" data-name="Group 12617">
            <g id="Group_12616" data-name="Group 12616" clip-path="url(#clip-path-12)">
              <path id="Path_10291" data-name="Path 10291" d="M3.806,18.676s2.1,4.8,8.18,10.835S28.32,39.649,28.32,39.649,11.092,29.228,3.806,18.676"/>
            </g>
          </g>
        </g>
        <g id="Group_12621" data-name="Group 12621" opacity="0.3">
          <g id="Group_12620" data-name="Group 12620">
            <g id="Group_12619" data-name="Group 12619" clip-path="url(#clip-path-13)">
              <path id="Path_10292" data-name="Path 10292" d="M50.45,48.34c-3.533-1.206,2.13,3.583,4.74,5.347a7.024,7.024,0,0,0,6.018.748c.461-.2-6.584-2.936-10.758-6.1" fill="#fff"/>
            </g>
          </g>
        </g>
        <path id="Path_10293" data-name="Path 10293" d="M44.654,3.239s-.478-1.116-1.052-.67-7.08,5.868-7.08,5.868-.128,1.85-3.413,2.552c0,0-.446-.224,1.021-1.435S42.8,2.123,42.8,2.123s1.276-1.18,3.445-.032-1.6,1.148-1.6,1.148" fill="#063"/>
        <g id="Group_12624" data-name="Group 12624" opacity="0.3" style="mix-blend-mode: normal;isolation: isolate">
          <g id="Group_12623" data-name="Group 12623">
            <g id="Group_12622" data-name="Group 12622" clip-path="url(#clip-path-14)">
              <path id="Path_10294" data-name="Path 10294" d="M21.67,34.439l.861-1.691a2.248,2.248,0,0,1-.159-.5h0c0-.02-.006-.041-.01-.062-.006-.038-.013-.076-.018-.114s-.006-.08-.009-.12-.006-.063-.007-.094a91.514,91.514,0,0,1,13.3-16.871C41.577,9.177,44.5,6.862,46.385,5.53c-.079-.169-.378-.729-.757-.725a.455.455,0,0,0-.135.026l-.014.005a.421.421,0,0,0-.118.069l-.006,0c-.573.447-7.08,5.868-7.08,5.868v.006c-.01.109-.229,1.866-3.411,2.546,0,0-.446-.223,1.02-1.435s8.674-7.431,8.674-7.431S45.833,3.281,48,4.428a1.387,1.387,0,0,1,.344,0,1.873,1.873,0,0,1,.373.069,3.443,3.443,0,0,1,.4.132l1.768-1.771a.267.267,0,0,1,.08-.082.976.976,0,0,1,.475.078,4.047,4.047,0,0,1,1.342.9l.051.047c.826.78,1.03,1.254,1.048,1.523a.4.4,0,0,1-.054.259L52.071,7.339c.01.023.021.047.03.069s.017.043.025.064c.019.045.035.089.049.131.006.019.01.037.016.056.012.042.024.083.033.123a.405.405,0,0,1,.009.048c.008.039.015.077.02.114,0,.014,0,.026,0,.04,0,.036.007.072.007.1,0,.011,0,.02,0,.031,0,.034,0,.067,0,.1l0,.018a.828.828,0,0,1-.111.371c-1.246,1.87-2.776,4.38-10.3,12.112h0l-.253.26A90.839,90.839,0,0,1,27.081,32.788q-.432.284-.794.517h0c-.989.635-1.566.974-1.566.974h0c-.082-.012-.162-.029-.242-.048l-.041-.011c-.064-.016-.128-.034-.191-.054l-.064-.023c-.059-.02-.118-.041-.176-.065l-.025-.011c-.056-.023-.113-.048-.168-.075-.322.166-1.539.795-1.622.841a.492.492,0,0,1-.1.042.462.462,0,0,1-.063.011.537.537,0,0,1-.056.007l-.04,0a.489.489,0,0,1-.156-.029l.01-.008a.4.4,0,0,1-.069-.032c-.139-.128-.043-.383-.043-.383" fill="#231f20"/>
            </g>
          </g>
        </g>
        <path id="Path_10295" data-name="Path 10295" d="M50.393,6.269C49.132,8.16,47.588,10.7,39.837,18.643a91.571,91.571,0,0,1-16.871,13.3,3.208,3.208,0,0,1-1.658-.8,2.283,2.283,0,0,1-.734-1.626,91.514,91.514,0,0,1,13.3-16.871C41.814,4.9,44.366,3.367,46.247,2.091c0,0,1.18-.223,2.9,1.4s1.373,2.584,1.244,2.775" fill="#90bc1f"/>
        <path id="Path_10296" data-name="Path 10296" d="M20.8,30.368,19.917,32.1s-.1.255.042.383a.459.459,0,0,0,.479.01c.1-.053,1.7-.882,1.7-.882Z" fill="#c1c1c1"/>
        <path id="Path_10297" data-name="Path 10297" d="M24.535,30.967a.108.108,0,0,0-.068-.014c-.234.021-.893-.064-1.987-1.084-1.04-.971-1.015-1.718-1.01-1.79-.582.909-.893,1.439-.893,1.439a2.283,2.283,0,0,0,.734,1.626,3.208,3.208,0,0,0,1.658.8s.578-.339,1.566-.974" fill="#d9d700"/>
        <path id="Path_10298" data-name="Path 10298" d="M49.151,3.494c-1.722-1.626-2.9-1.4-2.9-1.4C44.386,3.355,41.862,4.872,34.1,12.427a6.361,6.361,0,0,0,2,3.41A11.123,11.123,0,0,0,40,18.388l.1-.008c7.525-7.731,9.054-10.241,10.3-12.111.127-.192.478-1.149-1.244-2.775" fill="#008836"/>
        <g id="Group_12627" data-name="Group 12627" opacity="0.46" style="mix-blend-mode: normal;isolation: isolate">
          <g id="Group_12626" data-name="Group 12626">
            <g id="Group_12625" data-name="Group 12625" clip-path="url(#clip-path-15)">
              <path id="Path_10299" data-name="Path 10299" d="M49.269,3.608A130.086,130.086,0,0,1,40.339,15.1c-4.55,5.06-18.327,16.5-18.327,16.5l.006.029a3.042,3.042,0,0,0,.951.31,91.527,91.527,0,0,0,16.87-13.3C47.589,10.7,49.134,8.159,50.4,6.267c.125-.185.461-1.1-1.126-2.659" fill="#063"/>
            </g>
          </g>
        </g>
        <g id="Group_12630" data-name="Group 12630" opacity="0.5" style="mix-blend-mode: normal;isolation: isolate">
          <g id="Group_12629" data-name="Group 12629">
            <g id="Group_12628" data-name="Group 12628" clip-path="url(#clip-path-16)">
              <path id="Path_10300" data-name="Path 10300" d="M46.44,2.792l.592-.615a1.907,1.907,0,0,0-.783-.087C44.367,3.366,41.816,4.9,33.875,12.647a91.527,91.527,0,0,0-13.3,16.87,1.974,1.974,0,0,0,.042.391C30.573,13.646,46.44,2.792,46.44,2.792" fill="#fff"/>
            </g>
          </g>
        </g>
        <path id="Path_10301" data-name="Path 10301" d="M50.393,6.269c.128-.191.478-1.148-1.244-2.776s-2.9-1.4-2.9-1.4-.957.7,1.244,2.775,2.9,1.4,2.9,1.4" fill="#3aa535"/>
        <path id="Path_10302" data-name="Path 10302" d="M50.074,5.665c.1-.153.271-.681-1.1-1.98A4.24,4.24,0,0,0,46.764,2.33s-.764.56.994,2.215,2.316,1.12,2.316,1.12" fill="#008836"/>
        <path id="Path_10303" data-name="Path 10303" d="M49.215.439S49.858.3,51.083,1.462s1.083,1.644.993,1.78L49.814,5.5s-.382.508-1.948-.968S46.954,2.7,46.954,2.7Z" fill="#c1c1c1"/>
        <path id="Path_10304" data-name="Path 10304" d="M52.075,3.241c.091-.136.234-.622-.994-1.78S49.214.438,49.214.438s-.656.358.911,1.834,1.95.969,1.95.969" fill="#e8e8e8"/>
        <path id="Path_10305" data-name="Path 10305" d="M43.6,2.569a.441.441,0,0,1,.273-.1.764.764,0,0,0-.56.038l-3.636,3L33.11,10.988c3.284-.7,3.412-2.551,3.412-2.551s6.506-5.422,7.08-5.868" fill="#024220"/>
        <path id="Path_10306" data-name="Path 10306" d="M20.157,31.629l-.24.472s-.1.255.042.382a.457.457,0,0,0,.479.011c.029-.016.2-.108.431-.225Z" fill="#2d2e80"/>
        <g id="Group_12633" data-name="Group 12633" opacity="0.46" style="mix-blend-mode: normal;isolation: isolate">
          <g id="Group_12632" data-name="Group 12632">
            <g id="Group_12631" data-name="Group 12631" clip-path="url(#clip-path-17)">
              <path id="Path_10307" data-name="Path 10307" d="M21.642,31.151l-1.624,1.373a.506.506,0,0,0,.42-.029c.1-.053,1.7-.882,1.7-.882Z" fill="#063"/>
            </g>
          </g>
        </g>
      </g>
    </g>
  </g>
</svg>
