<svg id="Icon_-_Link" data-name="Icon - Link" xmlns="http://www.w3.org/2000/svg" width="120" height="120" viewBox="0 0 120 120">
  <rect id="frame" width="120" height="120" fill="none"/>
  <g id="Icon" transform="translate(1111.966 3998.133)">
    <path id="Path_1517" data-name="Path 1517" d="M-1042.492-3925.079a4.74,4.74,0,0,0-6.7,0l-8.549,8.549a10.717,10.717,0,0,1-15.157,0,10.65,10.65,0,0,1-2.833-5.079,10.655,10.655,0,0,1,2.833-5.079l8.548-8.548c1.59-1.589,1.59-10.115,0-11.7a4.74,4.74,0,0,0-6.7,0l-19.479,19.479a4.741,4.741,0,0,0-1.389,3.352v5a4.741,4.741,0,0,0,1.389,3.352l21.862,21.862a4.723,4.723,0,0,0,3.351,1.388,4.725,4.725,0,0,0,3.352-1.388l19.48-19.48C-1040.9-3914.965-1040.9-3923.49-1042.492-3925.079Z" fill="rgba(0,0,0,0.3)"/>
    <path id="Path_1518" data-name="Path 1518" d="M-1013.314-3954.258l-21.861-21.861a4.739,4.739,0,0,0-6.7,0l-19.479,19.479c-1.59,1.589-1.59,10.114,0,11.7a4.739,4.739,0,0,0,6.7,0l8.549-8.549a10.719,10.719,0,0,1,15.157,0h0a10.663,10.663,0,0,1,2.832,5.079,10.663,10.663,0,0,1-2.832,5.079l-8.549,8.549c-1.59,1.589-1.59,10.114,0,11.7a4.723,4.723,0,0,0,3.352,1.389,4.726,4.726,0,0,0,3.352-1.389l19.479-19.479C-1011.725-3944.144-1011.725-3952.669-1013.314-3954.258Z" fill="rgba(0,0,0,0.3)"/>
    <path id="Path_1519" data-name="Path 1519" d="M-1035.918-3953.515a4.74,4.74,0,0,0-6.7,0l-25.311,25.31c-1.589,1.59-1.589,10.115,0,11.7a4.725,4.725,0,0,0,3.352,1.389,4.724,4.724,0,0,0,3.352-1.389l25.311-25.31C-1034.329-3943.4-1034.329-3951.926-1035.918-3953.515Z" fill="rgba(0,0,0,0.3)"/>
    <path id="Path_1520" data-name="Path 1520" d="M-1065.324-3897.508a4.725,4.725,0,0,1-3.351-1.388l-21.862-21.862a4.741,4.741,0,0,1-1.389-3.352,4.741,4.741,0,0,1,1.389-3.352l19.479-19.479a4.741,4.741,0,0,1,6.7,0,4.739,4.739,0,0,1,0,6.7l-8.548,8.548a10.718,10.718,0,0,0,0,15.158h0a10.717,10.717,0,0,0,15.157,0l8.549-8.549a4.74,4.74,0,0,1,6.7,0,4.74,4.74,0,0,1,0,6.7l-19.48,19.48A4.725,4.725,0,0,1-1065.324-3897.508Z"/>
    <path id="Path_1521" data-name="Path 1521" d="M-1036.145-3926.686a4.723,4.723,0,0,1-3.352-1.389,4.738,4.738,0,0,1,0-6.7l8.549-8.549a10.72,10.72,0,0,0,0-15.158h0a10.718,10.718,0,0,0-15.157,0l-8.549,8.549a4.74,4.74,0,0,1-6.7,0,4.741,4.741,0,0,1,0-6.7l19.48-19.478a4.74,4.74,0,0,1,6.7,0l21.86,21.861a4.739,4.739,0,0,1,0,6.7l-19.478,19.479A4.726,4.726,0,0,1-1036.145-3926.686Z"/>
    <path id="Path_1522" data-name="Path 1522" d="M-1064.581-3920.112a4.722,4.722,0,0,1-3.351-1.389,4.739,4.739,0,0,1,0-6.7l25.31-25.31a4.741,4.741,0,0,1,6.7,0,4.741,4.741,0,0,1,0,6.7l-25.311,25.31A4.722,4.722,0,0,1-1064.581-3920.112Z"/>
    <path id="Path_1523" data-name="Path 1523" d="M-1042.492-3930.079a4.74,4.74,0,0,0-6.7,0l-8.549,8.549a10.717,10.717,0,0,1-15.157,0,10.65,10.65,0,0,1-2.833-5.079,10.655,10.655,0,0,1,2.833-5.079l8.548-8.548c1.59-1.589,1.59-10.115,0-11.7a4.74,4.74,0,0,0-6.7,0l-19.479,19.479a4.741,4.741,0,0,0-1.389,3.352v5a4.741,4.741,0,0,0,1.389,3.352l21.862,21.862a4.723,4.723,0,0,0,3.351,1.388,4.725,4.725,0,0,0,3.352-1.388l19.48-19.48C-1040.9-3919.965-1040.9-3928.49-1042.492-3930.079Z" fill="#afafaf"/>
    <path id="Path_1524" data-name="Path 1524" d="M-1013.314-3959.258l-21.861-21.861a4.739,4.739,0,0,0-6.7,0l-19.479,19.479c-1.59,1.589-1.59,10.114,0,11.7a4.739,4.739,0,0,0,6.7,0l8.549-8.549a10.719,10.719,0,0,1,15.157,0h0a10.663,10.663,0,0,1,2.832,5.079,10.663,10.663,0,0,1-2.832,5.079l-8.549,8.549c-1.59,1.589-1.59,10.114,0,11.7a4.723,4.723,0,0,0,3.352,1.389,4.726,4.726,0,0,0,3.352-1.389l19.479-19.479C-1011.725-3949.144-1011.725-3957.669-1013.314-3959.258Z" fill="#afafaf"/>
    <path id="Path_1525" data-name="Path 1525" d="M-1035.918-3958.515a4.74,4.74,0,0,0-6.7,0l-25.311,25.31c-1.589,1.59-1.589,10.115,0,11.7a4.725,4.725,0,0,0,3.352,1.389,4.724,4.724,0,0,0,3.352-1.389l25.311-25.31C-1034.329-3948.4-1034.329-3956.926-1035.918-3958.515Z" fill="#afafaf"/>
    <path id="Path_1526" data-name="Path 1526" d="M-1065.324-3902.508a4.725,4.725,0,0,1-3.351-1.388l-21.862-21.862a4.741,4.741,0,0,1-1.389-3.352,4.741,4.741,0,0,1,1.389-3.352l19.479-19.479a4.741,4.741,0,0,1,6.7,0,4.739,4.739,0,0,1,0,6.7l-8.548,8.548a10.718,10.718,0,0,0,0,15.158h0a10.717,10.717,0,0,0,15.157,0l8.549-8.549a4.74,4.74,0,0,1,6.7,0,4.74,4.74,0,0,1,0,6.7l-19.48,19.48A4.725,4.725,0,0,1-1065.324-3902.508Z" fill="#fff"/>
    <path id="Path_1527" data-name="Path 1527" d="M-1036.145-3931.686a4.723,4.723,0,0,1-3.352-1.389,4.738,4.738,0,0,1,0-6.7l8.549-8.549a10.72,10.72,0,0,0,0-15.158h0a10.718,10.718,0,0,0-15.157,0l-8.549,8.549a4.74,4.74,0,0,1-6.7,0,4.741,4.741,0,0,1,0-6.7l19.48-19.478a4.74,4.74,0,0,1,6.7,0l21.86,21.861a4.739,4.739,0,0,1,0,6.7l-19.478,19.479A4.726,4.726,0,0,1-1036.145-3931.686Z" fill="#fff"/>
    <path id="Path_1528" data-name="Path 1528" d="M-1064.581-3925.112a4.722,4.722,0,0,1-3.351-1.389,4.739,4.739,0,0,1,0-6.7l25.31-25.31a4.741,4.741,0,0,1,6.7,0,4.741,4.741,0,0,1,0,6.7l-25.311,25.31A4.722,4.722,0,0,1-1064.581-3925.112Z" fill="#fff"/>
  </g>
</svg>
