<svg id="live" xmlns="http://www.w3.org/2000/svg" width="70" height="70" viewBox="0 0 70 70">
  <path id="Path_9698" data-name="Path 9698" d="M30.007,41.667a.921.921,0,0,1-1.3,1.3,22.017,22.017,0,1,1,31.137,0,.921.921,0,0,1-1.3-1.3,20.175,20.175,0,1,0-28.533,0" transform="translate(-9.273 -2.243)" fill="#f0f"/>
  <path id="Path_9699" data-name="Path 9699" d="M43.274,67a.917.917,0,1,1,.806-1.648l14.027,6.885a.917.917,0,0,1,.114,1.581h0L36.047,89.025a.919.919,0,0,1-1.036-1.518L55.889,73.189Z" transform="translate(-14.421 -27.19)" fill="#666"/>
  <path id="Path_9700" data-name="Path 9700" d="M58.823,65.5a.917.917,0,1,1,.806,1.648L47.014,73.336,67.892,87.655a.919.919,0,0,1-1.036,1.518L44.681,73.965v0a.917.917,0,0,1,.114-1.581Z" transform="translate(-18.451 -27.252)" fill="gray"/>
  <path id="Path_9701" data-name="Path 9701" d="M45.883,51.587a.92.92,0,0,1,1.727.633L36.392,82.636A.92.92,0,0,1,34.664,82Z" transform="translate(-14.42 -21.243)" fill="#999"/>
  <path id="Path_9702" data-name="Path 9702" d="M63.064,52.221a.92.92,0,1,1,1.727-.633L76.008,82a.92.92,0,0,1-1.727.633Z" transform="translate(-26.253 -21.243)" fill="#b3b3b3"/>
  <path id="Path_9703" data-name="Path 9703" d="M42.492,41.73a.921.921,0,0,1-1.3,1.3,13.234,13.234,0,1,1,18.716,0,.921.921,0,0,1-1.3-1.3,11.392,11.392,0,1,0-16.111,0" transform="translate(-15.547 -8.517)" fill="#f0f"/>
  <path id="Path_9704" data-name="Path 9704" d="M55.028,45.117a6.961,6.961,0,1,0-4.922-2.039,6.939,6.939,0,0,0,4.922,2.039" transform="translate(-20.028 -12.998)" fill="red" fill-rule="evenodd"/>
  <path id="Path_9705" data-name="Path 9705" d="M62.956,31.634a9.427,9.427,0,0,1,0,13.333l-.094.092a6.963,6.963,0,0,0,0-13.518l.094.093" transform="translate(-26.192 -13.142)" fill="#c1272d" fill-rule="evenodd"/>
  <rect id="frame" width="70" height="70" fill="none"/>
</svg>
