<svg id="locations" xmlns="http://www.w3.org/2000/svg" xmlns:xlink="http://www.w3.org/1999/xlink" width="70" height="70" viewBox="0 0 70 70">
  <defs>
    <clipPath id="clip-path">
      <rect id="Rectangle_3112" data-name="Rectangle 3112" width="70" height="70" fill="none"/>
    </clipPath>
    <clipPath id="clip-path-2">
      <rect id="Rectangle_3108" data-name="Rectangle 3108" width="60.706" height="55.135" transform="translate(5.807 13.385)" fill="none"/>
    </clipPath>
    <clipPath id="clip-path-3">
      <rect id="Rectangle_3109" data-name="Rectangle 3109" width="19.069" height="57.614" transform="translate(49.424 4.725)" fill="none"/>
    </clipPath>
    <clipPath id="clip-path-4">
      <rect id="Rectangle_3110" data-name="Rectangle 3110" width="18.354" height="59.445" transform="translate(20.318 4.298)" fill="none"/>
    </clipPath>
    <clipPath id="clip-path-5">
      <rect id="Rectangle_3111" data-name="Rectangle 3111" width="17" height="9.836" transform="translate(20.222 2.208)" fill="none"/>
    </clipPath>
  </defs>
  <g id="Group_7852" data-name="Group 7852">
    <g id="Group_7851" data-name="Group 7851" clip-path="url(#clip-path)">
      <g id="Group_7841" data-name="Group 7841" opacity="0.3">
        <g id="Group_7840" data-name="Group 7840">
          <g id="Group_7839" data-name="Group 7839" clip-path="url(#clip-path-2)">
            <path id="Path_5497" data-name="Path 5497" d="M66.513,14.744,51.687,25.108,38.087,15.3v0L23.345,22.854,5.807,13.385s9.872,13.188,12.137,47.56l9.9,7.575,11.529-6.269-.008-.3L48.4,67.492l.212-.14L58.856,60.6s-.689-18.577,7.657-45.852"/>
          </g>
        </g>
      </g>
      <path id="Path_5498" data-name="Path 5498" d="M70,1.567,52.9,13.518,37.222,2.21v0l-17,8.71L0,0S11.383,15.207,13.995,54.842l11.417,8.735,13.294-7.23L38.7,56l10.414,6.392.245-.162,11.814-7.79S60.376,33.018,70,1.567" fill="#fff"/>
      <path id="Path_5499" data-name="Path 5499" d="M61.171,55.564l-11.816,7.79-.244.162L38.58,57.052,25.413,64.7,13.995,55.966C11.384,16.331,0,1.125,0,1.125L20.222,12.043l17-8.709L52.9,14.642,70,2.692c-9.624,31.45-8.829,52.872-8.829,52.872" fill="#ffe6c2"/>
      <path id="Path_5500" data-name="Path 5500" d="M20.222,12.044,25.413,64.7l13.294-7.23L37.222,3.333Z" fill="#f4d7a8"/>
      <path id="Path_5501" data-name="Path 5501" d="M61.171,55.564l-11.816,7.79L52.9,14.642,70,2.692c-9.624,31.45-8.829,52.872-8.829,52.872" fill="#f4d7a8"/>
      <path id="Path_5502" data-name="Path 5502" d="M68.493,4.725a196.514,196.514,0,0,0-4.9,19.653c-.231,1.19-.444,2.355-.642,3.487q-.38,2.187-.681,4.231c-.086.582-.172,1.156-.25,1.721-.932,6.723-1.323,12.131-1.486,15.878q-.033.723-.05,1.358c-.046,1.345-.058,2.406-.059,3.17,0,.36,0,.65,0,.872l-.526.34-10.474,6.9-.33.222L38.672,56.185l-.111-.066L25.408,63.743l-.089-.069L14.7,55.561q-.389-5.8-.973-10.921c-.012-.1-.023-.193-.034-.291-.048-.422-.1-.84-.147-1.253-.261-2.17-.55-4.246-.852-6.228-.076-.479-.148-.954-.224-1.421q-.84-5.058-1.815-9.3C7.819,14.023,4.344,6.726,2.315,3.219l17.939,9.755.064-.032,4.9-2.537,2.9-1.493,1.8-.922,4.617-2.355L37.163,4.3l.089.062,1.387.969,1.151.812,3.257,2.321s.927.665.927.665l1.081.779.2.147,7.571,5.574.052.043Z" fill="#f4d7a8"/>
      <path id="Path_5503" data-name="Path 5503" d="M61.368,39.014c-.625,5.707-.844,10.127-.913,12.965-.038,1.485-.038,2.537-.031,3.116l-.137.093L49.424,62.34l-.329.222L38.672,56.185l-.111-.066L25.408,63.743l-.089-.069L14.707,55.566c-.015-.1-.02-.205-.027-.3q-.2-2.873-.439-5.568-.234-2.6-.515-5.053a4.52,4.52,0,0,1,2.282.71c1.791,1.132,2.961,3.138,4.036,5.054a2.884,2.884,0,0,1,3.88-.888A3.974,3.974,0,0,1,25.7,53.381a5.286,5.286,0,0,1,5.147-4.187,4.745,4.745,0,0,1,1.028.146,5.967,5.967,0,0,1-.722-1.205,6.318,6.318,0,0,1,.6-6.387,5.152,5.152,0,0,1,6.957-.755,3.967,3.967,0,0,1,4.961.019,4.832,4.832,0,0,1,1.649,3.442,5.067,5.067,0,0,1,1.894-2.691,4.482,4.482,0,0,1,4.634-.273c1.228-4.4,5.518-7.3,9.808-7.65.122-.01.243-.021.364-.022-.257,1.834-.47,3.568-.65,5.2" fill="#9dc95f"/>
      <path id="Path_5504" data-name="Path 5504" d="M61.773,38.99c-.209,1.5-.391,2.934-.546,4.3-.382,3.326-.62,6.245-.773,8.69-.076,1.181-.132,2.254-.168,3.209L49.423,62.34l-.329.221-8.667-5.319-1.756-1.057-.111-.066L25.408,63.744l-.09-.069-10.612-8.11c-.012-.1-.02-.2-.027-.3q-.256-2.882-.561-5.576a1.043,1.043,0,0,1,.123.008,4.448,4.448,0,0,1,2.128.708c1.768,1.137,2.925,3.147,3.987,5.066a2.816,2.816,0,0,1,3.827-.878,4.007,4.007,0,0,1,1.753,3.868,5.106,5.106,0,0,1,6.089-4.025,6.735,6.735,0,0,1-1.18-5.239,6.08,6.08,0,0,1,.307-1.059A4.96,4.96,0,0,1,31.9,46.84a5.03,5.03,0,0,1,6.864-.737,3.873,3.873,0,0,1,4.9.032,4.873,4.873,0,0,1,1.627,3.445,5.053,5.053,0,0,1,1.869-2.686,4.377,4.377,0,0,1,4.573-.26,10.96,10.96,0,0,1,9.637-7.619c.016,0,.031,0,.047,0,.12-.01.239-.019.359-.021" fill="#86ad49"/>
      <path id="Path_5505" data-name="Path 5505" d="M68.493,4.725A195.934,195.934,0,0,0,62.268,32.1a15.933,15.933,0,0,0-5.705,1.812,4.461,4.461,0,0,1-2.832.89c-1.821-.367-2.238-2.938-3.489-4.412-2.445-2.838-7.53-1.1-10.022-3.933-1.671-1.873-1.438-4.994-3.176-6.82-2.483-2.579-7.222-1.014-9.779-3.556-1.226-1.2-1.588-3-1.885-4.68-.059-.329-.111-.658-.162-.992l4.7-2.415L37.163,4.3l.089.062L39.79,6.141l4.184,2.986,8.854,6.5.052.043Z" fill="#f2a35c"/>
      <path id="Path_5506" data-name="Path 5506" d="M68.493,4.725a196.514,196.514,0,0,0-4.9,19.653c-.231,1.19-.444,2.355-.642,3.487a16.344,16.344,0,0,0-3.865,1.481,4.566,4.566,0,0,1-2.87.9c-1.84-.362-2.247-2.935-3.505-4.409C50.253,23,45.1,24.752,42.6,21.922c-1.68-1.872-1.425-5-3.172-6.821-2.494-2.576-7.3-1-9.865-3.536a5.808,5.808,0,0,1-1.441-2.653l1.8-.922,4.617-2.355L37.163,4.3l.089.062L39.79,6.141l3.257,2.321a4.658,4.658,0,0,1,1.84,1.144,3.735,3.735,0,0,1,.37.447l7.571,5.574.052.043Z" fill="#db8946"/>
      <path id="Path_5507" data-name="Path 5507" d="M39.79,6.141l3.257,2.321c-2.606-.942-6.08-.365-8.111-2.371a4.741,4.741,0,0,1-.4-.456L37.163,4.3l.088.062Z" fill="#bf7137"/>
      <path id="Path_5508" data-name="Path 5508" d="M68.493,4.725a196.514,196.514,0,0,0-4.9,19.653,3.08,3.08,0,0,1-1.878.364c-1.862-.357-2.242-2.937-3.5-4.411-2.454-2.836-7.7-1.062-10.2-3.893-1.549-1.725-1.411-4.529-2.755-6.385l7.571,5.574.052.043Z" fill="#bf7137"/>
      <path id="Path_5509" data-name="Path 5509" d="M31.483,15.436a6.6,6.6,0,0,1-2.422,4.106,4.489,4.489,0,0,1-4.6.457,3.623,3.623,0,0,1,.128,5.343c-1.521,1.205-4.183.451-5.08-1.439.3,1.324.556,2.86-.264,3.822-.971,1.143-2.981.7-4.09-.479a9.213,9.213,0,0,1-1.92-4.4,3.4,3.4,0,0,1-2.58,3.3C10.139,23.9,9.6,21.821,9.053,19.9A82.913,82.913,0,0,0,3.545,5.474c-.451-.878-.862-1.626-1.23-2.255l.358.187,17.581,9.568.065-.032L29.4,8.26l.522-.27a10.518,10.518,0,0,1,1.565,7.446" fill="#9dc95f"/>
      <path id="Path_5510" data-name="Path 5510" d="M29.4,8.26a8.553,8.553,0,0,1-.149,1.252,6.558,6.558,0,0,1-2.438,4.109,4.616,4.616,0,0,1-4.666.472,3.581,3.581,0,0,1,.152,5.335,3.623,3.623,0,0,1-5.161-1.421c.311,1.321.577,2.855-.252,3.818-.98,1.144-3.022.713-4.151-.465a9.146,9.146,0,0,1-1.967-4.386A3.271,3.271,0,0,1,9.053,19.9,82.979,82.979,0,0,0,3.545,5.474c-.3-.731-.587-1.418-.873-2.067l17.582,9.568.064-.033Z" fill="#86ad49"/>
      <path id="Path_5511" data-name="Path 5511" d="M60.454,51.979c-.076,1.181-.132,2.253-.168,3.208L49.423,62.339l-.329.222-8.667-5.32A3.306,3.306,0,0,1,42,54.824a2.549,2.549,0,0,1,3.488,1.533,2.434,2.434,0,0,1,2.082-3.172c1.4-.028,2.618,1.182,3.237,2.591a4.47,4.47,0,0,1,.887-4.685,3.38,3.38,0,0,1,4.278-.363,4.182,4.182,0,0,1,.181-4.017,7.242,7.242,0,0,1,2.987-2.645,8.457,8.457,0,0,1,2.087-.778c-.382,3.327-.621,6.245-.773,8.691" fill="#698434"/>
      <path id="Path_5512" data-name="Path 5512" d="M60.424,55.1l-.525.34-.282-.328a5.872,5.872,0,0,0-4.175-2.077,4.808,4.808,0,0,0-1.375.154c-.254.068-.52.156-.8.247a6.7,6.7,0,0,1-2.328.475,3.244,3.244,0,0,1-1.114-.231c-1.418-.56-2.4-2.081-2.911-4.511l-.1-.473a5.99,5.99,0,0,0-1.139-3c-.723-.71-1.848-.747-3.154-.794a7.725,7.725,0,0,1-4.112-.935,8.882,8.882,0,0,1-2.588-3.032c-.288-.466-.561-.9-.856-1.29a6.546,6.546,0,0,0-1.891-1.637c-.572-.058-1.129-.166-1.672-.273a11.934,11.934,0,0,0-1.881-.264,3.151,3.151,0,0,0-1.055.138c-1.213.4-1.979,1.717-2.786,3.117a9.2,9.2,0,0,1-3.273,3.862,6.015,6.015,0,0,1-3.074.632,16.925,16.925,0,0,1-2.12-.224c-1.233-.2-2.388-.411-3.52-.644-.048-.422-.1-.84-.147-1.254-.261-2.17-.549-4.246-.852-6.227-.076-.48-.148-.954-.224-1.421l.64.324a13.671,13.671,0,0,0,2.776,1.1,8.485,8.485,0,0,0,1.953.28,5.335,5.335,0,0,0,4.237-1.614,10.305,10.305,0,0,0,1.107-1.677,9.3,9.3,0,0,1,1.943-2.575c1.851-1.559,4.219-1.526,6.512-1.5,1.952.025,3.793.045,5.075-.947,1-.774,1.677-2.213,2-4.275a38.082,38.082,0,0,0-.06-9.256,41.665,41.665,0,0,1-.106-9.355l.09-.621,1.151.812,3.256,2.32s.928.666.928.666l1.081.779a37.777,37.777,0,0,0-.676,8.85c0,.474,0,.948,0,1.417-.019,3.571-.182,7.687-1.854,11.348a12.289,12.289,0,0,1-3.905,4.887c.048.126.1.251.147.376.159.406.31.79.483,1.134A5.308,5.308,0,0,0,42.9,40.79a11.488,11.488,0,0,0,1.335.148,5.649,5.649,0,0,1,3.978,1.39,6.741,6.741,0,0,1,1.5,3.748,6.827,6.827,0,0,0,.624,2.207,3.441,3.441,0,0,0,2.9,1.342c.158.005.315.005.469,0,.585-.029,1.172-.113,1.79-.2a15.336,15.336,0,0,1,2.668-.226c.191.006.379.015.569.037a5.911,5.911,0,0,1,1.788.462q-.031.723-.05,1.358c-.046,1.346-.057,2.407-.059,3.17,0,.361,0,.651,0,.873" fill="#8bc7ef"/>
      <path id="Path_5513" data-name="Path 5513" d="M60.482,51.053a4.848,4.848,0,0,0-1.864-.57c-1.617-.169-3.234.316-4.857.39a4.629,4.629,0,0,1-4.348-1.9c-1.046-1.721-.593-4.317-1.976-5.74-1.2-1.232-3.087-.9-4.708-1.214a6.557,6.557,0,0,1-4.492-3.539c-.418-.831-.689-1.764-1.118-2.578a10.665,10.665,0,0,0,4.343-4.935c1.5-3.308,1.7-7.114,1.708-10.807s-.151-7.453.8-11.016c0-.017-4.179-3-4.179-3-.877,6.109,1.11,12.528.1,18.653a7.81,7.81,0,0,1-2.462,5.053c-3.193,2.482-8.472-.155-11.536,2.415-1.284,1.089-1.831,2.886-2.943,4.148-1.727,1.969-4.646,2.337-7.242,1.648a15.206,15.206,0,0,1-3.018-1.19c.3,1.982.591,4.058.852,6.228,1.24.261,2.48.484,3.72.68a7.261,7.261,0,0,0,4.564-.305c2.738-1.475,3.221-6.063,6.232-7.047,1.673-.549,3.509.245,5.292.366a7.848,7.848,0,0,1,2.49,2.092c1.037,1.364,1.721,3.127,3.115,4.015,2.264,1.455,5.527-.033,7.468,1.876,1.027,1.018,1.269,2.644,1.581,4.119s.906,3.1,2.18,3.607c1.172.465,2.422-.215,3.629-.534a6.625,6.625,0,0,1,6.607,2.258c0-.763.013-1.825.059-3.17" fill="#69aae0"/>
      <g id="Group_7844" data-name="Group 7844" style="mix-blend-mode: multiply;isolation: isolate">
        <g id="Group_7843" data-name="Group 7843">
          <g id="Group_7842" data-name="Group 7842" clip-path="url(#clip-path-3)">
            <path id="Path_5514" data-name="Path 5514" d="M60.424,55.1l-11,7.244,3.4-46.712.052.042L68.493,4.726C60.461,32.1,60.382,51.7,60.424,55.1" fill="#ddb98a"/>
          </g>
        </g>
      </g>
      <g id="Group_7847" data-name="Group 7847" style="mix-blend-mode: multiply;isolation: isolate">
        <g id="Group_7846" data-name="Group 7846">
          <g id="Group_7845" data-name="Group 7845" clip-path="url(#clip-path-4)">
            <path id="Path_5515" data-name="Path 5515" d="M38.672,56.185l-.111-.066L25.409,63.744l-.09-.069-5-50.733L37.162,4.3l.089.063Z" fill="#ddb98a"/>
          </g>
        </g>
      </g>
      <path id="Path_5516" data-name="Path 5516" d="M45.535,32.936c-.134-.2-.363-.547-.676-1.013l.318-.238c.313.466.543.811.677,1.013ZM21.483,31.788a2.821,2.821,0,0,1-.865-.157l.1-.389a2.388,2.388,0,0,0,1.063.119l.073.409a2.52,2.52,0,0,1-.367.018m1.506-.406-.2-.367a9.982,9.982,0,0,0,.948-.6l.236.344a10.2,10.2,0,0,1-.982.624m-3.482-.37a6.83,6.83,0,0,1-.926-.88l.279-.264a6.271,6.271,0,0,0,.864.82Zm24.67-.1-.687-1.007.317-.24.688,1.007ZM24.89,30.05l-.256-.328c.287-.237.575-.488.864-.75l.269.318c-.293.266-.586.521-.877.76M17.8,29.131c-.227-.325-.456-.685-.683-1.068l.334-.192c.22.375.443.724.662,1.037Zm25-.228-.7-1,.317-.242.7,1Zm-16.18-.41-.278-.309c.275-.265.552-.538.828-.812l.282.306c-.278.276-.555.549-.832.815M16.506,26.956c-.185-.359-.371-.74-.553-1.132l.357-.15c.179.387.361.762.543,1.114Zm11.767-.106-.284-.3.825-.829.283.3ZM41.4,26.9l-.708-1L41,25.659l.709,1ZM29.929,25.2l-.28-.307c.286-.278.571-.55.855-.812l.273.313c-.281.259-.564.53-.848.806m-14.483-.524c-.166-.392-.323-.782-.47-1.162l.371-.122c.145.377.3.761.464,1.149Zm24.527.23-.72-.993.317-.246.711.983Zm-8.322-1.289-.262-.323c.329-.28.633-.523.929-.743l.243.338c-.289.215-.587.454-.91.728m6.878-.695a4.58,4.58,0,0,0-.8-.853l.243-.324a5.078,5.078,0,0,1,.871.929Zm-23.991-.581c-.15-.417-.286-.813-.409-1.179l.381-.1c.121.363.256.757.4,1.169Zm18.984-.1-.212-.357a7.623,7.623,0,0,1,1.081-.546l.156.387a7.344,7.344,0,0,0-1.025.516m3.219-.7a2.789,2.789,0,0,0-1.1-.095l-.054-.411a3.164,3.164,0,0,1,1.261.109ZM13.748,19.973c-.23-.744-.352-1.2-.352-1.2l.391-.073s.121.454.346,1.187Z" fill="#966559"/>
      <path id="Path_5517" data-name="Path 5517" d="M13.11,14.476c-.883-.007-1.526.931-1.436,2.095A2.119,2.119,0,0,0,13.421,18.7c.874.01,1.517-.928,1.436-2.1a2.1,2.1,0,0,0-1.747-2.126m.244,3.313a1.2,1.2,0,0,1-.995-1.211c-.051-.664.316-1.2.818-1.194a1.2,1.2,0,0,1,.995,1.211c.048.665-.319,1.2-.818,1.194" fill="#d84012"/>
      <path id="Path_5518" data-name="Path 5518" d="M46.9,32.074a1.97,1.97,0,0,0-1.821,2.115,2.033,2.033,0,0,0,1.78,2.186A1.98,1.98,0,0,0,48.68,34.26a2.015,2.015,0,0,0-1.78-2.186m-.032,3.376A1.156,1.156,0,0,1,45.854,34.2,1.122,1.122,0,0,1,46.891,33a1.149,1.149,0,0,1,1.015,1.245,1.128,1.128,0,0,1-1.038,1.205" fill="#d84012"/>
      <path id="Path_5519" data-name="Path 5519" d="M0,0V1.125l1.1.594S.588.347,0,0" fill="#fff"/>
      <path id="Path_5520" data-name="Path 5520" d="M70,1.567V2.692l-.754.527Z" fill="#fff"/>
      <g id="Group_7850" data-name="Group 7850" opacity="0.5" style="mix-blend-mode: multiply;isolation: isolate">
        <g id="Group_7849" data-name="Group 7849">
          <g id="Group_7848" data-name="Group 7848" clip-path="url(#clip-path-5)">
            <path id="Path_5521" data-name="Path 5521" d="M20.222,12.044V10.919l17-8.711V3.333Z" fill="#ddb98a"/>
          </g>
        </g>
      </g>
      <path id="Path_5522" data-name="Path 5522" d="M52.9,14.643V13.518L70,1.567V2.692Z" fill="#ddb98a"/>
    </g>
  </g>
  <rect id="frame" width="70" height="70" fill="none"/>
</svg>
