<svg id="maji" xmlns="http://www.w3.org/2000/svg" width="119.897" height="119.898" viewBox="0 0 119.897 119.898">
  <path id="Path_3612" data-name="Path 3612" d="M1949.387,1428.458c3.491-8.811.781-11.782-1.439-12.784l-.13-.075c.531-2.142,2.7-8.281,10.941-14.841a43.318,43.318,0,0,1,7.349-4.917c-5.548-11.193-11.657-10.371-11.657-10.371s-2.613,4.763-5.747,9.452-15.754,17.514-15.754,17.514a29.479,29.479,0,0,0,1.27,9.7c1.583,5.029-.6,13.056-.6,13.056l2.877,2.333,8.243.718A93.853,93.853,0,0,0,1949.387,1428.458Z" transform="translate(-1925.209 -1384.597)" fill="#281a7f"/>
  <path id="Path_3613" data-name="Path 3613" d="M1948.7,1414.215l-.724-5.57s-.112-.417-.253-.492.142.3.169.922.358,5.982.358,5.982Z" transform="translate(-1925.209 -1384.597)" fill="#545dcf"/>
  <path id="Path_3614" data-name="Path 3614" d="M1934.22,1422.134c1.583,5.029-.6,13.056-.6,13.056l2.877,2.333,6.964.607.989-3.737q-.5-.357-1.009-.713a9.273,9.273,0,0,1-.919-.638c-.218-.2-.189-.312-.117-.6a.594.594,0,0,0-.408-.692c-.429-.114-.857.232-1.276.034a2.582,2.582,0,0,1-.934-1.189,17.447,17.447,0,0,1-.826-1.964,36.287,36.287,0,0,0-1.627-4.164c-1.133-2.187-4.383-12.033-4.383-12.033A29.479,29.479,0,0,0,1934.22,1422.134Z" transform="translate(-1925.209 -1384.597)" fill="#9657d3"/>
  <path id="Path_3615" data-name="Path 3615" d="M1940.635,1443.732s-5.066,2.561-5.591,3.209-2.97,4.3-2.781,6.821,1.144,5.451,1.208,6.449-1.161,2.412-2.758.014-4.687-9.8-4.017-16.42c0,0,6.357-7.65,11.456-8.615" transform="translate(-1925.209 -1384.597)" fill="#e9d6f6"/>
  <path id="Path_3616" data-name="Path 3616" d="M1938.152,1435.19a7.469,7.469,0,0,0-.924.242,6.888,6.888,0,0,1-.338,6.13c-1.794,2.885-5.235,7.233-4.406,10.388a16.808,16.808,0,0,1,2.56-5.009c.525-.648,5.591-3.209,5.591-3.209Z" transform="translate(-1925.209 -1384.597)" fill="#846db4"/>
  <path id="Path_3617" data-name="Path 3617" d="M1942.107,1443.242l0,0c2.257-4.477,4.938-8.876,7.278-14.782a24.627,24.627,0,0,0,1.48-5.106c.69-2.219.319-4.8.1-7.192-.029-.314-.059-.63-.088-.946a2.53,2.53,0,0,0-3.064.385,6.242,6.242,0,0,0,0,2.677c.253,2.108.524,7.9.524,7.9l-5.894,8.156-4.163-.271a13.094,13.094,0,0,0,1.61,10.048A3,3,0,0,0,1942.107,1443.242Z" transform="translate(-1925.209 -1384.597)" fill="#3c28af"/>
  <path id="Path_3618" data-name="Path 3618" d="M1966.4,1461.543s20.706,31.174,28.231,32.774c0,0,14.986-1.353,27.62-14.872s13.415-27.508,13.415-27.508l-55.152-16.747Z" transform="translate(-1925.209 -1384.597)" fill="#1e1263"/>
  <path id="Path_3619" data-name="Path 3619" d="M1957.578,1477.6l11.428,14.676s7.75,4.374,23.118,2.419v-4.839l-11.389-36.824h-22.409Z" transform="translate(-1925.209 -1384.597)" fill="#261777"/>
  <path id="Path_3620" data-name="Path 3620" d="M1976.11,1494.485l.659-1s-1.705-7.693-1.5-9.775l.793-8.114-8.485-12.315s-7.064,6.426-9.828,8.772l-.169,5.549,11.428,14.676A24.874,24.874,0,0,0,1976.11,1494.485Z" transform="translate(-1925.209 -1384.597)" fill="#1e1263"/>
  <path id="Path_3621" data-name="Path 3621" d="M2025.766,1454.5s3.46,10.921,3.46,12.462-2.379,4.25-2.379,4.25l-4.541-2.439a86.748,86.748,0,0,0-6.693,5.971c-5.827,5.431-4.337,13.386-4.337,13.386.019.041.053.073.076.113a49.817,49.817,0,0,0,10.9-8.8c10.179-10.891,12.662-22.083,13.244-26.023Z" transform="translate(-1925.209 -1384.597)" fill="#261777"/>
  <path id="Path_3622" data-name="Path 3622" d="M1947.948,1415.674c2.22,1,4.93,3.973,1.439,12.784-5.263,13.282-12.255,18.942-12.255,35.018s18.383,38.135,21.05,39.433,10.381.288,11.318,0,5.645-4.18,8.654-6.918,2.448-5.7,2.448-5.7c-2.163-6.993-8.291-6.92-8.291-6.92s2.524,3.244,1.588,4.181a6.067,6.067,0,0,1-3.029,1.153c2.883,1.73,2.667,3.965,2.667,3.965-2.595,1.874-8.867,2.433-8.867,2.433l-1.731-1.617-1.02-2.85-2.079-7.662s-2.667-4.578,4.316-14.152,11.207-7.495,11.207-7.495l1.957-5.326-.551-6.008,7.186-5.45s.4.548.455-2.244,2.1-4.778,4.034-6.58,9.573-9.93,9.573-9.93l-1.426-.248a12.948,12.948,0,0,0,1.426-2.221c.113-.505-3.43-5.551-3.43-5.551s1.082-8.8.577-10.309-5.767-10.237-5.767-10.237c-14.5-5.6-20.4-4.613-30.638,3.533-8.244,6.56-10.41,12.7-10.941,14.841Z" transform="translate(-1925.209 -1384.597)" fill="#3c28af"/>
  <path id="Path_3623" data-name="Path 3623" d="M1984.385,1442.978l1.3-.4a11.333,11.333,0,0,0,4.313,8.248c4.3,3.352,10.138,1.73,19.87,12,0,0,1.406-10.269,6.164-15.894,0,0-3.569,8.352-1.3,14.61,0,0,7.786-4.2,13.193-4.595a27.527,27.527,0,0,1,8.867.616s1.926-1.887,1.5-6.963,1.562-8.549,5.6-11.895c0,0,2.739-8.752-10.562-32.109,0,0-11.018-15.575-15.89-18.331,0,0-7.353,1.894-10.059,4.057s-7.806,8.487-9.87,8.857-5.236.371-5.6.731.36,4.9.36,4.9v11.607l-2.28,7.127-5.246,11.111-2.2,5.155Z" transform="translate(-1925.209 -1384.597)" fill="#3c28af"/>
  <path id="Path_3624" data-name="Path 3624" d="M2043.9,1438.706s2.739-8.752-10.562-32.109c0,0-.723-1.022-1.877-2.585a99.883,99.883,0,0,1,2.058,13.831c.36,6.56-4.254,20.978-4.254,20.978l-12.9,6.16a42.712,42.712,0,0,1-13.913,6.956c-7.568,1.942-15.346-4.508-15.349-4.51a11.091,11.091,0,0,0,2.9,3.4c4.3,3.352,10.138,1.73,19.87,12,0,0,1.406-10.269,6.164-15.894,0,0-3.568,8.352-1.3,14.61,0,0,7.786-4.2,13.193-4.595a27.527,27.527,0,0,1,8.867.616s1.926-1.887,1.5-6.963S2039.861,1442.052,2043.9,1438.706Z" transform="translate(-1925.209 -1384.597)" fill="#7b43c5"/>
  <path id="Path_3625" data-name="Path 3625" d="M2017.445,1388.266s-.219.057-.572.155c0,0,7.56,8.588,8.424,9.669s2.307,2.884,9.156,14.418,6.56,25.376,6.56,25.376-3.676,6.776-3.421,10.309a70.352,70.352,0,0,1,0,7.81l.195-.245a12.337,12.337,0,0,0,.512-5.157c-.422-5.075,1.562-8.549,5.6-11.895,0,0,2.739-8.752-10.562-32.109C2033.335,1406.6,2022.317,1391.021,2017.445,1388.266Z" transform="translate(-1925.209 -1384.597)" fill="#b193d1"/>
  <path id="Path_3626" data-name="Path 3626" d="M1962.022,1465.217c2.171-4.241,9.809-10.2,11.2-9.075a6.424,6.424,0,0,0,3.545,1.131h0l0,.005-.1.292-1.3,3.758c-5.321-2.033-14.135,9.9-15.608,16.33-.653,2.853.213,6.727,1.379,10.155a41.374,41.374,0,0,0,1.8,5.674C1952.725,1481.634,1959.852,1469.459,1962.022,1465.217Z" transform="translate(-1925.209 -1384.597)" fill="#281a7f"/>
  <path id="Path_3627" data-name="Path 3627" d="M1988.444,1435.721c1.931-1.8,9.573-9.93,9.573-9.93l-1.426-.248a12.948,12.948,0,0,0,1.426-2.221c.113-.505-3.43-5.551-3.43-5.551s1.082-8.8.577-10.309-5.767-10.237-5.767-10.237c-2.5-.966-4.743-1.731-6.8-2.3.423.682,3.013,1.934,3.544,2.4a10.23,10.23,0,0,1,3.332,5.849c1.049,5.785-3.678,13.307-4.46,14.594s-8,5.115-9.7,6.319-.715,4.506.03,5.587a49.4,49.4,0,0,1,3.551,9.02c.078,1.119-.262,2.647.014,2.7a26.423,26.423,0,0,1,2.376,1.369h.224l1.609-.008,1.175,1.209a12.875,12.875,0,0,0,.116-1.656C1984.469,1439.509,1986.513,1437.523,1988.444,1435.721Z" transform="translate(-1925.209 -1384.597)" fill="#281a7f"/>
  <path id="Path_3628" data-name="Path 3628" d="M1975.415,1429.585a9.077,9.077,0,0,1-.844-1.99,3.371,3.371,0,0,1,.007-2.491c.831-1.477,5.917-4.185,5.917-4.185s2.252-1.469,3.045-.684a4.47,4.47,0,0,1,.869,2.482c.047.162-1.79,4.479-2.94,5.459a9.708,9.708,0,0,1-1.905,1.017l-2.08,1.058a2.543,2.543,0,0,0-.813.557.865.865,0,0,0-.173.92,7.554,7.554,0,0,0-.866-1.769C1975.557,1429.834,1975.485,1429.71,1975.415,1429.585Z" transform="translate(-1925.209 -1384.597)" fill="#201b3e"/>
  <path id="Path_3629" data-name="Path 3629" d="M1976.062,1429.457a3.74,3.74,0,0,1,2.451-3.344,8.471,8.471,0,0,0,2.424-.852.819.819,0,0,1,.207-.135.217.217,0,0,1,.231.04.286.286,0,0,1,.051.092l.221.536a5.055,5.055,0,0,1,.257.729,3.607,3.607,0,0,1,.088.767,2.972,2.972,0,0,1-.72,2.217,3.817,3.817,0,0,1-1.079.665,15.641,15.641,0,0,1-1.857.781,2.945,2.945,0,0,1-.921.17,1.319,1.319,0,0,1-.868-.3A1.776,1.776,0,0,1,1976.062,1429.457Z" transform="translate(-1925.209 -1384.597)" fill="#3c28af"/>
  <path id="Path_3630" data-name="Path 3630" d="M1976.637,1428.394a3.675,3.675,0,0,1,.633-1.019,4.3,4.3,0,0,1,2.707-1.173,1.232,1.232,0,0,1,.883.128,1.275,1.275,0,0,1,.4.8,2.794,2.794,0,0,1-.28,2.441,2.93,2.93,0,0,1-1.47.735l-1.022.285a2.992,2.992,0,0,1-.8.146C1976.29,1430.731,1976.2,1429.4,1976.637,1428.394Z" transform="translate(-1925.209 -1384.597)" fill="#bbb3ee"/>
  <path id="Path_3631" data-name="Path 3631" d="M1976.637,1428.393a2.213,2.213,0,0,0-.112,1.66,1.118,1.118,0,0,0,1.088.175,1.772,1.772,0,0,0,1.127-1.028,3.189,3.189,0,0,0,.2-1.55,1.039,1.039,0,0,0-.285-.731.815.815,0,0,0-.318-.151,1.244,1.244,0,0,0-.191-.031,3.081,3.081,0,0,0-.88.638A3.685,3.685,0,0,0,1976.637,1428.393Z" transform="translate(-1925.209 -1384.597)" fill="#120f36"/>
  <path id="Path_3632" data-name="Path 3632" d="M1978.383,1427.674a.332.332,0,0,0,.223.039,6.494,6.494,0,0,1,1.758.15.808.808,0,0,0,.374.026.254.254,0,0,0,.2-.275.365.365,0,0,0-.156-.188c-.408-.311-.973-.937-1.547-.819C1978.974,1426.662,1978.019,1427.4,1978.383,1427.674Z" transform="translate(-1925.209 -1384.597)" fill="#fff"/>
  <path id="Path_3633" data-name="Path 3633" d="M1977.454,1427.7a.242.242,0,0,0-.12.3.261.261,0,0,0,.282.159.287.287,0,0,0,.228-.236.267.267,0,0,0-.1-.256.219.219,0,0,0-.269.015" transform="translate(-1925.209 -1384.597)" fill="#fff"/>
  <path id="Path_3634" data-name="Path 3634" d="M2000.517,1431.151s-3.974.695-4.434.8-5.326,1.081-5.326,1.081,1.6-3.866,1.785-4.677.513-2.595.513-2.595,8.164.811,10.922-1.136,3.379-3.784,3.406-4.244-.135-.027-.324.352a7.385,7.385,0,0,1-5.434,4.4,30.03,30.03,0,0,1-8.435.193s-.432-.2-.675.563-2.515,6.736-2.515,7.331,4.65-.405,5.894-.676S2000.706,1431.618,2000.517,1431.151Z" transform="translate(-1925.209 -1384.597)" fill="#545ecf"/>
  <path id="Path_3635" data-name="Path 3635" d="M1996.434,1411.625s.387,4.319,2.434,6.11a7.946,7.946,0,0,0,5.433,1.811s.352-.27,0-.27-3.8-.108-5.608-2.379a9.634,9.634,0,0,1-1.745-5.515S1996.624,1410.841,1996.434,1411.625Z" transform="translate(-1925.209 -1384.597)" fill="#545ecf"/>
  <path id="Path_3636" data-name="Path 3636" d="M1974.222,1454.753a8.293,8.293,0,0,1-.252-3.352l1.477.9s-.288-8.92,7.642-8.191l-2.354-2.3h1.816l3.277,3.127.369.8-.711,3.712-7.125,7.494-.66.436-1.1-.937s-.216-1.189-.721-1.334S1974.222,1454.753,1974.222,1454.753Z" transform="translate(-1925.209 -1384.597)" fill="#281a7f"/>
  <path id="Path_3637" data-name="Path 3637" d="M1985.125,1448.11v-.927a3.258,3.258,0,0,0-2.4-.865,6.121,6.121,0,0,0-5.308,4.326c-1.108,3.316,1.091,4.181,1.091,4.181l.409,1.766-1.219.613-.932-.721s.445-1.586-2.547-1.73c0,0,.033.216.449.288s1.924.036,1.728,1.622a7.394,7.394,0,0,0,1.3.9,10.3,10.3,0,0,0,1.495-.793l-.433-2.306a2.678,2.678,0,0,1-1.343-1.586c-.274-1.081,1.055-4.29,2.569-5.047S1985.125,1448.11,1985.125,1448.11Z" transform="translate(-1925.209 -1384.597)" fill="#545ecf"/>
  <path id="Path_3638" data-name="Path 3638" d="M1984.322,1447.009s-6.625-1.172-7.084,5.657c0,0,1.325,3.822,1.427,4.485s.866,5.606-1.427,7.492-7.492,5.5-7.746,5.656-2.6,2.345,0,2.5,9.559-1.172,12.246-2.65a43.713,43.713,0,0,0,6.61-4.587C1988.6,1465.2,1988.661,1452.057,1984.322,1447.009Z" transform="translate(-1925.209 -1384.597)" fill="#e9d6f6"/>
  <path id="Path_3639" data-name="Path 3639" d="M1986.6,1466.963a14.967,14.967,0,0,0,1.746-1.4c.255-.357.313-13.5-4.026-18.551,0,0-5.738-1.012-6.9,4.356a5.419,5.419,0,0,1,4.912-.687c4.437,1.156,4.9,12.69,4.793,13.506C1987.072,1464.6,1986.827,1465.853,1986.6,1466.963Z" transform="translate(-1925.209 -1384.597)" fill="#846db3"/>
  <path id="Path_3640" data-name="Path 3640" d="M1981.431,1440.768l4.494,4.551a14.11,14.11,0,0,1-.529,3.234l.291.559a12.867,12.867,0,0,0,.79-3.659C1986.418,1444.113,1981.431,1440.768,1981.431,1440.768Z" transform="translate(-1925.209 -1384.597)" fill="#545ecf"/>
  <path id="Path_3641" data-name="Path 3641" d="M1980.34,1443.749a4.983,4.983,0,0,0-2.4,1.151c-.07.063-.2.123-.241.04a4,4,0,0,1,1.285-.962,6.282,6.282,0,0,1,2.148-.71,3.7,3.7,0,0,1,2.194.4,5.1,5.1,0,0,1-1.305-.029A7.137,7.137,0,0,0,1980.34,1443.749Z" transform="translate(-1925.209 -1384.597)" fill="#545ecf"/>
  <path id="Path_3642" data-name="Path 3642" d="M1981.482,1442.907a3.045,3.045,0,0,1,1.054.207c.048-.056-.029-.133-.1-.165a3.944,3.944,0,0,0-2.867-.188,1.393,1.393,0,0,0-.653.353,2.512,2.512,0,0,0,.892-.125A7.776,7.776,0,0,1,1981.482,1442.907Z" transform="translate(-1925.209 -1384.597)" fill="#545ecf"/>
  <path id="Path_3643" data-name="Path 3643" d="M1948.755,1419.209a6.937,6.937,0,0,1,0-1.692c.057-.339.218-.723.555-.8a.668.668,0,0,1,.615.238,1.874,1.874,0,0,1,.324.606,13.983,13.983,0,0,1,.887,3.4,7.571,7.571,0,0,1-.365,3.472c-.146.39-.61.947-1.023.509a3.934,3.934,0,0,1-.514-1.709A33.2,33.2,0,0,1,1948.755,1419.209Z" transform="translate(-1925.209 -1384.597)" fill="#201b3e"/>
  <path id="Path_3644" data-name="Path 3644" d="M1949.405,1422.454a4.921,4.921,0,0,1,.352-1.911c.053-.125.132-.262.265-.286.155-.028.287.109.371.242a4.1,4.1,0,0,1,.47,1.547l.111.68a3.436,3.436,0,0,1,.067.72,1.164,1.164,0,0,1-.229.674.965.965,0,0,1-.642.336c-.168.021-.473.037-.585-.12a.886.886,0,0,1-.072-.372c-.02-.164-.039-.328-.055-.492A9.879,9.879,0,0,1,1949.405,1422.454Z" transform="translate(-1925.209 -1384.597)" fill="#3c28af"/>
  <path id="Path_3645" data-name="Path 3645" d="M1949.575,1424.258a9.077,9.077,0,0,1,.026-2.089,1.462,1.462,0,0,1,.217-.765.3.3,0,0,1,.325-.137.35.35,0,0,1,.134.125,4.26,4.26,0,0,1,.629,1.1,3.632,3.632,0,0,1,.1,1.835,7.723,7.723,0,0,1-.282,1.076,2.072,2.072,0,0,1-.177.512c-.132.189-.074.181-.259.024A2.865,2.865,0,0,1,1949.575,1424.258Z" transform="translate(-1925.209 -1384.597)" fill="#bab2ee"/>
  <path id="Path_3646" data-name="Path 3646" d="M1950.63,1421.917a.535.535,0,0,0-.221.134.994.994,0,0,0-.225.37,3.491,3.491,0,0,0-.09,2.315c.073.235.209.494.451.535a.411.411,0,0,0,.227-.03,7.322,7.322,0,0,0,.233-.91,3.643,3.643,0,0,0-.1-1.835A3.339,3.339,0,0,0,1950.63,1421.917Z" transform="translate(-1925.209 -1384.597)" fill="#120f36"/>
  <path id="Path_3647" data-name="Path 3647" d="M1950.422,1423.072a2.38,2.38,0,0,0-.037.82.208.208,0,0,0,.072.159.148.148,0,0,0,.179-.032.39.39,0,0,0,.086-.175,1.265,1.265,0,0,0,.007-.765.263.263,0,0,0-.08-.125C1950.55,1422.877,1950.443,1422.974,1950.422,1423.072Z" transform="translate(-1925.209 -1384.597)" fill="#fff"/>
  <path id="Path_3648" data-name="Path 3648" d="M1949.986,1422.018a.386.386,0,0,0-.069.2.189.189,0,0,0,.1.174.175.175,0,0,0,.18-.03.256.256,0,0,0,.083-.169.184.184,0,0,0-.032-.139.193.193,0,0,0-.211-.037" transform="translate(-1925.209 -1384.597)" fill="#fff"/>
  <path id="Path_3649" data-name="Path 3649" d="M1985.55,1407.217a2.47,2.47,0,0,0-1.039.077l-.79-1.352a1.31,1.31,0,0,0,.922-1.867,2.241,2.241,0,0,0-2.077-1.075,2.293,2.293,0,0,1-.544-.021,1.829,1.829,0,0,1-.914-.73,19.675,19.675,0,0,0-3.489-3.316,6.052,6.052,0,0,0-2.267-1.1,14.654,14.654,0,0,0-2.339-.181,1.073,1.073,0,0,0-.362-.869.743.743,0,0,0-.9-.034.572.572,0,0,0-.033.851,7.124,7.124,0,0,1-1.823.1,1.157,1.157,0,0,1-1.069-.228c-.1-.1-.176-.227-.285-.32a.885.885,0,0,0-.731-.161,2.109,2.109,0,0,0-.7.308.706.706,0,0,0-.32.319c-.052.167.116.307.078.443-.072.256-.328.252-.569.318q-1.083.3-2.135.693a39.017,39.017,0,0,0-10.143,6.081,33.233,33.233,0,0,0-2.781,3.432c-.837,2.281-.5,4.978-.264,7.58.216,2.392.587,4.973-.1,7.192a24.627,24.627,0,0,1-1.48,5.106c-5.263,13.282-12.255,18.942-12.255,35.018a26.79,26.79,0,0,0,.69,5.76c.061.026.124.05.184.077.885.4,1.684.977,2.579,1.356,2.448,1.035,5.3.464,7.719-.629,5.429-2.45,9.4-7.233,13.018-11.962a40.229,40.229,0,0,0,3.585-5.274c.4-.74,2.332-2.379,2.233-3.046a2.3,2.3,0,0,0-.468-.813c-.354-.558.334-1.487.48-2.07.229-.911.435-1.818.7-2.712.152-.524.2-2.11.708-2.353a4,4,0,0,1,.471-.1c.358-.122.468-.567.511-.943a.769.769,0,0,0-.027-.4c-.078-.176-.269-.267-.429-.375-1.535-1.038-.77-5.831-.855-7.44a2.772,2.772,0,0,1,.182-1.437.95.95,0,0,1,1.222-.481c.246-1.937.346-4.07,1.346-5.763a16.716,16.716,0,0,1,3.888-4.151c2.2-1.8,4.635-3.289,6.851-5.067.531-.426,1.23-1.341,1.845-1.587a1.911,1.911,0,0,1,.879-.052,2.847,2.847,0,0,0,1.081-.066,1.139,1.139,0,0,0,.773-.706.725.725,0,0,0-.415-.89c-.2-.062-.432-.019-.609-.131a.538.538,0,0,1-.19-.572c.148-.657-.046-1.528.546-2.008.247-.2.584-.268.823-.478a1.119,1.119,0,0,0-.155-1.632A1.549,1.549,0,0,0,1985.55,1407.217Z" transform="translate(-1925.209 -1384.597)" fill="#905fcc"/>
  <path id="Path_3650" data-name="Path 3650" d="M1997.615,1472.809s-.505,7.392.793,11.14,3.343,8.7,3.343,8.7l.91-.405-3.028-6.849s-1.642-4.325-1.614-6.632S1998.264,1472.842,1997.615,1472.809Z" transform="translate(-1925.209 -1384.597)" fill="#6d30a7"/>
  <path id="Path_3651" data-name="Path 3651" d="M1984.193,1485.548c6.843,6.9,8.912,8.444,10.438,8.769a35.273,35.273,0,0,0,7.12-1.672l-.718-1.811-7.924-2.7Z" transform="translate(-1925.209 -1384.597)" fill="#6c499f"/>
  <path id="Path_3652" data-name="Path 3652" d="M1994.631,1494.317s-6.61-4.5-9.506-7.887c-1.223-1.428-3.328-4.062-5.354-6.628-2.772-3.513-5.393-6.9-5.393-6.9a76.4,76.4,0,0,0,5.295,7.767c2.839,3.569,7.285,8.867,9.868,11.03a25.683,25.683,0,0,0,3.842,2.824Z" transform="translate(-1925.209 -1384.597)" fill="#6d30a7"/>
  <path id="Path_3653" data-name="Path 3653" d="M1970.808,1417.239a6.765,6.765,0,0,0-3.072-4.468,9.242,9.242,0,0,0-11.846,1.992,8.529,8.529,0,0,0-1.5,8.694,7.352,7.352,0,0,0,4.851,4.254,9.514,9.514,0,0,0,6.517-.636,8.547,8.547,0,0,0,4.659-4.953,11.253,11.253,0,0,0,.426-2.542A9.845,9.845,0,0,0,1970.808,1417.239Zm-9.786-4.226a8.323,8.323,0,0,1,4.975.649c-.144.865-1.154,5.19-4.182,4.686S1961.022,1413.013,1961.022,1413.013Zm-5.478,4.686a7.475,7.475,0,0,1,4.109-4.181,20.371,20.371,0,0,0-.577,3.46,3.019,3.019,0,0,0,1.018,2.018,3.822,3.822,0,0,0-1.811.938c-.865.793-1.658,4.109-1.658,4.109A6.845,6.845,0,0,1,1955.544,1417.7Zm6.632,8.434a5.94,5.94,0,0,1-4.758-1.225s1.225-5.047,3.893-5.335S1962.176,1426.133,1962.176,1426.133Zm6.776-4.974c-1.369,4.181-5.84,5.062-5.84,5.062s2.236-4.431.506-6.657c0,0,3.1-.568,3.748-4.965A6.026,6.026,0,0,1,1968.952,1421.159Z" transform="translate(-1925.209 -1384.597)" fill="#fdfcfc"/>
  <path id="Path_3654" data-name="Path 3654" d="M1961.346,1431.611a38.429,38.429,0,0,0-5.407-1.234,11.147,11.147,0,0,0-4.325.629s-.288.344.288.2a11.328,11.328,0,0,1,4-.541c1.658.181,4.83.946,4.83.946S1961.166,1431.763,1961.346,1431.611Z" transform="translate(-1925.209 -1384.597)" fill="#6d30a7"/>
  <path id="Path_3655" data-name="Path 3655" d="M1945.667,1436.469a19.308,19.308,0,0,1,7.929-1.442,17.7,17.7,0,0,1,7.75,2.271s-.036.18-.432,0a24.471,24.471,0,0,0-7.408-1.983c-3.514-.252-8.056,1.478-8.056,1.478Z" transform="translate(-1925.209 -1384.597)" fill="#6d30a7"/>
  <path id="Path_3656" data-name="Path 3656" d="M1940.665,1446.354a43.737,43.737,0,0,1,9.444-1.154c4.433.072,10.525,2.559,10.525,2.559s.072.253-.829,0a37.613,37.613,0,0,0-9.768-2.306,28.583,28.583,0,0,0-9.624,1.3Z" transform="translate(-1925.209 -1384.597)" fill="#6d30a7"/>
  <path id="Path_3657" data-name="Path 3657" d="M1937.7,1461.7a41.846,41.846,0,0,0,8.362,1.226,70.576,70.576,0,0,0,8.543-.4s.468-.108-.289.18a42.979,42.979,0,0,1-8.65.541C1943.72,1463.034,1937.881,1462.277,1937.7,1461.7Z" transform="translate(-1925.209 -1384.597)" fill="#4537b5"/>
  <path id="Path_3658" data-name="Path 3658" d="M1951.78,1411.693a.678.678,0,0,0-.388.558.543.543,0,0,0,.328.444,1.233,1.233,0,0,0,.569.088.878.878,0,0,0,.5-.134.585.585,0,0,0,.119-.756A.841.841,0,0,0,1951.78,1411.693Z" transform="translate(-1925.209 -1384.597)" fill="none"/>
  <path id="Path_3659" data-name="Path 3659" d="M1953.775,1413.436c-.145,0-.289-.04-.433-.028s-.3.112-.3.257a.264.264,0,0,0,.137.211.661.661,0,0,0,.251.073.8.8,0,0,0,.364-.013.327.327,0,0,0,.231-.26.209.209,0,0,0-.221-.228" transform="translate(-1925.209 -1384.597)" fill="#3c28af"/>
  <path id="Path_3660" data-name="Path 3660" d="M1958.89,1402.1a.91.91,0,0,0-.038.825.713.713,0,0,0,.139.2.737.737,0,0,0,.468.2.656.656,0,0,0,.342-.057.794.794,0,0,0,.34-.414,1.106,1.106,0,0,0,.077-.759C1960.007,1401.445,1959.18,1401.6,1958.89,1402.1Z" transform="translate(-1925.209 -1384.597)" fill="#3c28af"/>
  <path id="Path_3661" data-name="Path 3661" d="M1963.925,1402.2c.27-.56-.74-.429-.968-.339-.14.055-.291.15-.307.3-.019.181.172.314.349.355a1.011,1.011,0,0,0,.669-.08A.541.541,0,0,0,1963.925,1402.2Z" transform="translate(-1925.209 -1384.597)" fill="#3c28af"/>
  <path id="Path_3662" data-name="Path 3662" d="M1964.225,1400.018c.116-.587-.722-.562-1.015-.316a.4.4,0,0,0-.116.492.481.481,0,0,0,.3.178.874.874,0,0,0,.5,0A.5.5,0,0,0,1964.225,1400.018Z" transform="translate(-1925.209 -1384.597)" fill="#3c28af"/>
  <path id="Path_3663" data-name="Path 3663" d="M1966.132,1399.455a2.363,2.363,0,0,0-.62.463.807.807,0,0,0-.2.719.414.414,0,0,0,.15.23.591.591,0,0,0,.308.078,2.207,2.207,0,0,0,.8-.086,1.165,1.165,0,0,0,.636-.473.794.794,0,0,0,.045-.772A.78.78,0,0,0,1966.132,1399.455Z" transform="translate(-1925.209 -1384.597)" fill="#3c28af"/>
  <path id="Path_3664" data-name="Path 3664" d="M1969.718,1399a.505.505,0,0,0,.23.4.931.931,0,0,0,.432.136c.206.022.459-.013.544-.2a.359.359,0,0,0-.051-.349.726.726,0,0,0-.292-.22C1970.289,1398.625,1969.711,1398.474,1969.718,1399Z" transform="translate(-1925.209 -1384.597)" fill="#3c28af"/>
  <path id="Path_3665" data-name="Path 3665" d="M1970.554,1401.15c.21-.129.254-.38.048-.5a.934.934,0,0,0-.735.074.313.313,0,0,0-.168.338.3.3,0,0,0,.216.191.738.738,0,0,0,.3,0A.871.871,0,0,0,1970.554,1401.15Z" transform="translate(-1925.209 -1384.597)" fill="#3c28af"/>
  <path id="Path_3666" data-name="Path 3666" d="M1972.684,1398.527a1.454,1.454,0,0,0-.4.639,1.023,1.023,0,0,0-.052.829.715.715,0,0,0,.529.344,1.659,1.659,0,0,0,.649-.056,1.242,1.242,0,0,0,.748-.416,1.017,1.017,0,0,0-1.469-1.34Z" transform="translate(-1925.209 -1384.597)" fill="#3c28af"/>
  <path id="Path_3667" data-name="Path 3667" d="M1975.971,1400.466a1.239,1.239,0,0,0-.114.549.424.424,0,0,0,.04.226.344.344,0,0,0,.13.118.641.641,0,0,0,.754-.107.855.855,0,0,0,.17-.272.772.772,0,0,0,.024-.622C1976.763,1399.916,1976.154,1400.111,1975.971,1400.466Z" transform="translate(-1925.209 -1384.597)" fill="#3c28af"/>
  <path id="Path_3668" data-name="Path 3668" d="M1977.733,1405.277a.546.546,0,0,0,.1.449.7.7,0,0,0,.569.173.617.617,0,0,0,.45-.171.677.677,0,0,0,.046-.607.632.632,0,0,0-.164-.328.663.663,0,0,0-.358-.122.788.788,0,0,0-.256-.005C1977.883,1404.714,1977.769,1405.07,1977.733,1405.277Z" transform="translate(-1925.209 -1384.597)" fill="#3c28af"/>
  <path id="Path_3669" data-name="Path 3669" d="M1979.365,1402.7a1.249,1.249,0,0,0,.421.863.852.852,0,0,0,.308.253.588.588,0,0,0,.413-.011.934.934,0,0,0,.594-.8.975.975,0,0,0-.474-.882A.8.8,0,0,0,1979.365,1402.7Z" transform="translate(-1925.209 -1384.597)" fill="#3c28af"/>
  <path id="Path_3670" data-name="Path 3670" d="M1981.944,1405.149c-.255-.29-1.122-.019-.991.431a.37.37,0,0,0,.213.215.707.707,0,0,0,.435.05.553.553,0,0,0,.375-.257A.389.389,0,0,0,1981.944,1405.149Z" transform="translate(-1925.209 -1384.597)" fill="#3c28af"/>
  <path id="Path_3671" data-name="Path 3671" d="M1983,1409.078a.741.741,0,0,0-.449.64,1.034,1.034,0,0,0,.373.654,3.734,3.734,0,0,0,.345.312.988.988,0,0,0,.885.248.957.957,0,0,0,.524-.57,2.163,2.163,0,0,0,.158-.6.758.758,0,0,0-.015-.311.853.853,0,0,0-.392-.42A1.6,1.6,0,0,0,1983,1409.078Z" transform="translate(-1925.209 -1384.597)" fill="#3c28af"/>
  <path id="Path_3672" data-name="Path 3672" d="M1984.223,1406.873c-.206-.307-.941-.383-1.026.072a.458.458,0,0,0,.213.415.734.734,0,0,0,.438.167.461.461,0,0,0,.4-.214A.427.427,0,0,0,1984.223,1406.873Z" transform="translate(-1925.209 -1384.597)" fill="#3c28af"/>
  <path id="Path_3673" data-name="Path 3673" d="M1980.277,1414.414a1.147,1.147,0,0,0-.294.492.693.693,0,0,0-.044.262.568.568,0,0,0,.505.466,1.585,1.585,0,0,0,.725-.122.848.848,0,0,0,.321-.167.566.566,0,0,0,.02-.7A.808.808,0,0,0,1980.277,1414.414Z" transform="translate(-1925.209 -1384.597)" fill="#3c28af"/>
  <path id="Path_3674" data-name="Path 3674" d="M1982.855,1414.364c.078-.351-.453-.536-.635-.25a.342.342,0,0,0,.227.507A.355.355,0,0,0,1982.855,1414.364Z" transform="translate(-1925.209 -1384.597)" fill="#3c28af"/>
  <path id="Path_3675" data-name="Path 3675" d="M1983.375,1416.556c.377.026.77.29.5.661a.538.538,0,0,1-.47.163c-.228-.009-.5-.1-.553-.32C1982.759,1416.677,1983.061,1416.534,1983.375,1416.556Z" transform="translate(-1925.209 -1384.597)" fill="#6437bc"/>
  <path id="Path_3676" data-name="Path 3676" d="M1986.919,1405.17a.669.669,0,0,0-.349.534.647.647,0,0,0,.233.588.919.919,0,0,0,.192.1,1.019,1.019,0,0,0,.916.027.65.65,0,0,0,.272-.629A.939.939,0,0,0,1986.919,1405.17Z" transform="translate(-1925.209 -1384.597)" fill="#8050c5"/>
  <path id="Path_3677" data-name="Path 3677" d="M1988.214,1410.459c.381-.383-.551-.546-.78-.471-.157.051-.315.2-.262.357a.353.353,0,0,0,.272.189,1.629,1.629,0,0,0,.366.048A.547.547,0,0,0,1988.214,1410.459Z" transform="translate(-1925.209 -1384.597)" fill="#6437bc"/>
  <path id="Path_3678" data-name="Path 3678" d="M1984.185,1400.668a1.047,1.047,0,0,0-.546-.024.364.364,0,0,0-.263.422c.05.149.215.22.363.274a2.09,2.09,0,0,0,.614.154.358.358,0,0,0,.209-.041.3.3,0,0,0,.109-.3A.6.6,0,0,0,1984.185,1400.668Z" transform="translate(-1925.209 -1384.597)" fill="none"/>
  <path id="Path_3679" data-name="Path 3679" d="M1982.707,1398.473a.4.4,0,1,0-.727.351.4.4,0,0,0,.727-.351Z" transform="translate(-1925.209 -1384.597)" fill="none"/>
  <path id="Path_3680" data-name="Path 3680" d="M1979.007,1398.43a1.156,1.156,0,0,0,.824.218.422.422,0,0,0,.288-.169.366.366,0,0,0-.038-.4.754.754,0,0,0-.35-.236c-.234-.089-.712-.219-.932-.03C1978.548,1398.027,1978.8,1398.3,1979.007,1398.43Z" transform="translate(-1925.209 -1384.597)" fill="none"/>
  <path id="Path_3681" data-name="Path 3681" d="M1975.471,1396.617a.449.449,0,0,0,.434-.049.382.382,0,0,0,.1-.288.71.71,0,0,0-.249-.523.742.742,0,0,0-.556-.168c-.263.03-.538.257-.438.541C1974.848,1396.371,1975.25,1396.552,1975.471,1396.617Z" transform="translate(-1925.209 -1384.597)" fill="none"/>
  <path id="Path_3682" data-name="Path 3682" d="M1969.812,1396.2a.3.3,0,0,0,.237-.065.244.244,0,0,0,.062-.181c-.009-.315-.635-.826-.9-.532C1968.893,1395.76,1969.527,1396.175,1969.812,1396.2Z" transform="translate(-1925.209 -1384.597)" fill="#6437bc"/>
  <path id="Path_3683" data-name="Path 3683" d="M1964.988,1397.54c-.4-.409-1.123,0-1.357.378a.278.278,0,0,0-.054.157c.005.119.133.191.247.226a1.6,1.6,0,0,0,.948-.008.589.589,0,0,0,.258-.147A.458.458,0,0,0,1964.988,1397.54Z" transform="translate(-1925.209 -1384.597)" fill="none"/>
  <path id="Path_3684" data-name="Path 3684" d="M1961.749,1399.364c.3.133.026.44-.209.479a1.856,1.856,0,0,1-.371.025.224.224,0,0,1-.186-.073.2.2,0,0,1,.052-.23.8.8,0,0,1,.662-.22Z" transform="translate(-1925.209 -1384.597)" fill="none"/>
  <path id="Path_3685" data-name="Path 3685" d="M1933.988,1417.137a.388.388,0,0,0-.361.23.7.7,0,0,0-.1.5.373.373,0,0,0,.7.129.716.716,0,0,0,.095-.4c0-.2-.1-.444-.3-.469" transform="translate(-1925.209 -1384.597)" fill="#3c28af"/>
  <path id="Path_3686" data-name="Path 3686" d="M1934.006,1419.7a.578.578,0,0,0,.633.19.416.416,0,0,0,.17-.108.463.463,0,0,0,.041-.476.8.8,0,0,0-.233-.317C1934.125,1418.577,1933.679,1419.267,1934.006,1419.7Z" transform="translate(-1925.209 -1384.597)" fill="#3c28af"/>
  <path id="Path_3687" data-name="Path 3687" d="M1936.34,1423.2c-.021-.655-.922-.247-.755.128a.4.4,0,0,0,.258.176.476.476,0,0,0,.3.034A.339.339,0,0,0,1936.34,1423.2Z" transform="translate(-1925.209 -1384.597)" fill="#3c28af"/>
  <path id="Path_3688" data-name="Path 3688" d="M1935.712,1424.317a.886.886,0,0,0-.164,0,.465.465,0,0,0-.372.456.529.529,0,0,0,.365.477.617.617,0,0,0,.594-.147c.132-.127.3-.446.2-.634C1936.228,1424.256,1935.929,1424.325,1935.712,1424.317Z" transform="translate(-1925.209 -1384.597)" fill="#3c28af"/>
  <path id="Path_3689" data-name="Path 3689" d="M1936.371,1426.787a.5.5,0,0,0,.683.412.268.268,0,0,0,.122-.09.322.322,0,0,0,0-.278c-.059-.183-.234-.661-.473-.676C1936.45,1426.138,1936.351,1426.595,1936.371,1426.787Z" transform="translate(-1925.209 -1384.597)" fill="#3c28af"/>
  <path id="Path_3690" data-name="Path 3690" d="M1937.223,1430.648a.892.892,0,0,0,.024.831.5.5,0,0,0,.159.177.6.6,0,0,0,.158.065,1.277,1.277,0,0,0,.98-.063.7.7,0,0,0,.319-.859,1.108,1.108,0,0,0-.385-.381C1938.026,1430.1,1937.51,1430.074,1937.223,1430.648Z" transform="translate(-1925.209 -1384.597)" fill="#3c28af"/>
  <path id="Path_3691" data-name="Path 3691" d="M1939.933,1432.043a.632.632,0,0,0-.57.261.271.271,0,0,0-.051.249c.042.1.167.133.276.146a2.4,2.4,0,0,0,.406.013c.161-.009.353-.061.4-.216a.317.317,0,0,0-.095-.29.572.572,0,0,0-.361-.174" transform="translate(-1925.209 -1384.597)" fill="#3c28af"/>
  <path id="Path_3692" data-name="Path 3692" d="M1939.718,1433.3c-.136,0-.267-.046-.4-.055a.358.358,0,0,0-.35.156.3.3,0,0,0,.1.353.675.675,0,0,0,.372.124,1.968,1.968,0,0,0,.454-.011.29.29,0,0,0,.106-.032c.1-.066.078-.229,0-.322s-.193-.151-.268-.247" transform="translate(-1925.209 -1384.597)" fill="#3c28af"/>
  <path id="Path_3693" data-name="Path 3693" d="M1934.481,1413.026a.582.582,0,0,0,.54.338.423.423,0,0,0,.253-.087.464.464,0,0,0,.134-.2.63.63,0,0,0-.144-.656A.506.506,0,0,0,1934.481,1413.026Z" transform="translate(-1925.209 -1384.597)" fill="#9859d5"/>
  <path id="Path_3694" data-name="Path 3694" d="M1934.655,1415.223a.894.894,0,0,0,.31.465.662.662,0,0,0,.3.161.558.558,0,0,0,.583-.416,1.4,1.4,0,0,0-.045-.772C1935.513,1413.614,1934.5,1414.51,1934.655,1415.223Z" transform="translate(-1925.209 -1384.597)" fill="#8f52d0"/>
  <path id="Path_3695" data-name="Path 3695" d="M1936.907,1415.325a.912.912,0,0,0-.488.2.462.462,0,0,0-.15.48.436.436,0,0,0,.441.266.644.644,0,0,0,.459-.276.537.537,0,0,0,.114-.418.309.309,0,0,0-.32-.249" transform="translate(-1925.209 -1384.597)" fill="#8a4ecd"/>
  <path id="Path_3696" data-name="Path 3696" d="M1937.137,1419.59a.718.718,0,0,0,.361-.219,1.124,1.124,0,0,0,.267-.35c.227-.515-.444-.878-.831-.57C1936.583,1418.73,1936.466,1419.695,1937.137,1419.59Z" transform="translate(-1925.209 -1384.597)" fill="#7f46c8"/>
  <path id="Path_3697" data-name="Path 3697" d="M1936.233,1420.379a.655.655,0,0,0,.081.534.482.482,0,0,0,.485.2.385.385,0,0,0,.3-.412.528.528,0,0,0-.25-.332.46.46,0,0,0-.571-.026" transform="translate(-1925.209 -1384.597)" fill="#7e45c7"/>
  <path id="Path_3698" data-name="Path 3698" d="M1937.968,1421.188a1.412,1.412,0,0,0-.293.743,1.146,1.146,0,0,0,.067.654.677.677,0,0,0,.423.355.629.629,0,0,0,.541-.1,1.084,1.084,0,0,0,.3-.938C1938.978,1421.308,1938.614,1420.444,1937.968,1421.188Z" transform="translate(-1925.209 -1384.597)" fill="#7740c3"/>
  <path id="Path_3699" data-name="Path 3699" d="M1941.617,1421.7a.4.4,0,0,0-.1.6.471.471,0,0,0,.628.042.332.332,0,0,0-.034-.56.685.685,0,0,0-.449-.095" transform="translate(-1925.209 -1384.597)" fill="#6b39be"/>
  <path id="Path_3700" data-name="Path 3700" d="M1939.754,1425.335a.529.529,0,0,0,.342.645.686.686,0,0,0,.5-.161,3.183,3.183,0,0,0,.477-.405.609.609,0,0,0,.224-.564c-.068-.216-.323-.3-.546-.338A.951.951,0,0,0,1939.754,1425.335Z" transform="translate(-1925.209 -1384.597)" fill="#6c39be"/>
  <path id="Path_3701" data-name="Path 3701" d="M1944.121,1426.26c.234-.577-.818-.6-1.079-.3a.387.387,0,0,0,.048.567.567.567,0,0,0,.27.06,1.239,1.239,0,0,0,.437-.045A.522.522,0,0,0,1944.121,1426.26Z" transform="translate(-1925.209 -1384.597)" fill="#5e2eb6"/>
  <path id="Path_3702" data-name="Path 3702" d="M1940.282,1428.217a.314.314,0,0,1,.353.03.4.4,0,0,1,.142.335.457.457,0,0,1-.3.408.407.407,0,0,1-.466-.179.366.366,0,0,1,.119-.475C1940.27,1428.248,1940.113,1428.209,1940.282,1428.217Z" transform="translate(-1925.209 -1384.597)" fill="#753fc2"/>
  <path id="Path_3703" data-name="Path 3703" d="M1942.35,1430.149a.938.938,0,0,0,.239-.086.9.9,0,0,0,.439-.471c.255-.685-.8-1.3-1.339-.9A.828.828,0,0,0,1942.35,1430.149Z" transform="translate(-1925.209 -1384.597)" fill="#6c39be"/>
  <path id="Path_3704" data-name="Path 3704" d="M1982.068,1400.925a.459.459,0,0,0,.01.593,1.052,1.052,0,0,0,.558.312,1.186,1.186,0,0,0,.687.025.53.53,0,0,0,.381-.522.69.69,0,0,0-.169-.34,1.241,1.241,0,0,0-.661-.468.634.634,0,0,0-.707.292" transform="translate(-1925.209 -1384.597)" fill="#6437bc"/>
  <path id="Path_3705" data-name="Path 3705" d="M1982.2,1398.125a.479.479,0,1,0,.505.8.685.685,0,0,0,.173-.291.607.607,0,0,0-.033-.538.311.311,0,0,0-.478-.046" transform="translate(-1925.209 -1384.597)" fill="#6437bc"/>
  <path id="Path_3706" data-name="Path 3706" d="M1978.543,1397.984a2.151,2.151,0,0,0,.643.538c.284.156.7.215.881-.055a.533.533,0,0,0-.17-.678,1.547,1.547,0,0,0-.721-.248.8.8,0,0,0-.409.005.272.272,0,0,0-.181.324" transform="translate(-1925.209 -1384.597)" fill="#6437bc"/>
  <path id="Path_3707" data-name="Path 3707" d="M1974.552,1395.744a.833.833,0,0,1,.746-.466.677.677,0,0,1,.64.564.572.572,0,0,1-.534.625,1.03,1.03,0,0,1-.66-.382c-.065-.065-.127-.185-.049-.233C1974.484,1395.674,1974.428,1395.991,1974.552,1395.744Z" transform="translate(-1925.209 -1384.597)" fill="#6437bc"/>
  <path id="Path_3708" data-name="Path 3708" d="M1969.17,1395.518c-.157.175-.054.462.112.629a.718.718,0,0,0,.386.215.427.427,0,0,0,.4-.145.513.513,0,0,0-.029-.57.677.677,0,0,0-.375-.293.464.464,0,0,0-.451.106" transform="translate(-1925.209 -1384.597)" fill="none"/>
  <path id="Path_3709" data-name="Path 3709" d="M1964.488,1397.425a1.327,1.327,0,0,0-.756.325.352.352,0,0,0-.137.217c-.015.163.16.274.316.32a1.288,1.288,0,0,0,.917-.053.47.47,0,0,0,.3-.361.4.4,0,0,0-.236-.352,1.185,1.185,0,0,0-.434-.095" transform="translate(-1925.209 -1384.597)" fill="#6437bc"/>
  <path id="Path_3710" data-name="Path 3710" d="M1961.6,1399.338a.848.848,0,0,0-.3.116c-.1.063-.19.183-.135.285a.25.25,0,0,0,.209.1.572.572,0,0,0,.322-.054.288.288,0,0,0,.156-.271.2.2,0,0,0-.238-.165" transform="translate(-1925.209 -1384.597)" fill="#8f5fcc"/>
  <path id="Path_3711" data-name="Path 3711" d="M1939.9,1444.111s-2.132-4.932-1.871-6.733a16.948,16.948,0,0,1,.663-2.936l3.536.27s-.375.775.844-.8,5.637-7.524,5.637-7.524-1.039-8.887-1-9.677.095,5.964.636,9.469l-5.894,8.156-4.163-.271a9.981,9.981,0,0,0-.628,4.067,37.411,37.411,0,0,0,1.641,5.44A.559.559,0,0,0,1939.9,1444.111Z" transform="translate(-1925.209 -1384.597)" fill="#545dcf"/>
  <path id="Path_3712" data-name="Path 3712" d="M1948,1422.851l-2.445-2.934s-.216-.2-.324-.19.19.121.432.468,2.385,3.3,2.385,3.3Z" transform="translate(-1925.209 -1384.597)" fill="#545dcf"/>
  <path id="Path_3713" data-name="Path 3713" d="M1972.666,1483.986l.961,2.361a1.014,1.014,0,0,1,.108.658.909.909,0,0,1-.324.414,4.564,4.564,0,0,1-2.133.975,1.28,1.28,0,0,0-.81.312,8.26,8.26,0,0,1,2.986,2.909,7.192,7.192,0,0,0-1.947-2.738,3.735,3.735,0,0,0,2.357-.988,10.244,10.244,0,0,0,.292,2.107,6.572,6.572,0,0,0-1.407-6.515.544.544,0,0,0-.377-.214C1972.356,1483.541,1972.561,1483.727,1972.666,1483.986Z" transform="translate(-1925.209 -1384.597)" fill="#545ecf"/>
  <path id="Path_3714" data-name="Path 3714" d="M1963.363,1499.454c-.76.753-1.063,1.744-2.013,2.415a5.454,5.454,0,0,1-3.125,1.084c-.014-.573,1.776-.828,2.36-1.172A14.615,14.615,0,0,0,1963.363,1499.454Z" transform="translate(-1925.209 -1384.597)" fill="#545ecf"/>
  <path id="Path_3715" data-name="Path 3715" d="M1941.279,1472.958a1.718,1.718,0,0,0-.308,2.4,1.087,1.087,0,0,0,.751.42c.623.03,1.055-.71.95-1.325a3,3,0,0,0-1.008-1.537" transform="translate(-1925.209 -1384.597)" fill="#6537bc"/>
  <path id="Path_3716" data-name="Path 3716" d="M1948.472,1471.073a1.092,1.092,0,0,0-.4,1.189,1.416,1.416,0,0,0,.915.909,1.591,1.591,0,0,0,1.9-.783,1.438,1.438,0,0,0-2.538-1.343" transform="translate(-1925.209 -1384.597)" fill="#905fcc"/>
  <path id="Path_3717" data-name="Path 3717" d="M1944.207,1469.595a1.176,1.176,0,0,1-.845-1.375,1.826,1.826,0,0,1,1.167-1.268,1.156,1.156,0,0,1,1.006,0,.953.953,0,0,1,.389.944,2.014,2.014,0,0,1-.475.956,1.558,1.558,0,0,1-1.224.706" transform="translate(-1925.209 -1384.597)" fill="#3c28af"/>
  <path id="Path_3718" data-name="Path 3718" d="M1946.192,1475.275a1.394,1.394,0,0,0-.4,1.3,1.862,1.862,0,0,0,.8,1.139,1.107,1.107,0,0,0,.836.222.979.979,0,0,0,.68-.919,2.571,2.571,0,0,0-.3-1.177,1.874,1.874,0,0,0-.527-.77.692.692,0,0,0-.867-.01" transform="translate(-1925.209 -1384.597)" fill="#6537bc"/>
  <path id="Path_3719" data-name="Path 3719" d="M1945.413,1483.272a1.781,1.781,0,0,0,.23.818.611.611,0,0,0,.741.254,1.5,1.5,0,0,0-.354-1.267l-.391-.04" transform="translate(-1925.209 -1384.597)" fill="#6537bc"/>
  <path id="Path_3720" data-name="Path 3720" d="M1964.525,1455.551c-.4.06-.484.685-.178.947a.987.987,0,0,0,1.131-.014,1.1,1.1,0,0,0,.552-.831.68.68,0,0,0-.587-.723c-.418-.018-.7.41-1.063.613" transform="translate(-1925.209 -1384.597)" fill="#6537bc"/>
  <path id="Path_3721" data-name="Path 3721" d="M1951.435,1411.164a.649.649,0,1,0,.144-.124" transform="translate(-1925.209 -1384.597)" fill="#3c28af"/>
  <path id="Path_3722" data-name="Path 3722" d="M1965.422,1443.263a1.845,1.845,0,0,0-.87.9c-.124.408.211.953.625.847a.9.9,0,0,0,.4-.28,1.627,1.627,0,0,0,.537-.851c.047-.338-.229-.735-.564-.671" transform="translate(-1925.209 -1384.597)" fill="#3c28af"/>
  <path id="Path_3723" data-name="Path 3723" d="M1992.239,1448.56c-.487-.33-1.513,0-1.107.684a.852.852,0,0,0,.826.351.664.664,0,0,0,.535-.306A.6.6,0,0,0,1992.239,1448.56Z" transform="translate(-1925.209 -1384.597)" fill="#a865dd"/>
  <path id="Path_3724" data-name="Path 3724" d="M1998.653,1450.9c.842-.579.223-2.049-.564-2.323-1.063-.369-1.966.559-1.248,1.533a2.634,2.634,0,0,0,.77.771A1,1,0,0,0,1998.653,1450.9Z" transform="translate(-1925.209 -1384.597)" fill="none"/>
  <path id="Path_3725" data-name="Path 3725" d="M2003.1,1445.53a1.133,1.133,0,0,0-.769.132.577.577,0,0,0-.239.691.72.72,0,0,0,.549.342.959.959,0,0,0,.972-.316c.2-.3.005-.816-.355-.8" transform="translate(-1925.209 -1384.597)" fill="#9858d4"/>
  <path id="Path_3726" data-name="Path 3726" d="M2004.757,1443.943a1.434,1.434,0,0,0-.789.767.779.779,0,0,0,.353.963.967.967,0,0,0,.989-.283,1.146,1.146,0,0,0,.419-.988.614.614,0,0,0-.829-.474" transform="translate(-1925.209 -1384.597)" fill="#a361db"/>
  <path id="Path_3727" data-name="Path 3727" d="M2009.5,1445.133a2.348,2.348,0,0,0-.872.721,1.013,1.013,0,0,0-.064,1.078,1.226,1.226,0,0,0,1.407.315,1.8,1.8,0,0,0,.876-.572,1.109,1.109,0,0,0,.21-1,.954.954,0,0,0-1.3-.527" transform="translate(-1925.209 -1384.597)" fill="#3c28af"/>
  <path id="Path_3728" data-name="Path 3728" d="M2017.219,1441.506a6.953,6.953,0,0,0-1.714,1,1.032,1.032,0,0,0-.336.381.766.766,0,0,0,.531.943,1.9,1.9,0,0,0,1.191-.113,2.684,2.684,0,0,0,1.058-.6,1.156,1.156,0,0,0,.329-1.12.75.75,0,0,0-.969-.484" transform="translate(-1925.209 -1384.597)" fill="#5527b2"/>
  <path id="Path_3729" data-name="Path 3729" d="M2012.407,1439.083a.8.8,0,0,0,.506.691.811.811,0,0,0,.454-.057,2.527,2.527,0,0,0,1.256-1.006,1.487,1.487,0,0,0,.216-1.3C2014.107,1435.533,2012.194,1437.879,2012.407,1439.083Z" transform="translate(-1925.209 -1384.597)" fill="#6030b7"/>
  <path id="Path_3730" data-name="Path 3730" d="M2016.857,1438.418a.819.819,0,0,0-.734.791.576.576,0,0,0,.857.448.946.946,0,0,0,.266-.468.835.835,0,0,0,.065-.43.287.287,0,0,0-.311-.243" transform="translate(-1925.209 -1384.597)" fill="#5426b1"/>
  <path id="Path_3731" data-name="Path 3731" d="M2024.121,1435.926a1.064,1.064,0,0,0-1.352.982,1.144,1.144,0,0,0,1.367,1.028,1.237,1.237,0,0,0,.82-1.544c-.1-.286-.39-.559-.671-.45" transform="translate(-1925.209 -1384.597)" fill="#5023b0"/>
  <path id="Path_3732" data-name="Path 3732" d="M2026.425,1438.226c.24-.2.639.069.649.38a.913.913,0,0,1-.5.741,1.048,1.048,0,0,1-.553.183.7.7,0,1,1,.193-1.369C2026.558,1438.05,2026.147,1438,2026.425,1438.226Z" transform="translate(-1925.209 -1384.597)" fill="#5829b3"/>
  <path id="Path_3733" data-name="Path 3733" d="M2028.773,1434.1c.225-.586-.269-.9-.816-.783-.572.124-.946.762-.367,1.2A.822.822,0,0,0,2028.773,1434.1Z" transform="translate(-1925.209 -1384.597)" fill="#6030b7"/>
  <path id="Path_3734" data-name="Path 3734" d="M2028.712,1425.087a1.017,1.017,0,0,0-1.321.594,1.624,1.624,0,0,0,.311,1.531.99.99,0,0,0,.338.3,1.093,1.093,0,0,0,.8-.017,1.858,1.858,0,0,0,1.144-.848.925.925,0,0,0-.372-1.248c-.28-.113-.645-.056-.844-.283" transform="translate(-1925.209 -1384.597)" fill="#733dc1"/>
  <path id="Path_3735" data-name="Path 3735" d="M2031.065,1420.213a1.588,1.588,0,0,0-.652,1.009.816.816,0,0,0,.627.915.9.9,0,0,0,.783-.4,1.112,1.112,0,0,0,.185-1.069.741.741,0,0,0-.929-.42" transform="translate(-1925.209 -1384.597)" fill="#8449c9"/>
  <path id="Path_3736" data-name="Path 3736" d="M2031.963,1413.5c-.44-.753-2.008.681-1.1,1.323a.59.59,0,0,0,.617,0,1.12,1.12,0,0,0,.422-.483A.9.9,0,0,0,2031.963,1413.5Z" transform="translate(-1925.209 -1384.597)" fill="#9859d5"/>
  <path id="Path_3737" data-name="Path 3737" d="M2029.956,1414.032c-.042-.747-1.267-.524-1.321.117a.56.56,0,0,0,.314.559.642.642,0,0,0,.334.036A.747.747,0,0,0,2029.956,1414.032Z" transform="translate(-1925.209 -1384.597)" fill="#9859d5"/>
  <path id="Path_3738" data-name="Path 3738" d="M2034.356,1418.5c.146-.859-1.24.022-.407.259A.337.337,0,0,0,2034.356,1418.5Z" transform="translate(-1925.209 -1384.597)" fill="#3c28af"/>
  <path id="Path_3739" data-name="Path 3739" d="M2035.9,1419.385a.371.371,0,0,1,.064.565.494.494,0,0,1-.2.084c-.214.05-1.567.109-1.221-.392.083-.12.435-.171.566-.22A.823.823,0,0,1,2035.9,1419.385Z" transform="translate(-1925.209 -1384.597)" fill="#3c28af"/>
  <path id="Path_3740" data-name="Path 3740" d="M2033.541,1423.457a.8.8,0,0,0-.311.485.59.59,0,0,0,.317.544,1.268,1.268,0,0,0,.644.135,1.191,1.191,0,0,0,.485-.081.536.536,0,0,0,.316-.356.727.727,0,0,0,0-.259,2.8,2.8,0,0,0-.118-.477.516.516,0,0,0-.077-.16C2034.484,1422.9,2033.817,1423.212,2033.541,1423.457Z" transform="translate(-1925.209 -1384.597)" fill="#3c28af"/>
  <path id="Path_3741" data-name="Path 3741" d="M2035.1,1427.815a1.2,1.2,0,0,1,.843-.044.62.62,0,0,1,.356.42.56.56,0,0,1-.154.523.733.733,0,0,1-.249.144,1.218,1.218,0,0,1-.993-.072C2034.3,1428.458,2034.575,1427.985,2035.1,1427.815Z" transform="translate(-1925.209 -1384.597)" fill="#3c28af"/>
  <path id="Path_3742" data-name="Path 3742" d="M2033.684,1433.665c.345-.038.882.277.406.646a.4.4,0,0,1-.56-.139C2033.342,1433.836,2033.479,1433.688,2033.684,1433.665Z" transform="translate(-1925.209 -1384.597)" fill="#3c28af"/>
  <path id="Path_3743" data-name="Path 3743" d="M2031.2,1435.05a1.235,1.235,0,0,0-.408.563.767.767,0,0,0,.088.674.377.377,0,0,0,.164.137.5.5,0,0,0,.214.019,2.769,2.769,0,0,0,.937-.24.629.629,0,0,0,.4-.4.68.68,0,0,0-.134-.445C2032.145,1434.821,2031.721,1434.621,2031.2,1435.05Z" transform="translate(-1925.209 -1384.597)" fill="#3c28af"/>
  <path id="Path_3744" data-name="Path 3744" d="M2029.69,1439.871a.469.469,0,0,0,.106.212.46.46,0,0,0,.306.114,1.131,1.131,0,0,0,.645-.157.5.5,0,0,0,.205-.205c.09-.195-.033-.417-.151-.6-.164-.247-.459-.626-.8-.471S2029.607,1439.556,2029.69,1439.871Z" transform="translate(-1925.209 -1384.597)" fill="#3c28af"/>
  <path id="Path_3745" data-name="Path 3745" d="M2026.005,1445.015a.677.677,0,0,0-.029.668.637.637,0,0,0,.257.279.994.994,0,0,0,.488.082,1.233,1.233,0,0,0,.735-.168.921.921,0,0,0,.323-.752.791.791,0,0,0-.358-.72.322.322,0,0,0-.16-.04c-.24.012-.346.327-.567.4C2026.437,1444.853,2026.193,1444.74,2026.005,1445.015Z" transform="translate(-1925.209 -1384.597)" fill="#3c28af"/>
  <path id="Path_3746" data-name="Path 3746" d="M2020.208,1444.785a.81.81,0,0,0-.118.373.676.676,0,0,0,.174.425,1.417,1.417,0,0,0,2.368-.58,1.012,1.012,0,0,0-.555-1.154A1.555,1.555,0,0,0,2020.208,1444.785Z" transform="translate(-1925.209 -1384.597)" fill="#3c28af"/>
  <path id="Path_3747" data-name="Path 3747" d="M2017.294,1449.191a.445.445,0,0,0,.018.178.474.474,0,0,0,.471.247.968.968,0,0,0,.762-.355.716.716,0,0,0,.043-.813C2018.089,1447.718,2017.326,1448.65,2017.294,1449.191Z" transform="translate(-1925.209 -1384.597)" fill="#3c28af"/>
  <path id="Path_3748" data-name="Path 3748" d="M2014.08,1447.148c-.317-.262-1.034.357-.662.635a.36.36,0,0,0,.3.029.661.661,0,0,0,.4-.235A.329.329,0,0,0,2014.08,1447.148Z" transform="translate(-1925.209 -1384.597)" fill="#3c28af"/>
  <path id="Path_3749" data-name="Path 3749" d="M2009.517,1453.694c-.095-.071-.229,0-.32.076a.379.379,0,0,0-.167.275c0,.134.135.228.262.272a1.9,1.9,0,0,0,.464.079.532.532,0,0,0,.4-.072.266.266,0,0,0,.086-.143.293.293,0,0,0-.01-.158.492.492,0,0,0-.336-.29,2.4,2.4,0,0,0-.456-.066" transform="translate(-1925.209 -1384.597)" fill="#3c28af"/>
  <path id="Path_3750" data-name="Path 3750" d="M2006.207,1452.7a.609.609,0,0,0-.028.239.623.623,0,0,0,.1.255,1.248,1.248,0,0,0,.9.565,1.58,1.58,0,0,0,1.045-.25,1.1,1.1,0,0,0,.471-.552.366.366,0,0,0,.011-.246.465.465,0,0,0-.083-.129,2.338,2.338,0,0,0-.611-.563A1.3,1.3,0,0,0,2006.207,1452.7Z" transform="translate(-1925.209 -1384.597)" fill="none"/>
  <path id="Path_3751" data-name="Path 3751" d="M2000.549,1453.6a.5.5,0,0,0,.44.074q.153-.025.3-.066a.975.975,0,0,0,.456-.224.417.417,0,0,0,.1-.47C2001.359,1451.974,2000.022,1453.089,2000.549,1453.6Z" transform="translate(-1925.209 -1384.597)" fill="#3c28af"/>
  <path id="Path_3752" data-name="Path 3752" d="M1995.346,1452.663c1.078.224.006-1.142-.374-.492a.294.294,0,0,0,.054.334A.589.589,0,0,0,1995.346,1452.663Z" transform="translate(-1925.209 -1384.597)" fill="#3c28af"/>
  <rect id="frame" width="119.898" height="119.898" fill="none"/>
</svg>
