<svg xmlns="http://www.w3.org/2000/svg" width="120" height="120" viewBox="0 0 120 120"><defs><style>.a{fill:#4b1c63;mix-blend-mode:multiply;isolation:isolate;}.a,.d{opacity:0.5;}.b{fill:#ffce39;}.c{fill:#f4bf21;}.d{fill:#ad800e;}.e{fill:#fde350;}.f{fill:#ffe97b;}.g{fill:#cc9a1f;}.h{fill:none;}</style></defs><g transform="translate(-1240.41 -108.565)"><rect class="a" width="99.696" height="71.759" transform="matrix(0.989, 0.148, -0.148, 0.989, 1255.974, 132.511)"/><rect class="b" width="107.216" height="78.51" transform="matrix(0.989, 0.148, -0.148, 0.989, 1253.003, 121.197)"/><path class="c" d="M1348.008,210.946l-40.427-41.906s-3.056-4.128-6.28-4.784-7.865,2.323-7.865,2.323L1242.03,194.7l-.62,4.152,106.041,15.83Z"/><path class="d" d="M1252.411,125.157l40.113,44.015s3.024,4.343,6.246,5.01,7.9-2.528,7.9-2.528l51.721-30.226.657-4.4L1253,121.2Z"/><path class="e" d="M1252.445,124.932l40.428,41.906s3.657,4.393,6.516,4.762c3.544.456,7.628-2.3,7.628-2.3l51.407-28.121.62-4.152L1253,121.2Z"/><rect class="f" width="107.216" height="1.543" transform="matrix(0.989, 0.148, -0.148, 0.989, 1253.214, 119.778)"/><rect class="g" width="107.216" height="1.543" transform="matrix(0.989, 0.148, -0.148, 0.989, 1241.64, 197.312)"/><path class="b" d="M1305.063,138.585a12.537,12.537,0,1,0,10.575,14.231A12.574,12.574,0,0,0,1305.063,138.585Zm.456,8.462-.6.585c-.417.414-.918.855-1.369,1.224-.319-.522-.632-1.083-.957-1.567l-.445-.739a7.074,7.074,0,0,1-.531-5.266,9.663,9.663,0,0,1,5.892.869A6.843,6.843,0,0,1,1305.519,147.047Zm-6.644-4.9a9.144,9.144,0,0,0,1.1,5.707l.445.739c.413.694.831,1.35,1.2,2.039-1.324,1.19-2.253,2.123-2.386,2.222a9.136,9.136,0,0,0-2.722,5.3,9.731,9.731,0,0,1-3.048-8.607A9.959,9.959,0,0,1,1298.875,142.147Zm2.1,12.587h0c.178-.132.957-.849,1.981-1.886.792,1.345,1.364,2.3,1.352,2.378a7.393,7.393,0,0,1,.5,5.5,9.66,9.66,0,0,1-5.892-.868A7.25,7.25,0,0,1,1300.98,154.734Zm6.615,5.094a8.828,8.828,0,0,0-1.076-5.861l.005-.039c-.126-.217-.791-1.344-1.644-2.817.6-.545,1.185-1.053,1.742-1.6l.639-.579a8.979,8.979,0,0,0,2.7-5.147,9.857,9.857,0,0,1,3.042,8.647A9.957,9.957,0,0,1,1307.595,159.828Z"/></g><rect class="h" width="120" height="120"/></svg>