<svg id="mr-whale" xmlns="http://www.w3.org/2000/svg" width="120" height="120" viewBox="0 0 120 120">
  <path id="Path_3930" data-name="Path 3930" d="M4810.877,2188.281a10.746,10.746,0,0,0-1.751.834,42.12,42.12,0,0,0-7.1-1.153c-.556-.038-1.111-.051-1.667-.064l0,0h-.049c-.563-.011-1.125-.007-1.687.006-.12,0-.241,0-.361.007-.534.016-1.067.045-1.6.081-.154.011-.309.02-.463.032q-.757.06-1.51.142c-.194.021-.388.044-.581.067-.466.056-.93.116-1.4.184-.25.036-.5.076-.751.116-.408.064-.817.129-1.224.2-.35.062-.7.129-1.048.2-.309.06-.617.116-.925.179-.582.118-1.162.244-1.742.373-.076.017-.153.032-.229.05q-1.056.237-2.106.493c-.763.186-1.523.384-2.28.589-.066.017-.131.036-.2.054q-1,.275-2,.568l-.468.142q-.867.261-1.728.536l-.544.178c-.206.067-.414.133-.62.2l-.007,0c-.344.115-.687.234-1.03.352l-.543.19q-.846.3-1.689.61l-.466.172-.094.035-.035.013q-.867.327-1.729.669l-.27.1q-.89.356-1.776.726l-.02.008q-2.277.951-4.522,1.991a5.467,5.467,0,0,0,.517-.416,2.462,2.462,0,0,0,.695-1.407,2.943,2.943,0,0,0-.395-2.358,2.561,2.561,0,0,0-2.534-.765,2.987,2.987,0,0,0-1.984,1.811,6.638,6.638,0,0,1-.579,1.361c-.07-.088-.142-.175-.211-.263l-.2-.287a.165.165,0,0,0-.024.01,20.12,20.12,0,0,1-3.979-8.239,1.383,1.383,0,0,0-.334-.768,1.34,1.34,0,0,0-1.2-.118,24.4,24.4,0,0,0-14.055,8.823,1.642,1.642,0,0,0-.455.982,1.593,1.593,0,0,0,.325.811c1.042,1.6,2.874,3.484,3.838,5.339-.087.032-.177.054-.263.089-.262.1-.52.219-.773.343-1.538.755-3.01,2.107-3.034,3.82a3.111,3.111,0,0,0,3.644,2.935l.385-.212c-6.533,4.177-12.868,8.655-19.04,13.12-2.257,1.633-4.548,3.307-6.883,4.917a50.667,50.667,0,0,0,9.574,19.989c.437.066.873.138,1.311.2.177.024.355.053.533.076,1.058.14,2.118.261,3.18.37.3.03.6.057.9.086q1.271.118,2.544.209c.27.019.541.041.811.058q1.575.1,3.151.155c.286.01.572.015.857.022.457.013.913.029,1.369.037l-.109.075c.837.126,1.747.245,2.7.36a.632.632,0,0,0-.151.222l.04-.093a1.669,1.669,0,0,1-.122.225c-.038.023-.071.055-.11.077a5.549,5.549,0,0,1-3.111.4,5.736,5.736,0,0,0-1.281-.073.563.563,0,0,0-.266.091,4.917,4.917,0,0,0-1.4.365.4.4,0,0,0-.224.008,2.944,2.944,0,0,0-1.046.638,3,3,0,0,0-.39.462,2.214,2.214,0,0,0-.142.239c-.412.434-.8.892-1.224,1.316a5.758,5.758,0,0,1-.851.743c-.01,0-.019.013-.03.018a2.268,2.268,0,0,1-.4.117.457.457,0,0,0-.246.172c-.032.008-.066.007-.1.013.29.258.585.511.88.762a3.512,3.512,0,0,0,.577-.332,2.81,2.81,0,0,0,.748-.644c.4-.4.779-.853,1.155-1.27a.391.391,0,0,0,.065-.022l.1-.077a.489.489,0,0,0,.122-.21l0,0-.039.093c.02-.048.055-.089.079-.136a6.674,6.674,0,0,1,.528-.492,4.732,4.732,0,0,1,3.391-.79c.062.013.125.021.187.035a.524.524,0,0,0,.277-.019,10.784,10.784,0,0,0,1.345-.017.459.459,0,0,0,.341.143,2.251,2.251,0,0,0,1.232-.391,2.289,2.289,0,0,0,.479-.429c.023-.028.038-.057.059-.085a10.647,10.647,0,0,0,1.068-.88c.183.02.359.04.544.059a61.625,61.625,0,0,0-2.423,8.462q-.394,1.575-.841,3.137a50.528,50.528,0,0,0,12.256,4.619l3.009-2.569a11.092,11.092,0,0,0,2.278-2.376,10.533,10.533,0,0,0,1.167-3.117c.6-2.375,1.1-4.774,1.531-7.186l.555.006c.447,0,.889.007,1.323.008l.54,0c.437,0,.87,0,1.291-.009l.421-.008c.444-.007.884-.015,1.306-.028h.009c.311-.01.607-.023.9-.035-.208,1.534-.272,3.094-.381,4.641a71.889,71.889,0,0,1-1.885,12.031c1.448-.01,2.881-.084,4.3-.213l8.229-9.988a7.831,7.831,0,0,0,1.289-1.927,7.417,7.417,0,0,0,.427-2.305q.15-2.08.18-4.168c3.764-.992,7.465-2.264,11.1-3.58,3.518-1.274,7.024-2.587,10.441-4.11a37.5,37.5,0,0,0,11.577-7.418,50.913,50.913,0,0,0-4.761-44.146Zm-44.985,5.894c0,.006,0,.012,0,.019l0-.016Z" transform="translate(-4707.666 -2155.19)" opacity="0.3" style="mix-blend-mode: normal;isolation: isolate"/>
  <path id="Path_3931" data-name="Path 3931" d="M4781.559,2222.444a73.173,73.173,0,0,1,.78,17.124,7.423,7.423,0,0,1-.427,2.306,7.825,7.825,0,0,1-1.289,1.926l-10.13,12.3a29.553,29.553,0,0,1-4.379,4.6,71.888,71.888,0,0,0,3.868-18.724,35.987,35.987,0,0,1,.829-6.933c1.237-4.558,4.6-8.185,7.848-11.614a5.4,5.4,0,0,1,2.478-1.771" transform="translate(-4707.666 -2155.19)" fill="#d9d9d9"/>
  <path id="Path_3932" data-name="Path 3932" d="M4800.361,2175.761a60.943,60.943,0,0,0-15.671,2.127c-21.913,5.339-41.5,18.606-59.672,31.753-2.782,2.013-5.611,4.094-8.517,6.031a51.1,51.1,0,0,0,3.161,17.355c.836.192,1.672.385,2.513.557a109.018,109.018,0,0,0,20.187,2.174l-.109.075a177.415,177.415,0,0,0,28.722,1.471c7.8-.385,15.354-2.847,22.645-5.486,3.518-1.273,7.024-2.587,10.441-4.11,5.393-2.4,10.749-5.505,14.04-10.407.3-.447.577-.9.836-1.366,0-.228.017-.454.017-.684A51.125,51.125,0,0,0,4800.361,2175.761Z" transform="translate(-4707.666 -2155.19)" fill="#ececec"/>
  <path id="Path_3933" data-name="Path 3933" d="M4821.864,2193.092q-.357-5.654-.714-11.3l-.14-.929c-6.162-2.278-12.427-4.579-18.98-5.031-5.831-.4-11.661.68-17.34,2.063a120.871,120.871,0,0,0-30.237,12.387v46.755a161.775,161.775,0,0,0,16.522.274c7.8-.384,15.354-2.847,22.645-5.486,3.518-1.273,7.024-2.587,10.441-4.11,5.393-2.4,10.749-5.5,14.04-10.408C4822.74,2210.391,4822.389,2201.4,4821.864,2193.092Z" transform="translate(-4707.666 -2155.19)" fill="#ececec"/>
  <path id="Path_3934" data-name="Path 3934" d="M4802.03,2175.827c-5.831-.4-11.661.68-17.34,2.063-12.388,3.018-24.032,8.571-35.1,15.2v42.534c.61-.029,1.221-.049,1.832-.088,13.2-.842,27.8-5.538,38.73-12.928l-.064-.263c-3.944-7.695-5.887-14.9-7.252-23.458,0,0,16.474-11.883,21.767-14.537s8.774-3.987,10.63-4.213a23.565,23.565,0,0,1,5.774.719C4814.848,2178.58,4808.583,2176.279,4802.03,2175.827Z" transform="translate(-4707.666 -2155.19)" fill="#1d70b7"/>
  <path id="Path_3935" data-name="Path 3935" d="M4807.486,2182.956a51.535,51.535,0,0,0-7.125-7.2,60.943,60.943,0,0,0-15.671,2.127c-21.913,5.339-41.5,18.606-59.672,31.753-2.782,2.013-5.611,4.094-8.517,6.031a51.1,51.1,0,0,0,3.161,17.355c.836.192,1.672.385,2.513.557a110.756,110.756,0,0,0,29.25,1.952c13.2-.842,27.8-5.538,38.73-12.928l-.064-.263c-3.944-7.7-5.887-14.9-7.252-23.458,0,0,16.474-11.883,21.767-14.537C4805.642,2183.83,4806.588,2183.376,4807.486,2182.956Z" transform="translate(-4707.666 -2155.19)" fill="#1d70b7"/>
  <path id="Path_3936" data-name="Path 3936" d="M4802.645,2180.258a16.6,16.6,0,0,0,3.489-.414,13.539,13.539,0,0,0-3.5.217,94.913,94.913,0,0,0-40.5,14.042c-19.78,12.359-34.433,20.437-45.489,24.965.006.074.011.148.017.222,2.426-.988,5-2.136,7.752-3.458,9.8-4.71,21.819-11.562,37.824-21.562A94.724,94.724,0,0,1,4802.645,2180.258Z" transform="translate(-4707.666 -2155.19)" fill="#fff" style="mix-blend-mode: overlay;isolation: isolate"/>
  <path id="Path_3937" data-name="Path 3937" d="M4744.188,2189.707c-.939-1.906-2.855-3.856-3.927-5.5a1.593,1.593,0,0,1-.325-.811,1.642,1.642,0,0,1,.455-.982,24.4,24.4,0,0,1,14.055-8.822,1.337,1.337,0,0,1,1.2.117,1.386,1.386,0,0,1,.334.768c.906,4.26,3.121,7.435,5.954,10.609,0,0,.075.6-2.207,1.633a28.867,28.867,0,0,1-8.484,1.7A61.577,61.577,0,0,0,4744.188,2189.707Z" transform="translate(-4707.666 -2155.19)" fill="#7b2fa3"/>
  <path id="Path_3938" data-name="Path 3938" d="M4744.39,2181.733a2.567,2.567,0,0,0-1.407,2.659,2.932,2.932,0,0,0,1.935,2.1c2.3.585,4.432-2.284,2.974-4.251a2.443,2.443,0,0,0-1.547-.95,2.824,2.824,0,0,0-1.955.444.246.246,0,0,0,.249.425,2.4,2.4,0,0,1,1.447-.408,1.973,1.973,0,0,1,1.242.582,2.088,2.088,0,0,1,.172,2.615,2.408,2.408,0,0,1-2.235,1.109,2.259,2.259,0,0,1-1.658-1.394,1.959,1.959,0,0,1,1.032-2.5C4744.907,2181.99,4744.659,2181.563,4744.39,2181.733Z" transform="translate(-4707.666 -2155.19)" fill="#fff"/>
  <path id="Path_3939" data-name="Path 3939" d="M4743.6,2182.456a1.866,1.866,0,0,0,.5,1.191,1.935,1.935,0,0,0,1.016.461,6.153,6.153,0,0,1,1.246.2,1.323,1.323,0,0,1,.806,1.086c.024.314.517.317.493,0a1.81,1.81,0,0,0-.683-1.285,1.749,1.749,0,0,0-.693-.341,6.147,6.147,0,0,0-.66-.079,2.478,2.478,0,0,1-1.016-.266,1.22,1.22,0,0,1-.513-.964.253.253,0,0,0-.246-.246.247.247,0,0,0-.246.246Z" transform="translate(-4707.666 -2155.19)" fill="#fff"/>
  <path id="Path_3940" data-name="Path 3940" d="M4745.378,2186.172a2.258,2.258,0,0,1,.154-1.553c.141-.2.351-.353.492-.56a2.154,2.154,0,0,0,.246-.548,1.838,1.838,0,0,0-.5-2.191c-.271-.167-.519.259-.249.425.613.378.426,1.373.162,1.912a2.24,2.24,0,0,1-.407.5,1.653,1.653,0,0,0-.35.589,3.252,3.252,0,0,0-.044,1.429c.038.311.532.315.493,0Z" transform="translate(-4707.666 -2155.19)" fill="#fff"/>
  <path id="Path_3941" data-name="Path 3941" d="M4783.327,2204.809c-21.061,12.247-43.563,16.747-58.732,18.366-2.589.276-5.058.48-7.381.628.011.065.024.129.035.194,2.319-.148,4.779-.35,7.361-.626,15.19-1.62,37.723-6.126,58.816-18.39a.1.1,0,0,0,.035-.135A.1.1,0,0,0,4783.327,2204.809Z" transform="translate(-4707.666 -2155.19)" fill="#fff" style="mix-blend-mode: overlay;isolation: isolate"/>
  <path id="Path_3942" data-name="Path 3942" d="M4786.63,2215.129c-.079.059-8.089,5.9-23.214,9.938a118.735,118.735,0,0,1-28.427,3.858,143,143,0,0,1-16.846-.728c.019.072.042.142.061.214,4.843.481,9.618.734,14.3.734q1.25,0,2.491-.022a118.979,118.979,0,0,0,28.474-3.865c15.16-4.051,23.2-9.911,23.28-9.97a.1.1,0,0,0,.021-.138A.1.1,0,0,0,4786.63,2215.129Z" transform="translate(-4707.666 -2155.19)" fill="#fff" style="mix-blend-mode: overlay;isolation: isolate"/>
  <path id="Path_3943" data-name="Path 3943" d="M4766.467,2191.486s4.827,2.966,6.633,7.571c1.773,4.519-6.009,10.276-10.29,8.214-.082-.04-.164-.08-.241-.127-.664-.407-8.116-6.133-8.116-6.133a5.063,5.063,0,0,1,2.571-4.852A63.328,63.328,0,0,1,4766.467,2191.486Z" transform="translate(-4707.666 -2155.19)" fill="#0c547d"/>
  <path id="Path_3944" data-name="Path 3944" d="M4773.523,2199.835a6.814,6.814,0,0,1-2.331,8.328,6.965,6.965,0,0,1-8.623-1.019,6.681,6.681,0,0,1,.639-9.676C4766.4,2194.99,4771.767,2196.158,4773.523,2199.835Z" transform="translate(-4707.666 -2155.19)" fill="#fff"/>
  <path id="Path_3945" data-name="Path 3945" d="M4770.066,2200.205a3.137,3.137,0,0,1-.947,4.221,3.393,3.393,0,0,1-4.335-.505c-1.6-1.795-.7-3.847,1.158-4.83A2.932,2.932,0,0,1,4770.066,2200.205Z" transform="translate(-4707.666 -2155.19)" fill="#f29100"/>
  <path id="Path_3946" data-name="Path 3946" d="M4769.375,2200.614a2.37,2.37,0,0,1-.716,3.189,2.563,2.563,0,0,1-3.275-.381c-1.2-1.357-.532-2.907.875-3.65A2.216,2.216,0,0,1,4769.375,2200.614Z" transform="translate(-4707.666 -2155.19)" fill="#1d1d1b"/>
  <path id="Path_3947" data-name="Path 3947" d="M4768.9,2199.709a1.149,1.149,0,0,1-.347,1.546,1.243,1.243,0,0,1-1.587-.185,1.092,1.092,0,0,1,.424-1.769A1.074,1.074,0,0,1,4768.9,2199.709Z" transform="translate(-4707.666 -2155.19)" fill="#fff"/>
  <path id="Path_3948" data-name="Path 3948" d="M4765.49,2180.85a2.559,2.559,0,0,0-2.534-.766,2.987,2.987,0,0,0-1.984,1.811c-.343.887-.417,1.5-1.3,2l-4.881,2.753a13.582,13.582,0,0,1-5.125,1.93c-1.533.185-3.059.422-4.582.673.03-.023.065-.047.1-.071a12.946,12.946,0,0,0-1.342.453c-.262.1-.52.219-.773.344-1.538.754-3.01,2.107-3.034,3.82a3.111,3.111,0,0,0,3.644,2.934s16.545-9.1,17.348-9.514l1.6-.955a14.393,14.393,0,0,0,2.567-1.65,2.462,2.462,0,0,0,.695-1.407A2.94,2.94,0,0,0,4765.49,2180.85Zm.4,1.209,0-.016,0,0C4765.892,2182.046,4765.89,2182.053,4765.89,2182.059Z" transform="translate(-4707.666 -2155.19)" fill="#452668"/>
  <path id="Path_3949" data-name="Path 3949" d="M4776.41,2195.862c2.553.067,4.863-1.543,6.584-3.43s3.063-4.108,4.9-5.879a14.957,14.957,0,0,1,16.491-2.6c.567-5.592,6.995-9.764,12.334-8.006,1.9.627,3.624,1.862,5.615,2.071a5.765,5.765,0,0,0,5.3-2.516,7.661,7.661,0,0,1-6.4,5.733l-.065-.021-.018-.006c-5.159-1.812-10.979.255-15.522,3.344-4.625,3.145-8.505,7.322-13.283,10.231s-11.039,4.382-15.908,1.631c0,0-.65-.189-.567-.433S4776.41,2195.862,4776.41,2195.862Z" transform="translate(-4707.666 -2155.19)" fill="#1d1d1b"/>
  <path id="Path_3950" data-name="Path 3950" d="M4764.125,2191.841a12.561,12.561,0,0,0-6.556,2.847c-1.808,1.6-3.284,3.849-3.193,6.263l.077.06c.108-1.916,1.942-3.278,3.75-3.923s3.8-.884,5.4-1.946a8.321,8.321,0,0,0,2.868-3.656C4765.7,2191.669,4764.907,2191.728,4764.125,2191.841Z" transform="translate(-4707.666 -2155.19)" fill="#1d1d1b"/>
  <path id="Path_3951" data-name="Path 3951" d="M4727.728,2243.88c.726-1.091.889-2.448,2.507-2.436,1.183.009,2.223.685,3.385.709,2.009.041,3.133-2.243,4.493-3.351,1.891-1.542,4.364-.228,6.47-1.077a7.746,7.746,0,0,0,2.206-1.627,4.558,4.558,0,0,1,3.613-1.152c.635.03.633-.956,0-.986a5.62,5.62,0,0,0-3.248.607c-.938.571-1.591,1.518-2.547,2.057-1.2.676-2.611.368-3.916.373a4.879,4.879,0,0,0-2.967.866,19.664,19.664,0,0,0-2.2,2.206,2.877,2.877,0,0,1-1.9,1.1,10.721,10.721,0,0,1-2.038-.538,4.137,4.137,0,0,0-2.954.194c-.949.564-1.175,1.694-1.751,2.559-.353.53.5,1.024.851.5Z" transform="translate(-4707.666 -2155.19)" fill="#f8b133"/>
  <path id="Path_3952" data-name="Path 3952" d="M4725.608,2244.126a1.514,1.514,0,0,1,1.126-.961,1.25,1.25,0,0,1,1.244.831,1.165,1.165,0,0,1-.447,1.46" transform="translate(-4707.666 -2155.19)" fill="#f8b133"/>
  <path id="Path_3953" data-name="Path 3953" d="M4725.6,2244.014a3.752,3.752,0,0,0-2.994,2.239,2.823,2.823,0,0,0,1.139,3.408,3.062,3.062,0,0,0,1.506.336,3.589,3.589,0,0,0,3.514-2.916,2.77,2.77,0,0,0-3.016-3.031" transform="translate(-4707.666 -2155.19)" fill="#f29100"/>
  <path id="Path_3954" data-name="Path 3954" d="M4725.466,2244.052a3.331,3.331,0,0,0-2.655,1.985,2.507,2.507,0,0,0,1.01,3.022,2.716,2.716,0,0,0,1.336.3,3.183,3.183,0,0,0,3.115-2.585,2.455,2.455,0,0,0-2.673-2.687" transform="translate(-4707.666 -2155.19)" fill="#f8b133"/>
  <path id="Path_3955" data-name="Path 3955" d="M4725.436,2244.521a2.665,2.665,0,0,0-2.124,1.589,2,2,0,0,0,.808,2.418,2.179,2.179,0,0,0,1.069.239,2.548,2.548,0,0,0,2.493-2.069,1.965,1.965,0,0,0-2.14-2.151" transform="translate(-4707.666 -2155.19)" fill="#fff"/>
  <path id="Path_3956" data-name="Path 3956" d="M4725.542,2244.547l-.106-.026a2.665,2.665,0,0,0-2.124,1.589,2.02,2.02,0,0,0-.125.795,1.906,1.906,0,0,1,.1-.355,2.663,2.663,0,0,1,2.124-1.589l.106.026a1.956,1.956,0,0,1,2.145,1.838c.008-.042.018-.084.023-.127A1.965,1.965,0,0,0,4725.542,2244.547Z" transform="translate(-4707.666 -2155.19)" fill="#d9d9d9"/>
  <path id="Path_3957" data-name="Path 3957" d="M4728.364,2242.47a1.64,1.64,0,0,1,.069-.2l-.05.118a1.649,1.649,0,0,1,.155-.28c.017-.026.036-.05.053-.075-.088.127-.044.058-.02.029s.077-.086.118-.126a1.564,1.564,0,0,1,.12-.107c.083-.068-.091.064-.018.014.022-.015.043-.031.066-.046a1.92,1.92,0,0,1,.293-.157l-.118.05a1.72,1.72,0,0,1,.418-.116l-.131.017a1.807,1.807,0,0,1,.182-.015.493.493,0,1,0,0-.985,2.271,2.271,0,0,0-2.087,1.612.493.493,0,1,0,.95.262Z" transform="translate(-4707.666 -2155.19)" fill="#f29100"/>
  <path id="Path_3958" data-name="Path 3958" d="M4730.778,2241.441a3.382,3.382,0,0,0,1.929.552.492.492,0,1,0,0-.985,3.139,3.139,0,0,1-.465-.025l.131.017a3,3,0,0,1-.62-.155l-.068-.027c-.057-.021.1.046.024.01-.053-.024-.106-.048-.158-.075a3,3,0,0,1-.275-.163.5.5,0,0,0-.675.177.5.5,0,0,0,.177.674Z" transform="translate(-4707.666 -2155.19)" fill="#f29100"/>
  <path id="Path_3959" data-name="Path 3959" d="M4734.5,2241.9a2.763,2.763,0,0,0,1.814-1.26.5.5,0,0,0-.177-.674.5.5,0,0,0-.674.177c-.041.065-.085.129-.131.19l.077-.1a2.322,2.322,0,0,1-.407.406l.1-.077a2.359,2.359,0,0,1-.517.3l.118-.05a2.272,2.272,0,0,1-.464.136.5.5,0,0,0-.294.227.5.5,0,0,0-.05.38.5.5,0,0,0,.227.294.55.55,0,0,0,.379.05Z" transform="translate(-4707.666 -2155.19)" fill="#f29100"/>
  <path id="Path_3960" data-name="Path 3960" d="M4737.547,2239.331l.008-.019-.049.117a2.4,2.4,0,0,1,.294-.5l-.077.1a2.488,2.488,0,0,1,.441-.441l-.1.077a2.424,2.424,0,0,1,.521-.3l-.118.05c.039-.016.078-.031.117-.045a.53.53,0,0,0,.295-.227.505.505,0,0,0,.049-.38.5.5,0,0,0-.606-.344,2.958,2.958,0,0,0-1.046.638,3.052,3.052,0,0,0-.39.462,2.966,2.966,0,0,0-.29.556.493.493,0,0,0,.049.38.508.508,0,0,0,.295.226.494.494,0,0,0,.38-.05l.1-.077a.486.486,0,0,0,.126-.217Z" transform="translate(-4707.666 -2155.19)" fill="#f29100"/>
  <path id="Path_3961" data-name="Path 3961" d="M4740.215,2237.935a5.423,5.423,0,0,1,1.1.034l-.131-.018q.256.036.51.095a.493.493,0,0,0,.262-.95,5.838,5.838,0,0,0-1.738-.147.527.527,0,0,0-.349.145.493.493,0,0,0,.349.841Z" transform="translate(-4707.666 -2155.19)" fill="#f29100"/>
  <path id="Path_3962" data-name="Path 3962" d="M4743.654,2238.154a2.267,2.267,0,0,0,1.232-.391,2.294,2.294,0,0,0,.479-.43,2.494,2.494,0,0,0,.383-.653.5.5,0,0,0-.049-.38.5.5,0,0,0-.3-.226.5.5,0,0,0-.38.049.577.577,0,0,0-.226.295l-.009.022.05-.118a1.7,1.7,0,0,1-.157.291c-.017.026-.037.05-.054.076.083-.125.043-.055.018-.026a1.524,1.524,0,0,1-.121.13,1.649,1.649,0,0,1-.123.11c-.085.069.089-.063.016-.012l-.069.047a1.918,1.918,0,0,1-.3.161l.117-.05a1.8,1.8,0,0,1-.453.123l.131-.017c-.063.007-.126.012-.189.013a.493.493,0,0,0,0,.986Z" transform="translate(-4707.666 -2155.19)" fill="#f29100"/>
  <path id="Path_3963" data-name="Path 3963" d="M4747.174,2235.718c-.02.027-.049.06-.011.015l.058-.069c.036-.04.073-.079.111-.117a2.683,2.683,0,0,1,.227-.2c.046-.039-.076.054,0,0l.058-.041c.045-.031.09-.06.136-.087.093-.056.19-.1.286-.15.061-.031-.083.032-.019.007l.067-.026c.05-.019.1-.036.153-.052a2.328,2.328,0,0,1,.313-.078l.07-.012c.095-.017-.07,0-.006,0,.047,0,.095-.01.142-.012a2.568,2.568,0,0,1,.341,0,.493.493,0,0,0,.492-.492.5.5,0,0,0-.492-.493,3.237,3.237,0,0,0-2.777,1.307.493.493,0,0,0,.177.674.507.507,0,0,0,.674-.176Z" transform="translate(-4707.666 -2155.19)" fill="#f29100"/>
  <path id="Path_3964" data-name="Path 3964" d="M4725.832,2245.277l-.6,1.125-.311.582c-.067.126-.257.356-.139.5s.348.04.484.015c.206-.037.41-.077.614-.12q.623-.132,1.237-.3a.124.124,0,0,0-.066-.238q-.531.146-1.068.263-.262.058-.528.109l-.275.052-.149.026-.042.007c-.059,0-.059.026,0,.086a.754.754,0,0,0,.063-.116l.062-.117.135-.252.259-.485.54-1.009c.075-.14-.138-.264-.212-.124Z" transform="translate(-4707.666 -2155.19)" fill="#1d1d1b"/>
  <path id="Path_3965" data-name="Path 3965" d="M4765.62,2220.449a103.841,103.841,0,0,1-3.138,24.135,10.57,10.57,0,0,1-1.167,3.117,11.088,11.088,0,0,1-2.278,2.375l-17.2,14.689a41.9,41.9,0,0,1-7.257,5.347,102.123,102.123,0,0,0,10.033-25.223,51.065,51.065,0,0,1,2.871-9.488c2.856-6.067,8.452-10.307,13.84-14.3a7.654,7.654,0,0,1,3.9-1.863" transform="translate(-4707.666 -2155.19)" fill="#3491cf"/>
  <path id="Path_3966" data-name="Path 3966" d="M4739.577,2260.734a.1.1,0,0,1-.064-.174c.132-.112,13.26-11.284,16.1-15.783s1.644-20.141,1.632-20.3a.1.1,0,0,1,.091-.106.111.111,0,0,1,.1.091c.051.646,1.206,15.878-1.661,20.419-2.857,4.524-16.008,15.716-16.14,15.828A.1.1,0,0,1,4739.577,2260.734Z" transform="translate(-4707.666 -2155.19)" fill="#fff" style="mix-blend-mode: overlay;isolation: isolate"/>
  <path id="Path_3967" data-name="Path 3967" d="M4743.581,2249.42a.1.1,0,0,1-.09-.06.1.1,0,0,1,.052-.129c.3-.155,4.8-5.744,5.731-8.038.9-2.228.7-9.6.7-9.672a.1.1,0,0,1,.1-.1h0a.1.1,0,0,1,.1.1c.009.3.206,7.486-.714,9.751-.933,2.3-5.441,7.979-5.837,8.146A.093.093,0,0,1,4743.581,2249.42Z" transform="translate(-4707.666 -2155.19)" fill="#fff" style="mix-blend-mode: overlay;isolation: isolate"/>
  <path id="Path_3968" data-name="Path 3968" d="M4759.385,2188.05c-6.039,1.715-14.436,7.913-14.436,7.913l.422-.164c3.286-1.808,10.488-5.768,13.864-7.612Z" transform="translate(-4707.666 -2155.19)" fill="#201a3f"/>
  <path id="Path_3969" data-name="Path 3969" d="M4751.749,2185.253a.44.44,0,0,0,.451-.277.385.385,0,0,0-.211-.471.439.439,0,0,0-.518.573A.347.347,0,0,0,4751.749,2185.253Z" transform="translate(-4707.666 -2155.19)" fill="#be92c2"/>
  <path id="Path_3970" data-name="Path 3970" d="M4744.792,2188.292a.27.27,0,0,0-.319.353.21.21,0,0,0,.171.108.27.27,0,0,0,.278-.171A.235.235,0,0,0,4744.792,2188.292Z" transform="translate(-4707.666 -2155.19)" fill="#be92c2"/>
  <path id="Path_3971" data-name="Path 3971" d="M4759.985,2182.706c-.024.007-.034.018-.059.025-5.017,1.47-12.3,4.6-14.845,6.522,1.541-.254,4.473-.714,6.164-.832a28.867,28.867,0,0,0,8.484-1.7c2.282-1.034,2.207-1.633,2.207-1.633A15.12,15.12,0,0,1,4759.985,2182.706Zm-5.677,3.052a.439.439,0,0,1-.45.277.345.345,0,0,1-.278-.175.439.439,0,0,1,.518-.573A.383.383,0,0,1,4754.308,2185.758Zm2.413-.569a.253.253,0,0,1-.259.158.2.2,0,0,1-.159-.1.252.252,0,0,1,.3-.329A.221.221,0,0,1,4756.721,2185.189Z" transform="translate(-4707.666 -2155.19)" fill="#be92c2"/>
  <path id="Path_3972" data-name="Path 3972" d="M4757.641,2182.753a.787.787,0,0,0,.807-.5.687.687,0,0,0-.377-.843.785.785,0,0,0-.927,1.025A.616.616,0,0,0,4757.641,2182.753Z" transform="translate(-4707.666 -2155.19)" fill="#be92c2"/>
  <rect id="frame" width="120" height="120" fill="none"/>
</svg>
