<svg id="music" xmlns="http://www.w3.org/2000/svg" width="120" height="120.001" viewBox="0 0 120 120.001">
  <path id="Path_5482" data-name="Path 5482" d="M114.285,79.843a24.152,24.152,0,0,0-.873-3.668q-.138-.426-.287-.834a22.71,22.71,0,0,0-7.592-10.349c-.32-.233-.5-.348-.5-.348L101.3,57H97.4c0-.03,0-.061,0-.091a.354.354,0,0,1,0,.091l1.352-.107s-6.058-43.9-45.968-39.268c0,0-.407.041-1.132.153a38.715,38.715,0,0,0-5.784,1.267C33.9,22.36,10.845,32.977,13.444,65.3l-.049.015-2.879.859-.5,4.125-.564,4.628L9.41,75l0,.005c-.025.05-.062.124-.111.224l-.006.013c-.1.2-.236.5-.4.879l-.007.015A44,44,0,0,0,5.52,89.492l0,.034a41.55,41.55,0,0,0,.089,8.458C7.1,111.006,16.066,115.916,19.055,117.2c1.644.705,5.74-.4,9.095-1.535,0,0,.073.039.179.093.073.038.17.084.291.139.171.08.372.169.633.272.178.07.376.143.592.218.294.1.634.2.994.3q.424.114.906.215c.476.1.981.191,1.533.253.353.04.721.069,1.1.087s.758.022,1.156.013c.357-.009.726-.034,1.1-.068.081-.007.161-.014.243-.023.372-.039.751-.09,1.139-.158.065-.011.13-.026.195-.038q.537-.1,1.091-.241c.068-.018.134-.032.2-.051.4-.108.815-.237,1.231-.381.092-.032.183-.066.274-.1.432-.157.868-.329,1.311-.53s.85-.411,1.262-.636c.136-.074.27-.15.4-.227.28-.161.554-.33.825-.5.171-.11.343-.219.51-.334.287-.2.571-.4.848-.619.059-.046.121-.088.18-.134.178-.141.346-.294.519-.441.081-.069.162-.138.242-.208.14-.123.285-.242.422-.37.206-.191.4-.4.6-.6.171-.173.344-.343.508-.524.187-.2.364-.42.543-.633.163-.195.328-.389.485-.592s.33-.445.491-.672.307-.432.454-.656.3-.47.441-.71.284-.477.419-.723.264-.493.392-.746.257-.522.38-.79.232-.516.342-.78c.117-.282.23-.57.339-.861.1-.267.2-.537.292-.812.1-.3.2-.618.294-.933.084-.278.167-.556.243-.841.089-.332.168-.672.247-1.013.066-.286.133-.569.192-.862.074-.362.135-.736.2-1.109.047-.288.1-.572.141-.866.057-.4.1-.818.144-1.232.03-.282.067-.557.091-.844.04-.47.063-.955.088-1.44.008-.169.024-.332.03-.5a14.3,14.3,0,0,0,2.567-5.169c1.352-4.7,1.921-6.262,1.921-6.262l8.869.272L66.78,86.9s-2.775-2.064-5.835.854c-2.451,2.337-1.61,5.179.722,6.692h-.005l2.03,1.35v-.01a6.475,6.475,0,0,0,2.233,1.031c2,.5,3.477-.653,4.561-2.472a23.371,23.371,0,0,0,4.129,7.524l0,0a18.62,18.62,0,0,0,3.244,3.052q.459.336.918.631l.1.062q.41.259.815.488l.162.09q.372.206.739.385l.206.1c.229.108.455.21.68.305l.231.1c.216.088.428.169.639.247.078.028.157.06.234.087.211.074.417.141.621.205.07.022.143.048.213.069a17.344,17.344,0,0,0,4.328.743l.039,0,.166,0h.416a17.905,17.905,0,0,0,3.389-.419h0c.488-.1,1.009-.235,1.558-.4l.181-.054c.15-.046.3-.1.454-.146.091-.03.183-.062.275-.094.148-.052.3-.1.446-.16q.32-.118.643-.254c.131-.054.263-.114.395-.173s.254-.114.383-.174.264-.126.4-.192.284-.146.427-.222.284-.152.427-.233c.212-.12.424-.245.635-.377.121-.075.241-.156.361-.235.144-.1.288-.192.431-.293.122-.086.245-.172.366-.263.167-.123.332-.254.5-.386s.315-.258.471-.393l.11-.095c.187.019.375.037.565.05l.05,0c.274.018.55.026.827.028h.206c.295,0,.591-.012.889-.034l.047,0c.279-.022.559-.057.838-.1l.227-.035c.3-.05.592-.108.888-.182h0a9.074,9.074,0,0,0,3.69-1.96q.276-.237.542-.5a12.9,12.9,0,0,0,1.02-1.118c3.738-4.6,5.473-12.644,4.281-20.191M41.307,24.211a29.9,29.9,0,0,1,19.657,1.984c-5.2,1.921-11.257,4.166-11.257,4.166s-3.531,1.6-2.25,6.191c1.095,3.924,2.658,11.51,3.088,13.629A9.735,9.735,0,0,0,47.959,51c-2.615.537-6.091,2.188-5.411,7.22.757,5.609,6.407,6.639,10.252,4.7a7.011,7.011,0,0,0,5.626-4.5c1.766-5.764-2.041-17.379-2.041-17.379L67.4,36.232l1.722,7.237-.092.041c-.909.2-7.96,1.926-7.161,8.519.854,7.044,8.752,5.657,10.247,4.59l.014-.011a5.953,5.953,0,0,0,2.26-.748,10.2,10.2,0,0,0,3.629-9.606c-.354-2.034-1.367-5.864-2.433-9.652,5.857,6.423,8.684,14.6,9.9,19.256a6.718,6.718,0,0,0-1.976,1.683c-1.186,1.4-2.6,3.227-3.6,4.531a17.088,17.088,0,0,0-2.1.941,3.383,3.383,0,0,0-3.568-.509,4.294,4.294,0,0,0-1.835,5.02h0l.034.1a18.262,18.262,0,0,0-2.6,5.03c-3.7-.037-11.325.019-11.325.019a2.525,2.525,0,0,0-2.846,1.993c-.422,1.3-1.422,4.5-2.254,7.183a29.032,29.032,0,0,0-4.491-8.781v0q-.312-.41-.638-.8l-.017-.021q-.319-.384-.652-.752c-.011-.012-.022-.025-.034-.037q-.323-.357-.658-.7l-.06-.06q-.325-.327-.661-.637c-.028-.026-.057-.053-.087-.079q-.323-.3-.657-.577l-.122-.1c-.213-.176-.429-.348-.648-.514-.053-.041-.106-.08-.16-.119-.21-.156-.421-.309-.636-.455-.066-.045-.133-.088-.2-.132-.205-.136-.412-.27-.621-.4-.08-.049-.161-.094-.241-.142-.2-.117-.4-.232-.6-.341-.095-.051-.191-.1-.287-.146-.192-.1-.385-.2-.581-.287-.111-.052-.224-.1-.336-.148-.185-.08-.369-.161-.555-.235-.128-.05-.258-.094-.387-.141-.175-.064-.35-.13-.528-.188-.146-.048-.294-.088-.441-.131-.164-.048-.327-.1-.493-.142s-.341-.079-.512-.117c-.148-.032-.295-.07-.444-.1-.2-.039-.411-.068-.616-.1-.12-.018-.239-.041-.36-.056q-.492-.062-.993-.092c-.362-.021-.719-.023-1.071-.011-.116,0-.228.016-.342.024-.236.014-.472.03-.7.059-.131.016-.259.039-.389.06-.211.033-.422.068-.63.112-.131.028-.261.061-.391.093-.2.05-.4.1-.6.163-.125.038-.25.078-.374.12-.2.067-.4.14-.6.216-.115.045-.23.09-.344.138-.206.087-.41.18-.611.277-.1.047-.2.093-.3.142-.179.091-.356.187-.531.285L27.38,62.738H24.6s-2.758-27.145,16.7-38.527" transform="translate(0 0.001)" opacity="0.3"/>
  <path id="Path_5483" data-name="Path 5483" d="M52.079.377S5.061,5.04,8.894,52.717H19.74l.235-16.381S21.146,11.052,52.079.377" transform="translate(0 0.001)" fill="#4ac5d3"/>
  <path id="Path_5484" data-name="Path 5484" d="M88.87,46.412S86.129,28.134,73.557,17.823,50.785,5.13,39.481,7.61c0,0,3.209-2.91,10.489-5.254s26-2.811,38.9,12.889c0,0,12.42,17.341,12.186,28.355Z" transform="translate(0 0.001)" fill="#2b687f"/>
  <path id="Path_5485" data-name="Path 5485" d="M88.87,46.412S86.129,28.134,73.557,17.823,50.785,5.13,39.481,7.61c0,0,3.209-2.91,10.489-5.254s26-2.811,38.9,12.889c0,0,12.42,17.341,12.186,28.355Z" transform="translate(0 0.001)" opacity="0.2"/>
  <path id="Path_5486" data-name="Path 5486" d="M21.146,49.9S16.928,8.45,53.485,2.826,101.29,42.9,101.055,43.6l1.484-.118S95.89-4.714,52.079.376C13.76,4.829,18.32,49.9,18.32,49.9" transform="translate(0 0.001)" fill="#2b687f"/>
  <path id="Path_5487" data-name="Path 5487" d="M86.981,46.412,101.055,43.6h4.279l4.1,8.394a24.887,24.887,0,0,1,10.162,16.685c1.82,11.527-2.578,24.116-10.465,26.088s-16.078-4.1-16.078-4.1L82.431,82.329,81.369,68.072l5.612-14.561Z" transform="translate(0 0.001)" fill="#2f6b8e"/>
  <path id="Path_5488" data-name="Path 5488" d="M109.581,70.044c0,8.942-8.882,24.3-8.9,24.326a16.151,16.151,0,0,0,8.44.4c7.887-1.972,12.286-14.561,10.466-26.088a24.886,24.886,0,0,0-10.163-16.684l-4.1-8.4h-4.279l.639,9.117s7.887,8.378,7.887,17.327" transform="translate(0 0.001)" fill="#2b687f"/>
  <path id="Path_5489" data-name="Path 5489" d="M101.694,52.717l7.735-.722-4.095-8.4h-4.279Z" transform="translate(0 0.001)" opacity="0.2"/>
  <path id="Path_5490" data-name="Path 5490" d="M86.223,48.158s-19.111.954-16.684,26.891,21.538,25.026,21.538,25.026,21.993.3,20.021-27S86.223,48.158,86.223,48.158" transform="translate(0 0.001)" fill="#4ac5d3"/>
  <path id="Path_5491" data-name="Path 5491" d="M89.947,62.931a14.567,14.567,0,0,1,2.111,6.526c.546,5.047.969,9.92-1.784,14.479C84.1,94.16,78.336,81.023,78.942,74.093c.117-1.329.655-2.919.458-4.242a.742.742,0,0,1-.859.444,1.146,1.146,0,0,1-.759-.685,2.662,2.662,0,0,1-.178-1.041c-.043-2.869.727-7.043,3.4-8.673a5.971,5.971,0,0,1,5.734.152,8.512,8.512,0,0,1,3.208,2.883" transform="translate(0 0.001)" fill="#36a7a8"/>
  <path id="Path_5493" data-name="Path 5493" d="M88.195,64.28s-2.275,3.4-1.669,9.812a17.813,17.813,0,0,0,3.747,9.844C96.45,73.711,88.195,64.28,88.195,64.28" transform="translate(0 0.001)" fill="#107f77" opacity="0.4"/>
  <path id="Path_5494" data-name="Path 5494" d="M111.109,73.324a6.288,6.288,0,0,0-1.168-2.924,2.821,2.821,0,0,0-3.34-.923c-1.358.725-1.5,2.57-1.6,4.106a25.349,25.349,0,0,1-4,12c-2.2,3.4-6.452,5.149-8.19,8.834a3.588,3.588,0,0,0,.064,3.681,4.619,4.619,0,0,0,1.992,1.518c6.168-1.316,17.584-6.433,16.249-26.292" transform="translate(0 0.001)" fill="#36a7a8" opacity="0.4"/>
  <path id="Path_5495" data-name="Path 5495" d="M86.566,99.494c.049-.017.1-.027.148-.046-.049-.556-.647-.866-1.158-1.09C78.938,95.456,74.647,90,72.029,83.44a1.669,1.669,0,0,0-.61.894c3.491,10.449,10.508,13.983,15.147,15.16" transform="translate(0 0.001)" fill="#36a7a8"/>
  <path id="Path_5497" data-name="Path 5497" d="M97.2,51.117a1.228,1.228,0,0,0,0-1.054,24.473,24.473,0,0,0-10.975-1.9A18.159,18.159,0,0,0,75.14,53.531a.417.417,0,0,0,.01.149c.1.327.536.378.876.352a22.26,22.26,0,0,0,5.613-1.184c1.927-.691,3.915-1.918,6.038-1.345a17.117,17.117,0,0,1,2.672,1.286c1.819.856,5.813.288,6.853-1.672" transform="translate(0 0.001)" fill="#5edcdd"/>
  <path id="Path_5498" data-name="Path 5498" d="M94.264,62.642a2.1,2.1,0,0,1-2.271-.432,8.325,8.325,0,0,1-1.453-1.969,15.884,15.884,0,0,0-4.725-4.8c-.328-.215-.707-.493-.689-.884.047-1.013,2.563-.559,3.035-.373a7.651,7.651,0,0,1,2.385,1.806,13.794,13.794,0,0,1,3.718,6.656" transform="translate(0 0.001)" fill="#5edcdd"/>
  <path id="Path_5499" data-name="Path 5499" d="M88.35,86.171a.487.487,0,0,1-.2.44c-.127.115-.273.2-.4.307a1.758,1.758,0,0,1-.347.224,7.177,7.177,0,0,1-1.276.528c-.22.067-.444.123-.669.169-.206.041-.412.045-.614.086a10.3,10.3,0,0,1-3.423.116A5.655,5.655,0,0,1,78.544,86.9a5.855,5.855,0,0,1-1.695-2.726,12.2,12.2,0,0,1-.928-3.694c-.031-.844.342-1.847,1.29-1.211.838.563,1.181,2.258,1.574,3.141a8.946,8.946,0,0,0,1.241,2.178,3.2,3.2,0,0,0,2.131,1.207,16.693,16.693,0,0,0,3.162.234,15.237,15.237,0,0,1,2.463-.2c.241.014.543.1.568.342" transform="translate(0 0.001)" fill="#5edcdd"/>
  <path id="Path_5500" data-name="Path 5500" d="M53.849,77.156s-5.234-2.5-7.264,2.656,2.5,6.8,4.452,6.249,4.687-2.968,6.171-8.124,2.109-6.874,2.109-6.874l12.732.391L69.94,78.093s-3.046-2.265-6.405.938-1.094,7.275,2.968,8.285,6.171-4.145,7.187-8.754,3.358-13.9,3.358-13.9.7-2.109-2.421-2.187-13.748,0-13.748,0a2.772,2.772,0,0,0-3.124,2.187c-.86,2.656-3.906,12.5-3.906,12.5" transform="translate(0 0.001)" fill="#c1be15"/>
  <path id="Path_5501" data-name="Path 5501" d="M45.34,83.794l2.7,1.777,2.612-4.064Z" transform="translate(0 0.001)" fill="#c1be15"/>
  <path id="Path_5502" data-name="Path 5502" d="M61.825,84.714,64.054,86.2l-.224-2.014Z" transform="translate(0 0.001)" fill="#c1be15"/>
  <path id="Path_5503" data-name="Path 5503" d="M76.427,62.914l-2.351-1.565v2.123Z" transform="translate(0 0.001)" fill="#c1be15"/>
  <path id="Path_5504" data-name="Path 5504" d="M51.352,75.491s-5.234-2.5-7.264,2.656,2.5,6.8,4.452,6.249,4.687-2.968,6.171-8.124S56.82,69.4,56.82,69.4l12.732.391-2.109,6.639s-3.046-2.265-6.405.938-1.094,7.275,2.968,8.285,6.171-4.145,7.187-8.754,3.358-13.9,3.358-13.9a1.557,1.557,0,0,0-.475-1.645,3.173,3.173,0,0,0-1.946-.542c-3.125-.078-13.748,0-13.748,0a2.772,2.772,0,0,0-3.124,2.187c-.86,2.656-3.906,12.5-3.906,12.5" transform="translate(0 0.001)" fill="#f3eb0e"/>
  <path id="Path_5505" data-name="Path 5505" d="M81.323,53.49s-2.43-2.636-4.847-1.347S73.418,57.293,75.347,59c3.561,3.145,6.6-1.441,9.433-5.278,2.46-3.334,3.138-2.686,3.138-2.686l4.243,2.574-2.519,3.457s-4.042-1.641-6.151.351-.624,4.44.058,5.273c.882,1.076,5.776,2.11,9.608-4.218A48.8,48.8,0,0,1,98.9,50.429a1.731,1.731,0,0,0-.7-2.27c-1.406-.82-7.616-3.691-7.616-3.691S88.918,44,86.644,46.694s-5.321,6.8-5.321,6.8" transform="translate(0 0.001)" fill="#f13244"/>
  <path id="Path_5506" data-name="Path 5506" d="M73.629,55.156l1.049,2.988L76.1,55.156Z" transform="translate(0 0.001)" fill="#f13244"/>
  <path id="Path_5507" data-name="Path 5507" d="M98.16,46.59,99.074,49,97.48,50.643l-.762-3.34Z" transform="translate(0 0.001)" fill="#f13244"/>
  <path id="Path_5508" data-name="Path 5508" d="M81.605,57.78l1.163,3.62,3.044-2.146Z" transform="translate(0 0.001)" fill="#f13244"/>
  <path id="Path_5509" data-name="Path 5509" d="M80.491,50.992s-2.43-2.636-4.847-1.347-3.058,5.15-1.129,6.854c3.561,3.145,6.6-1.441,9.433-5.278,2.46-3.334,3.138-2.686,3.138-2.686l4.243,2.574L88.81,54.566s-4.042-1.641-6.151.351-.624,4.44.058,5.273c.882,1.076,5.776,2.11,9.608-4.218a48.8,48.8,0,0,1,5.741-8.041,1.731,1.731,0,0,0-.7-2.27c-1.406-.82-7.616-3.691-7.616-3.691S88.086,41.5,85.812,44.2s-5.321,6.8-5.321,6.8" transform="translate(0 0.001)" fill="#ff6f5f"/>
  <path id="Path_5510" data-name="Path 5510" d="M25.036,108a17.95,17.95,0,0,0,15.56,0c8.671-3.938,14.06-13.077,13.826-27.137s-9.139-27.418-21.09-28.121S14.116,68.167,14.116,68.167Z" transform="translate(0 0.001)" fill="#4ac5d3"/>
  <path id="Path_5511" data-name="Path 5511" d="M48.348,64.665a3.414,3.414,0,0,0-.291-2.986c-.065-.148-.137-.292-.2-.439-3.716-4.879-8.763-8.162-14.523-8.5a14.26,14.26,0,0,0-8.863,2.635c.075.036.15.069.225.1,3.525,1.39,7.7.877,10.942,2.843,1.934,1.174,3.276,3.087,4.858,4.705s3.692,3.038,5.935,2.747a2.53,2.53,0,0,0,1.919-1.1" transform="translate(0 0.001)" fill="#5edcdd"/>
  <path id="Path_5512" data-name="Path 5512" d="M21.554,95.3,25.036,108a17.949,17.949,0,0,0,15.56,0,21.164,21.164,0,0,0,7.731-5.982,3.586,3.586,0,0,0-.893-2.5c-1.121-1.13-3-.955-4.491-.394-1.423.537-2.9,1.5-4.46,1.429a24.277,24.277,0,0,1-.337-2.632A30.43,30.43,0,0,1,39,94.153a45.523,45.523,0,0,0,.777-7.787,45.45,45.45,0,0,0-2.456-15.4,22.986,22.986,0,0,0-5.692-9.556,15.368,15.368,0,0,0-6.3-3.515l-2.665.438c-2.342.552-3.589,3.276-3.438,5.678s1.313,4.6,2.2,6.84a31.557,31.557,0,0,1,2.186,12.913A53.95,53.95,0,0,1,21.554,95.3" transform="translate(0 0.001)" fill="#36a7a8" opacity="0.4"/>
  <path id="Path_5514" data-name="Path 5514" d="M5.68,53.676,4.508,63.284A47.3,47.3,0,0,0,.29,88.592c1.641,14.295,11.483,19.685,14.764,21.091s15.466-3.75,15.466-3.75,9.373-5.858,4.921-31.635c0,0-2.187-10.311-8.28-15.623L24.193,49.9H18.321Z" transform="translate(0 0.001)" fill="#2b687f"/>
  <path id="Path_5515" data-name="Path 5515" d="M26.067,71.8A19.246,19.246,0,0,0,18.32,60.551V49.9L5.68,53.677,4.508,63.285A47.3,47.3,0,0,0,.29,88.593c1.64,14.295,11.483,19.685,14.763,21.091C30.91,109.137,27.786,79.3,26.067,71.8" transform="translate(0 0.001)" fill="#3a87a5"/>
  <path id="Path_5516" data-name="Path 5516" d="M7.455,65.959c-.058.02-.116.041-.175.064-3.979,1.5-5.343,7.792-5.9,11.556-1.29,8.772,1.651,23.37,9.306,24.62s9.258-11.825,7.631-22.284c-.739-4.753-3.431-16.555-10.865-13.956" transform="translate(0 0.001)" fill="#2f6b8e"/>
  <path id="Path_5517" data-name="Path 5517" d="M7.455,65.959c-.058.02-.116.041-.175.064-3.979,1.5-5.343,7.792-5.9,11.556-1.29,8.772,1.651,23.37,9.306,24.62s9.258-11.825,7.631-22.284c-.739-4.753-3.431-16.555-10.865-13.956" transform="translate(0 0.001)" opacity="0.2"/>
  <path id="Path_5518" data-name="Path 5518" d="M7.249,66.808l-.169.062c-3.851,1.463-5.171,7.61-5.706,11.286-1.249,8.567,1.6,22.824,9,24.044s8.959-11.548,7.385-21.762c-.715-4.641-3.32-16.167-10.514-13.63" transform="translate(0 0.001)" fill="#2f6b8e"/>
  <path id="Path_5519" data-name="Path 5519" d="M18.32,60.55l8.84-1.875L24.192,49.9H18.32Z" transform="translate(0 0.001)" opacity="0.2"/>
  <path id="Path_5520" data-name="Path 5520" d="M18.32,60.55V49.9L5.679,53.676,4.508,63.284c6.327-7.85,13.812-2.734,13.812-2.734" transform="translate(0 0.001)" fill="#43aec6"/>
  <path id="Path_5521" data-name="Path 5521" d="M35.441,74.3s-2.187-10.311-8.28-15.623L24.193,49.9H18.321L5.68,53.676,4.508,63.284A46.618,46.618,0,0,0,.059,81.231a14.625,14.625,0,0,1,12.729-6.25c8.593.411,21.242,1.251,23.744,8.955.007.023.015.042.023.065a80.726,80.726,0,0,0-1.114-9.7" transform="translate(0 0.001)" fill="#57d2e0" opacity="0.23"/>
  <path id="Path_5522" data-name="Path 5522" d="M49.747,36.74s-10.077-.469-8.905,8.2,13,7.381,14.934,1.054-2.241-19.077-2.241-19.077l14.531-6.348,1.951,8.2s-8.9,1.64-7.967,9.373,9.608,6.21,11.248,5.038a11.2,11.2,0,0,0,3.984-10.545c-.938-5.39-6.093-22.262-6.093-22.262s-.924-3.984-6.965-1.758S48.7,14.361,48.7,14.361s-3.876,1.757-2.47,6.8S49.747,36.74,49.747,36.74" transform="translate(0 0.001)" fill="#92f49b"/>
  <path id="Path_5523" data-name="Path 5523" d="M52.244,35.908s-10.077-.469-8.9,8.2,12.995,7.381,14.934,1.054-2.241-19.077-2.241-19.077l14.531-6.348,1.951,8.2s-8.9,1.64-7.967,9.373,9.608,6.21,11.248,5.038a11.2,11.2,0,0,0,3.984-10.545c-.938-5.39-6.093-22.262-6.093-22.262s-.924-3.984-6.965-1.758S51.2,13.529,51.2,13.529s-3.876,1.757-2.47,6.8,3.515,15.583,3.515,15.583" transform="translate(0 0.001)" fill="#61ec77"/>
  <rect id="frame" width="120" height="120" transform="translate(0 0.001)" fill="none"/>
</svg>
