<svg xmlns="http://www.w3.org/2000/svg" width="120" height="120" viewBox="0 0 120 120"><defs><style>.a{fill:none;}.b{opacity:0.2;mix-blend-mode:multiply;}.b,.i,.j,.k{isolation:isolate;}.c{fill:#1d1d1b;}.d{fill:#8cc63f;}.e{fill:#f0f;}.f{fill:#29abe2;}.g{fill:#ffda00;}.h{fill:#754c24;}.i,.j,.k,.l,.m,.n{fill:#fff;}.i{opacity:0.35;}.i,.j,.k{mix-blend-mode:screen;}.j{opacity:0.17;}.k{opacity:0.31;}.l{opacity:0.3;}.m{opacity:0.15;}.n{opacity:0.5;}</style></defs><rect class="a" width="120" height="120"/><g transform="translate(-2115.422 453.672)"><g class="b"><path class="c" d="M2180.006-435.105c6.7,1.086-.112,17.762-1.986,21.842-1.875,4.013-5.878,6.537-9.89,5.873C2154.185-409.636,2162.615-437.926,2180.006-435.105Z"/><path class="c" d="M2134.987-400.85c-.279-7.054,2.553-15.718,7.73-17.823,2.484-1.01,8.043,8.159,9.362,12.233a10.736,10.736,0,0,1,.11,7.5c-1.786,5.259-6.96,8.24-11.55,6.655A8.853,8.853,0,0,1,2134.987-400.85Z"/><path class="c" d="M2194.339-398.119c-3.479-1.9-5.064-6.265-4.093-10.465.993-4.283,5.745-21.236,11.572-18.061C2216.936-418.39,2206.453-391.519,2194.339-398.119Z"/><path class="c" d="M2216.637-373.395a8.854,8.854,0,0,1-9.715,3.238c-4.553-1.566-6.791-7.069-5-12.268a10.656,10.656,0,0,1,4.672-5.845c3.544-2.361,13.508-6.188,14.838-3.888C2224.205-387.326,2221.13-378.794,2216.637-373.395Z"/><path class="c" d="M2193.35-359.4a26.9,26.9,0,0,1-16.26,15.373c-5.641,1.923-9.287-3.431-15.179-5.836-4.84-1.966-11.379.059-14.125-4.013a26.775,26.775,0,0,1-2.474-25.106c2.242-5.472,8.022-7.012,12.648-9.923,6.844-4.286,13.51-8.175,21.424-4.939,7.441,3.022,10.02,9.821,12.2,17.079C2193.3-371.112,2195.794-365.368,2193.35-359.4Z"/></g><path class="d" d="M2178.4-440.9c6.7,1.086-.112,17.762-1.986,21.842-1.876,4.013-5.878,6.536-9.89,5.872C2152.581-415.437,2161.011-443.727,2178.4-440.9Z"/><path class="e" d="M2133.384-406.65c-.279-7.055,2.553-15.719,7.73-17.823,2.483-1.01,8.042,8.159,9.362,12.233a10.741,10.741,0,0,1,.11,7.5c-1.787,5.258-6.96,8.24-11.55,6.655A8.853,8.853,0,0,1,2133.384-406.65Z"/><path class="f" d="M2192.735-403.919c-3.478-1.9-5.063-6.266-4.093-10.466.994-4.283,5.746-21.235,11.572-18.06C2215.332-424.191,2204.85-397.32,2192.735-403.919Z"/><path class="g" d="M2215.033-379.2a8.852,8.852,0,0,1-9.714,3.239c-4.553-1.567-6.792-7.07-5-12.268a10.658,10.658,0,0,1,4.672-5.846c3.544-2.36,13.508-6.187,14.837-3.888C2222.6-393.126,2219.527-384.6,2215.033-379.2Z"/><path class="h" d="M2193.8-366.995a26.891,26.891,0,0,1-16.26,15.374c-5.641,1.922-9.286-3.432-15.178-5.836-4.841-1.967-11.379.059-14.126-4.014a26.772,26.772,0,0,1-2.474-25.1c2.242-5.472,8.023-7.013,12.648-9.923,6.844-4.286,13.51-8.175,21.424-4.939,7.441,3.022,10.02,9.821,12.205,17.079C2193.745-378.709,2196.244-372.965,2193.8-366.995Z"/><path class="i" d="M2147.478-418.347c-2.151-3.523-4.838-6.747-6.364-6.126-5.074,2.062-7.893,10.424-7.741,17.4A116.077,116.077,0,0,1,2147.478-418.347Z"/><path class="j" d="M2178.4-440.9c-10.209-1.657-17.327,7.407-18.647,15.631,6.572-2.937,13.636-4.762,20.4-3.975C2181.663-434.722,2182.182-440.293,2178.4-440.9Z"/><path class="j" d="M2200.214-432.445c-3.2-1.742-6.068,2.572-8.174,7.529a48.476,48.476,0,0,1,13.967,14.1C2209.087-417.936,2208.447-427.95,2200.214-432.445Z"/><path class="k" d="M2219.829-397.959c-.672-1.163-3.555-.757-6.7.232a91.033,91.033,0,0,1,4.842,14.176C2220.668-388.494,2221.933-394.291,2219.829-397.959Z"/><path class="j" d="M2192.038-384.359c-2.185-7.258-4.764-14.057-12.205-17.079-7.914-3.236-14.58.653-21.424,4.939-4.625,2.91-10.406,4.451-12.648,9.923a27.673,27.673,0,0,0-.992,2.883c7.375-1.6,19.614-3.217,29.734.451,7.962,2.885,14.678,9.9,19.354,16.1C2196.2-373.061,2193.731-378.756,2192.038-384.359Z"/><path class="l" d="M2136.178-411.887c.424-2.3,2-4.845,3.883-5.168.87-.13,2.019,3.245,2.053,4.664a3.742,3.742,0,0,1-.5,2.5,3.062,3.062,0,0,1-4.246,1.279A3.323,3.323,0,0,1,2136.178-411.887Z"/><path class="m" d="M2163.822-395.091a11.343,11.343,0,0,0-2.067,1.6c-.676.648-1.242,1.526-1.971,2.1-.331.261-.721.48-1.076.722q-1.2.819-2.38,1.668-1.354.975-2.679,1.991a3.925,3.925,0,0,0-.889.736,7.347,7.347,0,0,0-.385.828,9.683,9.683,0,0,0-1.008,2.623,4.81,4.81,0,0,0,.229,2.5,3.827,3.827,0,0,0,.626,1.419,6.845,6.845,0,0,0,4.671,1.875,7.475,7.475,0,0,0,6.173-3.093c1.278-1.8,1.719-4.075,3.094-5.813a4.9,4.9,0,0,1,1.683-1.461,6.914,6.914,0,0,0,1.216-.957,18.349,18.349,0,0,0,2.256-2.373,5.672,5.672,0,0,0,1.526-3.77c-.142-1.909-1.92-2.594-3.583-2.466A12.836,12.836,0,0,0,2163.822-395.091Z"/><path class="l" d="M2172.3-435.026c2.231.769-1.235,5.993-2.136,7.228a3.317,3.317,0,0,1-3.675,1.347C2162-428.238,2166.747-437.181,2172.3-435.026Z"/><path class="l" d="M2194.616-420.7a3.2,3.2,0,0,1-.766-3.679c.537-1.316,3.027-6.584,4.766-5.225C2203.1-426.105,2198.165-417.845,2194.616-420.7Z"/><path class="n" d="M2216.386-388.68a3.308,3.308,0,0,1-3.488,1.382,3.467,3.467,0,0,1-2.027-4.385,4.473,4.473,0,0,1,1.639-2.264c1.287-.972,4.785-2.474,5.32-1.706C2218.88-393.878,2218-390.706,2216.386-388.68Z"/></g></svg>