<svg id="news" xmlns="http://www.w3.org/2000/svg" xmlns:xlink="http://www.w3.org/1999/xlink" width="70" height="70" viewBox="0 0 70 70">
  <defs>
    <clipPath id="clip-path">
      <rect id="Rectangle_3307" data-name="Rectangle 3307" width="70" height="70" fill="none"/>
    </clipPath>
    <clipPath id="clip-path-3">
      <rect id="Rectangle_3266" data-name="Rectangle 3266" width="61.956" height="61.957" transform="translate(2.578 3.87)" fill="none"/>
    </clipPath>
    <clipPath id="clip-path-4">
      <rect id="Rectangle_3267" data-name="Rectangle 3267" width="22.074" height="53.557" transform="translate(4.852 8.405)" fill="none"/>
    </clipPath>
    <clipPath id="clip-path-5">
      <rect id="Rectangle_3268" data-name="Rectangle 3268" width="45.657" height="17.665" transform="translate(10.641 1.402)" fill="none"/>
    </clipPath>
    <clipPath id="clip-path-6">
      <rect id="Rectangle_3269" data-name="Rectangle 3269" width="16.346" height="46.372" transform="translate(6.85 15.416)" fill="none"/>
    </clipPath>
    <clipPath id="clip-path-7">
      <path id="Path_5778" data-name="Path 5778" d="M16.2,21.012s5.322,18.261,9.1,30.275L55.716,44.92s-5.879-26.872-7.477-29.273c-.181-.272-.823-.391-1.808-.391-6.844,0-30.233,5.756-30.233,5.756" fill="none"/>
    </clipPath>
    <linearGradient id="linear-gradient" x1="-0.307" y1="1.382" x2="-0.284" y2="1.382" gradientUnits="objectBoundingBox">
      <stop offset="0" stop-color="#c38ac3"/>
      <stop offset="0.192" stop-color="#c38ac3"/>
      <stop offset="0.392" stop-color="#bf86bf"/>
      <stop offset="0.588" stop-color="#b37bb3"/>
      <stop offset="0.782" stop-color="#9f689f"/>
      <stop offset="0.974" stop-color="#844f84"/>
      <stop offset="1" stop-color="#804b80"/>
    </linearGradient>
    <clipPath id="clip-path-9">
      <rect id="Rectangle_3272" data-name="Rectangle 3272" width="34.098" height="14.615" transform="translate(21.647 36.858)" fill="none"/>
    </clipPath>
    <clipPath id="clip-path-10">
      <path id="Path_5782" data-name="Path 5782" d="M41.649,26.9s-.9.524-1.095.971c-.128.3.185.469.4.547a1.419,1.419,0,0,0,.189.054s.143.468.358.44h0v0l0,.007,0,.011a4.47,4.47,0,0,0,.237.544l.006.009a.532.532,0,0,0,.045.07l-.23.358s-.36-.042-.5-.073a2.62,2.62,0,0,0-.769-.173c-.2.035-1.121,1.174-1.644,1.285l.333.342.04.041-.532.718a3.6,3.6,0,0,0-.544-.014c-.283.017-1.576.006-1.576.006s-.535-.818-.614-.906a2.906,2.906,0,0,0-.54-.48,7.008,7.008,0,0,0,.443,1.226l.23.7a.7.7,0,0,1-.341-.028,1.49,1.49,0,0,0-.741.192c-.077.073.562.067.685.235s.868,0,1.112-.03c.121-.012.655.038,1.176.087s1.053.1,1.1.086a10.693,10.693,0,0,0,.791-.819l-.621,2.1-.1.03.031.231h0a5.038,5.038,0,0,1-1.8,1.815h0l.274.606-.065.054a3.475,3.475,0,0,1-.343.259c-.011,0-.024.026-.036.056h0c-.041.1-.075.32-.1.339l4.793-1.271.075-.132s-.181-.594-.216-.774c0,0,.005-.032.013-.09.013-.089.035-.24.071-.43a7.753,7.753,0,0,1,.807-2.442l.184,1.044.11-.021s.109.444.158.589.135.531.358,1.1.155.708.155.708-.194.263-.252.355.024.29.013.578-.052.46-.015.5a.221.221,0,0,0,.3-.074c.061-.136.253-.691.253-.691s.26.441.5.852a2,2,0,0,0,.444.579c.039.03.141-.022.141-.022s.1.076.19-.085a4.565,4.565,0,0,0,.106-.693c0,.05.037.317.084.349s.149-.333.091-.608a8.939,8.939,0,0,0-.835-1.272c-.034-.082-.692-2.413-.719-2.621l.563-.576a2.159,2.159,0,0,1-.406-.921,4.856,4.856,0,0,0-.12-.931,5.2,5.2,0,0,0-1.1-.548l.086-.229a2.76,2.76,0,0,0,.7-.51,3.25,3.25,0,0,0,.32-.759c.03-.093.048-.155.048-.155l.071-.029c.259-.109,1.141-.527,1.134-1.175-.01-.76-1.181-.824-1.181-.824a.6.6,0,0,0-.493-.509,1.752,1.752,0,0,0-.376-.041,1.368,1.368,0,0,0-1.327.874" fill="none"/>
    </clipPath>
    <linearGradient id="linear-gradient-2" x1="-2.312" y1="3.41" x2="-2.241" y2="3.41" gradientUnits="objectBoundingBox">
      <stop offset="0" stop-color="#753d75"/>
      <stop offset="0.994" stop-color="#966396"/>
      <stop offset="1" stop-color="#966396"/>
    </linearGradient>
    <clipPath id="clip-path-11">
      <path id="Path_5783" data-name="Path 5783" d="M38.1,38.032l.021-.014-.005,0-.016.017m.021-.014.412.27.874-1.115Zm1.286-.845.445-.293-.124-.118Z" fill="none"/>
    </clipPath>
    <linearGradient id="linear-gradient-3" x1="-20.307" y1="16.385" x2="-19.773" y2="16.385" xlink:href="#linear-gradient-2"/>
    <clipPath id="clip-path-13">
      <rect id="Rectangle_3276" data-name="Rectangle 3276" width="2.293" height="0.896" transform="translate(40.458 29.528)" fill="none"/>
    </clipPath>
    <clipPath id="clip-path-14">
      <rect id="Rectangle_3277" data-name="Rectangle 3277" width="3.294" height="2.898" transform="translate(40.967 26.921)" fill="none"/>
    </clipPath>
    <clipPath id="clip-path-15">
      <rect id="Rectangle_3278" data-name="Rectangle 3278" width="1.147" height="2.507" transform="translate(41.895 31.572)" fill="none"/>
    </clipPath>
    <clipPath id="clip-path-16">
      <rect id="Rectangle_3279" data-name="Rectangle 3279" width="1.642" height="1.051" transform="translate(42.651 32.661)" fill="none"/>
    </clipPath>
    <clipPath id="clip-path-17">
      <rect id="Rectangle_3280" data-name="Rectangle 3280" width="1.024" height="1.4" transform="translate(38.656 30.956)" fill="none"/>
    </clipPath>
    <clipPath id="clip-path-18">
      <rect id="Rectangle_3281" data-name="Rectangle 3281" width="0.864" height="2.021" transform="translate(39.053 35.019)" fill="none"/>
    </clipPath>
    <clipPath id="clip-path-19">
      <rect id="Rectangle_3282" data-name="Rectangle 3282" width="2.528" height="1.267" transform="translate(39.061 34.789)" fill="none"/>
    </clipPath>
    <clipPath id="clip-path-20">
      <rect id="Rectangle_3283" data-name="Rectangle 3283" width="1.074" height="1.307" transform="translate(37.021 37.153)" fill="none"/>
    </clipPath>
    <clipPath id="clip-path-21">
      <rect id="Rectangle_3284" data-name="Rectangle 3284" width="0.553" height="1.278" transform="translate(44.259 36.889)" fill="none"/>
    </clipPath>
    <clipPath id="clip-path-22">
      <rect id="Rectangle_3285" data-name="Rectangle 3285" width="0.282" height="1.045" transform="translate(44.737 36.957)" fill="none"/>
    </clipPath>
    <clipPath id="clip-path-23">
      <rect id="Rectangle_3286" data-name="Rectangle 3286" width="25.341" height="7.866" transform="translate(25.299 39.924)" fill="none"/>
    </clipPath>
    <clipPath id="clip-path-24">
      <rect id="Rectangle_3287" data-name="Rectangle 3287" width="6.37" height="26.685" transform="translate(35.343 20.341)" fill="none"/>
    </clipPath>
    <clipPath id="clip-path-25">
      <path id="Path_5821" data-name="Path 5821" d="M37.845,24.727c-.93.677-1,3.688.479,4.263s2.654-1.616,2.609-2.656-.616-2.164-1.673-2.164a2.458,2.458,0,0,0-1.415.557" fill="none"/>
    </clipPath>
    <linearGradient id="linear-gradient-4" x1="-7.43" y1="7.724" x2="-7.226" y2="7.724" gradientUnits="objectBoundingBox">
      <stop offset="0" stop-color="#4e164e"/>
      <stop offset="0.016" stop-color="#4e164e"/>
      <stop offset="1" stop-color="#551d55"/>
    </linearGradient>
    <clipPath id="clip-path-26">
      <path id="Path_5822" data-name="Path 5822" d="M27.034,37.252a4.427,4.427,0,0,0,.808,2.756c.521.4,1.015,1.551,1.2,1.56a5.432,5.432,0,0,0,1.12-.782s.522-1.346.083-1.56c-.4-.193-2.627-2.03-3.122-2.03a.085.085,0,0,0-.092.056" fill="none"/>
    </clipPath>
    <linearGradient id="linear-gradient-5" x1="-6.022" y1="6.729" x2="-5.796" y2="6.729" xlink:href="#linear-gradient-4"/>
    <clipPath id="clip-path-27">
      <path id="Path_5823" data-name="Path 5823" d="M38,28.8s0,.448-.156.449-.413-.5-2.124-.234a12.9,12.9,0,0,1-2.308-.183c-.694-.092-1.85-.209-2.122-.219s-.5.609-.492.9,3.253,1.413,3.943,1.85,2.522,1.734,2.872,3.029a4.665,4.665,0,0,1,.088,2.5c-.1.321-3.826,1.229-4.9,1.476s-3.138.846-3.361.961.5,1.372.728,1.456a9.243,9.243,0,0,0,3.386-.2,8.7,8.7,0,0,1,2.841.082,11.253,11.253,0,0,0,2.924.115,9.417,9.417,0,0,0,3.665-1.151c.339-.333.52-1.291-.2-2.829s-.7-7.031-1.062-7.424-1.577-.463-1.772-.595a.667.667,0,0,1-.218-.446Z" fill="none"/>
    </clipPath>
    <linearGradient id="linear-gradient-6" x1="-1.765" y1="2.91" x2="-1.703" y2="2.91" xlink:href="#linear-gradient-4"/>
    <clipPath id="clip-path-28">
      <path id="Path_5824" data-name="Path 5824" d="M39.528,23.847a4.481,4.481,0,0,0-1.757.941c.589,1.877,3.125,1.186,3.1,1.03s.841-.55.736-.833a2.754,2.754,0,0,0-1.892-1.154,1.013,1.013,0,0,0-.183.016" fill="none"/>
    </clipPath>
    <linearGradient id="linear-gradient-7" x1="-8.689" y1="13.625" x2="-8.457" y2="13.625" xlink:href="#linear-gradient-4"/>
    <clipPath id="clip-path-30">
      <rect id="Rectangle_3293" data-name="Rectangle 3293" width="11.006" height="11.515" transform="translate(32.095 28.958)" fill="none"/>
    </clipPath>
    <clipPath id="clip-path-31">
      <rect id="Rectangle_3294" data-name="Rectangle 3294" width="2.461" height="2.922" transform="translate(38.42 25.489)" fill="none"/>
    </clipPath>
    <clipPath id="clip-path-32">
      <path id="Path_5831" data-name="Path 5831" d="M26.85,42.15c-.588.079.2.329-.269.722s-2.888-.058-3.61.888l2.354,7.713,10.566-2.211a3.555,3.555,0,0,0-.409-2.631c-.786-1.718-3.758-2.057-3.123-2.58s2.462-1.817-1.11-2.028c-.988-.059-1.721-.081-2.277-.081a8.5,8.5,0,0,0-2.122.208" fill="none"/>
    </clipPath>
    <linearGradient id="linear-gradient-8" x1="-1.529" y1="2.533" x2="-1.46" y2="2.533" gradientUnits="objectBoundingBox">
      <stop offset="0" stop-color="#5e255e"/>
      <stop offset="0.99" stop-color="#672e67"/>
      <stop offset="1" stop-color="#672e67"/>
    </linearGradient>
    <clipPath id="clip-path-33">
      <path id="Path_5832" data-name="Path 5832" d="M27.846,45.146c.963,1.26,2.371-.34,3.869-1.471s-4.059-1.057-4.543-1.155h-.014c-.247,0-.258,1.388.688,2.627" fill="none"/>
    </clipPath>
    <linearGradient id="linear-gradient-9" x1="-3.898" y1="5.78" x2="-3.752" y2="5.78" gradientUnits="objectBoundingBox">
      <stop offset="0" stop-color="#c28ac2"/>
      <stop offset="1" stop-color="#9f6c9f"/>
    </linearGradient>
    <clipPath id="clip-path-35">
      <rect id="Rectangle_3298" data-name="Rectangle 3298" width="6.177" height="5.399" transform="translate(25.812 42.944)" fill="none"/>
    </clipPath>
    <clipPath id="clip-path-36">
      <rect id="Rectangle_3299" data-name="Rectangle 3299" width="0.809" height="0.569" transform="translate(28.921 44.562)" fill="none"/>
    </clipPath>
    <clipPath id="clip-path-37">
      <rect id="Rectangle_3300" data-name="Rectangle 3300" width="0.508" height="0.503" transform="translate(28.193 44.775)" fill="none"/>
    </clipPath>
    <clipPath id="clip-path-38">
      <rect id="Rectangle_3301" data-name="Rectangle 3301" width="1.008" height="0.815" transform="translate(27.722 43.752)" fill="none"/>
    </clipPath>
    <clipPath id="clip-path-39">
      <rect id="Rectangle_3302" data-name="Rectangle 3302" width="14.547" height="32.088" transform="translate(49.516 12.803)" fill="none"/>
    </clipPath>
    <clipPath id="clip-path-40">
      <rect id="Rectangle_3303" data-name="Rectangle 3303" width="9.572" height="18.361" transform="translate(51.294 14.192)" fill="none"/>
    </clipPath>
    <clipPath id="clip-path-41">
      <rect id="Rectangle_3304" data-name="Rectangle 3304" width="7.836" height="10.262" transform="translate(55.378 33.023)" fill="none"/>
    </clipPath>
    <clipPath id="clip-path-42">
      <rect id="Rectangle_3305" data-name="Rectangle 3305" width="38.633" height="14.953" transform="translate(26.604 46.253)" fill="none"/>
    </clipPath>
  </defs>
  <g id="Group_8357" data-name="Group 8357" clip-path="url(#clip-path)">
    <g id="Group_8261" data-name="Group 8261">
      <g id="Group_8260" data-name="Group 8260" clip-path="url(#clip-path)">
        <g id="Group_8250" data-name="Group 8250" opacity="0.3">
          <g id="Group_8249" data-name="Group 8249">
            <g id="Group_8248" data-name="Group 8248" clip-path="url(#clip-path-3)">
              <path id="Path_5773" data-name="Path 5773" d="M52.285,3.933c-.392-.445-12.02,1.555-24.405,3.585C17.437,9.23,6.409,10.943,3.528,12.3c-.3-.092-.528.065-.691.505a.383.383,0,0,0-.025.069C.955,18.532,10.723,59.489,12.53,62.7c.007.013.018.025.026.038a1.356,1.356,0,0,0,.3.437c.024.018.052.034.077.052,1.484,1.541,5.148,2.169,7.989,2.424h0c2.089.188,3.732.175,3.732.175l-.061-.185c15.88-.075,39.708-7.192,39.936-9.066.3-2.471-9.75-49.812-12.243-52.643"/>
            </g>
          </g>
        </g>
        <path id="Path_5774" data-name="Path 5774" d="M15.129,59.311C13.2,57.877,3.884,14.148,5.086,9.007c.333-1.424,13.086-3.39,25.068-5.354C42.539,1.623,54.168-.377,54.56.068,57.053,2.9,67.1,50.241,66.8,52.711s-41.636,14.06-51.674,6.6" fill="#ededed" fill-rule="evenodd"/>
        <g id="Group_8253" data-name="Group 8253" opacity="0.5" style="mix-blend-mode: multiply;isolation: isolate">
          <g id="Group_8252" data-name="Group 8252">
            <g id="Group_8251" data-name="Group 8251" clip-path="url(#clip-path-4)">
              <path id="Path_5775" data-name="Path 5775" d="M5.086,9.007c2.368-7.221,21.84,52.955,21.84,52.955s-10.315.086-12.122-3.126S3.23,14.667,5.086,9.007" fill="#86579a" fill-rule="evenodd"/>
            </g>
          </g>
        </g>
        <g id="Group_8256" data-name="Group 8256" opacity="0.68" style="mix-blend-mode: multiply;isolation: isolate">
          <g id="Group_8255" data-name="Group 8255">
            <g id="Group_8254" data-name="Group 8254" clip-path="url(#clip-path-5)">
              <path id="Path_5776" data-name="Path 5776" d="M10.715,8.3c-.64.165,3.076,10.692,3.421,10.768s41.613-7.485,42.1-8.186S54.174,1.5,53.428,1.4c-.5-.062-10.07,1.009-22.667,3.1C24.572,5.532,17.607,6.523,10.715,8.3" fill="#d9b1d4" fill-rule="evenodd"/>
            </g>
          </g>
        </g>
        <g id="Group_8259" data-name="Group 8259" opacity="0.68" style="mix-blend-mode: multiply;isolation: isolate">
          <g id="Group_8258" data-name="Group 8258">
            <g id="Group_8257" data-name="Group 8257" clip-path="url(#clip-path-6)">
              <path id="Path_5777" data-name="Path 5777" d="M18.886,60.974S10.092,42.794,6.849,15.416c0,0,13.9,28.6,16.346,46.372Z" fill="#7e247c" fill-rule="evenodd"/>
            </g>
          </g>
        </g>
      </g>
    </g>
    <g id="Group_8263" data-name="Group 8263">
      <g id="Group_8262" data-name="Group 8262" clip-path="url(#clip-path-7)">
        <rect id="Rectangle_3271" data-name="Rectangle 3271" width="44.574" height="41.663" transform="matrix(0.988, -0.153, 0.153, 0.988, 10.74, 16.103)" fill="url(#linear-gradient)"/>
      </g>
    </g>
    <g id="Group_8268" data-name="Group 8268">
      <g id="Group_8267" data-name="Group 8267" clip-path="url(#clip-path)">
        <path id="Path_5779" data-name="Path 5779" d="M31.955,26.622l4.054-9.957.844-.131-3.736,9.307Z" fill="#683068" fill-rule="evenodd"/>
        <path id="Path_5780" data-name="Path 5780" d="M37.615,16.353l.5,10.681.994.651-.9-11.425Z" fill="#683068" fill-rule="evenodd"/>
        <g id="Group_8266" data-name="Group 8266" opacity="0.68" style="mix-blend-mode: multiply;isolation: isolate">
          <g id="Group_8265" data-name="Group 8265">
            <g id="Group_8264" data-name="Group 8264" clip-path="url(#clip-path-9)">
              <path id="Path_5781" data-name="Path 5781" d="M21.647,39.479A176.892,176.892,0,0,1,39.916,37a100.426,100.426,0,0,1,13.741.2l2.088,7.9-30.42,6.368Z" fill="#8d5a8d"/>
            </g>
          </g>
        </g>
      </g>
    </g>
    <g id="Group_8270" data-name="Group 8270">
      <g id="Group_8269" data-name="Group 8269" clip-path="url(#clip-path-10)">
        <rect id="Rectangle_3274" data-name="Rectangle 3274" width="14.241" height="13.025" transform="matrix(0.219, -0.976, 0.976, 0.219, 32.125, 37.656)" fill="url(#linear-gradient-2)"/>
      </g>
    </g>
    <g id="Group_8272" data-name="Group 8272">
      <g id="Group_8271" data-name="Group 8271" clip-path="url(#clip-path-11)">
        <rect id="Rectangle_3275" data-name="Rectangle 3275" width="1.873" height="2.044" transform="translate(37.769 38.215) rotate(-77.335)" fill="url(#linear-gradient-3)"/>
      </g>
    </g>
    <g id="Group_8310" data-name="Group 8310">
      <g id="Group_8309" data-name="Group 8309" clip-path="url(#clip-path)">
        <path id="Path_5784" data-name="Path 5784" d="M39.847,36.88l-.123-.118-1.195,1.526a2.1,2.1,0,0,1-.433-.256,2.324,2.324,0,0,1-.7-.879,2.478,2.478,0,0,1-.209-.66h0a5.012,5.012,0,0,0,1.8-1.815h0l2.671.434c-.036.191-.058.342-.071.431-.008.058-.012.09-.012.09.035.18.215.774.215.774l-.074.132Z" fill="#b880b8"/>
        <path id="Path_5785" data-name="Path 5785" d="M44.292,32.661a3.942,3.942,0,0,0-1.642,1.051l-.183-1.043a8.689,8.689,0,0,0-.878,2.872s-1.293.333-1.811-.023a2.807,2.807,0,0,1-.79-.842l-.03-.231.1-.031.622-2.1a2.142,2.142,0,0,0-.688-1.014l-.332-.342c.522-.112,1.447-1.25,1.644-1.285a2.646,2.646,0,0,1,.768.172c.142.032.5.074.5.074s-.422,1.035.118.963a1.812,1.812,0,0,0,.976-.618,5.218,5.218,0,0,1,1.1.547,4.8,4.8,0,0,1,.119.931,2.172,2.172,0,0,0,.406.921" fill="#8b588b"/>
        <g id="Group_8275" data-name="Group 8275" opacity="0.4" style="mix-blend-mode: multiply;isolation: isolate">
          <g id="Group_8274" data-name="Group 8274">
            <g id="Group_8273" data-name="Group 8273" clip-path="url(#clip-path-13)">
              <path id="Path_5786" data-name="Path 5786" d="M41.779,29.528s.451.405.557.466a1.1,1.1,0,0,0,.415.038l-.087.23a4.964,4.964,0,0,1-1.086.16c-.349-.027-1.12-.722-1.12-.722l1.113.217Z" fill="#855285"/>
            </g>
          </g>
        </g>
        <path id="Path_5787" data-name="Path 5787" d="M42.551,29.011s.007.081.028.1a1.409,1.409,0,0,1,.168.128.621.621,0,0,0,.264-.073,4.071,4.071,0,0,0,.124-.555l-.147.512c-.009.028-.174.053-.208.05a.774.774,0,0,1-.191-.092c0-.008-.038-.066-.038-.066" fill="#6f376f"/>
        <path id="Path_5788" data-name="Path 5788" d="M42.458,29.627c-.018.056.3.123.365.082s.112-.209.006-.268-.371.186-.371.186" fill="#561e56"/>
        <g id="Group_8278" data-name="Group 8278" opacity="0.4" style="mix-blend-mode: multiply;isolation: isolate">
          <g id="Group_8277" data-name="Group 8277">
            <g id="Group_8276" data-name="Group 8276" clip-path="url(#clip-path-14)">
              <path id="Path_5789" data-name="Path 5789" d="M44.262,27.6l-.36.958c-.044.019-.071.029-.071.029s-.018.062-.047.155c-.094.06-.268.152-.392.1-.176-.077-.163-.568-.163-.568-.06-.143-.478.163-.8.469s-.573-.4-.573-.4a5.978,5.978,0,0,0,.085.931l.21.547a2.053,2.053,0,0,1-.384-.351l-.006-.01a3.1,3.1,0,0,1-.236-.544l0-.011,0-.007v0h0c-.216.029-.358-.439-.358-.439a1.419,1.419,0,0,1-.189-.054,4.714,4.714,0,0,1,.313-.989l1.791-.491Z" fill="#855285"/>
            </g>
          </g>
        </g>
        <path id="Path_5790" data-name="Path 5790" d="M43.821,28.608l.132-.442a.912.912,0,0,0-.556-1.054,1.84,1.84,0,0,0-1.7.421,3.047,3.047,0,0,0-.219.594l-.023-.031c-.023-.029-.2-.163-.267-.1s-.042.475-.042.475-.783-.156-.593-.6,1.1-.97,1.1-.97a1.429,1.429,0,0,1,1.7-.833.594.594,0,0,1,.493.509s1.172.064,1.181.823-1.205,1.2-1.205,1.2" fill="#683068"/>
        <path id="Path_5791" data-name="Path 5791" d="M41.456,28.1l.093.41a2.832,2.832,0,0,1,.237-1.057,1.16,1.16,0,0,1,.764-.228c.195,0,.655.391.655.391a2.071,2.071,0,0,0-.052-.236,2.247,2.247,0,0,1,.129.293,9.115,9.115,0,0,0,.972.6,1.507,1.507,0,0,0-.42-1.19c-.384-.376-1.553-.055-1.938.217a1.237,1.237,0,0,0-.44.8" fill="#561e56"/>
        <path id="Path_5792" data-name="Path 5792" d="M43.845,26.58a3.9,3.9,0,0,0-2.195.324,1.429,1.429,0,0,1,1.7-.833.594.594,0,0,1,.493.509" fill="#7d447d"/>
        <g id="Group_8281" data-name="Group 8281" opacity="0.4" style="mix-blend-mode: multiply;isolation: isolate">
          <g id="Group_8280" data-name="Group 8280">
            <g id="Group_8279" data-name="Group 8279" clip-path="url(#clip-path-15)">
              <path id="Path_5793" data-name="Path 5793" d="M42.467,32.669l.574-1.1s-.772.993-.85,1.125a13.4,13.4,0,0,0-.3,1.383s.5-1.278.573-1.411" fill="#855285"/>
            </g>
          </g>
        </g>
        <g id="Group_8284" data-name="Group 8284" opacity="0.4" style="mix-blend-mode: multiply;isolation: isolate">
          <g id="Group_8283" data-name="Group 8283">
            <g id="Group_8282" data-name="Group 8282" clip-path="url(#clip-path-16)">
              <path id="Path_5794" data-name="Path 5794" d="M42.651,33.712l.11-.02s.491-.623.969-.456l.563-.575a2.624,2.624,0,0,0-1.642,1.051" fill="#855285"/>
            </g>
          </g>
        </g>
        <g id="Group_8287" data-name="Group 8287" opacity="0.4" style="mix-blend-mode: multiply;isolation: isolate">
          <g id="Group_8286" data-name="Group 8286">
            <g id="Group_8285" data-name="Group 8285" clip-path="url(#clip-path-17)">
              <path id="Path_5795" data-name="Path 5795" d="M38.656,30.956a2.75,2.75,0,0,1,.784.525,1.224,1.224,0,0,1,.237.831l-.04.044s-.274-.724-.762-.81l.153-.207Z" fill="#855285"/>
            </g>
          </g>
        </g>
        <g id="Group_8290" data-name="Group 8290" opacity="0.4" style="mix-blend-mode: multiply;isolation: isolate">
          <g id="Group_8289" data-name="Group 8289">
            <g id="Group_8288" data-name="Group 8288" clip-path="url(#clip-path-18)">
              <path id="Path_5796" data-name="Path 5796" d="M39.723,36.762a3.172,3.172,0,0,1-.36-.527,1.855,1.855,0,0,1-.121-.483,2.721,2.721,0,0,0,.231.55c.078.077.09.091.09.091s-.367-.811-.389-.913-.121-.461-.121-.461.808,1.43.849,1.48a2.314,2.314,0,0,1-.012.541l-.044-.16Z" fill="#855285"/>
            </g>
          </g>
        </g>
        <g id="Group_8293" data-name="Group 8293" opacity="0.4" style="mix-blend-mode: multiply;isolation: isolate">
          <g id="Group_8292" data-name="Group 8292">
            <g id="Group_8291" data-name="Group 8291" clip-path="url(#clip-path-19)">
              <path id="Path_5797" data-name="Path 5797" d="M39.061,34.789s.5,1.032.918,1.231,1.611-.479,1.611-.479a6.419,6.419,0,0,1-1.666,0,3.841,3.841,0,0,1-.863-.755" fill="#855285"/>
            </g>
          </g>
        </g>
        <g id="Group_8296" data-name="Group 8296" opacity="0.4" style="mix-blend-mode: multiply;isolation: isolate">
          <g id="Group_8295" data-name="Group 8295">
            <g id="Group_8294" data-name="Group 8294" clip-path="url(#clip-path-20)">
              <path id="Path_5798" data-name="Path 5798" d="M37.465,38.46a1.889,1.889,0,0,0-.444-.992h0c.012-.03.024-.051.037-.056a3.536,3.536,0,0,0,.341-.258,6.2,6.2,0,0,0,.7.879Z" fill="#855285"/>
            </g>
          </g>
        </g>
        <g id="Group_8299" data-name="Group 8299" opacity="0.4" style="mix-blend-mode: multiply;isolation: isolate">
          <g id="Group_8298" data-name="Group 8298">
            <g id="Group_8297" data-name="Group 8297" clip-path="url(#clip-path-21)">
              <path id="Path_5799" data-name="Path 5799" d="M44.812,38.167s-.242-.689-.254-.722-.3-.556-.3-.556.348.512.369.552.184.726.184.726" fill="#855285"/>
            </g>
          </g>
        </g>
        <g id="Group_8302" data-name="Group 8302" opacity="0.4" style="mix-blend-mode: multiply;isolation: isolate">
          <g id="Group_8301" data-name="Group 8301">
            <g id="Group_8300" data-name="Group 8300" clip-path="url(#clip-path-22)">
              <path id="Path_5800" data-name="Path 5800" d="M45.02,38s-.1-.6-.119-.665-.163-.38-.163-.38a1.819,1.819,0,0,1,.249.434c.015.118.033.611.033.611" fill="#855285"/>
            </g>
          </g>
        </g>
        <path id="Path_5801" data-name="Path 5801" d="M35.269,30.9l-.165-.148a3.919,3.919,0,0,0,.353.825,1.267,1.267,0,0,1,.23.382Z" fill="#6f376f"/>
        <path id="Path_5802" data-name="Path 5802" d="M38.656,30.956s.262-.174.8-.611.687-.786.837-.775a5.483,5.483,0,0,1,.776.274,2.781,2.781,0,0,0-.729-.168,8.575,8.575,0,0,0-.916.811,1.722,1.722,0,0,1-.768.469" fill="#dea6de"/>
        <path id="Path_5803" data-name="Path 5803" d="M35.763,31.143s.42.53.631.824c0,0,1.806.047,1.868.05a.838.838,0,0,0,.244-.043c0-.011.522-.635.522-.635l-.53.718s-.434-.017-.545-.013-1.576.005-1.576.005Z" fill="#dea6de"/>
        <path id="Path_5804" data-name="Path 5804" d="M42.7,30.274a4.077,4.077,0,0,1,1.067.488,4.409,4.409,0,0,1,.247,1.246,2.064,2.064,0,0,0,.211.552,1.9,1.9,0,0,1-.316-.61,5.353,5.353,0,0,0-.16-1.152,4.3,4.3,0,0,0-1.049-.524" fill="#dea6de"/>
        <path id="Path_5805" data-name="Path 5805" d="M40.617,28.221a.815.815,0,0,0,.5.289,2.839,2.839,0,0,0,.218.407.181.181,0,0,0,.152.034l.251.567-.165.4.23-.384a2.414,2.414,0,0,1-.282-.614.641.641,0,0,1-.373-.463,1.222,1.222,0,0,1-.529-.235" fill="#dea6de"/>
        <path id="Path_5806" data-name="Path 5806" d="M40.733,27.611a3,3,0,0,1,1.431-.932,3.429,3.429,0,0,1,2.3.043A3.633,3.633,0,0,0,42.5,26.7a3.105,3.105,0,0,0-1.77.912" fill="#dea6de"/>
        <path id="Path_5807" data-name="Path 5807" d="M41.709,26.779a1.1,1.1,0,0,1,.478-.6,1.56,1.56,0,0,1,1.271-.077,1.9,1.9,0,0,0-1.175.135,1.344,1.344,0,0,0-.574.542" fill="#dea6de"/>
        <path id="Path_5808" data-name="Path 5808" d="M37.19,36.492a4.466,4.466,0,0,0,.929-.593,3.927,3.927,0,0,0,.81-1.113,7.168,7.168,0,0,1-1.739,1.706" fill="#dea6de"/>
        <path id="Path_5809" data-name="Path 5809" d="M36.861,37.706c.027-.119.074-.331.074-.331l.365-.141-.278.234-.1.34Z" fill="#dea6de"/>
        <path id="Path_5810" data-name="Path 5810" d="M39.847,36.88l.118,1.052Z" fill="#dea6de"/>
        <path id="Path_5811" data-name="Path 5811" d="M42.809,33.886a5.932,5.932,0,0,0,.267,1.063,5.679,5.679,0,0,1,.244.554Z" fill="#dea6de"/>
        <g id="Group_8305" data-name="Group 8305" opacity="0.68" style="mix-blend-mode: multiply;isolation: isolate">
          <g id="Group_8304" data-name="Group 8304">
            <g id="Group_8303" data-name="Group 8303" clip-path="url(#clip-path-23)">
              <path id="Path_5812" data-name="Path 5812" d="M25.594,41.146c-.337.127-.737,5.69,1.008,6.5s22.362-2.028,23.933-3.111-14.909-7.166-24.941-3.39" fill="#8d5a8d" fill-rule="evenodd"/>
            </g>
          </g>
        </g>
        <path id="Path_5813" data-name="Path 5813" d="M32.159,47.426S31.406,26.764,31.6,26s3.956-5.653,3.956-5.653l3.471,5.48,2.69,20.546s-6.429.841-9.554,1.058" fill="#8e5b8e" fill-rule="evenodd"/>
        <path id="Path_5814" data-name="Path 5814" d="M31.6,25.995l3.746-.88,3.332.156-3.122-4.93Z" fill="#ad7aad" fill-rule="evenodd"/>
        <g id="Group_8308" data-name="Group 8308" opacity="0.68" style="mix-blend-mode: multiply;isolation: isolate">
          <g id="Group_8307" data-name="Group 8307">
            <g id="Group_8306" data-name="Group 8306" clip-path="url(#clip-path-24)">
              <path id="Path_5815" data-name="Path 5815" d="M36.46,47.026,35.342,25.115l.21-4.774,3.471,5.481,2.69,20.546Z" fill="#b07db0" fill-rule="evenodd"/>
            </g>
          </g>
        </g>
        <path id="Path_5816" data-name="Path 5816" d="M31.7,28.647a5.656,5.656,0,0,0-1.311-.392,7.273,7.273,0,0,0-2.3.535c-.194.241,1.741.63,2.1.648a12.856,12.856,0,0,1,1.307.233,4.063,4.063,0,0,0,.195-1.024" fill="#865386" fill-rule="evenodd"/>
        <path id="Path_5817" data-name="Path 5817" d="M31.719,32.779c.026.77,2.241,1.53,4.1,1.586a19.3,19.3,0,0,0,3.538-.712s-.119.428-.177.737-2.6,1.006-3.311.95-4.207-.716-4.609-1.688a1.394,1.394,0,0,1,.439-1.609Z" fill="#683068" fill-rule="evenodd"/>
        <path id="Path_5818" data-name="Path 5818" d="M45.606,26.678l-2.8,12.907,1.372.444,1.581-10.807Z" fill="#804b80" fill-rule="evenodd"/>
        <path id="Path_5819" data-name="Path 5819" d="M44.18,40.029l2.8-.427,1.538-12.839L46.1,26.746Z" fill="#683068" fill-rule="evenodd"/>
        <path id="Path_5820" data-name="Path 5820" d="M31.79,34.826a2.329,2.329,0,0,0-.248,1.207c.063.641,1.336,2.033,5.041,1.668a4.169,4.169,0,0,0,3.016-1.61l-.245-.552A9.494,9.494,0,0,1,35.963,36.9c-2.99.221-4.179-1.377-4.179-1.377Z" fill="#683068" fill-rule="evenodd"/>
      </g>
    </g>
    <g id="Group_8312" data-name="Group 8312">
      <g id="Group_8311" data-name="Group 8311" clip-path="url(#clip-path-25)">
        <rect id="Rectangle_3289" data-name="Rectangle 3289" width="4.907" height="5.963" transform="translate(36.032 24.297) rotate(-8.818)" fill="url(#linear-gradient-4)"/>
      </g>
    </g>
    <g id="Group_8314" data-name="Group 8314">
      <g id="Group_8313" data-name="Group 8313" clip-path="url(#clip-path-26)">
        <rect id="Rectangle_3290" data-name="Rectangle 3290" width="4.415" height="4.909" transform="matrix(0.988, -0.153, 0.153, 0.988, 26.236, 37.299)" fill="url(#linear-gradient-5)"/>
      </g>
    </g>
    <g id="Group_8316" data-name="Group 8316">
      <g id="Group_8315" data-name="Group 8315" clip-path="url(#clip-path-27)">
        <rect id="Rectangle_3291" data-name="Rectangle 3291" width="16.052" height="14.665" transform="matrix(0.988, -0.153, 0.153, 0.988, 27.303, 28.632)" fill="url(#linear-gradient-6)"/>
      </g>
    </g>
    <g id="Group_8318" data-name="Group 8318">
      <g id="Group_8317" data-name="Group 8317" clip-path="url(#clip-path-28)">
        <rect id="Rectangle_3292" data-name="Rectangle 3292" width="4.325" height="3.404" transform="translate(37.342 23.898) rotate(-8.818)" fill="url(#linear-gradient-7)"/>
      </g>
    </g>
    <g id="Group_8326" data-name="Group 8326">
      <g id="Group_8325" data-name="Group 8325" clip-path="url(#clip-path)">
        <path id="Path_5825" data-name="Path 5825" d="M46.459,40.692l1.332.463-1.663-25.9-1.205.187Z" fill="#804b80" fill-rule="evenodd"/>
        <path id="Path_5826" data-name="Path 5826" d="M50.447,40.743l-2.656.412-1.662-25.9,2.111.387Z" fill="#683068" fill-rule="evenodd"/>
        <path id="Path_5827" data-name="Path 5827" d="M47.012,29.027l2.759,13.465,1.667.9-4.589-16.91Z" fill="#804b80" fill-rule="evenodd"/>
        <path id="Path_5828" data-name="Path 5828" d="M46.849,26.485l2.333-.118,4.4,16.141-2.141.887Z" fill="#683068" fill-rule="evenodd"/>
        <g id="Group_8321" data-name="Group 8321" opacity="0.68" style="mix-blend-mode: multiply;isolation: isolate">
          <g id="Group_8320" data-name="Group 8320">
            <g id="Group_8319" data-name="Group 8319" clip-path="url(#clip-path-30)">
              <path id="Path_5829" data-name="Path 5829" d="M37.84,29.251a2.869,2.869,0,0,0-1.581.082c-.653.3-1.147,1.337-1.218,1.348s-2.947-.473-2.947-.473a11.864,11.864,0,0,1,4.081,2.235A10.416,10.416,0,0,1,38.528,37c.027.176-1.219.589-1.183,1.823a1.891,1.891,0,0,0,2.234,1.64c.951-.094,3.038.082,3.437-1.34s-.763-3.761-.763-3.761a44.423,44.423,0,0,0-.442-5.527c-.278-.6-1.545-1.276-3.971-.583" fill="#8d5a8d" fill-rule="evenodd"/>
            </g>
          </g>
        </g>
        <g id="Group_8324" data-name="Group 8324" opacity="0.68" style="mix-blend-mode: multiply;isolation: isolate">
          <g id="Group_8323" data-name="Group 8323">
            <g id="Group_8322" data-name="Group 8322" clip-path="url(#clip-path-31)">
              <path id="Path_5830" data-name="Path 5830" d="M40.8,25.65c-1.425-.679-3.246.923-1.913,2.366s2.293-1.465,1.913-2.366" fill="#8d5a8d" fill-rule="evenodd"/>
            </g>
          </g>
        </g>
      </g>
    </g>
    <g id="Group_8328" data-name="Group 8328">
      <g id="Group_8327" data-name="Group 8327" clip-path="url(#clip-path-32)">
        <rect id="Rectangle_3296" data-name="Rectangle 3296" width="14.602" height="11.457" transform="matrix(0.988, -0.153, 0.153, 0.988, 21.527, 42.166)" fill="url(#linear-gradient-8)"/>
      </g>
    </g>
    <g id="Group_8330" data-name="Group 8330">
      <g id="Group_8329" data-name="Group 8329" clip-path="url(#clip-path-33)">
        <rect id="Rectangle_3297" data-name="Rectangle 3297" width="6.834" height="4.809" transform="translate(26.311 42.61) rotate(-8.818)" fill="url(#linear-gradient-9)"/>
      </g>
    </g>
    <g id="Group_8356" data-name="Group 8356">
      <g id="Group_8355" data-name="Group 8355" clip-path="url(#clip-path)">
        <g id="Group_8333" data-name="Group 8333" opacity="0.68" style="mix-blend-mode: multiply;isolation: isolate">
          <g id="Group_8332" data-name="Group 8332">
            <g id="Group_8331" data-name="Group 8331" clip-path="url(#clip-path-35)">
              <path id="Path_5833" data-name="Path 5833" d="M26.425,42.944s.285,2.882,1.292,3.576,4.272-2.047,4.272-2.047a7.212,7.212,0,0,1-3.567,3.673c-2.638,1.189-2.873-3.341-2.435-4.272Z" fill="#8d5a8d" fill-rule="evenodd"/>
            </g>
          </g>
        </g>
        <path id="Path_5834" data-name="Path 5834" d="M30.1,43.385c-.233.349-.08.774.771.072s-.576-.364-.771-.072" fill="#e6aee6"/>
        <path id="Path_5835" data-name="Path 5835" d="M30.379,44c-.154.292.572.159.725-.112s-.574-.174-.725.112" fill="#e6aee6"/>
        <g id="Group_8336" data-name="Group 8336" style="mix-blend-mode: soft-light;isolation: isolate">
          <g id="Group_8335" data-name="Group 8335">
            <g id="Group_8334" data-name="Group 8334" clip-path="url(#clip-path-36)">
              <path id="Path_5836" data-name="Path 5836" d="M29.07,44.656c-.321.277-.1.691.458.341s-.193-.569-.458-.341" fill="#e6aee6"/>
            </g>
          </g>
        </g>
        <g id="Group_8339" data-name="Group 8339" style="mix-blend-mode: soft-light;isolation: isolate">
          <g id="Group_8338" data-name="Group 8338">
            <g id="Group_8337" data-name="Group 8337" clip-path="url(#clip-path-37)">
              <path id="Path_5837" data-name="Path 5837" d="M28.264,44.826c-.147.177-.076.6.3.4s-.144-.591-.3-.4" fill="#e6aee6"/>
            </g>
          </g>
        </g>
        <path id="Path_5838" data-name="Path 5838" d="M27.125,42.993c.1.443.94.765.844.169s-.923-.532-.844-.169" fill="#e6aee6"/>
        <g id="Group_8342" data-name="Group 8342" style="mix-blend-mode: soft-light;isolation: isolate">
          <g id="Group_8341" data-name="Group 8341">
            <g id="Group_8340" data-name="Group 8340" clip-path="url(#clip-path-38)">
              <path id="Path_5839" data-name="Path 5839" d="M27.865,43.808c-.274.28-.193.963.591.7s-.341-.957-.591-.7" fill="#e6aee6"/>
            </g>
          </g>
        </g>
        <path id="Path_5840" data-name="Path 5840" d="M29.461,45.72c-.328.485.5,1.047,1.061.51s-.835-.845-1.061-.51" fill="#e6aee6"/>
        <path id="Path_5841" data-name="Path 5841" d="M26.6,49.375c-.648.9,1.109.994,1.319.238s-.38-1.55-1.319-.238" fill="#e6aee6"/>
        <path id="Path_5842" data-name="Path 5842" d="M27.907,25.813c-.359-.1,1.738,1.6,1.912,1.677a5.852,5.852,0,0,0-1.912-1.677" fill="#ffc3ff"/>
        <path id="Path_5843" data-name="Path 5843" d="M25.994,33.9c-.683.24,2.714,1.111,3.3.642s-1.847-1.153-3.3-.642" fill="#ffc3ff"/>
        <path id="Path_5844" data-name="Path 5844" d="M28.561,24.327c-.46-.182.427,1.464.885,1.713s-.523-1.57-.885-1.713" fill="#ffc3ff"/>
        <path id="Path_5845" data-name="Path 5845" d="M38.537,24.245a3.032,3.032,0,0,1,1.232-.385,3.765,3.765,0,0,1,1.486.71,3.1,3.1,0,0,0-1.388-.777,2.567,2.567,0,0,0-1.33.452" fill="#dea6de"/>
        <path id="Path_5846" data-name="Path 5846" d="M40.078,28.831a4.4,4.4,0,0,1,1.459.6c.357.342.488,2.338.488,2.338a9.875,9.875,0,0,0-.155-2.389c-.218-.395-1.792-.545-1.792-.545" fill="#dea6de"/>
        <path id="Path_5847" data-name="Path 5847" d="M42.305,34.594s.417,1.225.725,2.267a5.7,5.7,0,0,1,.248,1.841,5.336,5.336,0,0,0-.354-1.506,9.625,9.625,0,0,1-.429-1.368c-.008-.042-.19-1.234-.19-1.234" fill="#dea6de"/>
        <path id="Path_5848" data-name="Path 5848" d="M34.107,28.925a8.791,8.791,0,0,0,1.714.035,3.708,3.708,0,0,1,1.291.017,3.274,3.274,0,0,0-.847,0,5.585,5.585,0,0,1-.9.08c-.114,0-1.26-.128-1.26-.128" fill="#dea6de"/>
        <path id="Path_5849" data-name="Path 5849" d="M27.45,37.306s1.3,1,1.76,1.375a2.2,2.2,0,0,0,.885.454s-1.275-.906-1.757-1.269a5.853,5.853,0,0,0-.888-.56" fill="#dea6de"/>
        <path id="Path_5850" data-name="Path 5850" d="M33.514,38.2s1.575-.423,2.007-.543a15.418,15.418,0,0,0,2.1-.752.921.921,0,0,0,.151-.349,1.231,1.231,0,0,1-.063.371c-.209.4-4.2,1.273-4.2,1.273" fill="#dea6de"/>
        <g id="Group_8345" data-name="Group 8345" opacity="0.68" style="mix-blend-mode: multiply;isolation: isolate">
          <g id="Group_8344" data-name="Group 8344">
            <g id="Group_8343" data-name="Group 8343" clip-path="url(#clip-path-39)">
              <path id="Path_5851" data-name="Path 5851" d="M49.521,14.569c-.229-.111,7.023,29.952,7.787,30.267S63.191,44.045,64,43.63s-5.877-29.786-6.81-30.644-7.665,1.583-7.665,1.583" fill="#d9b1d4" fill-rule="evenodd"/>
            </g>
          </g>
        </g>
        <g id="Group_8348" data-name="Group 8348" opacity="0.68" style="mix-blend-mode: multiply;isolation: isolate">
          <g id="Group_8347" data-name="Group 8347">
            <g id="Group_8346" data-name="Group 8346" clip-path="url(#clip-path-40)">
              <path id="Path_5852" data-name="Path 5852" d="M51.314,15.4a20.7,20.7,0,0,0,.964,5.064c.188.06,3.736-.669,3.736-.669l.135.872s-2.526.124-2.572.4.121,1.642.308,1.7,3.226-.5,3.226-.5l-.024,1s-4.116.519-4.249.815,1.813,8.521,2.118,8.474,5.91-1.044,5.91-1.044S57.758,18.857,57.7,18.532s-2.38-.12-2.616-.162-.4-.785-.4-.785l2.464-.52s-.648-2.649-.8-2.849A18.854,18.854,0,0,0,51.314,15.4" fill="#d9b1d4" fill-rule="evenodd"/>
            </g>
          </g>
        </g>
        <g id="Group_8351" data-name="Group 8351" opacity="0.68" style="mix-blend-mode: multiply;isolation: isolate">
          <g id="Group_8350" data-name="Group 8350">
            <g id="Group_8349" data-name="Group 8349" clip-path="url(#clip-path-41)">
              <path id="Path_5853" data-name="Path 5853" d="M55.458,34.352c-.381.413.7,4.309.891,4.447a21.779,21.779,0,0,0,3.138-.23l.155.9a10.571,10.571,0,0,0-2.461.382c-.265.237.533,3.439.533,3.439S63,42.59,63.2,42.157s-1.644-8.874-1.881-9.105-5.572.989-5.859,1.3" fill="#d9b1d4" fill-rule="evenodd"/>
            </g>
          </g>
        </g>
        <g id="Group_8354" data-name="Group 8354" opacity="0.68" style="mix-blend-mode: multiply;isolation: isolate">
          <g id="Group_8353" data-name="Group 8353">
            <g id="Group_8352" data-name="Group 8352" clip-path="url(#clip-path-42)">
              <path id="Path_5854" data-name="Path 5854" d="M26.762,53.876c-.622.384.685,6.911,2.263,7.314s35.217-6.7,35.967-7.94-.409-6.351-1.079-6.959-34.968,6.238-37.151,7.585" fill="#d9b1d4" fill-rule="evenodd"/>
            </g>
          </g>
        </g>
        <path id="Path_5855" data-name="Path 5855" d="M22.07,12.024c-.018-.034-.07-.452-.08-.514,0-.012-.045-.129-.049-.154-.2-.869-.36-1.757-.5-2.649,0-.025-.021-.135-.025-.159.079-.217.32-.277.527-.317.449-.087.856-.128,1.316-.229.246.053.264.087.355.271,0,.013.016.022.018.035l.339.576c0,.012.018.035.02.047l1.923,3.117c-.089-.575-.264-1.133-.369-1.73-.005-.037-.073-.717-.093-.763s-.081-.362-.089-.411a2.134,2.134,0,0,0-.086-.475l-.141-.9c-.03-.2.244-.286.376-.324a5.865,5.865,0,0,1,1-.32.558.558,0,0,1,.539.084c0,.013.032.045-.053.061l.9,5.079c.021.134.13.756.149.878.016.186.116,1.073.133,1.259-.018.369-.278.469-.6.57-.012,0-.225.081-.478.143l-.013,0-.012,0c-.16.019-.575.087-.587.089-.441.06-1.091-1.225-2.354-3.4,0,.4.532,2.379.575,2.736.007.049.084.462.079.513.088.727-.716.87-1.251.973l-.1.019c-.255.049-.58.049-.7-.218-.18-1.325-.436-2.573-.678-3.887" fill="#683068"/>
        <path id="Path_5856" data-name="Path 5856" d="M28.462,10.66c-.159-.939-.354-1.872-.5-2.813-.061-.392-.148-1.118.41-1.314L31.23,6.08c.234-.02.338.325.392.5.026.1.111.395.112.408s.048.23.059.3c.008.049.028.259.035.308-.027.308-.261.416-.54.47-.144.04-.845.2-.989.229-.013,0-.058.037-.07.039s-.033.032-.033.032l.2,1.284.057.051,1.225-.174c.133-.026.373-.009.4.162l.163,1.052a.352.352,0,0,1-.181.363c-.452.074-.9.174-1.345.285a.151.151,0,0,0-.03.132l.01.061c.022.147.157.851.192,1l0,.012,0,.012,0,.012c.019.047.038.081.1.07.461-.09.881-.3,1.329-.384a.735.735,0,0,1,.284-.029c.25.077.459.856.5,1.112a1.505,1.505,0,0,1,.023.223c.2.9-2.377.9-3.687,1.331a.163.163,0,0,1-.179-.1s-.019-.135-.022-.147c-.03-.108-.221-.94-.236-1.038a11.73,11.73,0,0,0-.287-1.443c-.033-.22-.217-1.319-.252-1.551" fill="#683068"/>
        <path id="Path_5857" data-name="Path 5857" d="M37.223,12.112c-.163.485-.577,1.283-1.1,1.46-.012,0-.4.1-.519.126l-.121.023c-.972.188-1.446-.929-1.729-1.706A24.948,24.948,0,0,1,32.48,6.064V6.052a.111.111,0,0,1,.059-.1c.288-.081,1.275-.335,1.566-.391l.158-.031.17-.033c.186,1.035.458,5.29,1.141,5.335l.028.019c.439.092.739-.722.479-2.234-.021-.134-.073-.792-.094-.926l.033-.032L37.6,7.378c.037-.007.081.034.072.061.168,1,.376,2.825,1.111,3.124l.024-.005c.584-.189.062-3.552-.123-5.393a.537.537,0,0,1,.39-.63,10.748,10.748,0,0,1,1.087-.172c.061-.012.111-.009.16-.019a.389.389,0,0,1,.409.3c.778,5.014.075,7.014-.723,7.925a1.594,1.594,0,0,1-.888.487,1.539,1.539,0,0,1-.991-.1,2.52,2.52,0,0,1-.83-.835c-.016-.022-.029-.019-.053-.015Z" fill="#683068"/>
        <path id="Path_5858" data-name="Path 5858" d="M42.18,9.7c0-.024.037-.246.048-.337.03-.131.214-.23.3-.31.025-.005.047-.022.071-.027a7.066,7.066,0,0,1,.863-.167c.036-.007.081-.04.1-.006.325,1.612.963.884.956.835-.138-1.208-1.166-1.223-1.808-1.728a2.3,2.3,0,0,1-.753-.9.623.623,0,0,1-.047-.142,6.776,6.776,0,0,1-.195-.693,2.716,2.716,0,0,1,.088-.886c.008-.027,0-.064.011-.091a2.721,2.721,0,0,1,2.366-1.931c.049-.01.221-.031.269-.04,1.189-.079,1.57,1.409,1.707,2.29.009.061.057.367.064.416a.327.327,0,0,1-.072.177l-.17.033-.171.033c-.22.03-.983.115-1.193.131-.12.035-.152-.009-.167-.107-.019-.122,0-.264-.024-.4-.015-.1-.038-.408-.2-.378s-.467.38-.442.539l.068.441c.028.183.3.383.422.459,1.2.8,2.479,1.057,2.348,3.363-.045.915-.68,1.265-1.524,1.63l-.364.071a1.74,1.74,0,0,1-1.439-.238A1.568,1.568,0,0,1,42.62,11l-.021-.135c-.035-.144-.144-.2-.189-.329-.064-.252-.193-.517-.233-.773a.3.3,0,0,1,0-.064" fill="#683068"/>
      </g>
    </g>
  </g>
</svg>
