<svg id="next" xmlns="http://www.w3.org/2000/svg" width="120" height="119.779" viewBox="0 0 120 119.779">
  <path id="shadow" d="M119.468,56.26c-1.153-3.43-35.754-32.107-40.523-33.467-3.467-.989-2.649,8.4-5.317,9.169S.751,26.808.38,31c-.047.538-.024,1.9.064,3.857a.4.4,0,0,0-.053.149c-.371,4.2,3.218,65.035,8.178,65.4.479.417,7.575-1.13,17.769-3.529,6.387-1.492,13.729-3.27,20.76-4.958l.017,0c20.169-4.82,28.177-5.985,28.177-5.985,3.435.754,4.984,9.906,8.036,9.9a2.307,2.307,0,0,0,.847-.29v0l.008-.006c6.156-3.038,36.865-28.935,35.779-32.164-.129-.384.393-6.107-.495-7.118" opacity="0.3"/>
  <path id="Path_5339" data-name="Path 5339" d="M78.955,19.98c4.235,1.208,33.46,21.433,40.513,29.461.888,1.012.366,6.735.495,7.118C121.116,59.99,86.38,89.01,83.328,89.017s-4.6-9.143-8.037-9.9S13.529,93.965,8.569,93.6.019,32.389.39,28.192s70.579,1.727,73.248.957,1.85-10.158,5.317-9.169" fill="#bebebe"/>
  <path id="Path_5340" data-name="Path 5340" d="M78.945,15.975c4.769,1.36,39.37,30.037,40.523,33.467S86.37,85,83.318,85.012s-4.6-9.143-8.037-9.9-61.4,8.169-66.358,7.8S.01,28.384.38,24.187s70.579,1.727,73.248.957,1.85-10.158,5.317-9.169" fill="#fff"/>
  <path id="Path_5341" data-name="Path 5341" d="M75.291,79.12c1.43-.385.17-4.138-1.447-4.029s-39.16,5.13-51.476,6.469S7.8,92.931,8.568,93.6s18.378-3.671,38.546-8.491S75.291,79.12,75.291,79.12" fill="#8b8b8b"/>
  <path id="Path_5342" data-name="Path 5342" d="M119.517,57.953s-1.66-3.915-11.357,5.448S85.6,83.385,84.557,85.009a4.908,4.908,0,0,0-.382,3.721s22.058-15.174,35.342-30.777" fill="#8b8b8b"/>
  <text id="Next-2" data-name="Next" transform="translate(15.302 61.42) rotate(-1.458)" fill="#662d82" font-size="27" font-family="RammettoOne-Regular, Rammetto One"><tspan x="0" y="0">Next</tspan></text>
  <rect id="frame" width="120" height="119.779" fill="none"/>
</svg>
