<svg id="night-zookeeper-stars" xmlns="http://www.w3.org/2000/svg" xmlns:xlink="http://www.w3.org/1999/xlink" width="70" height="70" viewBox="0 0 70 70">
  <defs>
    <clipPath id="clip-path">
      <rect id="Rectangle_3181" data-name="Rectangle 3181" width="70" height="70" fill="none"/>
    </clipPath>
    <clipPath id="clip-path-3">
      <rect id="Rectangle_3164" data-name="Rectangle 3164" width="56.26" height="61.503" transform="translate(6.87 7.601)" fill="none"/>
    </clipPath>
    <clipPath id="clip-path-4">
      <rect id="Rectangle_3165" data-name="Rectangle 3165" width="20.278" height="10.695" transform="translate(44.593 15.912)" fill="none"/>
    </clipPath>
    <clipPath id="clip-path-5">
      <rect id="Rectangle_3166" data-name="Rectangle 3166" width="4.528" height="2.87" transform="translate(59.394 20.353)" fill="none"/>
    </clipPath>
    <clipPath id="clip-path-6">
      <rect id="Rectangle_3167" data-name="Rectangle 3167" width="20.278" height="10.695" transform="translate(5.128 15.912)" fill="none"/>
    </clipPath>
    <clipPath id="clip-path-7">
      <rect id="Rectangle_3168" data-name="Rectangle 3168" width="4.528" height="2.87" transform="translate(6.078 20.353)" fill="none"/>
    </clipPath>
    <clipPath id="clip-path-8">
      <rect id="Rectangle_3169" data-name="Rectangle 3169" width="20.278" height="10.695" transform="translate(43.113 37.734)" fill="none"/>
    </clipPath>
    <clipPath id="clip-path-9">
      <rect id="Rectangle_3170" data-name="Rectangle 3170" width="4.658" height="2.605" transform="translate(56.702 37.874)" fill="none"/>
    </clipPath>
    <clipPath id="clip-path-10">
      <rect id="Rectangle_3171" data-name="Rectangle 3171" width="20.278" height="10.695" transform="translate(6.674 37.734)" fill="none"/>
    </clipPath>
    <clipPath id="clip-path-11">
      <rect id="Rectangle_3172" data-name="Rectangle 3172" width="4.658" height="2.605" transform="translate(8.706 37.874)" fill="none"/>
    </clipPath>
    <clipPath id="clip-path-12">
      <rect id="Rectangle_3173" data-name="Rectangle 3173" width="21.508" height="12.157" transform="translate(24.152 3.674)" fill="none"/>
    </clipPath>
    <clipPath id="clip-path-13">
      <rect id="Rectangle_3174" data-name="Rectangle 3174" width="4.851" height="2.188" transform="translate(39.464 6.973)" fill="none"/>
    </clipPath>
    <clipPath id="clip-path-14">
      <rect id="Rectangle_3175" data-name="Rectangle 3175" width="21.508" height="12.157" transform="translate(24.07 47.078)" fill="none"/>
    </clipPath>
    <clipPath id="clip-path-15">
      <rect id="Rectangle_3176" data-name="Rectangle 3176" width="4.851" height="2.188" transform="translate(25.415 50.377)" fill="none"/>
    </clipPath>
    <clipPath id="clip-path-16">
      <rect id="Rectangle_3177" data-name="Rectangle 3177" width="22.981" height="12.99" transform="translate(23.419 25.131)" fill="none"/>
    </clipPath>
    <clipPath id="clip-path-17">
      <rect id="Rectangle_3178" data-name="Rectangle 3178" width="5.183" height="2.337" transform="translate(39.779 28.655)" fill="none"/>
    </clipPath>
    <clipPath id="clip-path-18">
      <rect id="Rectangle_3179" data-name="Rectangle 3179" width="5.184" height="2.337" transform="translate(24.856 28.655)" fill="none"/>
    </clipPath>
  </defs>
  <g id="Group_8013" data-name="Group 8013" clip-path="url(#clip-path)">
    <g id="Group_8012" data-name="Group 8012">
      <g id="Group_8011" data-name="Group 8011" clip-path="url(#clip-path)">
        <g id="Group_7965" data-name="Group 7965" opacity="0.3">
          <g id="Group_7964" data-name="Group 7964">
            <g id="Group_7963" data-name="Group 7963" clip-path="url(#clip-path-3)">
              <path id="Path_5612" data-name="Path 5612" d="M25.4,19.033a21.5,21.5,0,0,0,3.874,3.4l-.009.079a12.061,12.061,0,0,0-.077,2.473c-.1,1.305-.036,2.729.608,3.114a.9.9,0,0,0,.268.1c.006.005.012.005.024.005a2.118,2.118,0,0,0,.874-.038,6.807,6.807,0,0,0,1.22-.384,22.09,22.09,0,0,0,2.956-1.541s.322.195.815.466c.166.1.362.2.569.305a9.182,9.182,0,0,0,3.511,1.221,1.081,1.081,0,0,0,.541-.134.8.8,0,0,0,.291-.317,4.45,4.45,0,0,0,.306-1.625,8.864,8.864,0,0,0-.073-2.1c-.021-.289-.053-.583-.091-.87s-.08-.54-.124-.79c.266-.248.568-.457.853-.686.243-.2.511-.412.78-.648a17.131,17.131,0,0,0,1.328-1.271c.061-.061.119-.125.175-.192A5.541,5.541,0,0,0,45,16.536c0-.052,0-.1,0-.156a1,1,0,0,0,.021-.439c-.083-.393-.492-.7-1.074-.954-.155-.066-.324-.126-.5-.183a10.816,10.816,0,0,0-3.794-.636c-.625-.05-1.047-.062-1.047-.062a31.436,31.436,0,0,0-1.182-3.045,15.532,15.532,0,0,0-1-1.925C35.859,8.251,35.257,7.6,34.685,7.6c-1.294,0-2.534,3.219-3.155,5.117-.264.811-.416,1.388-.416,1.388a25.671,25.671,0,0,0-3.061.3,5.931,5.931,0,0,0-3.019,1.087.754.754,0,0,0-.247.615,1.891,1.891,0,0,0-.058.351,3.363,3.363,0,0,0,.658,2.556.038.038,0,0,0,.013.02"/>
              <path id="Path_5613" data-name="Path 5613" d="M62.446,29.026c-.123-.116-.259-.231-.4-.345A10.8,10.8,0,0,0,58.7,26.767c-.568-.265-.959-.422-.959-.422a31.581,31.581,0,0,0-.051-3.266,15.646,15.646,0,0,0-.274-2.154c-.221-1.026-.56-1.844-1.1-2.043-1.214-.449-3.494,2.139-4.736,3.7-.529.668-.872,1.156-.872,1.156a25.728,25.728,0,0,0-2.974-.784,5.944,5.944,0,0,0-3.208-.029.827.827,0,0,0-.383.338.862.862,0,0,0-.063.153,1.924,1.924,0,0,0-.176.309,3.364,3.364,0,0,0-.271,2.625.039.039,0,0,0,.006.024A21.4,21.4,0,0,0,46.1,30.909l-.037.071a12.04,12.04,0,0,0-.93,2.292,7.75,7.75,0,0,0-.692,2.138c-.129-.051-.264-.1-.405-.145a11.541,11.541,0,0,0-4.053-.679c-.668-.054-1.118-.066-1.118-.066A33.754,33.754,0,0,0,37.6,31.266a16.979,16.979,0,0,0-1.074-2.057c-.6-.946-1.245-1.64-1.856-1.64-1.383,0-2.708,3.44-3.371,5.468-.282.867-.445,1.483-.445,1.483s-.459.013-1.136.065a12.254,12.254,0,0,0-3.786.613q-.2.06-.387.126a8.083,8.083,0,0,0-.68-2.052,12.044,12.044,0,0,0-.931-2.292l-.037-.071a21.444,21.444,0,0,0,2.454-4.531.037.037,0,0,0,0-.024,3.36,3.36,0,0,0-.271-2.625,1.846,1.846,0,0,0-.175-.309,1.044,1.044,0,0,0-.063-.153.837.837,0,0,0-.383-.338,5.944,5.944,0,0,0-3.208.029,25.728,25.728,0,0,0-2.974.784s-.343-.488-.873-1.156c-1.241-1.565-3.521-4.153-4.735-3.7-.536.2-.875,1.017-1.1,2.043a15.646,15.646,0,0,0-.274,2.154,31.581,31.581,0,0,0-.051,3.266s-.391.157-.96.422a10.8,10.8,0,0,0-3.337,1.914c-.145.114-.282.229-.4.345a1.617,1.617,0,0,0-.676,1.267.984.984,0,0,0,.171.405c.019.049.038.1.059.145A5.53,5.53,0,0,0,9.09,33.377a2.525,2.525,0,0,0,.231.119,16.849,16.849,0,0,0,1.686.73c.335.129.661.239.957.338.347.115.7.206,1.038.346.046.25.1.515.159.784s.135.57.216.848a8.916,8.916,0,0,0,.66,1.991,4.45,4.45,0,0,0,.851,1.418.808.808,0,0,0,.383.2,1.087,1.087,0,0,0,.554-.063,9.188,9.188,0,0,0,2.868-2.364c.157-.172.306-.335.428-.483.368-.426.6-.72.6-.72a22.194,22.194,0,0,0,3.307.418,7.844,7.844,0,0,0,1.017-.029c-.005.042-.009.084-.013.125a3.593,3.593,0,0,0,.7,2.731.039.039,0,0,0,.014.022,22.856,22.856,0,0,0,4.14,3.629c0,.029-.007.056-.011.085A12.929,12.929,0,0,0,28.8,46.14c-.1,1.394-.038,2.916.65,3.327a.994.994,0,0,0,.286.108.039.039,0,0,0,.026.005,2.292,2.292,0,0,0,.934-.041,7.384,7.384,0,0,0,1.3-.41,23.787,23.787,0,0,0,3.158-1.646s.343.207.871.5c.177.1.386.212.608.325a9.791,9.791,0,0,0,3.75,1.305,1.152,1.152,0,0,0,.579-.143.86.86,0,0,0,.311-.338,4.775,4.775,0,0,0,.327-1.736,9.546,9.546,0,0,0-.078-2.24c-.022-.309-.056-.623-.1-.93s-.085-.578-.132-.844c.284-.265.607-.488.911-.732.26-.21.547-.441.834-.694A18.174,18.174,0,0,0,44.458,40.6c.065-.065.127-.133.187-.206a5.915,5.915,0,0,0,1.046-3.274c0-.055,0-.111,0-.167.007-.025.011-.05.016-.075a6.863,6.863,0,0,0,1.258.061,22.171,22.171,0,0,0,3.307-.418s.234.294.6.72c.122.148.27.311.428.483a9.174,9.174,0,0,0,2.867,2.364,1.09,1.09,0,0,0,.555.063.813.813,0,0,0,.383-.2,4.487,4.487,0,0,0,.851-1.418,8.913,8.913,0,0,0,.659-1.991c.081-.278.154-.565.217-.848s.113-.534.158-.784c.335-.14.692-.231,1.038-.346.3-.1.623-.209.957-.338a16.866,16.866,0,0,0,1.687-.73,2.386,2.386,0,0,0,.23-.119,5.532,5.532,0,0,0,1.983-2.534c.02-.048.04-.1.058-.145a.986.986,0,0,0,.172-.405,1.617,1.617,0,0,0-.676-1.267"/>
              <path id="Path_5614" data-name="Path 5614" d="M61.682,43.969a.862.862,0,0,0-.063-.153.827.827,0,0,0-.383-.338,3.533,3.533,0,0,0-1.728-.185,9.625,9.625,0,0,0-3.658.751c-.485.142-.8.247-.8.247s-.343-.488-.872-1.157c-1.242-1.564-3.522-4.152-4.736-3.7-.536.2-.875,1.017-1.1,2.043a15.626,15.626,0,0,0-.274,2.154,31.581,31.581,0,0,0-.051,3.266s-.713.286-1.613.737a13.527,13.527,0,0,0-3.088,1.944,1.617,1.617,0,0,0-.676,1.267.992.992,0,0,0,.172.405c.018.049.038.1.058.145a5.532,5.532,0,0,0,1.983,2.534c.075.044.152.083.23.119a17.236,17.236,0,0,0,1.687.73c.334.129.66.239.957.338.346.115.7.206,1.038.346.045.25.1.515.158.784s.136.57.217.848a8.913,8.913,0,0,0,.659,1.991,4.487,4.487,0,0,0,.851,1.418.812.812,0,0,0,.383.2,1.09,1.09,0,0,0,.555-.063,9.174,9.174,0,0,0,2.867-2.364c.158-.172.306-.335.428-.484.369-.425.6-.719.6-.719a22.171,22.171,0,0,0,3.306.418,6.789,6.789,0,0,0,1.278-.064,2.128,2.128,0,0,0,.834-.268c.011,0,.016-.006.02-.012a.928.928,0,0,0,.216-.187c.471-.585.032-1.941-.511-3.132a12.04,12.04,0,0,0-.93-2.292l-.037-.071a21.4,21.4,0,0,0,2.453-4.531.039.039,0,0,0,.006-.024,3.364,3.364,0,0,0-.271-2.625,1.924,1.924,0,0,0-.176-.309"/>
              <path id="Path_5615" data-name="Path 5615" d="M25.2,53.925a5.529,5.529,0,0,0,1.982-2.534c.021-.047.041-.1.059-.145a.984.984,0,0,0,.171-.4,1.616,1.616,0,0,0-.675-1.267A13.547,13.547,0,0,0,23.65,47.63c-.9-.45-1.613-.736-1.613-.736a31.74,31.74,0,0,0-.05-3.266,15.8,15.8,0,0,0-.275-2.155c-.22-1.025-.56-1.844-1.1-2.042-1.213-.45-3.494,2.139-4.735,3.7-.53.669-.872,1.157-.872,1.157s-.311-.106-.8-.248a9.607,9.607,0,0,0-3.658-.75,3.525,3.525,0,0,0-1.729.185.824.824,0,0,0-.382.338.852.852,0,0,0-.063.152,1.792,1.792,0,0,0-.176.31A3.36,3.36,0,0,0,7.934,46.9a.037.037,0,0,0,.005.024,21.47,21.47,0,0,0,2.454,4.531l-.037.071a12.056,12.056,0,0,0-.931,2.292c-.543,1.19-.981,2.547-.511,3.131a.889.889,0,0,0,.217.187c0,.007.009.009.02.013a2.117,2.117,0,0,0,.834.268,6.778,6.778,0,0,0,1.277.064,22.194,22.194,0,0,0,3.307-.418s.234.293.6.719c.123.148.271.312.428.483a9.178,9.178,0,0,0,2.868,2.365,1.078,1.078,0,0,0,.555.062.813.813,0,0,0,.383-.2,4.461,4.461,0,0,0,.85-1.417,8.865,8.865,0,0,0,.66-1.991c.081-.278.153-.565.216-.848s.114-.535.159-.784c.335-.141.691-.231,1.038-.347.3-.1.623-.208.957-.337a17.091,17.091,0,0,0,1.686-.731,2.29,2.29,0,0,0,.231-.119"/>
              <path id="Path_5616" data-name="Path 5616" d="M44.96,56.979a.9.9,0,0,0-.006-.165.828.828,0,0,0-.242-.45,5.933,5.933,0,0,0-3.018-1.087,25.671,25.671,0,0,0-3.061-.3s-.152-.576-.417-1.387c-.62-1.9-1.86-5.117-3.154-5.117-.572,0-1.174.649-1.738,1.534a15.74,15.74,0,0,0-1.005,1.925,31.863,31.863,0,0,0-1.182,3.045s-.421.012-1.046.062a10.839,10.839,0,0,0-3.794.636c-.176.057-.344.117-.5.184-.583.249-.992.56-1.074.953a.988.988,0,0,0,.02.439c0,.053,0,.105.005.157a5.522,5.522,0,0,0,.979,3.064,2.292,2.292,0,0,0,.175.192,17.132,17.132,0,0,0,1.328,1.271c.268.237.536.453.78.649.285.228.587.437.853.685-.044.25-.087.516-.124.79s-.071.581-.091.871a8.86,8.86,0,0,0-.073,2.1,4.469,4.469,0,0,0,.305,1.624.811.811,0,0,0,.291.317,1.088,1.088,0,0,0,.542.134,9.178,9.178,0,0,0,3.51-1.221c.208-.106.4-.208.57-.305.493-.271.815-.465.815-.465a22.171,22.171,0,0,0,2.955,1.54,6.859,6.859,0,0,0,1.22.384,2.123,2.123,0,0,0,.875.038.04.04,0,0,0,.024,0,.9.9,0,0,0,.267-.1c.645-.384.7-1.809.609-3.114a12.05,12.05,0,0,0-.077-2.472c0-.028-.007-.053-.01-.08a21.426,21.426,0,0,0,3.875-3.4.046.046,0,0,0,.013-.02,3.361,3.361,0,0,0,.657-2.556,1.81,1.81,0,0,0-.057-.351"/>
            </g>
          </g>
        </g>
        <path id="Path_5617" data-name="Path 5617" d="M62.514,27.371c-.08.047-.162.089-.245.128a18.792,18.792,0,0,1-1.791.776c-.355.135-.7.253-1.016.357a8,8,0,0,0-1.43.527,2.443,2.443,0,0,1-.02,1.361,10.236,10.236,0,0,1-.751,2.327,4.756,4.756,0,0,1-.9,1.506.867.867,0,0,1-.407.208,1.149,1.149,0,0,1-.589-.067,9.725,9.725,0,0,1-3.045-2.51c-.168-.183-.325-.356-.455-.513-.391-.452-.64-.764-.64-.764a23.675,23.675,0,0,1-3.511.444,7.194,7.194,0,0,1-1.357-.068,2.272,2.272,0,0,1-.885-.284c-.012-.006-.017-.007-.022-.014a.977.977,0,0,1-.229-.2c-.6-.751.2-2.7.913-4.091.2-.385.383-.725.531-.986.16-.278.275-.46.3-.5l0-.009a24.336,24.336,0,0,1-2.778-5.061.038.038,0,0,1-.005-.024,3.574,3.574,0,0,1,.287-2.789,1.1,1.1,0,0,1,.51-.6,1.168,1.168,0,0,1,.635-.014,1.236,1.236,0,0,1,.706.277,1.3,1.3,0,0,0,.24.24,1.3,1.3,0,0,1,.248.115.853.853,0,0,1,.139.234.848.848,0,0,0,.523.308c.747.218,1.45.494,2.211.7.469.127.935.264,1.4.418,0,0,.364-.517.926-1.228,1.319-1.661,3.74-4.41,5.029-3.933.569.211.929,1.08,1.164,2.169a16.6,16.6,0,0,1,.291,2.289,33.67,33.67,0,0,1,.054,3.467,12.428,12.428,0,0,0,1.515.682,5.924,5.924,0,0,0,2.157.4,2.666,2.666,0,0,1,2.18.6,1.191,1.191,0,0,1,.39.811,1.551,1.551,0,0,1-.159.619,5.867,5.867,0,0,1-2.105,2.69" fill="#870434"/>
        <path id="Path_5618" data-name="Path 5618" d="M56.791,29.041l-1.333-.632a31.505,31.505,0,0,0,5.359-1.631c2.071-.951,2,.216,2,.216a14.13,14.13,0,0,1-6.03,2.047" fill="#6d0046"/>
        <path id="Path_5619" data-name="Path 5619" d="M63.134,25.71l-.006,0c-.078.04-.158.085-.242.123a18.058,18.058,0,0,1-1.791.776c-.355.137-.7.253-1.016.358-.854.285-1.482.448-1.482.448a24.252,24.252,0,0,1-.406,2.42,5.9,5.9,0,0,1-1.216,2.853.871.871,0,0,1-.407.208,1.149,1.149,0,0,1-.589-.067,9.739,9.739,0,0,1-3.045-2.51c-.168-.183-.325-.356-.455-.513-.391-.453-.64-.765-.64-.765a23.458,23.458,0,0,1-3.511.445,7.361,7.361,0,0,1-1.357-.068,2.271,2.271,0,0,1-.885-.285c-.012,0-.018-.006-.022-.013a.974.974,0,0,1-.229-.2c-.6-.751.2-2.7.913-4.092.2-.386.383-.726.531-.986.16-.278.275-.461.294-.5l0-.01A24.3,24.3,0,0,1,44.8,18.273a.041.041,0,0,1-.005-.025,3.017,3.017,0,0,1-.186-1.29l0-.01a1.124,1.124,0,0,1,.1-.312.88.88,0,0,1,.407-.358,6.3,6.3,0,0,1,3.407.03,27.185,27.185,0,0,1,3.158.833s.364-.518.926-1.229c1.318-1.661,3.74-4.409,5.029-3.932.569.211.929,1.08,1.164,2.169a16.588,16.588,0,0,1,.291,2.288,33.689,33.689,0,0,1,.054,3.468s.757.3,1.713.782a14.357,14.357,0,0,1,3.279,2.065,1.716,1.716,0,0,1,.718,1.345c-.085.564-.8,1.124-1.729,1.613" fill="#ff0763"/>
        <g id="Group_7968" data-name="Group 7968" opacity="0.2">
          <g id="Group_7967" data-name="Group 7967">
            <g id="Group_7966" data-name="Group 7966" clip-path="url(#clip-path-4)">
              <path id="Path_5620" data-name="Path 5620" d="M63.134,25.71l-.006,0c-.078.04-.158.085-.242.123a18.058,18.058,0,0,1-1.791.776,26.322,26.322,0,0,0-5.158-1.244c-2.342-.266-5.814-.4-9.189-.536.2-.386.383-.726.531-.986.16-.278.275-.461.294-.5l0-.01A24.3,24.3,0,0,1,44.8,18.273a.041.041,0,0,1-.005-.025,3.017,3.017,0,0,1-.186-1.29l0-.01a1.124,1.124,0,0,1,.1-.312.88.88,0,0,1,.407-.358,6.3,6.3,0,0,1,3.407.03,27.185,27.185,0,0,1,3.158.833s.364-.518.926-1.229c2.147.238,4.41.427,6.484.525a33.689,33.689,0,0,1,.054,3.468s.757.3,1.713.782a14.357,14.357,0,0,1,3.279,2.065,1.716,1.716,0,0,1,.718,1.345c-.085.564-.8,1.124-1.729,1.613" fill="#fff"/>
            </g>
          </g>
        </g>
        <g id="Group_7971" data-name="Group 7971" opacity="0.59">
          <g id="Group_7970" data-name="Group 7970">
            <g id="Group_7969" data-name="Group 7969" clip-path="url(#clip-path-5)">
              <path id="Path_5621" data-name="Path 5621" d="M60.172,20.353s-1.227.222-.6,1.595,3.713,1.527,4.277.992-2.28-2.092-3.677-2.587" fill="#fff"/>
            </g>
          </g>
        </g>
        <path id="Path_5622" data-name="Path 5622" d="M7.486,27.371c.08.047.162.089.245.128a18.792,18.792,0,0,0,1.791.776c.355.135.7.253,1.016.357a8,8,0,0,1,1.43.527,2.443,2.443,0,0,0,.02,1.361,10.236,10.236,0,0,0,.751,2.327,4.756,4.756,0,0,0,.9,1.506.867.867,0,0,0,.407.208,1.149,1.149,0,0,0,.589-.067,9.725,9.725,0,0,0,3.045-2.51c.168-.183.325-.356.455-.513.391-.452.64-.764.64-.764a23.675,23.675,0,0,0,3.511.444,7.194,7.194,0,0,0,1.357-.068,2.272,2.272,0,0,0,.885-.284c.012-.006.017-.007.022-.014a.977.977,0,0,0,.229-.2c.6-.751-.2-2.7-.913-4.091-.2-.385-.383-.725-.531-.986-.16-.278-.275-.46-.3-.5l0-.009a24.336,24.336,0,0,0,2.778-5.061.038.038,0,0,0,0-.024,3.574,3.574,0,0,0-.287-2.789,1.1,1.1,0,0,0-.51-.6,1.168,1.168,0,0,0-.635-.014,1.236,1.236,0,0,0-.706.277,1.3,1.3,0,0,1-.24.24,1.3,1.3,0,0,0-.248.115.853.853,0,0,0-.139.234.848.848,0,0,1-.523.308c-.747.218-1.45.494-2.211.7-.469.127-.935.264-1.4.418,0,0-.364-.517-.926-1.228-1.319-1.661-3.74-4.41-5.029-3.933-.569.211-.929,1.08-1.164,2.169a16.6,16.6,0,0,0-.291,2.289,33.67,33.67,0,0,0-.054,3.467,12.428,12.428,0,0,1-1.515.682,5.924,5.924,0,0,1-2.157.4,2.666,2.666,0,0,0-2.18.6,1.191,1.191,0,0,0-.39.811,1.551,1.551,0,0,0,.159.619,5.867,5.867,0,0,0,2.105,2.69" fill="#d98404"/>
        <path id="Path_5623" data-name="Path 5623" d="M13.209,29.041l1.333-.632a31.505,31.505,0,0,1-5.359-1.631c-2.071-.951-2,.216-2,.216a14.13,14.13,0,0,0,6.03,2.047" fill="#aa6100"/>
        <path id="Path_5624" data-name="Path 5624" d="M6.866,25.71l.006,0c.078.04.158.085.242.123a18.058,18.058,0,0,0,1.791.776c.355.137.7.253,1.016.358.854.285,1.482.448,1.482.448a24.251,24.251,0,0,0,.406,2.42,5.9,5.9,0,0,0,1.216,2.853.871.871,0,0,0,.407.208,1.149,1.149,0,0,0,.589-.067,9.739,9.739,0,0,0,3.045-2.51c.168-.183.325-.356.455-.513.391-.453.64-.765.64-.765a23.458,23.458,0,0,0,3.511.445,7.361,7.361,0,0,0,1.357-.068,2.271,2.271,0,0,0,.885-.285c.012,0,.018-.006.022-.013a.974.974,0,0,0,.229-.2c.6-.751-.2-2.7-.913-4.092-.2-.386-.383-.726-.531-.986-.16-.278-.275-.461-.294-.5l0-.01A24.3,24.3,0,0,0,25.2,18.273a.041.041,0,0,0,0-.025,3.017,3.017,0,0,0,.186-1.29l0-.01a1.092,1.092,0,0,0-.1-.312.88.88,0,0,0-.407-.358,6.3,6.3,0,0,0-3.407.03,27.185,27.185,0,0,0-3.158.833s-.364-.518-.926-1.229c-1.318-1.661-3.74-4.409-5.029-3.932-.569.211-.929,1.08-1.164,2.169a16.588,16.588,0,0,0-.291,2.288,33.689,33.689,0,0,0-.054,3.468s-.757.3-1.713.782a14.357,14.357,0,0,0-3.279,2.065A1.716,1.716,0,0,0,5.137,24.1c.085.564.8,1.124,1.729,1.613" fill="#fffd04"/>
        <g id="Group_7974" data-name="Group 7974" opacity="0.41">
          <g id="Group_7973" data-name="Group 7973">
            <g id="Group_7972" data-name="Group 7972" clip-path="url(#clip-path-6)">
              <path id="Path_5625" data-name="Path 5625" d="M6.866,25.71l.006,0c.078.04.158.085.242.123a18.058,18.058,0,0,0,1.791.776,26.322,26.322,0,0,1,5.158-1.244c2.342-.266,5.814-.4,9.189-.536-.2-.386-.383-.726-.531-.986-.16-.278-.275-.461-.294-.5l0-.01A24.3,24.3,0,0,0,25.2,18.273a.041.041,0,0,0,0-.025,3.017,3.017,0,0,0,.186-1.29l0-.01a1.092,1.092,0,0,0-.1-.312.88.88,0,0,0-.407-.358,6.3,6.3,0,0,0-3.407.03,27.185,27.185,0,0,0-3.158.833s-.364-.518-.926-1.229c-2.147.238-4.41.427-6.484.525a33.689,33.689,0,0,0-.054,3.468s-.757.3-1.713.782a14.357,14.357,0,0,0-3.279,2.065A1.716,1.716,0,0,0,5.137,24.1c.085.564.8,1.124,1.729,1.613" fill="#fff"/>
            </g>
          </g>
        </g>
        <g id="Group_7977" data-name="Group 7977" opacity="0.59">
          <g id="Group_7976" data-name="Group 7976">
            <g id="Group_7975" data-name="Group 7975" clip-path="url(#clip-path-7)">
              <path id="Path_5626" data-name="Path 5626" d="M9.828,20.353s1.227.222.6,1.595-3.713,1.527-4.277.992,2.28-2.092,3.677-2.587" fill="#fff"/>
            </g>
          </g>
        </g>
        <path id="Path_5627" data-name="Path 5627" d="M45.471,49.193a2.71,2.71,0,0,0,.245.127,18.3,18.3,0,0,0,1.791.776c.355.136.7.253,1.016.358a8,8,0,0,1,1.43.526,2.443,2.443,0,0,0,.02,1.361,10.244,10.244,0,0,0,.751,2.328,4.752,4.752,0,0,0,.9,1.505.849.849,0,0,0,.407.208,1.147,1.147,0,0,0,.589-.066,9.729,9.729,0,0,0,3.045-2.511c.168-.182.325-.355.455-.513.391-.452.64-.764.64-.764a23.526,23.526,0,0,0,3.511.444,7.194,7.194,0,0,0,1.357-.068,2.255,2.255,0,0,0,.885-.284c.012,0,.017-.007.022-.014a.952.952,0,0,0,.229-.2c.605-.751-.2-2.705-.913-4.091-.2-.386-.383-.726-.531-.986-.16-.278-.275-.461-.3-.5l0-.01a24.318,24.318,0,0,0,2.778-5.06.04.04,0,0,0,0-.025,3.571,3.571,0,0,0-.287-2.788,1.1,1.1,0,0,0-.51-.6,1.178,1.178,0,0,0-.635-.014,1.243,1.243,0,0,0-.706.277,1.274,1.274,0,0,1-.24.241,1.3,1.3,0,0,0-.248.114.884.884,0,0,0-.139.234.843.843,0,0,1-.523.308c-.747.219-1.45.5-2.211.7-.469.127-.935.265-1.4.418,0,0-.364-.518-.926-1.228-1.319-1.661-3.74-4.41-5.029-3.933-.569.211-.929,1.08-1.164,2.169a16.608,16.608,0,0,0-.291,2.288,33.689,33.689,0,0,0-.054,3.468,12.427,12.427,0,0,1-1.515.682,5.924,5.924,0,0,1-2.157.4,2.666,2.666,0,0,0-2.18.6,1.188,1.188,0,0,0-.39.81,1.551,1.551,0,0,0,.159.619,5.87,5.87,0,0,0,2.1,2.691" fill="#3e0789"/>
        <path id="Path_5628" data-name="Path 5628" d="M51.195,50.862l1.333-.632A31.505,31.505,0,0,1,47.169,48.6c-2.071-.951-2,.216-2,.216a14.13,14.13,0,0,0,6.03,2.047" fill="#230454"/>
        <path id="Path_5629" data-name="Path 5629" d="M44.851,47.531l.006,0c.078.04.158.085.242.123a18.059,18.059,0,0,0,1.791.776c.355.137.7.253,1.016.358.854.285,1.482.448,1.482.448a24.252,24.252,0,0,0,.406,2.42,5.9,5.9,0,0,0,1.216,2.853.871.871,0,0,0,.407.208,1.149,1.149,0,0,0,.589-.067,9.739,9.739,0,0,0,3.045-2.51c.168-.183.325-.356.455-.513.391-.453.64-.765.64-.765a23.458,23.458,0,0,0,3.511.445,7.36,7.36,0,0,0,1.357-.068,2.271,2.271,0,0,0,.885-.285c.012,0,.018-.006.022-.013a.974.974,0,0,0,.229-.2c.6-.751-.2-2.705-.913-4.092-.2-.386-.383-.726-.531-.986-.16-.278-.275-.461-.294-.5l0-.01a24.3,24.3,0,0,0,2.778-5.059.041.041,0,0,0,.005-.025,3.017,3.017,0,0,0,.186-1.29l0-.01a1.124,1.124,0,0,0-.1-.312.88.88,0,0,0-.407-.358,6.3,6.3,0,0,0-3.407.03,27.185,27.185,0,0,0-3.158.833s-.364-.518-.926-1.229c-1.318-1.661-3.74-4.409-5.029-3.932-.569.211-.929,1.08-1.164,2.169a16.588,16.588,0,0,0-.291,2.288,33.689,33.689,0,0,0-.054,3.468s-.757.3-1.713.782a14.358,14.358,0,0,0-3.279,2.065,1.716,1.716,0,0,0-.718,1.345c.085.564.8,1.124,1.729,1.613" fill="#980dff"/>
        <g id="Group_7980" data-name="Group 7980" opacity="0.2">
          <g id="Group_7979" data-name="Group 7979">
            <g id="Group_7978" data-name="Group 7978" clip-path="url(#clip-path-8)">
              <path id="Path_5630" data-name="Path 5630" d="M44.851,47.531l.006,0c.078.04.158.085.242.123a18.059,18.059,0,0,0,1.791.776,26.322,26.322,0,0,1,5.158-1.244c2.342-.266,5.814-.395,9.189-.536-.2-.386-.383-.726-.531-.986-.16-.278-.275-.461-.294-.5l0-.01a24.3,24.3,0,0,0,2.778-5.059.041.041,0,0,0,.005-.025,3.017,3.017,0,0,0,.186-1.29l0-.01a1.124,1.124,0,0,0-.1-.312.88.88,0,0,0-.407-.358,6.3,6.3,0,0,0-3.407.03,27.185,27.185,0,0,0-3.158.833s-.364-.518-.926-1.229c-2.147.238-4.41.427-6.484.525a33.689,33.689,0,0,0-.054,3.468s-.757.3-1.713.782a14.358,14.358,0,0,0-3.279,2.065,1.716,1.716,0,0,0-.718,1.345c.085.564.8,1.124,1.729,1.613" fill="#fff"/>
            </g>
          </g>
        </g>
        <g id="Group_7983" data-name="Group 7983" opacity="0.59">
          <g id="Group_7982" data-name="Group 7982">
            <g id="Group_7981" data-name="Group 7981" clip-path="url(#clip-path-9)">
              <path id="Path_5631" data-name="Path 5631" d="M56.9,38.8s-.75,1,.642,1.578,3.763-1.4,3.813-2.175-3.093.012-4.455.6" fill="#fff"/>
            </g>
          </g>
        </g>
        <path id="Path_5632" data-name="Path 5632" d="M24.595,49.193a2.71,2.71,0,0,1-.245.127,18.3,18.3,0,0,1-1.791.776c-.355.136-.7.253-1.016.358a8,8,0,0,0-1.43.526,2.443,2.443,0,0,1-.02,1.361,10.244,10.244,0,0,1-.751,2.328,4.751,4.751,0,0,1-.9,1.505.849.849,0,0,1-.407.208,1.147,1.147,0,0,1-.589-.066A9.729,9.729,0,0,1,14.4,53.805c-.168-.182-.325-.355-.455-.513-.391-.452-.64-.764-.64-.764a23.526,23.526,0,0,1-3.511.444A7.194,7.194,0,0,1,8.435,52.9a2.255,2.255,0,0,1-.885-.284c-.012,0-.017-.007-.022-.014a.952.952,0,0,1-.229-.2c-.605-.751.2-2.705.913-4.091.2-.386.383-.726.531-.986.16-.278.275-.461.3-.5l0-.01a24.318,24.318,0,0,1-2.778-5.06.04.04,0,0,1-.005-.025,3.571,3.571,0,0,1,.287-2.788,1.1,1.1,0,0,1,.51-.6,1.178,1.178,0,0,1,.635-.014,1.243,1.243,0,0,1,.706.277,1.274,1.274,0,0,0,.24.241,1.3,1.3,0,0,1,.248.114.884.884,0,0,1,.139.234.843.843,0,0,0,.523.308c.747.219,1.45.5,2.211.7.469.127.935.265,1.4.418,0,0,.364-.518.926-1.228,1.319-1.661,3.74-4.41,5.029-3.933.569.211.929,1.08,1.164,2.169a16.608,16.608,0,0,1,.291,2.288,33.689,33.689,0,0,1,.054,3.468,12.428,12.428,0,0,0,1.515.682,5.924,5.924,0,0,0,2.157.4,2.666,2.666,0,0,1,2.18.6,1.188,1.188,0,0,1,.39.81,1.551,1.551,0,0,1-.159.619,5.87,5.87,0,0,1-2.105,2.691" fill="#14ac86"/>
        <path id="Path_5633" data-name="Path 5633" d="M18.872,50.862l-1.333-.632A31.505,31.505,0,0,0,22.9,48.6c2.071-.951,2,.216,2,.216a14.13,14.13,0,0,1-6.03,2.047" fill="#14ac86"/>
        <path id="Path_5634" data-name="Path 5634" d="M25.215,47.531l-.006,0c-.078.04-.158.085-.242.123a18.059,18.059,0,0,1-1.791.776c-.355.137-.7.253-1.016.358-.854.285-1.482.448-1.482.448a24.251,24.251,0,0,1-.406,2.42,5.9,5.9,0,0,1-1.216,2.853.871.871,0,0,1-.407.208,1.149,1.149,0,0,1-.589-.067,9.736,9.736,0,0,1-3.044-2.51c-.169-.183-.325-.356-.455-.513-.391-.453-.641-.765-.641-.765a23.457,23.457,0,0,1-3.51.445,7.367,7.367,0,0,1-1.358-.068,2.271,2.271,0,0,1-.885-.285c-.011,0-.018-.006-.021-.013a.954.954,0,0,1-.229-.2c-.605-.751.2-2.705.913-4.092.195-.386.382-.726.531-.986.16-.278.274-.461.294-.5l0-.01a24.265,24.265,0,0,1-2.777-5.059.043.043,0,0,1-.006-.025,3.015,3.015,0,0,1-.185-1.29l0-.01a1.063,1.063,0,0,1,.105-.312A.877.877,0,0,1,7.2,38.1a6.307,6.307,0,0,1,3.408.03,27.253,27.253,0,0,1,3.158.833s.363-.518.925-1.229c1.318-1.661,3.74-4.409,5.03-3.932.568.211.928,1.08,1.163,2.169a16.742,16.742,0,0,1,.292,2.288,33.848,33.848,0,0,1,.053,3.468s.757.3,1.713.782a14.358,14.358,0,0,1,3.279,2.065,1.716,1.716,0,0,1,.718,1.345c-.085.564-.8,1.124-1.729,1.613" fill="#1dfbff"/>
        <g id="Group_7986" data-name="Group 7986" opacity="0.47">
          <g id="Group_7985" data-name="Group 7985">
            <g id="Group_7984" data-name="Group 7984" clip-path="url(#clip-path-10)">
              <path id="Path_5635" data-name="Path 5635" d="M25.215,47.531l-.006,0c-.078.04-.158.085-.242.123a18.059,18.059,0,0,1-1.791.776,26.323,26.323,0,0,0-5.158-1.244c-2.341-.266-5.813-.395-9.188-.536.195-.386.382-.726.531-.986.16-.278.274-.461.294-.5l0-.01a24.265,24.265,0,0,1-2.777-5.059.043.043,0,0,1-.006-.025,3.015,3.015,0,0,1-.185-1.29l0-.01a1.063,1.063,0,0,1,.105-.312A.877.877,0,0,1,7.2,38.1a6.307,6.307,0,0,1,3.408.03,27.253,27.253,0,0,1,3.158.833s.363-.518.925-1.229c2.148.238,4.41.427,6.485.525a33.848,33.848,0,0,1,.053,3.468s.757.3,1.713.782a14.358,14.358,0,0,1,3.279,2.065,1.716,1.716,0,0,1,.718,1.345c-.085.564-.8,1.124-1.729,1.613" fill="#fff"/>
            </g>
          </g>
        </g>
        <g id="Group_7989" data-name="Group 7989" opacity="0.59">
          <g id="Group_7988" data-name="Group 7988">
            <g id="Group_7987" data-name="Group 7987" clip-path="url(#clip-path-11)">
              <path id="Path_5636" data-name="Path 5636" d="M13.162,38.8s.75,1-.642,1.578-3.763-1.4-3.813-2.175,3.093.012,4.455.6" fill="#fff"/>
            </g>
          </g>
        </g>
        <path id="Path_5637" data-name="Path 5637" d="M44.577,12.743a2.587,2.587,0,0,1-.186.2,18.136,18.136,0,0,1-1.41,1.349c-.285.252-.57.481-.828.689a8.087,8.087,0,0,0-1.159.99,2.437,2.437,0,0,1,.454,1.284,10.256,10.256,0,0,1,.1,2.443,4.741,4.741,0,0,1-.325,1.726.85.85,0,0,1-.309.336,1.139,1.139,0,0,1-.575.142,9.734,9.734,0,0,1-3.728-1.3c-.22-.113-.428-.221-.6-.324-.524-.288-.866-.494-.866-.494a23.627,23.627,0,0,1-3.138,1.636,7.264,7.264,0,0,1-1.3.407,2.267,2.267,0,0,1-.929.041c-.012,0-.019,0-.025,0a.969.969,0,0,1-.284-.107c-.828-.494-.748-2.608-.565-4.154.05-.43.108-.814.155-1.109.054-.317.1-.528.1-.57V15.92a24.314,24.314,0,0,1-4.362-3.78.048.048,0,0,1-.014-.022,3.572,3.572,0,0,1-.7-2.714,1.1,1.1,0,0,1,.269-.738,1.172,1.172,0,0,1,.591-.234,1.25,1.25,0,0,1,.759.014,1.246,1.246,0,0,0,.308.143,1.351,1.351,0,0,1,.272.02c.086.032.141.115.212.172a.842.842,0,0,0,.6.107c.777-.054,1.533-.039,2.318-.11.484-.043.969-.076,1.454-.092,0,0,.162-.612.442-1.474.659-2.015,1.976-5.434,3.35-5.434.607,0,1.247.69,1.845,1.63a16.768,16.768,0,0,1,1.068,2.044,33.643,33.643,0,0,1,1.255,3.234A12.434,12.434,0,0,0,40.49,8.8a5.918,5.918,0,0,0,2.162-.371,2.664,2.664,0,0,1,2.252-.2,1.183,1.183,0,0,1,.646.624,1.564,1.564,0,0,1,.067.636,5.881,5.881,0,0,1-1.04,3.254" fill="#ea1906"/>
        <path id="Path_5638" data-name="Path 5638" d="M39.79,16.3l-1.469-.13a31.554,31.554,0,0,0,4.458-3.39c1.613-1.611,1.955-.493,1.955-.493A14.141,14.141,0,0,1,39.79,16.3" fill="#a50202"/>
        <path id="Path_5639" data-name="Path 5639" d="M44.582,10.969h-.006c-.06.065-.119.135-.185.2a18.136,18.136,0,0,1-1.41,1.349c-.285.252-.57.481-.828.689-.7.564-1.235.935-1.235.935a24.177,24.177,0,0,1,.46,2.41,5.891,5.891,0,0,1-.149,3.1.86.86,0,0,1-.31.336,1.139,1.139,0,0,1-.575.142,9.72,9.72,0,0,1-3.728-1.3c-.22-.112-.428-.22-.6-.323-.524-.288-.865-.494-.865-.494a23.6,23.6,0,0,1-3.139,1.636,7.264,7.264,0,0,1-1.3.407,2.267,2.267,0,0,1-.929.041c-.012,0-.019,0-.025,0a.969.969,0,0,1-.284-.107c-.828-.494-.748-2.608-.565-4.154.05-.43.108-.814.156-1.109.053-.317.1-.528.1-.571v-.01a24.35,24.35,0,0,1-4.362-3.78.039.039,0,0,1-.013-.022A3.016,3.016,0,0,1,24.17,9.2V9.185a1.145,1.145,0,0,1-.009-.329.883.883,0,0,1,.257-.478,6.313,6.313,0,0,1,3.2-1.154,27.178,27.178,0,0,1,3.251-.316s.162-.612.442-1.474C31.975,3.419,33.291,0,34.665,0c.607,0,1.247.69,1.845,1.63a16.768,16.768,0,0,1,1.068,2.044,33.643,33.643,0,0,1,1.255,3.234s.815.022,1.878.139a14.329,14.329,0,0,1,3.792.8c.618.264,1.053.6,1.14,1.012.116.558-.361,1.332-1.061,2.113" fill="#ff7203"/>
        <g id="Group_7992" data-name="Group 7992" opacity="0.2">
          <g id="Group_7991" data-name="Group 7991">
            <g id="Group_7990" data-name="Group 7990" clip-path="url(#clip-path-12)">
              <path id="Path_5640" data-name="Path 5640" d="M44.582,10.969h-.006c-.06.065-.119.135-.185.2a18.136,18.136,0,0,1-1.41,1.349,26.3,26.3,0,0,0-5.269.625c-2.288.564-5.588,1.649-8.8,2.689.05-.43.108-.814.156-1.109.053-.317.1-.528.1-.571v-.01a24.35,24.35,0,0,1-4.362-3.78.039.039,0,0,1-.013-.022A3.016,3.016,0,0,1,24.17,9.2V9.185a1.145,1.145,0,0,1-.009-.329.883.883,0,0,1,.257-.478,6.313,6.313,0,0,1,3.2-1.154,27.178,27.178,0,0,1,3.251-.316s.162-.612.442-1.474c2.1-.522,4.284-1.131,6.263-1.76a33.643,33.643,0,0,1,1.255,3.234s.815.022,1.878.139a14.329,14.329,0,0,1,3.792.8c.618.264,1.053.6,1.14,1.012.116.558-.361,1.332-1.061,2.113" fill="#fff"/>
            </g>
          </g>
        </g>
        <g id="Group_7995" data-name="Group 7995" opacity="0.59">
          <g id="Group_7994" data-name="Group 7994">
            <g id="Group_7993" data-name="Group 7993" clip-path="url(#clip-path-13)">
              <path id="Path_5641" data-name="Path 5641" d="M39.944,6.973s-1.074.635-.008,1.705,4.012.141,4.354-.555-2.864-1.171-4.346-1.15" fill="#fff"/>
            </g>
          </g>
        </g>
        <path id="Path_5642" data-name="Path 5642" d="M25.154,56.147a2.588,2.588,0,0,0,.186.2A18.138,18.138,0,0,0,26.75,57.7c.285.252.57.481.828.689a8.087,8.087,0,0,1,1.159.99,2.437,2.437,0,0,0-.454,1.284,10.256,10.256,0,0,0-.105,2.443,4.741,4.741,0,0,0,.325,1.726.85.85,0,0,0,.309.336,1.139,1.139,0,0,0,.575.142,9.734,9.734,0,0,0,3.728-1.3c.22-.113.428-.221.6-.324.524-.288.866-.494.866-.494a23.627,23.627,0,0,0,3.138,1.636,7.264,7.264,0,0,0,1.3.407,2.25,2.25,0,0,0,.929.041c.012,0,.019,0,.025,0a.969.969,0,0,0,.284-.107c.828-.494.748-2.608.565-4.154-.05-.43-.108-.814-.155-1.109-.054-.317-.1-.528-.1-.57v-.011a24.314,24.314,0,0,0,4.362-3.78.048.048,0,0,0,.014-.022,3.572,3.572,0,0,0,.7-2.714,1.1,1.1,0,0,0-.269-.738,1.172,1.172,0,0,0-.591-.234,1.25,1.25,0,0,0-.759.014,1.246,1.246,0,0,1-.308.143,1.351,1.351,0,0,0-.272.02c-.086.032-.141.115-.212.172a.842.842,0,0,1-.6.107c-.777-.054-1.533-.039-2.318-.11-.484-.043-.969-.076-1.454-.092,0,0-.162-.612-.442-1.474-.659-2.015-1.976-5.434-3.35-5.434-.607,0-1.247.69-1.845,1.63a16.768,16.768,0,0,0-1.068,2.044A33.643,33.643,0,0,0,30.9,52.09a12.434,12.434,0,0,1-1.657.112,5.918,5.918,0,0,1-2.162-.371,2.664,2.664,0,0,0-2.252-.2,1.183,1.183,0,0,0-.646.624,1.564,1.564,0,0,0-.067.636,5.881,5.881,0,0,0,1.04,3.254" fill="#100a97"/>
        <path id="Path_5643" data-name="Path 5643" d="M29.941,59.7l1.469-.13a31.554,31.554,0,0,1-4.458-3.39C25.339,54.569,25,55.687,25,55.687A14.142,14.142,0,0,0,29.941,59.7" fill="#040447"/>
        <path id="Path_5644" data-name="Path 5644" d="M25.149,54.373h.006c.06.065.119.135.185.2a18.138,18.138,0,0,0,1.41,1.349c.285.252.57.481.828.689.7.564,1.235.935,1.235.935a24.178,24.178,0,0,0-.46,2.41,5.891,5.891,0,0,0,.149,3.1.86.86,0,0,0,.31.336,1.139,1.139,0,0,0,.575.142,9.72,9.72,0,0,0,3.728-1.3c.22-.112.428-.22.6-.323.524-.288.865-.494.865-.494a23.6,23.6,0,0,0,3.139,1.636,7.264,7.264,0,0,0,1.3.407,2.267,2.267,0,0,0,.929.041c.012,0,.019,0,.025,0a.969.969,0,0,0,.284-.107c.828-.494.748-2.608.565-4.154-.05-.43-.108-.814-.156-1.109-.053-.317-.1-.528-.1-.571v-.01a24.35,24.35,0,0,0,4.362-3.78.039.039,0,0,0,.013-.022,3.016,3.016,0,0,0,.622-1.144v-.011a1.145,1.145,0,0,0,.009-.329.883.883,0,0,0-.257-.478,6.313,6.313,0,0,0-3.2-1.154,27.178,27.178,0,0,0-3.251-.316s-.162-.612-.442-1.474c-.66-2.015-1.976-5.434-3.35-5.434-.607,0-1.247.69-1.845,1.63a16.768,16.768,0,0,0-1.068,2.044A33.643,33.643,0,0,0,30.9,50.312s-.815.022-1.878.139a14.329,14.329,0,0,0-3.792.8c-.618.264-1.053.595-1.14,1.012-.116.558.361,1.332,1.061,2.113" fill="#112bff"/>
        <g id="Group_7998" data-name="Group 7998" opacity="0.13">
          <g id="Group_7997" data-name="Group 7997">
            <g id="Group_7996" data-name="Group 7996" clip-path="url(#clip-path-14)">
              <path id="Path_5645" data-name="Path 5645" d="M25.149,54.373h.006c.06.065.119.135.185.2a18.138,18.138,0,0,0,1.41,1.349,26.3,26.3,0,0,1,5.269.625c2.288.564,5.588,1.649,8.8,2.689-.05-.43-.108-.814-.156-1.109-.053-.317-.1-.528-.1-.571v-.01a24.35,24.35,0,0,0,4.362-3.78.039.039,0,0,0,.013-.022,3.016,3.016,0,0,0,.622-1.144v-.011a1.145,1.145,0,0,0,.009-.329.883.883,0,0,0-.257-.478,6.313,6.313,0,0,0-3.2-1.154,27.178,27.178,0,0,0-3.251-.316s-.162-.612-.442-1.474c-2.1-.522-4.284-1.131-6.263-1.76A33.643,33.643,0,0,0,30.9,50.312s-.815.022-1.878.139a14.329,14.329,0,0,0-3.792.8c-.618.264-1.053.595-1.14,1.012-.116.558.361,1.332,1.061,2.113" fill="#fff"/>
            </g>
          </g>
        </g>
        <g id="Group_8001" data-name="Group 8001" opacity="0.59">
          <g id="Group_8000" data-name="Group 8000">
            <g id="Group_7999" data-name="Group 7999" clip-path="url(#clip-path-15)">
              <path id="Path_5646" data-name="Path 5646" d="M29.787,50.378s1.074.634.008,1.7-4.012.142-4.354-.555,2.864-1.17,4.346-1.149" fill="#fff"/>
            </g>
          </g>
        </g>
        <path id="Path_5647" data-name="Path 5647" d="M45.242,34.82a2.945,2.945,0,0,1-.2.218,19.537,19.537,0,0,1-1.507,1.442c-.305.268-.609.514-.885.736a8.536,8.536,0,0,0-1.238,1.058,2.6,2.6,0,0,1,.485,1.371,10.979,10.979,0,0,1,.112,2.611,5.07,5.07,0,0,1-.347,1.843.912.912,0,0,1-.33.36,1.242,1.242,0,0,1-.615.152,10.41,10.41,0,0,1-3.983-1.386c-.235-.121-.457-.236-.646-.346-.559-.307-.924-.528-.924-.528A25.126,25.126,0,0,1,31.812,44.1a7.765,7.765,0,0,1-1.384.436,2.424,2.424,0,0,1-.993.043.042.042,0,0,1-.027,0,1.02,1.02,0,0,1-.3-.114c-.885-.529-.8-2.787-.6-4.439.053-.459.114-.869.165-1.185.058-.338.1-.564.11-.609v-.012a25.959,25.959,0,0,1-4.66-4.038.048.048,0,0,1-.015-.023,3.815,3.815,0,0,1-.746-2.9,1.172,1.172,0,0,1,.287-.79,1.253,1.253,0,0,1,.632-.249,1.331,1.331,0,0,1,.81.015,1.346,1.346,0,0,0,.33.152,1.473,1.473,0,0,1,.291.022.936.936,0,0,1,.226.184.909.909,0,0,0,.638.115c.83-.058,1.637-.043,2.476-.118.517-.046,1.035-.082,1.554-.1,0,0,.172-.654.472-1.574.7-2.154,2.111-5.806,3.58-5.806.648,0,1.331.737,1.971,1.741a17.918,17.918,0,0,1,1.14,2.184A35.864,35.864,0,0,1,39.1,30.485a13.248,13.248,0,0,0,1.771.12,6.288,6.288,0,0,0,2.31-.4A2.846,2.846,0,0,1,45.591,30a1.266,1.266,0,0,1,.691.667,1.669,1.669,0,0,1,.071.679,6.277,6.277,0,0,1-1.111,3.477" fill="#ff4e00"/>
        <path id="Path_5648" data-name="Path 5648" d="M40.127,38.616l-1.57-.139a33.69,33.69,0,0,0,4.764-3.622c1.723-1.721,2.088-.527,2.088-.527a15.1,15.1,0,0,1-5.282,4.288" fill="#d30000"/>
        <path id="Path_5649" data-name="Path 5649" d="M45.247,32.924H45.24c-.063.069-.127.145-.2.215a19.512,19.512,0,0,1-1.506,1.441c-.305.269-.609.514-.885.736-.751.6-1.319,1-1.319,1a26.035,26.035,0,0,1,.491,2.574,6.3,6.3,0,0,1-.16,3.31.912.912,0,0,1-.33.36,1.242,1.242,0,0,1-.615.152,10.4,10.4,0,0,1-3.983-1.385c-.235-.121-.457-.236-.646-.347-.56-.307-.924-.528-.924-.528A25,25,0,0,1,31.812,42.2a7.765,7.765,0,0,1-1.384.436,2.406,2.406,0,0,1-.993.043.042.042,0,0,1-.027-.005.993.993,0,0,1-.3-.114c-.885-.528-.8-2.786-.6-4.438.054-.461.115-.871.166-1.185.058-.339.1-.564.11-.61v-.011a25.959,25.959,0,0,1-4.66-4.038.04.04,0,0,1-.015-.024,3.219,3.219,0,0,1-.664-1.223v-.011a1.2,1.2,0,0,1-.01-.352.937.937,0,0,1,.275-.51,6.736,6.736,0,0,1,3.424-1.233,28.751,28.751,0,0,1,3.474-.338s.172-.655.472-1.575c.7-2.153,2.111-5.806,3.579-5.806.649,0,1.332.737,1.971,1.742a17.783,17.783,0,0,1,1.141,2.184A35.75,35.75,0,0,1,39.1,28.586s.871.024,2.006.148a15.321,15.321,0,0,1,4.053.852c.66.282,1.124.636,1.218,1.081.124.6-.386,1.423-1.134,2.257" fill="#ffa900"/>
        <g id="Group_8004" data-name="Group 8004" opacity="0.2">
          <g id="Group_8003" data-name="Group 8003">
            <g id="Group_8002" data-name="Group 8002" clip-path="url(#clip-path-16)">
              <path id="Path_5650" data-name="Path 5650" d="M45.247,32.924H45.24c-.063.069-.127.145-.2.215a19.512,19.512,0,0,1-1.506,1.441,28.069,28.069,0,0,0-5.63.668c-2.445.6-5.971,1.761-9.406,2.873.054-.461.115-.871.166-1.185.058-.339.1-.564.11-.61v-.011a25.959,25.959,0,0,1-4.66-4.038.04.04,0,0,1-.015-.024,3.219,3.219,0,0,1-.664-1.223v-.011a1.2,1.2,0,0,1-.01-.352.937.937,0,0,1,.275-.51,6.736,6.736,0,0,1,3.424-1.233,28.751,28.751,0,0,1,3.474-.338s.172-.655.472-1.575c2.239-.559,4.577-1.209,6.691-1.88A35.75,35.75,0,0,1,39.1,28.586s.871.024,2.006.148a15.321,15.321,0,0,1,4.053.852c.66.282,1.124.636,1.218,1.081.124.6-.386,1.423-1.134,2.257" fill="#fff"/>
            </g>
          </g>
        </g>
        <g id="Group_8007" data-name="Group 8007" opacity="0.59">
          <g id="Group_8006" data-name="Group 8006">
            <g id="Group_8005" data-name="Group 8005" clip-path="url(#clip-path-17)">
              <path id="Path_5651" data-name="Path 5651" d="M40.291,28.656s-1.147.678-.009,1.82,4.287.153,4.653-.593-3.061-1.249-4.644-1.227" fill="#fff"/>
            </g>
          </g>
        </g>
        <g id="Group_8010" data-name="Group 8010" opacity="0.59">
          <g id="Group_8009" data-name="Group 8009">
            <g id="Group_8008" data-name="Group 8008" clip-path="url(#clip-path-18)">
              <path id="Path_5652" data-name="Path 5652" d="M29.527,28.656s1.147.678.009,1.82-4.287.153-4.653-.593,3.061-1.249,4.644-1.227" fill="#fff"/>
            </g>
          </g>
        </g>
      </g>
    </g>
  </g>
</svg>
