<svg id="no" xmlns="http://www.w3.org/2000/svg" width="119.779" height="119.779" viewBox="0 0 119.779 119.779">
  <rect id="frame" width="119.779" height="119.779" fill="none"/>
  <path id="Path_5434" data-name="Path 5434" d="M0,22.865H4.138L26.413,37.676V22.865H40.794V60.893H35.3L14.33,47.82V60.893H0Z" transform="translate(18.623 24.213)" opacity="0.3"/>
  <path id="Path_5435" data-name="Path 5435" d="M97.091,67.043A19.306,19.306,0,0,1,84.5,62.732a14.7,14.7,0,0,1-.357-22.871,19.676,19.676,0,0,1,13.053-4.417,19.951,19.951,0,0,1,13.053,4.322,14.236,14.236,0,0,1,5.313,11.56,13.629,13.629,0,0,1-2.529,8.215,16.781,16.781,0,0,1-6.82,5.525,21.95,21.95,0,0,1-9.12,1.977m4.956-22.05a3.129,3.129,0,0,0-1.315-.238,4.343,4.343,0,0,0-1.775.441,8.984,8.984,0,0,0-1.916,1.2,14.391,14.391,0,0,0-3.346,3.929,8.535,8.535,0,0,0-1.354,4.249,2.558,2.558,0,0,0,1.584,2.608,3.546,3.546,0,0,0,1.379.238,3.714,3.714,0,0,0,1.712-.464A9.05,9.05,0,0,0,98.8,55.708a16.7,16.7,0,0,0,3.27-3.988,8.4,8.4,0,0,0,1.4-4.2,2.52,2.52,0,0,0-1.43-2.524" transform="translate(-14.404 18.945)" opacity="0.3"/>
  <path id="Path_5436" data-name="Path 5436" d="M0,11.433H4.138L26.413,26.244V11.433H40.794V49.46H35.3L14.33,36.388V49.46H0Z" transform="translate(18.623 29.002)" opacity="0.3"/>
  <path id="Path_5437" data-name="Path 5437" d="M97.091,55.61A19.309,19.309,0,0,1,84.5,51.3a14.213,14.213,0,0,1-5.645-11.513A14.128,14.128,0,0,1,84.14,28.429a19.676,19.676,0,0,1,13.053-4.417,19.951,19.951,0,0,1,13.053,4.322,14.236,14.236,0,0,1,5.313,11.56,13.629,13.629,0,0,1-2.529,8.215,16.776,16.776,0,0,1-6.82,5.525,21.931,21.931,0,0,1-9.12,1.977m4.956-22.05a3.129,3.129,0,0,0-1.315-.238,4.343,4.343,0,0,0-1.775.441,8.984,8.984,0,0,0-1.916,1.2,14.391,14.391,0,0,0-3.346,3.929,8.535,8.535,0,0,0-1.354,4.25,2.558,2.558,0,0,0,1.584,2.608,3.536,3.536,0,0,0,1.379.238,3.714,3.714,0,0,0,1.712-.464A9.049,9.049,0,0,0,98.8,44.275a16.684,16.684,0,0,0,3.27-3.988,8.4,8.4,0,0,0,1.4-4.2,2.52,2.52,0,0,0-1.43-2.524" transform="translate(-14.404 23.733)"/>
  <path id="Path_5438" data-name="Path 5438" d="M26.413,11.433V26.244L4.139,11.433H0V49.46H14.33V36.388L35.3,49.46h5.491V11.433Z" transform="translate(18.623 29.002)" fill="#979797"/>
  <path id="Path_5439" data-name="Path 5439" d="M97.091,55.61A19.309,19.309,0,0,1,84.5,51.3a14.213,14.213,0,0,1-5.645-11.513A14.128,14.128,0,0,1,84.14,28.429a19.676,19.676,0,0,1,13.053-4.417,19.951,19.951,0,0,1,13.053,4.322,14.236,14.236,0,0,1,5.313,11.56,13.629,13.629,0,0,1-2.529,8.215,16.776,16.776,0,0,1-6.82,5.525,21.931,21.931,0,0,1-9.12,1.977m4.956-22.05a3.129,3.129,0,0,0-1.315-.238,4.343,4.343,0,0,0-1.775.441,8.984,8.984,0,0,0-1.916,1.2,14.391,14.391,0,0,0-3.346,3.929,8.535,8.535,0,0,0-1.354,4.25,2.558,2.558,0,0,0,1.584,2.608,3.536,3.536,0,0,0,1.379.238,3.714,3.714,0,0,0,1.712-.464A9.049,9.049,0,0,0,98.8,44.275a16.684,16.684,0,0,0,3.27-3.988,8.4,8.4,0,0,0,1.4-4.2,2.52,2.52,0,0,0-1.43-2.524" transform="translate(-14.404 23.733)" fill="#979797"/>
  <path id="Path_5440" data-name="Path 5440" d="M0,0H4.138L26.413,14.811V0H40.794V38.028H35.3L14.33,24.955V38.028H0Z" transform="translate(18.623 33.791)" fill="#fff"/>
  <path id="Path_5441" data-name="Path 5441" d="M97.091,44.177A19.309,19.309,0,0,1,84.5,39.867a14.213,14.213,0,0,1-5.645-11.513A14.128,14.128,0,0,1,84.14,17a19.676,19.676,0,0,1,13.053-4.417A19.951,19.951,0,0,1,110.246,16.9a14.236,14.236,0,0,1,5.313,11.56,13.629,13.629,0,0,1-2.529,8.215,16.776,16.776,0,0,1-6.82,5.525,21.931,21.931,0,0,1-9.12,1.977m4.956-22.05a3.129,3.129,0,0,0-1.315-.238,4.343,4.343,0,0,0-1.775.441,8.984,8.984,0,0,0-1.916,1.2,14.391,14.391,0,0,0-3.346,3.929,8.535,8.535,0,0,0-1.354,4.25,2.558,2.558,0,0,0,1.584,2.608,3.536,3.536,0,0,0,1.379.238,3.714,3.714,0,0,0,1.712-.464A9.05,9.05,0,0,0,98.8,32.842a16.684,16.684,0,0,0,3.27-3.988,8.4,8.4,0,0,0,1.4-4.2,2.52,2.52,0,0,0-1.43-2.524" transform="translate(-14.404 28.522)" fill="#fff"/>
</svg>
