<svg id="no" xmlns="http://www.w3.org/2000/svg" width="119.779" height="119.779" viewBox="0 0 119.779 119.779">
  <path id="shadow" d="M27.177,71.8c-.072-.2,0-2.507,0-2.846,0-.068-.145-.745-.145-.88-.364-4.879-.509-9.825-.509-14.772v-.881c.654-1.084,2.108-1.152,3.344-1.152,2.69,0,5.088.2,7.85.136,1.381.542,1.454.745,1.818,1.829,0,.068.072.136.072.2.145.339,1.163,2.779,1.454,3.456,0,.068.072.2.072.272l8.36,18.768c0-3.184-.509-6.369-.582-9.689,0-.2.218-3.93.146-4.2,0-.271-.146-2.033-.146-2.3a10.819,10.819,0,0,0-.072-2.643V52.087c0-1.085,1.672-1.289,2.471-1.355a36.439,36.439,0,0,1,6.106-.678,3.517,3.517,0,0,1,3.053,1.016c0,.068.146.271-.363.271L60.76,79.6c0,.745.073,4.2.073,4.879-.073,1.015-.291,5.894-.364,6.911-.436,1.965-2.035,2.236-4,2.439-.072,0-1.381.2-2.908.272h-.145c-.945-.069-3.416-.137-3.489-.137-2.616-.135-5.234-7.724-10.612-20.734-.364,2.169.944,13.348.872,15.315,0,.27.072,2.574,0,2.845-.146,4-4.943,3.93-8.142,3.93h-.581c-1.527,0-3.416-.339-3.853-1.9.146-7.318-.218-14.3-.436-21.615" opacity="0.3"/>
  <path id="shadow-2" data-name="shadow" d="M75.806,49.377c12.5-1.492,15.628,2.981,17.737,13.551.145.542.435,2.575.435,2.778,0,.136.073,1.83.073,2.507,0,7.183,0,13.145-3.271,19.785A15.839,15.839,0,0,1,89.4,90.709a5.429,5.429,0,0,1-.945.813,14.315,14.315,0,0,1-9.667,3.117c-6.615,0-9.6-3.592-11.413-9.215-.073-.339-.872-2.982-1.09-3.727a3.8,3.8,0,0,1-.146-.813l-.944-9.148v-.812c0-6.777,1.453-20.463,10.612-21.547M80.313,83.12c3.561-.135,3.2-9.486,3.126-12.671v-.677c0-1.9-.073-9.825-3.417-9.825-2.4,0-3.126,8.944-3.126,10.367-.363,11.316.728,12.874,3.417,12.806" opacity="0.3"/>
  <path id="Path_5363" data-name="Path 5363" d="M27.177,62.572c-.072-.2,0-2.507,0-2.846,0-.068-.145-.745-.145-.88-.364-4.879-.509-9.825-.509-14.771v-.881c.654-1.085,2.108-1.152,3.344-1.152,2.69,0,5.088.2,7.85.135,1.381.542,1.454.745,1.818,1.829,0,.069.072.136.072.2.145.338,1.163,2.778,1.454,3.455,0,.068.072.2.072.272l8.36,18.768c0-3.184-.509-6.369-.582-9.689,0-.2.218-3.93.146-4.2,0-.271-.146-2.033-.146-2.3a10.822,10.822,0,0,0-.072-2.643V42.855c0-1.085,1.672-1.288,2.471-1.355a36.544,36.544,0,0,1,6.106-.678,3.52,3.52,0,0,1,3.053,1.016c0,.068.146.271-.363.271l.654,28.255c0,.745.073,4.2.073,4.879-.073,1.016-.291,5.9-.364,6.911-.436,1.965-2.035,2.236-4,2.439-.072,0-1.381.2-2.908.272h-.145c-.945-.069-3.416-.136-3.489-.136C47.313,84.593,44.695,77,39.317,63.995c-.364,2.168.944,13.348.872,15.314,0,.27.072,2.574,0,2.845-.146,4-4.943,3.93-8.142,3.93h-.581c-1.527,0-3.416-.339-3.853-1.9.146-7.318-.218-14.3-.436-21.615" fill="#919191"/>
  <path id="Path_5364" data-name="Path 5364" d="M75.806,40.144c12.5-1.491,15.628,2.981,17.737,13.551.145.542.435,2.575.435,2.779,0,.135.073,1.829.073,2.507,0,7.182,0,13.144-3.271,19.785a15.831,15.831,0,0,1-1.381,2.71,5.429,5.429,0,0,1-.945.813,14.315,14.315,0,0,1-9.667,3.117c-6.615,0-9.6-3.591-11.413-9.215-.073-.339-.872-2.981-1.09-3.727a3.785,3.785,0,0,1-.146-.812L65.194,62.5v-.813c0-6.776,1.453-20.463,10.612-21.547m4.507,33.743c3.561-.135,3.2-9.486,3.126-12.671v-.677c0-1.9-.073-9.825-3.417-9.825-2.4,0-3.126,8.944-3.126,10.367-.363,11.316.728,12.874,3.417,12.806" fill="#919191"/>
  <path id="Path_5365" data-name="Path 5365" d="M27.177,53.34c-.072-.2,0-2.506,0-2.846,0-.068-.145-.744-.145-.88-.364-4.879-.509-9.825-.509-14.771v-.881c.654-1.085,2.108-1.152,3.344-1.152,2.69,0,5.088.2,7.85.135,1.381.543,1.454.746,1.818,1.83,0,.068.072.135.072.2.145.338,1.163,2.778,1.454,3.455,0,.068.072.2.072.272l8.36,18.769c0-3.185-.509-6.37-.582-9.69,0-.2.218-3.93.146-4.2,0-.271-.146-2.033-.146-2.3a10.829,10.829,0,0,0-.072-2.644V33.623c0-1.084,1.672-1.287,2.471-1.355a36.649,36.649,0,0,1,6.106-.678,3.517,3.517,0,0,1,3.053,1.017c0,.067.146.27-.363.27l.654,28.255c0,.746.073,4.2.073,4.879-.073,1.017-.291,5.895-.364,6.911-.436,1.965-2.035,2.236-4,2.439-.072,0-1.381.2-2.908.272h-.145c-.945-.069-3.416-.135-3.489-.135-2.616-.137-5.234-7.726-10.612-20.735-.364,2.168.944,13.349.872,15.314,0,.271.072,2.575,0,2.845-.146,4-4.943,3.931-8.142,3.931h-.581c-1.527,0-3.416-.34-3.853-1.9.146-7.318-.218-14.3-.436-21.615" fill="#fff"/>
  <path id="Path_5366" data-name="Path 5366" d="M75.806,30.912c12.5-1.49,15.628,2.982,17.737,13.551.145.543.435,2.576.435,2.779,0,.135.073,1.83.073,2.508,0,7.181,0,13.143-3.271,19.785A15.823,15.823,0,0,1,89.4,72.244a5.474,5.474,0,0,1-.945.814,14.32,14.32,0,0,1-9.667,3.117c-6.615,0-9.6-3.591-11.413-9.216-.073-.338-.872-2.98-1.09-3.726a3.793,3.793,0,0,1-.146-.813l-.944-9.147v-.814c0-6.775,1.453-20.463,10.612-21.547m4.507,33.743c3.561-.135,3.2-9.486,3.126-12.671v-.676c0-1.9-.073-9.825-3.417-9.825-2.4,0-3.126,8.943-3.126,10.366-.363,11.316.728,12.874,3.417,12.806" fill="#fff"/>
  <rect id="frame" width="119.779" height="119.779" fill="none"/>
</svg>
