<svg id="Icon_-_Blog" data-name="Icon - Blog" xmlns="http://www.w3.org/2000/svg" width="120" height="120" viewBox="0 0 120 120">
  <g id="Icon" transform="translate(-1069.833 -111.555)">
    <g id="Group_53" data-name="Group 53">
      <g id="Group_50" data-name="Group 50" opacity="0.4" style="isolation: isolate">
        <path id="Path_78" data-name="Path 78" d="M1162.092,151.2c-5.94-6.4-14.662-10.543-26.584-10.543q-2.3,0-4.764.209c-.353.048-1.406.147-1.461.152-1.092-4.392-3.228-9.263-5.934-10.134a7.344,7.344,0,0,0-2.244-.329,16.794,16.794,0,0,0-5.858,1.383c-2.522.959-4.384,2.755-6.52,3.147a9.469,9.469,0,0,1-1.722.142c-.587,0-1.169-.038-1.739-.078s-1.16-.075-1.706-.075c-.16,0-.316,0-.47.011-4.24.239-8.552,1.277-11.8,4.384-4.5,4.3-6.368,12.864-6.343,21.533,0-.058,0-.116,0-.174v4.663a58.746,58.746,0,0,0,1.584,13.674,88.367,88.367,0,0,0,9.338,22.767c.755,1.35,2.9,6.2,4.224,6.66a5.239,5.239,0,0,0,1.028.184c1-.176,2.128-.36,3.348-.519v-4.663c-2.332-5.578-3.246-13.132-3.549-15.944.026-.127.052-.252.082-.373.024-.1.049-.19.076-.282.039-.134.082-.263.126-.391.03-.084.059-.168.091-.249.061-.153.127-.3.195-.442.028-.057.053-.117.081-.173.1-.2.208-.382.323-.561.025-.04.054-.076.08-.114.088-.13.177-.258.272-.38.046-.059.1-.115.143-.172.081-.1.163-.2.248-.287.055-.06.113-.118.17-.176.084-.085.168-.17.256-.252.061-.058.124-.114.188-.17.088-.078.178-.156.27-.231.066-.054.132-.108.2-.161.094-.074.191-.147.289-.219.068-.05.136-.1.205-.148.1-.074.211-.146.318-.218.066-.044.132-.089.2-.132.119-.078.241-.154.363-.229l.173-.108c.181-.11.364-.218.55-.326q.227-.162.479-.354c.024-.019.051-.042.076-.061.144-.113.291-.229.445-.357.064-.053.132-.115.2-.171.118-.1.236-.2.358-.312.073-.066.149-.142.223-.211.119-.112.237-.22.358-.34.079-.078.159-.166.238-.248.119-.122.237-.24.356-.371.084-.091.167-.193.251-.288.116-.133.233-.261.349-.4.087-.107.174-.224.261-.335.111-.141.222-.277.331-.425.091-.124.179-.259.268-.388.1-.148.208-.292.309-.447l.011-.016c.169-.261.333-.534.494-.815.048-.083.093-.171.139-.256.116-.21.23-.425.34-.647.055-.111.108-.224.161-.338q.148-.317.287-.648c.051-.119.1-.238.149-.361.027-.068.057-.133.083-.2s.053-.17.082-.251q.188-.518.348-1.069c.043-.145.086-.288.126-.437.133-.5.255-1.022.35-1.567v-.005c.054-.312.092-.639.132-.965.017-.14.042-.272.056-.415q.074-.714.1-1.472c.008-.176.016-.344.016-.5.014-.437.02-.822.022-1.139,0-.106,0-.2,0-.294h0v-1.169c.045-1.444.264-4.547.347-6.022v-2.167a1.615,1.615,0,0,0,.467.164,1.1,1.1,0,0,0,.271.007h0v-.006a.649.649,0,0,0,.011-.122V155.12c.251.478.533.889,1.161.876,0-.018,0-.036,0-.054v-2.429a3.75,3.75,0,0,1,.3,1.4c.016.174.031.345.05.5.009.08.02.156.032.228a.851.851,0,0,0,.279.6h0a.354.354,0,0,0,.132-.074c.013-.011.022-.026.034-.038a.571.571,0,0,0,.046-.053.2.2,0,0,0,.01-.022.774.774,0,0,0,.054-.112c.005-.012.012-.022.017-.034l.006-.018c.008-.023.017-.047.025-.071.013-.039.027-.077.041-.117s.02-.05.03-.075a1.183,1.183,0,0,1,.065-.134c.012-.022.026-.044.04-.065a.682.682,0,0,1,.1-.1.647.647,0,0,1,.054-.048.639.639,0,0,1,.225-.1,2.816,2.816,0,0,0,1.019-.182v2.508a.658.658,0,0,1,.361.368v.579a.978.978,0,0,0,.065.362,2.713,2.713,0,0,0,.179.351c-.015-.006-.028-.008-.043-.014-.568-.661-.387-1.677-1.365-1.678-1.012.014-1.126,1.324-1.118,2.393,0-.033,0-.06,0-.093v4.662c0,.221.006.433.012.624.069,2.541.131,5.282.155,8.109q-.01.915-.026,1.834c-.073,3.9-.627,6.636-.916,10.158-.377,4.568-1.493,9.088-1.63,13.064-.012.342-.011.671-.006,1,0-.086-.007-.169-.007-.256v4.663a15.4,15.4,0,0,0,.382,3.581c1.534-.136,3.068-.248,4.561-.352.627-.04,1.253-.088,1.863-.12a3.164,3.164,0,0,0,.35-.085c.03-.008.056-.017.083-.026.072-.025.136-.05.192-.076l.055-.025a.977.977,0,0,0,.163-.1c.01-.008.015-.015.023-.022a.493.493,0,0,0,.08-.088l.013-.014c.006-.008.008-.016.013-.024s.012-.022.017-.033l.008-.017a.264.264,0,0,0,.01-.034l.006-.023,0-.008a.315.315,0,0,0,.005-.06v-4.663c0,.01,0,.02,0,.031a.364.364,0,0,0,0-.046,2.809,2.809,0,0,1-.737-.715l.017-.03c.027-.049.047-.083.054-.1.073-.15.156-.3.242-.444.033-.055.067-.109.1-.164.059-.1.119-.192.18-.286s.129-.2.193-.3l.017-.027.016-.025q.146-.225.278-.45.04-.069.078-.138a4.058,4.058,0,0,0,.247-.511l0-.009c.009-.023.012-.046.02-.069a2.438,2.438,0,0,0,.095-.338c0-.012.008-.024.01-.036a1.815,1.815,0,0,0,.029-.322V195.9a2.348,2.348,0,0,0,1,.579,2.232,2.232,0,0,1,1.033.551v2.9a6.442,6.442,0,0,0,.292,1.443v5.177c.233,0,.674-.016.722-.016q1.8-.056,3.265-.053c1.542,0,2.8.039,3.737.093,2.08.119,4.649.631,8.5.639v-.391a.79.79,0,0,1,.016-.09l.005-.01a.452.452,0,0,1,.067-.1.532.532,0,0,1,.168-.141c.009,0,.016-.012.026-.017a1.912,1.912,0,0,1,.276-.1,2.317,2.317,0,0,0,.23-.084l.053-.022a.542.542,0,0,0,.189-.157c.005-.008.015-.01.021-.018a.448.448,0,0,0,.045-.088c.005-.013.009-.025.013-.038a1.67,1.67,0,0,0,.056-.225v0a1.162,1.162,0,0,0,.018-.2v-4.663c0,.018-.005.04-.006.059.036-.657-.559-.8-.511-1.665a5.673,5.673,0,0,0-2.722.819V198.7q-.383-.254-.788-.485v-.328c4.074-1.306,5.227-5.587,10.616-5.587a13.266,13.266,0,0,1,2.811.33,6.787,6.787,0,0,1,3.889,2.159,9.668,9.668,0,0,1,.809,1.061c.125.188.247.38.368.577.362.591.712,1.221,1.1,1.872l.028.045a4.238,4.238,0,0,0-1.317.395,1.234,1.234,0,0,0-.006.18c0-.008,0-.013,0-.022v4.421c-1.387-.549-1.46-2.222-2.472-3.1-1.389.04-1.092,2.028-1.485,3.226V208.1c3.477.184,6.913.351,9.86.487h7.227v-4.663c-1.626-3.12-2.487-7.545-2.7-12.251q.05-1.146.145-2.285l.006-.056c.063-.748.142-1.491.235-2.224l.012-.084q.14-1.084.321-2.137c.007-.043.016-.085.024-.128q.137-.78.3-1.533c.017-.08.033-.161.05-.241q.166-.764.355-1.494c.026-.1.051-.2.077-.291.13-.488.265-.966.41-1.428l.054-.164q.211-.661.443-1.283c.023-.061.044-.123.067-.183.119-.313.242-.619.369-.915,1.776,1.343,4.589,3.164,7.553,3.164a6.629,6.629,0,0,0,3.022-.712h0v-4.663C1170.17,170.2,1169.053,158.7,1162.092,151.2Zm-66.043.3c-.065.086-.131.172-.19.261v0C1095.917,151.673,1095.984,151.587,1096.049,151.5Zm-.921,2.163a4.945,4.945,0,0,0-.065.759,4.984,4.984,0,0,1,.065-.762Zm2.938,1.638v3.672a4.9,4.9,0,0,1-1.543-1.027,4.982,4.982,0,0,1-.87-1.165c.04-.072.08-.143.123-.213.029-.048.054-.1.085-.144.06-.092.128-.181.2-.27.034-.045.064-.092.1-.136a5.057,5.057,0,0,1,.343-.381,4.929,4.929,0,0,1,1.638-1.09A4.549,4.549,0,0,0,1098.066,155.3Zm2.845,27.736c-.008.039-.017.077-.026.115.025-.135.057-.261.086-.389C1100.95,182.854,1100.929,182.944,1100.911,183.037Zm6.129-6.808c-.073.062-.149.131-.22.19h0c.094-.079.194-.169.292-.254C1107.088,176.186,1107.063,176.208,1107.04,176.229Zm.593-.536c-.086.08-.173.167-.257.243h0c.087-.079.177-.169.265-.252Zm1.786-1.96c-.09.114-.179.234-.269.344h0c.091-.11.18-.232.271-.347Zm.9-1.252h0c.126-.2.248-.4.371-.611C1110.569,172.078,1110.447,172.286,1110.32,172.481Zm1.433-2.72c-.093.22-.188.436-.287.647.1-.211.194-.428.287-.649Zm.313-.814c-.027.076-.055.15-.082.226.028-.075.055-.151.083-.227Zm.474-1.506c-.015.055-.031.108-.046.161.014-.054.031-.106.046-.161Zm.187-18.2c-.013.041-.026.082-.034.12a1.185,1.185,0,0,1,.037-.131Zm.3,15.661c-.04.327-.079.656-.133.97h0c.059-.341.1-.7.144-1.054C1113.03,164.848,1113.026,164.876,1113.023,164.9Zm1.64-15.992c-.005.015-.009.03-.013.045,0-.016.009-.031.013-.047Zm.11-.218h0a.981.981,0,0,1,.09-.11A1.09,1.09,0,0,0,1114.773,148.694Zm1.76,2.274h0a1.05,1.05,0,0,1,.065-.135A.991.991,0,0,0,1116.533,150.968Zm1.929,3.191h0l.009.017Zm3.049,47.344h0l-.006.023-.007.019A.381.381,0,0,0,1121.511,201.5Zm-.036.1-.005.01-.014.022C1121.463,201.62,1121.47,201.609,1121.475,201.6Zm-.292.26-.005,0c-.016.009-.036.016-.054.025h0C1121.142,201.878,1121.164,201.869,1121.183,201.859Zm-.249.1,0,0-.053.017Zm3.882-4.6V197.3a1.53,1.53,0,0,1,.018.181C1124.834,197.446,1124.82,197.4,1124.816,197.356Zm9.044-47.412-.306,1.134.306-1.134Zm8.158,51.348a1.471,1.471,0,0,0,.063-.3c0,.024,0,.045-.006.07a1.706,1.706,0,0,1-.057.227.473.473,0,0,1-.079.144l-.007.006A.457.457,0,0,0,1142.018,201.292Zm-.264.3,0,0h0Zm-.589.228a.512.512,0,0,0-.168.142c-.008.01-.021.014-.029.024A.52.52,0,0,1,1141.165,201.817Zm-3.226-8.116a.738.738,0,0,1,0-.435Zm26.827-26.825h0l0,.014Zm4.9,5.691c-.125.29-.245.591-.362.9.117-.306.237-.607.362-.9Z"/>
        <path id="Path_79" data-name="Path 79" d="M1150.344,200.629c-1.06-.854-3.661-.4-5.323-.751v4.663a30.1,30.1,0,0,0,.385,3.195c1.052.064,2.128.119,3.22.183v-.759a.65.65,0,0,1,.123-.128c.011-.009.025-.016.037-.024a.949.949,0,0,1,.154-.084l.047-.021c.067-.025.137-.047.209-.066l.052-.012c.068-.017.137-.032.207-.047s.169-.036.25-.056l.024-.007a1.891,1.891,0,0,0,.189-.06l.054-.021a.964.964,0,0,0,.187-.1l0-.005a.642.642,0,0,0,.137-.143c.005-.008.014-.012.019-.02s.016-.032.024-.046.018-.034.025-.051a.188.188,0,0,0,.014-.028.733.733,0,0,0,.023-.086.451.451,0,0,0,.014-.052l0-.015a1.108,1.108,0,0,0,.015-.19v-4.663c0,.009,0,.016,0,.025A2.247,2.247,0,0,0,1150.344,200.629Zm-1.79,1.984-.01.017c.006-.013.013-.024.02-.036Zm.232-.269-.018.01c.016-.011.034-.021.051-.031Zm.154-.083-.031.013c.016-.007.031-.015.047-.021Zm.789-.209-.011,0,.014,0Zm.243-.081-.042.016c.019-.007.036-.015.054-.023Zm.192-.106,0,0c-.012.009-.027.013-.039.021.019-.012.038-.024.056-.038Zm.205-.261a.38.38,0,0,1-.025.05l-.006.009a.64.64,0,0,0,.045-.1C1150.378,201.575,1150.375,201.591,1150.369,201.6Zm.051-.166c0,.016-.008.029-.011.044a1.088,1.088,0,0,0,.02-.135A.863.863,0,0,1,1150.42,201.438Z"/>
      </g>
      <g id="Group_52" data-name="Group 52">
        <g id="Group_51" data-name="Group 51">
          <path id="Path_80" data-name="Path 80" d="M1162.092,148.835c-5.94-6.4-14.662-10.543-26.584-10.543q-2.3,0-4.764.21c-.353.048-1.406.146-1.461.151-1.092-4.392-3.228-9.263-5.934-10.133a7.315,7.315,0,0,0-2.244-.33,16.792,16.792,0,0,0-5.858,1.384c-2.522.958-4.384,2.755-6.52,3.146a9.471,9.471,0,0,1-1.722.143c-.587,0-1.169-.039-1.739-.079s-1.16-.074-1.706-.074c-.16,0-.316,0-.47.01-4.24.24-8.552,1.278-11.8,4.384-4.5,4.3-6.368,12.864-6.343,21.533,0-.058,0-.116,0-.174v4.663a58.739,58.739,0,0,0,1.584,13.674,88.352,88.352,0,0,0,9.338,22.767c.755,1.35,2.9,6.2,4.224,6.66a5.239,5.239,0,0,0,1.028.184c1-.176,2.128-.359,3.348-.519v-4.663c-2.332-5.578-3.246-13.131-3.549-15.944.026-.126.052-.251.082-.372.024-.1.049-.19.076-.283.039-.133.082-.263.126-.39.03-.084.059-.169.091-.25.061-.152.127-.3.195-.441.028-.058.053-.118.081-.174.1-.194.208-.382.323-.561.025-.039.054-.075.08-.114.088-.13.177-.258.272-.38.046-.059.1-.115.143-.172.081-.1.163-.194.248-.287.055-.06.113-.118.17-.176.084-.085.168-.17.256-.252.061-.057.124-.114.188-.17q.132-.117.27-.231c.066-.054.132-.108.2-.16.094-.075.191-.148.289-.22l.205-.148c.1-.074.211-.146.318-.217.066-.045.132-.09.2-.133.119-.077.241-.153.363-.229l.173-.108q.272-.164.55-.326.227-.16.479-.354c.024-.019.051-.042.076-.061.144-.112.291-.229.445-.357.064-.053.132-.115.2-.171.118-.1.236-.2.358-.312.073-.066.149-.142.223-.211.119-.112.237-.22.358-.34.079-.078.159-.166.238-.247.119-.123.237-.241.356-.372.084-.091.167-.192.251-.288.116-.132.233-.261.349-.4.087-.107.174-.225.261-.336.111-.141.222-.277.331-.425.091-.124.179-.258.268-.387.1-.149.208-.292.309-.448l.011-.016c.169-.261.333-.534.494-.815.048-.083.093-.171.139-.255.116-.211.23-.426.34-.647.055-.111.108-.225.161-.339q.148-.316.287-.647c.051-.12.1-.239.149-.361.027-.069.057-.134.083-.2s.053-.17.082-.25q.188-.519.348-1.07c.043-.145.086-.288.126-.436.133-.505.255-1.023.35-1.568v0c.054-.311.092-.639.132-.965.017-.14.042-.272.056-.415q.074-.714.1-1.472c.008-.176.016-.344.016-.5.014-.437.02-.822.022-1.14,0-.106,0-.2,0-.294h0v-1.169c.045-1.444.264-4.547.347-6.022v-2.167a1.615,1.615,0,0,0,.467.164,1.1,1.1,0,0,0,.271.007h0v-.006a.656.656,0,0,0,.011-.122v-1.308c.251.478.533.889,1.161.877,0-.018,0-.037,0-.055V151.15a3.756,3.756,0,0,1,.3,1.4c.016.174.031.344.05.5.009.079.02.155.032.227a.849.849,0,0,0,.279.6h0a.354.354,0,0,0,.132-.074.42.42,0,0,0,.034-.038.466.466,0,0,0,.046-.053.138.138,0,0,0,.01-.022.725.725,0,0,0,.054-.112c.005-.012.012-.022.017-.034l.006-.017c.008-.024.017-.048.025-.072s.027-.077.041-.117c.009-.025.02-.049.03-.074a1.106,1.106,0,0,1,.065-.134.734.734,0,0,1,.04-.066.632.632,0,0,1,.1-.1.506.506,0,0,1,.054-.048.64.64,0,0,1,.225-.1,2.794,2.794,0,0,0,1.019-.182v2.508a.661.661,0,0,1,.361.368v.579a.979.979,0,0,0,.065.363,2.7,2.7,0,0,0,.179.35c-.015-.006-.028-.008-.043-.014-.568-.66-.387-1.677-1.365-1.677-1.012.013-1.126,1.323-1.118,2.392,0-.032,0-.06,0-.093v4.663c0,.22.006.432.012.624.069,2.54.131,5.281.155,8.108q-.01.915-.026,1.834c-.073,3.9-.627,6.636-.916,10.158-.377,4.568-1.493,9.088-1.63,13.065-.012.341-.011.67-.006,1,0-.087-.007-.169-.007-.257v4.663a15.386,15.386,0,0,0,.382,3.581c1.534-.136,3.068-.248,4.561-.352.627-.039,1.253-.087,1.863-.119.135-.026.248-.055.35-.085l.083-.027a1.832,1.832,0,0,0,.192-.076c.018-.008.039-.016.055-.025a.976.976,0,0,0,.163-.1.163.163,0,0,0,.023-.022.489.489,0,0,0,.08-.087l.013-.015c.006-.008.008-.016.013-.024s.012-.022.017-.033l.008-.017a.212.212,0,0,0,.01-.033l.006-.023,0-.009a.314.314,0,0,0,.005-.06v-4.663c0,.01,0,.021,0,.031a.364.364,0,0,0,0-.046,2.805,2.805,0,0,1-.737-.714l.017-.031c.027-.048.047-.083.054-.094.073-.151.156-.3.242-.445.033-.055.067-.109.1-.164.059-.095.119-.191.18-.286l.193-.3.017-.026.016-.025q.146-.227.278-.451c.027-.046.053-.092.078-.137a4,4,0,0,0,.247-.512l0-.008c.009-.023.012-.047.02-.07a2.425,2.425,0,0,0,.095-.337c0-.013.008-.025.01-.037a1.812,1.812,0,0,0,.029-.321v-1.567a2.338,2.338,0,0,0,1,.579,2.223,2.223,0,0,1,1.033.552v2.9a6.444,6.444,0,0,0,.292,1.442v5.177c.233,0,.674-.016.722-.016q1.8-.056,3.265-.053c1.542,0,2.8.039,3.737.093,2.08.12,4.649.631,8.5.639v-.39a.769.769,0,0,1,.016-.091l.005-.009a.429.429,0,0,1,.067-.1.548.548,0,0,1,.168-.142c.009,0,.016-.012.026-.016a1.915,1.915,0,0,1,.276-.1,2.085,2.085,0,0,0,.23-.084c.017-.007.036-.013.053-.022a.542.542,0,0,0,.189-.157c.005-.007.015-.009.021-.017a.456.456,0,0,0,.045-.089.4.4,0,0,0,.013-.038,1.669,1.669,0,0,0,.056-.225h0a1.173,1.173,0,0,0,.018-.2v-4.663c0,.018-.005.04-.006.06.036-.658-.559-.8-.511-1.665a5.662,5.662,0,0,0-2.722.819v-1.386q-.383-.254-.788-.485v-.328c4.074-1.306,5.227-5.587,10.616-5.587a13.266,13.266,0,0,1,2.811.33,6.793,6.793,0,0,1,3.889,2.159,9.668,9.668,0,0,1,.809,1.061c.125.188.247.381.368.577.362.591.712,1.221,1.1,1.872l.028.046a4.212,4.212,0,0,0-1.317.395,1.23,1.23,0,0,0-.006.18c0-.009,0-.014,0-.022v4.42c-1.387-.549-1.46-2.221-2.472-3.1-1.389.04-1.092,2.028-1.485,3.226v4.663c3.477.184,6.913.352,9.86.487h7.227v-4.663c-1.626-3.12-2.487-7.545-2.7-12.251.033-.764.081-1.527.145-2.284l.006-.057q.094-1.122.235-2.223l.012-.084c.093-.723.2-1.437.321-2.137.007-.044.016-.086.024-.129q.137-.778.3-1.533c.017-.08.033-.161.05-.241q.166-.762.355-1.494c.026-.1.051-.194.077-.291.13-.488.265-.965.41-1.427l.054-.165q.211-.661.443-1.283c.023-.06.044-.123.067-.182.119-.314.242-.62.369-.915,1.776,1.343,4.589,3.163,7.553,3.163a6.628,6.628,0,0,0,3.022-.712h0v-4.663C1170.17,167.833,1169.053,156.342,1162.092,148.835Zm-66.043.3c-.065.086-.131.172-.19.261v0C1095.917,149.31,1095.984,149.224,1096.049,149.137Zm-.921,2.164a4.932,4.932,0,0,0-.065.758,4.971,4.971,0,0,1,.065-.761Zm2.938,1.637v3.672a4.879,4.879,0,0,1-1.543-1.027,4.982,4.982,0,0,1-.87-1.165c.04-.071.08-.143.123-.213.029-.048.054-.1.085-.144.06-.092.128-.181.2-.27.034-.045.064-.091.1-.135a4.95,4.95,0,0,1,1.981-1.472A4.559,4.559,0,0,0,1098.066,152.938Zm2.845,27.736c-.008.039-.017.077-.026.115.025-.134.057-.26.086-.389C1100.95,180.491,1100.929,180.581,1100.911,180.674Zm6.129-6.808c-.073.063-.149.131-.22.19h0c.094-.079.194-.169.292-.254Zm.593-.536c-.086.081-.173.167-.257.244h0c.087-.079.177-.168.265-.252Zm1.786-1.96c-.09.114-.179.235-.269.344h0c.091-.111.18-.232.271-.348Zm.9-1.251h0c.126-.2.248-.4.371-.611C1110.569,169.715,1110.447,169.923,1110.32,170.119Zm1.433-2.721c-.093.221-.188.436-.287.647.1-.211.194-.427.287-.648Zm.313-.813c-.027.075-.055.15-.082.225.028-.075.055-.151.083-.227Zm.474-1.506c-.015.054-.031.107-.046.16.014-.054.031-.106.046-.161Zm.187-18.2a1.2,1.2,0,0,0-.034.119,1.249,1.249,0,0,1,.037-.131Zm.3,15.66c-.04.328-.079.657-.133.97h0c.059-.34.1-.7.144-1.053C1113.03,162.485,1113.026,162.513,1113.023,162.541Zm1.64-15.991c-.005.014-.009.029-.013.044,0-.016.009-.031.013-.047Zm.11-.219h0a.984.984,0,0,1,.09-.11A1.093,1.093,0,0,0,1114.773,146.331Zm1.76,2.274h0a.991.991,0,0,1,.065-.135A.98.98,0,0,0,1116.533,148.6Zm1.929,3.192h0l.009.016Zm3.049,47.343h0l-.006.023-.007.019A.4.4,0,0,0,1121.511,199.14Zm-.036.1-.005.011-.014.021A.274.274,0,0,0,1121.475,199.236Zm-.292.26-.005,0c-.016.009-.036.017-.054.025h0C1121.142,199.516,1121.164,199.506,1121.183,199.5Zm-.249.1h0l-.053.017Zm3.882-4.606v-.054a1.531,1.531,0,0,1,.018.181C1124.834,195.084,1124.82,195.033,1124.816,194.993Zm9.044-47.412-.306,1.134.306-1.134Zm8.158,51.348a1.457,1.457,0,0,0,.063-.3c0,.024,0,.045-.006.071a1.733,1.733,0,0,1-.057.226.461.461,0,0,1-.079.144l-.007.006A.447.447,0,0,0,1142.018,198.929Zm-.264.3,0,0h0Zm-.589.228a.522.522,0,0,0-.168.141c-.008.01-.021.014-.029.025A.5.5,0,0,1,1141.165,199.455Zm-3.226-8.117a.735.735,0,0,1,0-.434Zm26.827-26.825h0l0,.013Zm4.9,5.692c-.125.289-.245.59-.362.9.117-.307.237-.608.362-.9Z" fill="#9028c6"/>
          <path id="Path_81" data-name="Path 81" d="M1150.344,198.266c-1.06-.854-3.661-.4-5.323-.75v4.663a30.077,30.077,0,0,0,.385,3.194c1.052.064,2.128.12,3.22.184V204.8a.655.655,0,0,1,.123-.129c.011-.009.025-.016.037-.024a.949.949,0,0,1,.154-.084l.047-.02a1.951,1.951,0,0,1,.209-.067l.052-.012.207-.047c.084-.017.169-.035.25-.056l.024-.007a1.891,1.891,0,0,0,.189-.06l.054-.021a.963.963,0,0,0,.187-.1l0-.005a.642.642,0,0,0,.137-.143c.005-.007.014-.012.019-.02s.016-.031.024-.046a.468.468,0,0,0,.025-.051.188.188,0,0,0,.014-.028.733.733,0,0,0,.023-.086.4.4,0,0,0,.014-.052l0-.014a1.12,1.12,0,0,0,.015-.191V198.87c0,.01,0,.017,0,.026A2.248,2.248,0,0,0,1150.344,198.266Zm-1.79,1.985-.01.016c.006-.013.013-.024.02-.036Zm.232-.269-.018.01c.016-.012.034-.021.051-.032Zm.154-.083-.031.013a.482.482,0,0,1,.047-.022Zm.789-.21-.011,0,.014,0Zm.243-.081-.042.017.054-.024Zm.192-.106,0,0a.382.382,0,0,1-.039.021c.019-.012.038-.024.056-.037Zm.205-.261a.468.468,0,0,1-.025.051l-.006.008a.64.64,0,0,0,.045-.1C1150.378,199.212,1150.375,199.228,1150.369,199.241Zm.051-.166c0,.016-.008.029-.011.044a1.061,1.061,0,0,0,.02-.135A.837.837,0,0,1,1150.42,199.075Z" fill="#9028c6"/>
        </g>
      </g>
    </g>
    <g id="Group_58" data-name="Group 58">
      <g id="Group_57" data-name="Group 57">
        <g id="Group_56" data-name="Group 56">
          <g id="Group_54" data-name="Group 54">
            <path id="Path_82" data-name="Path 82" d="M1145.021,197.516c1.662.351,4.263-.1,5.323.75.579,2.125-1.67.959-1.854,2.2a1.1,1.1,0,0,0,.136.432c-1.092-.064-2.168-.12-3.22-.184A30.077,30.077,0,0,1,1145.021,197.516Z" fill="#d88dff"/>
          </g>
          <g id="Group_55" data-name="Group 55">
            <path id="Path_83" data-name="Path 83" d="M1162.092,148.835c6.962,7.507,8.078,19,18.147,23.821a6.624,6.624,0,0,1-3.022.712c-2.964,0-5.777-1.82-7.553-3.163-3.549,8.249-4.152,23.717-.169,31.359h-7.227c-2.947-.135-6.383-.3-9.86-.487.393-1.2.1-3.186,1.485-3.226,1.149,1,1.085,3.019,3.108,3.258.514-.734,1.437-1,1.22-2.587-.112-1.142-2.007-.783-1.846-2.148,1.565-.839,4.416-.184,5.508-1.581a32.141,32.141,0,0,0-3.4.4c-.032-.879,1.317-.16,1.109-1.246-3.228-3.609-3.148-7.275-8.1-8.345a13.266,13.266,0,0,0-2.811-.33c-5.447,0-6.561,4.378-10.743,5.633-.177.567.425.894-.081,1a8.557,8.557,0,0,0-4.723-1.856c-1.387,0-2.358.755-1.773,3.022a35.09,35.09,0,0,1,7.492,3.266c-1.4.431-3.389.176-4.456,1,.651,1.092,1.266,1.47,1.9,1.47a5.339,5.339,0,0,0,2.3-.951,6.039,6.039,0,0,1,2.971-.95c-.056,1.006.763,1.03.442,2.028-.185.631-1.317.168-1.108,1.254-3.847-.008-6.416-.519-8.5-.639-.939-.054-2.195-.093-3.737-.093q-1.464,0-3.265.053c-.048,0-.489.016-.722.016a1.7,1.7,0,0,0,.65-.383c-.023,0-.458-.056-.65-.687a.889.889,0,0,0,.4.091,1.542,1.542,0,0,0,.786-.251,1.447,1.447,0,0,1-.955-1.118c0-.069-.073-1.381-.089-2.052s-.61-1.932-.385-2.555a3.583,3.583,0,0,0,.321-1.9c-.169-.559-.49-.95-1.405-1.214a2.794,2.794,0,0,1-1.446-1.078,1,1,0,0,0-.649-.262.727.727,0,0,0-.435.142,2.57,2.57,0,0,1,1.381,1.486c.579,1.373-.714,2.483-1.365,3.817-.073.124-1.461,2.483-.513,4.105a3.7,3.7,0,0,0,1.18,1.4c.008.192-.129.487-1.02.655-.61.032-1.236.08-1.863.12-1.493.1-3.027.215-4.561.351a16.227,16.227,0,0,1-.369-4.32c.137-3.977,1.253-8.5,1.63-13.065.289-3.522.843-6.253.916-10.158.1-5.086-.009-10.149-.129-14.6-.032-1.1-.08-2.907,1.108-2.923.978,0,.8,1.017,1.365,1.677a1.839,1.839,0,0,0,.729.165,1.683,1.683,0,0,0,1.471-2.074c-.217-.83-1.855-1.868-2.336-3.09-.225-.591.265-.934-.426-1.31.594-.663.434-1.493.321-2.635a2.516,2.516,0,0,1-1.34.309c-.659.154-.426.929-.876,1.064-.6-.359-.048-2.85-1.14-3.122-1.06.815.53,1.829.474,2.875-.738.015-1-.556-1.293-1.134s-.641-1.158-1.383-1.158c-.713,1.6,1.7,1.749,1.5,2.851a1.718,1.718,0,0,1-.987-.3,2.555,2.555,0,0,0-1.151-.329,1.857,1.857,0,0,0-.784.178,2.737,2.737,0,0,0,2.184,2.443c-.1,1.717-.378,5.646-.354,6.588.008.232.016.983-.016,2.037,0,.16-.008.327-.016.5a17.637,17.637,0,0,1-7.355,14.174c-3.156,1.829-5.629,3.826-4.994,9.543.16,1.462.971,10.462,3.645,16.858-1.22.16-2.345.343-3.348.519a5.239,5.239,0,0,1-1.028-.184c-1.325-.463-3.469-5.31-4.224-6.66a88.352,88.352,0,0,1-9.338-22.767c-2.859-11.667-2.176-28.4,4.761-35.033,3.244-3.106,7.556-4.144,11.8-4.384.154-.007.31-.01.47-.01.546,0,1.121.037,1.706.074s1.151.079,1.739.079a9.464,9.464,0,0,0,1.722-.143c2.136-.391,4-2.188,6.52-3.146a16.792,16.792,0,0,1,5.858-1.384,7.315,7.315,0,0,1,2.244.33c2.706.87,4.842,5.741,5.934,10.133.055-.005,1.108-.1,1.461-.151q2.463-.212,4.764-.21C1147.43,138.292,1156.152,142.433,1162.092,148.835Zm-62.72.942a4.5,4.5,0,0,1,3.2-1.322,4.566,4.566,0,0,1,.88.085,4.94,4.94,0,1,0-3.442,8.464,5.142,5.142,0,0,0,.632-.039,4.452,4.452,0,0,1-1.269-7.188m35.009.408,1.928.966-1.213-1.733.667-.974-1.181.064-.723-.927-.305,1.134-1.694.424,1.574.607.032,1.173.915-.734m15.747-.168-.547-1.837,1.309-.718-1.6-.144-.457-.918-.458.918-1.02.152.739.718-.731,1.845,1.478-1.318,1.285,1.3m13.5,13.36,1.149,1.158-.579-1.573.571-.559-.8-.1-.354-1.413-.353,1.413-1.333-.351,1.116,1.022-.128.782.706-.375M1105.1,169.35l-.473-1.589,1.132-.631-1.381-.119-.4-.8-.393.8-.884.135.643.615-.635,1.6,1.277-1.142,1.116,1.126m19.914-22.647-.241-.87.458-.44-.635-.088-.281-.574-.281.574-.859.056.4.559-.049.791.795-.551.691.543" fill="#d88dff"/>
          </g>
        </g>
      </g>
    </g>
  </g>
  <rect id="Frame" width="120" height="120" fill="none"/>
</svg>
