<svg id="paint-bucket" xmlns="http://www.w3.org/2000/svg" width="120" height="120" viewBox="0 0 120 120">
  <path id="drop-shadow" d="M2013.41-1233.886a31.919,31.919,0,0,0-17.843-15.678,31.92,31.92,0,0,0-23.743.682,28.831,28.831,0,0,0-15.774,16.685l-2.763,7.662a2.349,2.349,0,0,0,1.386,2.978l-.642,1.779-.241.67a7.8,7.8,0,0,0,.387,5.809l-.772,3.272L1946.1-1179.1a5.6,5.6,0,0,0,.511,4.434,17.4,17.4,0,0,0,4.515,5.293,43.644,43.644,0,0,0,12.937,7.107,40.919,40.919,0,0,0,16.514,2.7l0,.006c.1-.008.187-.023.283-.032.292-.028.578-.06.857-.1.155-.022.306-.045.456-.07.261-.042.514-.09.762-.143.142-.03.285-.059.423-.092.257-.062.5-.131.746-.2.111-.033.227-.063.335-.1.341-.113.67-.235.978-.372.172-.076.34-.156.5-.241v0a5.321,5.321,0,0,0,2.721-2.845l14.113-28.468,1.492-3.012c.1-.051.2-.107.294-.161q.123-.068.243-.138c.277-.162.543-.331.793-.51.016-.012.035-.022.051-.034v0a7.2,7.2,0,0,0,2.625-3.379l.241-.67.624-1.73a2.35,2.35,0,0,0,3.013-1.4l2.78-7.707A28.834,28.834,0,0,0,2013.41-1233.886Zm-18.635-13.48c15,5.409,23.03,21.374,17.9,35.59l-1.936,5.368c1.2-3.5-.613-7.747-5.125-11.975-4.274-4.006-10.541-7.622-17.648-10.185s-14.239-3.778-20.086-3.422c-5.782.352-9.751,2.229-11.307,5.31l1.7-4.714C1963.4-1245.61,1979.776-1252.775,1994.775-1247.366Zm11.994,45.238h0c.212-.111.42-.223.617-.343h0C2007.189-1202.35,2006.981-1202.238,2006.769-1202.128Zm-.417.216c-.245.116-.505.222-.767.326h0c.263-.1.524-.211.77-.328Zm-1.15.482c-.4.148-.823.284-1.264.406.441-.122.861-.259,1.264-.406Zm-17.585-1.884-1.6-.577a62.528,62.528,0,0,1-6.26-1.9,62.461,62.461,0,0,1-6.03-2.534l-1.6-.578c-4.26-2.216-20.4-11.933-12.054-17.864,2.286-1.624,5.278-1.736,8.081-1.789a74.908,74.908,0,0,1,9.115.2c9.638,1,18.577,5.745,26.085,11.87,2.327,1.9,4.7,4.233,4.953,7.225C2009.135-1199.548,1992.838-1202.188,1987.617-1203.314Z" transform="translate(-1918 1265.252)" fill="#050505" opacity="0.3"/>
  <path id="colour" d="M1965.1-1230.509c-2.231.34-4.612,1.008-5.963,2.815-1.744,2.333-1.12,5.669.107,8.311a22.457,22.457,0,0,0,8.058,9.3,41.119,41.119,0,0,0,8.223,3.829c3.7,1.377,7.432,2.668,11.232,3.732a28.173,28.173,0,0,0,6.991,1.245,32.851,32.851,0,0,0,7.989-1.166,7.259,7.259,0,0,0,4-1.859,7.207,7.207,0,0,0,1.026-1.757c.738-1.593,1.494-3.323,1.148-5.044a8.134,8.134,0,0,0-1.355-2.792,26.319,26.319,0,0,0-5.2-6.24,28.618,28.618,0,0,0-7.378-3.863c-4.813-1.951-9.811-4.665-14.83-5.986A35.873,35.873,0,0,0,1965.1-1230.509Z" transform="translate(-1918 1265.252)"/>
  <path id="Path_3256" data-name="Path 3256" d="M1988.279-1208.6a62.007,62.007,0,0,1-7.942-2.289,62.193,62.193,0,0,1-7.576-3.306l-17.484-6.305-1.224,5.182-7.3,30.923a5.591,5.591,0,0,0,.511,4.434,17.39,17.39,0,0,0,4.515,5.294,43.643,43.643,0,0,0,12.936,7.106c8.637,3.115,16.871,3.577,21.351,1.593a5.6,5.6,0,0,0,3.223-3.088l14.112-28.469,2.365-4.77Z" transform="translate(-1918 1265.252)" fill="#bbbdbc"/>
  <path id="Path_3257" data-name="Path 3257" d="M1951.775-1174.671a17.39,17.39,0,0,1-4.515-5.294,5.591,5.591,0,0,1-.511-4.434l7.3-30.923,1.224-5.182,8.391,3.026Z" transform="translate(-1918 1265.252)" fill="#a1a2a6"/>
  <path id="Path_3258" data-name="Path 3258" d="M2004.9-1202.611l-18.336,36.4c-.16.085-.327.165-.5.242a15.121,15.121,0,0,1-4.839,1.109l18.725-39.533Z" transform="translate(-1918 1265.252)" fill="#e9e9e9"/>
  <path id="Path_3259" data-name="Path 3259" d="M2005.762-1202.3l-2.365,4.77a24.933,24.933,0,0,1-5.994,1.043c-6.146.374-13.6-.888-20.982-3.551s-13.927-6.447-18.419-10.657a25.024,25.024,0,0,1-3.949-4.628l1.224-5.182,19.1,6.886a62.2,62.2,0,0,0,6.031,2.534,62.519,62.519,0,0,0,6.259,1.9Z" transform="translate(-1918 1265.252)" fill="#a1a2a6"/>
  <path id="Path_3260" data-name="Path 3260" d="M2011.361-1211.6l-2.465,6.837c-1.269,3.519-5.4,5.666-11.63,6.045-5.846.356-12.979-.859-20.086-3.422s-13.374-6.18-17.647-10.184c-4.555-4.269-6.364-8.558-5.095-12.077l2.465-6.836a7.052,7.052,0,0,0-.249,3.772,12.229,12.229,0,0,0,2.093,4.618,23.763,23.763,0,0,0,3.251,3.686c4.274,4,10.542,7.622,17.647,10.184s14.24,3.778,20.087,3.423a23.778,23.778,0,0,0,4.855-.763,12.238,12.238,0,0,0,4.559-2.219A7.036,7.036,0,0,0,2011.361-1211.6Z" transform="translate(-1918 1265.252)" fill="#bbbdbc"/>
  <path id="Path_3261" data-name="Path 3261" d="M1962-1219.163a36.349,36.349,0,0,0,3.366,2.777l-2.466,6.837a36.376,36.376,0,0,1-3.365-2.777,22.188,22.188,0,0,1-3.822-4.56l2.465-6.837q.264.437.571.874A23.763,23.763,0,0,0,1962-1219.163Z" transform="translate(-1918 1265.252)" fill="#a1a2a6"/>
  <path id="Path_3262" data-name="Path 3262" d="M2008.737-1208.221l-2.466,6.837a13.1,13.1,0,0,1-4.539,2.005l2.465-6.837.39-.1A12.772,12.772,0,0,0,2008.737-1208.221Z" transform="translate(-1918 1265.252)" fill="#e9e9e9"/>
  <path id="Path_3263" data-name="Path 3263" d="M2009.138-1205.435l-.242.67c-1.269,3.519-5.4,5.666-11.63,6.045-5.846.356-12.979-.859-20.086-3.422s-13.374-6.18-17.647-10.184c-4.555-4.269-6.364-8.558-5.095-12.077l.242-.669c-1.269,3.518.54,7.807,5.094,12.076,4.274,4,10.542,7.622,17.648,10.184s14.239,3.778,20.086,3.423C2003.739-1199.769,2007.869-1201.916,2009.138-1205.435Z" transform="translate(-1918 1265.252)" fill="#d2d2d2"/>
  <path id="Path_3264" data-name="Path 3264" d="M1998.132-1216.277a72.586,72.586,0,0,0-7.307-3.088c-11.493-4.145-22.474-4.973-28.962-2.716a20.048,20.048,0,0,1-1.808-2.221c5.515-2.333,15.468-1.738,25.9,2.024A57.994,57.994,0,0,1,1998.132-1216.277Z" transform="translate(-1918 1265.252)" fill="#fff" opacity="0.5"/>
  <path id="Path_3265" data-name="Path 3265" d="M1967.867-1217.089a57.76,57.76,0,0,0,12.47,6.2c10.552,3.8,20.612,4.37,26.085,1.944a21.455,21.455,0,0,0-5.661-6.589C1998.474-1213.364,1990.819-1209.417,1967.867-1217.089Z" transform="translate(-1918 1265.252)" opacity="0.2"/>
  <path id="Path_3266" data-name="Path 3266" d="M2009.756-1207.166h0l3.572-9.905c5.126-14.216-2.906-30.181-17.905-35.59s-31.372,1.757-36.5,15.972l-3.555,9.86h0a2.351,2.351,0,0,1-1.434-3l2.763-7.663a28.831,28.831,0,0,1,15.774-16.685,31.913,31.913,0,0,1,23.742-.681,31.912,31.912,0,0,1,17.844,15.677,28.83,28.83,0,0,1,1.495,22.913l-2.779,7.707A2.352,2.352,0,0,1,2009.756-1207.166Z" transform="translate(-1918 1265.252)" fill="#a1a2a6"/>
  <path id="Path_3267" data-name="Path 3267" d="M2006.266-1223.678c-4.274-4.006-10.541-7.622-17.648-10.185s-14.239-3.778-20.085-3.422c-6.231.379-10.361,2.527-11.63,6.046a7.052,7.052,0,0,0-.249,3.772,12.229,12.229,0,0,0,2.093,4.618,23.763,23.763,0,0,0,3.251,3.686c4.274,4,10.542,7.622,17.647,10.184s14.24,3.778,20.087,3.423a23.778,23.778,0,0,0,4.855-.763,12.238,12.238,0,0,0,4.559-2.219,7.036,7.036,0,0,0,2.215-3.064C2012.63-1215.121,2010.821-1219.41,2006.266-1223.678Zm-25.93,12.785c-10.552-3.805-18.658-9.791-21.323-15.151,5.473-2.427,15.534-1.862,26.085,1.943s18.658,9.791,21.324,15.152C2000.948-1206.523,1990.888-1207.088,1980.336-1210.893Z" transform="translate(-1918 1265.252)" fill="#d2d2d2"/>
  <path id="Path_3268" data-name="Path 3268" d="M1988.412-1233.289c-14.351-5.175-27.793-4.356-30.023,1.828a6.838,6.838,0,0,0,.624,5.417c5.473-2.427,15.534-1.862,26.085,1.943s18.658,9.791,21.324,15.152a6.83,6.83,0,0,0,3.937-3.772C2012.589-1218.905,2002.763-1228.114,1988.412-1233.289Z" transform="translate(-1918 1265.252)" fill="#a1a2a6"/>
  <path id="Path_3269" data-name="Path 3269" d="M1972.294-1227.208l3.313-9.188a34.428,34.428,0,0,0-9.085.005l-3.314,9.188A34.523,34.523,0,0,1,1972.294-1227.208Z" transform="translate(-1918 1265.252)" fill="#838488"/>
  <path id="Path_3273" data-name="Path 3273" d="M1985.1-1224.1q2.464.889,4.739,1.925l3.314-9.188c-1.513-.687-3.1-1.333-4.739-1.925q-1.791-.647-3.555-1.167l-3.313,9.189Q1983.305-1224.747,1985.1-1224.1Z" transform="translate(-1918 1265.252)" fill="#bbbdbc"/>
  <path id="Path_3288" data-name="Path 3288" d="M2003.054-1225.537l-3.314,9.188a22.912,22.912,0,0,1,6.682,7.4h0a6.836,6.836,0,0,0,3.937-3.772C2011.691-1216.415,2008.721-1221.189,2003.054-1225.537Z" transform="translate(-1918 1265.252)" fill="#838488"/>
  <rect id="frame" width="120" height="120" transform="translate(120 120) rotate(180)" fill="none"/>
</svg>
