<svg id="panda" xmlns="http://www.w3.org/2000/svg" width="120" height="119.657" viewBox="0 0 120 119.657">
  <rect id="frame" width="120" height="119.657" fill="none"/>
  <path id="Path_4064" data-name="Path 4064" d="M99.205,58.119c3.024-2.731,6.706-4.589,10.052-6.908A50.572,50.572,0,0,0,102.4,32.9c-1.4,1.7-2.822,3.368-4.309,5.013l-4.041,4.474c-1.445,1.6-3.025,2.835-4.442,4.266v0q-.113-.3-.243-.594l-.011-.026c-.057-.127-.12-.253-.181-.378l.031-.026a3.519,3.519,0,0,0,.3-.292c.034-.037.068-.074.1-.111a2.875,2.875,0,0,0,.336-.479l0,0c.166-.3.319-.625.466-.953.05-.111.1-.221.148-.334.094-.218.183-.439.27-.662q.192-.485.364-.976v0c.206-.583.4-1.166.579-1.726a22.7,22.7,0,0,0,.8-3.274c.013,0,.025,0,.038,0s.014-.261.027-.486a13.713,13.713,0,0,0,.124-1.567,11.006,11.006,0,0,0-.078-1.365,9.193,9.193,0,0,0-.376-1.8c-.035-.1-.079-.205-.118-.309a17.23,17.23,0,0,0-1.421-2.81c-.333-.558-.669-1.124-1.008-1.69a26.958,26.958,0,0,0-.245-2.98,14.257,14.257,0,0,0-2.427-1.393c-.169-.262-.341-.52-.515-.779a6.3,6.3,0,0,0,1.32-1.18,2.724,2.724,0,0,0,.3.225,1.055,1.055,0,0,0,.39.168.87.87,0,0,0,.782-.332,1.909,1.909,0,0,0,.359-.808.726.726,0,0,0-.024-.539.466.466,0,0,1-.027.049.918.918,0,0,0-.1-.343c-.007-.011-.017-.02-.024-.032a50.336,50.336,0,0,0-10.244-5.917,12.291,12.291,0,0,0-.369,1.192c-.124-.064-.25-.125-.377-.185q-.325-.155-.661-.294c-.114-.046-.227-.1-.342-.139-.342-.129-.69-.251-1.05-.353h0a18.889,18.889,0,0,0-2.49-.521v0l-.157-.021-.153-.02-.444-.059v.009c-.321-.033-.644-.062-.971-.08-.251-.013-.5-.022-.758-.025-.507-.007-1.015.008-1.517.048-.25.019-.5.045-.748.077a12.179,12.179,0,0,0-1.733.355l-.739-3.09c-.034-.142-.074-.287-.112-.431a50.546,50.546,0,0,0-7.16-.519c-.274,0-.544.017-.818.021a9.538,9.538,0,0,0-1.555,1.627,5.189,5.189,0,0,0-.725,1.374,4.339,4.339,0,0,0-.184.766,4.14,4.14,0,0,0-.038.487c0,.03,0,.06,0,.09,0,.14,0,.281.019.424,0,.02,0,.04.007.06.017.156.041.315.072.474l0,.015a7.2,7.2,0,0,0,.766,2.031,1.165,1.165,0,0,0-.123.077,1.235,1.235,0,0,0-.339.363.912.912,0,0,0-.1.343.465.465,0,0,1-.027-.049.726.726,0,0,0-.024.539,1.909,1.909,0,0,0,.359.808.872.872,0,0,0,.782.332,1.076,1.076,0,0,0,.391-.168,2.7,2.7,0,0,0,.471-.384,6.828,6.828,0,0,0,.733.64c-3.068,2.637-6.14,5.76-7.853,9.413l-.006.01q-.239.511-.44,1.036c-.011.03-.025.058-.037.089-.121.32-.227.644-.326.973-.018.06-.041.117-.057.177-.11.383-.2.772-.281,1.165a11.683,11.683,0,0,0-.172,1.293c-.006.069,0,.138-.007.207-.023.37-.035.742-.025,1.112,0,.039,0,.076.007.113q.021.609.094,1.216l0,.017q.08.65.218,1.293h0c.122.57.276,1.135.454,1.692h0c.15.471.317.936.5,1.394.01.026.019.052.03.077.192.466.394.926.617,1.374v0c.09.182.193.338.288.509l-.149.088c-.1.062-.2.123-.3.188l-.11.075-.083.057c-.03.02-.06.04-.089.061-.1.069-.193.143-.288.217l-.086.067c-.063.051-.128.1-.19.153-.027.023-.052.047-.079.069-.156.134-.308.274-.457.418l-.109.106c-.167.167-.332.339-.489.518a.608.608,0,0,0-.15.07A4.1,4.1,0,0,1,44.35,43.4c-1.272-1.422-2.545-2.733-3.95-4.08-2.251-2.156-10.825-13.907-12.74-16.266-.123-.152-.24-.292-.35-.424-.362-.431-.656-.766-.877-1.05-.043-.056-.073-.1-.11-.157A50.861,50.861,0,0,0,16.572,33c.073.439.157.895.26,1.377.011.051.022.1.034.155.052.239.108.483.168.731.015.061.029.12.045.181q.223.9.523,1.864c.023.074.049.148.072.223.078.242.159.487.245.734.036.1.071.2.108.3.087.242.178.485.274.731.035.09.067.178.1.269q.2.5.418,1c.022.05.047.1.069.15q.19.427.4.859c.054.111.112.224.167.336.118.236.239.472.365.709.061.116.124.233.188.35q.22.4.458.805c.046.078.088.155.135.232q.309.514.646,1.027c.06.091.124.181.185.272.172.256.348.511.533.767q.126.176.257.35.269.363.554.724c.085.107.168.214.254.321.277.34.562.68.862,1.017,6.35,7.134,15.173,10.156,19.05,11.191l-.021.038q-.246.454-.5.906c-.188.344-.38.688-.573,1.03-.12.213-.24.427-.362.64-.2.35-.412.7-.623,1.043-.108.176-.212.355-.322.53-.324.513-.656,1.018-1.009,1.512-.249.349-.51.693-.773,1.034-.1.132-.207.266-.311.4l-.184.231c-.342.431-.689.86-1.035,1.289q-.319.4-.633.794c-.078.1-.157.2-.235.295-.126.161-.248.326-.371.489h0c-.147.2-.294.393-.437.591-.068.1-.136.191-.2.288-.273.389-.539.783-.786,1.192-1.5,2.47-1.58,5.024-1.449,7.727l-.022-.016-.01-.007c-.148-.109-.272-.2-.374-.279l-.04-.03-.182-.141-.048-.037-.038-.031-.016-.012-1.107,13.6.034.044.025.03c.021.027.047.059.081.1l.057.071c.034.041.07.086.113.135l.1.116c.042.05.09.106.139.162l.139.161q.138.158.3.344c.061.069.133.145.2.22l.191.21.25.269.2.215c.094.1.19.2.292.3.073.076.149.154.227.232.109.111.217.221.333.336l.235.231q.33.324.695.67c.1.095.2.187.3.284.13.12.264.244.4.367.113.1.227.207.344.312.139.125.28.25.425.377.126.111.254.221.385.333.148.127.3.255.45.385s.3.247.449.371.29.242.442.363l0,0a48.16,48.16,0,0,0,25.674,10.741,50.407,50.407,0,0,0,39.761-25.772l-.361-3.961-.144.095h0c-.058.039-.141.092-.235.151-.012-.046-.025-.092-.038-.136-.033-.115-.07-.228-.107-.341s-.067-.222-.107-.331c-.044-.124-.094-.247-.143-.369-.039-.1-.074-.2-.115-.291-.06-.14-.129-.279-.2-.416-.037-.077-.07-.155-.109-.231-.11-.214-.227-.424-.352-.631-1.427-2.357-3.369-4.358-4.971-6.6-.381-.535-.737-1.085-1.083-1.642l-.018-.029q-.374-.6-.733-1.216c-.278-.728-.568-1.448-.858-2.169l0-.01c1.311-3.007,2.73-5.849,5.244-8.118" transform="translate(0.479 0.455)" opacity="0.3"/>
  <path id="Path_4065" data-name="Path 4065" d="M92.5,78.214c-1.442-2.368-3.4-4.378-5.022-6.632-.67-.933-1.273-1.908-1.853-2.9-.438-1.138-.906-2.259-1.354-3.39a30.994,30.994,0,0,1-1.617-5.078c-.4-1.921-.707-3.859-1-5.8a30.568,30.568,0,0,0-.617-5.267A11.852,11.852,0,0,0,79.1,44.472a15.722,15.722,0,0,0-4.913-3.8c-.949-.549-1.9-1.1-2.894-1.561-5.759-2.662-12.495-2.074-18.66-.575a29.593,29.593,0,0,0-5.967,2.03c-.361.176-.73.367-1.1.571-.061,0-.121,0-.182.005-3.031.268-5.5,2.653-6.946,5.332s-2.1,5.7-3.157,8.552c-.449,1.211-.97,2.4-1.376,3.626-.066.11-.129.221-.19.332a64.338,64.338,0,0,1-3.944,6.646c-1.617,2.253-3.579,4.263-5.021,6.631C23,75.133,23.167,78.12,23.366,81.322a14.96,14.96,0,0,0,3.573,8.838,19.774,19.774,0,0,0,8.387,5.611c3.114,1.124,6.428,1.6,9.577,2.617,1.99.646,3.91,1.509,5.931,2.048a38.542,38.542,0,0,0,4.375.812c1.508.22,3.057.573,4.578.664,1.089.065,2.094-.134,3.189.008a73.62,73.62,0,0,0,9.646.727,24.3,24.3,0,0,0,7.622-1.6c2.1-.817,4.168-1,6.075-2.4a21.531,21.531,0,0,0,6.67-9.183A12.489,12.489,0,0,0,92.5,78.214" fill="#e1e1d8"/>
  <path id="Path_4066" data-name="Path 4066" d="M28.473,89.533c-3.653-6.642.136-22.374.136-22.374h0a50.86,50.86,0,0,0-3.854,5.1C23,75.133,23.167,78.12,23.366,81.322a14.937,14.937,0,0,0,1.974,6.555c2.741,2.765,4.558,4.248,3.133,1.656" fill="#fff"/>
  <path id="Path_4067" data-name="Path 4067" d="M92.5,78.214c-1.442-2.368-3.4-4.378-5.022-6.632-.385-.536-.745-1.089-1.094-1.649a3.5,3.5,0,0,0-.986.246S91.612,83.8,91.756,88.4c.023.722.545.87,1.408.608A12.376,12.376,0,0,0,92.5,78.214" opacity="0.3"/>
  <path id="Path_4068" data-name="Path 4068" d="M119.892,17.944a1.73,1.73,0,0,0-2.069-.784,4.646,4.646,0,0,0-1.943,1.392,6.076,6.076,0,0,1-1.864,1.515l2.841-3.836c.507-.684,1.034-1.574.637-2.326a1.543,1.543,0,0,0-1.828-.587,4.076,4.076,0,0,0-1.651,1.237,27.587,27.587,0,0,0-2.306,2.877,20.693,20.693,0,0,0,1.322-4.1c.189-.9.23-2.021-.536-2.524a1.666,1.666,0,0,0-1.848.182,4.876,4.876,0,0,0-1.206,1.55L107.263,16.3a6.489,6.489,0,0,0-2.748-2.95,1.721,1.721,0,0,0-1.353-.257c-.714.248-.889,1.184-.8,1.934.161,1.33.763,2.571.9,3.9.167,1.553-.379,2.015-1.349,3.073-1.861,2.03-3.348,4.372-5.039,6.537-2.555,3.272-5.15,6.432-7.945,9.508l-4.083,4.493c-1.46,1.607-3.057,2.849-4.488,4.285A9.518,9.518,0,0,0,79.1,44.471a15.727,15.727,0,0,0-4.914-3.8c-.948-.55-1.9-1.1-2.894-1.561a18.3,18.3,0,0,0-2.141-.829c-3.123-.135-6.23-.573-9.343-.93a44.4,44.4,0,0,0-7.176,1.184,29.563,29.563,0,0,0-5.966,2.03c-.362.176-.73.366-1.1.57-.061,0-.122,0-.183.005a8.156,8.156,0,0,0-5.277,2.932.6.6,0,0,0-.153.07,4.16,4.16,0,0,1-5.322-.586c-1.285-1.428-2.571-2.745-3.991-4.1-2.274-2.166-10.937-13.969-12.872-16.34s-2.4-2.164-.455-4.681.224-4.21-.534-4.426-2.382,2.6-3.465,3.248-2.274-1.3-3.249-3.838-1.624-2.875-3.032-1.035,1.624,6.5,1.624,6.5a30.391,30.391,0,0,1-3.14-3.79c-1.408-2.058-2.057-1.192-2.6,0-.634,1.4,1.882,4.683,2.543,5.8-.735-.717-2.376-3.024-3.387-3.182C.844,17.515.034,19.154.566,20.128c.8,1.462,5.607,8.176,5.607,8.176a30.954,30.954,0,0,0,7.8,20.358C20.386,55.828,29.3,58.863,33.216,59.9a54.287,54.287,0,0,1-3.439,5.724c-1.125,1.567-2.413,3.018-3.58,4.552a17.959,17.959,0,0,0,6.2-4.117,4.849,4.849,0,0,1,1.445-1.129c1.483-.613,3.04.524,4.5,1.195a8.059,8.059,0,0,0,3.973.707,2.169,2.169,0,0,0,1.245-.4c.675-.566.6-1.684,1.231-2.3a1.875,1.875,0,0,1,1.9-.3,6.8,6.8,0,0,1,1.726,1.039,19.338,19.338,0,0,0,3.748,2.107,3.976,3.976,0,0,0,2.465.406c1.089-.273,2.055-1.375,3.122-1.021.7.231,1.047.994,1.567,1.516a4.684,4.684,0,0,0,2.542,1.109,16.482,16.482,0,0,0,6.993-.245,5.888,5.888,0,0,0,2.663-1.1,12.812,12.812,0,0,1,2.6-2.131,4.186,4.186,0,0,1,4.01-.133c1.568.929,2.095,3.085,3.689,3.97,1.334.741,3.059.4,4.563.561-.251-.4-.5-.809-.74-1.221-.283-.734-.577-1.461-.871-2.188,1.324-3.021,2.758-5.875,5.3-8.154C93.78,55,98.5,52.967,102.375,49.8A37.279,37.279,0,0,0,111.8,37.074c2.573-5.614,2.273-11.687,6.866-16.369.751-.767,1.65-1.774,1.228-2.761" fill="#74981c"/>
  <path id="Path_4069" data-name="Path 4069" d="M79.4,88.421a29.1,29.1,0,0,1,.423-2.927,7.67,7.67,0,0,0-.119-1.906,10.828,10.828,0,0,0-.77-2.934c-.473-.928-1.247-1.522-1.254-2.665-.007-1.029.929-2.1,1.929-1.857a2.54,2.54,0,0,1,1.254.976,33.165,33.165,0,0,1,4.72,7.706,4.732,4.732,0,0,1,.461,3.6,3.343,3.343,0,0,1-1.992,1.753c-1.86.683-4.6,1.011-4.652-1.748" fill="#74981c"/>
  <path id="Path_4070" data-name="Path 4070" d="M42.644,89.724c1.7-2.149,4.776-2.484,7.175-3.8.965-.531,1.827-1.229,2.771-1.8A9.339,9.339,0,0,1,58.7,82.75a12.933,12.933,0,0,1,5.819,2.92,6.527,6.527,0,0,0,1.723,1.093,8.255,8.255,0,0,0,1.872.307,11.093,11.093,0,0,1,2.405.555,2.508,2.508,0,0,1,.766.385,2.9,2.9,0,0,1,.65,2.494,2.539,2.539,0,0,1-.181.946,2.353,2.353,0,0,1-.92.882A35.637,35.637,0,0,1,63.55,95.57l-6.659,2.381a21.965,21.965,0,0,1-5.133,1.379,21,21,0,0,1-3.59-.039,5.327,5.327,0,0,1-3.053-.867c-.713-.58-1.168-1.437-1.834-2.073a4.733,4.733,0,0,1-1.312-1.842,5.038,5.038,0,0,1,.675-4.785" fill="#74981c"/>
  <path id="Path_4071" data-name="Path 4071" d="M22.555,79.465,21.437,93.126s14.381,18.5,38.524,17.631S95.494,96.3,95.494,96.3L94.066,80.725a69.6,69.6,0,0,1-35.6,10.251A61.138,61.138,0,0,1,22.555,79.465" fill="#5a260f"/>
  <path id="Path_4072" data-name="Path 4072" d="M85.583,85.156c0,2.551-.3,19.136-8.718,22.592C89.454,103.5,95.494,96.3,95.494,96.3L94.066,80.726a57.31,57.31,0,0,1-8.483,4.43" opacity="0.3"/>
  <path id="Path_4073" data-name="Path 4073" d="M58.516,97.936a1.877,1.877,0,0,0,1.979-1,1.92,1.92,0,0,0-.25-1.957c-.7-.893-2.611-1.255-3.229-.071a2.232,2.232,0,0,0,1.5,3.03" fill="#4c1a06"/>
  <path id="Path_4074" data-name="Path 4074" d="M22.446,81.567s9.5,7.286,20.637,9.238a91.214,91.214,0,0,0,17.775,1.663s7,1.083,23.9-4.692a66.071,66.071,0,0,0,9.476-4.491l.3,3.254a65.416,65.416,0,0,1-21.615,8.24c-13.283,2.671-30.866-.429-32.687-1.153s-11.867-4.695-17.781-8.81Z" fill="#4c1a06"/>
  <path id="Path_4075" data-name="Path 4075" d="M21.437,93.126A45.289,45.289,0,0,0,28.322,99.8l-.914-17.14h0a40.751,40.751,0,0,1-4.853-3.2Z" fill="#fff" opacity="0.1"/>
  <path id="Path_4076" data-name="Path 4076" d="M58.516,97.166a1.877,1.877,0,0,0,1.979-1,1.92,1.92,0,0,0-.25-1.957c-.7-.893-2.611-1.255-3.229-.071a2.232,2.232,0,0,0,1.5,3.03" fill="#777a79"/>
  <path id="Path_4077" data-name="Path 4077" d="M61.36,90.908c.062,0,0,12.125,0,12.125H56.671l.361.722h4.981V90.874Z" fill="#4c1a06"/>
  <path id="Path_4078" data-name="Path 4078" d="M22.446,80.8s9.5,7.286,20.637,9.238A91.214,91.214,0,0,0,60.858,91.7s7,1.083,23.9-4.692a66.2,66.2,0,0,0,9.476-4.491l.3,3.254a65.416,65.416,0,0,1-21.615,8.24c-13.283,2.671-30.866-.429-32.687-1.153s-11.867-4.695-17.781-8.81Z" fill="#af3382"/>
  <path id="Path_4079" data-name="Path 4079" d="M22.446,81.231s9.5,7.065,20.637,8.958A94.049,94.049,0,0,0,60.858,91.8s7,1.05,23.9-4.55A67.146,67.146,0,0,0,94.23,82.9l.3,3.155a66.582,66.582,0,0,1-21.615,7.989c-13.283,2.59-30.866-.415-32.687-1.118S28.36,88.371,22.446,84.381Z" fill="#7a2256"/>
  <path id="Path_4080" data-name="Path 4080" d="M40.825,88.4l-.9,6.727,2.166.615,1.164-6.675Z" fill="#4c1a06"/>
  <path id="Path_4081" data-name="Path 4081" d="M74.9,88.83v5.756l2.559-.794V88.117Z" fill="#4c1a06"/>
  <path id="Path_4082" data-name="Path 4082" d="M74.188,40.67c-.949-.55-1.9-1.1-2.894-1.561-5.758-2.663-12.495-2.074-18.66-.575a29.593,29.593,0,0,0-5.967,2.03c-.361.176-.729.366-1.1.57-.061,0-.121,0-.182.005A7.976,7.976,0,0,0,40.4,43.756a11.424,11.424,0,0,0,4.617,5.637c3.056,1.812,6.708,2.251,10.245,2.582,7.338.686,15.15.982,21.629-2.531,1.305-.708,2.64-1.725,2.871-3.192a2.988,2.988,0,0,0,.011-.726,8.534,8.534,0,0,0-.675-1.055,15.723,15.723,0,0,0-4.913-3.8" opacity="0.3"/>
  <path id="Path_4083" data-name="Path 4083" d="M47.02,16.711a1.252,1.252,0,0,1,.342-.365.678.678,0,0,1,.7-.13.652.652,0,0,1,.208.21,1.034,1.034,0,0,1-.587,1.532c-.712.3-.96-.75-.664-1.247" fill="#f5911e"/>
  <path id="Path_4084" data-name="Path 4084" d="M46.646,12.673c.309-2.127,2.181-3.626,3.916-4.9a9.434,9.434,0,0,1,2.283-1.36,3.194,3.194,0,0,1,2.587.073c1.154.63,1.568,2.054,1.876,3.333q.434,1.8.868,3.607a3.787,3.787,0,0,1,.136,1.788A3.8,3.8,0,0,1,56.964,17c-1.6,1.407-4.309,3.386-6.55,2.269-2.136-1.065-4.117-4.195-3.768-6.6" fill="#d0cfc3"/>
  <path id="Path_4085" data-name="Path 4085" d="M80.329,18.922a1.269,1.269,0,0,0-.343-.365.676.676,0,0,0-.7-.13.633.633,0,0,0-.208.21,1.033,1.033,0,0,0,.586,1.532c.712.3.96-.75.665-1.247" fill="#f5911e"/>
  <path id="Path_4086" data-name="Path 4086" d="M71.183,10.455a3.933,3.933,0,0,1,1.974-1.767,3.11,3.11,0,0,1,1.56-.014c2.2.475,3.814,2.347,4.957,4.283a6.258,6.258,0,0,1,.786,1.789,5.421,5.421,0,0,1-.205,2.714,7.575,7.575,0,0,1-3.079,4.322,4.958,4.958,0,0,1-5.144.157C67.968,19.376,69,13.79,71.183,10.455" fill="#d5d3c9"/>
  <path id="Path_4087" data-name="Path 4087" d="M49.879,11.843a3.246,3.246,0,0,1,1.875-1.567,3.264,3.264,0,0,1,1.831-.335,1.917,1.917,0,0,1,1.461,1.319c.042.142.018.354-.129.359a3.7,3.7,0,0,0-1.478-.281,1.662,1.662,0,0,0-1.295.677,3.131,3.131,0,0,0-.339.962c-.789,3.018-2.7.775-1.926-1.134" fill="#b2b2a9"/>
  <path id="Path_4088" data-name="Path 4088" d="M73.348,11.21a3.016,3.016,0,0,1,2.287.186,3.849,3.849,0,0,1,2,4.262c-.125.5-.5,1.06-1.007.991a1.257,1.257,0,0,1-.727-.532q-.6-.719-1.19-1.436a2.161,2.161,0,0,0-1-.8c-.4-.109-.829.017-1.233-.071-1.546-.338.15-2.337.876-2.6" fill="#b3b3aa"/>
  <path id="Path_4089" data-name="Path 4089" d="M82.553,40.227a27.241,27.241,0,0,1-1.85,4.679,5.436,5.436,0,0,1-3.076,2.1,34.035,34.035,0,0,1-14.089,2.629,56.987,56.987,0,0,1-14.082-2.652c-3.3-1.013-5.615-2.317-7.18-5.45A15.663,15.663,0,0,1,40.534,31.7c1.192-6.131,6.609-10.98,11.248-14.7,1.236-.992,2.621-2.2,3.956-3.063,3.061-1.986,8.046-1.716,11.383-.77C73.582,15,77.14,21.259,80.389,26.647q.581.965,1.15,1.919A15.85,15.85,0,0,1,83.094,31.7c.9,2.752.34,5.769-.541,8.528" fill="#e1e1d8"/>
  <path id="Path_4090" data-name="Path 4090" d="M73.608,45.951a53.147,53.147,0,0,0-5.53,1.264,25.9,25.9,0,0,1-2.868,1.159,10.626,10.626,0,0,1-3.794.025,9.872,9.872,0,0,1-2.644-.549c-.651-.266-1.238-.667-1.871-.974a22.266,22.266,0,0,0-3.032-1.031,37.723,37.723,0,0,1-8.6-4.487L41.644,39.05c-.168-.107-.348-.239-.531-.373a20.418,20.418,0,0,0,1.163,2.858c1.565,3.133,3.876,4.437,7.18,5.449a56.951,56.951,0,0,0,14.082,2.653,34.049,34.049,0,0,0,14.089-2.629,5.442,5.442,0,0,0,3.077-2.1,20.409,20.409,0,0,0,1.265-2.946,33.793,33.793,0,0,1-8.361,3.991" fill="#cacac1"/>
  <path id="Path_4091" data-name="Path 4091" d="M57.863,32.356a1.221,1.221,0,0,0-.115.606,1.119,1.119,0,0,0,.37.624,1.761,1.761,0,0,0,.938.5,1.1,1.1,0,0,0,.98-.329c.374-.43.305-1.159.756-1.509a1.336,1.336,0,0,1,.45-.2,5.648,5.648,0,0,1,2.352-.167,2.149,2.149,0,0,0,1.008.011c.321-.114.568-.511.385-.8a.807.807,0,0,0-.423-.28c-1.148-.442-2.676-1.147-3.911-.842a4.134,4.134,0,0,0-2.79,2.39" fill="#fff"/>
  <path id="Path_4092" data-name="Path 4092" d="M64.947,30.446a7.608,7.608,0,0,0,1.129,1.591A7.629,7.629,0,0,1,67.641,37.2c-.03.419.006.986.419,1.065a.69.69,0,0,0,.406-.075c1.343-.592,1.763-2.379,1.382-3.8a15.35,15.35,0,0,0-2.106-3.846c-.424-.69-1.173-3.375-2.13-3.479-1.129-.122-.958,2.687-.665,3.376" fill="#c9c9c2"/>
  <path id="Path_4093" data-name="Path 4093" d="M55.041,32.075a12.348,12.348,0,0,0,3.041-4.842,7.912,7.912,0,0,0,.435-1.744,5.452,5.452,0,0,0-3.4-5.546,3.116,3.116,0,0,0-2.533.015c-.908.487-1.342,1.527-2,2.319C49.4,23.7,47.526,24.294,45.8,24.963a9.063,9.063,0,0,0-3.551,2.194A15.293,15.293,0,0,0,40.535,31.7a13.174,13.174,0,0,0,.119,5.276,3.6,3.6,0,0,0,.986,1.138,4.016,4.016,0,0,0,2.684.682,7.27,7.27,0,0,0,2.683-.839c1.128-.574,2.271-1.5,2.329-2.768a.79.79,0,0,1,.1-.469.7.7,0,0,1,.495-.185,8.924,8.924,0,0,0,5.107-2.462" fill="#70941b"/>
  <path id="Path_4094" data-name="Path 4094" d="M55.511,31.369c.681-.176,1.162-1.234,1.489-1.793a13.825,13.825,0,0,0,1.082-2.344,7.862,7.862,0,0,0,.435-1.743,5.452,5.452,0,0,0-3.4-5.546,3.116,3.116,0,0,0-2.533.015,5.186,5.186,0,0,0-1.566,1.734c-.528.718-1.159,1.381-1.734,2.071a1.554,1.554,0,0,0-.406.719.534.534,0,0,0,.4.628A1.237,1.237,0,0,0,49.729,25c.788-.236,1.5.473,2.119,1.016.883.777,1.956,1.325,2.783,2.161a2.977,2.977,0,0,1,.88,3.191" fill="#616637"/>
  <path id="Path_4095" data-name="Path 4095" d="M57.616,17.331a20.774,20.774,0,0,1,2.193.306c1.913.352,3.946.735,5.754.017.874-.347,1.633-.931,2.473-1.353,1.809-.91,3.815-.271,5.468.717a14.939,14.939,0,0,0-6.382-3.852c-3.338-.946-8.322-1.216-11.383.77C54.4,14.8,53.019,16.007,51.782,17c-4.639,3.722-10.056,8.571-11.247,14.7a47.244,47.244,0,0,1,3.82-5.21c2.591-3.135,5.807-6.772,9.526-8.583a7.179,7.179,0,0,1,3.735-.577" fill="#fff" opacity="0.999"/>
  <path id="Path_4096" data-name="Path 4096" d="M57.458,28.383a4.436,4.436,0,1,1-8.854,0,4.436,4.436,0,1,1,8.854,0" fill="#343a2a"/>
  <path id="Path_4097" data-name="Path 4097" d="M57.146,28.682a4.115,4.115,0,1,1-4.115-4.115,4.115,4.115,0,0,1,4.115,4.115" fill="#fffefd"/>
  <path id="Path_4098" data-name="Path 4098" d="M53.031,31.8a4.557,4.557,0,0,1-4.039-2.368,4.107,4.107,0,0,0,8.078,0A4.556,4.556,0,0,1,53.031,31.8" fill="#e4e4e4"/>
  <path id="Path_4099" data-name="Path 4099" d="M55.79,30.065c-.113,1.064-.736,1.869-1.392,1.8s-1.1-.989-.983-2.052.736-1.87,1.392-1.8,1.1.988.983,2.052" fill="#447433"/>
  <path id="Path_4100" data-name="Path 4100" d="M55.266,30.009c-.063.595-.412,1.045-.778,1.006s-.613-.552-.55-1.147.412-1.045.778-1.006.613.552.55,1.147" fill="#283106"/>
  <path id="Path_4101" data-name="Path 4101" d="M54.456,29.192c-.05.47-.325.826-.615.8s-.485-.436-.435-.907.326-.826.616-.8.484.437.434.907" fill="#fff" opacity="0.3"/>
  <path id="Path_4102" data-name="Path 4102" d="M75.369,36.557S74.031,42.521,82,41.863c.195-.553.38-1.1.55-1.636.881-2.76,1.445-5.776.541-8.528-.006-.018-.015-.036-.021-.054l-1.37.243Z" fill="#616637"/>
  <path id="Path_4103" data-name="Path 4103" d="M82.9,34.163a5.03,5.03,0,0,0,.376-1.783c-.054-.228-.1-.456-.178-.681a15.8,15.8,0,0,0-1.555-3.133q-.568-.953-1.15-1.919c-.421-.7-.848-1.411-1.285-2.127-1.824-.81-3.642-1.638-5.474-2.431a7.483,7.483,0,0,0-4.511-.625,4.972,4.972,0,0,0-2.918,2,4.145,4.145,0,0,0-.634,1.4,4.947,4.947,0,0,0,.032,2.094,10.447,10.447,0,0,0,2.107,4.283,26.513,26.513,0,0,0,3.379,3.422A10.13,10.13,0,0,0,75.8,37.44a7,7,0,0,0,2.7-.12,6.052,6.052,0,0,0,4.4-3.157" fill="#73991e"/>
  <path id="Path_4104" data-name="Path 4104" d="M75.809,35.738a5.3,5.3,0,0,0,4.8-3.613,8.194,8.194,0,0,0,.119-2.373,3.775,3.775,0,0,0-.974-2.869c-.949-.766-2.346-.432-3.488,0a36.312,36.312,0,0,0-3.747,1.651c-1.652.843-3.634,2.923-2.743,5,.808,1.879,4.3,2.35,6.034,2.212" fill="#616637"/>
  <path id="Path_4105" data-name="Path 4105" d="M81.539,28.566q-.57-.953-1.15-1.919c-.779-1.292-1.577-2.633-2.427-3.953-.077.038-.154.069-.229.112,0,0,5.229,16.52.988,23.748A4.124,4.124,0,0,0,80.7,44.906a27.273,27.273,0,0,0,1.85-4.679c.881-2.76,1.446-5.776.541-8.528a15.85,15.85,0,0,0-1.555-3.133" opacity="0.3"/>
  <path id="Path_4106" data-name="Path 4106" d="M70.062,33.735c1.944-2.146,3.44-4.675,5.208-6.978.75-.977,1.552-1.914,2.254-2.927l.009-.013c-1.3-.581-2.6-1.163-3.9-1.728a7.482,7.482,0,0,0-4.511-.625,4.972,4.972,0,0,0-2.918,2,4.124,4.124,0,0,0-.633,1.4,4.926,4.926,0,0,0,.031,2.093,10.457,10.457,0,0,0,2.107,4.284,21.781,21.781,0,0,0,2.356,2.5" fill="#616637"/>
  <path id="Path_4107" data-name="Path 4107" d="M64.605,12.64c-.24,4.73.207,11.055,4.938,13.455l-.729,1.514c-5.234-2.929-5.582-9.768-4.972-15.068l.763.1" fill="#32351b"/>
  <path id="Path_4108" data-name="Path 4108" d="M77.749,33.184a9.61,9.61,0,0,0,5.695,2.989l-.043.768a9.6,9.6,0,0,1-3.57-.759,11.342,11.342,0,0,1-3.161-1.949l1.079-1.049" fill="#32351b"/>
  <path id="Path_4109" data-name="Path 4109" d="M80.274,23.875s-7.655-5.727-11.606.571,1.088,9.733,1.088,9.733,12.734,5.957,10.518-10.3" fill="#32351b"/>
  <path id="Path_4110" data-name="Path 4110" d="M79.793,24.255s-7.24-5.415-10.976.54S69.846,34,69.846,34s12.043,5.633,9.947-9.745" fill="#8b9865"/>
  <path id="Path_4111" data-name="Path 4111" d="M78.384,25.2a.111.111,0,0,0,.034.064l-.041-.028-.115-.08a9.667,9.667,0,0,0-3.871-1.586c-4.759-.837-7.586,6.47-3.7,9.222,6.486,2.6,8.7-1.433,7.695-7.592m.663-.39c.984,6.546-1.489,11.4-8.674,8.444-3.673-2.586-2.239-8.637,1.644-10.171,2.3-.784,4.735.208,6.672,1.437a1.5,1.5,0,0,1,.358.29" fill="#5e692d"/>
  <path id="Path_4112" data-name="Path 4112" d="M70.568,33.109a20.044,20.044,0,0,1,2.487-4.741c1.339-1.606,5.634-3.438,5.634-3.438l.3,3.574s-.417,2.905-1.422,4-2.451,1.155-3.332,1.371-3.671-.764-3.671-.764" fill="#5e692d" opacity="0.7"/>
  <path id="Path_4113" data-name="Path 4113" d="M70.161,32.923a13.285,13.285,0,0,1,8.528-7.992l.053.154a12.851,12.851,0,0,0-7.84,8.044l-.741-.206" fill="#5e692d"/>
  <path id="Path_4114" data-name="Path 4114" d="M69.341,26.362c-.017,1.726.918,3.635,2.852,3.6.02,1.54,1.779,2.4,3.1,2.783a14.331,14.331,0,0,0,1.449.324l-.033.277a14.751,14.751,0,0,1-1.513-.211c-1.528-.329-3.354-1.064-3.74-2.775l.353.353c-2.06-.317-2.981-2.479-2.789-4.355l.319.008" fill="#5e692d"/>
  <path id="Path_4115" data-name="Path 4115" d="M72.022,23.6a3.333,3.333,0,0,0,1.529,4.619A3.738,3.738,0,0,0,77.8,30.479l.752-.146.077.262a4.739,4.739,0,0,1-4.677-.6A3.982,3.982,0,0,1,72.9,28.639l.177.2a3.924,3.924,0,0,1-1.419-5.423l.36.183" fill="#5e692d"/>
  <path id="Path_4116" data-name="Path 4116" d="M75.273,23.418a2.591,2.591,0,0,0-.167,2.867,3.764,3.764,0,0,1,.3.449l-.023-.047a1.933,1.933,0,0,0,1.545.821,4.129,4.129,0,0,0,1.89-.525l.175.284a5.26,5.26,0,0,1-.956.54,2.556,2.556,0,0,1-3.4-1.213,2.716,2.716,0,0,1,.433-3.319l.205.143" fill="#5e692d"/>
  <path id="Path_4117" data-name="Path 4117" d="M54.6,40.146a.4.4,0,0,0-.316,0,.3.3,0,0,0-.122.2c-.084.4.261.751.582,1a13.853,13.853,0,0,0,8.449,3.1,5.343,5.343,0,0,0,1.4-.154,4.876,4.876,0,0,0,1.105-.473,6.067,6.067,0,0,0,1.878-1.565,3.953,3.953,0,0,0,.848-2.268.525.525,0,0,0-.65-.14,1.926,1.926,0,0,0-.557.459A9.679,9.679,0,0,1,64.4,42.081a8.173,8.173,0,0,1-1.225.5,5.522,5.522,0,0,1-2.991-.088c-1.952-.551-3.647-1.76-5.578-2.346" fill="#c9c9c2"/>
  <path id="Path_4118" data-name="Path 4118" d="M56.635,40.93c3.485,1.033,7.461,1.711,10.521-.541-1.688,3.9-8.031,3.335-10.521.541" fill="#262b10"/>
  <line id="Line_8" data-name="Line 8" x1="0.185" y2="4.056" transform="translate(61.937 32.502)" fill="#c9c9c2"/>
  <path id="Path_4119" data-name="Path 4119" d="M58.331,34.812a7.148,7.148,0,0,0,7.137.649,2.6,2.6,0,0,1-1.631,1.256,4.6,4.6,0,0,1-5.506-1.9" fill="#262b10"/>
  <rect id="Rectangle_1779" data-name="Rectangle 1779" width="4.321" height="0.77" transform="translate(61.552 36.527) rotate(-85.607)" fill="#262b10"/>
  <path id="Path_4120" data-name="Path 4120" d="M60.861,31.142a1.04,1.04,0,0,0-.625.238.537.537,0,0,0-.142.618.78.78,0,0,0,.255.256,3.279,3.279,0,0,0,2.873.582,4.962,4.962,0,0,0,.493-.21,2,2,0,0,0,.53-.323.676.676,0,0,0,.235-.554.7.7,0,0,0-.643-.543,2.522,2.522,0,0,0-.9.128c-.77.189-1.33-.258-2.081-.192" fill="#447433"/>
  <path id="Path_4121" data-name="Path 4121" d="M57.7,32.393c1-3.634,6.736-3.1,8.523-.574a5.719,5.719,0,0,1,.591,1.31,4.45,4.45,0,0,0-1.8-2.062c-2.359-1.164-5.955-1.434-7.312,1.326" fill="#262b10"/>
  <path id="Path_4122" data-name="Path 4122" d="M53.515,33.259a13.322,13.322,0,0,0,4.5-5.856c1.143-3.492-.319,3.535-.319,3.535s-2.468,4.342-4.185,2.321" fill="#e1e1d8"/>
  <path id="Path_4123" data-name="Path 4123" d="M56.516,33.118a26.981,26.981,0,0,0-4.624-3.134c1.753.48,3.334,1.8,4.862,2.832.208.15-.042.471-.238.3" fill="#262b10"/>
  <path id="Path_4124" data-name="Path 4124" d="M56.188,34.25a25.5,25.5,0,0,0-4.613-2.011,16.228,16.228,0,0,1,4.792,1.67.193.193,0,1,1-.179.341" fill="#262b10"/>
  <path id="Path_4125" data-name="Path 4125" d="M55.853,35.177a17.231,17.231,0,0,0-3.9.444.053.053,0,0,1-.03-.1,17.431,17.431,0,0,1,3.913-.726.192.192,0,1,1,.012.384" fill="#262b10"/>
  <path id="Path_4126" data-name="Path 4126" d="M68.265,33.951c1.738-.608,3.607-1.487,5.421-1.507A27.061,27.061,0,0,0,68.419,34.3a.192.192,0,1,1-.154-.352" fill="#262b10"/>
  <path id="Path_4127" data-name="Path 4127" d="M68.362,35.107a16.164,16.164,0,0,1,5.059-.4,25.415,25.415,0,0,0-4.972.775.192.192,0,1,1-.087-.375" fill="#262b10"/>
  <path id="Path_4128" data-name="Path 4128" d="M68.647,36.1a17.452,17.452,0,0,1,3.6,1.695.053.053,0,0,1-.055.091,17.2,17.2,0,0,0-3.662-1.419.192.192,0,1,1,.116-.367" fill="#262b10"/>
  <path id="Path_4129" data-name="Path 4129" d="M63.73,31.2a3.015,3.015,0,0,0-.788.131c-.77.189-1.33-.258-2.082-.192a1.225,1.225,0,0,0-.428.123.2.2,0,0,0,.015.212.3.3,0,0,0,.124.069l.53.19a4.533,4.533,0,0,0,.508.16,2.415,2.415,0,0,0,2.008-.438.278.278,0,0,0,.134-.2.134.134,0,0,0-.021-.053" fill="#60964a"/>
  <path id="Path_4130" data-name="Path 4130" d="M37.328,82.392a4.5,4.5,0,0,1-1.512-3.352,2.51,2.51,0,0,1,.217-1.09,2.732,2.732,0,0,1,.542-.71,6.259,6.259,0,0,1,2.362-1.478c1.183-.411,2.467-.46,3.652-.866,1.393-.477,2.58-1.423,3.952-1.958s3.155-.534,4.074.615a2.962,2.962,0,0,1,.319,2.849,6.166,6.166,0,0,1-1.794,2.365,22.988,22.988,0,0,1-6.231,3.658,9.932,9.932,0,0,1-2.556,1.059,4.267,4.267,0,0,1-3.025-1.092" fill="#74981c"/>
  <path id="Path_4131" data-name="Path 4131" d="M78.291,18.649a.43.43,0,0,1,.18-.137c.19-.062.372.108.493.267a3.736,3.736,0,0,0,.413.5.9.9,0,0,0,.576.266.522.522,0,0,0,.51-.326.735.735,0,0,1,.024.541,1.919,1.919,0,0,1-.363.812.883.883,0,0,1-.791.333,1.093,1.093,0,0,1-.394-.169c-.731-.465-1.324-1.3-.648-2.086" fill="#ff0"/>
  <path id="Path_4132" data-name="Path 4132" d="M49.058,16.438a.43.43,0,0,0-.18-.137c-.19-.062-.372.108-.493.267a3.735,3.735,0,0,1-.413.5.9.9,0,0,1-.576.266.522.522,0,0,1-.51-.326.735.735,0,0,0-.024.541,1.919,1.919,0,0,0,.363.812.883.883,0,0,0,.791.333,1.093,1.093,0,0,0,.394-.169c.731-.465,1.324-1.3.648-2.086" fill="#ff0"/>
  <path id="Path_4133" data-name="Path 4133" d="M36.771,58.9A2.825,2.825,0,0,0,35.2,57.6,69.564,69.564,0,0,1,9.638,36.583c-.9-1.211-1.541-3.371-2.748-4.27a2.111,2.111,0,0,0-.483-.281,31.159,31.159,0,0,0,7.563,16.63C20.386,55.828,29.3,58.863,33.216,59.9a54.491,54.491,0,0,1-3.439,5.724c-.224.312-.459.617-.694.922q.1.28.176.573a1.6,1.6,0,0,0,.288.69.953.953,0,0,0,.483.258A22.248,22.248,0,0,0,32.4,66.062a4.836,4.836,0,0,1,1.445-1.129,2.274,2.274,0,0,1,.831-.159,11.19,11.19,0,0,0,2.136-4.6,2.362,2.362,0,0,0-.036-1.274" opacity="0.3"/>
  <path id="Path_4134" data-name="Path 4134" d="M84.759,66.494c1.325-3.02,2.758-5.875,5.3-8.154C93.78,55,98.5,52.968,102.374,49.8A37.279,37.279,0,0,0,111.8,37.074c1.364-2.976,1.924-6.079,2.83-9.037l0,0s-9.151,17.107-18.572,22.01a31.43,31.43,0,0,0-14.09,14.864c-.854,1.949,1.768,4.778,4.41,4.988-.252-.4-.5-.81-.741-1.221-.283-.734-.577-1.461-.871-2.189" opacity="0.3"/>
  <path id="Path_4135" data-name="Path 4135" d="M1.012,18.057c.461.928,1.885,1.515,2.034.731a1.423,1.423,0,0,0-.034-.547,2.137,2.137,0,0,0-.932-.532,1.265,1.265,0,0,0-1.068.348" fill="#fff" opacity="0.3"/>
  <path id="Path_4136" data-name="Path 4136" d="M3.4,14.258a5.939,5.939,0,0,0,1.559,2.15,1.607,1.607,0,0,0,.664.369.622.622,0,0,0,.669-.255.612.612,0,0,0,.065-.3c-.279-.361-.56-.736-.83-1.13-1.03-1.506-1.654-1.443-2.127-.835" fill="#fff" opacity="0.3"/>
  <path id="Path_4137" data-name="Path 4137" d="M11.134,15.852c.021,0,.043-.005.064-.007a16.635,16.635,0,0,1-1.127-2.425C9.365,11.579,8.828,10.9,8.05,11.367a2.893,2.893,0,0,0-.06.584,4.307,4.307,0,0,0,.747,2.239,3.014,3.014,0,0,0,2.4,1.662" fill="#fff" opacity="0.3"/>
  <path id="Path_4138" data-name="Path 4138" d="M15.625,16.755a4.378,4.378,0,0,0,1.387-.925,2.018,2.018,0,0,0,.556-1.276,1.878,1.878,0,0,0-.783-.545c-.639-.182-1.892,1.784-2.919,2.8a1.685,1.685,0,0,0,1.759-.052" fill="#fff" opacity="0.3"/>
  <path id="Path_4139" data-name="Path 4139" d="M40.417,43.75c-.1.107-.207.21-.305.321a.616.616,0,0,0-.152.07,4.16,4.16,0,0,1-5.323-.586c-1.285-1.428-2.571-2.745-3.991-4.1-2.274-2.166-10.937-13.969-12.872-16.339-.533-.654-.949-1.108-1.239-1.481a4.117,4.117,0,0,0,.739,2.37c1.218,2.073,2.891,3.811,4.263,5.779,1.3,1.87,2.641,3.716,3.944,5.587,1.49,2.14,2.939,4.312,4.239,6.575a12.354,12.354,0,0,0,1.666,2.465,8.787,8.787,0,0,0,5.41,2.265,3.98,3.98,0,0,0,2.3-.231,2.807,2.807,0,0,0,1.317-2.7" fill="#fff" opacity="0.3"/>
  <path id="Path_4140" data-name="Path 4140" d="M102.455,22.736a4.8,4.8,0,0,0,.658-2.3A5.74,5.74,0,0,1,101.919,22c-1.86,2.03-3.347,4.372-5.039,6.537-2.555,3.272-5.149,6.432-7.945,9.508l-4.083,4.493c-.125.138-.256.261-.383.393A8.225,8.225,0,0,0,87.16,41.6a22.54,22.54,0,0,0,3.5-2.9,60.425,60.425,0,0,0,11.795-15.96" fill="#fff" opacity="0.3"/>
  <path id="Path_4141" data-name="Path 4141" d="M105.145,15.007c.443.2.816.628,1.3.617a.471.471,0,0,0,.348-.157,6.484,6.484,0,0,0-2.281-2.12,1.721,1.721,0,0,0-1.353-.257,1.482,1.482,0,0,0-.815,1.458,3.542,3.542,0,0,0,1.6.274,2.827,2.827,0,0,1,1.2.185" fill="#fff" opacity="0.3"/>
  <path id="Path_4142" data-name="Path 4142" d="M108.255,14.726c.721.882,2.171-1.672,2.967-1.981.53-.206,1.179-.2,1.567-.617a1.169,1.169,0,0,0,.262-.532,1.37,1.37,0,0,0-.557-.786,1.666,1.666,0,0,0-1.848.182,4.888,4.888,0,0,0-1.205,1.55l-1.229,2.119c.015.021.026.045.043.065" fill="#fff" opacity="0.3"/>
  <path id="Path_4143" data-name="Path 4143" d="M115.734,14.25c.466.009.872.308,1.331.068a.914.914,0,0,0,.406-.447,1.557,1.557,0,0,0-1.805-.554,3.1,3.1,0,0,0-1.114.7c.251.325.673.221,1.182.231" fill="#fff" opacity="0.3"/>
  <path id="Path_4144" data-name="Path 4144" d="M119.965,18.216a1.3,1.3,0,0,0-.073-.271,1.729,1.729,0,0,0-2.069-.785,3.738,3.738,0,0,0-1.48.933.4.4,0,0,0-.005.061.818.818,0,0,0,.784.672,3.817,3.817,0,0,0,1.111-.159,6.84,6.84,0,0,0,1.5-.315,1.327,1.327,0,0,0,.232-.136" fill="#fff" opacity="0.3"/>
  <path id="Path_4145" data-name="Path 4145" d="M57.118,9.1a4.02,4.02,0,0,0-1.687-2.611,3.194,3.194,0,0,0-2.587-.073,9.37,9.37,0,0,0-2.283,1.36c-1.735,1.269-3.607,2.769-3.915,4.9a4.908,4.908,0,0,0,.2,2.077,1.632,1.632,0,0,0,1.589-1.128,6.5,6.5,0,0,0,.048-1.4,1.243,1.243,0,0,1,.637-1.161c.335-.131.719-.012,1.068-.1,1.118-.284,1.041-2.3,2.174-2.51a1.971,1.971,0,0,1,1.451.617,3.751,3.751,0,0,0,1.584.809A1.625,1.625,0,0,0,57,9.322a1.26,1.26,0,0,0,.118-.22" fill="#e1e1d8"/>
  <path id="Path_4146" data-name="Path 4146" d="M80.46,14.746a6.289,6.289,0,0,0-.786-1.789c-1.143-1.936-2.759-3.808-4.957-4.283a3.11,3.11,0,0,0-1.56.014A3.856,3.856,0,0,0,71.22,10.4a1.521,1.521,0,0,0,.7.264,3.584,3.584,0,0,0,1.666-.332,2.175,2.175,0,0,1,1.669-.067c.455.229.725.722,1.149,1.006.5.335,1.173.353,1.631.746.674.579.568,1.638.481,2.53-.112,1.151,0,2.51.948,3.154a1.755,1.755,0,0,0,.619.264c.06-.168.12-.336.17-.505a5.421,5.421,0,0,0,.206-2.714" fill="#e1e1d8"/>
</svg>
