<svg id="pause" xmlns="http://www.w3.org/2000/svg" width="120" height="120" viewBox="0 0 120 120">
  <path id="Path_5476" data-name="Path 5476" d="M54.139,50.577c-.283,5.944-1.324,11.933-1.607,17.787-.32,6.588.794,13.283.713,19.893a24.371,24.371,0,0,1-1.15,8.234,11.43,11.43,0,0,1-5.773,6.49,15.06,15.06,0,0,1-8.6.85,11.419,11.419,0,0,1-4.218-1.4c-3.44-2.143-3.848-6.358-3.927-10.043q-.27-12.414-.167-24.837c.1-11.056.43-22.256,3.889-32.962a8.988,8.988,0,0,1,1.788-3.49c2.239-2.42,6.332-2.62,9.894-2.613a6.857,6.857,0,0,1,2.1.221,4.95,4.95,0,0,1,1.977,1.376c5.287,5.469,5.418,13.32,5.08,20.5" opacity="0.3"/>
  <path id="Path_5477" data-name="Path 5477" d="M51.031,45.439c-.242,5.944-1.135,11.933-1.378,17.787-.274,6.588.682,13.283.611,19.893a28.139,28.139,0,0,1-.985,8.234,11.037,11.037,0,0,1-4.948,6.49,11.2,11.2,0,0,1-7.369.85,8.872,8.872,0,0,1-3.615-1.4c-3.987-2.678-5.852-8.16-5.733-12.773.1-3.788,1.409-7.414,1.734-11.177.315-3.658.464-7.235.49-10.93.082-11.056.368-22.256,3.333-32.962a9.627,9.627,0,0,1,1.532-3.49c1.367-1.724,3.3-2.509,4.737-4.345A4.745,4.745,0,0,1,41.384,19.9c1.426-.517,2.967.431,4,1.538,5.679,6.063,5.959,16.245,5.645,24" fill="#bebebe"/>
  <path id="Path_5478" data-name="Path 5478" d="M48.544,39.321c-.242,5.944-1.135,11.933-1.378,17.787-.274,6.588.682,13.283.611,19.893a28.139,28.139,0,0,1-.985,8.234,11.037,11.037,0,0,1-4.948,6.49,11.2,11.2,0,0,1-7.369.85,8.872,8.872,0,0,1-3.615-1.4c-2.949-2.143-3.3-6.358-3.366-10.043q-.231-12.414-.143-24.837c.082-11.056.368-22.256,3.333-32.962a9.627,9.627,0,0,1,1.532-3.49c1.919-2.42,5.428-2.62,8.48-2.613a5.08,5.08,0,0,1,1.8.221,4.311,4.311,0,0,1,1.695,1.376c4.531,5.469,4.643,13.32,4.353,20.5" fill="#fff"/>
  <path id="Path_5479" data-name="Path 5479" d="M92.892,50.577c-.283,5.944-1.324,11.933-1.607,17.787-.32,6.588.794,13.283.713,19.893a24.371,24.371,0,0,1-1.15,8.234,11.43,11.43,0,0,1-5.773,6.49,15.06,15.06,0,0,1-8.6.85,11.419,11.419,0,0,1-4.218-1.4c-3.44-2.143-3.848-6.358-3.927-10.043q-.27-12.414-.167-24.837c.1-11.056.43-22.256,3.889-32.962a8.988,8.988,0,0,1,1.788-3.49c2.239-2.42,6.332-2.62,9.894-2.613a6.857,6.857,0,0,1,2.1.221,4.95,4.95,0,0,1,1.977,1.376c5.287,5.469,5.418,13.32,5.08,20.5" opacity="0.3"/>
  <path id="Path_5480" data-name="Path 5480" d="M89.785,45.439c-.242,5.944-1.135,11.933-1.378,17.787-.274,6.588.682,13.283.611,19.893a28.139,28.139,0,0,1-.985,8.234,11.037,11.037,0,0,1-4.948,6.49,11.2,11.2,0,0,1-7.369.85,8.872,8.872,0,0,1-3.615-1.4c-3.987-2.678-5.852-8.16-5.733-12.773.1-3.788,1.409-7.414,1.734-11.177.315-3.658.464-7.235.49-10.93.082-11.056.368-22.256,3.333-32.962a9.627,9.627,0,0,1,1.532-3.49c1.367-1.724,3.3-2.509,4.737-4.345A4.745,4.745,0,0,1,80.138,19.9c1.426-.517,2.967.431,4,1.538,5.679,6.063,5.959,16.245,5.645,24" fill="#bebebe"/>
  <path id="Path_5481" data-name="Path 5481" d="M87.3,39.321c-.242,5.944-1.135,11.933-1.378,17.787C85.646,63.7,86.6,70.391,86.531,77a28.139,28.139,0,0,1-.985,8.234,11.037,11.037,0,0,1-4.948,6.49,11.2,11.2,0,0,1-7.369.85,8.872,8.872,0,0,1-3.615-1.4c-2.949-2.143-3.3-6.358-3.366-10.043q-.231-12.414-.143-24.837c.082-11.056.368-22.256,3.333-32.962a9.627,9.627,0,0,1,1.532-3.49c1.919-2.42,5.428-2.62,8.48-2.613a5.08,5.08,0,0,1,1.8.221,4.311,4.311,0,0,1,1.695,1.376c4.531,5.469,4.643,13.32,4.353,20.5" fill="#fff"/>
  <rect id="frame" width="120" height="120" fill="none"/>
</svg>
