<svg id="Icon_-_Pinterest" data-name="Icon - Pinterest" xmlns="http://www.w3.org/2000/svg" width="120" height="120" viewBox="0 0 120 120">
  <path id="Path_1771" data-name="Path 1771" d="M35.029,0A35.04,35.04,0,0,0,22.257,67.665,33.724,33.724,0,0,1,22.372,57.6c.634-2.739,4.094-17.413,4.094-17.413A12.76,12.76,0,0,1,25.428,35c0-4.872,2.825-8.5,6.343-8.5,3,0,4.44,2.249,4.44,4.93,0,3-1.9,7.5-2.912,11.676a5.1,5.1,0,0,0,5.189,6.343c6.227,0,11.013-6.573,11.013-16.03,0-8.39-6.026-14.242-14.646-14.242-9.975,0-15.828,7.467-15.828,15.194a13.673,13.673,0,0,0,2.595,7.986,1.043,1.043,0,0,1,.231,1.009c-.259,1.1-.865,3.488-.98,3.979-.144.634-.519.778-1.182.461-4.382-2.047-7.121-8.418-7.121-13.579,0-11.042,8.015-21.19,23.151-21.19,12.138,0,21.594,8.649,21.594,20.239,0,12.08-7.611,21.8-18.163,21.8-3.546,0-6.89-1.845-8.015-4.036,0,0-1.759,6.689-2.191,8.332a38.163,38.163,0,0,1-4.353,9.2A35.06,35.06,0,1,0,35.029,0Z" transform="translate(25 32.943)" fill="rgba(0,0,0,0.3)"/>
  <path id="Path_1769" data-name="Path 1769" d="M35.029,0A35.04,35.04,0,0,0,22.257,67.665,33.724,33.724,0,0,1,22.372,57.6c.634-2.739,4.094-17.413,4.094-17.413A12.76,12.76,0,0,1,25.428,35c0-4.872,2.825-8.5,6.343-8.5,3,0,4.44,2.249,4.44,4.93,0,3-1.9,7.5-2.912,11.676a5.1,5.1,0,0,0,5.189,6.343c6.227,0,11.013-6.573,11.013-16.03,0-8.39-6.026-14.242-14.646-14.242-9.975,0-15.828,7.467-15.828,15.194a13.673,13.673,0,0,0,2.595,7.986,1.043,1.043,0,0,1,.231,1.009c-.259,1.1-.865,3.488-.98,3.979-.144.634-.519.778-1.182.461-4.382-2.047-7.121-8.418-7.121-13.579,0-11.042,8.015-21.19,23.151-21.19,12.138,0,21.594,8.649,21.594,20.239,0,12.08-7.611,21.8-18.163,21.8-3.546,0-6.89-1.845-8.015-4.036,0,0-1.759,6.689-2.191,8.332a38.163,38.163,0,0,1-4.353,9.2A35.06,35.06,0,1,0,35.029,0Z" transform="translate(25 26.943)" fill="#afafaf"/>
  <path id="Path_1770" data-name="Path 1770" d="M35.029,0A35.04,35.04,0,0,0,22.257,67.665,33.724,33.724,0,0,1,22.372,57.6c.634-2.739,4.094-17.413,4.094-17.413A12.76,12.76,0,0,1,25.428,35c0-4.872,2.825-8.5,6.343-8.5,3,0,4.44,2.249,4.44,4.93,0,3-1.9,7.5-2.912,11.676a5.1,5.1,0,0,0,5.189,6.343c6.227,0,11.013-6.573,11.013-16.03,0-8.39-6.026-14.242-14.646-14.242-9.975,0-15.828,7.467-15.828,15.194a13.673,13.673,0,0,0,2.595,7.986,1.043,1.043,0,0,1,.231,1.009c-.259,1.1-.865,3.488-.98,3.979-.144.634-.519.778-1.182.461-4.382-2.047-7.121-8.418-7.121-13.579,0-11.042,8.015-21.19,23.151-21.19,12.138,0,21.594,8.649,21.594,20.239,0,12.08-7.611,21.8-18.163,21.8-3.546,0-6.89-1.845-8.015-4.036,0,0-1.759,6.689-2.191,8.332a38.163,38.163,0,0,1-4.353,9.2A35.06,35.06,0,1,0,35.029,0Z" transform="translate(25 20.943)" fill="#fff"/>
  <rect id="frame" width="120" height="120" fill="none"/>
</svg>
