<svg id="playscript" xmlns="http://www.w3.org/2000/svg" xmlns:xlink="http://www.w3.org/1999/xlink" width="70" height="70" viewBox="0 0 70 70">
  <defs>
    <clipPath id="clip-path">
      <rect id="Rectangle_3329" data-name="Rectangle 3329" width="70" height="70" fill="none"/>
    </clipPath>
    <clipPath id="clip-path-3">
      <rect id="Rectangle_3324" data-name="Rectangle 3324" width="69.4" height="51.566" transform="translate(0.241 12.184)" fill="none"/>
    </clipPath>
    <clipPath id="clip-path-4">
      <rect id="Rectangle_3325" data-name="Rectangle 3325" width="42.268" height="47.96" transform="translate(0.463 8.78)" fill="none"/>
    </clipPath>
    <clipPath id="clip-path-5">
      <rect id="Rectangle_3326" data-name="Rectangle 3326" width="13.191" height="7.361" transform="translate(21.206 41.213)" fill="none"/>
    </clipPath>
    <clipPath id="clip-path-6">
      <rect id="Rectangle_3327" data-name="Rectangle 3327" width="6.634" height="4.017" transform="translate(22.285 36.329)" fill="none"/>
    </clipPath>
  </defs>
  <g id="Group_8412" data-name="Group 8412">
    <g id="Group_8411" data-name="Group 8411" clip-path="url(#clip-path)">
      <g id="Group_8410" data-name="Group 8410">
        <g id="Group_8409" data-name="Group 8409" clip-path="url(#clip-path)">
          <path id="Path_5898" data-name="Path 5898" d="M7.772,43.8c-.131-.205-.259-.41-.385-.617.126.207.254.412.385.617" fill="#6d4b94"/>
          <path id="Path_5899" data-name="Path 5899" d="M8.241,44.513c-.137-.2-.269-.406-.4-.611.132.2.264.409.4.611" fill="#6d4b94"/>
          <path id="Path_5900" data-name="Path 5900" d="M8.69,45.164c-.144-.205-.287-.41-.427-.616.14.206.283.411.427.616" fill="#6d4b94"/>
          <path id="Path_5901" data-name="Path 5901" d="M7.31,43.055q-.19-.315-.374-.631.183.316.374.631" fill="#6d4b94"/>
          <path id="Path_5902" data-name="Path 5902" d="M31.044,56.74c-.251,0-.5,0-.747-.007.247,0,.5.008.747.007" fill="#6d4b94"/>
          <path id="Path_5903" data-name="Path 5903" d="M5.717,40.156c-.1-.209-.207-.419-.307-.629.1.21.2.42.307.629" fill="#6d4b94"/>
          <path id="Path_5904" data-name="Path 5904" d="M5.38,39.463c-.1-.218-.2-.436-.305-.655.1.219.2.437.305.655" fill="#6d4b94"/>
          <path id="Path_5905" data-name="Path 5905" d="M6.091,40.887q-.167-.321-.329-.642.162.321.329.642" fill="#6d4b94"/>
          <path id="Path_5906" data-name="Path 5906" d="M5.019,38.685c-.1-.215-.193-.43-.286-.645.093.215.189.43.286.645" fill="#6d4b94"/>
          <path id="Path_5907" data-name="Path 5907" d="M6.9,42.356c-.118-.2-.233-.409-.347-.614.114.2.229.41.347.614" fill="#6d4b94"/>
          <path id="Path_5908" data-name="Path 5908" d="M6.5,41.652q-.176-.318-.343-.638.168.32.343.638" fill="#6d4b94"/>
          <path id="Path_5909" data-name="Path 5909" d="M3.8,35.722c-.083-.222-.166-.444-.245-.666.079.222.162.444.245.666" fill="#6d4b94"/>
          <path id="Path_5910" data-name="Path 5910" d="M3.549,35.05q-.12-.334-.234-.666.114.332.234.666" fill="#6d4b94"/>
          <path id="Path_5911" data-name="Path 5911" d="M4.4,37.258c-.092-.223-.182-.447-.271-.669.089.222.179.446.271.669" fill="#6d4b94"/>
          <path id="Path_5912" data-name="Path 5912" d="M4.687,37.934c-.095-.219-.187-.438-.278-.657.091.219.183.438.278.657" fill="#6d4b94"/>
          <path id="Path_5913" data-name="Path 5913" d="M4.086,36.478q-.128-.324-.249-.646.122.323.249.646" fill="#6d4b94"/>
          <path id="Path_5914" data-name="Path 5914" d="M30.017,56.725h0" fill="#6d4b94"/>
          <path id="Path_5915" data-name="Path 5915" d="M29.558,56.709l.283.011-.086,0-.2-.007" fill="#6d4b94"/>
          <path id="Path_5916" data-name="Path 5916" d="M30.063,56.727l.234.007c.248,0,.5.007.747.007-.342,0-.678-.006-1.013-.015h.032" fill="#4c4893"/>
          <path id="Path_5917" data-name="Path 5917" d="M31.053,56.735l-.009.005.009-.005" fill="#4c4893"/>
          <g id="Group_8399" data-name="Group 8399" opacity="0.3">
            <g id="Group_8398" data-name="Group 8398">
              <g id="Group_8397" data-name="Group 8397" clip-path="url(#clip-path-3)">
                <path id="Path_5918" data-name="Path 5918" d="M67.632,38.408q.154-.489.3-1l.007-.025q.144-.5.278-1.017l.01-.038q.132-.509.251-1.034c0-.02.01-.038.014-.058q.118-.516.224-1.048c0-.028.011-.054.017-.082.07-.351.135-.71.2-1.072.005-.032.011-.062.017-.094.061-.359.117-.725.171-1.094,0-.038.012-.074.017-.112q.078-.547.143-1.114l.018-.13q.063-.558.115-1.133c0-.05.011-.1.015-.151.034-.379.062-.765.088-1.154,0-.057.009-.112.013-.169.024-.386.043-.779.06-1.175,0-.064.007-.126.009-.19.015-.393.024-.792.031-1.2,0-.071.005-.14.006-.211,0-.4,0-.811,0-1.223,0-.075,0-.148,0-.224,0-.409-.014-.825-.026-1.244,0-.083,0-.163-.006-.247-.014-.416-.034-.84-.056-1.266-.005-.09-.007-.177-.012-.267-.024-.423-.054-.854-.086-1.287-.007-.1-.013-.192-.02-.29-.034-.432-.075-.872-.117-1.315-.01-.1-.016-.2-.028-.306-.043-.437-.094-.882-.146-1.329-.013-.114-.024-.224-.038-.338-.054-.445-.115-.9-.177-1.353-.016-.12-.03-.238-.048-.358-.064-.454-.136-.916-.209-1.379-.018-.116-.033-.228-.052-.344v.01c-.01-.059-.017-.115-.027-.173l-.008,0-.012,0-.019.005-.02.006-.038.009-.054.014-.039.01-.056.014-.039.01-.071.018-.031.007q-.143.036-.336.081l-.02.005-.14.033-.013,0a84.981,84.981,0,0,1-22.981,1.828,71.707,71.707,0,0,1-13.545-2.048s-.216.866-.479,2.359h0l0,.016c-.014.077-.028.159-.042.239-.007.048-.015.093-.024.142-.068.406-.139.851-.21,1.332l0,.031c-.022.156-.046.315-.068.477l0,.018c-.046.328-.089.671-.132,1.026l-.006.051c-.021.172-.041.347-.061.525l-.006.047c-.011.109-.022.218-.035.329A86.7,86.7,0,0,1,13.808,24.5,71.622,71.622,0,0,1,.241,26.457s.044.893.223,2.4v0a.532.532,0,0,0,.006.056c.013.109.026.221.041.336l0,.017c.05.406.112.85.183,1.328l0,.028c.024.157.047.316.073.48l0,.013c.052.328.109.67.172,1.023l.008.05q.047.257.094.522c0,.014.006.029.009.043q.1.542.215,1.115l.012.056c.039.186.078.374.119.565,0,.021.008.041.014.062q.124.586.269,1.2c0,.02.01.039.013.059.047.2.1.4.145.6.007.029.014.057.022.086.05.2.1.408.155.615,0,.011.007.022.009.033.054.205.109.413.166.622,0,.017.008.034.014.052.056.206.114.415.173.624.01.034.02.067.029.1q.09.313.184.631l.02.067c.064.21.127.421.195.634a.324.324,0,0,0,.013.041q.1.323.207.646c.012.036.023.072.034.108.07.213.143.427.216.641.011.031.02.062.031.093.077.221.154.443.235.666v.006q.122.331.247.665c.013.037.027.074.041.11q.12.323.249.647c.015.036.029.073.044.11.088.223.177.447.27.67l.008.019c.091.219.183.438.279.657l.045.1c.093.215.189.43.286.645.018.042.037.082.056.124.1.218.2.436.305.654.009.022.021.043.03.064q.152.315.307.629l.046.09c.106.215.216.429.327.642.022.042.044.084.068.126.112.214.225.427.342.639.016.03.034.06.05.09q.171.308.346.614c.014.022.027.045.041.068q.182.317.374.631c.024.042.05.084.076.126.127.206.254.412.384.616l.069.1c.132.205.264.409.4.611l.023.034c.139.207.282.413.426.617l.082.117c.143.2.285.4.431.59l.084.113q.229.3.464.6l.018.021c.154.195.312.387.471.579l.085.1q.237.282.481.559l.1.112c.168.188.336.373.509.557l.051.055.211.218h0c.064.067.131.133.195.2.035.034.067.069.1.1s.054.057.082.085l.031.029c.161.16.323.319.488.476l.018.016c.037.036.074.071.113.106.086.082.174.162.262.243l.045.041c.082.075.166.15.249.224l.082.071.066.059.058.05c.141.122.284.243.426.363l.005,0c.023.019.045.039.07.058.132.11.267.216.4.323l.137.109.056.045.123.1.066.048.008.006c.176.135.354.269.536.4l.076.054c.018.013.035.025.054.037.137.1.273.194.414.289l.094.064.092.063.046.03c.1.064.193.127.291.19l.071.047c.1.064.2.127.3.189l.13.081.02.012c.2.121.4.241.6.358l.022.012.022.012.13.073c.116.065.231.129.349.193l.116.061c.083.044.166.09.25.133l.015.008.159.08.138.07c.141.071.285.141.429.209l0,0,.131.062c.169.08.341.158.514.235l.036.016.179.077c.049.022.1.042.148.063l.267.112.045.018q.228.093.457.181l.069.026h0l.155.058c.146.054.291.107.438.159l.173.06.115.04c.108.036.218.072.329.107l.178.058.293.089.163.049.04.012.119.035c.212.061.423.119.638.175l.035.009.1.026c.164.041.327.082.493.12l.195.044.132.03.107.024.217.045.224.046c.144.028.289.056.434.082l.121.023.118.02c.163.028.326.054.492.08l.183.028.153.022.145.02c.131.018.26.036.392.052l.056.006c.15.019.3.036.458.052l.069.008.111.011.225.02c.16.015.322.029.485.041l.189.014.131.008c.137.009.273.017.411.024l.265.013.2.007.085,0,.176.005h.016c.334.01.67.016,1.011.015l.011-.005.044-.026c.057-.033.159-.093.3-.181l0,0,.147-.095.013-.008.161-.108.025-.016c.056-.037.114-.077.175-.119l.023-.017.194-.137.043-.031c.063-.046.128-.092.194-.142.02-.013.039-.028.057-.042.066-.049.131-.1.2-.151l.069-.052.206-.161.076-.061c.07-.056.14-.112.212-.172l.084-.07c.073-.06.145-.12.22-.184l.092-.08c.075-.063.149-.127.223-.194.034-.029.068-.06.1-.091.075-.066.148-.133.224-.2.038-.034.074-.069.111-.1.075-.07.151-.14.228-.213l.117-.113c.077-.074.153-.148.229-.224l.125-.125c.077-.077.153-.154.23-.234l.131-.137c.076-.08.153-.16.229-.243.046-.049.091-.1.136-.149.076-.083.152-.168.229-.254.047-.052.094-.106.141-.16l.228-.264.145-.173.226-.274.147-.185c.075-.094.151-.189.225-.286.051-.065.1-.13.15-.2.074-.1.147-.2.221-.3.051-.069.1-.14.153-.21.072-.1.145-.2.216-.306.051-.073.1-.148.154-.223.071-.1.143-.209.213-.316l.154-.237c.069-.107.138-.216.207-.326.052-.083.1-.166.154-.251.068-.11.135-.222.2-.335.052-.088.1-.177.155-.266.066-.114.129-.228.193-.344.053-.093.1-.187.154-.282.063-.116.125-.233.186-.352.051-.1.1-.2.152-.3.061-.119.119-.239.179-.361.05-.1.1-.208.149-.314.057-.121.113-.245.17-.369s.1-.219.146-.331l.16-.376c.026-.067.056-.132.084-.2.035.028.07.057.107.085l.062.047.138.1q.18.136.366.272c.05.037.1.074.151.11.033.024.066.049.1.072.092.066.186.131.278.195.054.037.106.074.16.11.083.057.166.113.251.168.048.033.1.065.145.1l.029.019.11.072c.183.119.369.235.557.35l.033.019c.031.02.064.038.1.058q.213.129.432.255l.179.1c.036.021.075.042.111.064l.1.055.192.1.2.111c.129.068.257.135.388.2.038.019.074.039.11.058l.11.054c.146.073.293.145.444.217l.169.082.139.064.137.062c.118.054.236.109.356.162.019.008.04.016.058.025.138.06.277.12.418.179l.064.028.1.042.212.086.449.178.177.068.125.046c.128.048.256.1.385.141l.252.09.268.092.168.056.041.014.224.074c.235.076.472.151.713.223l.014,0,.009,0,.046-.011h0c1.03-.244,12.867-3.351,17.677-18.357l0-.007"/>
              </g>
            </g>
          </g>
          <path id="Path_5919" data-name="Path 5919" d="M52.6,20.468c.03-.04.061-.077.091-.116-.03.039-.061.076-.091.116" fill="#fff"/>
          <path id="Path_5920" data-name="Path 5920" d="M52.4,20.787l-.02-.014.02.014" fill="#fff"/>
          <path id="Path_5921" data-name="Path 5921" d="M52.557,20.9c-.039-.025-.072-.048-.1-.066l.1.066" fill="#fff"/>
          <path id="Path_5922" data-name="Path 5922" d="M52.833,20.182c.038-.047.077-.092.115-.138-.038.046-.077.091-.115.138" fill="#fff"/>
          <path id="Path_5923" data-name="Path 5923" d="M52.458,20.83l-.06-.042.06.042" fill="#fff"/>
          <path id="Path_5924" data-name="Path 5924" d="M53.727,19.209l.172-.161-.172.161" fill="#fff"/>
          <path id="Path_5925" data-name="Path 5925" d="M53.938,19.012c.064-.058.128-.115.192-.17A20.563,20.563,0,0,1,55.9,21.3a10.788,10.788,0,0,1,.6,1.164q.223.036.453.06a18.257,18.257,0,0,0-2.511-3.94q-.252.2-.5.424" fill="#fff"/>
          <path id="Path_5926" data-name="Path 5926" d="M52.693,20.984l-.134-.086.134.086" fill="#fff"/>
          <path id="Path_5927" data-name="Path 5927" d="M53.508,19.427c.052-.053.1-.106.157-.157-.053.051-.1.1-.157.157" fill="#fff"/>
          <path id="Path_5928" data-name="Path 5928" d="M53.06,19.913c.043-.05.087-.1.13-.147-.043.048-.087.1-.13.147" fill="#fff"/>
          <path id="Path_5929" data-name="Path 5929" d="M53.286,19.661l.143-.153-.143.153" fill="#fff"/>
          <path id="Path_5930" data-name="Path 5930" d="M56.495,22.467c-.142-.023-.283-.05-.421-.08.138.03.279.057.421.08" fill="#fff"/>
          <path id="Path_5931" data-name="Path 5931" d="M54.507,21.9c-.114-.045-.222-.091-.329-.137.107.046.215.092.329.137" fill="#fff"/>
          <path id="Path_5932" data-name="Path 5932" d="M54.867,22.041c-.119-.043-.236-.087-.349-.132.113.045.23.089.349.132" fill="#fff"/>
          <path id="Path_5933" data-name="Path 5933" d="M55.248,22.169c-.126-.04-.249-.081-.368-.123.12.042.242.083.368.123" fill="#fff"/>
          <path id="Path_5934" data-name="Path 5934" d="M55.648,22.285c-.132-.035-.261-.073-.387-.112.126.039.255.077.387.112" fill="#fff"/>
          <path id="Path_5935" data-name="Path 5935" d="M56.064,22.385c-.137-.03-.272-.062-.4-.1.132.035.267.067.4.1" fill="#fff"/>
          <path id="Path_5936" data-name="Path 5936" d="M52.863,21.089l-.168-.1.168.1" fill="#fff"/>
          <path id="Path_5937" data-name="Path 5937" d="M53.066,21.208c-.072-.041-.138-.08-.2-.117.061.037.127.076.2.117" fill="#fff"/>
          <path id="Path_5938" data-name="Path 5938" d="M54.167,21.763c-.1-.046-.207-.093-.305-.139.1.046.2.093.305.139" fill="#fff"/>
          <path id="Path_5939" data-name="Path 5939" d="M53.3,21.338c-.081-.044-.158-.087-.23-.128.072.041.149.084.23.128" fill="#fff"/>
          <path id="Path_5940" data-name="Path 5940" d="M53.562,21.476c-.09-.046-.175-.091-.256-.135.081.044.166.089.256.135" fill="#fff"/>
          <path id="Path_5941" data-name="Path 5941" d="M53.852,21.619c-.1-.046-.192-.092-.281-.138.089.046.183.092.281.138" fill="#fff"/>
          <path id="Path_5942" data-name="Path 5942" d="M68.552,5.185l.019-.005-.019.005" fill="#f6b500"/>
          <path id="Path_5943" data-name="Path 5943" d="M68.494,5.2l.038-.01-.038.01" fill="#f6b500"/>
          <path id="Path_5944" data-name="Path 5944" d="M68.4,5.224l.039-.01-.039.01" fill="#f6b500"/>
          <path id="Path_5945" data-name="Path 5945" d="M30.139,11.389c.02-.178.04-.353.061-.525-.021.172-.041.347-.061.525" fill="#f6b500"/>
          <path id="Path_5946" data-name="Path 5946" d="M43.974,47.32l.191.1-.1-.056c-.029-.017-.06-.032-.089-.048" fill="#f6b500"/>
          <path id="Path_5947" data-name="Path 5947" d="M30.34,9.77c.022-.163.045-.322.068-.477-.023.155-.046.314-.068.477" fill="#f6b500"/>
          <path id="Path_5948" data-name="Path 5948" d="M30.206,10.813c.043-.355.087-.7.132-1.026-.045.328-.089.671-.132,1.026" fill="#f6b500"/>
          <path id="Path_5949" data-name="Path 5949" d="M67.7,5.394l.013,0-.013,0" fill="#f6b500"/>
          <path id="Path_5950" data-name="Path 5950" d="M48.9,49.467l.042.014-.029-.01-.013,0" fill="#f6b500"/>
          <path id="Path_5951" data-name="Path 5951" d="M30.421,11.613c.908-.429,1.718-.833,2.422-1.2a2.658,2.658,0,0,1,.835-.934,2.746,2.746,0,0,1,1.5-.327l.1-.056.009-.005.122-.07.026-.015.291-.171.03-.017.062-.037.036-.021.048-.029.032-.02.054-.032.03-.019.013-.007.025-.016.007,0,.007-.005c.1.2.2.409.3.613,1.606.211,3.419.736,4.407.868,3.726.5,10.311,1.3,8.832,6.644C48.333,21.33,44.442,24.747,42.48,29a39.566,39.566,0,0,1,.247,4.9A11.931,11.931,0,0,0,49.7,35.942a13.765,13.765,0,0,0,3.495-.442,45.818,45.818,0,0,0,3.928-7.248,7.016,7.016,0,0,0-.169-5.723c-.153-.016-.3-.037-.452-.061h-.005c-.143-.023-.283-.05-.421-.08l-.011,0c-.137-.03-.272-.062-.4-.1l-.011,0c-.132-.035-.261-.072-.387-.112l-.013,0c-.126-.039-.249-.08-.368-.123l-.013,0c-.12-.043-.236-.087-.349-.132l-.012-.005c-.113-.045-.222-.09-.328-.137l-.011,0c-.1-.047-.207-.093-.305-.139l-.011-.005c-.1-.047-.191-.093-.281-.139l-.008,0c-.09-.046-.176-.091-.256-.134l-.007,0c-.081-.044-.157-.087-.229-.128l0,0c-.072-.041-.138-.08-.2-.117l0,0c-.062-.037-.118-.072-.168-.1h0c-.051-.032-.1-.061-.134-.087h0c-.039-.025-.072-.048-.1-.066h0l-.06-.042h0l-.021-.014c.077-.105.153-.206.229-.305.03-.039.061-.077.092-.115.045-.058.09-.115.136-.171s.077-.092.115-.138l.112-.131c.043-.05.087-.1.13-.147s.063-.071.1-.105c.048-.052.1-.1.144-.153l.079-.081c.052-.054.1-.106.157-.157.02-.021.041-.041.062-.061.057-.055.114-.109.171-.161l.04-.036q.252-.228.5-.424c-.4-.5-.81-1-1.207-1.475-2.781-3.345-5.634-6.637-8.526-9.891h0A71.628,71.628,0,0,1,31.169,5.174s-.387,1.552-.757,4.087c.094-.643.189-1.222.278-1.729-.119,1.247-.216,2.619-.269,4.081M53.163,31.552,49.7,30.733l-3.465.819L49.7,21.195Z" fill="#f6b500"/>
          <path id="Path_5952" data-name="Path 5952" d="M68.307,5.247l.039-.01-.039.01" fill="#f6b500"/>
          <path id="Path_5953" data-name="Path 5953" d="M68.205,5.273l.031-.007-.031.007" fill="#f6b500"/>
          <path id="Path_5954" data-name="Path 5954" d="M30.134,11.437c-.012.109-.024.218-.036.329h0c.012-.11.023-.221.035-.329" fill="#f6b500"/>
          <path id="Path_5955" data-name="Path 5955" d="M68.583,5.176l.009,0-.009,0" fill="#f6b500"/>
          <path id="Path_5956" data-name="Path 5956" d="M42.328,46.327l.028.02-.022-.015-.006-.005" fill="#f6b500"/>
          <path id="Path_5957" data-name="Path 5957" d="M45.593,48.148l.139.064c-.015-.006-.028-.013-.042-.02l-.1-.044" fill="#f6b500"/>
          <path id="Path_5958" data-name="Path 5958" d="M48.884,41.067a20.979,20.979,0,0,0,2.051-2.323,7.515,7.515,0,0,1-1.236.1,7.393,7.393,0,0,1-6.972-4.936,32.138,32.138,0,0,1-.945,7.444,9.5,9.5,0,0,0,3.731,1.256,4.491,4.491,0,0,0,3.371-1.544" fill="#f6b500"/>
          <path id="Path_5959" data-name="Path 5959" d="M44.372,47.535c.128.068.257.135.387.2l-.014-.008c-.125-.064-.25-.128-.373-.194" fill="#f6b500"/>
          <path id="Path_5960" data-name="Path 5960" d="M41.931,46.063c.083.057.167.113.251.169-.02-.014-.04-.029-.061-.042l-.19-.127" fill="#f6b500"/>
          <path id="Path_5961" data-name="Path 5961" d="M43.763,47.2l.112.064c-.015-.009-.03-.019-.046-.027l-.066-.037" fill="#f6b500"/>
          <path id="Path_5962" data-name="Path 5962" d="M43.152,46.845q.214.129.433.255c-.136-.078-.27-.158-.4-.238l-.029-.017" fill="#f6b500"/>
          <path id="Path_5963" data-name="Path 5963" d="M45.868,48.274c.118.054.236.109.356.162-.1-.045-.2-.092-.3-.138l-.055-.024" fill="#f6b500"/>
          <path id="Path_5964" data-name="Path 5964" d="M47.83,49.088c.127.048.256.095.385.141-.108-.038-.215-.079-.323-.118-.02-.007-.042-.014-.062-.023" fill="#f6b500"/>
          <path id="Path_5965" data-name="Path 5965" d="M48.468,49.319l.267.092-.081-.029-.186-.063" fill="#f6b500"/>
          <path id="Path_5966" data-name="Path 5966" d="M41.493,45.759c.092.066.185.13.279.195l-.184-.129c-.031-.023-.064-.044-.1-.066" fill="#f6b500"/>
          <path id="Path_5967" data-name="Path 5967" d="M46.764,48.668l.1.042-.047-.02-.055-.022" fill="#f6b500"/>
          <path id="Path_5968" data-name="Path 5968" d="M46.282,48.461c.138.061.277.12.417.179l-.1-.043-.32-.136" fill="#f6b500"/>
          <path id="Path_5969" data-name="Path 5969" d="M67.849,5.358l.019,0-.019,0" fill="#f6b500"/>
          <path id="Path_5970" data-name="Path 5970" d="M47.528,48.974c-.151-.058-.3-.118-.449-.178.149.06.3.12.449.178" fill="#f6b500"/>
          <path id="Path_5971" data-name="Path 5971" d="M45.422,48.066c-.149-.072-.3-.144-.444-.217.146.073.295.145.444.217" fill="#f6b500"/>
          <path id="Path_5972" data-name="Path 5972" d="M43.024,46.769q-.282-.173-.558-.35.276.177.558.35" fill="#f6b500"/>
          <path id="Path_5973" data-name="Path 5973" d="M49.881,49.778q-.36-.108-.713-.223.353.115.713.223" fill="#f6b500"/>
          <path id="Path_5974" data-name="Path 5974" d="M41.242,45.577q-.185-.135-.366-.273.182.138.366.273" fill="#f6b500"/>
          <path id="Path_5975" data-name="Path 5975" d="M40.568,45.067l.108.085c-.037-.028-.071-.058-.108-.086h0" fill="#f6b500"/>
          <path id="Path_5976" data-name="Path 5976" d="M63.482,19.071s-4.495-4.022-9.04-.482a18.257,18.257,0,0,1,2.511,3.94c2.118.221,4.588-.408,6.529-3.458" fill="#fff"/>
          <path id="Path_5977" data-name="Path 5977" d="M54.13,18.842c-.064.055-.128.113-.192.171l-.039.035c-.058.053-.115.106-.172.161l-.062.061c-.053.05-.1.1-.157.157-.026.026-.053.053-.079.081l-.144.153-.1.1c-.043.049-.087.1-.13.148l-.112.132c-.038.045-.077.09-.115.136l-.136.172-.092.116c-.076.1-.152.2-.228.3l.02.016h0l.06.041h0l.1.065h0l.134.087,0,0c.05.032.107.066.168.1l0,0c.061.037.128.076.2.117l0,0c.072.041.148.085.23.129l.006,0c.081.045.166.09.256.136l.008,0c.09.047.184.093.281.138l.011.006c.1.046.2.092.305.139l.011,0c.106.045.215.092.328.136l.012.006c.113.043.229.089.349.131l.013,0c.119.042.242.084.368.122l.013.005c.126.039.255.077.387.112l.011,0c.133.035.267.067.4.1l.011,0c.138.029.278.056.421.079l.005,0a11.082,11.082,0,0,0-.6-1.165,20.643,20.643,0,0,0-1.768-2.462" fill="#fff"/>
          <path id="Path_5978" data-name="Path 5978" d="M47.02,20.773c-2.505-3.437-5.208-3.926-7.32-3.524.646,1.844,1.175,3.613,1.6,5.31a9.985,9.985,0,0,0,5.72-1.786" fill="#fff"/>
          <path id="Path_5979" data-name="Path 5979" d="M53.236,17.113c.4.478.806.97,1.206,1.475,4.545-3.54,9.04.482,9.04.482-1.941,3.051-4.411,3.68-6.529,3.459a7.016,7.016,0,0,1,.169,5.723A45.818,45.818,0,0,1,53.194,35.5a10.341,10.341,0,0,0,3.482-1.6,7.4,7.4,0,0,1-5.741,4.848,20.979,20.979,0,0,1-2.051,2.323,4.488,4.488,0,0,1-3.371,1.544,9.5,9.5,0,0,1-3.731-1.255c-.091.362-.189.717-.291,1.065A26.579,26.579,0,0,0,49.875,46.8S72.259,41.744,68.618,5.337c6.132,37.939-17.2,44.078-18.665,44.425,1.467-.347,24.865-6.5,18.639-44.588l-.008,0-.012,0-.019.005-.021.005L68.5,5.2l-.054.013-.039.011-.056.013-.039.01-.071.018-.031.008-.336.08-.02,0-.14.033-.013,0A84.994,84.994,0,0,1,44.713,7.222h0c2.892,3.254,5.745,6.546,8.526,9.891" fill="#f2a000"/>
          <path id="Path_5980" data-name="Path 5980" d="M42.334,46.331l.022.015.11.072c.184.119.37.235.558.35a.337.337,0,0,0,.032.019c-.245-.149-.485-.3-.722-.456" fill="#f2a000"/>
          <path id="Path_5981" data-name="Path 5981" d="M43.181,46.862c.134.08.268.16.4.239l.178.1.066.037q-.328-.184-.648-.376" fill="#f2a000"/>
          <path id="Path_5982" data-name="Path 5982" d="M44.063,47.368l.1.057.207.111c.123.065.247.13.372.194q-.345-.177-.681-.362" fill="#f2a000"/>
          <path id="Path_5983" data-name="Path 5983" d="M40.738,45.2l.138.1q.182.138.366.273l.151.11c-.222-.161-.441-.323-.655-.488" fill="#f2a000"/>
          <path id="Path_5984" data-name="Path 5984" d="M49.95,49.763l-.045.01.045-.01" fill="#f2a000"/>
          <path id="Path_5985" data-name="Path 5985" d="M44.87,47.795l.108.054q.22.11.444.217l.171.082.1.044q-.417-.194-.82-.4" fill="#f2a000"/>
          <path id="Path_5986" data-name="Path 5986" d="M41.588,45.824c.061.043.122.087.183.129l.159.11c.063.043.127.084.191.127q-.27-.181-.533-.366" fill="#f2a000"/>
          <path id="Path_5987" data-name="Path 5987" d="M45.923,48.3c.1.046.2.093.3.138.019.008.04.016.058.025.1.046.213.091.32.136q-.345-.146-.679-.3" fill="#f2a000"/>
          <path id="Path_5988" data-name="Path 5988" d="M48.945,49.481l.223.074q.353.115.713.223-.49-.147-.965-.307l.029.01" fill="#f2a000"/>
          <path id="Path_5989" data-name="Path 5989" d="M49.894,49.775l-.013,0,.013,0" fill="#f2a000"/>
          <path id="Path_5990" data-name="Path 5990" d="M47.893,49.111c.107.04.213.08.322.119l.252.089.186.063q-.385-.132-.76-.271" fill="#f2a000"/>
          <path id="Path_5991" data-name="Path 5991" d="M46.819,48.69l.048.02.213.086c.148.06.3.12.448.178l.178.068q-.452-.169-.887-.352" fill="#f2a000"/>
          <path id="Path_5992" data-name="Path 5992" d="M30.422,11.613c.053-1.462.15-2.834.268-4.081-.089.507-.184,1.086-.277,1.729l0,.031c-.023.156-.045.315-.068.478l0,.017c-.045.328-.089.671-.132,1.026l-.006.051c-.021.172-.041.347-.061.525,0,.016,0,.032,0,.047-.012.108-.023.219-.035.329l.323-.152" fill="#d98000"/>
          <path id="Path_5993" data-name="Path 5993" d="M49.95,49.763h0c1.464-.347,24.8-6.487,18.664-44.426C72.259,41.744,49.875,46.8,49.875,46.8a26.605,26.605,0,0,1-8.385-4.378,27.648,27.648,0,0,1-.921,2.645l.107.087.062.047c.214.165.433.327.655.487l.1.072.1.066c.176.123.353.245.533.365l.061.042.146.1.006,0c.237.155.476.307.722.456.031.02.064.038.1.058l.029.016q.32.192.648.376l.047.028.1.055.089.047q.336.185.682.362l.014.008c.037.019.073.039.111.057q.4.2.82.4l.041.02.137.062.055.024c.223.1.45.2.679.3l.1.043.065.027.055.022q.437.182.887.353l.124.046.063.022c.25.093.5.184.761.272l.08.029.168.056.014,0c.317.106.637.209.965.307l.013,0,.011,0,.045-.01" fill="#d98000"/>
          <path id="Path_5994" data-name="Path 5994" d="M49.7,38.847A7.39,7.39,0,0,0,56.675,33.9a10.321,10.321,0,0,1-3.482,1.6,13.72,13.72,0,0,1-3.495.442A11.93,11.93,0,0,1,42.727,33.9v.01A7.391,7.391,0,0,0,49.7,38.847" fill="#a46900"/>
          <path id="Path_5995" data-name="Path 5995" d="M46.234,31.552l3.465-.819,3.465.819L49.7,28.4Z" fill="#a46900"/>
          <path id="Path_5996" data-name="Path 5996" d="M49.7,28.4l3.465,3.15L49.7,21.2Z" fill="#f09700"/>
          <path id="Path_5997" data-name="Path 5997" d="M49.7,21.195,46.233,31.552,49.7,28.4Z" fill="#ffe400"/>
          <path id="Path_5998" data-name="Path 5998" d="M40.768,10.113c-.987-.132-2.8-.657-4.406-.868a78.345,78.345,0,0,1,3.337,8c2.112-.4,4.815.087,7.32,3.524A9.972,9.972,0,0,1,41.3,22.558,48.7,48.7,0,0,1,42.48,29c1.962-4.255,5.853-7.672,7.12-12.245,1.48-5.342-5.106-6.147-8.832-6.644" fill="#ffe400"/>
          <path id="Path_5999" data-name="Path 5999" d="M33.678,9.483a2.658,2.658,0,0,0-.835.934c.792-.408,1.451-.765,1.961-1.051.135-.075.258-.145.371-.21a2.746,2.746,0,0,0-1.5.327" fill="#ffe400"/>
          <path id="Path_6000" data-name="Path 6000" d="M25.182,27.894l.054-.136-.054.136" fill="#fff"/>
          <path id="Path_6001" data-name="Path 6001" d="M25.746,26.633c.034-.064.068-.128.1-.19-.034.062-.068.126-.1.19" fill="#fff"/>
          <path id="Path_6002" data-name="Path 6002" d="M26.041,26.108c.043-.071.086-.142.13-.21-.044.068-.087.139-.13.21" fill="#fff"/>
          <path id="Path_6003" data-name="Path 6003" d="M25.894,26.36c.038-.067.075-.133.114-.2-.039.065-.076.131-.114.2" fill="#fff"/>
          <path id="Path_6004" data-name="Path 6004" d="M27.809,28.746a10.873,10.873,0,0,1-2.732-.486,10.862,10.862,0,0,0,2.732.486" fill="#fff"/>
          <path id="Path_6005" data-name="Path 6005" d="M28.208,28.758l-.2,0,.2,0" fill="#fff"/>
          <path id="Path_6006" data-name="Path 6006" d="M25.317,27.554c.023-.055.046-.109.07-.163-.024.054-.047.108-.07.163" fill="#fff"/>
          <path id="Path_6007" data-name="Path 6007" d="M25.457,27.23l.081-.175-.081.175" fill="#fff"/>
          <path id="Path_6008" data-name="Path 6008" d="M25.6,26.923c.03-.062.061-.123.091-.184-.03.061-.061.122-.091.184" fill="#fff"/>
          <path id="Path_6009" data-name="Path 6009" d="M25.075,28.259l-.024-.008.024.008" fill="#fff"/>
          <path id="Path_6010" data-name="Path 6010" d="M28.006,28.754l-.2-.008.2.008" fill="#fff"/>
          <path id="Path_6011" data-name="Path 6011" d="M29.264,28.709c-.07.008-.14.014-.21.02.07-.006.14-.012.21-.02" fill="#fff"/>
          <path id="Path_6012" data-name="Path 6012" d="M28.835,28.744l-.207.009.207-.009" fill="#fff"/>
          <path id="Path_6013" data-name="Path 6013" d="M29.049,28.729l-.208.014.208-.014" fill="#fff"/>
          <path id="Path_6014" data-name="Path 6014" d="M28.622,28.753c-.068,0-.136,0-.2,0,.067,0,.135,0,.2,0" fill="#fff"/>
          <path id="Path_6015" data-name="Path 6015" d="M29.483,28.683c-.071.009-.141.018-.212.025.071-.007.141-.016.212-.025" fill="#fff"/>
          <path id="Path_6016" data-name="Path 6016" d="M28.413,28.758q-.1,0-.2,0,.1,0,.2,0" fill="#fff"/>
          <path id="Path_6017" data-name="Path 6017" d="M9.751,46.586q-.236-.3-.463-.6.228.3.463.6" fill="#6d4b94"/>
          <path id="Path_6018" data-name="Path 6018" d="M23.611,55.841c-.215-.056-.427-.114-.638-.175.211.061.423.119.638.175" fill="#6d4b94"/>
          <path id="Path_6019" data-name="Path 6019" d="M10.239,47.186q-.239-.287-.47-.578.231.291.47.578" fill="#6d4b94"/>
          <path id="Path_6020" data-name="Path 6020" d="M26.283,56.39c-.165-.025-.329-.052-.492-.08.163.028.327.055.492.08" fill="#6d4b94"/>
          <path id="Path_6021" data-name="Path 6021" d="M28.56,56.65c-.162-.012-.324-.026-.484-.041.16.015.322.029.484.041" fill="#6d4b94"/>
          <path id="Path_6022" data-name="Path 6022" d="M19.115,54.207c-.144-.069-.287-.138-.429-.209.142.071.285.14.429.209" fill="#6d4b94"/>
          <path id="Path_6023" data-name="Path 6023" d="M21.562,55.216c-.147-.051-.292-.1-.437-.158.145.054.29.107.437.158" fill="#6d4b94"/>
          <path id="Path_6024" data-name="Path 6024" d="M11.413,48.516q-.258-.276-.508-.556.25.281.508.556" fill="#6d4b94"/>
          <path id="Path_6025" data-name="Path 6025" d="M10.805,47.847q-.245-.278-.481-.559.237.282.481.559" fill="#6d4b94"/>
          <path id="Path_6026" data-name="Path 6026" d="M15.836,52.321q-.209-.142-.414-.288.206.146.414.288" fill="#6d4b94"/>
          <path id="Path_6027" data-name="Path 6027" d="M13.89,50.853c-.144-.12-.286-.241-.428-.363.142.122.284.243.428.363" fill="#6d4b94"/>
          <path id="Path_6028" data-name="Path 6028" d="M9.2,45.872c-.146-.2-.289-.392-.431-.59.142.2.285.395.431.59" fill="#6d4b94"/>
          <path id="Path_6029" data-name="Path 6029" d="M25.119,56.185c.144.029.288.056.433.082l-.017,0-.416-.079" fill="#6d4b94"/>
          <path id="Path_6030" data-name="Path 6030" d="M26.467,56.419l.153.022-.046-.007-.107-.015" fill="#6d4b94"/>
          <path id="Path_6031" data-name="Path 6031" d="M16.432,52.715c.1.064.2.127.3.189l-.08-.051c-.074-.046-.148-.091-.221-.138" fill="#6d4b94"/>
          <path id="Path_6032" data-name="Path 6032" d="M14.749,51.535l-.065-.048c.2.153.4.305.609.453-.038-.027-.074-.056-.112-.084-.146-.106-.289-.213-.432-.321" fill="#6d4b94"/>
          <path id="Path_6033" data-name="Path 6033" d="M15.93,52.385l.094.063-.057-.039-.037-.024" fill="#6d4b94"/>
          <path id="Path_6034" data-name="Path 6034" d="M16.068,52.479c.1.064.194.127.291.189l-.153-.1-.138-.089" fill="#6d4b94"/>
          <path id="Path_6035" data-name="Path 6035" d="M17.509,53.367l.022.012,0,0-.018-.01" fill="#6d4b94"/>
          <path id="Path_6036" data-name="Path 6036" d="M16.863,52.985c.206.126.413.249.624.37q-.306-.176-.6-.358l-.02-.012" fill="#6d4b94"/>
          <path id="Path_6037" data-name="Path 6037" d="M23.752,55.876q.245.063.492.121c-.153-.036-.305-.074-.457-.112l-.035-.009" fill="#6d4b94"/>
          <path id="Path_6038" data-name="Path 6038" d="M13.339,50.382l.067.059-.033-.03-.034-.029" fill="#6d4b94"/>
          <path id="Path_6039" data-name="Path 6039" d="M14.094,51.019c-.044-.035-.088-.069-.131-.1.2.162.395.32.6.477l-.055-.045c-.138-.107-.275-.217-.41-.327" fill="#6d4b94"/>
          <path id="Path_6040" data-name="Path 6040" d="M18.391,53.848l.158.08-.06-.031c-.032-.017-.066-.032-.1-.049" fill="#6d4b94"/>
          <path id="Path_6041" data-name="Path 6041" d="M20.44,54.792c.152.061.3.122.457.181l-.131-.053c-.109-.042-.218-.084-.326-.128" fill="#6d4b94"/>
          <path id="Path_6042" data-name="Path 6042" d="M19.8,54.522l.179.077-.046-.02c-.044-.02-.089-.038-.133-.057" fill="#6d4b94"/>
          <path id="Path_6043" data-name="Path 6043" d="M22.357,55.481l.293.09-.073-.023-.22-.067" fill="#6d4b94"/>
          <path id="Path_6044" data-name="Path 6044" d="M21.851,55.316c.109.037.219.072.329.108l-.217-.072c-.037-.013-.075-.023-.112-.036" fill="#6d4b94"/>
          <path id="Path_6045" data-name="Path 6045" d="M20.965,55l0,0h0" fill="#6d4b94"/>
          <path id="Path_6046" data-name="Path 6046" d="M28.881,56.673c.137.009.274.017.412.024-.116-.006-.23-.013-.345-.021l-.067,0" fill="#6d4b94"/>
          <path id="Path_6047" data-name="Path 6047" d="M22.815,55.62l.04.012-.031-.01-.009,0" fill="#6d4b94"/>
          <path id="Path_6048" data-name="Path 6048" d="M17.66,53.452c.116.065.232.13.35.193-.093-.05-.184-.1-.275-.152l-.075-.041" fill="#6d4b94"/>
          <path id="Path_6049" data-name="Path 6049" d="M18.124,53.706c.084.044.166.09.251.133-.046-.023-.09-.049-.136-.073l-.115-.06" fill="#6d4b94"/>
          <path id="Path_6050" data-name="Path 6050" d="M19.25,54.271c.169.08.341.158.514.234q-.249-.11-.493-.224l-.021-.01" fill="#6d4b94"/>
          <path id="Path_6051" data-name="Path 6051" d="M20.128,54.662c.088.037.177.075.266.111-.071-.028-.139-.059-.209-.088l-.057-.023" fill="#6d4b94"/>
          <path id="Path_6052" data-name="Path 6052" d="M24.439,56.041l.132.03-.055-.013-.077-.017" fill="#6d4b94"/>
          <path id="Path_6053" data-name="Path 6053" d="M27.212,56.519c.152.018.3.036.458.052l-.107-.013c-.117-.013-.235-.025-.351-.039" fill="#6d4b94"/>
          <path id="Path_6054" data-name="Path 6054" d="M17.063,50.228c.879.208,1.763.4,2.655.57a12.371,12.371,0,0,0,5.072.343,4.492,4.492,0,0,0,2.782-2.453,25.636,25.636,0,0,0,1.975-4.794c.014-.047.029-.093.043-.14a14.048,14.048,0,0,0-2.456.609,11.94,11.94,0,0,0-5.928,4.21,7.389,7.389,0,0,1,9.082-7.163,44.263,44.263,0,0,0,1.466-7.37,7.014,7.014,0,0,0-1.815-5.43c-.151.029-.3.053-.451.072h-.005c-.071.009-.141.018-.212.025h-.007l-.21.02h-.005l-.209.014h-.005l-.207.01h-.006c-.068,0-.136,0-.2,0h-.211l-.2,0h0l-.2-.008a10.851,10.851,0,0,1-2.732-.486h0l-.023-.008c.042-.122.086-.241.13-.358.018-.046.036-.09.054-.135.027-.069.054-.138.082-.2s.046-.109.07-.163.046-.108.07-.161.054-.117.081-.175.041-.088.062-.131c.03-.062.06-.123.091-.184.018-.036.037-.071.055-.106.034-.065.068-.128.1-.19l.046-.083c.038-.067.075-.133.114-.2l.033-.054c.043-.071.086-.142.129-.21v0c.074-.115.149-.225.225-.333-.529-.368-1.063-.721-1.581-1.063q-5.443-3.6-11.021-7.006l.014,0A71.621,71.621,0,0,1,.24,19.447s.051,1.047.271,2.788c-.017-.135-.033-.266-.048-.392,1.678,8.348,5.967,21.911,16.6,28.385m5.545-20.8,6.311,8.914-3.554.217-3.08,1.786ZM3.887,22.847c1.075-1.3,5.31-1.177,6.97-1.446,3.711-.6,10.248-1.734,10.375,3.808.128,5.565-3.663,10.649-3.4,16.214.106,2.259,2.674,7.943-1.689,5.4a23.219,23.219,0,0,1-5.982-5.446,33.285,33.285,0,0,1-3.945-7.693c-.954-2.309-4.334-8.4-2.326-10.834" fill="#90bc1f"/>
          <path id="Path_6055" data-name="Path 6055" d="M26.766,56.46c.13.018.259.036.391.052-.111-.013-.22-.03-.33-.044l-.061-.008" fill="#6d4b94"/>
          <path id="Path_6056" data-name="Path 6056" d="M24.678,56.094l.217.045-.116-.025-.1-.02" fill="#6d4b94"/>
          <path id="Path_6057" data-name="Path 6057" d="M13.008,50.086c.083.075.165.15.249.224-.04-.035-.079-.072-.119-.108l-.13-.116" fill="#6d4b94"/>
          <path id="Path_6058" data-name="Path 6058" d="M11.672,48.789h0c-.07-.073-.142-.145-.211-.218q.247.263.5.519l-.1-.1-.2-.2" fill="#6d4b94"/>
          <path id="Path_6059" data-name="Path 6059" d="M27.739,56.578l.111.011-.052-.006-.059-.005" fill="#6d4b94"/>
          <path id="Path_6060" data-name="Path 6060" d="M12.081,49.2l-.03-.029c.176.176.355.349.536.521l-.017-.016q-.247-.236-.489-.476" fill="#6d4b94"/>
          <path id="Path_6061" data-name="Path 6061" d="M12.7,49.8c.087.081.174.162.262.242L12.8,49.89,12.7,49.8" fill="#6d4b94"/>
          <path id="Path_6062" data-name="Path 6062" d="M35.282,9.1l-.008.005.008-.005" fill="#6d4b94"/>
          <path id="Path_6063" data-name="Path 6063" d="M36.014,8.664l-.03.018.03-.018" fill="#6d4b94"/>
          <path id="Path_6064" data-name="Path 6064" d="M35.929,8.715l-.032.02.032-.02" fill="#6d4b94"/>
          <path id="Path_6065" data-name="Path 6065" d="M35.849,8.764l-.036.021.036-.021" fill="#6d4b94"/>
          <path id="Path_6066" data-name="Path 6066" d="M36.066,8.632l-.007.005.007-.005" fill="#6d4b94"/>
          <path id="Path_6067" data-name="Path 6067" d="M36.051,8.641l-.025.015.025-.015" fill="#6d4b94"/>
          <path id="Path_6068" data-name="Path 6068" d="M35.431,9.01l-.027.015.027-.015" fill="#6d4b94"/>
          <path id="Path_6069" data-name="Path 6069" d="M35.752,8.822l-.03.018.03-.018" fill="#6d4b94"/>
          <path id="Path_6070" data-name="Path 6070" d="M34.8,9.366Z" fill="#6d4b94"/>
          <path id="Path_6071" data-name="Path 6071" d="M26.4,25.563h0q-.114.161-.225.333c.629.426,1.248.867,1.833,1.349-.585-.482-1.2-.923-1.833-1.349v0c-.044.068-.086.139-.129.21l-.034.054c-.038.065-.076.131-.113.2l-.046.082c-.034.063-.068.126-.1.191-.018.035-.037.07-.055.106-.031.061-.061.122-.091.184-.021.043-.042.087-.062.131s-.055.116-.081.175-.047.107-.07.161-.047.108-.07.163-.055.136-.082.2c-.018.045-.036.089-.054.135-.044.117-.088.236-.13.358l.023.008h0a10.9,10.9,0,0,0,2.732.486l.2.008h0c.066,0,.132,0,.2,0h.211c.067,0,.135,0,.2,0h.006l.207-.01h.005l.208-.014h.006c.07-.005.14-.012.21-.019h.007c.071-.007.141-.016.212-.025h.005c.149-.02.3-.043.45-.072,2.092-.4,4.275-1.717,5.252-5.2,0,0-5.467-2.551-8.794,2.151"/>
          <path id="Path_6072" data-name="Path 6072" d="M19.922,29.8C12.97,24.537,8.8,31.379,8.8,31.379c6.028,5.191,11.122-1.58,11.122-1.58"/>
          <path id="Path_6073" data-name="Path 6073" d="M18.489,53.9l.06.031.138.07q.213.106.429.209l0,0q-.32-.152-.631-.312" fill="#4c4893"/>
          <path id="Path_6074" data-name="Path 6074" d="M27.8,56.583l.052.006.226.02c.161.015.322.029.484.041l.189.014c-.321-.022-.637-.049-.951-.081" fill="#4c4893"/>
          <path id="Path_6075" data-name="Path 6075" d="M15.37,52c.017.013.035.025.053.037q.2.146.413.288l.095.064.036.024c-.2-.135-.4-.272-.6-.413" fill="#4c4893"/>
          <path id="Path_6076" data-name="Path 6076" d="M13.373,50.411l.033.03.056.049c.142.123.285.244.427.363l.005,0c-.177-.147-.349-.3-.521-.446" fill="#4c4893"/>
          <path id="Path_6077" data-name="Path 6077" d="M23.787,55.885c.152.038.3.076.457.112l.195.044.077.017c-.245-.055-.489-.112-.729-.173" fill="#4c4893"/>
          <path id="Path_6078" data-name="Path 6078" d="M24.778,56.114l.116.025.225.046.416.079q-.382-.071-.757-.15" fill="#4c4893"/>
          <path id="Path_6079" data-name="Path 6079" d="M14.749,51.535c.143.108.286.215.432.321-.146-.106-.289-.213-.432-.321" fill="#4c4893"/>
          <path id="Path_6080" data-name="Path 6080" d="M21.963,55.352c.072.024.144.049.217.072s.118.039.178.057.146.044.22.067c-.207-.063-.412-.129-.615-.2" fill="#4c4893"/>
          <path id="Path_6081" data-name="Path 6081" d="M20.968,55h0l.155.058c.145.054.291.106.438.158l.173.06c-.259-.088-.515-.181-.768-.277" fill="#4c4893"/>
          <path id="Path_6082" data-name="Path 6082" d="M12.8,49.889l.167.156.045.041.13.115q-.172-.155-.342-.312" fill="#4c4893"/>
          <path id="Path_6083" data-name="Path 6083" d="M19.272,54.281q.245.114.492.225l.037.016.134.057q-.336-.146-.663-.3" fill="#4c4893"/>
          <path id="Path_6084" data-name="Path 6084" d="M16.206,52.567l.153.1.073.047c.072.047.147.092.22.138-.15-.094-.3-.19-.446-.286" fill="#4c4893"/>
          <path id="Path_6085" data-name="Path 6085" d="M25.674,56.29l.117.02c.163.028.327.055.492.08l.184.029.106.014c-.3-.043-.6-.09-.9-.143" fill="#4c4893"/>
          <path id="Path_6086" data-name="Path 6086" d="M11.869,48.988c-.065-.066-.128-.132-.192-.2h0c.064.067.131.133.2.2" fill="#4c4893"/>
          <path id="Path_6087" data-name="Path 6087" d="M22.823,55.622l.031.009.119.036c.21.06.423.119.638.174l.034.009q-.416-.108-.822-.228" fill="#4c4893"/>
          <path id="Path_6088" data-name="Path 6088" d="M16.883,53q.3.183.6.358l.022.012.017.01q-.325-.186-.643-.38" fill="#4c4893"/>
          <path id="Path_6089" data-name="Path 6089" d="M26.827,56.468c.11.015.218.031.329.045l.056.006c.116.014.234.026.351.039-.247-.027-.493-.057-.736-.09" fill="#4c4893"/>
          <path id="Path_6090" data-name="Path 6090" d="M28.948,56.676l.345.02c.088.005.176.01.265.013l.2.007q-.408-.015-.807-.04" fill="#4c4893"/>
          <path id="Path_6091" data-name="Path 6091" d="M12.571,49.68c-.165-.157-.329-.315-.489-.476.16.161.324.319.489.476" fill="#4c4893"/>
          <path id="Path_6092" data-name="Path 6092" d="M20.185,54.685l.209.089.046.018c.108.044.217.086.326.128-.2-.076-.389-.154-.581-.235" fill="#4c4893"/>
          <path id="Path_6093" data-name="Path 6093" d="M14.094,51.019c.135.11.272.22.41.327-.138-.107-.275-.217-.41-.327" fill="#4c4893"/>
          <path id="Path_6094" data-name="Path 6094" d="M17.735,53.493c.091.051.182.1.275.153l.114.061.116.06q-.255-.135-.5-.274" fill="#4c4893"/>
          <path id="Path_6095" data-name="Path 6095" d="M41.49,42.421c.1-.348.2-.7.291-1.066a32.136,32.136,0,0,0,.946-7.444V33.9A39.566,39.566,0,0,0,42.48,29a48.7,48.7,0,0,0-1.18-6.444c-.426-1.7-.955-3.466-1.6-5.31a78.451,78.451,0,0,0-3.337-8c-.1-.2-.2-.407-.3-.612l-.007,0-.007.005a.2.2,0,0,0-.025.015l-.013.008-.03.018-.054.033-.032.019-.048.029-.036.021-.061.037-.031.018c-.082.049-.179.106-.291.17l-.025.015-.123.071-.008,0-.1.057c-.113.065-.236.134-.371.21-.51.285-1.169.643-1.961,1.051-.7.363-1.514.766-2.421,1.2l-.323.151h0a86.669,86.669,0,0,1-16.29,5.727l-.014,0q5.564,3.42,11.021,7c.518.343,1.052.7,1.581,1.064,3.327-4.7,8.794-2.151,8.794-2.151-.977,3.481-3.16,4.8-5.251,5.2a7.015,7.015,0,0,1,1.815,5.431,44.385,44.385,0,0,1-1.466,7.37,7.412,7.412,0,0,1,4.11,2.613,10.834,10.834,0,0,0-4.808-.269l-.043.139a25.554,25.554,0,0,1-1.976,4.795,4.489,4.489,0,0,1-2.781,2.452,12.337,12.337,0,0,1-5.072-.343c-.892-.169-1.776-.361-2.656-.569A25.6,25.6,0,0,0,30.177,53.89s19.967-11.308,5.96-45.109C53.02,43.427,32.294,56.02,31.1,56.71a24.358,24.358,0,0,0,9.47-11.642v0a27.647,27.647,0,0,0,.922-2.645" fill="#008836"/>
          <path id="Path_6096" data-name="Path 6096" d="M36.137,8.78c14.007,33.8-5.96,45.109-5.96,45.109a25.6,25.6,0,0,1-13.115-3.66C6.43,43.754,2.141,30.191.463,21.843c.015.127.031.257.048.393l0,.016c.052.407.112.851.183,1.327l0,.03c.023.156.048.315.073.48l0,.011c.051.33.108.671.17,1.025l.009.049q.045.258.094.522l.008.043q.1.542.217,1.115c0,.018.007.037.011.056.038.187.078.375.118.565l.014.062c.084.392.173.791.27,1.2l.013.058c.047.2.1.4.145.6l.021.087c.051.2.1.407.156.614l.009.033c.053.2.108.413.165.621l.014.053c.056.207.115.416.174.625.01.034.019.066.029.1.059.209.121.42.184.631.006.022.013.044.02.068.063.209.127.42.194.633,0,.014.008.027.013.041q.1.323.207.646c.012.036.023.072.035.109q.105.318.215.641c.011.03.022.062.032.092.077.221.154.443.234.665l0,.007q.118.333.245.666c.013.036.027.073.041.11.081.215.164.431.249.646.015.036.029.073.044.111q.132.334.27.669l.009.02q.135.327.278.656l.045.105c.094.215.189.43.287.645.018.041.037.082.056.123q.148.329.305.655c.009.022.02.043.03.064.1.21.2.42.307.629l.045.09c.107.214.217.428.328.642l.067.127q.168.32.343.637l.05.092c.114.2.229.41.347.612l.039.069c.122.211.247.421.374.632.026.041.051.083.076.125.127.206.255.412.385.616l.068.106c.132.2.265.407.4.611l.023.033c.139.207.282.412.427.617l.082.117c.142.2.285.4.431.59.028.039.056.075.085.113.152.2.306.4.463.6l.017.022c.154.194.312.387.471.578.028.035.056.069.085.1q.237.282.481.559l.1.112c.167.188.336.373.508.557.017.019.035.036.052.055l.211.218c.064.067.128.133.193.2.033.034.065.069.1.1l.083.085.03.029c.161.16.324.319.489.475l.017.017.113.106c.031.03.064.059.1.087.113.1.228.209.343.312.04.036.078.073.119.109s.054.047.081.072l.034.028c.172.15.345.3.521.446.024.019.047.04.07.058.043.036.088.07.131.1.135.11.272.22.41.328l.055.043.124.1.065.048q.214.162.432.321c.038.028.075.057.113.084l.076.055c.2.141.4.278.6.413.02.013.038.027.057.04l.045.031.138.088q.221.144.446.285l.08.052.131.082.02.011q.318.193.643.38l0,0,.129.072.075.042q.25.138.505.273c.046.024.09.05.136.073l.015.008.1.049q.313.16.631.312l.13.063.022.009c.218.1.44.2.663.3l.045.02.149.063.057.023q.286.122.581.235l.13.053.068.025h0c.252.1.509.19.768.278.038.013.076.027.115.039s.075.024.112.036q.3.1.614.2l.073.023c.054.017.109.034.164.049l.009,0c.271.08.545.157.823.228.035.01.07.019.106.027l.035.008c.24.061.483.118.729.173l.055.013.106.024.1.02q.375.08.757.15l.017,0,.121.022c.3.053.6.1.9.144l.047.007.145.02.061.007c.244.033.489.063.737.09l.107.013.069.008.059.005c.313.031.63.059.951.081l.131.008.067,0q.4.024.807.04l.087,0,.175,0h.015c.334.009.671.016,1.013.015l.009,0,.045-.027c1.2-.69,21.922-13.283,5.039-47.929" fill="#008836"/>
          <g id="Group_8402" data-name="Group 8402" opacity="0.46" style="mix-blend-mode: normal;isolation: isolate">
            <g id="Group_8401" data-name="Group 8401">
              <g id="Group_8400" data-name="Group 8400" clip-path="url(#clip-path-4)">
                <path id="Path_6097" data-name="Path 6097" d="M36.137,8.78c14.007,33.8-5.96,45.109-5.96,45.109a25.6,25.6,0,0,1-13.115-3.66C6.43,43.754,2.141,30.191.463,21.843c.015.127.031.257.048.393l0,.016c.052.407.112.851.183,1.327l0,.03c.023.156.048.315.073.48l0,.011c.051.33.108.671.17,1.025l.009.049q.045.258.094.522l.008.043q.1.542.217,1.115c0,.018.007.037.011.056.038.187.078.375.118.565l.014.062c.084.392.173.791.27,1.2l.013.058c.047.2.1.4.145.6l.021.087c.051.2.1.407.156.614l.009.033c.053.2.108.413.165.621l.014.053c.056.207.115.416.174.625.01.034.019.066.029.1.059.209.121.42.184.631.006.022.013.044.02.068.063.209.127.42.194.633,0,.014.008.027.013.041q.1.323.207.646c.012.036.023.072.035.109q.105.318.215.641c.011.03.022.062.032.092.077.221.154.443.234.665l0,.007q.118.333.245.666c.013.036.027.073.041.11.081.215.164.431.249.646.015.036.029.073.044.111q.132.334.27.669l.009.02q.135.327.278.656l.045.105c.094.215.189.43.287.645.018.041.037.082.056.123q.148.329.305.655c.009.022.02.043.03.064.1.21.2.42.307.629l.045.09c.107.214.217.428.328.642l.067.127q.168.32.343.637l.05.092c.114.2.229.41.347.612l.039.069c.122.211.247.421.374.632.026.041.051.083.076.125.127.206.255.412.385.616l.068.106c.132.2.265.407.4.611l.023.033c.139.207.282.412.427.617l.082.117c.142.2.285.4.431.59.028.039.056.075.085.113.152.2.306.4.463.6l.017.022c.154.194.312.387.471.578.028.035.056.069.085.1q.237.282.481.559l.1.112c.167.188.336.373.508.557.017.019.035.036.052.055l.211.218c.064.067.128.133.193.2.033.034.065.069.1.1l.083.085.03.029c.161.16.324.319.489.475l.017.017.113.106c.031.03.064.059.1.087.113.1.228.209.343.312.04.036.078.073.119.109s.054.047.081.072l.034.028c.172.15.345.3.521.446.024.019.047.04.07.058.043.036.088.07.131.1.135.11.272.22.41.328l.055.043.124.1.065.048q.214.162.432.321c.038.028.075.057.113.084l.076.055c.2.141.4.278.6.413.02.013.038.027.057.04l.045.031.138.088q.221.144.446.285l.08.052.131.082.02.011q.318.193.643.38l0,0,.129.072.075.042q.25.138.505.273c.046.024.09.05.136.073l.015.008.1.049q.313.16.631.312l.13.063.022.009c.218.1.44.2.663.3l.045.02.149.063.057.023q.286.122.581.235l.13.053.068.025h0c.252.1.509.19.768.278.038.013.076.027.115.039s.075.024.112.036q.3.1.614.2l.073.023c.054.017.109.034.164.049l.009,0c.271.08.545.157.823.228.035.01.07.019.106.027l.035.008c.24.061.483.118.729.173l.055.013.106.024.1.02q.375.08.757.15l.017,0,.121.022c.3.053.6.1.9.144l.047.007.145.02.061.007c.244.033.489.063.737.09l.107.013.069.008.059.005c.313.031.63.059.951.081l.131.008.067,0q.4.024.807.04l.087,0,.175,0h.015c.334.009.671.016,1.013.015l.009,0,.045-.027c1.2-.69,21.922-13.283,5.039-47.929" fill="#063"/>
              </g>
            </g>
          </g>
          <path id="Path_6098" data-name="Path 6098" d="M26.187,41.618a7.393,7.393,0,0,0-4.981,6.956,11.928,11.928,0,0,1,5.928-4.21,14.048,14.048,0,0,1,2.456-.609,10.834,10.834,0,0,1,4.808.269,7.4,7.4,0,0,0-8.211-2.406" fill="#008836"/>
          <g id="Group_8405" data-name="Group 8405" opacity="0.46" style="mix-blend-mode: normal;isolation: isolate">
            <g id="Group_8404" data-name="Group 8404">
              <g id="Group_8403" data-name="Group 8403" clip-path="url(#clip-path-5)">
                <path id="Path_6099" data-name="Path 6099" d="M26.187,41.618a7.393,7.393,0,0,0-4.981,6.956,11.928,11.928,0,0,1,5.928-4.21,14.048,14.048,0,0,1,2.456-.609,10.834,10.834,0,0,1,4.808.269,7.4,7.4,0,0,0-8.211-2.406" fill="#063"/>
              </g>
            </g>
          </g>
          <path id="Path_6100" data-name="Path 6100" d="M28.919,38.343l-4.227-2.014-2.407,4.017,3.08-1.786Z" fill="#008836"/>
          <g id="Group_8408" data-name="Group 8408" opacity="0.46" style="mix-blend-mode: normal;isolation: isolate">
            <g id="Group_8407" data-name="Group 8407">
              <g id="Group_8406" data-name="Group 8406" clip-path="url(#clip-path-6)">
                <path id="Path_6101" data-name="Path 6101" d="M28.919,38.343l-4.227-2.014-2.407,4.017,3.08-1.786Z" fill="#063"/>
              </g>
            </g>
          </g>
          <path id="Path_6102" data-name="Path 6102" d="M28.919,38.343l-6.31-8.914,2.083,6.9Z" fill="#008836"/>
          <path id="Path_6103" data-name="Path 6103" d="M22.608,29.429l-.324,10.917,2.407-4.017Z" fill="#90bc1f"/>
          <path id="Path_6104" data-name="Path 6104" d="M10.159,41.373a23.191,23.191,0,0,0,5.982,5.447c4.363,2.546,1.794-3.138,1.688-5.4-.26-5.565,3.531-10.649,3.4-16.214C21.1,19.667,14.568,20.8,10.857,21.4c-1.66.269-5.9.144-6.97,1.446-2.008,2.43,1.372,8.525,2.326,10.834a33.223,33.223,0,0,0,3.946,7.692M19.922,29.8S14.828,36.57,8.8,31.379c0,0,4.17-6.842,11.122-1.58" fill="#d9d700"/>
        </g>
      </g>
    </g>
  </g>
</svg>
