<svg xmlns="http://www.w3.org/2000/svg" width="120" height="120" viewBox="0 0 120 120"><defs><style>.a{opacity:0.3;}.b{fill:#c6c6c6;}.c{fill:#ededed;}.d{fill:none;}</style></defs><g transform="translate(-1157.155 -110.607)"><path class="a" d="M1188.155,134.894v63.6c0,6.615,6.842,10.737,12.292,7.405l52.009-31.8a8.787,8.787,0,0,0,0-14.809l-52.009-31.8C1195,124.158,1188.155,128.28,1188.155,134.894Z" transform="translate(0 7)"/><path class="b" d="M1188.155,134.894v63.6c0,6.615,6.842,10.737,12.292,7.405l52.009-31.8a8.787,8.787,0,0,0,0-14.809l-52.009-31.8C1195,124.158,1188.155,128.28,1188.155,134.894Z"/><path class="c" d="M1194.872,136.629v52.317c0,5.441,5.628,8.831,10.11,6.09l42.78-26.158a7.228,7.228,0,0,0,0-12.181l-42.78-26.158C1200.5,127.8,1194.872,131.188,1194.872,136.629Z"/></g><rect class="d" width="120" height="120"/></svg>