<svg id="poetry" xmlns="http://www.w3.org/2000/svg" xmlns:xlink="http://www.w3.org/1999/xlink" width="70" height="70" viewBox="0 0 70 70">
  <defs>
    <clipPath id="clip-path">
      <rect id="Rectangle_3323" data-name="Rectangle 3323" width="70" height="70" fill="none"/>
    </clipPath>
    <clipPath id="clip-path-3">
      <rect id="Rectangle_3320" data-name="Rectangle 3320" width="37.152" height="12.241" transform="translate(23.28 48.107)" fill="none"/>
    </clipPath>
    <clipPath id="clip-path-4">
      <rect id="Rectangle_3321" data-name="Rectangle 3321" width="0.962" height="8.325" transform="translate(22.978 51.831)" fill="none"/>
    </clipPath>
  </defs>
  <g id="Group_8396" data-name="Group 8396">
    <g id="Group_8395" data-name="Group 8395" clip-path="url(#clip-path)">
      <g id="Group_8394" data-name="Group 8394">
        <g id="Group_8393" data-name="Group 8393" clip-path="url(#clip-path)">
          <path id="Path_5893" data-name="Path 5893" d="M19.475,25.826s-1.3,15.109,4.621,17.167,16.154,3.449,25.34-19.34c0,0-7.306-1.513-7.237-1.785s9.343-1.033,11.809-8.675S58.293,0,58.293,0,20.848,5.558,22.287,27.843Z" fill="#90bc1f"/>
          <path id="Path_5894" data-name="Path 5894" d="M24.269,43.053c5.949,2.023,16.069,3.17,25.167-19.4,0,0-7.306-1.513-7.237-1.785s9.343-1.033,11.809-8.675S58.293,0,58.293,0C34.933,12.538,26.869,30.133,24.269,43.053" fill="#008836"/>
          <g id="Group_8389" data-name="Group 8389" opacity="0.3">
            <g id="Group_8388" data-name="Group 8388">
              <g id="Group_8387" data-name="Group 8387" clip-path="url(#clip-path-3)">
                <path id="Path_5895" data-name="Path 5895" d="M50.024,53.513c3.849-1.031,7.982-2.245,10.408-5.406-2.058,1.106-4.5,1.161-6.83,1.232-7.3.219-15.033.99-20.871,5.379-2.284,1.717-4.33,4.007-7.12,4.621a8.261,8.261,0,0,0-2.331.593c1.157,1.142,4.212-.386,5.559-.746L36.1,57.242l13.927-3.729"/>
              </g>
            </g>
          </g>
          <path id="Path_5896" data-name="Path 5896" d="M23.381,60.156c-1.745-6.052-.848-12.494.448-18.543C26.81,28.41,34.236,17.251,44.656,8.725A80.79,80.79,0,0,1,58.293,0a86.511,86.511,0,0,0-11.41,7.8A60.436,60.436,0,0,0,25.272,41.937a74.622,74.622,0,0,0-1.528,13.581c-.063,1.523-.1,3.053-.132,4.6Z" fill="#fff"/>
          <g id="Group_8392" data-name="Group 8392" opacity="0.46" style="mix-blend-mode: normal;isolation: isolate">
            <g id="Group_8391" data-name="Group 8391">
              <g id="Group_8390" data-name="Group 8390" clip-path="url(#clip-path-4)">
                <path id="Path_5897" data-name="Path 5897" d="M23.744,55.518c.053-1.229.115-2.459.2-3.686h0s-1.72,1.665-.558,8.323l.231-.039c.028-1.546.069-3.075.132-4.6" fill="#063"/>
              </g>
            </g>
          </g>
        </g>
      </g>
    </g>
  </g>
</svg>
