<svg id="prize" xmlns="http://www.w3.org/2000/svg" xmlns:xlink="http://www.w3.org/1999/xlink" width="70" height="70" viewBox="0 0 70 70">
  <defs>
    <clipPath id="clip-path">
      <rect id="Rectangle_6061" data-name="Rectangle 6061" width="70" height="70" fill="none"/>
    </clipPath>
    <clipPath id="clip-path-3">
      <rect id="Rectangle_6035" data-name="Rectangle 6035" width="63.362" height="46.715" transform="translate(4.512 23.285)" fill="none"/>
    </clipPath>
    <clipPath id="clip-path-4">
      <rect id="Rectangle_6036" data-name="Rectangle 6036" width="59.087" height="7.362" transform="translate(3.925 36.31)" fill="none"/>
    </clipPath>
    <clipPath id="clip-path-5">
      <rect id="Rectangle_6037" data-name="Rectangle 6037" width="56.065" height="7.936" transform="translate(6.568 58.919)" fill="none"/>
    </clipPath>
    <clipPath id="clip-path-6">
      <rect id="Rectangle_6038" data-name="Rectangle 6038" width="54.815" height="6.31" transform="translate(6.899 39.733)" fill="none"/>
    </clipPath>
    <clipPath id="clip-path-7">
      <rect id="Rectangle_6039" data-name="Rectangle 6039" width="28.581" height="4.799" transform="translate(8.423 61.854)" fill="none"/>
    </clipPath>
    <clipPath id="clip-path-8">
      <rect id="Rectangle_6040" data-name="Rectangle 6040" width="22.382" height="4.799" transform="translate(39.037 61.854)" fill="none"/>
    </clipPath>
    <clipPath id="clip-path-9">
      <rect id="Rectangle_6041" data-name="Rectangle 6041" width="38.11" height="4.875" transform="translate(15.595 21.428)" fill="none"/>
    </clipPath>
    <clipPath id="clip-path-10">
      <rect id="Rectangle_6042" data-name="Rectangle 6042" width="10.693" height="41.209" transform="translate(51.45 24.409)" fill="none"/>
    </clipPath>
    <clipPath id="clip-path-11">
      <rect id="Rectangle_6043" data-name="Rectangle 6043" width="11.483" height="42.743" transform="translate(23.646 23.501)" fill="none"/>
    </clipPath>
    <clipPath id="clip-path-12">
      <rect id="Rectangle_6044" data-name="Rectangle 6044" width="3.376" height="38.289" transform="translate(50.791 26.292)" fill="none"/>
    </clipPath>
    <clipPath id="clip-path-13">
      <rect id="Rectangle_6045" data-name="Rectangle 6045" width="25.576" height="13.399" transform="translate(10.855 11.714)" fill="none"/>
    </clipPath>
    <clipPath id="clip-path-14">
      <rect id="Rectangle_6046" data-name="Rectangle 6046" width="20.602" height="21.8" transform="translate(41.496 0.37)" fill="none"/>
    </clipPath>
    <clipPath id="clip-path-15">
      <rect id="Rectangle_6047" data-name="Rectangle 6047" width="12.257" height="14.167" transform="translate(38.393 5.747)" fill="none"/>
    </clipPath>
    <clipPath id="clip-path-16">
      <rect id="Rectangle_6048" data-name="Rectangle 6048" width="10.118" height="8.623" transform="translate(25.997 11.528)" fill="none"/>
    </clipPath>
    <clipPath id="clip-path-17">
      <rect id="Rectangle_6049" data-name="Rectangle 6049" width="8.999" height="4.773" transform="translate(33.723 18.814)" fill="none"/>
    </clipPath>
    <clipPath id="clip-path-18">
      <rect id="Rectangle_6050" data-name="Rectangle 6050" width="11.678" height="12.743" transform="translate(49.068 2.976)" fill="none"/>
    </clipPath>
    <clipPath id="clip-path-19">
      <rect id="Rectangle_6051" data-name="Rectangle 6051" width="16.312" height="8.453" transform="translate(13.22 12.306)" fill="none"/>
    </clipPath>
    <clipPath id="clip-path-20">
      <rect id="Rectangle_6052" data-name="Rectangle 6052" width="8.922" height="2.207" transform="translate(33.799 21.583)" fill="none"/>
    </clipPath>
    <clipPath id="clip-path-21">
      <rect id="Rectangle_6053" data-name="Rectangle 6053" width="14.876" height="4.417" transform="translate(43.241 0.373)" fill="none"/>
    </clipPath>
    <clipPath id="clip-path-22">
      <rect id="Rectangle_6054" data-name="Rectangle 6054" width="14.801" height="4.738" transform="translate(14.323 6.112)" fill="none"/>
    </clipPath>
    <clipPath id="clip-path-23">
      <rect id="Rectangle_6055" data-name="Rectangle 6055" width="17.732" height="12.405" transform="translate(44.02 9.48)" fill="none"/>
    </clipPath>
    <clipPath id="clip-path-24">
      <rect id="Rectangle_6056" data-name="Rectangle 6056" width="0.018" height="0.158" transform="translate(61.946 7.643)" fill="none"/>
    </clipPath>
    <clipPath id="clip-path-25">
      <rect id="Rectangle_6057" data-name="Rectangle 6057" width="10.072" height="19.702" transform="translate(2.126 20.517)" fill="none"/>
    </clipPath>
    <clipPath id="clip-path-26">
      <rect id="Rectangle_6058" data-name="Rectangle 6058" width="17.993" height="10.799" transform="translate(44.105)" fill="none"/>
    </clipPath>
    <clipPath id="clip-path-27">
      <rect id="Rectangle_6059" data-name="Rectangle 6059" width="18.875" height="12.279" transform="translate(10.855 5.361)" fill="none"/>
    </clipPath>
  </defs>
  <g id="Group_16838" data-name="Group 16838" clip-path="url(#clip-path)">
    <g id="Group_16837" data-name="Group 16837">
      <g id="Group_16836" data-name="Group 16836" clip-path="url(#clip-path)">
        <g id="Group_16763" data-name="Group 16763" opacity="0.3">
          <g id="Group_16762" data-name="Group 16762">
            <g id="Group_16761" data-name="Group 16761" clip-path="url(#clip-path-3)">
              <path id="Path_13518" data-name="Path 13518" d="M67.854,26.112c-.187-1.012-6.418-1.971-7.212-2.161-4.232-1.007-7.817-.7-12.1-.18a89.522,89.522,0,0,1-14.38.21l-12.645-.5c-3.4-.133-6.805-.358-10.082.815l.024-.008-.144.035c-4.243.916-7.123,1.782-6.771,2.329v.013A117.122,117.122,0,0,0,6.306,39.454c.125.642.25,1.235.368,1.756.014.059.027.117.041.174,0,.016.007.033.012.048a4.792,4.792,0,0,0,.683,1.933,11.839,11.839,0,0,0,1.954.346v.01l-.015.391A181,181,0,0,0,8.972,63.29a4.749,4.749,0,0,0,.139,1.2c.243.511,4.013,1.313,8.875,2.147.113.573.224.9.334.935,1.167.321,7.928,1.237,9.861,1.667a1.279,1.279,0,0,0,.555.116,1.44,1.44,0,0,0,.431.021,1.607,1.607,0,0,0,1.354-.789c5.021.718,8.868,1.207,8.868,1.207.973.129,1.541.2,1.541.2s1.863-.311,4.547-.8c1.867-.3,4.22-.718,6.717-1.246l-.025,0a4.372,4.372,0,0,0,1.665.8,38.819,38.819,0,0,0,7.433-1.956,4.923,4.923,0,0,0,.174-1.011A20.489,20.489,0,0,0,63.8,65a2.761,2.761,0,0,0,.858-.5,5.27,5.27,0,0,0,.357-2.429c.11-4.315-.617-13.278-1.157-19.187a5.654,5.654,0,0,0,1.061-.326,5.162,5.162,0,0,0,.475-1.493c.95-3.978,2.677-14.481,2.458-14.947"/>
            </g>
          </g>
        </g>
        <path id="Path_13519" data-name="Path 13519" d="M38.544,66.855s-31.1-4.006-31.818-5.506a7.263,7.263,0,0,1-.158-1.783v-.007c-.165-6.125.667-25.444.667-25.444l31.158,3.138.144,28Z" fill="#512eff"/>
        <path id="Path_13520" data-name="Path 13520" d="M62.633,58.919a5.281,5.281,0,0,1-.358,2.43c-1.714,1.83-23.731,5.506-23.731,5.506l-.007-1.6-.144-28,22.533-3.221s1.879,18.135,1.707,24.887" fill="#3e069b"/>
        <path id="Path_13521" data-name="Path 13521" d="M41.77,42.14c-.1.845-.219,1.4-.365,1.484-.784.474-35.47-2.852-36.376-3.406l-.079-.085a15.323,15.323,0,0,1-1.027-3.825A115.992,115.992,0,0,1,2.159,23.514c.012-.115.383-.182,1.04-.2,6.142-.177,37.385,3.569,38.206,4.493a1.1,1.1,0,0,1,.189.45c.018.073.036.152.054.244.511,2.456.505,10.319.122,13.639" fill="#512eff"/>
        <path id="Path_13522" data-name="Path 13522" d="M63.012,37.914v.007a5.166,5.166,0,0,1-.475,1.486c-.592.455-20.737,4.564-21.129,4.22a4.978,4.978,0,0,1-.179-1.425c-.193-3.2-.193-10.9.364-13.944.124-.682.276-1.122.455-1.239,1-.633,23.166-4.6,23.428-4.047.213.461-1.514,10.964-2.464,14.942" fill="#3e069b"/>
        <path id="Path_13523" data-name="Path 13523" d="M65.473,22.973c0,.748-19.264,5.071-23.825,5.528-.213.018-.389.03-.535.036-3.053.079-33.566-3.32-38.34-4.749a1.355,1.355,0,0,1-.614-.274c-.462-.675,4.08-1.848,10.039-3,.128-.03.225-.048.3-.06a218.966,218.966,0,0,1,22.652-3.235c7.564-.377,30.3,4.974,30.325,5.752" fill="#6b59ff"/>
        <g id="Group_16766" data-name="Group 16766" opacity="0.3" style="mix-blend-mode: multiply;isolation: isolate">
          <g id="Group_16765" data-name="Group 16765">
            <g id="Group_16764" data-name="Group 16764" clip-path="url(#clip-path-4)">
              <path id="Path_13524" data-name="Path 13524" d="M63.012,37.921a5.193,5.193,0,0,1-.475,1.487c-.592.454-20.737,4.563-21.129,4.219C40.623,44.1,5.935,40.77,5.026,40.22c-.289-.172-.688-1.769-1.1-3.91,3.056,4.254,10.3,4.708,21.054,5.892s15.548.055,16.25,0l.543-.062c2.981-.365,16.808-2.175,18.776-2.615,2.058-.462,2.43-1.5,2.464-1.6" fill="#900055"/>
            </g>
          </g>
        </g>
        <path id="Path_13525" data-name="Path 13525" d="M64.733,22.581c.743.39-14.987,4.957-24.09,5.392S2.578,23.727,2.578,23.727s5.359,1.464,20.877,3.333,17.586,2.553,18.431,2.478,4.521-1.867,12.606-3.346,10.983-2.546,10.983-2.883-.742-.728-.742-.728" fill="#8981ff"/>
        <g id="Group_16769" data-name="Group 16769" opacity="0.3" style="mix-blend-mode: multiply;isolation: isolate">
          <g id="Group_16768" data-name="Group 16768">
            <g id="Group_16767" data-name="Group 16767" clip-path="url(#clip-path-5)">
              <path id="Path_13526" data-name="Path 13526" d="M62.633,58.919a5.281,5.281,0,0,1-.358,2.43c-1.714,1.83-23.731,5.506-23.731,5.506s-31.1-4.006-31.818-5.506a7.286,7.286,0,0,1-.157-1.783c.143,1.466,17.248,4.289,23.306,4.978s8.518.714,8.518.714.048,0,.144-.007c1.149-.083,8.934-.633,15.975-1.783,7.632-1.238,8.121-4.549,8.121-4.549" fill="#900055"/>
            </g>
          </g>
        </g>
        <path id="Path_13527" data-name="Path 13527" d="M39.4,29.22c.933.148,1.4,14.454,2.01,14.406s.65-11.681,1.586-14.406a7.56,7.56,0,0,1-3.6,0" fill="#665cff"/>
        <path id="Path_13528" data-name="Path 13528" d="M38.544,43.626c-.533-.08-.385,20.165-.151,21.339s.808-15.64.151-21.339" fill="#5d52ff"/>
        <g id="Group_16772" data-name="Group 16772" opacity="0.5" style="mix-blend-mode: multiply;isolation: isolate">
          <g id="Group_16771" data-name="Group 16771">
            <g id="Group_16770" data-name="Group 16770" clip-path="url(#clip-path-6)">
              <path id="Path_13529" data-name="Path 13529" d="M6.9,42.832c2.169-2.644,26.145,1.72,32.945,3,6.694,1.257,21.87-3.428,21.87-3.428l-.237-2.667s-16.1,3.46-20.364,3.914S6.98,40.565,6.98,40.565Z" fill="#6e3b66"/>
            </g>
          </g>
        </g>
        <g id="Group_16775" data-name="Group 16775" opacity="0.3" style="mix-blend-mode: multiply;isolation: isolate">
          <g id="Group_16774" data-name="Group 16774">
            <g id="Group_16773" data-name="Group 16773" clip-path="url(#clip-path-7)">
              <path id="Path_13530" data-name="Path 13530" d="M8.422,62.049s2.016-.8,12.773.838S37,66.653,37,66.653s-20.423-2.6-28.581-4.6" fill="#900055"/>
            </g>
          </g>
        </g>
        <g id="Group_16778" data-name="Group 16778" opacity="0.3" style="mix-blend-mode: multiply;isolation: isolate">
          <g id="Group_16777" data-name="Group 16777">
            <g id="Group_16776" data-name="Group 16776" clip-path="url(#clip-path-8)">
              <path id="Path_13531" data-name="Path 13531" d="M39.037,66.653s9.769-2.9,13.576-3.766a56.355,56.355,0,0,1,8.806-1.033s-2.995.99-9.569,2.507-12.813,2.292-12.813,2.292" fill="#900055"/>
            </g>
          </g>
        </g>
        <path id="Path_13532" data-name="Path 13532" d="M28.138,65.446a1.741,1.741,0,0,1-2.117.7c-1.566-.4-8.868-1.384-10.085-1.719s-2.7-37.491-2.568-39.083,20.911-4.2,21.78-4.286A4.051,4.051,0,0,1,37.757,22.5c.174.386-11.736,3.516-12.607,4.385S25.1,65,25.559,65.024s2.579.422,2.579.422" fill="#de0086"/>
        <path id="Path_13533" data-name="Path 13533" d="M35.543,21.092c-.911.078.823.936,2.214,1.409s15.012,2.153,16.2,3.791-2.106,38.069-2.106,38.069l-2.066.456a4.376,4.376,0,0,0,1.665.8,38.784,38.784,0,0,0,7.433-1.956c.391-.348,3.477-38.34,3.26-39.252s-18.859-3.982-26.6-3.317" fill="#de0086"/>
        <g id="Group_16781" data-name="Group 16781" opacity="0.5" style="mix-blend-mode: multiply;isolation: isolate">
          <g id="Group_16780" data-name="Group 16780">
            <g id="Group_16779" data-name="Group 16779" clip-path="url(#clip-path-9)">
              <path id="Path_13534" data-name="Path 13534" d="M15.7,25.151c-1.119.49,7.151,1.654,10.349.912a56.8,56.8,0,0,1,12.99-1.793c6.109-.148,14.668,1.793,14.668,1.793a40.674,40.674,0,0,0-8.381-2.753c-3.854-.666,4.358-1.417,4.358-1.417l-3.313-.464-15.723.914S16.818,23.422,15.7,25.151" fill="#811166"/>
            </g>
          </g>
        </g>
        <path id="Path_13535" data-name="Path 13535" d="M12.942,11.149c-1.319.566,1.186,11.874,7.672,12.793s14.422-2.178,14.676-2.514-8.8-10.694-10.241-11.95-12.107,1.671-12.107,1.671" fill="#83003b"/>
        <path id="Path_13536" data-name="Path 13536" d="M36.431,21.958a.006.006,0,0,1-.006-.006.886.886,0,0,0-.1-.073,2.344,2.344,0,0,0,.384-.511A102.8,102.8,0,0,0,29.754,8.483a.149.149,0,0,0-.024-.031,9.011,9.011,0,0,0-1.642-2.061C23.114,3,13.889,8.866,11.554,11.158a2.085,2.085,0,0,0-.559,1.016c-.013.049-.025.1-.037.152-.267,1.326.274,3.217,1.387,5.157a18.061,18.061,0,0,0,1.812,2.584,18.282,18.282,0,0,0,2.073,2.1A15.269,15.269,0,0,0,19.173,24.2c4.9,2.554,13.695-.706,16.449-1.843.535-.219.845-.358.845-.358a.006.006,0,0,1-.006-.007l-.03-.03m-16.309,1.35a5.265,5.265,0,0,1-1.915-1.064A11.271,11.271,0,0,1,16.753,20.8c-2.371-2.8-4.1-7.018-3.393-8.307.967-1.757,16.753,7.157,20.018,9.225a.29.29,0,0,0,.049.036c-3.4.724-10.429,2.329-13.3,1.557" fill="#de0086"/>
        <path id="Path_13537" data-name="Path 13537" d="M44.708,2.932c4.915-1.346,3.117,12.085,1.918,14.27S42.045,20.8,42.045,20.8s15.01-.93,17.767-6.084a16.151,16.151,0,0,0,.839-13.066C59.632-.631,44.708,2.932,44.708,2.932" fill="#83003b"/>
        <path id="Path_13538" data-name="Path 13538" d="M61.052.468,61.046.462a.622.622,0,0,0-.159-.079C58.924-.39,48.458-.152,44.1,2.584a5.262,5.262,0,0,0-1.112.9c-3.271,3.569-7.09,17.428-5.229,17.744a7.23,7.23,0,0,0,1.6.115c-1.015.5-1.362.554.541.925a9.464,9.464,0,0,0,2.219-.1c.553-.066,1.18-.158,1.855-.279l.037-.006c.37-.067.759-.134,1.161-.213.17-.037.347-.067.523-.1.583-.121,1.192-.255,1.818-.4.413-.1.833-.2,1.258-.3l.992-.255c1.076-.286,2.159-.608,3.193-.949.461-.152.911-.31,1.355-.468a.83.83,0,0,1,.091-.037c.172-.066.341-.127.512-.194.036-.012.078-.031.121-.049.171-.067.34-.134.505-.2A.413.413,0,0,0,55.6,18.7c.31-.127.614-.261.9-.389.414-.195.8-.383,1.168-.584.121-.067.243-.133.352-.2.146-.079.281-.165.414-.25.256-.164.493-.328.705-.492l.018-.018c.11-.086.214-.171.311-.262.007,0,.012-.006.018-.012.091-.085.17-.164.249-.249a2.985,2.985,0,0,0,.292-.347c.043-.061.085-.122.122-.182a1.759,1.759,0,0,0,.139-.268,22.116,22.116,0,0,0,1.247-4.6v-.006a.231.231,0,0,0,.006-.037c.031-.152.055-.3.08-.456a.428.428,0,0,0,.011-.085c.044-.237.079-.474.116-.718,0-.018.006-.042.006-.06.018-.11.03-.213.043-.31.03-.238.06-.481.091-.724V8.44c.018-.177.036-.347.054-.517,0-.049.007-.085.007-.122l.019-.146c.023-.237.042-.474.054-.705s.03-.456.043-.681V6.251c.011-.152.017-.3.017-.456.012-.3.019-.6.019-.882,0-2.2-.3-3.947-1.046-4.445M58.3,15.445C55.6,18.108,47.753,19.464,43.187,20.3a16.745,16.745,0,0,0,5.035-4.129c5.1-5.868,9.753-14.345,11.51-13.6S61.97,11.815,58.3,15.445" fill="#de0086"/>
        <g id="Group_16784" data-name="Group 16784" opacity="0.5" style="mix-blend-mode: multiply;isolation: isolate">
          <g id="Group_16783" data-name="Group 16783">
            <g id="Group_16782" data-name="Group 16782" clip-path="url(#clip-path-10)">
              <path id="Path_13539" data-name="Path 13539" d="M51.45,65.617s1.488-.771,2.528-13.221.754-25.992,1.216-26.334,6.949-1.653,6.949-1.653-2.811,36.513-3.65,38.371-7.043,2.837-7.043,2.837" fill="#811166"/>
            </g>
          </g>
        </g>
        <g id="Group_16787" data-name="Group 16787" opacity="0.5" style="mix-blend-mode: multiply;isolation: isolate">
          <g id="Group_16786" data-name="Group 16786">
            <g id="Group_16785" data-name="Group 16785" clip-path="url(#clip-path-11)">
              <path id="Path_13540" data-name="Path 13540" d="M26.352,66.214s-1.364.112-1.723-1.96S23.266,28.823,23.8,27.342,35.129,23.5,35.129,23.5s-9.062,2.839-9.781,3.978-.629,14.774-.539,14.984,1.169.171,1.169.171.46,22.3.619,22.54,1.54.272,1.54.272a2.019,2.019,0,0,1-1.785.768" fill="#811166"/>
            </g>
          </g>
        </g>
        <g id="Group_16790" data-name="Group 16790" opacity="0.5" style="mix-blend-mode: multiply;isolation: isolate">
          <g id="Group_16789" data-name="Group 16789">
            <g id="Group_16788" data-name="Group 16788" clip-path="url(#clip-path-12)">
              <path id="Path_13541" data-name="Path 13541" d="M53.957,26.292c.52.707-.228,13.466-1.352,15.328,0,0-1.124,21.764-1.814,22.961l1.06-.22s3.144-32.483,2.106-38.069" fill="#811166"/>
            </g>
          </g>
        </g>
        <path id="Path_13542" data-name="Path 13542" d="M13.541,25.68c.16-1.039,4.254.4,7.022.512s3.088.073,3.128.52-.51,1.175-3.872.811S13.332,26.4,13.541,25.68" fill="#ff4f90"/>
        <path id="Path_13543" data-name="Path 13543" d="M54.167,25.6c-.266.1,1.691.512,3.966-.16s3.506-.788,3.58-1.031-6.229.7-7.546,1.191" fill="#ff4f90"/>
        <g id="Group_16793" data-name="Group 16793" opacity="0.5" style="mix-blend-mode: multiply;isolation: isolate">
          <g id="Group_16792" data-name="Group 16792">
            <g id="Group_16791" data-name="Group 16791" clip-path="url(#clip-path-13)">
              <path id="Path_13544" data-name="Path 13544" d="M36.425,21.951c-.049-.024-.1-.06-.158-.091-.183-.1-.4-.231-.663-.371-4.47-2.505-19.787-10.453-23.813-9.729a1.192,1.192,0,0,0-.8.413c-.024.037-.048.073-.073.116-.273,1.368.311,3.344,1.5,5.351.013.024.019.037.019.037a18.377,18.377,0,0,0,1.714,2.389,18.292,18.292,0,0,0,2.074,2.1,15.25,15.25,0,0,0,2.907,1.989c4.9,2.554,13.694-.706,16.448-1.843.536-.219.846-.359.846-.359a.006.006,0,0,1-.006-.006M16.753,20.8c-2.4-2.8-4.141-7.048-3.43-8.343C14.3,10.69,30.234,19.7,33.39,21.714h-.012c-3.411.73-10.423,2.329-13.293,1.557a5.294,5.294,0,0,1-1.879-1.028A11.264,11.264,0,0,1,16.753,20.8" fill="#811166"/>
            </g>
          </g>
        </g>
        <g id="Group_16796" data-name="Group 16796" opacity="0.5" style="mix-blend-mode: multiply;isolation: isolate">
          <g id="Group_16795" data-name="Group 16795">
            <g id="Group_16794" data-name="Group 16794" clip-path="url(#clip-path-14)">
              <path id="Path_13545" data-name="Path 13545" d="M61.052.468,61.046.462a3.663,3.663,0,0,0-2.706.45c-3.868,2.171-7.066,10.325-11.135,14.533-2.633,2.724-4.062,4.214-4.834,5.011-.128.133-.237.249-.328.346-.45.468-.547.566-.547.566l.632.8c.553-.066,1.18-.158,1.855-.279l.037-.006c.37-.067.759-.134,1.161-.213.17-.037.347-.067.523-.1.583-.121,1.192-.255,1.818-.4.413-.1.833-.2,1.258-.3l.992-.255c1.076-.286,2.159-.608,3.193-.949.461-.152.911-.31,1.355-.468a.83.83,0,0,1,.091-.037c.172-.066.341-.127.512-.194.036-.012.078-.031.121-.049.171-.067.34-.134.505-.2A.413.413,0,0,0,55.6,18.7c.31-.127.614-.261.9-.389.414-.195.8-.383,1.168-.584.121-.067.243-.133.352-.2.146-.079.281-.165.414-.25.256-.164.493-.328.705-.492l.018-.018c.11-.086.214-.171.311-.262.007,0,.012-.006.018-.012.091-.085.17-.164.249-.249a2.985,2.985,0,0,0,.292-.347c.043-.061.085-.122.122-.182a1.759,1.759,0,0,0,.139-.268,22.116,22.116,0,0,0,1.247-4.6v-.006a.231.231,0,0,0,.006-.037c.031-.152.055-.3.08-.456a.428.428,0,0,0,.011-.085c.044-.237.079-.474.116-.718,0-.018.006-.042.006-.06.018-.11.03-.213.043-.31.03-.238.06-.481.091-.724V8.44c.018-.177.036-.347.054-.517,0-.049.007-.085.007-.122l.019-.146c.023-.237.042-.474.054-.705s.03-.456.043-.681V6.251c.011-.152.017-.3.017-.456.012-.3.019-.6.019-.882,0-2.2-.3-3.947-1.046-4.445M58.3,15.445C55.6,18.108,47.753,19.464,43.187,20.3a16.745,16.745,0,0,0,5.035-4.129c5.1-5.868,9.753-14.345,11.51-13.6S61.97,11.815,58.3,15.445" fill="#811166"/>
            </g>
          </g>
        </g>
        <g id="Group_16799" data-name="Group 16799" opacity="0.3" style="mix-blend-mode: multiply;isolation: isolate">
          <g id="Group_16798" data-name="Group 16798">
            <g id="Group_16797" data-name="Group 16797" clip-path="url(#clip-path-15)">
              <path id="Path_13546" data-name="Path 13546" d="M38.393,19.027s-.1-6.892,3.1-10.608-.866,7.351-1.066,8.79S46.467,7.42,49.683,5.9s-2.463,8.607-4.359,10.737a14.309,14.309,0,0,1-5.138,3.276Z" fill="#912774"/>
            </g>
          </g>
        </g>
        <g id="Group_16802" data-name="Group 16802" opacity="0.3" style="mix-blend-mode: multiply;isolation: isolate">
          <g id="Group_16801" data-name="Group 16801">
            <g id="Group_16800" data-name="Group 16800" clip-path="url(#clip-path-16)">
              <path id="Path_13547" data-name="Path 13547" d="M36.115,20.151s-5.712-7.474-7.79-8.4-3.684,1.236-.64,4.2,8.43,4.2,8.43,4.2" fill="#912774"/>
            </g>
          </g>
        </g>
        <path id="Path_13548" data-name="Path 13548" d="M33.8,22.581c-.972,1.631,7.569.953,8.246.23l.676-.723s-2.432-2.582-4.329-3.061a4.579,4.579,0,0,0-2.9,0s1.258,1.612.71,2.964-2.406.59-2.406.59" fill="#de0086"/>
        <g id="Group_16805" data-name="Group 16805" opacity="0.47">
          <g id="Group_16804" data-name="Group 16804">
            <g id="Group_16803" data-name="Group 16803" clip-path="url(#clip-path-17)">
              <path id="Path_13549" data-name="Path 13549" d="M33.8,22.581c-.972,1.631,7.569.953,8.246.23l.676-.723s-2.432-2.582-4.329-3.061a4.579,4.579,0,0,0-2.9,0s1.258,1.612.71,2.964-2.406.59-2.406.59" fill="#f0f"/>
            </g>
          </g>
        </g>
        <g id="Group_16808" data-name="Group 16808" opacity="0.5" style="mix-blend-mode: multiply;isolation: isolate">
          <g id="Group_16807" data-name="Group 16807">
            <g id="Group_16806" data-name="Group 16806" clip-path="url(#clip-path-18)">
              <path id="Path_13550" data-name="Path 13550" d="M49.117,15.106c-.893,1.983,10.854-1.147,11.374-5.169s.319-7.152-1.279-6.952S53.331,9.76,51.8,11.746s-2.68,3.36-2.68,3.36" fill="#9d1166"/>
            </g>
          </g>
        </g>
        <g id="Group_16811" data-name="Group 16811" opacity="0.5" style="mix-blend-mode: multiply;isolation: isolate">
          <g id="Group_16810" data-name="Group 16810">
            <g id="Group_16809" data-name="Group 16809" clip-path="url(#clip-path-19)">
              <path id="Path_13551" data-name="Path 13551" d="M13.548,12.331c-.938.214.142,5.678,3.139,7.416s12.227.9,12.826,0-13.8-7.909-15.965-7.416" fill="#9d1166"/>
            </g>
          </g>
        </g>
        <g id="Group_16814" data-name="Group 16814" opacity="0.5" style="mix-blend-mode: multiply;isolation: isolate">
          <g id="Group_16813" data-name="Group 16813">
            <g id="Group_16812" data-name="Group 16812" clip-path="url(#clip-path-20)">
              <path id="Path_13552" data-name="Path 13552" d="M33.8,23.032c.7.67,3.256-.308,5.694-1.128s3.228.184,3.228.184A2.21,2.21,0,0,1,41.5,23.255a39.871,39.871,0,0,1-5.861.527,2.9,2.9,0,0,1-1.838-.75" fill="#811166"/>
            </g>
          </g>
        </g>
        <g id="Group_16817" data-name="Group 16817" opacity="0.47">
          <g id="Group_16816" data-name="Group 16816">
            <g id="Group_16815" data-name="Group 16815" clip-path="url(#clip-path-21)">
              <path id="Path_13553" data-name="Path 13553" d="M43.749,3.482c-2.44,2.593,4.544.449,7.672.9S57.45,1.046,58.094.547,46.383.5,43.749,3.482" fill="#f0f"/>
            </g>
          </g>
        </g>
        <g id="Group_16820" data-name="Group 16820" opacity="0.47">
          <g id="Group_16819" data-name="Group 16819">
            <g id="Group_16818" data-name="Group 16818" clip-path="url(#clip-path-22)">
              <path id="Path_13554" data-name="Path 13554" d="M14.34,10.177c-.329.776,4.235.879,10.868.32s3.317-3.636,1.079-4.276S15.322,7.863,14.34,10.177" fill="#f0f"/>
            </g>
          </g>
        </g>
        <path id="Path_13555" data-name="Path 13555" d="M6.587,60.147,6.971,40.9a181.392,181.392,0,0,0-.384,19.243" fill="#8981ff"/>
        <path id="Path_13556" data-name="Path 13556" d="M3.816,24.049c-.544-.846,5.255-2.9,5.255-2.9s-6.939,1.636-6.915,2.364,1.66.537,1.66.537" fill="#8981ff"/>
        <path id="Path_13557" data-name="Path 13557" d="M18.216,12.263c-.7-.008,8.527,4.765,11.171,6.053s4.2,2.23,4.2,2.23-12.856-8.253-15.373-8.283" fill="#ff4f90"/>
        <path id="Path_13558" data-name="Path 13558" d="M45.785,16.917s7.467-10.6,9.561-13.163c0,0-5.007,9.015-9.561,13.163" fill="#ff4f90"/>
        <g id="Group_16823" data-name="Group 16823" opacity="0.5" style="mix-blend-mode: multiply;isolation: isolate">
          <g id="Group_16822" data-name="Group 16822">
            <g id="Group_16821" data-name="Group 16821" clip-path="url(#clip-path-23)">
              <path id="Path_13559" data-name="Path 13559" d="M61.751,9.48a25.287,25.287,0,0,1-1.465,5.965c-1.241,2.877-10.593,5.461-16.267,6.44.706-.17,12.083-2.876,14.8-5.351,1.843-1.678,2.615-4.98,2.931-7.054" fill="#9d1166"/>
            </g>
          </g>
        </g>
        <g id="Group_16826" data-name="Group 16826" opacity="0.5" style="mix-blend-mode: multiply;isolation: isolate">
          <g id="Group_16825" data-name="Group 16825">
            <g id="Group_16824" data-name="Group 16824" clip-path="url(#clip-path-24)">
              <path id="Path_13560" data-name="Path 13560" d="M61.964,7.655l-.018.147a1.527,1.527,0,0,0,.012-.158Z" fill="#9d1166"/>
            </g>
          </g>
        </g>
        <g id="Group_16829" data-name="Group 16829" opacity="0.5" style="mix-blend-mode: multiply;isolation: isolate">
          <g id="Group_16828" data-name="Group 16828">
            <g id="Group_16827" data-name="Group 16827" clip-path="url(#clip-path-25)">
              <path id="Path_13561" data-name="Path 13561" d="M5.029,40.219l-.079-.085a15.308,15.308,0,0,1-1.028-3.825A115.912,115.912,0,0,1,2.159,23.515c-.462-.675,4.08-1.849,10.039-3-1.587.34-7.351,1.636-9,2.8a1.063,1.063,0,0,0-.426.474c-.432,1.442,1.551,15.58,2.256,16.431" fill="#6e3b66"/>
            </g>
          </g>
        </g>
        <g id="Group_16832" data-name="Group 16832" opacity="0.5" style="mix-blend-mode: multiply;isolation: isolate">
          <g id="Group_16831" data-name="Group 16831">
            <g id="Group_16830" data-name="Group 16830" clip-path="url(#clip-path-26)">
              <path id="Path_13562" data-name="Path 13562" d="M62.1,4.913c0,.286-.006.584-.018.882q0,.228-.018.456v.018c-.013.225-.025.45-.043.681s-.03.468-.055.705l-.018.146c0,.037-.006.073-.006.122-.018.17-.037.341-.055.517v.006c-.03.243-.061.486-.091.724-.012.1-.024.2-.043.31,0,.018-.006.042-.006.061-.036.243-.073.48-.115.717a.363.363,0,0,1-.012.085c-.025.152-.049.3-.079.456.079-.632.912-8.093-3.2-9.887A4.393,4.393,0,0,0,57.227.589c-5.588-.887-13.122,2-13.122,2C48.459-.152,58.924-.39,60.888.383a.615.615,0,0,1,.158.079l.006.006c.742.5,1.046,2.25,1.046,4.445" fill="#9d1166"/>
            </g>
          </g>
        </g>
        <g id="Group_16835" data-name="Group 16835" opacity="0.5" style="mix-blend-mode: multiply;isolation: isolate">
          <g id="Group_16834" data-name="Group 16834">
            <g id="Group_16833" data-name="Group 16833" clip-path="url(#clip-path-27)">
              <path id="Path_13563" data-name="Path 13563" d="M29.729,8.452c-.243-.31-2.305-2.84-4.974-2.706-2.846.14-11.255,3.205-12.787,5.692a2.972,2.972,0,0,0-.177.322c-1.027,2.122.188,4.962.553,5.722.036.073.062.128.08.158-1.192-2.006-1.777-3.983-1.5-5.351.024-.043.049-.079.073-.116a2.1,2.1,0,0,1,.559-1.015C13.889,8.865,23.113,3,28.087,6.391a9.011,9.011,0,0,1,1.642,2.061" fill="#9d1166"/>
            </g>
          </g>
        </g>
      </g>
    </g>
  </g>
</svg>
