<svg id="profile" xmlns="http://www.w3.org/2000/svg" width="70" height="70" viewBox="0 0 70 70">
  <path id="Path_8349" data-name="Path 8349" d="M61.139,49.166l2-.39.329-1.672L42.487,15.481,10.813,19.536a5.873,5.873,0,0,0-4.511,3.4c-1.267,3.041-.408,4.814-.408,4.814L26.57,62l.085.014a1.634,1.634,0,0,0,1.74,1c1.621-.2,33.191-6.486,33.191-6.486l.329-1.6-2.461-3.471a4.677,4.677,0,0,1,1.685-2.3" opacity="0.3"/>
  <path id="Path_8350" data-name="Path 8350" d="M68.165,41.994,44.927,6.968,9.845,11.459a6.509,6.509,0,0,0-5,3.761c-1.4,3.368-.449,5.333-.449,5.333L27.3,58.5l2.863.448Z" fill="#bb1622"/>
  <path id="Path_8351" data-name="Path 8351" d="M44.927,6.968,9.845,11.46a6.758,6.758,0,0,0-2.009.637L30.527,51.531l25.192-3.982L68.165,42Z" fill="#d32137"/>
  <path id="Path_8352" data-name="Path 8352" d="M64.937,51.339s-1.458-.646-1.571-1.909a5.794,5.794,0,0,1,2.722-5.473c2.47-1.347-9.515,1.095-9.515,1.095L31.85,49.908s-2.917.729-3.734,3.227-1.095,4.322-.14,5.133,2.722.674,4.266.337,32.695-7.266,32.695-7.266" fill="#f1d2a1"/>
  <path id="Path_8353" data-name="Path 8353" d="M67.8,43.846s-31.433,6.118-35.11,6.848-4.294,4.462-4.322,5.95,1.179,1.431,1.179,1.431l36.906-7.408-.364,1.768S31.119,59.4,29.322,59.62s-2.916-1.8-2.132-5.95,5.5-4.715,5.5-4.715l35.475-6.96Z" fill="#84101f"/>
  <path id="Path_8354" data-name="Path 8354" d="M13.353,13.451,33.139,46.374l31.49-6.23L44.085,9.158Z" fill="#f63a4c"/>
  <path id="Path_8355" data-name="Path 8355" d="M33.489,15.609s-9.783,1.525-6.183,11.338,15.5,10.29,18.642,9.242,8.214-4.764,4.338-12.291-11.721-9.051-16.8-8.289" fill="#f4901e"/>
  <path id="Path_8356" data-name="Path 8356" d="M35.914,17.116a14.819,14.819,0,0,0-2.168.156c-.095.016-3.455.622-4.884,3.047-.9,1.524-.89,3.559.024,6.049a11.99,11.99,0,0,0,6.158,6.757,17.97,17.97,0,0,0,7.744,1.768,8.74,8.74,0,0,0,2.626-.3A8.071,8.071,0,0,0,47.8,33.3a5.783,5.783,0,0,0,1.821-2.342c.7-1.73.423-3.846-.835-6.288a13.34,13.34,0,0,0-5.858-5.908A15.522,15.522,0,0,0,35.914,17.116Zm0-1.683A15.745,15.745,0,0,1,50.285,23.9c3.876,7.527-1.2,11.243-4.337,12.291s-15.043.572-18.643-9.242,6.184-11.338,6.184-11.338a16.428,16.428,0,0,1,2.425-.176" fill="#f8bc78"/>
  <path id="Path_8357" data-name="Path 8357" d="M33.981,16.819s-8.925,1.347-5.641,10.019,14.145,9.093,17.008,8.167,7.493-4.21,3.957-10.862-10.693-8-15.324-7.324" fill="#f4901e"/>
  <path id="Path_8358" data-name="Path 8358" d="M36.654,18.575c.787.04,1.277,2.6,1.484,3.282s.054,1.109-.705,1.109c-2.629,0-2.824-4.495-.779-4.391" fill="#634e42" opacity="0.3"/>
  <path id="Path_8359" data-name="Path 8359" d="M31.765,24.972c-.638-1-1.273-2.58-.576-3.072.334-.233,2.371,1.128,3.044,1.718a1.632,1.632,0,0,1,.7,1.085c.058.758-.887,1.193-1.732,1.177a1.663,1.663,0,0,1-1.439-.908" fill="#634e42" opacity="0.3"/>
  <path id="Path_8360" data-name="Path 8360" d="M42.117,23.713A2.186,2.186,0,0,1,40.4,22.368c-.254-.685-1.019-3.454.343-3.144,1.77.525,5.307,4.808,1.369,4.489" fill="#634e42" opacity="0.3"/>
  <path id="Path_8361" data-name="Path 8361" d="M48.106,26.223c.053.633-.4,1.033-1.216.905a2.973,2.973,0,0,1-2.3-2.013.814.814,0,0,1,.46-.85c.51-.33,1.7-.857,1.946-.685a3.956,3.956,0,0,1,1.11,2.643" fill="#634e42" opacity="0.3"/>
  <path id="Path_8362" data-name="Path 8362" d="M45.4,30.682a2.711,2.711,0,0,1-1.066,2.906c-.554.344-1.505-.076-2.831-.186-1.088-.089-2.165.556-3.064-.09a9.577,9.577,0,0,1-3.42-5.195c-.219-1.137.834-1.549,1.615-2.092a5.357,5.357,0,0,1,3.387-1.113,6.1,6.1,0,0,1,3.086,2.216c.914,1.063,2.137,2.278,2.293,3.554" fill="#634e42" opacity="0.3"/>
  <path id="Path_8363" data-name="Path 8363" d="M36.367,18c.629.016.86,2.251,1.063,2.931s-.054,1.152-.854,1.149c-2.773,0-1.842-4.121-.209-4.08" fill="#eaeaea"/>
  <path id="Path_8364" data-name="Path 8364" d="M31.085,24.12c-.679-1.128-1.342-2.661-.692-3.12.313-.221,2.254,1.108,2.933,1.736a1.967,1.967,0,0,1,.751,1.2,1.3,1.3,0,0,1-1.554,1.318,1.963,1.963,0,0,1-1.438-1.13" fill="#eaeaea"/>
  <path id="Path_8365" data-name="Path 8365" d="M41.31,23a2.51,2.51,0,0,1-1.774-1.506c-.267-.712-.832-3.28.445-3.028,1.852.507,5.1,4.847,1.329,4.534" fill="#eaeaea"/>
  <path id="Path_8366" data-name="Path 8366" d="M47.205,25.217c-.027.555-.513.946-1.314.843-1.05-.133-2.083-1.038-2.023-1.586.027-.274.268-.47.574-.651.5-.341,1.7-1.037,2.019-.8a2.233,2.233,0,0,1,.744,2.191" fill="#eaeaea"/>
  <path id="Path_8367" data-name="Path 8367" d="M44.45,29.543c.287,1.711.046,2.777-.678,3.34-.576.456-1.706-.216-3.111-.417-1.153-.161-2.194.526-3.141-.237a9.855,9.855,0,0,1-3.37-5.094c-.138-.943.984-1.192,1.805-1.629,1.217-.646,2.467-1.389,3.552-1.14a4.635,4.635,0,0,1,2.742,1.75c.81.9,1.976,2.078,2.2,3.427" fill="#eaeaea"/>
  <path id="Path_8368" data-name="Path 8368" d="M32.114,21.815c-.767-.517-1.53-.95-1.722-.816-.642.451-.011,1.929.652,3.051a3.457,3.457,0,0,1,1.07-2.235" fill="#fff"/>
  <path id="Path_8369" data-name="Path 8369" d="M36.583,18.032a2.212,2.212,0,0,0-1.737,2.4,3.956,3.956,0,0,1,2.134-1.1c-.1-.779-.138-1.306-.4-1.3" fill="#fff"/>
  <path id="Path_8370" data-name="Path 8370" d="M39.968,18.46c-.675-.19-.921.475-.86,1.279a18.944,18.944,0,0,1,3.952,1.834,5.194,5.194,0,0,0-3.092-3.113" fill="#fff"/>
  <path id="Path_8371" data-name="Path 8371" d="M46.461,23.026c-.161-.121-.467-.019-.875.175a8.3,8.3,0,0,1,1.587,1.3,1.849,1.849,0,0,0-.712-1.475" fill="#fff"/>
  <path id="Path_8372" data-name="Path 8372" d="M42.25,26.115a4.645,4.645,0,0,0-2.742-1.75c-1.084-.248-2.337.494-3.552,1.14-.82.436-1.943.686-1.8,1.629a3.279,3.279,0,0,0,.123.518,11.361,11.361,0,0,1,5.782-.969c1.512.3,2.809,1.673,4.388,2.826-.239-1.335-1.4-2.5-2.195-3.394" fill="#fff"/>
  <rect id="frame" width="70" height="70" fill="none"/>
</svg>
