<svg id="prompt" xmlns="http://www.w3.org/2000/svg" xmlns:xlink="http://www.w3.org/1999/xlink" width="70" height="70" viewBox="0 0 70 70">
  <defs>
    <clipPath id="clip-path">
      <path id="Path_6327" data-name="Path 6327" d="M24.274,53.639c.884,14,9.3,15.269,11.722,18.567s2.511,12.086,2.511,12.086l7.043-.022,7.042.022S52.676,75.5,55.1,72.206s10.838-4.57,11.722-18.567S56.8,28.7,45.55,28.7,23.39,39.641,24.274,53.639" fill="none"/>
    </clipPath>
    <radialGradient id="radial-gradient" cx="0.46" cy="0.382" r="0.447" gradientUnits="objectBoundingBox">
      <stop offset="0" stop-color="#ffde27"/>
      <stop offset="0.785" stop-color="#ffb63e"/>
      <stop offset="0.98" stop-color="#fc813e"/>
      <stop offset="1" stop-color="#fc813e"/>
    </radialGradient>
    <clipPath id="clip-path-2">
      <path id="Path_6328" data-name="Path 6328" d="M38.3,76.576s-2.629,1.357-2.593,1.737.624,10.924,1.828,12.608,5.672,1.856,7.6,1.856,8.239-.107,8.7-1.1S55.06,78.313,55.06,78.313l-2.6-1.737a15.383,15.383,0,0,0-6.928-1.495A17.623,17.623,0,0,0,38.3,76.576" fill="none"/>
    </clipPath>
    <linearGradient id="linear-gradient" x1="-1.84" y1="1.804" x2="-1.788" y2="1.804" gradientUnits="objectBoundingBox">
      <stop offset="0" stop-color="#878686"/>
      <stop offset="0.016" stop-color="#878686"/>
      <stop offset="1" stop-color="#908f8f"/>
    </linearGradient>
  </defs>
  <g id="Group_9010" data-name="Group 9010">
    <path id="Path_6326" data-name="Path 6326" d="M52.6,31.217c-11.252,0-22.159,10.943-21.276,24.941s9.3,15.27,11.723,18.567A12.5,12.5,0,0,1,44.788,79.4c-.769.422-2.057,1.169-2.032,1.436.035.367.624,10.923,1.829,12.609s5.671,1.855,7.6,1.855,8.238-.107,8.695-1.1,1.231-13.369,1.231-13.369l-1.753-1.17a12.988,12.988,0,0,1,1.8-4.937c2.427-3.3,10.839-4.57,11.723-18.567S63.85,31.217,52.6,31.217" transform="translate(-11 -25.296)" opacity="0.3"/>
    <g id="Group_8623" data-name="Group 8623" transform="translate(-11 -25.296)" clip-path="url(#clip-path)">
      <rect id="Rectangle_3412" data-name="Rectangle 3412" width="44.319" height="55.594" transform="translate(23.39 28.698)" fill="url(#radial-gradient)"/>
    </g>
    <g id="Group_8625" data-name="Group 8625" transform="translate(-11 -25.296)" clip-path="url(#clip-path-2)">
      <rect id="Rectangle_3413" data-name="Rectangle 3413" width="19.388" height="17.696" transform="translate(35.672 75.081)" fill="url(#linear-gradient)"/>
    </g>
    <path id="Path_6329" data-name="Path 6329" d="M53.829,91.682c-.457.988-6.761,1.1-8.7,1.1s-6.392-.17-7.6-1.855c-1.134-4.9,14.226-3.777,16.292.76" transform="translate(-11 -25.296)" fill="#a5a5a5"/>
    <path id="Path_6330" data-name="Path 6330" d="M29.528,39.04c-4.633,6.023,4.9,7.444,6.083,3.054s-4.174-5.535-6.083-3.054" transform="translate(-11 -25.296)" fill="#fff" opacity="0.3"/>
    <path id="Path_6331" data-name="Path 6331" d="M38.454,76.941c-1.279.523-.208,8.5,1.044,9.748s5.412.176,6.941,0,1.349-8.412,1.126-9.748-4.142-2.033-9.111,0" transform="translate(-11 -25.296)" fill="#c4c4c4" opacity="0.3"/>
    <path id="Path_6332" data-name="Path 6332" d="M54,44.731c-2.823,1.328-5.1,7.635-.576,10.562s7.066-4.454,5.265-8.908A3.408,3.408,0,0,0,54,44.731" transform="translate(-11 -25.296)" fill="#fff" opacity="0.3"/>
    <path id="Path_6333" data-name="Path 6333" d="M41.876,50.111a2.9,2.9,0,0,1-2.293-.068,5.684,5.684,0,0,1-3.317-4.852,7.909,7.909,0,0,1,2.089-5.659A9.811,9.811,0,0,1,55,42.864a14.26,14.26,0,0,1,.274,7.049A5.784,5.784,0,0,1,53.39,53.74c-1.264.918-3.043.822-4.346,1.683a5.138,5.138,0,0,0-1.962,4.016,7.694,7.694,0,0,1-.537,3.338c-.563.99-2.181,1.446-2.8.492a2.417,2.417,0,0,1-.251-1.383c.065-3.634.421-7.839,3.416-9.9,1.095-.753,2.467-1.139,3.339-2.143,1.277-1.47,1.026-3.712.423-5.564a6.817,6.817,0,0,0-2.5-3.794,5.019,5.019,0,0,0-4.564-.242,8.587,8.587,0,0,0-3.568,3.045,3.981,3.981,0,0,0-.879,2.091,1.691,1.691,0,0,0,1.188,1.751,3.235,3.235,0,0,1,1.408-1.469c.495-.26,1.978,3.569.12,4.447" transform="translate(-11 -25.296)" fill="#fff"/>
    <path id="Path_6334" data-name="Path 6334" d="M42.947,67.957a1.631,1.631,0,0,0,.415,1.812c.654.507,1.585.25,2.413.235a2,2,0,0,0,.628-.059c.493-.172.688-.759.764-1.275a2.364,2.364,0,0,0-.135-1.443,1.839,1.839,0,0,0-1.342-.877,2.3,2.3,0,0,0-2.743,1.607" transform="translate(-11 -25.296)" fill="#fff"/>
    <rect id="frame" width="70" height="70" fill="none"/>
  </g>
</svg>
