<svg id="audio" xmlns="http://www.w3.org/2000/svg" width="70" height="70.004" viewBox="0 0 70 70.004">
  <path id="Path_5166" data-name="Path 5166" d="M62.632,27.06C56.427,7.813,44.336,4.427,38.326,6.531a11.35,11.35,0,0,0-6.376,5.652C23.343,27.21,6.672,36.224,6.672,36.224S2.945,37.9,5.18,45.212c.058.192.121.375.184.556l0-.007.012.033c.05.14.1.274.154.408.026.067.051.136.077.2.053.129.108.252.163.375.027.062.058.126.084.188.055.116.113.233.17.344.03.058.059.116.09.175.058.109.116.213.178.315.032.055.063.11.095.161.058.1.123.195.185.289.033.05.065.1.1.148.063.091.127.175.191.263l.1.135c.065.082.13.161.2.238.035.041.07.083.106.123q.1.111.2.216l.106.109c.068.067.136.131.205.194l.108.1.207.176.109.086c.07.054.139.1.208.154l.11.077c.07.047.139.092.208.135.037.023.074.046.111.067q.1.063.207.117l.109.058c.07.036.138.07.207.1l.108.049c.068.031.136.059.2.087l.105.041c.067.026.134.05.2.073l.1.034c.066.021.131.041.2.058l.1.028c.064.017.128.033.191.047l.1.021c.062.014.124.027.184.038l.093.016.178.027.088.011.169.019.085.007.158.011a.7.7,0,0,1,.08,0c.05,0,.1,0,.147,0h.278l.123,0,.062,0c.036,0,.074,0,.108-.007l.04,0L20.879,70l9.226-2.82,2.065-2.491-.534-1.161L28.9,62.077,24.208,51.242a74.189,74.189,0,0,1,19.834,4.882c.162.064.325.127.488.193,0,0,5.278,2.519,10.257,1.426S68.838,46.307,62.632,27.06" transform="translate(0 0)" opacity="0.3"/>
  <path id="Path_5167" data-name="Path 5167" d="M32.393,58.7l-.534-1.161L29.125,56.09,22.077,39.82l-7.491,2.648-2.064,2.491L21.1,64.016l9.227-2.82Z" fill="#6f1e86"/>
  <path id="Path_5168" data-name="Path 5168" d="M21.1,64.016l9.227-2.82-.534-1.161L27.06,58.581,20.011,42.308l-7.49,2.648Z" fill="#802eab"/>
  <path id="Path_5169" data-name="Path 5169" d="M44.751,50.329c-18.048-7.255-31.6-5.08-31.6-5.08S7.639,46.54,5.4,39.228,6.895,30.24,6.895,30.24,23.566,21.226,32.174,6.2A11.343,11.343,0,0,1,38.55.547c6.008-2.1,18.1,1.283,24.305,20.529s-2.868,29.587-7.847,30.679-10.257-1.426-10.257-1.426" transform="translate(0 0)" fill="#e6e6e6"/>
  <path id="Path_5170" data-name="Path 5170" d="M40.118,4.042c-3.075.94-11.779,6.609-6.335,26.09,5.34,19.11,18.332,18.308,20.687,17.583.987-.3,13.511-5.029,5.655-27.378C52.992.043,40.118,4.042,40.118,4.042" transform="translate(0 0)" fill="#8b8d93"/>
  <path id="Path_5171" data-name="Path 5171" d="M40.946,6.554c-2.6.8-9.936,5.7-5.1,22.93,4.743,16.9,15.772,16.336,17.764,15.723.835-.257,11.424-4.288,4.509-24.073C51.839,3.171,40.946,6.554,40.946,6.554" transform="translate(0 0)" fill="#9c9faa"/>
  <path id="Path_5172" data-name="Path 5172" d="M48.279,30.21,45.5,21.787l-11.158-.122a42.876,42.876,0,0,0,1.5,7.819A30.735,30.735,0,0,0,39.536,38Z" transform="translate(0 0)" fill="#b5b7c1"/>
  <path id="Path_5173" data-name="Path 5173" d="M45.5,21.787c-.621.19-2.387,1.31-1.342,5.07,1.026,3.688,3.643,3.5,4.118,3.353.2-.058,2.731-1.008,1.207-5.317C48.1,20.981,45.5,21.787,45.5,21.787" transform="translate(0 0)" fill="#dfe0e5"/>
  <path id="Path_5174" data-name="Path 5174" d="M11.721,42.341s-4.44.86-6.138-2.567c2.334,6.7,7.564,5.474,7.564,5.474s13.312-2.135,31.116,4.887c-5.96-3.117-9.38-10.082-9.38-10.082S31.5,38.584,11.721,42.341" transform="translate(0 0)" fill="#c6c8cd"/>
  <path id="Path_5175" data-name="Path 5175" d="M29.3,15.144A24.409,24.409,0,0,1,31.26,7.723C22.441,21.834,6.894,30.239,6.894,30.239s-2.227,1.006-2.2,4.842c.014-.194.2-1.6,2.72-3.042,2.716-1.556,17.1-11.21,21.89-16.9" transform="translate(0 0)" fill="#fff"/>
  <path id="Path_5176" data-name="Path 5176" d="M32.45,5.661c-.189.334-.277.538-.277.538a1.592,1.592,0,0,0,.277-.538" transform="translate(0 0)" fill="#fff"/>
  <rect id="frame" width="70" height="70.004" fill="none"/>
</svg>
