<svg id="question" xmlns="http://www.w3.org/2000/svg" xmlns:xlink="http://www.w3.org/1999/xlink" width="70" height="70" viewBox="0 0 70 70">
  <defs>
    <clipPath id="clip-path">
      <rect id="Rectangle_3380" data-name="Rectangle 3380" width="70" height="70" fill="none"/>
    </clipPath>
    <clipPath id="clip-path-3">
      <rect id="Rectangle_3377" data-name="Rectangle 3377" width="33.982" height="43.681" transform="translate(20.299 8.187)" fill="none"/>
    </clipPath>
    <clipPath id="clip-path-4">
      <rect id="Rectangle_3378" data-name="Rectangle 3378" width="16.159" height="14.289" transform="translate(25.674 54.789)" fill="none"/>
    </clipPath>
  </defs>
  <g id="Group_8545" data-name="Group 8545">
    <g id="Group_8544" data-name="Group 8544" clip-path="url(#clip-path)">
      <g id="Group_8543" data-name="Group 8543">
        <g id="Group_8542" data-name="Group 8542" clip-path="url(#clip-path)">
          <g id="Group_8538" data-name="Group 8538" opacity="0.3">
            <g id="Group_8537" data-name="Group 8537">
              <g id="Group_8536" data-name="Group 8536" clip-path="url(#clip-path-3)">
                <path id="Path_6275" data-name="Path 6275" d="M31.845,34.527a8.348,8.348,0,0,1-1.667.6,5.861,5.861,0,0,0-3.425,1.986,5.373,5.373,0,0,0-.848,2.372,11.83,11.83,0,0,0,1,6.719c.754,1.612,2.11,3.848,3.654,4.805a5.772,5.772,0,0,0,2.036.725,7.541,7.541,0,0,0,4.559-.52,5.417,5.417,0,0,0,2.94-3.428c.215-.835.195-1.713.356-2.56.5-2.617,2.616-4.593,4.74-6.2,2.466-1.863,5.325-3.144,6.578-6.165,2.3-5.536,3.834-11.661.886-17.311a32.178,32.178,0,0,0-2.527-4.07,3.407,3.407,0,0,0-1.561-1.372A3.6,3.6,0,0,0,47.412,10a10.875,10.875,0,0,1-3.044-.047c-.8-.232-1.559-.71-2.383-.946a20.944,20.944,0,0,0-6.029-.818c-5.01.067-8.856,2.542-12.905,5.131a7.1,7.1,0,0,0-1.613,1.312A5.686,5.686,0,0,0,20.4,19.255,12.258,12.258,0,0,0,22.757,24.7,7.005,7.005,0,0,0,29.2,27.141c1.772-.3,3.01-1.851,4.212-3.187,1.722-1.915,4.584-3.463,6.777-1.246a5.449,5.449,0,0,1,1.615,2.847,5.414,5.414,0,0,1-1.4,3.8c-1.8,2.143-4.443,3.06-6.858,4.3-.613.315-1.151.616-1.7.877"/>
              </g>
            </g>
          </g>
          <g id="Group_8541" data-name="Group 8541" opacity="0.3">
            <g id="Group_8540" data-name="Group 8540">
              <g id="Group_8539" data-name="Group 8539" clip-path="url(#clip-path-4)">
                <path id="Path_6276" data-name="Path 6276" d="M29.144,55.432a4.789,4.789,0,0,0-2.3,1.38,5.1,5.1,0,0,0-1.08,4.249c.513,2.924,3.089,5.582,5.691,6.822,2.145,1.021,4.859,1.732,7.118.664a6.294,6.294,0,0,0,3.215-5.193A10.6,10.6,0,0,0,40.235,56.7a4.7,4.7,0,0,0-.835-1.06,3.965,3.965,0,0,0-3.154-.809c-1.049.138-2.071.86-3.1.875-.968.014-1.917-.545-2.957-.46a5.68,5.68,0,0,0-1.049.185"/>
              </g>
            </g>
          </g>
          <path id="Path_6277" data-name="Path 6277" d="M31.32,30.677a8.348,8.348,0,0,1-1.667.6,5.861,5.861,0,0,0-3.425,1.986,5.373,5.373,0,0,0-.848,2.372,11.83,11.83,0,0,0,1,6.719c.754,1.612,2.11,3.848,3.654,4.8a5.772,5.772,0,0,0,2.036.725,7.541,7.541,0,0,0,4.559-.52,5.417,5.417,0,0,0,2.94-3.428c.215-.835.195-1.713.356-2.56.5-2.617,2.616-4.593,4.74-6.2,2.466-1.863,5.325-3.144,6.578-6.165,2.3-5.536,3.834-11.661.886-17.311a32.178,32.178,0,0,0-2.527-4.07,3.407,3.407,0,0,0-1.561-1.372,3.6,3.6,0,0,0-1.158-.108A10.875,10.875,0,0,1,43.843,6.1c-.8-.232-1.559-.71-2.383-.946a20.944,20.944,0,0,0-6.029-.818c-5.01.067-8.856,2.542-12.905,5.131a7.1,7.1,0,0,0-1.613,1.312A5.686,5.686,0,0,0,19.876,15.4a12.258,12.258,0,0,0,2.356,5.441,7.005,7.005,0,0,0,6.448,2.445c1.772-.3,3.01-1.851,4.212-3.187,1.722-1.915,4.584-3.463,6.777-1.246A5.449,5.449,0,0,1,41.284,21.7a5.414,5.414,0,0,1-1.4,3.8c-1.8,2.143-4.443,3.06-6.858,4.3-.613.315-1.151.616-1.7.877" fill="#bcbcbc"/>
          <path id="Path_6278" data-name="Path 6278" d="M28.619,51.582a4.789,4.789,0,0,0-2.305,1.38,5.1,5.1,0,0,0-1.08,4.249c.513,2.924,3.089,5.582,5.691,6.822,2.145,1.021,4.859,1.732,7.118.664A6.294,6.294,0,0,0,41.258,59.5a10.6,10.6,0,0,0-1.548-6.653,4.7,4.7,0,0,0-.835-1.06,3.965,3.965,0,0,0-3.154-.809c-1.049.138-2.071.86-3.1.875-.968.014-1.917-.545-2.957-.46a5.68,5.68,0,0,0-1.049.185" fill="#bcbcbc"/>
          <path id="Path_6279" data-name="Path 6279" d="M30.128,27.072a11.765,11.765,0,0,0-3.45,3.123c-1.959,2.88-1.667,6.8-.317,10.013a6.782,6.782,0,0,0,2.452,3.273,5.779,5.779,0,0,0,2.036.725,7.54,7.54,0,0,0,4.559-.52,5.424,5.424,0,0,0,2.941-3.428c.214-.835.194-1.713.355-2.56.5-2.617,2.616-4.593,4.741-6.2,1.677-1.268,3.988-2.583,5.076-4.448a27.206,27.206,0,0,0,3.474-9.8c.5-4.1-.889-8.95-4.1-11.7C39.844-1.333,25.268-1.665,20.45,9.2c-1.157,2.61-1.3,5.7.557,7.971a7,7,0,0,0,6.448,2.444c1.772-.3,3.01-1.85,4.212-3.186,1.722-1.915,4.585-3.463,6.777-1.246a5.449,5.449,0,0,1,1.615,2.847,5.414,5.414,0,0,1-1.4,3.8c-2.284,2.722-5.649,3.384-8.529,5.244" fill="#fff"/>
          <path id="Path_6280" data-name="Path 6280" d="M27.9,49.76a6.631,6.631,0,0,0-2.51,4.481c-.316,2.922,1.851,4.944,4.312,6.116,2.145,1.022,4.858,1.732,7.118.664a6.3,6.3,0,0,0,3.215-5.193c.225-2.419-.712-5.091-2.828-6.284-2.592-1.462-6.905-1.637-9.307.216" fill="#fff"/>
        </g>
      </g>
    </g>
  </g>
</svg>
