<svg id="quests" xmlns="http://www.w3.org/2000/svg" width="70" height="70" viewBox="0 0 70 70">
  <path id="Path_4149" data-name="Path 4149" d="M66.521,23.664l.229-.23.009-.009q.127-.129.264-.273l.022-.023q.131-.137.268-.287l.018-.019c.2-.216.4-.45.6-.7l.011-.015a9.435,9.435,0,0,0,1.8-3.23v0a5.374,5.374,0,0,0-1.531-5.482,11.862,11.862,0,0,0-3.358-2.5h0c-.147-.072-.292-.139-.436-.2l-.031-.013q-.2-.088-.4-.166l-.043-.016c-.13-.05-.258-.1-.386-.141l-.042-.015c-.131-.044-.26-.085-.388-.123l-.025-.008a10.807,10.807,0,0,0-1.554-.338,8.961,8.961,0,0,0-2.659-.018L37.5,25.478l-.844-2.013-3,.762-2.9,1.988,1.2,3.307L29.527,31.3a9.448,9.448,0,0,0-1.713-.118s-5.423-.042-10.5.085h0l-.641.017-.245.008-.436.013-.248.008-.513.018-.148.005-.617.025-.208.009-.439.02-.2.01-.536.028-.066,0c-.192.011-.379.022-.562.034l-.17.011-.394.027-.163.012c-.169.013-.334.026-.493.04h-.012c-.162.014-.317.029-.467.045l-.127.013-.317.036-.12.015c-.132.017-.26.034-.379.052a8.807,8.807,0,0,0-6,3.644,10.837,10.837,0,0,0-2.131,3.187c-2,3.686-3.922,11.516,5.073,23.081C19.5,78.028,30.005,73.848,32.363,72.884c.742-.3,2.227-1.808,3.356-4.234.02-.038.04-.076.06-.115.031-.058.061-.117.092-.176s.053-.106.08-.16.061-.124.09-.186l.075-.161.047-.1c.094-.149.188-.31.282-.476l.043-.074c.091-.164.183-.336.273-.514l.052-.1c.09-.181.181-.369.272-.565l.04-.089q.284-.624.562-1.333l.04-.1c.088-.226.174-.458.261-.7l.048-.134q.129-.36.255-.734l.038-.114q.264-.793.513-1.646l.037-.125q.118-.407.232-.825c.014-.053.029-.106.043-.16q.113-.42.222-.849l.033-.135q.228-.906.432-1.85l.03-.137q.1-.45.187-.906c.012-.057.023-.114.034-.171q.089-.457.174-.918c.008-.047.016-.094.025-.141q.173-.969.318-1.951c.007-.048.015-.1.022-.144q.067-.466.127-.933c.008-.059.015-.117.022-.176q.059-.466.11-.932l.016-.146q.052-.486.1-.969v-.009q.042-.483.075-.961c0-.047.007-.095.01-.141q.031-.458.051-.911c0-.057.005-.114.008-.17.013-.3.023-.6.03-.9,0-.047,0-.092,0-.139.006-.31.01-.619.008-.923v0c0-.3-.008-.6-.016-.9l0-.132-.007-.18.581-.466.581-.466.874-.7.312-.251.907-.729.269-.216.387-.311.376-.3.29-.233.761-.613.162-.13.134-.107.7-.568.09-.072.506-.407.124-.1.049-.039.048-.039L48.8,38.2l.473-.381.111-.09.5-.407.082-.066.507-.408.163-.131.771-.622.3-.239.4-.319.311-.251.313-.252.512-.414L53.5,34.4l.518-.419.366-.3.375-.3.234-.19.5-.4.23-.186.613-.5.319-.258.341-.276.3-.244L57.709,31l.219-.178.573-.465.167-.135.551-.449.168-.136.4-.33.264-.215.41-.334.168-.136.567-.463.148-.121.387-.317.228-.186.3-.244.228-.187.46-.378.138-.113.34-.281.158-.131.306-.253.128-.107.377-.313.027-.023.367-.306.1-.086.234-.2.106-.089.211-.18.077-.065.246-.211.044-.038.16-.141.058-.051.111-.1L66.183,24c.043-.04.08-.075.107-.1l.176-.175.055-.055" transform="translate(0 -4.071)" opacity="0.3"/>
  <path id="Path_4150" data-name="Path 4150" d="M6.311,40.927a8.8,8.8,0,0,1,6-3.644c4.18-.643,18.006-.536,18.006-.536s5.573-.321,10.825,4.823,1.364,25.678-2.48,31.755S2.345,62.04,6.311,40.927" transform="translate(-2.49 -15.31)" fill="#2f5e8f"/>
  <path id="Path_4151" data-name="Path 4151" d="M62.9,49.463c-.258.906-.531,1.962-.82,3.2L54.457,77.267l1.365,2.586a3.38,3.38,0,0,0,3.042-1.226c3.363-5.317,6.761-21.7,4.039-29.163" transform="translate(-22.69 -20.611)" fill="#051431"/>
  <path id="Path_4152" data-name="Path 4152" d="M50.644,21.572,80.012.127a10.849,10.849,0,0,1,9.324,3.537c4.287,4.5-.429,9-1.929,10.5s-25.83,21.006-25.83,21.006Z" transform="translate(-21.102 -0.017)" fill="#051431"/>
  <path id="Path_4153" data-name="Path 4153" d="M103.582,12.835l-22.616,16.7a8.688,8.688,0,0,0,.144,5.314C88.42,28.962,98.93,20.468,99.9,19.5c1.066-1.065,3.75-3.645,3.683-6.663" transform="translate(-33.594 -5.348)" fill="#010711"/>
  <path id="Path_4154" data-name="Path 4154" d="M66.4,31.616A26.768,26.768,0,0,0,58.6,27l-7.953,5.808,10.933,13.6s3.463-2.777,7.857-6.315c-.3-2.485-1.084-6.6-3.034-8.475" transform="translate(-21.102 -11.25)" fill="#15315e"/>
  <path id="Path_4155" data-name="Path 4155" d="M58.6,27h0l-7.953,5.807L51.6,34a3.921,3.921,0,0,0,2.955.081l7.89-5.268A31.672,31.672,0,0,0,58.6,27" transform="translate(-21.102 -11.25)" fill="#2f5f90"/>
  <path id="Path_4156" data-name="Path 4156" d="M65.921,30.672c-.716-.46-1.441-.87-2.115-1.221-1.919,1.182-8.047,4.971-8.1,5.147-.655,2.067,2.337,1.08,2.337,1.08l7.879-5.006Z" transform="translate(-23.171 -12.272)" fill="#75c0e9"/>
  <path id="Path_4157" data-name="Path 4157" d="M76.4,46.118a26.762,26.762,0,0,0-.961-4.656L67.366,47.61l.2,3.605.978,1.217s3.464-2.777,7.857-6.315" transform="translate(-28.069 -17.277)" fill="#2f5e8f"/>
  <path id="Path_4158" data-name="Path 4158" d="M44.041,37.763l-.053-.015L29.7,38.559l4.18.811,13.4-.211a16.143,16.143,0,0,0-3.244-1.4" transform="translate(-12.375 -15.729)" fill="#6ab3e1"/>
  <path id="Path_4159" data-name="Path 4159" d="M16.926,39.909a11.223,11.223,0,0,1,1.582-.275c.233-.02-.533-.51-.63-.572a6.119,6.119,0,0,0-1.195-.595,4.671,4.671,0,0,0-2.6-.262L19.868,36.9a73.055,73.055,0,0,0-7.5.451,8.8,8.8,0,0,0-6,3.644A19.293,19.293,0,0,0,6.1,42.92c1.976-.4,3.95-.829,5.9-1.354,1.535-.414,3.006-1.2,4.522-1.56l.408-.1" transform="translate(-2.542 -15.375)" fill="#6ab3e1"/>
  <path id="Path_4160" data-name="Path 4160" d="M58.684,50.663c-.138-3.7-.886-6.8-2.525-8.409A17.3,17.3,0,0,0,50.2,38.382l-8.191,1.254a29.427,29.427,0,0,1,11.9,10.656s-2.036,7.4-5.037,10.4,5.037,1.179,5.037,1.179a33.954,33.954,0,0,0,4.776-11.2" transform="translate(-17.505 -15.994)" fill="#0e2956"/>
  <path id="Path_4161" data-name="Path 4161" d="M90.6.22,69.661,17.271l2.114,1.221L93.9,1.243A10.935,10.935,0,0,0,90.6.22" transform="translate(-29.025 -0.092)" fill="#183761"/>
  <path id="Path_4162" data-name="Path 4162" d="M54.016,30.887l-1.259-3.467,4.181-1.142.965,4.073Z" transform="translate(-21.982 -10.95)" fill="#d86780"/>
  <path id="Path_4163" data-name="Path 4163" d="M52.757,26.273l2.9-1.988,3-.761-1.715,1.608Z" transform="translate(-21.982 -9.802)" fill="#a23d4c"/>
  <path id="Path_4164" data-name="Path 4164" d="M61.579,30.651l3.805-2.733L63.153,27Z" transform="translate(-25.658 -11.25)" fill="#15315e"/>
  <path id="Path_4165" data-name="Path 4165" d="M61.64,23.523l1.394,3.323L60.89,29.2l-.965-4.073Z" transform="translate(-24.969 -9.802)" fill="#8e3042"/>
  <path id="Path_4166" data-name="Path 4166" d="M3.452,43.644S-6.138,52.55,6.774,69.151C19.528,85.548,30.032,81.368,32.389,80.4s12.218-14.04-5.68-30.33c-15.853-14.429-23.257-6.43-23.257-6.43" transform="translate(-0.011 -17.265)" fill="#fff"/>
  <path id="Path_4167" data-name="Path 4167" d="M4.1,42.339s-9.589,8.906,3.323,25.507C20.18,84.243,30.684,80.063,33.041,79.1s12.218-14.04-5.68-30.33C11.508,34.34,4.1,42.339,4.1,42.339" transform="translate(-0.283 -16.721)" fill="#7cfbfe"/>
  <path id="Path_4168" data-name="Path 4168" d="M33.058,48.769C24.3,40.8,18.128,39.674,14.35,40.26c.009.034.014.069.023.1,0,0,4.784,20.845,28.969,30.461.927-5.515-.689-13.323-10.284-22.055" transform="translate(-5.979 -16.721)" fill="#78f3f4"/>
  <path id="Path_4169" data-name="Path 4169" d="M36.606,70.258a5.02,5.02,0,0,0,2.355.2c2.091-.415,3.274-2.842,3.045-4.962s-1.486-3.97-2.737-5.7a7.44,7.44,0,0,0-2.652-2.578c-3.583-1.672-8.09-.355-7.638,3.956a10.823,10.823,0,0,0,7.627,9.077" transform="translate(-12.061 -23.553)" fill="#f4ffff"/>
  <path id="Path_4170" data-name="Path 4170" d="M30.052,48.769c-13.9-12.647-21.3-8.064-22.916-6.739,2.264-1.564,9.572-4.694,22.487,7.061C46.083,64.07,39.069,76.33,36,78.956c2.733-1.723,11.338-14.455-5.948-30.187" transform="translate(-2.973 -16.721)" fill="#6ab3e1"/>
  <rect id="frame" width="70" height="70" transform="translate(0)" fill="none"/>
</svg>
