<svg id="reading-light" xmlns="http://www.w3.org/2000/svg" xmlns:xlink="http://www.w3.org/1999/xlink" width="70" height="70" viewBox="0 0 70 70">
  <defs>
    <clipPath id="clip-path">
      <rect id="Rectangle_3129" data-name="Rectangle 3129" width="70" height="70" fill="none"/>
    </clipPath>
    <clipPath id="clip-path-3">
      <path id="Path_5528" data-name="Path 5528" d="M40.4,25.964l10.088,1.271a242.115,242.115,0,0,1,1.154,32.273L45.9,61.475l-.058.015.942,4.433.056-.014,9.737-3.279a296.285,296.285,0,0,0-3.914-39.152L40.731,22.052Z" fill="none"/>
    </clipPath>
    <linearGradient id="linear-gradient" x1="-2.381" y1="1.09" x2="-2.322" y2="1.09" gradientUnits="objectBoundingBox">
      <stop offset="0" stop-color="#4c3674"/>
      <stop offset="0.636" stop-color="#30164c"/>
      <stop offset="1" stop-color="#25093b"/>
    </linearGradient>
    <clipPath id="clip-path-5">
      <rect id="Rectangle_3116" data-name="Rectangle 3116" width="7.641" height="2.68" transform="translate(23.885 67.32)" fill="none"/>
    </clipPath>
    <clipPath id="clip-path-6">
      <rect id="Rectangle_3117" data-name="Rectangle 3117" width="4.932" height="7.477" transform="translate(25.046 59.843)" fill="none"/>
    </clipPath>
    <clipPath id="clip-path-7">
      <rect id="Rectangle_3118" data-name="Rectangle 3118" width="3.614" height="3.728" transform="translate(28.689 56.116)" fill="none"/>
    </clipPath>
    <clipPath id="clip-path-8">
      <rect id="Rectangle_3119" data-name="Rectangle 3119" width="3.5" height="11.176" transform="translate(30.435 18.154)" fill="none"/>
    </clipPath>
    <clipPath id="clip-path-9">
      <rect id="Rectangle_3120" data-name="Rectangle 3120" width="10.328" height="3.728" transform="translate(32.573 29.33)" fill="none"/>
    </clipPath>
    <clipPath id="clip-path-10">
      <rect id="Rectangle_3121" data-name="Rectangle 3121" width="8.682" height="14.071" transform="translate(37.135 34.254)" fill="none"/>
    </clipPath>
    <clipPath id="clip-path-11">
      <rect id="Rectangle_3122" data-name="Rectangle 3122" width="3.154" height="11.173" transform="translate(37.076 18.158)" fill="none"/>
    </clipPath>
    <clipPath id="clip-path-12">
      <rect id="Rectangle_3123" data-name="Rectangle 3123" width="13.729" height="40.36" transform="translate(41.747 22.698)" fill="none"/>
    </clipPath>
    <clipPath id="clip-path-13">
      <rect id="Rectangle_3124" data-name="Rectangle 3124" width="12.431" height="12.741" transform="translate(16.165 22.698)" fill="none"/>
    </clipPath>
    <clipPath id="clip-path-14">
      <rect id="Rectangle_3125" data-name="Rectangle 3125" width="23.4" height="19.162" transform="translate(23.116 35.864)" fill="none"/>
    </clipPath>
    <clipPath id="clip-path-15">
      <rect id="Rectangle_3126" data-name="Rectangle 3126" width="21.31" height="0.614" transform="translate(24.316 59.843)" fill="none"/>
    </clipPath>
    <clipPath id="clip-path-16">
      <rect id="Rectangle_3127" data-name="Rectangle 3127" width="27.299" height="0.462" transform="translate(21.319 67.32)" fill="none"/>
    </clipPath>
  </defs>
  <g id="Group_7895" data-name="Group 7895" clip-path="url(#clip-path)">
    <g id="Group_7854" data-name="Group 7854">
      <g id="Group_7853" data-name="Group 7853" clip-path="url(#clip-path)">
        <path id="Path_5523" data-name="Path 5523" d="M29.965,22.7l.455,3.73L20.406,27.664a230.251,230.251,0,0,0-1.155,31.448l5.739,1.917-.941,4.32-9.736-3.195A281.719,281.719,0,0,1,18.226,24Z" fill="aqua"/>
        <path id="Path_5524" data-name="Path 5524" d="M55.688,62.08l-9.736,3.182-.057.014-.941-4.3.057-.014,5.738-1.909a228.263,228.263,0,0,0-1.155-31.322L39.507,26.5l.333-3.8,11.935,1.385a279.654,279.654,0,0,1,3.913,38" fill="aqua"/>
        <path id="Path_5525" data-name="Path 5525" d="M52.076,47.672c0,5.369-2.757,8.851-6.925,11.462h-16.8c-4.185-2.692-6.941-6.086-6.941-11.462,0-5.65,3.063-11.858,7.625-14.614H44.458c4.556,2.813,7.618,8.964,7.618,14.614" transform="translate(-1.775 -1.51)" fill="aqua" opacity="0.2"/>
        <path id="Path_5526" data-name="Path 5526" d="M29.073,22.138l.456,3.827L19.515,27.234A242.3,242.3,0,0,0,18.36,59.508L24.1,61.475l-.941,4.433L13.421,62.63a296.454,296.454,0,0,1,3.913-39.152Z" fill="#25093b"/>
        <path id="Path_5527" data-name="Path 5527" d="M29.53,25.966l-.456-3.828-11.739,1.34q-1.995,11.724-3,23.809l3.972-.536q.2-9.909,1.2-19.516Z" fill="#4c3674"/>
        <path id="Path_5573" data-name="Path 5573" d="M48.525,45.98c0,4.747-2.438,7.826-6.123,10.135H27.549c-3.7-2.38-6.137-5.381-6.137-10.135,0-5,2.708-10.485,6.742-12.922H41.789c4.028,2.487,6.736,7.926,6.736,12.922" fill="aqua"/>
        <path id="Path_5574" data-name="Path 5574" d="M50.279,46.816c0,5.054-2.6,8.332-6.519,10.791H27.946c-3.939-2.534-6.534-5.729-6.534-10.791,0-5.319,2.883-11.163,7.178-13.758H43.108c4.289,2.648,7.172,8.439,7.172,13.758" transform="translate(-0.877 -0.746)" fill="aqua" opacity="0.2"/>
        <path id="Path_5575" data-name="Path 5575" d="M57.142,50.087c0,6.256-3.213,10.313-8.069,13.356H29.5c-4.876-3.136-8.087-7.091-8.087-13.356,0-6.584,3.569-13.817,8.885-17.029H48.265c5.308,3.277,8.877,10.445,8.877,17.029" transform="translate(-4.308 -3.664)" fill="aqua" opacity="0.1"/>
      </g>
    </g>
    <g id="Group_7856" data-name="Group 7856">
      <g id="Group_7855" data-name="Group 7855" clip-path="url(#clip-path-3)">
        <rect id="Rectangle_3115" data-name="Rectangle 3115" width="16.83" height="44.106" transform="translate(39.747 22.062) rotate(-0.849)" fill="url(#linear-gradient)"/>
      </g>
    </g>
    <g id="Group_7894" data-name="Group 7894">
      <g id="Group_7893" data-name="Group 7893" clip-path="url(#clip-path)">
        <path id="Path_5529" data-name="Path 5529" d="M56.579,62.63l-9.736,3.279-.057.014-.941-4.433.057-.015,5.738-1.967a242.3,242.3,0,0,0-1.155-32.274L40.4,25.964l.333-3.913,11.935,1.427A296.623,296.623,0,0,1,56.579,62.63" fill="#25093b"/>
        <path id="Path_5530" data-name="Path 5530" d="M52.666,23.478,40.731,22.051,40.4,25.964l10.087,1.27q.787,7.421,1.07,15.031l3.589-.485q-.953-9.255-2.478-18.3" fill="#4c3674"/>
        <path id="Path_5531" data-name="Path 5531" d="M43.721,8.543a9.224,9.224,0,0,1-6.408,8.706l.207-2.176a6.707,6.707,0,0,0,4.063-6.03c0-3.325-2.823-5.536-6.294-5.536S29,5.718,29,9.043a6.729,6.729,0,0,0,4.063,6.036l.207,2.17a9.217,9.217,0,0,1-6.408-8.706c0-4.59,3.778-7.652,8.432-7.652s8.432,3.062,8.432,7.652" fill="aqua"/>
        <path id="Path_5532" data-name="Path 5532" d="M43.721,8.068c0,4.127-2.73,8.083-6.408,9.18l.207-2.295A7.082,7.082,0,0,0,41.583,8.6c0-3.506-2.823-5.837-6.294-5.837S29,5.089,29,8.6a7.109,7.109,0,0,0,4.063,6.365l.207,2.288c-3.678-1.09-6.408-5.053-6.408-9.18C26.857,3.228,30.635,0,35.289,0s8.432,3.228,8.432,8.068" fill="#4c3674"/>
        <path id="Path_5533" data-name="Path 5533" d="M37.52,14.954l-.207,2.3-.078.9H33.343l-.078-.9-.207-2.288-.064-.691h4.59Z" fill="#2d0b39"/>
        <path id="Path_5534" data-name="Path 5534" d="M31.525,67.32V70H24.112l-.228-2.68h7.641Z" fill="#25093b"/>
        <path id="Path_5535" data-name="Path 5535" d="M29.979,59.843,29.53,67.32H25.047l1.062-7.477h3.87Z" fill="#25093b"/>
        <path id="Path_5536" data-name="Path 5536" d="M32.3,56.116l-.228,3.728H29.123l-.435-3.728Z" fill="#25093b"/>
        <g id="Group_7859" data-name="Group 7859" opacity="0.62">
          <g id="Group_7858" data-name="Group 7858">
            <g id="Group_7857" data-name="Group 7857" clip-path="url(#clip-path-5)">
              <path id="Path_5537" data-name="Path 5537" d="M31.525,67.32V70H24.112l-.228-2.68h7.641Z" fill="#4c3674"/>
            </g>
          </g>
        </g>
        <g id="Group_7862" data-name="Group 7862" opacity="0.62">
          <g id="Group_7861" data-name="Group 7861">
            <g id="Group_7860" data-name="Group 7860" clip-path="url(#clip-path-6)">
              <path id="Path_5538" data-name="Path 5538" d="M29.979,59.843,29.53,67.32H25.047l1.062-7.477h3.87Z" fill="#4c3674"/>
            </g>
          </g>
        </g>
        <g id="Group_7865" data-name="Group 7865" opacity="0.62">
          <g id="Group_7864" data-name="Group 7864">
            <g id="Group_7863" data-name="Group 7863" clip-path="url(#clip-path-7)">
              <path id="Path_5539" data-name="Path 5539" d="M32.3,56.116l-.228,3.728H29.123l-.435-3.728Z" fill="#4c3674"/>
            </g>
          </g>
        </g>
        <path id="Path_5540" data-name="Path 5540" d="M32.573,29.33v3.728H29l-.307-3.728h3.885Z" fill="#2d0b39"/>
        <path id="Path_5541" data-name="Path 5541" d="M33.934,18.154,33.62,29.33H31.026l-.592-11.176h3.5Z" fill="#25093b"/>
        <g id="Group_7868" data-name="Group 7868" opacity="0.33">
          <g id="Group_7867" data-name="Group 7867">
            <g id="Group_7866" data-name="Group 7866" clip-path="url(#clip-path-8)">
              <path id="Path_5542" data-name="Path 5542" d="M33.934,18.154,33.62,29.33H31.026l-.592-11.176h3.5Z" fill="#4c3674"/>
            </g>
          </g>
        </g>
        <path id="Path_5543" data-name="Path 5543" d="M23.885,67.32,24.113,70h-2.43l-.364-2.68h2.566Z" fill="#4c3674"/>
        <path id="Path_5544" data-name="Path 5544" d="M48.617,67.32,48.253,70H31.525V67.32H48.617Z" fill="#25093b"/>
        <path id="Path_5545" data-name="Path 5545" d="M32.074,59.843H45.5l.349,1.646.941,4.434.3,1.4H29.529l.449-7.477Z" fill="#25093b"/>
        <path id="Path_5546" data-name="Path 5546" d="M26.108,59.843,25.046,67.32H22.858l.3-1.411.941-4.434.349-1.632Z" fill="#4c3674"/>
        <path id="Path_5547" data-name="Path 5547" d="M28.689,56.116l.435,3.728H27.762l-.727-3.728h1.654Z" fill="#4c3674"/>
        <path id="Path_5548" data-name="Path 5548" d="M42.4,56.116h.5l-.72,3.728H32.074l.228-3.728Z" fill="#25093b"/>
        <path id="Path_5549" data-name="Path 5549" d="M28.689,29.33l.306,3.728H27.762l-.727-3.728Z" fill="#4c3674"/>
        <path id="Path_5550" data-name="Path 5550" d="M30.435,18.154l.592,11.176h-1.1l-.4-3.364-.456-3.828L28.6,18.154Z" fill="#4c3674"/>
        <path id="Path_5551" data-name="Path 5551" d="M33.621,29.33H42.9l-.72,3.728H32.573V29.33Z" fill="#25093b"/>
        <g id="Group_7871" data-name="Group 7871" opacity="0.33">
          <g id="Group_7870" data-name="Group 7870">
            <g id="Group_7869" data-name="Group 7869" clip-path="url(#clip-path-9)">
              <path id="Path_5552" data-name="Path 5552" d="M33.621,29.33H42.9l-.72,3.728H32.573V29.33Z" fill="#4c3674"/>
            </g>
          </g>
        </g>
        <path id="Path_5553" data-name="Path 5553" d="M41.34,18.154l-.478,3.977-.855,7.2H33.621l.313-11.176H41.34Z" fill="#25093b"/>
        <g id="Group_7874" data-name="Group 7874" opacity="0.73" style="mix-blend-mode: screen;isolation: isolate">
          <g id="Group_7873" data-name="Group 7873">
            <g id="Group_7872" data-name="Group 7872" clip-path="url(#clip-path-10)">
              <path id="Path_5554" data-name="Path 5554" d="M37.353,35.52a2.964,2.964,0,0,0-.2.906,6.414,6.414,0,0,0,.882,3.734,14.345,14.345,0,0,1,1.417,4.516,5.879,5.879,0,0,0,.872,2.648,2.963,2.963,0,0,0,3.54.7c1.911-.932,2.077-2.837,1.9-4.693a13.374,13.374,0,0,0-1.718-5.405,9.323,9.323,0,0,0-3.437-3.351,2.49,2.49,0,0,0-2.724.168,2.075,2.075,0,0,0-.533.776" fill="#fff"/>
            </g>
          </g>
        </g>
        <path id="Path_5555" data-name="Path 5555" d="M37.737,18.158,37.076,29.33h1.79l1.365-11.172Z" fill="#25093b"/>
        <g id="Group_7877" data-name="Group 7877" opacity="0.33">
          <g id="Group_7876" data-name="Group 7876">
            <g id="Group_7875" data-name="Group 7875" clip-path="url(#clip-path-11)">
              <path id="Path_5556" data-name="Path 5556" d="M37.737,18.158,37.076,29.33h1.79l1.365-11.172Z" fill="#4c3674"/>
            </g>
          </g>
        </g>
        <path id="Path_5557" data-name="Path 5557" d="M38.639,29.33h3.108l-.637,3.728H39.23Z" fill="#4c3674"/>
        <path id="Path_5558" data-name="Path 5558" d="M37.743,56.116H42.05l-.789,3.728h2.245l.515,7.477h2.548L46.205,70H42.156v-2.68H40.4V59.844H38.532Z" fill="#4c3674"/>
        <g id="Group_7880" data-name="Group 7880" opacity="0.46">
          <g id="Group_7879" data-name="Group 7879">
            <g id="Group_7878" data-name="Group 7878" clip-path="url(#clip-path-12)">
              <path id="Path_5559" data-name="Path 5559" d="M41.747,22.7,52.2,24.154a235.935,235.935,0,0,1,3.276,37.215l-2.184,1.689,1.092-2.326C53.966,47.8,52.907,35.7,50.654,25.155l-8.907-1Z" fill="#654d99"/>
            </g>
          </g>
        </g>
        <g id="Group_7883" data-name="Group 7883" opacity="0.46">
          <g id="Group_7882" data-name="Group 7882">
            <g id="Group_7881" data-name="Group 7881" clip-path="url(#clip-path-13)">
              <path id="Path_5560" data-name="Path 5560" d="M18.17,24.154c-.658-.279-2.432,11.464-1.911,11.283.354-.124,2.639-10.1,2.639-10.1l9.7-1.183V22.7Z" fill="#654d99"/>
            </g>
          </g>
        </g>
        <g id="Group_7886" data-name="Group 7886" opacity="0.28" style="mix-blend-mode: multiply;isolation: isolate">
          <g id="Group_7885" data-name="Group 7885">
            <g id="Group_7884" data-name="Group 7884" clip-path="url(#clip-path-14)">
              <path id="Path_5561" data-name="Path 5561" d="M46.516,50.951a13.273,13.273,0,0,1-5.4,3.1,32.9,32.9,0,0,1-6.21.919,12.694,12.694,0,0,1-6.543-1.066,9.055,9.055,0,0,1-4.689-5.274,12.717,12.717,0,0,1,3.187-12.769,18.638,18.638,0,0,0,.146,6.411A10.235,10.235,0,0,0,29.847,47.8c2.112,2.021,5.1,2.791,7.985,3.291a19.17,19.17,0,0,0,8.684-.137" fill="#29a5dc"/>
            </g>
          </g>
        </g>
        <g id="Group_7889" data-name="Group 7889" opacity="0.6">
          <g id="Group_7888" data-name="Group 7888">
            <g id="Group_7887" data-name="Group 7887" clip-path="url(#clip-path-15)">
              <path id="Path_5562" data-name="Path 5562" d="M29.979,59.843H24.448l-.131.614H45.626l-.13-.614H29.979Z" fill="aqua"/>
            </g>
          </g>
        </g>
        <path id="Path_5563" data-name="Path 5563" d="M30.221,59.843H24.958l-.125.163H45.11l-.124-.163H30.221Z" fill="aqua"/>
        <path id="Path_5564" data-name="Path 5564" d="M29.979,59.843H24.448l-.131.614h6.392l.079-.614Z" fill="aqua"/>
        <path id="Path_5565" data-name="Path 5565" d="M45.5,59.843H43.432l.078.614h2.115Z" fill="aqua"/>
        <g id="Group_7892" data-name="Group 7892" opacity="0.6">
          <g id="Group_7891" data-name="Group 7891">
            <g id="Group_7890" data-name="Group 7890" clip-path="url(#clip-path-16)">
              <path id="Path_5566" data-name="Path 5566" d="M31.525,67.32H21.318l.063.462H48.554l.063-.462H31.525Z" fill="aqua"/>
            </g>
          </g>
        </g>
        <path id="Path_5567" data-name="Path 5567" d="M28.689,67.32h-7.37l.063.462h7.307Z" fill="aqua"/>
        <path id="Path_5568" data-name="Path 5568" d="M47.085,67.32h-2.92v.462h4.39l.062-.462Z" fill="aqua"/>
        <path id="Path_5569" data-name="Path 5569" d="M27.035,29.33l.727,3.728h1.233Z" fill="aqua"/>
        <path id="Path_5570" data-name="Path 5570" d="M42.181,33.058H41.11L42.9,29.33Z" fill="aqua"/>
        <path id="Path_5571" data-name="Path 5571" d="M27.035,56.116H42.9l-.119.617Z" fill="aqua"/>
        <path id="Path_5572" data-name="Path 5572" d="M27.762,33.058H42.181l.112-.579-14.587.29Z" fill="aqua"/>
      </g>
    </g>
  </g>
</svg>
