<svg id="icon-team-sea-lion" xmlns="http://www.w3.org/2000/svg" width="227.064" height="227.064" viewBox="0 0 227.064 227.064">
  <g id="Group_1996" data-name="Group 1996">
    <path id="Path_2946" data-name="Path 2946" d="M186.971,136.9l-10.021-6.661-.2-.424-.4-.848c-1.435-3.077-5.224-11.367-8.111-19.157-.212-.57-.413-1.132-.613-1.691l1.742-.568.962-2.325a8.04,8.04,0,0,0-.767-5c-1.3-2.124-2.3-2.406-2.3-2.406s-.873.244-2.387.683c-.028-.15-.057-.275-.085-.426l-.027-.127c-.121-.649-.242-1.346-.365-2.073-.032-.191-.066-.39-.1-.589-.11-.657-.218-1.339-.329-2.049-.015-.1-.03-.2-.045-.3-.123-.8-.246-1.626-.371-2.48-.036-.257-.074-.521-.112-.784-.1-.674-.193-1.367-.292-2.068-.032-.235-.064-.462-.1-.7-.116-.846-.231-1.712-.348-2.588q-.077-.588-.155-1.185c-.074-.568-.15-1.144-.223-1.721q-.21-1.624-.42-3.281c-.009-.08-.021-.157-.03-.237-1.857-14.654-3.709-30.649-5.186-34.218-2.041-4.926-6.227-14.755-7.668-18.13.062.042.144.083.2.129a8.488,8.488,0,0,1,3.084,3.993s.038-.089.087-.239l0-.006c.017-.055.034-.114.055-.186.009-.036.019-.08.028-.119.015-.061.03-.117.044-.184.019-.091.038-.187.053-.293.006-.032.008-.066.013-.1.013-.1.025-.2.032-.3,0-.04.006-.081.008-.127.008-.106.011-.216.011-.331v-.142l0-.044a95.4,95.4,0,0,0-72-16.881c0,.278-.008.56.009.835.015.314.047.623.087.93v0l.023.165v0c.653,4.616,3.838,8.325,5.97,10.3l0,0c.186.172.362.331.528.475l.064.057c.148.127.286.244.415.346.04.034.072.059.11.089.1.083.2.163.288.229l.161.117c.049.036.1.078.144.1.085.061.151.1.189.125a1.454,1.454,0,0,0,.428.106,10.823,10.823,0,0,0,1.142.057c.3,0,.617,0,.941-.011.583-.013,1.172-.042,1.674-.068a14.348,14.348,0,0,0,.437,4.317l.006.008c.2.233.4.437.6.644a19.727,19.727,0,0,1-1.85,4.55c-2.134,3.222-17.771,28.86-17.771,28.86L64.167,80.546a86.087,86.087,0,0,1-5.928-10.389A143.356,143.356,0,0,0,79.927,35.7c-2.5,1.458-9.913,4.018-18.556,6.744-.786.25-1.581.5-2.384.75-1.607.5-3.243,1-4.889,1.5-11.137,3.389-22.6,6.646-27.61,8.052a9.528,9.528,0,0,0-2.272.638l-.348.1-.021.059a.753.753,0,0,1-.068.032s-.051.216-.136.589c-3.862,11.519-4.536,28.8-4.589,38.156-.025,1.871-.013,3.754.04,5.64.013.589.025.926.025.926l.006,0a89.063,89.063,0,0,0,2.7,19.764C26.808,137.173,34.906,148.815,39.5,154.3c.233.738.471,1.492.727,2.263,1.388,4.215,3.107,8.876,5.231,14.018a69.49,69.49,0,0,0,8.73,8.314c.523.428,1.068.867,1.636,1.312a97.674,97.674,0,0,0,50.5,20.365A96.088,96.088,0,0,0,186.971,136.9M133.135,19.3l4.173,1.013a.977.977,0,0,0-.1.038c-1.852-.477-3.968-.954-6.327-1.412,1.386.216,2.253.362,2.253.362m-21.264-2.314c-.9.017-1.751.049-2.575.095-.017-.027-.034-.051-.053-.078.816-.034,1.708-.032,2.628-.017" transform="translate(17.009 8.376)" opacity="0.3"/>
    <path id="Path_2796" data-name="Path 2796" d="M13.781,33.191S4.563,71.269,11.827,98.266s21.145,39.387,21.145,39.387L55.436,62.664S51.1,60.688,47.9,49.649,22.133,29.014,13.781,33.191" transform="translate(8.073 28.759)" fill="#54121a"/>
    <path id="Path_2797" data-name="Path 2797" d="M9.114,86.466s-1.026-29.055,4.75-45.4c0,0,48.77-13.535,56.059-17.784,0,0-19.626,47.994-60.81,63.186" transform="translate(8.079 20.796)" fill="#721b26"/>
    <path id="Path_2798" data-name="Path 2798" d="M11.005,44.655A21.75,21.75,0,0,0,13.6,51.3c.229.381.532.8.975.829s.818-.339,1.111-.682c2.353-2.757,4.707-5.655,7.9-7.376a7.065,7.065,0,0,1,3.961-1,13.893,13.893,0,0,1,2.732.738,14.868,14.868,0,0,0,9.929-.441A29.419,29.419,0,0,0,45.346,40.4c7.829-5.248,15.69-10.523,22.667-16.86.028-.025.055-.053.083-.08.045-.11.076-.18.076-.18-7.289,4.249-56.059,17.786-56.059,17.786-.4,1.138-.769,2.342-1.108,3.59" transform="translate(9.831 20.796)" fill="#a9292b"/>
    <path id="Path_2799" data-name="Path 2799" d="M13.331,34.948a.843.843,0,0,0-.456.824,1.777,1.777,0,0,0,.371.918,1.225,1.225,0,0,0,.746.574.888.888,0,0,0,.6-.134,1.272,1.272,0,0,0,.439-1.621,1.344,1.344,0,0,0-1.583-.613" transform="translate(11.5 31.112)" fill="#721b26"/>
    <path id="Path_2800" data-name="Path 2800" d="M15.336,32.852a1.417,1.417,0,0,0-.636.477.746.746,0,0,0-.066.763.71.71,0,0,0,.914.24,1.036,1.036,0,0,0,.521-.852.753.753,0,0,0-.148-.547.4.4,0,0,0-.523-.078" transform="translate(13.003 29.291)" fill="#721b26"/>
    <path id="Path_2801" data-name="Path 2801" d="M25.582,31.637a.906.906,0,1,0-.055,1.812,1.109,1.109,0,0,0,.833-.4,1.033,1.033,0,0,0,.21-1.079.7.7,0,0,0-.969-.316" transform="translate(22.012 28.19)" fill="#721b26"/>
    <path id="Path_2802" data-name="Path 2802" d="M24.7,35.413c-.551-.8-2.126-.3-2.348.559a1.41,1.41,0,0,0,.5,1.392.891.891,0,0,0,.589.235,1.053,1.053,0,0,0,.517-.214,2.172,2.172,0,0,0,.786-.85,1.155,1.155,0,0,0-.045-1.121" transform="translate(19.933 31.273)" fill="#a9292b"/>
    <path id="Path_2803" data-name="Path 2803" d="M20.633,34.272c-.21-.257-.623-.1-.791.117a2.411,2.411,0,0,0-.3,1.282c0,.22.08.479.29.541.259.08.483-.193.6-.439A4.466,4.466,0,0,0,20.7,35a.836.836,0,0,0-.066-.733" transform="translate(17.457 30.496)" fill="#a9292b"/>
    <path id="Path_2804" data-name="Path 2804" d="M29.912,42.977s-2.162,7.17,6.367,16.124L37.7,55.592S30.606,45.044,29.667,41.4s.244,1.575.244,1.575" transform="translate(26.178 35.831)" fill="#731925"/>
    <path id="Path_2805" data-name="Path 2805" d="M28.046,167s25.208,30.412,70.532,30.488,77.753-34.229,86.239-54.037l-25.278-16.8S151.009,108.8,148.168,98.1s-6.4-52-8.885-58.006-8.173-19.316-8.173-19.316-7.064-4.12-24.678-6.6-27.565,1.713-27.565,1.713S76.734,27.279,74.6,30.5s-17.771,28.86-17.771,28.86L43.683,82.326s-24.876,34.939-25.588,36.706S14.456,134.093,28.046,167" transform="translate(15.487 11.962)" fill="#8b232c"/>
    <path id="Path_2806" data-name="Path 2806" d="M108.957,130.114c-5.182-5.445-20.139-14.546-26.8-18.9S55.766,96.11,53.63,95.9,45.48,97.341,38.173,99.49s-5.063.085-4.264-5.867c.648-4.824,8.469-34.316,11.415-45.336l-1.642,2.865S18.8,86.091,18.095,87.857s-3.641,15.063,9.951,47.967c0,0,25.208,30.412,70.532,30.488a89.947,89.947,0,0,0,30.573-5.339c-2.314-10.828-15.014-25.416-20.194-30.859" transform="translate(15.487 43.136)" fill="#681720"/>
    <path id="Path_2807" data-name="Path 2807" d="M26.1,68.218,38.117,87.765l1.022-5.188L26.746,63.2Z" transform="translate(23.318 56.457)" fill="#681720"/>
    <path id="Path_2808" data-name="Path 2808" d="M135.967,66.914c-1.068-2.88-2.016-5.689-2.662-8.124-.11-.415-.222-.892-.335-1.4-6.8,1.956-29.364,8.548-45.156,14.484-18.791,7.062-53.84,26.6-53.84,26.6,2.666,4.745,5.33,6.5,5.33,6.5L61.16,95.866s35.318-15.059,41.049-17.458c5.059-2.119,28.364-9.737,33.758-11.494" transform="translate(30.35 51.271)" fill="#681720"/>
    <path id="Path_2809" data-name="Path 2809" d="M108.168,109.02S99.637,91.173,96.795,80.467c-2.105-7.927-4.6-32.612-6.763-47.339-.006.072-.019.155-.025.227-.559,5.877-1.674,11.951-4.459,17.22-2.293,4.336-5.75,8.077-7.306,12.727-.335,1-.5,2.283.316,2.95a2.2,2.2,0,0,0,1.755.324c2.069-.345,3.628-1.992,5.413-3.09s4.5-1.475,5.674.263c1.291,1.92-.449,4.4-2.153,5.968-4.536,4.177-9.618,7.827-13.479,12.636a3.506,3.506,0,0,0-.918,1.808,2.574,2.574,0,0,0,2.022,2.452,8.687,8.687,0,0,0,3.423-.028,37.8,37.8,0,0,1,16.964,1.742c.3,3.506-2.206,6.543-4.377,9.315a74.9,74.9,0,0,0-11.869,21.894,3.238,3.238,0,0,0-.252,1.606c.286,1.528,2.49,1.816,3.843,1.047s2.274-2.143,3.62-2.921c3.995-2.308,9.777,1.452,13.439-1.352,2.13-1.632,3.573-5.328,6.115-4.468a3.219,3.219,0,0,1,1.872,2.74c.341,2.651-1.2,5.209-3.105,7.083s-4.22,3.3-6.081,5.216a16.333,16.333,0,0,0-4.41,8.859,3.144,3.144,0,0,0,.074,1.651c.634,1.566,2.863,1.371,4.531,1.119,5.383-.807,10.792.752,16.139,1.768a40.793,40.793,0,0,0,5.975.733,72.471,72.471,0,0,0,10.669-16.8Z" transform="translate(66.86 29.594)" fill="#b53034"/>
    <path id="Path_2810" data-name="Path 2810" d="M75.061,63.769a2.993,2.993,0,0,0,1.619,1.164A8.616,8.616,0,0,0,80.1,64.9a37.791,37.791,0,0,1,16.962,1.744,6.562,6.562,0,0,1-.008.985c.882-.288,1.657-.541,2.206-.719-.259-.7-.513-1.4-.755-2.09-.028-.078-.053-.153-.08-.231-.216-.613-.426-1.223-.623-1.819-.083-.25-.157-.49-.237-.738-.136-.428-.278-.861-.4-1.276-.206-.678-.4-1.337-.564-1.971-.11-.415-.222-.89-.333-1.393-3.665,1.053-11.917,3.457-21.207,6.375" transform="translate(67.053 51.271)" fill="#8b232c"/>
    <path id="Path_2811" data-name="Path 2811" d="M93.1,86.849a3.622,3.622,0,0,0,.371,3.469,2.253,2.253,0,0,0,.949.833c1.041.434,2.181-.331,2.967-1.14a4.436,4.436,0,0,0,1.371-2.355c.5-3.6-4.476-3.431-5.657-.807" transform="translate(82.918 75.853)" fill="#8b232c"/>
    <path id="Path_2812" data-name="Path 2812" d="M91.315,86.443a1.259,1.259,0,0,0-1.534-.369,2.879,2.879,0,0,0-.651.435,1.661,1.661,0,0,0-.5,1.751,1.625,1.625,0,0,0,2.344.666,1.805,1.805,0,0,0,.345-2.484" transform="translate(79.097 76.786)" fill="#8b232c"/>
    <path id="Path_2813" data-name="Path 2813" d="M83.4,73.034a1.6,1.6,0,0,0-.155,1.774.954.954,0,0,0,.293.284,1.357,1.357,0,0,0,1.39-.248,5.12,5.12,0,0,0,1.181-1.123,1.663,1.663,0,0,0,.4-.907,1.508,1.508,0,0,0-.21-.75.9.9,0,0,0-1.392-.417,7.532,7.532,0,0,0-1.5,1.386" transform="translate(74.178 63.833)" fill="#8b232c"/>
    <path id="Path_2814" data-name="Path 2814" d="M79.061,72.488a1.048,1.048,0,0,0-.453.511.68.68,0,0,0,.339.746,1.113,1.113,0,0,0,.858.063,3.311,3.311,0,0,0,.79-.394l.6-.369c.263-.163.555-.367.589-.674a.671.671,0,0,0-.479-.659c-.8-.269-1.636.352-2.242.776" transform="translate(70.203 64.003)" fill="#b53034"/>
    <path id="Path_2815" data-name="Path 2815" d="M93.808,86.584a.726.726,0,0,0-.057.333.237.237,0,0,0,.223.214.338.338,0,0,0,.22-.146,5.5,5.5,0,0,0,1.17-3.02,11.411,11.411,0,0,0-.25-3.264,2.635,2.635,0,0,0-.375-1.191,2.385,2.385,0,0,0-.083,1.07,19.627,19.627,0,0,1-.038,2.03,16.581,16.581,0,0,1-.81,3.974" transform="translate(83.746 71.029)" fill="#66171f"/>
    <path id="Path_2816" data-name="Path 2816" d="M96.283,83.01a1.788,1.788,0,0,0-.144.515.44.44,0,0,0,.25.437.419.419,0,0,0,.456-.191,1.111,1.111,0,0,0,.146-.507,6.641,6.641,0,0,0-.282-3.321c-.43.14-.214.89-.2,1.221a4.834,4.834,0,0,1-.225,1.846" transform="translate(85.883 71.415)" fill="#66171f"/>
    <path id="Path_2817" data-name="Path 2817" d="M97.181,79c1.072.831,1.488,2.3,2.548,3.143a.592.592,0,0,0,.288.148.239.239,0,0,0,.261-.146.356.356,0,0,0-.089-.282l-1.626-2.4c-.29-.428-.733-1.178-1.27-1.329-.793-.223-.5.559-.112.863" transform="translate(86.464 69.762)" fill="#66171f"/>
    <path id="Path_2818" data-name="Path 2818" d="M74.764,57.081a1.056,1.056,0,0,0-.413.914c.1.392.583.536.988.536a3.385,3.385,0,0,0,2.632-1.287,1.083,1.083,0,0,0,.265-.583.876.876,0,0,0-.428-.742c-1.325-.867-2.17.269-3.044,1.162" transform="translate(66.404 49.676)" fill="#b53034"/>
    <path id="Path_2819" data-name="Path 2819" d="M81.287,44.289a.9.9,0,0,0-.352.343.946.946,0,0,0-.062.333,1.062,1.062,0,0,0,.231.911,1.02,1.02,0,0,0,.911.053,3.323,3.323,0,0,0,1.185-.523,1.338,1.338,0,0,0,.557-1.121c-.134-1.532-1.854-.4-2.469,0" transform="translate(72.238 38.866)" fill="#8b232c"/>
    <path id="Path_2820" data-name="Path 2820" d="M83.107,40.6a2.622,2.622,0,0,0-.763.432.814.814,0,0,0-.254.3.612.612,0,0,0,.343.752,1.08,1.08,0,0,0,.884-.051,1.052,1.052,0,0,0,.655-.782c.038-.354-.286-.738-.634-.659" transform="translate(73.299 36.251)" fill="#8b232c"/>
    <path id="Path_2821" data-name="Path 2821" d="M80.1,36.3a.816.816,0,0,0,.721.354,1.511,1.511,0,0,0,.78-.284,2.7,2.7,0,0,0,.837-.894,1.485,1.485,0,0,0,.231-.822,1.077,1.077,0,0,0-1.768-.695c-.451.422-1.147,1.768-.8,2.34" transform="translate(71.475 30.107)" fill="#b53034"/>
    <path id="Path_2822" data-name="Path 2822" d="M103.544,71.655,96.7,77.123,83.642,86.586s-7.329,4.466-9.194,5.386-3.732,1.721-3.732,1.721-.445.534,1.42,0,6.087-1.865,14.083-7.374a136.215,136.215,0,0,0,17.326-14.037c1.732-1.91,0-.627,0-.627" transform="translate(63.13 63.634)" fill="#c29ca0"/>
    <path id="Path_2823" data-name="Path 2823" d="M123.225,72.445s-3.137,6.216-4.737,7.772-5.377,6.973-12.4,11.328a112.087,112.087,0,0,1-18.657,9.417,184.724,184.724,0,0,0-19.5,9.018c-4.266,2.442-10.44,6.131-10.663,6.619s.356.445,1.068,0a228.389,228.389,0,0,1,22.033-11.328c9.506-4.042,19.5-7.863,25.677-12.04s13.462-11.239,14.66-13.238a65.5,65.5,0,0,0,3.016-6.483Z" transform="translate(51.119 64.717)" fill="#c29ca0"/>
    <path id="Path_2824" data-name="Path 2824" d="M87.452,46.215s-3.3,7.138-6.093,10.059-2.755,3-2.63,3.171,1.168.083,3.3-2.422A34.811,34.811,0,0,0,87.452,48.8c.877-2.3.877-3.132.668-3.506s-.485.53-.668.918" transform="translate(70.292 40.385)" fill="#c29ca0"/>
    <path id="Path_2825" data-name="Path 2825" d="M56.332,63.156s11.727-.668,21.953-4.925S91.7,50.342,91.7,50.342s.479-.5.646,0-1.837,2.213-2.8,3.007a48.562,48.562,0,0,1-15.775,7.471c-8.1,2.045-15.569,3.38-17.949,2.921s.5-.585.5-.585" transform="translate(49.034 44.773)" fill="#c29ca0"/>
    <path id="Path_2826" data-name="Path 2826" d="M93.359,92.032a2.413,2.413,0,0,0-.589.6.827.827,0,0,0-.072.8,1.067,1.067,0,0,0,.377.369,1.507,1.507,0,0,0,.345.184,1.076,1.076,0,0,0,1.068-.286,1.7,1.7,0,0,0,.452-1.045,1.308,1.308,0,0,0-.136-.782c-.43-.731-1-.191-1.445.163" transform="translate(82.743 81.744)" fill="#b53034"/>
    <path id="Path_2827" data-name="Path 2827" d="M36.021,65.85c-.754,5.121-2.8,9.807-3.552,14.842-.263,3.65-.451,7.363-.8,11.025-.288,2.957-.613,5.915-1.153,8.872a106.836,106.836,0,0,1-.757-20.118c.725-5.322,3.359-10.169,6.265-14.62" transform="translate(26.436 58.825)" fill="#a45763"/>
    <path id="Path_2828" data-name="Path 2828" d="M31.656,83.946c.3-3.12.483-6.271.693-9.4-.861.24-1.761.5-2.685.765a104.875,104.875,0,0,0,.837,17.5c.541-2.957.865-5.915,1.155-8.872" transform="translate(26.448 66.596)" fill="#81464e"/>
    <path id="Path_2829" data-name="Path 2829" d="M31.428,69.92a28.8,28.8,0,0,0-1.456,4.215L32.1,77.59c.011-.176.023-.356.036-.534a40.936,40.936,0,0,1,.975-4.51Z" transform="translate(26.775 62.461)" fill="#81464e"/>
    <path id="Path_2830" data-name="Path 2830" d="M28.124,56.38a9.26,9.26,0,0,0-4.264,3.982c-1.6,2.931,1.2,6.131,1.2,6.131s12.928,19.433,14.26,22.176,5.464,8.821,5.464,8.821l5.332-3.145s-10-19.191-12.129-22.523S28.79,58.8,28.124,56.38" transform="translate(20.873 50.365)" fill="#2a6aa6"/>
    <path id="Path_2831" data-name="Path 2831" d="M24.948,81.3c-2.361,5.5-1.749,11.443-1.068,17.261l-.293.1c-2.153-5.292-3.563-13.293,1.361-17.362" transform="translate(19.308 72.623)" fill="#81464e"/>
    <path id="Path_2832" data-name="Path 2832" d="M34.069,79.131c.46,5.96-.324,11.773.875,17.614,1.238,5.758,2.779,11.576,3.684,17.568l-.015,0c-3.2-6.861-6.31-14.052-6.835-21.7a40.255,40.255,0,0,1,2.291-13.488" transform="translate(28.388 70.689)" fill="#81464e"/>
    <path id="Path_2833" data-name="Path 2833" d="M38.269,82.889c1.072,5.881.89,11.742,2.685,17.43,1.825,5.6,3.959,11.226,5.475,17.093l-.015.008c-3.887-6.5-7.725-13.327-9.035-20.878a40.3,40.3,0,0,1,.89-13.653" transform="translate(33.189 74.046)" fill="#81464e"/>
    <path id="Path_2834" data-name="Path 2834" d="M38.788,81.915s-3.609,4.567-4.2,5.154-1.545,2.5-.735,5.523,3.459,3.681,5.373,3.681,5.744-.954,5.523-6.4a9.871,9.871,0,0,0-1.84-4.37c-1.473-1.744-2.724-3.584-2.724-3.584a.843.843,0,0,0-1.4,0" transform="translate(29.966 72.826)" fill="#e9ea43"/>
    <path id="Path_2835" data-name="Path 2835" d="M38.751,95.528c-2.726-.28-4.124-2.172-4.417-4.86a5.12,5.12,0,0,1,2.062-4.9A20.048,20.048,0,0,0,39.153,82.5a.56.56,0,0,1-.013-.922,1.1,1.1,0,0,0-.35.3s-3.609,4.565-4.2,5.154-1.547,2.5-.737,5.523,3.461,3.681,5.375,3.681a5.85,5.85,0,0,0,3.622-1.221,9.249,9.249,0,0,1-4.1.523" transform="translate(29.965 72.872)" fill="#bfa906"/>
    <path id="Path_2836" data-name="Path 2836" d="M37.244,81.807a1.254,1.254,0,0,0-.172-.163.925.925,0,0,1-.233,1.011A20.762,20.762,0,0,0,38.5,85.12a16.333,16.333,0,0,1,2.355,3.313,9.274,9.274,0,0,1-1.03,6.579l-.011.015c1.187-.914,2.111-2.514,2-5.267a9.846,9.846,0,0,0-1.84-4.37c-1.473-1.744-2.724-3.584-2.724-3.584" transform="translate(32.909 72.934)" fill="#f9fab4"/>
    <path id="Path_2837" data-name="Path 2837" d="M37.466,83.52c-3.921,2.552-3.3,9.62,2.174,9.2a4.945,4.945,0,0,1-3.38-.46c-3.077-2.073-2.219-7.516,1.206-8.743" transform="translate(30.698 74.61)" fill="#83851b"/>
    <path id="Path_2838" data-name="Path 2838" d="M36.035,84.978a4.22,4.22,0,0,0,.784,4.381c-1.534-.788-2.109-3.175-.784-4.381" transform="translate(31.53 75.913)" fill="#83851b"/>
    <path id="Path_2839" data-name="Path 2839" d="M36.994,84.647c1.742.884,1.772,3.711.3,4.86a4.2,4.2,0,0,0-.3-4.86" transform="translate(33.047 75.617)" fill="#83851b"/>
    <path id="Path_2840" data-name="Path 2840" d="M36.994,83.442c2.73,1.583,4.684,5.987,1.952,8.431,2.121-2.8.263-6.346-1.952-8.431" transform="translate(33.047 74.54)" fill="#83851b"/>
    <path id="Path_2841" data-name="Path 2841" d="M43.6,96.944c3.448,7.286,6.534,14.537,11.39,21-6.894-2.889-11.871-13.994-11.39-21" transform="translate(38.919 86.602)" fill="#81464e"/>
    <path id="Path_2842" data-name="Path 2842" d="M51.343,93.115c.937,4.144.894,8.719,2.4,12.572,1.5,3.364,4.12,8.287,5.771,11.684a38.062,38.062,0,0,1-7.655-10.87c-1.761-4.366-1.34-8.936-.519-13.386" transform="translate(45.232 83.182)" fill="#81464e"/>
    <path id="Path_2843" data-name="Path 2843" d="M53.617,105.555c-2.48-11.879-.006-24.5,5.86-35.019l1.49.685a116.059,116.059,0,0,0-7.35,34.333" transform="translate(47.042 63.011)" fill="#a45763"/>
    <path id="Path_2844" data-name="Path 2844" d="M57.318,78.075c.712-2.3,1.469-4.582,2.3-6.854l-1.492-.685a54.968,54.968,0,0,0-3.953,8.88l3.147-1.34" transform="translate(48.392 63.011)" fill="#81464e"/>
    <path id="Path_2845" data-name="Path 2845" d="M52.785,82.27a46.677,46.677,0,0,0,.827,12.8A101.29,101.29,0,0,1,54.857,83.6c-.731-.466-1.416-.905-2.071-1.325" transform="translate(47.046 73.493)" fill="#81464e"/>
    <path id="Path_2846" data-name="Path 2846" d="M48.683,65.193c-2.8,6.7-5.432,13.588-6.072,20.772L40.718,86c-.454-7.734,3.389-14.923,7.965-20.808" transform="translate(36.342 58.238)" fill="#a45763"/>
    <path id="Path_2847" data-name="Path 2847" d="M43.622,60.741c-1.322,2.9-3.338,5.657-4.216,8.63-.793,3.118-1.543,6.316-2.531,9.486-.466-6.865,1.174-13.7,6.748-18.115" transform="translate(32.874 54.261)" fill="#a45763"/>
    <path id="Path_2848" data-name="Path 2848" d="M33.974,97.75s35.051-19.537,53.842-26.6,47.178-15.059,47.178-15.059,1,.284,2.3,2.408a8.048,8.048,0,0,1,.769,5l-.964,2.325s-29.157,9.461-34.886,11.86S61.162,95.137,61.162,95.137l-21.856,9.107s-2.666-1.749-5.332-6.494" transform="translate(30.35 50.105)" fill="#337bc0"/>
    <path id="Path_2849" data-name="Path 2849" d="M134.993,56.09s-28.387,8-47.178,15.059-53.842,26.6-53.842,26.6,36.651-17.273,43.313-20.6S134.993,56.09,134.993,56.09" transform="translate(30.349 50.106)" fill="#5ec7c5"/>
    <path id="Path_2850" data-name="Path 2850" d="M124.05,61.848c-4.947-.081-22.241,6.079-29.57,8.478s-18.659,9.2-22.506,11.063-4.548,1.2-7.214,1.513S49.966,90.45,51.034,90.582s13.727-4.4,13.727-4.4S44.636,95.78,40.37,97.79c-2.671,1.259-3.993.941-4.606.526a12.891,12.891,0,0,0,1.943,1.772l21.856-9.107S94.879,75.923,100.61,73.524,135.5,61.664,135.5,61.664l.382-.924a73.468,73.468,0,0,1-11.829,1.108" transform="translate(31.949 54.26)" fill="#2a6aa6"/>
    <path id="Path_2851" data-name="Path 2851" d="M52.139,40.968s3.249,7.56,14.418,8.772,19.166-6.6,19.166-6.6L72.305,31.21s-20.607,2-20.166,9.758" transform="translate(46.571 27.881)" fill="#781a20"/>
    <path id="Path_2852" data-name="Path 2852" d="M51.962,41.3s-1.168,2.312,0,2.757,2.812.4,7.276-2.155a15.049,15.049,0,0,1,10.239-1.647c1.778.248,4.071.07,8.033,3.535S84.675,52.157,88.7,46.02s-8.049-16.546-8.049-16.546L63.017,27.286l-6.776,4.1s-6.746,7.132-4.279,9.917" transform="translate(45.934 24.375)" fill="#d58097"/>
    <path id="Path_2853" data-name="Path 2853" d="M72.139,34.329c-1.755-1.518-5.8-1.325-9.974-1.318s-6.943,4.233-6.943,4.233l-.791.678c.632-.309,1.314-.663,2.117-1.121a15.032,15.032,0,0,1,10.239-1.645c1.776.246,4.071.068,8.031,3.533.587.513,1.155,1.056,1.713,1.592a37.748,37.748,0,0,0-4.393-5.953" transform="translate(48.624 29.479)" fill="#954250"/>
    <path id="Path_2854" data-name="Path 2854" d="M55.069,32.628s-4.822.367-5.491,0-8.4-6.233-8-14.1c0,0,13.727-10.527,35.184-17.191,0,0,14.925-3.332,38.247,1.732,0,0,4.2.666,4.167,9.2s-.964,11.462-.964,11.462-5.449,5.93-7.872,6.068S92.5,24.4,89.032,23.864s-23.606-.4-24.867.534-6.274,1.4-9.1,8.23" transform="translate(37.134 0.237)" fill="#60aa65"/>
    <path id="Path_2855" data-name="Path 2855" d="M48.448,17.2C51.79,14.379,73.861,3.508,73.861,3.508L67.243,4.841,41.64,17.886c.949,6.706,7.274,11.513,7.874,11.845.666.369,5.489,0,5.489,0A14.421,14.421,0,0,1,57.527,25.6l-6.036.983s-6.507-1.261-6.642-3.116.257-3.442,3.6-6.265" transform="translate(37.198 3.134)" fill="#3f8452"/>
    <path id="Path_2856" data-name="Path 2856" d="M61.521,23.377a95.134,95.134,0,0,1,9.688.311c3.47.534,18.884,6.072,21.309,5.936s7.874-6.068,7.874-6.068.93-2.933.962-11.462-4.165-9.2-4.165-9.2A124.159,124.159,0,0,0,80.982.462a96.253,96.253,0,0,1,8.51,5.767c4.9,3.866,10.23,9.319,10.5,10.124s.269,4.536-.8,4.536S88.77,16.87,79.453,8.228l.583,3.065,5.655,9.8s-17.532-2.628-24.17,2.287" transform="translate(54.958 0.413)" fill="#3f8452"/>
    <path id="Path_2857" data-name="Path 2857" d="M118.274,6.488c-1.225-3.082-3.26-3.416-3.26-3.416C91.692-1.99,76.765,1.34,76.765,1.34,55.308,8,41.581,18.533,41.581,18.533a11.7,11.7,0,0,0,.1,2.086c.538-.986,3.3-5.019,14.232-9.417,12.587-5.065,15.1-6.131,15.1-6.131L79.266,1.74s21.08.062,25.3,1.193c2.618.7,9.133,2.38,13.706,3.556" transform="translate(37.135 0.237)" fill="#dcf8bc"/>
    <path id="Path_2858" data-name="Path 2858" d="M54.86,12.487S69.6,8.223,89.538,14.708l11.313,5.084-1.036,2.064L94.006,20.3,83.513,17.754S65.96,14.735,57.98,15.569s-3.12-3.082-3.12-3.082" transform="translate(47.698 9.926)" fill="#4a5d6b"/>
    <path id="Path_2859" data-name="Path 2859" d="M89.444,14.708c-19.933-6.487-34.678-2.221-34.678-2.221A5.828,5.828,0,0,0,53.5,13.94l6.1-.557a149.087,149.087,0,0,1,19.7,0c6.076.564,15.321,3.925,19.976,5.742Z" transform="translate(47.792 9.926)" fill="#283133"/>
    <path id="Path_2860" data-name="Path 2860" d="M77.092,7.257,74.029,8.546a6.556,6.556,0,0,0-2.073-1.479l.036,0-2.073-5.32L68.472,6.492a5.611,5.611,0,0,0-2.785,1.282L61.938,5.986l2.035,4.129c-.044.093-.091.172-.133.267a5.653,5.653,0,0,0-.381,3.743l0,.006-3.542,2.543,5.653.434a6.67,6.67,0,0,0,2.921,1.272,6.135,6.135,0,0,0,2.643-.246l.023,0,3.5,2.242L73.8,16.422a6.354,6.354,0,0,0,1.448-2.751,5.963,5.963,0,0,0,.085-2.666Z" transform="translate(53.524 1.562)" fill="#3f8452"/>
    <path id="Path_2861" data-name="Path 2861" d="M77.092,7.257l-4.029.382A6.53,6.53,0,0,0,70.99,6.162h.038L69.918,1.749l-2.41,3.838a5.6,5.6,0,0,0-2.785,1.282L60.974,5.079,63.01,9.211c-.044.091-.091.17-.133.267a5.64,5.64,0,0,0-.381,3.743l0,0-2.579,3.45L64.6,16.2a6.677,6.677,0,0,0,2.923,1.272,6.155,6.155,0,0,0,2.641-.248l.023.006,3.5,2.242-.854-3.959a6.333,6.333,0,0,0,1.448-2.751,5.953,5.953,0,0,0,.083-2.664Z" transform="translate(53.524 1.562)" fill="#e8e943"/>
    <path id="Path_2862" data-name="Path 2862" d="M68.17,3.8a5.9,5.9,0,0,0-6.43,3.91c-2.056,4.8,2.117,7.64,4.65,8a6.061,6.061,0,0,0,6.755-4.709c.932-3.732-1.465-6.4-4.976-7.2" transform="translate(54.661 3.334)" fill="#e8e943"/>
    <path id="Path_2863" data-name="Path 2863" d="M62.371,8.45a5.9,5.9,0,0,1,6.43-3.91A7.352,7.352,0,0,1,72.424,6.47,6.94,6.94,0,0,0,68.17,3.8a5.9,5.9,0,0,0-6.43,3.91,5.215,5.215,0,0,0,1.051,6.153,5.228,5.228,0,0,1-.42-5.409" transform="translate(54.661 3.334)" fill="#fffb56"/>
    <path id="Path_2864" data-name="Path 2864" d="M56.356,13.466a10.8,10.8,0,0,1,4.09,3.359c2.177,2.666,2.651,6.952,2.651,6.952a12.046,12.046,0,0,1-3.7-4.89,35.207,35.207,0,0,0-3.044-5.421" transform="translate(50.344 12.029)" fill="#a2282e"/>
    <path id="Path_2865" data-name="Path 2865" d="M57.728,30.286c-.3-.142-4.834,1.223-9.275-3.946a15.966,15.966,0,0,1,2.613-13.166,9.034,9.034,0,0,1,7.161-.445c4.353,1.333,7.049,6.664,7.049,6.664l4.972,5.6Z" transform="translate(42.881 10.928)" fill="#a2282e"/>
    <path id="Path_2866" data-name="Path 2866" d="M49.832,18.49c.935-5.243,4.148-5.686,4.148-5.686.231-.2.437-.379.63-.557a8.042,8.042,0,0,0-3.544.911,15.962,15.962,0,0,0-2.615,13.166,12.034,12.034,0,0,0,3.921,3.107A13.085,13.085,0,0,1,49.832,18.49" transform="translate(42.88 10.941)" fill="#4e2b2e"/>
    <path id="Path_2867" data-name="Path 2867" d="M63.567,18A17.11,17.11,0,0,0,62.1,15.715c-.407-.18-.808-.354-1.233-.555-5.068-2.4-9.77-1.954-10.728,3.732a14.638,14.638,0,0,0,1.446,9.552,10.566,10.566,0,0,0,4.434.453l12.519-5.3Z" transform="translate(44.589 12.316)" fill="#d2748a"/>
    <path id="Path_2868" data-name="Path 2868" d="M61.608,17.633a17.91,17.91,0,0,0-2.4-3.431c-2.1.551-6.333,2.128-6.983,6.008a7.531,7.531,0,0,0,3.4,7.655L66.58,23.229Z" transform="translate(46.548 12.687)" fill="#a2282e"/>
    <path id="Path_2869" data-name="Path 2869" d="M52.3,19.358,66.266,23.29l.14-.059-4.974-5.6a17.976,17.976,0,0,0-2.4-3.431c-1.937.507-5.642,1.908-6.729,5.156" transform="translate(46.722 12.687)" fill="#681314"/>
    <path id="Path_2870" data-name="Path 2870" d="M64.419,21.1c-.157-.11-1.742-3.508-5.381-4.508a9.651,9.651,0,0,0-6.647.854,5.686,5.686,0,0,0-.182.61c.606,1.091,2.815,4.021,9.306,4.639.517.049,1,.095,1.452.14l2.662-1.127c-.668-.328-1.163-.576-1.21-.608" transform="translate(46.639 14.574)" fill="#fff"/>
    <path id="Path_2871" data-name="Path 2871" d="M59.784,19.482a2.545,2.545,0,1,1-5.074,0,2.545,2.545,0,1,1,5.074,0" transform="translate(48.874 14.948)" fill="#254d68"/>
    <path id="Path_2872" data-name="Path 2872" d="M57.922,18.834a1.275,1.275,0,1,1-1.27-1.376,1.327,1.327,0,0,1,1.27,1.376" transform="translate(49.471 15.596)"/>
    <path id="Path_2873" data-name="Path 2873" d="M56.637,18.3c-.328.418-.827.576-1.117.35s-.256-.75.074-1.168.827-.576,1.115-.35.256.75-.072,1.168" transform="translate(49.421 15.215)" fill="#fff"/>
    <path id="Path_2874" data-name="Path 2874" d="M51.692,19.087s3.635-2.033,6.261-1.988,4.232.621,7.4,5.108v-.7a8.919,8.919,0,0,0-4.589-5.337c-3.654-1.732-9.3,1.8-9.075,2.921" transform="translate(46.172 14.021)" fill="#271112"/>
    <path id="Path_2875" data-name="Path 2875" d="M72.05,26.211a18.974,18.974,0,0,1-4.156-5.841c-.956-2.223-2.463-5.021-3.563-6s-6.208-5.184-12.006-3.02-5.474,6.53-5.474,6.53,2.365-3.243,7.74-3.154,9.862,4.487,10.951,5.907,3.641,5.672,4.875,6.051Z" transform="translate(41.851 9.596)" fill="#c1c1c1"/>
    <path id="Path_2876" data-name="Path 2876" d="M63.6,15.568c-2.448-2.289-4.127-3.8-9.934-3.075s-6.82,3.987-6.82,3.987,2.365-3.243,7.74-3.154,9.862,4.485,10.951,5.907,3.641,5.672,4.875,6.051l.445-.131C68.72,23.9,66.007,17.815,63.6,15.568" transform="translate(41.852 10.997)" fill="#838383"/>
    <path id="Path_2877" data-name="Path 2877" d="M69.553,23.269a18.375,18.375,0,0,1-1.66-2.9c-.956-2.221-2.463-5.019-3.565-6s-6.206-5.184-12-3.022c-4.972,1.855-5.44,5.326-5.474,6.276a9.321,9.321,0,0,1,6.585-5.165,11.569,11.569,0,0,1,9.154,2.221c.767.6,5.854,7.579,6.964,8.586" transform="translate(41.852 9.595)" fill="#efeeef"/>
    <path id="Path_2878" data-name="Path 2878" d="M75.508,15.862a10.827,10.827,0,0,0-4.993,1.759c-2.955,1.763-4.866,5.629-4.866,5.629a12.038,12.038,0,0,0,5.144-3.332,35.148,35.148,0,0,1,4.714-4.055" transform="translate(58.646 14.17)" fill="#a2282e"/>
    <path id="Path_2879" data-name="Path 2879" d="M75.742,32.634c.333-.03,4.126,2.8,10.065-.54A15.959,15.959,0,0,0,87.85,18.828a9.037,9.037,0,0,0-6.577-2.865c-4.548-.235-8.9,3.855-8.9,3.855L65.785,23.38Z" transform="translate(58.767 14.252)" fill="#a2282e"/>
    <path id="Path_2880" data-name="Path 2880" d="M79.98,23.878c.913-5.246-1.956-6.761-1.956-6.761-.15-.261-.282-.5-.4-.738a8.031,8.031,0,0,1,3.018,2.068A15.96,15.96,0,0,1,78.6,31.713a12,12,0,0,1-4.747,1.579,13.087,13.087,0,0,0,6.127-9.414" transform="translate(65.974 14.632)" fill="#4e2b2e"/>
    <path id="Path_2881" data-name="Path 2881" d="M72.37,18.858a17.074,17.074,0,0,1,2.162-1.649c.443-.03.88-.057,1.346-.1,5.583-.524,9.849,1.5,8.808,7.172a14.651,14.651,0,0,1-4.622,8.482,10.617,10.617,0,0,1-4.324-1.089l-9.955-9.255Z" transform="translate(58.767 15.212)" fill="#d2748a"/>
    <path id="Path_2882" data-name="Path 2882" d="M72.37,19.129a17.994,17.994,0,0,1,3.431-2.4c1.787,1.234,5.224,4.162,4.51,8.03A7.531,7.531,0,0,1,74.5,30.788l-8.711-8.1Z" transform="translate(58.767 14.942)" fill="#a2282e"/>
    <path id="Path_2883" data-name="Path 2883" d="M80.364,23.868,65.895,22.793l-.11-.1,6.585-3.563a17.993,17.993,0,0,1,3.431-2.4c1.647,1.138,4.652,3.722,4.563,7.143" transform="translate(58.767 14.941)" fill="#681314"/>
    <path id="Path_2884" data-name="Path 2884" d="M67.49,21.271c.186-.051,2.836-2.7,6.6-2.4a9.65,9.65,0,0,1,5.954,3.073,5.589,5.589,0,0,1-.038.636c-.941.818-4.054,2.327-10.364.689-.5-.131-.937.24-1.378.127L66.146,21.43c.738-.081,1.289-.144,1.344-.159" transform="translate(59.09 16.838)" fill="#fff"/>
    <path id="Path_2885" data-name="Path 2885" d="M71.679,19.1a2.648,2.648,0,0,0-3.323,1.717,2.814,2.814,0,0,0,.269,2.518,21.283,21.283,0,0,0,3.539.53,2.894,2.894,0,0,0,.96-1.316,2.648,2.648,0,0,0-1.445-3.45" transform="translate(60.904 16.939)" fill="#254d68"/>
    <path id="Path_2886" data-name="Path 2886" d="M68.942,20.611a1.275,1.275,0,1,0,1.664-.86,1.328,1.328,0,0,0-1.664.86" transform="translate(61.508 17.581)"/>
    <path id="Path_2887" data-name="Path 2887" d="M68.99,19.846c-.329.418-.364.941-.078,1.166s.788.074,1.117-.345.365-.941.076-1.168-.788-.072-1.115.346" transform="translate(61.388 17.327)" fill="#fff"/>
    <path id="Path_2888" data-name="Path 2888" d="M79.551,20.953s-7.583.759-11.879-.049,4.75,2.658,4.75,2.658,6.511-.82,7.128-2.609" transform="translate(59.419 18.565)" fill="#a2282e"/>
    <path id="Path_2889" data-name="Path 2889" d="M80.431,23.71a17.678,17.678,0,0,0-5.078-3.268c-2.482-.854-4.317-1.6-8.83,1.532l.24-.661a9.048,9.048,0,0,1,5.994-2.825c4.027-.381,8.264,4.245,7.674,5.222" transform="translate(59.426 16.496)" fill="#271112"/>
    <path id="Path_2890" data-name="Path 2890" d="M65.421,24.2a18.966,18.966,0,0,0,5.9-4.071c1.657-1.761,4.031-3.876,5.4-4.419s7.605-2.751,12.314,1.263,2.914,8.007,2.914,8.007-1.113-3.855-6.2-5.608-10.8.848-12.308,1.812-5.362,4.086-6.651,4.02Z" transform="translate(58.442 13.059)" fill="#c1c1c1"/>
    <path id="Path_2891" data-name="Path 2891" d="M76.044,17.2c3.082-1.316,5.176-2.158,10.387.5s5.048,6.078,5.048,6.078-1.115-3.857-6.2-5.61-10.8.848-12.31,1.812-5.36,4.086-6.649,4.021l-.373-.275c2.44-.447,7.07-5.239,10.1-6.53" transform="translate(58.914 14.259)" fill="#838383"/>
    <path id="Path_2892" data-name="Path 2892" d="M67.19,22.292a18.262,18.262,0,0,0,2.55-2.158c1.659-1.761,4.031-3.876,5.4-4.419s7.605-2.751,12.314,1.263c4.04,3.442,3.294,6.863,3,7.768a9.319,9.319,0,0,0-4.423-7.1A11.574,11.574,0,0,0,76.668,16.6c-.924.3-8.092,5.123-9.478,5.691" transform="translate(60.022 13.06)" fill="#efeeef"/>
    <path id="Path_2893" data-name="Path 2893" d="M61.739,15.25c4.764.886,9.546,1.861,14.414,1.649a.136.136,0,0,1,.159.125c-4.7,1.176-9.951-.229-14.683-1.25a.269.269,0,0,1,.11-.524" transform="translate(54.88 13.619)" fill="#4e2b2e"/>
    <path id="Path_2894" data-name="Path 2894" d="M60.973,18.944a13.763,13.763,0,0,0,4.139-2.658c-.451,1.66-2.463,2.567-4.006,3.05a.208.208,0,0,1-.133-.392" transform="translate(54.36 14.549)" fill="#4e2b2e"/>
    <path id="Path_2895" data-name="Path 2895" d="M65.042,21.459c-.791-1.342-1.732-3.537-.882-4.947A12.884,12.884,0,0,0,65.4,21.259a.208.208,0,0,1-.362.2" transform="translate(57.015 14.751)" fill="#4e2b2e"/>
    <path id="Path_2896" data-name="Path 2896" d="M46.851,43.451S46.5,53.126,55.015,50.9s5.958-5.561,10.078-8.155,13.234-1.871,14.94-1.611,3.4.42,5.084,6.2,3.987,7.641,7.369,7.2,6.034-4.7,6.757-7.632S101.787,36.9,100.663,36,87.517,23.443,80.985,19.533s-17.659,2.31-17.659,2.31-11.517,5.968-12.812,7.871a27.212,27.212,0,0,0-3.664,13.738" transform="translate(41.846 16.296)" fill="#ce97a0"/>
    <path id="Path_2897" data-name="Path 2897" d="M55.012,41.209c8.51-2.23,5.958-5.561,10.078-8.155s13.234-1.871,14.94-1.611,3.4.42,5.084,6.2,3.987,7.641,7.369,7.2a6.579,6.579,0,0,0,3.857-2.3c-1.3.345-2.514.2-4.067.748-3.145,1.108-5.3-3.416-5.913-6.081s-1.522-5.722-2.59-6.167-1.085-2.452-9.841-1.846S64.5,31.881,62.275,34.712s-5.583,6-10.355,5.426-5.072-6.373-5.072-6.373-.346,9.675,8.164,7.445" transform="translate(41.848 25.983)" fill="#6e1f2a"/>
    <path id="Path_2898" data-name="Path 2898" d="M58.757,25.634C62.773,23.7,75.4,18.919,77.024,18.307c-6.28-.612-13.7,3.533-13.7,3.533S51.8,27.806,50.508,29.711a27.322,27.322,0,0,0-3.656,13.437c.4-1.581.852-3.408,1.3-5.326,1.3-5.627,6.314-10.118,10.608-12.187" transform="translate(41.852 16.299)" fill="#ecc2c8"/>
    <path id="Path_2899" data-name="Path 2899" d="M63.227,19.924a4.163,4.163,0,0,0-2.976.068,2.23,2.23,0,0,0-1.274,2.494c.411,1.363,2.191,1.708,3.162,2.749.949,1.017,1,2.545,1.109,3.932a28.018,28.018,0,0,0,.825,4.943,15.71,15.71,0,0,1,1.9-6.038,4.679,4.679,0,0,1,2.556-2.437c.53-.15,1.091-.134,1.628-.24,1.39-.275,2.63-1.732,2.141-3.06-.437-1.185-1.888-1.594-3.143-1.738a10.046,10.046,0,0,0-3.008.352c-.986.157-1.865-.708-2.925-1.026" transform="translate(52.621 17.583)" fill="#432918"/>
    <path id="Path_2900" data-name="Path 2900" d="M63.85,24.072c.006.042.011.083.015.125a3.955,3.955,0,0,1-.153,1.168,18.651,18.651,0,0,0-.428,3.052,34.612,34.612,0,0,1,1.335-3.548,5.818,5.818,0,0,1,1.091-1.863c1.108-1.121,2.874-1.153,4.357-1.693a7.758,7.758,0,0,0-3.908.381,2.871,2.871,0,0,1-3.041-.208,4.171,4.171,0,0,0-3.366-.521c.464-.136,1.3.451,1.651.682a14.077,14.077,0,0,1,1.575.99,2.443,2.443,0,0,1,.873,1.435" transform="translate(53.377 18.593)" fill="#ca9e67"/>
    <path id="Path_2901" data-name="Path 2901" d="M58.348,23.039c-.447-.316-1.176.206-1.221.7a.8.8,0,0,0,.63.82.838.838,0,0,0,.907-.519.886.886,0,0,0-.316-1.005" transform="translate(51.031 20.496)" fill="#3e2126"/>
    <path id="Path_2902" data-name="Path 2902" d="M55.327,23.169a.7.7,0,0,0,.839-.341c.3-.6-.388-1.219-.981-1.024-.689.227-.411,1.153.142,1.365" transform="translate(48.934 19.445)" fill="#3e2126"/>
    <path id="Path_2903" data-name="Path 2903" d="M55.375,24.106a.61.61,0,0,0-.059.216.471.471,0,0,0,.138.339.741.741,0,0,0,.326.182,1.037,1.037,0,0,0,.7-.049.54.54,0,0,0,.216-.157.289.289,0,0,0,.055-.252.491.491,0,0,0-.081-.134l-.229-.3c-.356-.462-.831-.39-1.07.151" transform="translate(49.415 21.127)" fill="#3e2126"/>
    <path id="Path_2904" data-name="Path 2904" d="M57.963,26.777a.677.677,0,0,0,.191.144.657.657,0,0,0,.538.006.853.853,0,0,0,.4-.373.742.742,0,0,0-.727-1.117.849.849,0,0,0-.4,1.34" transform="translate(51.611 22.709)" fill="#3e2126"/>
    <path id="Path_2905" data-name="Path 2905" d="M58.337,28.9a.651.651,0,0,0,.24.256.769.769,0,0,0,.235.072,1.139,1.139,0,0,0,.867-.095.642.642,0,0,0,.061-1.007,2.713,2.713,0,0,0-.239-.17c-.278-.2-.706-.723-1.06-.337a1.157,1.157,0,0,0-.1,1.282" transform="translate(51.984 24.55)" fill="#3e2126"/>
    <path id="Path_2906" data-name="Path 2906" d="M56.18,29.1a.818.818,0,0,0,.752.445.534.534,0,0,0,.182-.034.665.665,0,0,0,.328-.339.712.712,0,0,0,.04-.638.866.866,0,0,0-.3-.288,1.1,1.1,0,0,0-.428-.191c-.566-.091-.786.621-.576,1.045" transform="translate(50.117 25.054)" fill="#3e2126"/>
    <path id="Path_2907" data-name="Path 2907" d="M54.211,28.3a.827.827,0,0,1,.165-.312.543.543,0,0,1,.716.023,1.172,1.172,0,0,1,.356.905c-.047.235-.286.286-.509.3a.684.684,0,0,1-.727-.918" transform="translate(48.389 24.894)" fill="#3e2126"/>
    <path id="Path_2908" data-name="Path 2908" d="M52.556,31.06a1.119,1.119,0,0,0,.8.35A.675.675,0,0,0,54,30.888a.915.915,0,0,0-.231-.666,1.433,1.433,0,0,0-.685-.532.738.738,0,0,0-.867.312,1.059,1.059,0,0,0,.341,1.058" transform="translate(46.602 26.493)" fill="#3e2126"/>
    <path id="Path_2909" data-name="Path 2909" d="M51.307,29.214a.552.552,0,0,0,.559-.047.76.76,0,0,0,.153-.176.7.7,0,0,0,.144-.485,1.127,1.127,0,0,0-.256-.443,1.869,1.869,0,0,0-.278-.352c-.35-.3-.731.161-.814.5a.983.983,0,0,0,.492,1.005" transform="translate(45.378 24.67)" fill="#3e2126"/>
    <path id="Path_2910" data-name="Path 2910" d="M51.385,32.065a2.535,2.535,0,0,0,.435.6,1.31,1.31,0,0,0,.458.377.469.469,0,0,0,.545-.106.588.588,0,0,0,.062-.464,1.929,1.929,0,0,0-.574-1.047.97.97,0,0,0-.29-.2.644.644,0,0,0-.659.1c-.161.184-.07.54.021.737" transform="translate(45.805 27.854)" fill="#3e2126"/>
    <path id="Path_2911" data-name="Path 2911" d="M49.237,30.867a.574.574,0,0,0-.39.292.749.749,0,0,0,.1.757.546.546,0,0,0,.56.259.589.589,0,0,0,.307-.276.836.836,0,0,0,.136-.477.637.637,0,0,0-.71-.555" transform="translate(43.579 27.566)" fill="#3e2126"/>
    <path id="Path_2912" data-name="Path 2912" d="M49,28.161a.413.413,0,0,0,.377.017.565.565,0,0,0,.273-.271.734.734,0,0,0-.2-.882.368.368,0,0,0-.11-.061.443.443,0,0,0-.309.047.611.611,0,0,0-.254.178.832.832,0,0,0,.222.971" transform="translate(43.503 24.077)" fill="#3e2126"/>
    <path id="Path_2913" data-name="Path 2913" d="M49.516,29.158a.662.662,0,0,0-.061.235,1.112,1.112,0,0,0,.055.466.521.521,0,0,0,.244.318.433.433,0,0,0,.176.038A.64.64,0,0,0,50.5,29.8a.9.9,0,0,0-.062-.729c-.093-.174-.235-.354-.443-.3a.871.871,0,0,0-.481.386" transform="translate(44.175 25.693)" fill="#3e2126"/>
    <path id="Path_2914" data-name="Path 2914" d="M63.952,27.82a.6.6,0,0,0-.157.5.566.566,0,0,0,.169.28,1.1,1.1,0,0,0,.748.3,1.709,1.709,0,0,0,.793-.191,1.1,1.1,0,0,0,.379-.275A.526.526,0,0,0,66,27.994a.6.6,0,0,0-.187-.292,1.407,1.407,0,0,0-1.863.117" transform="translate(56.98 24.481)" fill="#3e2126"/>
    <path id="Path_2915" data-name="Path 2915" d="M64.926,26.51a.759.759,0,0,0,.1.146.8.8,0,0,0,.242.222.75.75,0,0,0,.424.047,3.787,3.787,0,0,0,.524-.087c.771-.182.384-1.142-.182-1.35-.524-.191-1.373.439-1.108,1.022" transform="translate(57.955 22.737)" fill="#3e2126"/>
    <path id="Path_2916" data-name="Path 2916" d="M66.011,24.416a.776.776,0,0,0,.757.354.954.954,0,0,0,.693-.5.758.758,0,0,0-.824-1c-.47.112-.9.682-.627,1.145" transform="translate(58.893 20.774)" fill="#3e2126"/>
    <path id="Path_2917" data-name="Path 2917" d="M68.846,24.012a.427.427,0,0,0,.2.142.553.553,0,0,0,.43-.091.872.872,0,0,0,.382-.422.516.516,0,0,0-.678-.666.716.716,0,0,0-.337,1.038" transform="translate(61.395 20.486)" fill="#3e2126"/>
    <path id="Path_2918" data-name="Path 2918" d="M65.834,29.823a.583.583,0,0,0,.462.237.97.97,0,0,0,.513-.14,1.437,1.437,0,0,0,.339-.265.961.961,0,0,0,.292-.608.583.583,0,0,0-.32-.564.776.776,0,0,0-.964.178c-.239.3-.587.774-.322,1.162" transform="translate(58.726 25.365)" fill="#3e2126"/>
    <path id="Path_2919" data-name="Path 2919" d="M67.864,26.493a.608.608,0,0,1,.358.034.627.627,0,0,1,.275.331.546.546,0,0,1,.04.384.529.529,0,0,1-.337.284.875.875,0,0,1-1.011-.265c-.254-.411.339-.714.676-.769" transform="translate(59.965 23.657)" fill="#3e2126"/>
    <path id="Path_2920" data-name="Path 2920" d="M70.874,25.45a.917.917,0,0,0,.2.271.479.479,0,0,0,.668-.68.707.707,0,0,0-.18-.146c-.193-.114-.61-.252-.8-.064s.017.445.114.619" transform="translate(63.145 22.099)" fill="#3e2126"/>
    <path id="Path_2921" data-name="Path 2921" d="M66.961,30.665a.638.638,0,0,0,.008.708.606.606,0,0,0,.475.2,1.352,1.352,0,0,0,.511-.131,2.918,2.918,0,0,0,.28-.133.7.7,0,0,0,.388-.384.777.777,0,0,0-.223-.636.677.677,0,0,0-.271-.252.513.513,0,0,0-.214-.027,1.308,1.308,0,0,0-.954.655" transform="translate(59.725 26.807)" fill="#3e2126"/>
    <path id="Path_2922" data-name="Path 2922" d="M69.046,31.582a.408.408,0,0,0-.038.331.46.46,0,0,0,.2.22.8.8,0,0,0,.765.059.6.6,0,0,0,.326-.661.409.409,0,0,0-.08-.163.7.7,0,0,0-.506-.18.85.85,0,0,0-.259.006.815.815,0,0,0-.409.388" transform="translate(61.629 27.855)" fill="#3e2126"/>
    <path id="Path_2923" data-name="Path 2923" d="M72.177,30.016a.573.573,0,0,1,.2.358.466.466,0,0,1-.121.384.728.728,0,0,1-.263.157,2.694,2.694,0,0,1-.322.112A.523.523,0,0,1,71.217,31a.729.729,0,0,1-.148-.945.886.886,0,0,1,1.108-.04" transform="translate(63.381 26.657)" fill="#3e2126"/>
    <path id="Path_2924" data-name="Path 2924" d="M69.565,33.431a.791.791,0,0,0-.191.731.584.584,0,0,0,.479.335,1.228,1.228,0,0,0,.6-.106,1.653,1.653,0,0,0,.685-.477.941.941,0,0,0,.206-.788c-.261-1.111-1.416-.17-1.776.3" transform="translate(61.943 29.127)" fill="#3e2126"/>
    <path id="Path_2925" data-name="Path 2925" d="M72.672,31.295a.614.614,0,0,1,.2.028.509.509,0,0,1,.271.634.863.863,0,0,1-.545.5c-.386.138-.926-.03-.886-.526.03-.415.608-.634.956-.636" transform="translate(64.063 27.956)" fill="#3e2126"/>
    <path id="Path_2926" data-name="Path 2926" d="M73.66,29.779a1.022,1.022,0,0,0-.405.523.571.571,0,0,0,.176.608.686.686,0,0,0,.381.114,1.075,1.075,0,0,0,.587-.14.792.792,0,0,0,.364-.47,1.011,1.011,0,0,0,.025-.239.817.817,0,0,0-.2-.6c-.309-.3-.666.013-.928.2" transform="translate(65.419 26.31)" fill="#3e2126"/>
    <path id="Path_2927" data-name="Path 2927" d="M60.414,27.914s-6.67,1.032-8.9,3.179-3.094,11.661-3.094,11.661-1.094,7.257-1.386,7.5-.2-5.229-.025-8.342,1.227-8.991,2.1-10.381,5.023-4.182,10.139-4.955c0,0,1.628-.229,1.166,1.34" transform="translate(41.849 23.728)" fill="#e3b3be"/>
    <path id="Path_2928" data-name="Path 2928" d="M60.969,24.305s-6.736.411-9.154,2.344-4.158,11.324-4.158,11.324S45.9,45.1,45.586,45.311s.278-5.227.746-8.308,2.05-8.84,3.048-10.143,5.387-3.7,10.551-4c0,0,1.643-.078,1.038,1.443" transform="translate(40.645 20.423)" fill="#fdf8fa"/>
    <path id="Path_2929" data-name="Path 2929" d="M60.621,26.01s-6.7.818-9,2.893-3.463,11.555-3.463,11.555-1.325,7.221-1.624,7.452-.038-5.235.242-8.34,1.511-8.948,2.429-10.307,5.152-4.021,10.29-4.631c0,0,1.634-.176,1.123,1.378" transform="translate(41.454 21.999)" fill="#dea4b1"/>
    <path id="Path_2930" data-name="Path 2930" d="M62.715,25.425s-6.672,1.032-8.9,3.179-3.094,11.661-3.094,11.661-1.094,7.257-1.386,7.5-.2-5.229-.025-8.342,1.227-8.991,2.1-10.381,5.023-4.182,10.139-4.955c0,0,1.628-.229,1.168,1.34" transform="translate(43.904 21.505)" fill="#e5bac5"/>
    <path id="Path_2931" data-name="Path 2931" d="M63.032,27.662s-6.67,1.032-8.9,3.179S51.04,42.5,51.04,42.5s-1.094,7.257-1.386,7.5-.2-5.229-.025-8.342,1.227-8.991,2.1-10.381,5.023-4.182,10.139-4.955c0,0,1.628-.229,1.166,1.34" transform="translate(44.188 23.503)" fill="#e0a9b6"/>
    <path id="Path_2932" data-name="Path 2932" d="M61.471,31.084s-6.541,1.66-8.558,4.01S50.942,47,50.942,47s-.4,7.329-.666,7.6-.7-5.188-.818-8.3.367-9.067,1.1-10.533,4.6-4.641,9.622-5.9c0,0,1.6-.382,1.287,1.225" transform="translate(44.167 26.638)" fill="#e8c0c9"/>
    <path id="Path_2933" data-name="Path 2933" d="M61.353,29.676s-6.67,1.034-8.9,3.179-3.094,11.663-3.094,11.663-1.094,7.257-1.386,7.5-.2-5.229-.025-8.342,1.227-8.991,2.1-10.381,5.023-4.182,10.139-4.955c0,0,1.628-.229,1.166,1.339" transform="translate(42.688 25.304)" fill="#fcf8f9"/>
    <path id="Path_2934" data-name="Path 2934" d="M69.037,27.892s6.257,2.531,7.935,5.133.343,12.059.343,12.059-.6,7.316-.369,7.615,1.4-5.044,1.935-8.115.865-9.033.333-10.586-3.931-5.22-8.734-7.145c0,0-1.534-.594-1.443,1.039" transform="translate(61.669 23.894)" fill="#e3b3be"/>
    <path id="Path_2935" data-name="Path 2935" d="M70.264,25.411s6.464,1.943,8.376,4.377,1.454,11.975,1.454,11.975.081,7.34.335,7.619.926-5.152,1.178-8.259.027-9.077-.646-10.572-4.4-4.836-9.357-6.309c0,0-1.581-.451-1.34,1.168" transform="translate(62.746 21.605)" fill="#fdf8fa"/>
    <path id="Path_2936" data-name="Path 2936" d="M70.087,26.366s6.335,2.329,8.1,4.875.725,12.042.725,12.042-.362,7.333-.125,7.624,1.236-5.085,1.674-8.172.577-9.058,0-10.591-4.1-5.093-8.957-6.863c0,0-1.551-.545-1.409,1.085" transform="translate(62.602 22.506)" fill="#dea4b1"/>
    <path id="Path_2937" data-name="Path 2937" d="M67.369,24.942s6.257,2.531,7.935,5.133.343,12.059.343,12.059-.6,7.316-.369,7.615,1.4-5.044,1.935-8.115.865-9.033.333-10.586-3.931-5.22-8.734-7.145c0,0-1.534-.595-1.443,1.039" transform="translate(60.178 21.259)" fill="#e5bac5"/>
    <path id="Path_2938" data-name="Path 2938" d="M66.547,27.046s6.256,2.531,7.933,5.133.343,12.057.343,12.057-.595,7.318-.369,7.617,1.4-5.044,1.935-8.115.867-9.033.335-10.586-3.932-5.22-8.736-7.145c0,0-1.534-.595-1.441,1.039" transform="translate(59.444 23.138)" fill="#e0a9b6"/>
    <path id="Path_2939" data-name="Path 2939" d="M67.058,30.42s5.277,2.743,6.532,5.167-.71,10.608-.71,10.608-1.136,6.369-.96,6.651,1.647-4.309,2.376-6.958,1.515-7.853,1.18-9.258-3.012-4.911-7.066-7c0,0-1.3-.651-1.352.79" transform="translate(59.904 26.338)" fill="#e8c0c9"/>
    <path id="Path_2940" data-name="Path 2940" d="M67.72,29.393s6.257,2.531,7.935,5.133S76,46.585,76,46.585s-.6,7.316-.369,7.615,1.4-5.044,1.935-8.115.865-9.033.333-10.586-3.931-5.22-8.734-7.145c0,0-1.534-.595-1.443,1.039" transform="translate(60.492 25.235)" fill="#fcf8f9"/>
    <path id="Path_2941" data-name="Path 2941" d="M33.833,67.84c-.947-1.479-2.863-4.209-4.762-7a14,14,0,0,0-1.013,3.353c-.254,1.7.646,3.347,1.543,4.82A125.37,125.37,0,0,0,40.725,84.489a21.818,21.818,0,0,0,4.364,4.2C42.611,83.952,35.581,70.57,33.833,67.84" transform="translate(25.026 54.348)" fill="#337bc0"/>
    <path id="Path_2942" data-name="Path 2942" d="M65.145,6.219a.875.875,0,0,0,.689-.114.862.862,0,0,0,.4-.562.848.848,0,0,0-.115-.682.89.89,0,0,0-.576-.392.85.85,0,0,0-1.056.668.883.883,0,0,0,.112.689.855.855,0,0,0,.551.392" transform="translate(57.58 3.969)" fill="#fffb56"/>
    <path id="Path_2943" data-name="Path 2943" d="M67.535,9.836c-.256.066-.413.422-.449.373s-.462-.475-.5-.286c-.028.14.326.629.24,1.091a.975.975,0,0,1-.108.269.784.784,0,0,1-.157.174.657.657,0,0,1-.5.108.865.865,0,0,1-.755-.831l0,0a2.588,2.588,0,0,1,0-.4,2.309,2.309,0,0,1,.318-1.026,11.048,11.048,0,0,1,.646-.905,4.235,4.235,0,0,0,.485-.78v0c.848-1.518.006-1.829-.117-1.865a.238.238,0,0,0-.159-.121c-.042,0-.062.021-.066.07a.206.206,0,0,0,.006.062c0,.028,0,.064,0,.108a1.832,1.832,0,0,1-.006.485,1.618,1.618,0,0,1-.918.954q-1.19.639-1.429.79a3.351,3.351,0,0,0-.534.441,2.223,2.223,0,0,0-.566,1.1,1.747,1.747,0,0,0,.28,1.5,2.463,2.463,0,0,0,1.5.869,3.746,3.746,0,0,0,.854.1,1.81,1.81,0,0,0,1.63-.873c.208-.284.562-1.467.311-1.4m-.678-3.792a.1.1,0,0,1,.076.121.1.1,0,0,1-.119.076.1.1,0,0,1-.078-.121.1.1,0,0,1,.121-.076" transform="translate(56.195 5.036)" fill="#fffb56"/>
    <path id="Path_2944" data-name="Path 2944" d="M64.925,6.242a.875.875,0,0,0,.689-.114.862.862,0,0,0,.4-.562.847.847,0,0,0-.115-.682.89.89,0,0,0-.576-.392.85.85,0,0,0-1.056.668.883.883,0,0,0,.112.689.855.855,0,0,0,.551.392" transform="translate(57.384 3.99)" fill="#bfa800"/>
    <path id="Path_2945" data-name="Path 2945" d="M67.315,9.859c-.256.066-.413.422-.449.373s-.462-.475-.5-.286c-.028.14.326.629.24,1.091a.975.975,0,0,1-.108.269.784.784,0,0,1-.157.174.658.658,0,0,1-.5.108.865.865,0,0,1-.755-.831l0,0a2.585,2.585,0,0,1,0-.4A2.308,2.308,0,0,1,65.4,9.33a11.044,11.044,0,0,1,.646-.905,4.237,4.237,0,0,0,.485-.78v0c.848-1.518.006-1.829-.117-1.865a.238.238,0,0,0-.159-.121c-.042,0-.062.021-.066.07a.206.206,0,0,0,.006.062c0,.028,0,.064,0,.108a1.831,1.831,0,0,1-.006.485,1.617,1.617,0,0,1-.918.954q-1.19.639-1.429.79a3.35,3.35,0,0,0-.534.441,2.223,2.223,0,0,0-.566,1.1,1.747,1.747,0,0,0,.28,1.5,2.463,2.463,0,0,0,1.5.869,3.746,3.746,0,0,0,.854.1A1.81,1.81,0,0,0,67,11.261c.208-.284.562-1.467.31-1.4m-.678-3.792a.1.1,0,0,1,.076.121.1.1,0,0,1-.119.076.1.1,0,0,1-.078-.121.1.1,0,0,1,.121-.076" transform="translate(55.999 5.057)" fill="#bfa800"/>
    <rect id="Rectangle_1740" data-name="Rectangle 1740" width="227.064" height="227.064" fill="none"/>
  </g>
</svg>
