<svg id="Icon-set-work" xmlns="http://www.w3.org/2000/svg" xmlns:xlink="http://www.w3.org/1999/xlink" width="120.556" height="120.234" viewBox="0 0 120.556 120.234">
  <defs>
    <clipPath id="clip-path">
      <rect id="Rectangle_1599" data-name="Rectangle 1599" width="120.234" height="120.234" transform="translate(0 0)" fill="none"/>
    </clipPath>
    <clipPath id="clip-path-2">
      <rect id="Rectangle_1598" data-name="Rectangle 1598" width="67.676" height="38.026" transform="translate(38.428 6.104)" fill="none"/>
    </clipPath>
    <clipPath id="clip-path-3">
      <rect id="Rectangle_1600" data-name="Rectangle 1600" width="40.395" height="33.158" transform="translate(62.419 71.104)" fill="none"/>
    </clipPath>
  </defs>
  <rect id="frame" width="120" height="120" fill="none"/>
  <g id="Group_1625" data-name="Group 1625" transform="translate(0.322)">
    <path id="Path_1851" data-name="Path 1851" d="M11.63,38.472,40.709,44.13,106.1,6.1Z" fill="#fff"/>
    <path id="Path_1852" data-name="Path 1852" d="M11.63,38.472,40.709,44.13,106.1,6.1Z" fill="#fff"/>
    <path id="Path_1853" data-name="Path 1853" d="M21.3,35.16,11.63,38.473l29.08,5.658,18.74-10.9Z" fill="#53b4ed"/>
    <g id="Group_1617" data-name="Group 1617">
      <g id="Group_1616" data-name="Group 1616" clip-path="url(#clip-path)">
        <g id="Group_1615" data-name="Group 1615" opacity="0.3">
          <g id="Group_1614" data-name="Group 1614">
            <g id="Group_1613" data-name="Group 1613" clip-path="url(#clip-path-2)">
              <path id="Path_1854" data-name="Path 1854" d="M40.709,44.13,106.1,6.1l-.742.254L38.428,43.686Z" fill="#c6cbd6"/>
            </g>
          </g>
        </g>
      </g>
    </g>
    <path id="Path_1855" data-name="Path 1855" d="M40.709,44.13,44.92,77.946,106.1,6.1Z" fill="#fff"/>
    <path id="Path_1856" data-name="Path 1856" d="M40.709,44.13,44.92,77.946,106.1,6.1Z" fill="#c6cbd6"/>
    <path id="Path_1857" data-name="Path 1857" d="M50.84,52.025,87.157,70.314,106.1,6.1Z" fill="#ecf0f1"/>
    <path id="Path_1858" data-name="Path 1858" d="M55.973,64.967l3.946-31.758-.47.024-18.74,10.9,4.21,33.816Z" fill="#2a68a6"/>
    <path id="Path_1859" data-name="Path 1859" d="M50.84,52.025,44.919,77.946,66.5,52.814Z" fill="#22588f"/>
    <path id="Path_1860" data-name="Path 1860" d="M50.84,52.025,87.157,70.314l1.413-4.79L70,36.1Z" fill="#53b4ed"/>
    <g id="Group_1620" data-name="Group 1620" opacity="0.3">
      <g id="Group_1619" data-name="Group 1619">
        <g id="Group_1618" data-name="Group 1618" clip-path="url(#clip-path-3)">
          <path id="Path_1861" data-name="Path 1861" d="M77.551,103.472,74,94.525,62.419,91.1l40.4-20L93.6,104.261,82.419,98.209Z"/>
        </g>
      </g>
    </g>
  </g>
</svg>
