<svg id="sfx" xmlns="http://www.w3.org/2000/svg" width="119.917" height="120" viewBox="0 0 119.917 120">
  <path id="Path_5524" data-name="Path 5524" d="M87.386,80.983c3.275-.415,9.04-.247,17.648,3.132,0,0-8.236-5.311-11.682-8.926a6.1,6.1,0,0,0,1.92-2.341,54.054,54.054,0,0,1,9.762.041,55.5,55.5,0,0,1-9.22-2.985,6.082,6.082,0,0,0-3.645-5.213,8.466,8.466,0,0,0,1.311-4.526V60.16a8.4,8.4,0,0,0-.109-1.287c-.011-.078-.021-.157-.035-.234a8.7,8.7,0,0,0-.2-.872,54.04,54.04,0,0,1,7.573-5.032s-12.308.271-15.149-1.623,12.038-27.187,16.367-30.569c0,0-16.688,14.468-26.19,19.963a7.19,7.19,0,0,0-3.59,1.023,4.383,4.383,0,0,0-1.25-4.975c-.056-.049-.114-.1-.172-.143a4.37,4.37,0,0,0-.359-.26,4.274,4.274,0,0,0-.573-.311c-.076-.034-.156-.058-.235-.087a4.3,4.3,0,0,0-.531-.165c-.079-.019-.157-.037-.238-.052a4.229,4.229,0,0,0-1.692.011c-.121.024-.233.074-.35.108a4.622,4.622,0,0,0-.485.15,4.479,4.479,0,0,0-.492.266c-.086.05-.18.088-.263.143a4.515,4.515,0,0,0-.61.5c-.015.014-.033.025-.048.04a4.451,4.451,0,0,0-.992,1.509c-3.7-4.766-7.183-13.333-9.864-25.032v13.8L48.631,19.6s4.869,18.8.946,20.965S31.588,30.079,31.588,30.079s7.439,12.647,6.627,13.864-12.579-4.6-12.579-4.6,7.179,6.7,10.275,11.464a9.468,9.468,0,0,0-.931,5.427c.013.114.033.224.051.337q.062.4.156.8c.028.113.056.226.087.338.081.288.175.569.281.845.026.066.046.134.073.2a9.592,9.592,0,0,0,.492,1.027c.007.014.017.027.024.041a9.838,9.838,0,0,0,.577.9l.12.159.008.01a3.384,3.384,0,0,1-.662.1c-3.111.135-14.608,0-14.608,0l7.709,4.6L2.944,69.78s25.8,2.973,27.426,4.056l-9.738,6.221,10.821-.946.169.032a9.649,9.649,0,0,0-.568,3.243,9.809,9.809,0,0,0,.071,1.1c.013.112.029.223.046.334.04.267.092.529.154.788.036.154.075.306.119.456.07.24.147.477.235.709.072.191.153.377.236.562.041.092.085.181.13.271a9.709,9.709,0,0,0,1.223,1.9c-.018-.014-.039-.024-.057-.038.1.117.2.223.3.335.084.094.166.19.253.28h0c.194.2.4.393.612.578l0,0,.005,0c.067.058.129.119.2.175a9.6,9.6,0,0,0,.891.657l0,0,.01.007a9.5,9.5,0,0,0,1.149.636c.053.025.109.044.163.068a9.343,9.343,0,0,0,1,.382c.114.037.229.069.343.1.3.084.613.152.928.207.121.022.24.047.362.063a9.456,9.456,0,0,0,6.376-1.348,158.38,158.38,0,0,1,.924,27.166s6.544-19.218,13.216-28.741a11.056,11.056,0,0,0,2.384.421c.374.024.744.028,1.11.015a3.525,3.525,0,0,0-.4.835,3.623,3.623,0,0,0-.146.541,3.219,3.219,0,0,0-.061.61,3.568,3.568,0,0,0,2.847,3.493,3.613,3.613,0,0,0,.718.072h0a3.5,3.5,0,0,0,.635-.064c.072-.013.14-.03.21-.048a3.648,3.648,0,0,0,.389-.12c.076-.028.153-.055.228-.088a3.718,3.718,0,0,0,.481-.261,3.569,3.569,0,0,0,.142.623l.005.017a3.537,3.537,0,0,0,.235.551l.03.056a3.573,3.573,0,0,0,.3.458l.081.1a3.506,3.506,0,0,0,.334.355c.05.046.105.087.158.13a3.653,3.653,0,0,0,.338.251c.082.052.17.093.256.139a3.414,3.414,0,0,0,.315.156,3.448,3.448,0,0,0,.378.117c.087.024.169.057.257.074a3.589,3.589,0,0,0,.677.068h.012a3.533,3.533,0,0,0,.808-.1c.075-.018.144-.045.217-.068a3.408,3.408,0,0,0,.54-.208c.069-.034.134-.071.2-.109a3.47,3.47,0,0,0,.495-.344c.044-.037.09-.07.132-.109a3.613,3.613,0,0,0,.516-.575h0a8.485,8.485,0,0,0,1.232.1c.25,0,.5-.016.74-.037,7.789,8.474,17.23,19.1,20.168,23.9,0,0-10.654-24.785-12.557-35.687a3.547,3.547,0,0,0,3.025-3.33" opacity="0.3"/>
  <path id="Path_5525" data-name="Path 5525" d="M48.349,7.052s5.124,19.786,1,22.063S30.414,18.084,30.414,18.084s7.829,13.309,6.975,14.59-13.238-4.84-13.238-4.84,10.533,9.822,12.1,14.519,2.277,8.113-1,8.256-15.373,0-15.373,0l8.113,4.839L.271,59.863s27.154,3.129,28.862,4.268L18.884,70.679l11.388-1,13.522,2.562s3.7,15.373,2.562,38.147c0,0,11.245-33.023,19.643-35.585,0,0,27.615,28.839,33.166,37.906,0,0-13.238-30.789-13.522-40.184,0,0,6.832-3.558,22.063,2.42,0,0-12.811-8.256-13.807-11.529,0,0,8.113-1,13.807-.285,0,0-12.526-2.7-16.512-7.687s11.957-13.522,11.957-13.522-12.953.285-15.943-1.708,12.669-28.611,17.224-32.17c0,0-26.761,23.2-33.024,23.2S58.489,19.99,53.988.354V14.881Z" fill="#ff760a"/>
  <path id="Path_5526" data-name="Path 5526" d="M51.054,33.812s3.559-3.889,2.277-12.051l1.709,2.514.569-6.975s3.843,12.526,9.252,14.519S51.172,43.056,51.054,33.812" fill="#f7f77c"/>
  <path id="Path_5527" data-name="Path 5527" d="M47.353,33.812s-6.69-1.993-8.683-4.7c0,0,3.132,7.4,2.278,9.537s-1.281-.8-1.281-.8L33.83,35.235l3.7,4.195s11.1,2.638,9.822-5.618" fill="#f7f77c"/>
  <path id="Path_5528" data-name="Path 5528" d="M34.685,52.744l-5.267.854,4.413,1.993-2.562,2.42L16.75,60,37.817,63.42Z" fill="#f7f77c"/>
  <path id="Path_5529" data-name="Path 5529" d="M46.357,70.679S49.773,84.2,48.919,96.87c0,0,8.683-21.494,12.953-24.625S46.357,59.434,46.357,70.679" fill="#f7f77c"/>
  <path id="Path_5530" data-name="Path 5530" d="M72.69,75.376S92.333,100.855,92.9,101.852,80.234,76.8,79.807,69.967s-15.231-2.135-7.117,5.409" fill="#f7f77c"/>
  <path id="Path_5531" data-name="Path 5531" d="M84.5,68.544s8.4.569,10.533,1.139c0,0-8.256-4.982-9.11-7.687S84.5,68.544,84.5,68.544" fill="#f7f77c"/>
  <path id="Path_5532" data-name="Path 5532" d="M72.975,34.473c1.566-.945,16.8-11.763,16.8-11.763s-7.971,14.8-4.7,21.636-9.679,1.708-9.679,1.708Z" fill="#f7f77c"/>
  <path id="Path_5533" data-name="Path 5533" d="M92.333,43.919l4.7-.712-5.693,3.7Z" fill="#f7f77c"/>
  <path id="Path_5534" data-name="Path 5534" d="M48.607,67.6h0l-.008-.009a9.857,9.857,0,0,0-.694-.943c-.06-.073-.126-.14-.189-.212-.2-.224-.4-.442-.612-.648-.1-.093-.2-.18-.3-.269-.117-.105-.228-.218-.351-.317.015.018.026.041.041.059A10.167,10.167,0,0,0,32.183,79.578c-.019-.015-.041-.025-.06-.041.1.124.213.234.319.353.088.1.174.2.267.3.206.214.424.416.648.612.072.062.14.129.213.19a10.459,10.459,0,0,0,.941.694l.011.007A10.185,10.185,0,0,0,48.607,67.6" fill="#ff5306"/>
  <path id="Path_5535" data-name="Path 5535" d="M46.457,65.2A10.191,10.191,0,0,1,32.124,79.537,10.192,10.192,0,1,0,46.457,65.2" fill="#e5481a"/>
  <path id="Path_5536" data-name="Path 5536" d="M32.887,76.163A10.186,10.186,0,0,1,48.608,67.6,10.19,10.19,0,1,0,34.522,81.689a10.133,10.133,0,0,1-1.635-5.526" fill="#f97a0a"/>
  <path id="Path_5537" data-name="Path 5537" d="M54.3,44.4A10.2,10.2,0,1,1,44.1,34.206,10.2,10.2,0,0,1,54.3,44.4" fill="#ff5306"/>
  <path id="Path_5538" data-name="Path 5538" d="M36.939,47.435a10.187,10.187,0,0,1,15.722-8.56A10.19,10.19,0,1,0,38.575,52.961a10.134,10.134,0,0,1-1.636-5.526" fill="#ff760a"/>
  <path id="Path_5539" data-name="Path 5539" d="M86.123,78.642a8.959,8.959,0,1,1-8.96-8.96,8.96,8.96,0,0,1,8.96,8.96" fill="#ff5306"/>
  <path id="Path_5540" data-name="Path 5540" d="M95.548,49.745a8.96,8.96,0,1,1-8.961-8.96,8.961,8.961,0,0,1,8.961,8.96" fill="#ff5306"/>
  <path id="Path_5541" data-name="Path 5541" d="M89,41.122A8.946,8.946,0,0,1,81.146,56.85,8.953,8.953,0,1,0,89,41.122" fill="#e5481a"/>
  <path id="Path_5542" data-name="Path 5542" d="M98.045,60.4a6.417,6.417,0,1,1-6.417-6.417A6.417,6.417,0,0,1,98.045,60.4" fill="#ff5306"/>
  <path id="Path_5543" data-name="Path 5543" d="M54.874,78.122a5.1,5.1,0,1,1-5.1-5.1,5.1,5.1,0,0,1,5.1,5.1" fill="#ff5306"/>
  <path id="Path_5544" data-name="Path 5544" d="M50.851,73.143a4.043,4.043,0,1,1-6.141,4.679c-.007.1-.031.2-.031.3a5.1,5.1,0,1,0,6.172-4.979" fill="#e5481a"/>
  <path id="Path_5545" data-name="Path 5545" d="M76.856,68.588a4.043,4.043,0,1,1-6.141,4.679c-.007.1-.031.2-.031.3a5.1,5.1,0,1,0,6.172-4.979" fill="#e5481a"/>
  <path id="Path_5546" data-name="Path 5546" d="M70.81,82.695a3.752,3.752,0,1,1-3.752-3.752,3.752,3.752,0,0,1,3.752,3.752" fill="#ff5306"/>
  <path id="Path_5547" data-name="Path 5547" d="M73.421,28.439a4.7,4.7,0,1,1-4.7-4.7,4.7,4.7,0,0,1,4.7,4.7" fill="#ff5306"/>
  <path id="Path_5548" data-name="Path 5548" d="M72.637,34.311a4.7,4.7,0,1,1-4.7-4.7,4.7,4.7,0,0,1,4.7,4.7" fill="#ff5306"/>
  <path id="Path_5549" data-name="Path 5549" d="M66.038,32.253a4.7,4.7,0,1,1-4.7-4.7,4.7,4.7,0,0,1,4.7,4.7" fill="#ff5306"/>
  <path id="Path_5550" data-name="Path 5550" d="M61.842,29.262a5,5,0,0,1,2.881.914,5,5,0,0,1,8.155-3.883,4.68,4.68,0,0,0-8.848,2.116,4.658,4.658,0,0,0-7.154,5.228,5.017,5.017,0,0,1,4.966-4.375" fill="#ff760a"/>
  <path id="Path_5551" data-name="Path 5551" d="M84.613,36.7a7.649,7.649,0,1,1-7.65-7.649,7.65,7.65,0,0,1,7.65,7.649" fill="#ff5306"/>
  <path id="Path_5552" data-name="Path 5552" d="M58.242,36.928a6.986,6.986,0,1,1-6.986-6.986,6.986,6.986,0,0,1,6.986,6.986" fill="#ff5306"/>
  <path id="Path_5553" data-name="Path 5553" d="M51.255,31.458a6.962,6.962,0,0,1,6.91,6.228,6.97,6.97,0,1,0-13.9-.758,6.8,6.8,0,0,0,.077.758,6.962,6.962,0,0,1,6.909-6.228" fill="#ff760a"/>
  <path id="Path_5554" data-name="Path 5554" d="M76.557,85.339a3.752,3.752,0,1,1-3.752-3.752,3.752,3.752,0,0,1,3.752,3.752" fill="#ff5306"/>
  <path id="Path_5555" data-name="Path 5555" d="M77.271,85.527a9.1,9.1,0,0,1-1.3-.1,3.734,3.734,0,0,1-6.763-1.662,3.736,3.736,0,0,1-5.688-2.277,3.738,3.738,0,0,0,5.58,4.352A3.734,3.734,0,0,0,75.866,87.5a9.1,9.1,0,0,0,1.3.1,8.96,8.96,0,0,0,8.96-8.96c0-.191-.017-.378-.029-.566a8.955,8.955,0,0,1-8.823,7.451" fill="#e5481a"/>
  <path id="Path_5556" data-name="Path 5556" d="M89.154,71.46A3.752,3.752,0,1,1,85.4,67.708a3.752,3.752,0,0,1,3.752,3.752" fill="#ff5306"/>
  <path id="Path_5557" data-name="Path 5557" d="M68.43,44.332A11.716,11.716,0,1,1,56.713,32.615,11.717,11.717,0,0,1,68.43,44.332" fill="#faf78a"/>
  <path id="Path_5558" data-name="Path 5558" d="M68.43,44.332A11.716,11.716,0,1,1,56.713,32.615,11.717,11.717,0,0,1,68.43,44.332Z" fill="none" stroke="#faf78a" stroke-width="1.517"/>
  <path id="Path_5559" data-name="Path 5559" d="M75.121,69.711A11.636,11.636,0,1,1,64.242,57.364,11.636,11.636,0,0,1,75.121,69.711" fill="#faf78a"/>
  <path id="Path_5560" data-name="Path 5560" d="M75.121,69.711A11.636,11.636,0,1,1,64.242,57.364,11.636,11.636,0,0,1,75.121,69.711Z" fill="none" stroke="#faf78a" stroke-width="1.438"/>
  <path id="Path_5561" data-name="Path 5561" d="M59.6,63.861A10.477,10.477,0,1,1,49.12,53.384,10.477,10.477,0,0,1,59.6,63.861" fill="#faf78a"/>
  <circle id="Ellipse_393" data-name="Ellipse 393" cx="10.477" cy="10.477" r="10.477" transform="translate(38.644 53.385)" fill="none" stroke="#faf78a" stroke-width="1.295"/>
  <path id="Path_5562" data-name="Path 5562" d="M49.521,57.682a8.62,8.62,0,1,1-8.62-8.62,8.62,8.62,0,0,1,8.62,8.62" fill="#faf78a"/>
  <circle id="Ellipse_394" data-name="Ellipse 394" cx="8.62" cy="8.62" r="8.62" transform="translate(32.281 49.062)" fill="none" stroke="#faf78a" stroke-width="1.517"/>
  <path id="Path_5563" data-name="Path 5563" d="M82.213,42.832a8.62,8.62,0,1,1-8.62-8.62,8.62,8.62,0,0,1,8.62,8.62" fill="#faf78a"/>
  <circle id="Ellipse_395" data-name="Ellipse 395" cx="8.62" cy="8.62" r="8.62" transform="translate(64.973 34.212)" fill="none" stroke="#faf78a" stroke-width="1.517"/>
  <path id="Path_5564" data-name="Path 5564" d="M92.547,58.521a13.16,13.16,0,1,1-13.16-13.16,13.16,13.16,0,0,1,13.16,13.16" fill="#faf78a"/>
  <circle id="Ellipse_396" data-name="Ellipse 396" cx="13.16" cy="13.16" r="13.16" transform="translate(66.228 45.361)" fill="none" stroke="#faf78a" stroke-width="1.517"/>
  <path id="Path_5565" data-name="Path 5565" d="M81.756,45.585A8.615,8.615,0,0,0,66.514,37.92,11.709,11.709,0,0,0,46.559,50.16c-.295.108-.586.224-.871.354a8.618,8.618,0,1,0-6.331,15.642,12.222,12.222,0,0,0,13.7,7.574,12.26,12.26,0,0,0,22.2-2.72,13.153,13.153,0,1,0,6.5-25.425" fill="#ff7900"/>
  <path id="Path_5566" data-name="Path 5566" d="M78.514,46.76c-.078-.016-.154-.021-.232-.035a10.736,10.736,0,0,1-6.365,20.34,10.742,10.742,0,1,0,6.6-20.305" fill="#fc4f02"/>
  <path id="Path_5567" data-name="Path 5567" d="M73.123,61.492A9.986,9.986,0,0,1,67.672,73.4a7.366,7.366,0,0,0,5.286-12.381c.055.156.117.308.165.469" fill="#fc4f02"/>
  <path id="Path_5568" data-name="Path 5568" d="M63.3,47.058A7.71,7.71,0,0,1,71.956,52.3a5.688,5.688,0,0,0-9.028-5.156c.125-.028.247-.063.375-.085" fill="#fc4f02"/>
  <path id="Path_5569" data-name="Path 5569" d="M64.7,65.391a7.711,7.711,0,0,1-8.255-5.848,5.689,5.689,0,0,0,8.635,5.791c-.126.018-.251.044-.38.057" fill="#faf78a"/>
  <path id="Path_5570" data-name="Path 5570" d="M53.111,57.738A7.712,7.712,0,0,1,54.289,47.69a5.663,5.663,0,0,0-2.849,8.627,5.681,5.681,0,0,0,1.9,1.728c-.077-.1-.159-.2-.232-.307" fill="#faf78a"/>
  <path id="Path_5571" data-name="Path 5571" d="M35.569,58.541A9.238,9.238,0,0,1,46.726,53.81a6.815,6.815,0,0,0-11.338,5.154c.061-.14.113-.283.181-.423" fill="#faf78a"/>
  <path id="Path_5572" data-name="Path 5572" d="M50.363,66.3A11.044,11.044,0,0,1,51.6,51.862a8.147,8.147,0,0,0-.885,14.864c-.115-.142-.237-.277-.347-.427" fill="#faf78a"/>
  <path id="Path_5573" data-name="Path 5573" d="M45.928,46.3A11.7,11.7,0,0,1,64.6,36.873c.439.326.749.809,1.2,1.118.365.249,1.142.39.945-.37a1.272,1.272,0,0,0-.42-.569l-.829-.765q-1.083-1-2.165-2a2.568,2.568,0,0,0-.674-.5,14.039,14.039,0,0,0-1.5-.8c-.494-.14-1.315-.507-1.815-.641a8.784,8.784,0,0,0-2.627-.267C50.243,32.087,45,37.861,45,44.332A11.651,11.651,0,0,0,46.646,50.3a11.68,11.68,0,0,1-.718-4.008" fill="#faf78a"/>
  <path id="Path_5574" data-name="Path 5574" d="M49.016,49.691A9.732,9.732,0,0,1,64.465,39.022,9.732,9.732,0,0,0,49.2,51.1a9.88,9.88,0,0,0,1,1.109c.235.224.826.728.769-.005a.786.786,0,0,0-.311-.522,5.523,5.523,0,0,0-.525-.338,2.813,2.813,0,0,1-1.116-1.652" fill="#faf78a"/>
  <path id="Path_5575" data-name="Path 5575" d="M72.283,36.479A8.612,8.612,0,0,1,80.83,43.97c.045.349-.115,1.522.172,1.707a.493.493,0,0,0,.51-.018c.742-.447.7-2.084.7-2.827a8.618,8.618,0,0,0-12.966-7.443c-.633.371-3.173,2.077-2.85,2.993.912.028,1.861-.96,2.711-1.3a8.6,8.6,0,0,1,3.175-.6" fill="#faf78a"/>
  <path id="Path_5576" data-name="Path 5576" d="M80.807,45.39c.051.364.411.59.734.766,4.592,2.5,7.8,6.621,7.8,12.043A13.153,13.153,0,0,1,76.465,71.345,13.13,13.13,0,0,0,92.547,58.521,16.114,16.114,0,0,0,89.22,49.2a4.4,4.4,0,0,0-.664-.775c-.567-.482-1.317-.715-1.926-1.139-1.435-1-3.147-1.4-4.6-2.337a1.277,1.277,0,0,0-.456-.213.433.433,0,0,0-.445.169,1.508,1.508,0,0,0-.094.3c-.035.1-.12.2-.224.184" fill="#faf78a"/>
  <path id="Path_5577" data-name="Path 5577" d="M33.911,58.977a8.6,8.6,0,0,1,12.1-7.881c.318.141,1.216.845,1-.072a2.037,2.037,0,0,0-.216-.479,6.146,6.146,0,0,1-.526-1.323c-.036-.135.017-.365-.129-.456a.27.27,0,0,0-.141-.026h-.515l.012.513a.24.24,0,0,1-.026.141.217.217,0,0,1-.093.067A2.8,2.8,0,0,1,43.3,49.4a9.4,9.4,0,0,0-2.4-.339,8.614,8.614,0,0,0-4.521,15.95,8.59,8.59,0,0,1-2.469-6.035" fill="#faf78a"/>
  <rect id="frame" width="119.917" height="120" fill="none"/>
</svg>
