<svg id="showcase" xmlns="http://www.w3.org/2000/svg" width="70" height="70.201" viewBox="0 0 70 70.201">
  <path id="Path_5030" data-name="Path 5030" d="M62.416,2.294l-58.28.751L6.857,69.034l4.23.617,55.338.55-.959-63.97Z" transform="translate(0 0)" fill-rule="evenodd" opacity="0.3"/>
  <path id="Path_5031" data-name="Path 5031" d="M3.947,0,3.573,66.044,60.831,69.19,62.2,1.98Z" transform="translate(0 0)" fill="#b3e081"/>
  <path id="Path_5032" data-name="Path 5032" d="M16.427,11.322l33.891,1.843L49.8,60.725l-35.179-1.2Z" transform="translate(0 0)" fill="#598c42" fill-rule="evenodd"/>
  <path id="Path_5033" data-name="Path 5033" d="M60.832,69.19l2.191.81L65.061,6.056,62.2,1.98Z" transform="translate(0 0)" fill="#598c42"/>
  <path id="Path_5034" data-name="Path 5034" d="M18.456,12.988l31.822,1.319L49.8,60.725,16.443,59.577Z" transform="translate(0 0)" fill="#153315" fill-rule="evenodd"/>
  <path id="Path_5035" data-name="Path 5035" d="M8.861,4.458l7.566,6.864-1.81,48.2-7.37,3.457Z" transform="translate(0 0)" fill="#1a9e1c" fill-rule="evenodd" opacity="0.409"/>
  <path id="Path_5036" data-name="Path 5036" d="M50.677,13.17l7.574-7.13-.245,59.592-7.851-4.9Z" transform="translate(0 0)" fill="#f0f9e6" fill-rule="evenodd" opacity="0.7"/>
  <path id="Path_5037" data-name="Path 5037" d="M8.861,4.458l49.03,1.577-7.573,7.13L16.427,11.322Z" transform="translate(0 0)" fill="#1a9e1c" fill-rule="evenodd"/>
  <path id="Path_5038" data-name="Path 5038" d="M7.247,62.982l50.4,2.645-7.851-4.9-35.179-1.2Z" transform="translate(0 0)" fill="#fff" fill-rule="evenodd" opacity="0.8"/>
  <path id="Path_5039" data-name="Path 5039" d="M16.427,11.322l1.729,8.612,32.069,1.634.093-8.4Z" transform="translate(0 0)" fill="#679e2f" fill-rule="evenodd" opacity="0.5"/>
  <path id="Path_5040" data-name="Path 5040" d="M7.772,66.859,63.022,70l-2.191-.81L3.574,66.044Z" transform="translate(0 0)" fill="#598c42"/>
  <path id="Path_5041" data-name="Path 5041" d="M23.324,7.364s1.224-1.6,1.966-.65S34.3,19.043,34.3,19.043s-.548,3.029,4.454,5.5c0,0,.809-.177-1.059-2.725S26.756,6.32,26.756,6.32,25.183,3.9,21.225,4.867s2.1,2.5,2.1,2.5" transform="translate(0 0)" fill="#063"/>
  <path id="Path_5042" data-name="Path 5042" d="M51.184,63.943l-1.322-2.149a3.061,3.061,0,0,0,.157-.684v0c0-.028,0-.056.007-.084,0-.051.01-.1.012-.153s0-.107,0-.16,0-.084,0-.126A121.7,121.7,0,0,0,30.6,39.651c-8.51-7.062-12.634-9.817-15.274-11.381.089-.233.425-1.007.926-1.042a.585.585,0,0,1,.182.02.16.16,0,0,1,.021.005.574.574,0,0,1,.164.078l.006,0c.808.531,10.014,7.02,10.014,7.02v.007c.026.144.5,2.45,4.8,3.01,0,0,.568-.344-1.506-1.793s-12.294-8.921-12.294-8.921-1.817-1.427-4.568.326a1.738,1.738,0,0,0-.456.036,2.513,2.513,0,0,0-.488.131,4.454,4.454,0,0,0-.517.218L9.073,25.21a.336.336,0,0,0-.114-.1,1.313,1.313,0,0,0-.621.154A5.381,5.381,0,0,0,6.656,26.6l-.063.067C5.581,27.788,5.361,28.438,5.366,28.8a.541.541,0,0,0,.1.337l2.52,2.143c-.012.032-.023.064-.033.095s-.018.058-.027.087c-.018.061-.036.121-.05.179-.006.026-.01.05-.015.076-.012.056-.024.113-.031.166,0,.022-.005.043-.007.065-.006.052-.012.1-.014.152,0,.019,0,.036,0,.054,0,.049,0,.1,0,.141,0,.014,0,.026,0,.04,0,.045.008.09.014.13l0,.023a1.111,1.111,0,0,0,.187.481c1.853,2.345,4.149,5.508,14.951,14.951h0l.364.318a120.868,120.868,0,0,0,20.5,14.1q.6.33,1.109.6h0c1.378.736,2.179,1.124,2.179,1.124h0q.16-.039.315-.09l.054-.019c.083-.029.166-.058.247-.092.028-.011.055-.025.083-.037.076-.033.152-.068.226-.1l.031-.017c.073-.038.145-.076.216-.118.445.186,2.125.889,2.24.941a.652.652,0,0,0,.142.045.79.79,0,0,0,.085.008c.025,0,.05,0,.075,0l.052-.006a.65.65,0,0,0,.205-.055l-.014-.01a.706.706,0,0,0,.088-.05c.169-.184.015-.512.015-.512" transform="translate(0 0)" fill="#231f20" opacity="0.3"/>
  <path id="Path_5043" data-name="Path 5043" d="M12.852,9.9c1.26,3.558,2.711,8.278,11.954,24.216A152.032,152.032,0,0,0,46.547,62.4a5.334,5.334,0,0,0,2.994-.608,3.785,3.785,0,0,0,1.843-2.319A151.946,151.946,0,0,0,36.846,26.9C27.22,11.19,23.736,7.688,21.227,4.868c0,0-1.809-.84-5.243,1.076s-3.262,3.6-3.132,3.961" transform="translate(0 0)" fill="#88b41f"/>
  <path id="Path_5044" data-name="Path 5044" d="M50.676,60.746l.714,3.148s.051.45-.224.6a.758.758,0,0,1-.774-.177c-.132-.125-2.379-2.113-2.379-2.113Z" transform="translate(0 0)" fill="#b9b9b9"/>
  <path id="Path_5045" data-name="Path 5045" d="M44.42,60.189a.188.188,0,0,1,.115.005c.368.129,1.463.261,3.64-.936,2.07-1.138,2.334-2.352,2.355-2.47.566,1.7.851,2.679.851,2.679a3.788,3.788,0,0,1-1.844,2.32,5.339,5.339,0,0,1-2.993.608s-.792-.782-2.124-2.206" transform="translate(0 0)" fill="#d1cf00"/>
  <path id="Path_5046" data-name="Path 5046" d="M15.982,5.944c3.435-1.917,5.243-1.076,5.243-1.076C23.709,7.66,27.154,11.13,36.569,26.45c-.14.353-1.131,2.594-4.617,4.673a18.454,18.454,0,0,1-7.3,2.522l-.151-.051C15.535,18.085,14.1,13.423,12.85,9.9c-.127-.361-.3-2.044,3.132-3.961" transform="translate(0 0)" fill="#008036"/>
  <path id="Path_5047" data-name="Path 5047" d="M15.746,6.08A216.151,216.151,0,0,0,25.44,28.219c5.264,10,22.783,34.019,22.783,34.019l-.022.044a5.069,5.069,0,0,1-1.656.112A151.922,151.922,0,0,1,24.8,34.118C15.563,18.18,14.11,13.46,12.85,9.9c-.124-.349-.292-1.963,2.9-3.822" transform="translate(0 0)" fill="#063" opacity="0.299"/>
  <path id="Path_5048" data-name="Path 5048" d="M20.631,5.918l-.7-1.232a3.175,3.175,0,0,1,1.3.181c2.509,2.819,5.993,6.32,15.62,22.03A151.994,151.994,0,0,1,51.382,59.468a3.226,3.226,0,0,1-.227.611C41.752,29.85,20.631,5.918,20.631,5.918" transform="translate(0 0)" fill="#fff"/>
  <path id="Path_5049" data-name="Path 5049" d="M12.852,9.9c-.128-.36-.3-2.043,3.132-3.962s5.243-1.076,5.243-1.076,1.254,1.518-3.132,3.959S12.852,9.9,12.852,9.9" transform="translate(0 0)" fill="#3a9d35"/>
  <path id="Path_5050" data-name="Path 5050" d="M13.612,9.063c-.1-.287-.159-1.207,2.583-2.738s4.1-1.283,4.1-1.283,1,1.213-2.5,3.161-4.185.86-4.185.86" transform="translate(0 0)" fill="#008036"/>
  <path id="Path_5051" data-name="Path 5051" d="M17.122,1S16.143.52,13.7,1.887s-2.413,2.205-2.324,2.461L14.1,8.91s.408.974,3.531-.764S19.84,5.565,19.84,5.565Z" transform="translate(0 0)" fill="#b9b9b9"/>
  <path id="Path_5052" data-name="Path 5052" d="M11.378,4.346c-.091-.257-.123-1.1,2.324-2.461S17.125,1,17.125,1s.909.843-2.214,2.581-3.533.766-3.533.766" transform="translate(0 0)" fill="#e0e0e0"/>
  <path id="Path_5053" data-name="Path 5053" d="M25.29,6.715a.741.741,0,0,0-.4-.276,1.266,1.266,0,0,1,.886.29l4.632,6.306L38.751,24.54c-5-2.467-4.454-5.5-4.454-5.5S26.032,7.667,25.29,6.715" transform="translate(0 0)" fill="#024220"/>
  <path id="Path_5054" data-name="Path 5054" d="M51.2,63.037l.195.857s.05.45-.224.6a.76.76,0,0,1-.775-.178c-.04-.038-.285-.256-.6-.538Z" transform="translate(0 0)" fill="#2d2e80"/>
  <path id="Path_5055" data-name="Path 5055" d="M49,61.663l2.055,2.872a.844.844,0,0,1-.663-.218c-.133-.125-2.379-2.112-2.379-2.112Z" transform="translate(0 0)" fill="#063" opacity="0.3"/>
  <rect id="frame" width="70" height="70.201" transform="translate(0 0)" fill="none"/>
</svg>
