<svg id="icon-shuffle" xmlns="http://www.w3.org/2000/svg" width="120" height="120" viewBox="0 0 120 120">
  <rect id="frame" width="120" height="120" fill="none"/>
  <g id="Icon" transform="translate(-4556.356 3705.605)">
    <path id="Path_1812" data-name="Path 1812" d="M1250.374,74.866a2.324,2.324,0,0,0-3.968,1.643v8.117c-7.539-.1-13.125-6.755-18.739-14.487,5.613-7.732,11.2-14.389,18.739-14.487v8.117a2.324,2.324,0,0,0,3.968,1.644l11.866-11.867a4.154,4.154,0,0,0,0-5.873l-11.866-11.866a2.324,2.324,0,0,0-3.968,1.644v8.127c-11.144.076-18.639,7.713-24.942,16.013-6.334-8.341-13.871-16.018-25.109-16.018h-4.494a.773.773,0,0,0-.775.774v8.525a.774.774,0,0,0,.775.775h4.494c7.624,0,13.25,6.7,18.906,14.492-5.656,7.789-11.282,14.491-18.906,14.491h-4.494a.775.775,0,0,0-.775.776v8.525a.773.773,0,0,0,.775.774h4.494c11.237,0,18.775-7.676,25.109-16.017,6.3,8.3,13.8,15.936,24.942,16.013v8.125a2.324,2.324,0,0,0,3.968,1.645L1262.24,92.6a4.156,4.156,0,0,0,0-5.874Z" transform="translate(3389.864 -3709.083)" opacity="0.3"/>
    <path id="Path_1813" data-name="Path 1813" d="M1250.374,74.866a2.324,2.324,0,0,0-3.968,1.643v8.117c-7.539-.1-13.125-6.755-18.739-14.487,5.613-7.732,11.2-14.389,18.739-14.487v8.117a2.324,2.324,0,0,0,3.968,1.644l11.866-11.867a4.154,4.154,0,0,0,0-5.873l-11.866-11.866a2.324,2.324,0,0,0-3.968,1.644v8.127c-11.144.076-18.639,7.713-24.942,16.013-6.334-8.341-13.871-16.018-25.109-16.018h-4.494a.773.773,0,0,0-.775.774v8.525a.774.774,0,0,0,.775.775h4.494c7.624,0,13.25,6.7,18.906,14.492-5.656,7.789-11.282,14.491-18.906,14.491h-4.494a.775.775,0,0,0-.775.776v8.525a.773.773,0,0,0,.775.774h4.494c11.237,0,18.775-7.676,25.109-16.017,6.3,8.3,13.8,15.936,24.942,16.013v8.125a2.324,2.324,0,0,0,3.968,1.645L1262.24,92.6a4.156,4.156,0,0,0,0-5.874Z" transform="translate(3389.864 -3715.083)" fill="#afafaf"/>
    <path id="Path_1814" data-name="Path 1814" d="M1250.374,74.866a2.324,2.324,0,0,0-3.968,1.643v8.117c-7.539-.1-13.125-6.755-18.739-14.487,5.613-7.732,11.2-14.389,18.739-14.487v8.117a2.324,2.324,0,0,0,3.968,1.644l11.866-11.867a4.154,4.154,0,0,0,0-5.873l-11.866-11.866a2.324,2.324,0,0,0-3.968,1.644v8.127c-11.144.076-18.639,7.713-24.942,16.013-6.334-8.341-13.871-16.018-25.109-16.018h-4.494a.773.773,0,0,0-.775.774v8.525a.774.774,0,0,0,.775.775h4.494c7.624,0,13.25,6.7,18.906,14.492-5.656,7.789-11.282,14.491-18.906,14.491h-4.494a.775.775,0,0,0-.775.776v8.525a.773.773,0,0,0,.775.774h4.494c11.237,0,18.775-7.676,25.109-16.017,6.3,8.3,13.8,15.936,24.942,16.013v8.125a2.324,2.324,0,0,0,3.968,1.645L1262.24,92.6a4.156,4.156,0,0,0,0-5.874Z" transform="translate(3389.864 -3721.083)" fill="#fff"/>
  </g>
</svg>
