<svg id="spelling" xmlns="http://www.w3.org/2000/svg" width="70" height="70" viewBox="0 0 70 70">
  <path id="Path_13564" data-name="Path 13564" d="M49.466,36.7l.948-.072,1.5-24.5L29.755,13.823,15.179,19.887l3.2,17.656L10.7,41.2.123,49.9l11.3,16.084,11.2-5.333,8.389-4,13.24,2.18,17.925,2.953L67.5,39.675Z" opacity="0.3"/>
  <path id="Path_13565" data-name="Path 13565" d="M32.557,30.88,30.8,5.765l22.94-1.753L52.191,29.38Z" fill="#dd3cce" fill-rule="evenodd"/>
  <path id="Path_13566" data-name="Path 13566" d="M19.314,31.892l-3.6-19.849L30.8,5.765,32.557,30.88Z" fill="#8f1e55" fill-rule="evenodd"/>
  <path id="Path_13567" data-name="Path 13567" d="M33.176,28.732,32.618,7.625l19.2-1.467L50.78,27.387Z" fill="#ffe9e8" fill-rule="evenodd"/>
  <path id="Path_13568" data-name="Path 13568" d="M20.443,29.7,18.378,13.171,30.03,8.465l.63,20.459Z" fill="#a46085" fill-rule="evenodd"/>
  <path id="Path_13569" data-name="Path 13569" d="M51.447,6.2,50,27.447l.781-.06L51.816,6.158Z" fill="#9b435a" fill-rule="evenodd"/>
  <path id="Path_13570" data-name="Path 13570" d="M44.258,22.9a8.908,8.908,0,0,1-2.192.386,23.422,23.422,0,0,1-3.526-.063l-.767-10.03,3.5-.267.27,3.531a3.608,3.608,0,0,1,1.811-1.076,3.124,3.124,0,0,1,.526-.1,3.008,3.008,0,0,1,2.523.866,3.92,3.92,0,0,1,1.069,2.509,3.639,3.639,0,0,1-.334,1.726A4.594,4.594,0,0,1,44.258,22.9m-.865-5.059a2.9,2.9,0,0,0-1.691.922l.174,2.268.6-.046a1.571,1.571,0,0,0,1.12-.82,2.418,2.418,0,0,0,.46-1.545.828.828,0,0,0-.377-.728.514.514,0,0,0-.282-.051" fill="#dd3cce"/>
  <path id="Path_13571" data-name="Path 13571" d="M26.4,24.978a2.4,2.4,0,0,1-1.063.4,6.228,6.228,0,0,1-1.8-.027l-1.7-9.913,1.743-.3.6,3.492a1.824,1.824,0,0,1,.779-1.083.787.787,0,0,1,.255-.1q.781-.134,1.4.832a6.716,6.716,0,0,1,.871,2.469,6.623,6.623,0,0,1,.057,1.712A3.388,3.388,0,0,1,26.4,24.978m-1.1-5c-.261.046-.508.356-.738.929l.385,2.243.3-.051c.2-.034.353-.31.461-.824a4.054,4.054,0,0,0,.032-1.532,1.282,1.282,0,0,0-.287-.717.171.171,0,0,0-.15-.048" fill="#8f1e55"/>
  <path id="Path_13572" data-name="Path 13572" d="M45.812,52.373,47.177,28.79l22.7,3.739L64.37,55.43Z" fill="#578bff" fill-rule="evenodd"/>
  <path id="Path_13573" data-name="Path 13573" d="M31.835,50.071l1.208-20.137L47.176,28.79,45.811,52.373Z" fill="#273972" fill-rule="evenodd"/>
  <path id="Path_13574" data-name="Path 13574" d="M47.955,50.6,48.5,31.028l19,3.129-4.025,19Z" fill="#d4faff" fill-rule="evenodd"/>
  <path id="Path_13575" data-name="Path 13575" d="M33.451,48.214l1.916-16.551,10.419-.432L44.433,50.023Z" fill="#635a9c" fill-rule="evenodd"/>
  <path id="Path_13576" data-name="Path 13576" d="M40.175,41.44q.467.027,1.4-.784L41.4,43.6a3.165,3.165,0,0,1-4.5-1.971,5.2,5.2,0,0,1,1-4.662,3.244,3.244,0,0,1,2.659-1.025,2.686,2.686,0,0,1,1.175.328L41.6,38.591a.45.45,0,0,0-.342-.159.851.851,0,0,0-.495.159,1.957,1.957,0,0,0-.5.473,2.611,2.611,0,0,0-.573,1.457q-.041.762.3.878a.975.975,0,0,0,.182.041" fill="#273972"/>
  <path id="Path_13577" data-name="Path 13577" d="M67.128,34.111,62.7,53.032l.772.127,4.025-19Z" fill="#49428d" fill-rule="evenodd"/>
  <path id="Path_13578" data-name="Path 13578" d="M58,43.525a3.487,3.487,0,0,0,1.879-.565l-.48,2.911a5.422,5.422,0,0,1-3.636-.385,3.823,3.823,0,0,1-2.028-2.278,3.632,3.632,0,0,1-.078-1.676,3.941,3.941,0,0,1,1.785-2.819,4.867,4.867,0,0,1,3.537-.61,4.437,4.437,0,0,1,1.494.509L60.091,40.9a.684.684,0,0,0-.43-.211,1.32,1.32,0,0,0-.655.081,2.326,2.326,0,0,0-.689.4,2.226,2.226,0,0,0-.87,1.364q-.12.753.316.923a1.633,1.633,0,0,0,.233.069" fill="#578bff"/>
  <path id="Path_13579" data-name="Path 13579" d="M23.418,54.252,11.072,34.113,31.843,24.22,41.2,45.785Z" fill="#ff8240" fill-rule="evenodd"/>
  <path id="Path_13580" data-name="Path 13580" d="M11.825,59.773.123,43.121l10.949-9.008L23.417,54.252Z" fill="#bc3737" fill-rule="evenodd"/>
  <path id="Path_13581" data-name="Path 13581" d="M24.167,51.575,15.552,34.862l15.267-7.947,8.343,17.518Z" fill="#ffd684" fill-rule="evenodd"/>
  <path id="Path_13582" data-name="Path 13582" d="M12.092,57.326,3.019,43.213l8.306-6.3,9.62,16.2Z" fill="#da5b4d" fill-rule="evenodd"/>
  <path id="Path_13583" data-name="Path 13583" d="M30.49,27.087l7.966,17.682.706-.336L30.819,26.915Z" fill="#d14c4d" fill-rule="evenodd"/>
  <path id="Path_13584" data-name="Path 13584" d="M25.1,44.384a3.21,3.21,0,0,1-1.183-.694,3.783,3.783,0,0,1-.893-1.208,5.33,5.33,0,0,1-.447-1.3,4.254,4.254,0,0,1,.159-2.221,3.8,3.8,0,0,1,.471-.946,3.888,3.888,0,0,1,1.559-1.351,2.7,2.7,0,0,1,1.957-.163,2.4,2.4,0,0,1,.618.273l.382-1.2,1.787-.851,3.225,6.771-1.787.851-1.316-.757a3.388,3.388,0,0,1-2.077,2.613,3.475,3.475,0,0,1-1.162.317,3.134,3.134,0,0,1-1.293-.126m2.452-6.217a1.017,1.017,0,0,0-.523.108,1.2,1.2,0,0,0-.483.467,2.544,2.544,0,0,0-.309.746,2.349,2.349,0,0,0,.1,1.6.832.832,0,0,0,.616.535c.239.034.507-.116.806-.447a4.11,4.11,0,0,0,.707-1.076Z" fill="#ff8240"/>
  <path id="Path_13585" data-name="Path 13585" d="M11.376,51.415a4.21,4.21,0,0,1-.927-.759,7.061,7.061,0,0,1-.9-1.178,10.239,10.239,0,0,1-.656-1.205,6.194,6.194,0,0,1-.552-1.937,2.956,2.956,0,0,1,.013-.775,1.34,1.34,0,0,1,.56-.994,1.117,1.117,0,0,1,1.151.1,2.747,2.747,0,0,1,.459.319l-.118-1.014.846-.524,3.954,6.372-.846.525-1.027-.832q.346,1.5-.509,2.041a1.025,1.025,0,0,1-.619.132,1.869,1.869,0,0,1-.829-.274m-.315-5.169a.332.332,0,0,0-.288.03.45.45,0,0,0-.16.35,2.265,2.265,0,0,0,.029.619,3.9,3.9,0,0,0,.529,1.418,1.279,1.279,0,0,0,.534.549q.234.09.363-.293a2.493,2.493,0,0,0,.119-.858Z" fill="#bc3737"/>
  <rect id="frame" width="70" height="70" fill="none"/>
</svg>
