<svg id="star-writing-award" xmlns="http://www.w3.org/2000/svg" width="70" height="70" viewBox="0 0 70 70">
  <path id="Path_7244" data-name="Path 7244" d="M14.42,2.806,11.8,3.187l1.9,1.849-.448,2.611,2.345-1.233,2.345,1.233-.448-2.611,1.9-1.849-2.622-.381L15.592.431Z" fill="#fff"/>
  <path id="Path_7245" data-name="Path 7245" d="M10.944,24.567l.827,1.676,1.849.268-1.338,1.3.316,1.842-1.654-.869-1.654.869.316-1.842-1.338-1.3,1.849-.268Z" fill="#fff"/>
  <path id="Path_7246" data-name="Path 7246" d="M58.922,24.071l-6.658-3.442.248-5.327V12.969l-7.606.354-3.5-6.764L35,10.668,28.59,6.559l-3.5,6.764-7.606-.354V15.3l.248,5.327-6.658,3.442V26.4l3.361,5.244-3.361,5.243v2.333l6.658,3.442-.248,5.327v2.333l3.269-.152L16.041,69.656l8.816-4.2,6.837,3.71s1.646-9.752,2.809-16.22l.5-.319,1.391.892C37.546,59.974,39.1,69.166,39.1,69.166l6.836-3.71,8.817,4.2L50.043,50.212l2.469.114V47.993l-.248-5.327,6.658-3.442V36.891l-3.361-5.243L58.922,26.4Z" opacity="0.3"/>
  <path id="Path_7247" data-name="Path 7247" d="M53.172,26.432a18.2,18.2,0,1,1-18.2-18.2,18.2,18.2,0,0,1,18.2,18.2" fill="#fff"/>
  <path id="Path_7248" data-name="Path 7248" d="M22.106,39.3A18.2,18.2,0,0,0,47.841,13.565a4.414,4.414,0,0,0-3.253-1.229c-9.529,0-28.741,20.706-22.482,26.964" fill="none"/>
  <path id="Path_7249" data-name="Path 7249" d="M47.842,13.564a18.2,18.2,0,1,1-25.736,0,18.2,18.2,0,0,1,25.736,0" fill="#fff"/>
  <path id="Path_7250" data-name="Path 7250" d="M18.583,26.432a16.39,16.39,0,1,0,16.391-16.39,16.392,16.392,0,0,0-16.391,16.39" fill="none"/>
  <path id="Path_7251" data-name="Path 7251" d="M18.583,26.432a16.326,16.326,0,0,0,1.655,7.183A16.393,16.393,0,0,1,50.6,21.48a16.392,16.392,0,0,0-32.018,4.952" fill="none"/>
  <path id="Path_7252" data-name="Path 7252" d="M35.509,44.061c-.655,2.77-3.815,21.489-3.815,21.489l-6.837-3.71-8.816,4.2,5.9-24.374Z" fill="#3849b6"/>
  <path id="Path_7253" data-name="Path 7253" d="M28.6,42.861l-6.656-1.175-5.9,24.374,8.629-4.11Z" fill="#283487"/>
  <path id="Path_7254" data-name="Path 7254" d="M35.282,44.061C35.937,46.831,39.1,65.55,39.1,65.55l6.837-3.71,8.816,4.2-5.9-24.374Z" fill="#3849b6"/>
  <path id="Path_7255" data-name="Path 7255" d="M42.193,42.861l6.656-1.175,5.9,24.374-8.629-4.11Z" fill="#283487"/>
  <path id="Path_7256" data-name="Path 7256" d="M48.85,41.686l-13.567,2.4c.283,1.2,1.038,5.4,1.8,9.765L41.41,56.62l3.5-6.764,5.988.279Z"/>
  <path id="Path_7257" data-name="Path 7257" d="M35.509,44.082l-13.567-2.4L19.905,50.1l5.189-.242,3.5,6.764,5.217-3.345c.729-4.158,1.431-8.045,1.7-9.193"/>
  <path id="Path_7258" data-name="Path 7258" d="M58.922,20.454l-6.658-3.442.248-5.327V9.353l-7.606.354-3.5-6.764L35,7.051,28.59,2.943l-3.5,6.764-7.606-.354v2.333l.248,5.327-6.658,3.442v2.333l3.361,5.244-3.361,5.243v2.333l6.658,3.442-.248,5.327v2.333l7.606-.353,3.5,6.763L35,49.01l6.41,4.109,3.5-6.763,7.606.353V44.376l-.248-5.327,6.658-3.442V33.274l-3.361-5.243,3.361-5.244Z" fill="#00a7a2"/>
  <path id="Path_7259" data-name="Path 7259" d="M35,7.052l6.41-4.109,3.5,6.763,7.606-.353-.354,7.6,6.764,3.5-4.109,6.41,4.109,6.41-6.764,3.5.354,7.606-7.606-.354-3.5,6.764L35,46.677l-6.41,4.11-3.5-6.764-7.606.354.354-7.606-6.764-3.5,4.109-6.41-4.109-6.41,6.764-3.5-.354-7.6,7.606.353,3.5-6.763Z" fill="#283487"/>
  <path id="Path_7260" data-name="Path 7260" d="M29.756,7.292,33.363,9.6,35,10.654,36.637,9.6l3.607-2.313L42.212,11.1l.893,1.727,1.942-.09,4.28-.2-.2,4.28-.09,1.942,1.727.893,3.807,1.968-2.313,3.607L51.21,26.864,52.259,28.5l2.313,3.607-3.807,1.968-1.727.893.09,1.942.2,4.28-4.28-.2L43.1,40.9l-.893,1.727-1.968,3.807-3.607-2.313L35,43.074l-1.637,1.049-3.607,2.313-1.968-3.807L26.9,40.9l-1.942.09-4.28.2.2-4.28.09-1.942-1.727-.893-3.806-1.968L17.741,28.5l1.049-1.637-1.049-1.637L15.429,21.62l3.806-1.968,1.727-.893-.09-1.942-.2-4.28,4.28.2,1.942.09.893-1.727ZM41.41,2.942,35,7.051,28.59,2.942l-3.5,6.764-7.606-.354.354,7.606-6.764,3.5,4.109,6.41-4.109,6.41,6.764,3.5-.354,7.606,7.606-.354,3.5,6.764L35,46.677l6.41,4.109,3.5-6.764,7.606.354-.354-7.606,6.764-3.5-4.109-6.41,4.109-6.41-6.764-3.5.354-7.606-7.606.354Z" fill="aqua"/>
  <path id="Path_7261" data-name="Path 7261" d="M32.14,16.189l1.967,1.261.893.573.893-.573,1.968-1.261,1.073,2.076.487.942,1.06-.049,2.334-.109-.109,2.335-.049,1.059.942.488L45.675,24l-1.261,1.967-.572.893.572.893,1.261,1.968L43.6,30.8l-.942.487.049,1.059.109,2.335-2.334-.109-1.06-.049-.487.942-1.073,2.076-1.968-1.261L35,35.705l-.893.573L32.14,37.539l-1.073-2.076-.487-.942-1.06.049-2.334.109.108-2.335.05-1.059L26.4,30.8l-2.076-1.073,1.262-1.968.572-.893-.572-.893L24.325,24,26.4,22.931l.943-.488-.05-1.059-.108-2.335,2.334.109,1.06.049.487-.942Z" fill="#283487"/>
  <path id="Path_7262" data-name="Path 7262" d="M46.591,23.44l-7.77-1.29-3.836-7.858-3.9,7.825L23.3,23.342v1.679l2.6,1.989,6.25-.881,2.818-5.649,2.77,5.672,6.244.935,2.612-1.969Z"/>
  <path id="Path_7263" data-name="Path 7263" d="M43.078,39.12l-.055-.037.082.05L41.188,28.11,39.439,29.8v1.679l.8,4.565L34.9,32.175l-5.4,4.02.892-4.757V29.759l-1.731-1.7L26.656,39.064l.059-.036-.059.092v1.624l.059-.037-.059.092h1.917l6.269-4.2h.048l6.27,4.2h1.92l-.055-.037.082.05Z" opacity="0.3"/>
  <path id="Path_7264" data-name="Path 7264" d="M46.591,21.532l-7.77-1.29-3.836-7.858-3.9,7.825L23.3,21.434v1.679L25.9,25.1l6.25-.881,2.818-5.649,2.77,5.672,6.244.935,2.612-1.969Z" fill="#00a7a2"/>
  <path id="Path_7265" data-name="Path 7265" d="M43.979,23.5l2.612-1.969-7.77-1.29-3.837-7.857-3.9,7.824L23.3,21.434l2.6,1.989,6.25-.881,2.818-5.649,2.77,5.672Z" fill="aqua"/>
  <path id="Path_7266" data-name="Path 7266" d="M43.078,37.213l-.055-.037.082.05L41.188,26.2l-1.749,1.686v1.679l.8,4.565L34.9,30.268l-5.4,4.02.892-4.757V27.852l-1.731-1.7L26.656,37.157l.059-.036-.059.092v1.624l.059-.037-.059.092h1.917l6.269-4.2h.048l6.27,4.2h1.92l-.055-.037.082.05Z" fill="#c3c3c3"/>
  <path id="Path_7267" data-name="Path 7267" d="M43.1,37.225,41.187,26.2l-1.748,1.685,1.137,6.489L34.9,30.268,29.141,34.56,30.4,27.851l-1.731-1.7L26.654,37.157l.06-.037-.06.092h1.918l6.268-4.2h.048l6.271,4.2h1.919l-.054-.037Z" fill="#fff"/>
  <path id="Path_7268" data-name="Path 7268" d="M25.356,58.619l-8.58,4.407s-.655,2.408-.735,3.034l8.63-4.11,7.023,3.6.428-2.524Z" fill="#00a7a2"/>
  <path id="Path_7269" data-name="Path 7269" d="M32.122,63.026l-6.766-4.407L24.67,61.95l7.024,3.6Z" fill="aqua"/>
  <path id="Path_7270" data-name="Path 7270" d="M45.436,58.619l8.58,4.407s.655,2.408.735,3.034l-8.63-4.11L39.1,65.55l-.428-2.524Z" fill="#00a7a2"/>
  <path id="Path_7271" data-name="Path 7271" d="M38.669,63.026l6.766-4.407.686,3.331L39.1,65.55Z" fill="aqua"/>
  <path id="Path_7272" data-name="Path 7272" d="M15.99,22.5l3.244-1.677,1.728-.893-.053-1.14-1.675.866L15.428,21.62Z"/>
  <path id="Path_7273" data-name="Path 7273" d="M20.673,41.192l.054,0,.145-3.11.09-1.943-.053-.027-.037.8Z"/>
  <path id="Path_7274" data-name="Path 7274" d="M52.259,28.5l-.676-1.054-.374.584,1.05,1.637L54.01,32.4l.561-.29Z"/>
  <path id="Path_7275" data-name="Path 7275" d="M49.128,38.078l.145,3.111.054,0-.2-4.28-.037-.8-.053.027Z"/>
  <path id="Path_7276" data-name="Path 7276" d="M50.765,19.653l-1.674-.866-.053,1.14,1.727.893L54.009,22.5l.562-.876Z"/>
  <path id="Path_7277" data-name="Path 7277" d="M45.047,12.736l-1.943.09L42.211,11.1,40.244,7.293,36.637,9.605,35,10.655l-1.637-1.05L29.755,7.293,27.788,11.1,26.9,12.826l-1.943-.09-4.28-.2.055,1.169,4.225.2,1.943.09.893-1.727,1.967-3.807,3.608,2.313L35,11.821l1.637-1.049,3.607-2.313,1.967,3.807.893,1.727,1.943-.09,4.226-.2.054-1.169Z"/>
  <path id="Path_7278" data-name="Path 7278" d="M18.79,28.031l-.374-.583L17.74,28.5l-2.312,3.608.562.29,1.75-2.731Z"/>
  <path id="Path_7279" data-name="Path 7279" d="M52.458,10.521l-.3,6.437.053.027.3-6.467Z"/>
  <path id="Path_7280" data-name="Path 7280" d="M17.842,16.958l-.3-6.437-.055,0,.3,6.466Z"/>
  <path id="Path_7281" data-name="Path 7281" d="M53.964,46.545l1.378,2.793,3.082.447-2.23,2.174.526,3.069-2.756-1.449-2.756,1.449.526-3.069L49.5,49.785l3.082-.447Z" fill="#fff"/>
  <path id="Path_7282" data-name="Path 7282" d="M26.122,12.336l.827,1.676,1.849.268-1.338,1.3.316,1.842-1.654-.869-1.654.869.316-1.842-1.338-1.3,1.849-.268Z" fill="#fff"/>
  <path id="Path_7283" data-name="Path 7283" d="M59.8,27.378l.827,1.676,1.849.268-1.338,1.3.316,1.842L59.8,31.6l-1.654.869.316-1.842-1.338-1.3,1.849-.268Z" fill="#fff"/>
  <path id="Path_7284" data-name="Path 7284" d="M59.8,6.375l.413.838.925.134L60.469,8l.158.921L59.8,8.485l-.827.435L59.131,8l-.669-.652.925-.134Z" fill="#fff"/>
  <path id="Path_7285" data-name="Path 7285" d="M10.46,46.481l.413.838.925.134-.669.652.158.921-.827-.435-.827.435.158-.921-.669-.652.925-.134Z" fill="#fff"/>
  <path id="Path_7286" data-name="Path 7286" d="M23.437,53.12l.31.628.693.1-.5.489.118.69-.62-.326-.62.326.118-.69-.5-.489.693-.1Z" fill="#fff"/>
  <rect id="frame" width="70" height="70" fill="none"/>
</svg>
