<svg id="icon_-_test" data-name="icon - test" xmlns="http://www.w3.org/2000/svg" width="120" height="120" viewBox="0 0 120 120">
  <path id="Path_3068" data-name="Path 3068" d="M4.527,87.1S52.957,43.188,50.66,25.652l59.723,1.063c.519.275,3.374,33.067-30.053,86.992,0,0-50.727-12.438-75.8-26.607" opacity="0.3"/>
  <path id="Path_3069" data-name="Path 3069" d="M45.492,15.467c19.909,7.081,64.892,11.1,64.892,11.1-8.231,46.9-32.733,79.44-32.733,79.44C37.069,98.162.123,76.722.123,76.722s23.354-16.849,33.5-35.8S45.492,15.467,45.492,15.467" fill="#f2f2f2"/>
  <line id="Line_7" data-name="Line 7" x2="48.667" y2="10.754" transform="translate(46.219 31.723)" fill="none" stroke="#ccc" stroke-linecap="round" stroke-linejoin="round" stroke-width="2.295"/>
  <line id="Line_8" data-name="Line 8" x2="49.04" y2="10.837" transform="translate(42.438 41.248)" fill="none" stroke="#ccc" stroke-linecap="round" stroke-linejoin="round" stroke-width="2.295"/>
  <line id="Line_9" data-name="Line 9" x2="50.118" y2="11.075" transform="translate(36.824 50.931)" fill="none" stroke="#ccc" stroke-linecap="round" stroke-linejoin="round" stroke-width="2.295"/>
  <line id="Line_10" data-name="Line 10" x2="53.543" y2="14.136" transform="translate(28.395 60.737)" fill="none" stroke="#ccc" stroke-linecap="round" stroke-linejoin="round" stroke-width="2.295"/>
  <line id="Line_11" data-name="Line 11" x2="55.136" y2="17.099" transform="translate(19.62 71.896)" fill="none" stroke="#ccc" stroke-linecap="round" stroke-linejoin="round" stroke-width="2.295"/>
  <path id="Path_3070" data-name="Path 3070" d="M53.453,88.665l5-15.6,5.757,15" fill="none" stroke="#39b54a" stroke-linecap="round" stroke-linejoin="round" stroke-width="2.295"/>
  <line id="Line_12" data-name="Line 12" y1="0.009" x2="8.459" transform="translate(54.602 85.072)" fill="none" stroke="#39b54a" stroke-linecap="round" stroke-linejoin="round" stroke-width="2.295"/>
  <line id="Line_13" data-name="Line 13" x2="0.414" y2="9.627" transform="translate(72.103 76.102)" fill="none" stroke="#39b54a" stroke-linecap="round" stroke-linejoin="round" stroke-width="2.295"/>
  <line id="Line_14" data-name="Line 14" y1="0.414" x2="9.627" transform="translate(67.496 80.708)" fill="none" stroke="#39b54a" stroke-linecap="round" stroke-linejoin="round" stroke-width="2.295"/>
  <path id="Path_3071" data-name="Path 3071" d="M51.948,94.4s15.6-2.331,27.517-.242" fill="none" stroke="#39b54a" stroke-linecap="round" stroke-linejoin="round" stroke-width="2.295"/>
  <rect id="Rectangle_1763" data-name="Rectangle 1763" width="120" height="120" fill="none"/>
</svg>
