<svg id="stats" xmlns="http://www.w3.org/2000/svg" width="119" height="119" viewBox="0 0 119 119">
  <path id="Path_5288" data-name="Path 5288" d="M0,48.988v6.778c5.957,0,10.744,1.837,14.229,5.46,7.5,7.8,7.067,21.286,7.062,21.421l6.772.264c.025-.671.531-16.527-8.949-26.384C14.3,51.525,7.871,48.988,0,48.988" fill="red"/>
  <path id="Path_5289" data-name="Path 5289" d="M0,41.974v8.185c7.193,0,12.974,2.218,17.182,6.593,9.061,9.421,8.536,25.705,8.528,25.868l8.179.319c.032-.809.641-19.957-10.808-31.86-5.81-6.042-13.576-9.1-23.081-9.1" fill="#ed5a24"/>
  <path id="Path_5290" data-name="Path 5290" d="M0,41.974v8.185c7.193,0,12.974,2.218,17.182,6.593,9.061,9.421,8.536,25.705,8.528,25.868l8.179.319c.032-.809.641-19.957-10.808-31.86-5.81-6.042-13.576-9.1-23.081-9.1" fill="#ff5a27"/>
  <path id="Path_5291" data-name="Path 5291" d="M0,33.5v9.884c8.669,0,15.639,2.668,20.718,7.93C31.626,62.619,31.054,82.4,31.047,82.6l9.877.376c.038-.978.774-24.1-13.051-38.474C20.856,37.2,11.478,33.5,0,33.5" fill="#f8ea21"/>
  <path id="Path_5292" data-name="Path 5292" d="M0,23.273V35.209c10.49,0,18.92,3.235,25.056,9.615C38.269,58.561,37.5,82.31,37.493,82.547l11.927.465c.046-1.18.934-29.1-15.761-46.462C25.186,27.74,13.861,23.273,0,23.273" fill="#88c23f"/>
  <path id="Path_5293" data-name="Path 5293" d="M0,10.92V25.333c12.642,0,22.806,3.891,30.212,11.564C46.119,53.378,45.286,82.219,45.276,82.511l14.4.549c.055-1.425,1.128-35.145-19.033-56.107C30.414,16.314,16.738,10.92,0,10.92" fill="#33c6ff"/>
  <path id="Path_5294" data-name="Path 5294" d="M63.372,82.779c.078-18.5-4.071-38.553-14.583-54.017A53.229,53.229,0,0,0,15.845,6.4,72.373,72.373,0,0,0,0,4.7v8.7c12.3-.01,24.337,3.1,33.689,11.311C48.042,37.494,53.273,57.576,54.533,76.191c.109,1.877.168,3.742.155,5.61l-.012.639Z" fill="#a41aa4"/>
  <path id="Path_5295" data-name="Path 5295" d="M14.866,92.487a11.763,11.763,0,0,1,6.57-10.557,15.69,15.69,0,0,1,14.107-9.05c.016-.09.034-.179.051-.268s.03-.164.046-.245q.054-.273.114-.543l.03-.138q.067-.3.143-.6l.06-.232c.036-.138.073-.275.11-.412l.072-.253c.038-.132.077-.263.117-.394l.075-.244c.047-.147.1-.294.144-.44.021-.062.04-.123.061-.184.07-.2.142-.4.216-.605.023-.061.047-.122.07-.184.054-.143.109-.286.166-.427.03-.078.062-.155.094-.232q.078-.19.159-.381c.033-.077.066-.154.1-.231.058-.132.118-.264.178-.4.031-.066.061-.133.092-.2.091-.194.183-.386.279-.577l.04-.08q.126-.25.257-.5c.035-.066.071-.132.107-.2.068-.126.137-.252.207-.377l.12-.21c.071-.124.143-.247.215-.369.039-.065.077-.13.117-.195.089-.148.181-.294.273-.441.023-.035.045-.072.068-.107q.174-.271.353-.538c.034-.05.069-.1.1-.148q.132-.194.267-.385l.134-.185q.126-.174.255-.347l.137-.181q.142-.187.288-.371l.11-.14c.134-.168.271-.334.409-.5l.063-.073c.119-.14.238-.279.36-.416l.136-.153q.15-.167.3-.332l.15-.16c.1-.111.21-.221.316-.329.045-.047.09-.094.136-.14q.214-.216.433-.428c.009-.008.017-.017.025-.025.157-.151.315-.3.475-.446l.13-.116c.117-.107.236-.212.355-.317.024-.02.046-.042.07-.062v0A26.671,26.671,0,0,1,88.054,72.887c.131,0,.26-.009.391-.009a15.7,15.7,0,0,1,14.981,20.356c-.069.224-.145.445-.224.664-.026.073-.055.144-.082.216q-.084.224-.175.444c-.033.08-.067.16-.1.239q-.092.212-.189.419c-.036.076-.07.151-.107.226-.079.163-.162.323-.247.483-.024.046-.047.092-.072.138q-.163.3-.339.59c-.04.066-.082.131-.123.2-.082.13-.164.26-.25.388-.05.077-.1.152-.154.228-.081.117-.164.232-.247.347-.055.075-.109.149-.165.223-.092.121-.187.241-.283.36-.049.061-.1.123-.146.183q-.212.253-.434.5c-.054.06-.111.118-.166.177-.1.109-.2.216-.306.322-.069.07-.14.138-.21.207-.1.092-.191.184-.288.274q-.109.1-.222.2c-.1.091-.207.18-.311.269-.071.06-.141.121-.213.18q-.252.207-.513.4h.021c-11.791,9.693-39.57,9.062-39.57,9.062s-25.055.634-37.7-7.581a11.816,11.816,0,0,1-1.547-1.1c-.118-.091-.236-.182-.351-.276h.033a11.734,11.734,0,0,1-3.881-8.731" opacity="0.3"/>
  <path id="Path_5296" data-name="Path 5296" d="M27.564,53.047a35.558,35.558,0,0,1,70,.01c.174-.005.347-.014.521-.014a20.913,20.913,0,1,1-15.1,35.375,35.561,35.561,0,0,1-40.447.279,20.911,20.911,0,1,1-14.978-35.65" fill="#fff"/>
  <path id="Path_5297" data-name="Path 5297" d="M0,79.185A15.685,15.685,0,0,1,8.92,65.031,21.923,21.923,0,0,0,30.371,84.695c-.023.062,7.486.183,7.486.183A35.548,35.548,0,0,1,39.28,32.451,35.573,35.573,0,0,0,74.388,73.627c.969,0,1.93-.041,2.88-.118q.686-.054,1.365-.134l.077-.01q1.416-.172,2.8-.453l.061-.012c.445-.091.887-.192,1.326-.3l.119-.029q.648-.162,1.288-.347l.115-.034q.649-.19,1.288-.4l.054-.019a35.086,35.086,0,0,0,3.895-1.578l.044-.021q.618-.294,1.222-.613l.05-.027q.61-.322,1.206-.666l.009-.006A35.627,35.627,0,0,0,96.8,65.674l.007-.006q.543-.441,1.067-.9a20.917,20.917,0,0,0,20.177,15.416h.011a20.944,20.944,0,0,1-7.423,10.506h.028c-15.718,12.922-52.751,12.08-52.751,12.08s-33.4.845-50.252-10.1A15.807,15.807,0,0,1,5.6,91.192c-.156-.122-.314-.243-.467-.368h.042A15.642,15.642,0,0,1,0,79.185" fill="#dddfe4"/>
  <rect id="frame" width="119" height="119" fill="none"/>
</svg>
