<svg id="In_Review_Icon" data-name="In Review Icon" xmlns="http://www.w3.org/2000/svg" width="120" height="120" viewBox="0 0 120 120">
  <path id="Path_1310" data-name="Path 1310" d="M826.705-4532.921c.208-.217.409-.439.612-.66.257-.278.516-.554.765-.839.161-.183.314-.372.471-.559a43.62,43.62,0,0,0,3.962-5.493c.058-.1.121-.193.179-.29.263-.44.513-.887.76-1.335.071-.128.144-.254.213-.383.239-.444.466-.893.69-1.345.066-.135.135-.27.2-.406.22-.456.429-.918.633-1.382.058-.132.117-.264.174-.4q.3-.714.583-1.438c.046-.12.093-.239.137-.359q.283-.751.538-1.514c.033-.1.065-.2.1-.293.174-.534.34-1.072.494-1.614.017-.06.033-.12.05-.18a43.214,43.214,0,0,0,.535-21.239c-.1-.627-.211-1.253-.335-1.878-.029-.147-.058-.294-.089-.441q-.393-1.876-.959-3.744-.069-.228-.141-.454c-.2-.621-.4-1.24-.626-1.858-.2-.529-.411-1.051-.628-1.569l-.013-.03c-.254-.621-.523-1.232-.8-1.835-.095-.205-.2-.4-.295-.609-.2-.4-.391-.806-.6-1.2-.123-.237-.252-.469-.379-.7-.193-.354-.388-.706-.589-1.053-.141-.242-.284-.482-.429-.721-.2-.33-.4-.656-.614-.98-.154-.239-.308-.477-.466-.712-.213-.317-.432-.628-.652-.937-.163-.229-.324-.459-.49-.684-.237-.319-.482-.631-.726-.942-.16-.2-.316-.412-.479-.612q-.588-.721-1.2-1.416c-.2-.222-.4-.435-.6-.653-.234-.252-.466-.506-.705-.752s-.474-.474-.713-.708c-.215-.212-.43-.424-.649-.631-.254-.239-.513-.473-.773-.706-.211-.19-.423-.378-.639-.564q-.408-.352-.823-.693c-.208-.171-.418-.337-.628-.5-.291-.23-.584-.459-.881-.681-.194-.146-.393-.287-.589-.429-.32-.231-.639-.463-.964-.685-.133-.091-.271-.177-.406-.267-.862-.575-1.74-1.124-2.639-1.635l1.943-4.168,1.419.656h0l.915-1.6a2.343,2.343,0,0,0,.114-.386c.008-.035.015-.071.021-.107a2.463,2.463,0,0,0,.036-.351c0-.046,0-.09,0-.136,0-.083-.009-.166-.02-.249-.007-.064-.018-.127-.031-.19s-.024-.1-.038-.147a2.491,2.491,0,0,0-.137-.38c-.012-.026-.023-.052-.036-.077a2.227,2.227,0,0,0-.13-.23h0l-.005-.006h0a2.383,2.383,0,0,0-.3-.372h0c-.048-.05-.1-.1-.15-.143s-.081-.067-.123-.1a2.278,2.278,0,0,0-.338-.213h0l-5.033-2.288a2.491,2.491,0,0,0-.267-.079,2.5,2.5,0,0,0-.466-.08c-.051,0-.1-.015-.152-.016h0a2.443,2.443,0,0,0-.506.051c-.052.01-.1.026-.152.039a2.441,2.441,0,0,0-.336.113c-.055.023-.108.047-.16.074a2.39,2.39,0,0,0-.3.186c-.044.031-.089.059-.13.093-.018.013-.037.023-.054.038a2.357,2.357,0,0,0-.313.329,2.393,2.393,0,0,0-.25.4l-.8,1.6.291.134.058.027.947.438.207.1-.522,1.118-1.41,3.023a43.487,43.487,0,0,0-4.426-1.4c-.093-.024-.185-.049-.278-.072-.442-.112-.886-.215-1.332-.313l-.371-.078c-.451-.095-.9-.186-1.357-.266l-.06-.01q-1.485-.259-2.994-.415c-.065-.007-.13-.016-.2-.022-.414-.041-.828-.072-1.243-.1-.2-.014-.393-.028-.59-.039q-.588-.033-1.177-.051c-.218-.006-.436-.008-.654-.011-.39-.006-.78-.012-1.171-.006-.167,0-.334.011-.5.015q-1.1.027-2.208.112c-.257.02-.514.037-.77.061-.35.033-.7.074-1.049.116q-.418.049-.835.107c-.343.048-.685.1-1.029.154-.291.047-.581.1-.873.155-.332.062-.664.12-1,.189q-.814.171-1.628.374l-.051.012-.114-.313-.523-1.438a14.343,14.343,0,0,0,1.647-1.523l.014-.015a14.5,14.5,0,0,0,1.951-2.675l.024-.043a14.542,14.542,0,0,0,.908-1.933c.012-.033.025-.066.037-.1.123-.328.236-.66.335-1l.011-.043c.1-.325.178-.655.25-.988l.021-.094q.1-.5.172-1c.007-.053.014-.107.02-.16a14.235,14.235,0,0,0,.108-2.047c0-.066,0-.133,0-.2-.011-.334-.032-.668-.066-1-.006-.05-.013-.1-.019-.15-.035-.308-.08-.615-.135-.923-.011-.055-.019-.111-.029-.166-.064-.331-.141-.66-.229-.99-.019-.072-.04-.144-.06-.216-.1-.337-.2-.673-.322-1.007v0a14.367,14.367,0,0,0-2.52-4.36q-.456-.541-.958-1.03c-.167-.163-.339-.321-.513-.475a14.5,14.5,0,0,0-2.855-1.969c-.205-.108-.412-.21-.621-.308a14.681,14.681,0,0,0-1.942-.742c-.222-.067-.445-.129-.67-.185a14.355,14.355,0,0,0-8.427.439,14.322,14.322,0,0,0-2.63,1.27,14.228,14.228,0,0,0-1.73,1.25,14.426,14.426,0,0,0-3.136,3.721,14.574,14.574,0,0,0-1.572,3.839,14.349,14.349,0,0,0,.439,8.425,14.34,14.34,0,0,0,3.678,5.58,14.476,14.476,0,0,0,2.617,1.949q.469.273.958.511a14.659,14.659,0,0,0,2.017.8c.346.108.7.2,1.05.286a14.379,14.379,0,0,0,3.261.375h0l.072,0c.073,0,.146-.008.219-.01l.387,1.064.27.742-.023.012q-.777.381-1.533.79c-.289.156-.571.319-.856.481s-.548.313-.817.475c-.294.175-.584.354-.873.536q-.373.237-.741.482c-.29.191-.582.381-.866.579-.212.147-.416.3-.624.451q-.828.6-1.623,1.231c-.18.144-.362.286-.539.432-.3.25-.6.5-.9.762q-.237.207-.471.417c-.309.277-.616.556-.916.841-.068.064-.132.13-.2.194q-1.083,1.041-2.088,2.148l-.007.008c-.323.357-.636.72-.946,1.086l-.2.239q-.468.563-.918,1.136l-.025.033a43.385,43.385,0,0,0-2.711,3.917l-.019.03q-.415.677-.807,1.37l-4.232-1.973.678-1.464-1.6-.8a2.115,2.115,0,0,0-.885-.224,2.178,2.178,0,0,0-.444.033,2.417,2.417,0,0,0-1.2.593,2.612,2.612,0,0,0-.313.341,2.573,2.573,0,0,0-.25.4l-.313.689-.446.982h0l-1.527,3.361a2.047,2.047,0,0,0-.153.413,1.37,1.37,0,0,0-.025.139,2.1,2.1,0,0,0-.039.283c0,.055,0,.109,0,.163a2.239,2.239,0,0,0,.019.258c.008.056.019.111.031.166.019.083.041.165.068.246.019.053.037.106.059.158a2.519,2.519,0,0,0,.117.235c.027.048.051.1.081.142a2.237,2.237,0,0,0,.175.232c.029.036.055.074.087.108a2.535,2.535,0,0,0,.321.3,2.537,2.537,0,0,0,.37.231c.011,0,.02.014.032.019h0l1.576.676.025.011.674-1.457,4.218,1.966q-.266.713-.506,1.435l-.039.121A43.438,43.438,0,0,0,752-4573.8c-.009.055-.019.109-.028.164a43.323,43.323,0,0,0-.632,6.132c0,.063,0,.127-.005.19a43.165,43.165,0,0,0,.283,6.22c.008.071.017.142.026.213a43.2,43.2,0,0,0,.845,4.71v.009q.162,1,.369,1.989l0,.006c.137.652.287,1.3.456,1.953.036.138.079.274.115.411.141.521.282,1.042.444,1.561q.312,1.011.676,2.016c.4,1.091.845,2.148,1.318,3.187a43.384,43.384,0,0,0,25.018,22.923,44.046,44.046,0,0,0,4.46,1.31q1.631.388,3.292.654,1.389.22,2.8.35c1.23.114,2.469.178,3.714.185.056,0,.112,0,.169,0a43.4,43.4,0,0,0,14.947-2.633l.033-.013q1-.365,1.97-.774c.225-.1.444-.2.667-.3.429-.189.857-.377,1.278-.578.259-.125.511-.258.768-.386.373-.188.747-.376,1.113-.573.268-.145.531-.3.8-.448.343-.194.685-.389,1.021-.592.269-.163.534-.332.8-.5.32-.2.638-.407.951-.617.267-.179.53-.363.793-.548q.449-.316.889-.642.395-.292.78-.594c.281-.218.556-.44.83-.665.259-.212.516-.425.769-.642s.514-.451.768-.679.509-.459.757-.694.468-.454.7-.684C826.205-4532.417,826.459-4532.665,826.705-4532.921Zm-53.628-76.744c-.121-.017-.241-.039-.361-.06q-.337-.057-.669-.133c-.121-.028-.243-.056-.363-.088-.27-.071-.537-.152-.8-.241-.061-.021-.124-.038-.185-.06-.307-.11-.608-.236-.9-.371-.1-.047-.208-.1-.312-.15q-.316-.155-.624-.328c-.1-.057-.2-.113-.3-.173-.26-.157-.514-.322-.761-.5-.031-.022-.063-.041-.094-.063-.272-.2-.534-.411-.79-.633-.08-.07-.158-.143-.238-.215q-.274-.253-.536-.523c-.074-.077-.15-.154-.222-.233-.225-.247-.443-.5-.647-.767l-.025-.031c-.211-.277-.408-.569-.6-.867-.056-.088-.108-.179-.161-.269q-.2-.341-.382-.7c-.048-.1-.1-.188-.142-.285-.154-.327-.3-.661-.426-1.007a11.862,11.862,0,0,1-.59-2.329,11.542,11.542,0,0,1-.113-1.168,11.924,11.924,0,0,1,4.668-10.011c.31-.236.633-.458.968-.664a11.516,11.516,0,0,1,1.045-.572,12.021,12.021,0,0,1,1.118-.472c.214-.078.43-.134.645-.2.249-.075.5-.147.749-.205a11.846,11.846,0,0,1,8.213,1.084c.275.146.545.3.808.468a11.792,11.792,0,0,1,4.8,5.947l0,.009c.125.343.227.689.318,1.036.029.107.052.214.077.321q.089.381.152.762c.019.11.038.221.053.332.043.311.073.623.091.934,0,.04.008.08.01.121.015.343.011.684,0,1.024-.005.117-.015.234-.023.35q-.026.348-.07.693c-.017.127-.033.253-.054.379-.041.249-.092.5-.149.742-.02.09-.035.181-.058.27-.079.311-.174.617-.278.92-.046.133-.1.264-.149.4-.07.184-.144.366-.224.547-.062.141-.125.281-.192.419-.087.177-.18.351-.276.524-.083.152-.165.3-.255.451q-.213.351-.449.686c-.1.136-.2.266-.3.4s-.211.27-.321.4-.225.263-.342.39-.24.25-.363.373-.233.238-.356.35l-.337-.927-.495-1.359,2.084-.744h0l-.023-.063.137-.051-.953-2.479-1.906-4.957h0a3.3,3.3,0,0,0-.486-.965c-.024-.032-.049-.063-.074-.094-.055-.07-.112-.137-.172-.2-.03-.033-.061-.064-.092-.095-.062-.062-.127-.119-.193-.175-.031-.025-.06-.052-.091-.076a3.2,3.2,0,0,0-.3-.209l-.01-.006a3.178,3.178,0,0,0-.325-.169l-.109-.045c-.08-.033-.161-.063-.244-.09-.042-.013-.084-.026-.126-.037-.084-.024-.17-.043-.256-.06-.039-.007-.077-.016-.117-.022a3.152,3.152,0,0,0-.379-.039h0a3.367,3.367,0,0,0-.683.042c-.114.018-.229.043-.344.073s-.23.067-.344.11l-.8.286-2.4.858h0a3.567,3.567,0,0,1,.58-.16h0l-3.783,1.418a3.418,3.418,0,0,0-.642.276,3.279,3.279,0,0,0-1.417,4.071l2.745,7.55,2.124-.79.382,1.05.425,1.167C773.732-4609.584,773.4-4609.619,773.077-4609.665Z" transform="translate(-732.541 4639.608)" opacity="0.3"/>
  <rect id="Rectangle_295" data-name="Rectangle 295" width="120" height="120" fill="none" style="mix-blend-mode: overlay;isolation: isolate"/>
  <path id="Path_1311" data-name="Path 1311" d="M837.8-4576.4a43.512,43.512,0,0,0-2.15-8.373c-.2-.53-.411-1.052-.628-1.57a43.29,43.29,0,0,0-18.75-21.343l1.944-4.168,1.419.656.915-1.6a2.478,2.478,0,0,0-.224-2.253h0l-.005-.006a2.355,2.355,0,0,0-.3-.373c-.048-.05-.1-.1-.151-.144s-.081-.067-.123-.1a2.278,2.278,0,0,0-.338-.213h0l-5.033-2.288a2.474,2.474,0,0,0-.885-.175,2.44,2.44,0,0,0-1.954.923,2.393,2.393,0,0,0-.25.4l-.8,1.6.349.161,1.154.534-1.932,4.141a43.241,43.241,0,0,0-25.789-1.487l-.637-1.75a14.462,14.462,0,0,0,4.634-16.277,14.453,14.453,0,0,0-18.506-8.63,14.453,14.453,0,0,0-8.629,18.5,14.462,14.462,0,0,0,13.582,9.5c.1,0,.194-.011.291-.013l.657,1.806a43.272,43.272,0,0,0-18.7,17.65l-4.232-1.973.678-1.464-1.6-.8a2.339,2.339,0,0,0-3.089,1.144l-.76,1.671h0l-1.528,3.361a2.3,2.3,0,0,0,.743,2.838,2.5,2.5,0,0,0,.4.25l.944.4.632.271h0l.025.011.674-1.458,4.218,1.967a43.271,43.271,0,0,0-1.568,25.152,43.659,43.659,0,0,0,2.063,7.939,43.468,43.468,0,0,0,55.713,25.981A43.467,43.467,0,0,0,837.8-4576.4Zm-74.261-44.71a11.886,11.886,0,0,1,7.1-15.216,11.885,11.885,0,0,1,15.216,7.1,11.886,11.886,0,0,1-3.158,12.827l-.832-2.286,2.084-.744-.023-.063.137-.051-2.859-7.436a3.425,3.425,0,0,0-.276-.642,3.224,3.224,0,0,0-2.7-1.642,3.506,3.506,0,0,0-1.37.225l-3.2,1.144a3.674,3.674,0,0,1,.58-.161l-3.783,1.419a3.268,3.268,0,0,0-2.059,4.347l2.745,7.55,2.125-.79.806,2.217A11.891,11.891,0,0,1,763.538-4621.108Z" transform="translate(-732.541 4639.608)" fill="#382673" opacity="0.2" style="mix-blend-mode: normal;isolation: isolate"/>
  <g id="Group_545" data-name="Group 545" transform="translate(-732.541 4639.608)">
    <path id="Path_1312" data-name="Path 1312" d="M774.709-4610.729a14.463,14.463,0,0,1-13.582-9.5,14.454,14.454,0,0,1,8.629-18.5h0a14.453,14.453,0,0,1,18.506,8.63,14.454,14.454,0,0,1-8.63,18.5A14.37,14.37,0,0,1,774.709-4610.729Zm-4.075-25.6a11.886,11.886,0,0,0-7.1,15.216,11.886,11.886,0,0,0,15.216,7.095,11.885,11.885,0,0,0,7.1-15.216,11.885,11.885,0,0,0-15.216-7.1Z" fill="#1c042b"/>
    <rect id="Rectangle_296" data-name="Rectangle 296" width="9.151" height="19.446" transform="translate(771.291 -4620.931) rotate(-19.999)" fill="#331b44"/>
    <rect id="Rectangle_297" data-name="Rectangle 297" width="1.144" height="19.446" transform="translate(778.827 -4623.678) rotate(-19.999)" fill="#1c042b"/>
    <rect id="Rectangle_298" data-name="Rectangle 298" width="9.151" height="8.007" transform="translate(771.302 -4620.937) rotate(-19.999)" fill="#1c042b"/>
    <rect id="Rectangle_299" data-name="Rectangle 299" width="15.443" height="6.863" transform="translate(806.492 -4602.952) rotate(-65.001)" fill="#331b44"/>
    <path id="Path_1313" data-name="Path 1313" d="M819.634-4611.2l-9.151-4.232.8-1.6a2.446,2.446,0,0,1,3.089-1.144l5.033,2.288a2.446,2.446,0,0,1,1.144,3.089Z" fill="#531d75"/>
    <path id="Path_1314" data-name="Path 1314" d="M819.634-4611.2l-9.151-4.232.8-1.6a2.446,2.446,0,0,1,3.089-1.144l5.033,2.288a2.446,2.446,0,0,1,1.144,3.089Z" fill="#531d75"/>
    <path id="Path_1315" data-name="Path 1315" d="M812.782-4615.931a2.445,2.445,0,0,1,3.088-1.144l4.456,2.025a2.347,2.347,0,0,0-.921-.836l-5.033-2.288a2.446,2.446,0,0,0-3.089,1.144l-.8,1.6,1.663.769Z" fill="#6c299b"/>
    <rect id="Rectangle_300" data-name="Rectangle 300" width="6.863" height="15.443" transform="translate(747.564 -4588.092) rotate(-65.001)" fill="#331b44"/>
    <path id="Path_1316" data-name="Path 1316" d="M749.169-4585.572l4.232-9.151-1.6-.8a2.339,2.339,0,0,0-3.089,1.144l-2.287,5.033a2.339,2.339,0,0,0,1.144,3.088Z" fill="#6c299b"/>
    <path id="Path_1317" data-name="Path 1317" d="M752.475-4592.784l-1.6-.8a2.307,2.307,0,0,0-2.922.877l-1.528,3.361a2.339,2.339,0,0,0,1.145,3.088l1.576.676Z" fill="#531d75"/>
    <circle id="Ellipse_88" data-name="Ellipse 88" cx="43.469" cy="43.469" r="43.469" transform="translate(751.935 -4610.307)" fill="#441268"/>
    <path id="Path_1318" data-name="Path 1318" d="M814.584-4531.215a43.187,43.187,0,0,0,14.112-11.479,43.365,43.365,0,0,0,6.953-42.077c-.2-.53-.411-1.052-.628-1.57a43.462,43.462,0,0,0-55.1-24.411,43.467,43.467,0,0,0-25.981,55.713,43.29,43.29,0,0,0,10.412,16.181c-.1-.091-.212-.179-.315-.271a43.444,43.444,0,0,0,24.33,12.224l.077.011q.879.127,1.766.22c.16.017.321.035.482.05.511.048,1.025.087,1.539.116.31.019.62.031.93.042.377.014.754.027,1.133.031.354,0,.709,0,1.065,0q.333-.006.668-.016,2.041-.059,4.093-.313l.318-.04q.677-.089,1.352-.2c.122-.02.243-.043.365-.064q1.3-.224,2.594-.529c.1-.023.2-.043.3-.067.339-.083.677-.175,1.016-.266s.657-.18.986-.276c.256-.076.512-.15.767-.231.622-.194,1.244-.4,1.863-.622,1.356-.5,2.67-1.055,3.945-1.667.043-.021.089-.039.132-.06C814.039-4530.925,814.309-4531.074,814.584-4531.215Z" fill="#6c299b"/>
    <circle id="Ellipse_89" data-name="Ellipse 89" cx="34.317" cy="34.317" r="34.317" transform="translate(760.473 -4604.222)" fill="#fff"/>
    <path id="Path_1319" data-name="Path 1319" d="M764.383-4556.4a34.315,34.315,0,0,1,20.476-43.927,34.335,34.335,0,0,1,34.317,6.406,34.561,34.561,0,0,0-36.262-8.236,34.3,34.3,0,0,0-20.476,44.041,34.009,34.009,0,0,0,9.609,14.07A35.822,35.822,0,0,1,764.383-4556.4Z" fill="#382673" opacity="0.2" style="mix-blend-mode: normal;isolation: isolate"/>
    <path id="Path_1320" data-name="Path 1320" d="M784.63-4597.812l3.546,9.723a19.427,19.427,0,0,1,24.938,11.668l9.723-3.546A29.913,29.913,0,0,0,784.63-4597.812Z" fill="#382673" opacity="0.2" style="mix-blend-mode: normal;isolation: isolate"/>
    <path id="Path_1321" data-name="Path 1321" d="M784.63-4597.812l3.546,9.723a19.1,19.1,0,0,1,14.871.687l4.347-9.381A30.1,30.1,0,0,0,784.63-4597.812Z" fill="#382673" opacity="0.2" style="mix-blend-mode: normal;isolation: isolate"/>
    <path id="Path_1322" data-name="Path 1322" d="M824.909-4576.994a1.717,1.717,0,0,0-2.139-1.147l-19.067,5.748c-.009-.034-.015-.068-.025-.1a9.152,9.152,0,0,0-11.4-6.117,9.151,9.151,0,0,0-6.117,11.4c.01.033.024.063.034.1l-.6.179a1.717,1.717,0,0,0-1.148,2.138,1.718,1.718,0,0,0,1.547,1.219,1.737,1.737,0,0,0,.591-.071l1.269-.383a9.153,9.153,0,0,0,9.707,2.94,9.152,9.152,0,0,0,6.459-7.814l19.741-5.952A1.717,1.717,0,0,0,824.909-4576.994Z" fill="#382673" opacity="0.2" style="mix-blend-mode: normal;isolation: isolate"/>
    <path id="Path_1323" data-name="Path 1323" d="M786.1-4565.413a1.717,1.717,0,0,1-1.547-1.219,1.716,1.716,0,0,1,1.148-2.138l37.175-11.208a1.715,1.715,0,0,1,2.138,1.147,1.716,1.716,0,0,1-1.147,2.138l-37.176,11.209A1.713,1.713,0,0,1,786.1-4565.413Z" fill="#ff0080"/>
    <circle id="Ellipse_90" data-name="Ellipse 90" cx="4.576" cy="4.576" r="4.576" transform="translate(790.341 -4574.426)" fill="#d44a90"/>
    <path id="Path_1324" data-name="Path 1324" d="M784.058-4619.546l-12.926,4.8-2.745-7.55a3.268,3.268,0,0,1,2.059-4.347l6.406-2.4a3.268,3.268,0,0,1,4.346,2.059Z" fill="#531d75"/>
    <path id="Path_1325" data-name="Path 1325" d="M776.852-4629.041l-3.2,1.144a3.269,3.269,0,0,1,4.347,2.059l2.745,7.55,3.2-1.144-2.745-7.55A3.269,3.269,0,0,0,776.852-4629.041Z" fill="#6c299b"/>
    <path id="Path_1326" data-name="Path 1326" d="M804.191-4542.9a1.145,1.145,0,0,1-1.076-.755l-1.944-5.377a1.142,1.142,0,0,1,.686-1.464,1.142,1.142,0,0,1,1.465.686l1.944,5.377a1.144,1.144,0,0,1-.686,1.465A1.147,1.147,0,0,1,804.191-4542.9Z" fill="#382673" opacity="0.2" style="mix-blend-mode: normal;isolation: isolate"/>
    <path id="Path_1327" data-name="Path 1327" d="M783.142-4543.819a1.148,1.148,0,0,1-.483-.107,1.145,1.145,0,0,1-.553-1.521l2.4-5.148a1.143,1.143,0,0,1,1.52-.553,1.144,1.144,0,0,1,.553,1.521l-2.4,5.148A1.147,1.147,0,0,1,783.142-4543.819Z" fill="#382673" opacity="0.2" style="mix-blend-mode: normal;isolation: isolate"/>
    <path id="Path_1328" data-name="Path 1328" d="M768.959-4559.262a1.146,1.146,0,0,1-1.069-.735,1.146,1.146,0,0,1,.66-1.478l5.376-2.059a1.145,1.145,0,0,1,1.478.66,1.145,1.145,0,0,1-.66,1.477l-5.376,2.059A1.138,1.138,0,0,1,768.959-4559.262Z" fill="#382673" opacity="0.2" style="mix-blend-mode: normal;isolation: isolate"/>
    <path id="Path_1329" data-name="Path 1329" d="M819.633-4557.088a1.146,1.146,0,0,1-.483-.108L814-4559.6a1.145,1.145,0,0,1-.553-1.521,1.144,1.144,0,0,1,1.521-.553l5.148,2.4a1.144,1.144,0,0,1,.553,1.52A1.145,1.145,0,0,1,819.633-4557.088Z" fill="#382673" opacity="0.2" style="mix-blend-mode: normal;isolation: isolate"/>
    <path id="Path_1330" data-name="Path 1330" d="M775.135-4577.908a1.137,1.137,0,0,1-.474-.1l-5.262-2.4a1.145,1.145,0,0,1-.566-1.516,1.145,1.145,0,0,1,1.516-.566l5.262,2.4a1.142,1.142,0,0,1,.565,1.515A1.143,1.143,0,0,1,775.135-4577.908Z" fill="#382673" opacity="0.2" style="mix-blend-mode: normal;isolation: isolate"/>
  </g>
  <g id="Group_546" data-name="Group 546" transform="translate(-732.541 4639.608)">
    <path id="Path_1331" data-name="Path 1331" d="M790.455-4591.917l-1.76.419-1.076-4.519,1.76-.419Z" fill="#1c042b"/>
    <path id="Path_1332" data-name="Path 1332" d="M792.761-4594.871c-.155.01-.224.139-.208.389l.143,2.253-1.725.11-.229-3.609.952-.061.452.537a1.581,1.581,0,0,1,.611-.552,1.866,1.866,0,0,1,.755-.238,1.5,1.5,0,0,1,1.063.283,1.2,1.2,0,0,1,.444.91l.156,2.462-1.736.11-.11-1.741Q793.272-4594.9,792.761-4594.871Z" fill="#1c042b"/>
    <path id="Path_1333" data-name="Path 1333" d="M802.3-4594.426a1.661,1.661,0,0,1-1.207,1.254l.892,1.876-2.248-.478-.519-1.487-.28,1.317-1.859-.4.966-4.544q1.832.255,2.392.375a4.053,4.053,0,0,1,.84.249,1.722,1.722,0,0,1,.986,1.037A1.579,1.579,0,0,1,802.3-4594.426Zm-1.681-.408c.058-.267-.014-.422-.213-.465a1.049,1.049,0,0,0-.376.019l-.412.076-.236,1.113Q800.5-4594.256,800.623-4594.834Z" fill="#1c042b"/>
    <path id="Path_1334" data-name="Path 1334" d="M804.293-4591.59l-.147-.064c-.046-.02-.089-.041-.132-.063a.35.35,0,0,0,.19.494c.06.032.119.061.178.087a2.231,2.231,0,0,0,.614.142,1.834,1.834,0,0,0,.763-.073l-.193.9a2.939,2.939,0,0,1-2.023-.263,1.987,1.987,0,0,1-1.014-.917,1.618,1.618,0,0,1-.011-1.453,2.056,2.056,0,0,1,.76-.924,1.965,1.965,0,0,1,1.047-.317,2.685,2.685,0,0,1,1.14.23,1.8,1.8,0,0,1,.962.793,1.08,1.08,0,0,1,.031.945,1.158,1.158,0,0,1-.807.637A2.006,2.006,0,0,1,804.293-4591.59Zm.886-1.059a.22.22,0,0,0-.118-.33.38.38,0,0,0-.437.118,1.288,1.288,0,0,0-.166.238c-.052.1-.112.194-.18.3l.641.122.228-.386Z" fill="#1c042b"/>
    <path id="Path_1335" data-name="Path 1335" d="M808.551-4590.738l.995-.622,1.163.757-3.465,2.052a.225.225,0,0,1-.252-.029.246.246,0,0,1-.136-.224l.4-4.049,1.426.929Z" fill="#1c042b"/>
    <path id="Path_1336" data-name="Path 1336" d="M810.1-4586.294l-1.274-1.1,2.368-2.733,1.273,1.1Zm2.869-4.515a.946.946,0,0,1,.361.549.575.575,0,0,1-.143.479.681.681,0,0,1-.533.211,1.025,1.025,0,0,1-.684-.284q-.465-.4-.337-.784a.609.609,0,0,1,.12-.2.663.663,0,0,1,.222-.162.739.739,0,0,1,.3-.069A.979.979,0,0,1,812.974-4590.809Z" fill="#1c042b"/>
    <path id="Path_1337" data-name="Path 1337" d="M812.8-4585.271l-.105-.121c-.033-.038-.063-.076-.09-.114a.35.35,0,0,0-.045.527c.04.055.081.107.124.156a2.224,2.224,0,0,0,.49.4,1.84,1.84,0,0,0,.719.266l-.567.728a2.945,2.945,0,0,1-1.707-1.116,1.991,1.991,0,0,1-.514-1.267,1.623,1.623,0,0,1,.621-1.314,2.05,2.05,0,0,1,1.086-.5,1.949,1.949,0,0,1,1.081.169,2.676,2.676,0,0,1,.927.7,1.8,1.8,0,0,1,.521,1.131,1.074,1.074,0,0,1-.383.866,1.155,1.155,0,0,1-1,.223A2.014,2.014,0,0,1,812.8-4585.271Zm1.258-.569a.217.217,0,0,0,.037-.347.379.379,0,0,0-.445-.084,1.267,1.267,0,0,0-.252.142c-.088.062-.185.126-.291.189l.524.389.373-.249Z" fill="#1c042b"/>
    <path id="Path_1338" data-name="Path 1338" d="M817.028-4581.069l1.217-.238.647,1.155-3.775.707-.235-.422.8-1.645-1.859-.235-.237-.422,2.544-2.907.795,1.421-.858.931,1.487.191.091.162Z" fill="#1c042b"/>
  </g>
</svg>
