<svg id="story" xmlns="http://www.w3.org/2000/svg" xmlns:xlink="http://www.w3.org/1999/xlink" width="70" height="70.017" viewBox="0 0 70 70.017">
  <defs>
    <clipPath id="clip-path">
      <rect id="Rectangle_3348" data-name="Rectangle 3348" width="70" height="70.017" fill="none"/>
    </clipPath>
    <clipPath id="clip-path-2">
      <rect id="Rectangle_3347" data-name="Rectangle 3347" width="70" height="70.017" transform="translate(0 0)" fill="none"/>
    </clipPath>
    <clipPath id="clip-path-3">
      <rect id="Rectangle_3330" data-name="Rectangle 3330" width="62.311" height="67.943" transform="translate(2.358 2.05)" fill="none"/>
    </clipPath>
    <clipPath id="clip-path-4">
      <rect id="Rectangle_3331" data-name="Rectangle 3331" width="8.393" height="20.205" transform="translate(12.001 45.204)" fill="none"/>
    </clipPath>
    <clipPath id="clip-path-5">
      <rect id="Rectangle_3332" data-name="Rectangle 3332" width="29.207" height="29.824" transform="translate(27.331 21.944)" fill="none"/>
    </clipPath>
    <clipPath id="clip-path-6">
      <rect id="Rectangle_3333" data-name="Rectangle 3333" width="1.746" height="3.122" transform="translate(55.724 34.725)" fill="none"/>
    </clipPath>
    <clipPath id="clip-path-7">
      <rect id="Rectangle_3334" data-name="Rectangle 3334" width="2.08" height="2.211" transform="translate(48.983 37.463)" fill="none"/>
    </clipPath>
    <clipPath id="clip-path-8">
      <rect id="Rectangle_3335" data-name="Rectangle 3335" width="2.959" height="4.942" transform="translate(51.889 32.913)" fill="none"/>
    </clipPath>
    <clipPath id="clip-path-9">
      <rect id="Rectangle_3336" data-name="Rectangle 3336" width="18.951" height="18.19" transform="translate(5.337 0.022)" fill="none"/>
    </clipPath>
    <clipPath id="clip-path-10">
      <rect id="Rectangle_3337" data-name="Rectangle 3337" width="13.548" height="10.519" transform="translate(10.434 6.577)" fill="none"/>
    </clipPath>
    <clipPath id="clip-path-11">
      <rect id="Rectangle_3338" data-name="Rectangle 3338" width="55.525" height="20.287" transform="translate(12 47.658)" fill="none"/>
    </clipPath>
    <clipPath id="clip-path-12">
      <rect id="Rectangle_3339" data-name="Rectangle 3339" width="45.619" height="35.854" transform="translate(5.34 0.022)" fill="none"/>
    </clipPath>
    <clipPath id="clip-path-13">
      <rect id="Rectangle_3340" data-name="Rectangle 3340" width="39.619" height="8.127" transform="translate(15.106 11.63)" fill="none"/>
    </clipPath>
    <clipPath id="clip-path-14">
      <rect id="Rectangle_3341" data-name="Rectangle 3341" width="3.157" height="2.512" transform="translate(49.777 52.321)" fill="none"/>
    </clipPath>
    <clipPath id="clip-path-15">
      <rect id="Rectangle_3342" data-name="Rectangle 3342" width="2.742" height="2.621" transform="translate(46.336 51.267)" fill="none"/>
    </clipPath>
    <clipPath id="clip-path-16">
      <rect id="Rectangle_3343" data-name="Rectangle 3343" width="28.776" height="30.071" transform="translate(2.669 38.672)" fill="none"/>
    </clipPath>
    <clipPath id="clip-path-17">
      <rect id="Rectangle_3344" data-name="Rectangle 3344" width="28.275" height="28.108" transform="translate(3.377 38.809)" fill="none"/>
    </clipPath>
    <clipPath id="clip-path-18">
      <rect id="Rectangle_3345" data-name="Rectangle 3345" width="26.247" height="27.606" transform="translate(6.829 37.295)" fill="none"/>
    </clipPath>
    <clipPath id="clip-path-19">
      <rect id="Rectangle_3346" data-name="Rectangle 3346" width="2.103" height="1.394" transform="translate(31.526 66.134)" fill="none"/>
    </clipPath>
  </defs>
  <g id="Group_8467" data-name="Group 8467">
    <g id="Group_8466" data-name="Group 8466" clip-path="url(#clip-path)">
      <g id="Group_8465" data-name="Group 8465">
        <g id="Group_8464" data-name="Group 8464" clip-path="url(#clip-path-2)">
          <g id="Group_8415" data-name="Group 8415" opacity="0.3" style="mix-blend-mode: multiply;isolation: isolate">
            <g id="Group_8414" data-name="Group 8414">
              <g id="Group_8413" data-name="Group 8413" clip-path="url(#clip-path-3)">
                <path id="Path_6105" data-name="Path 6105" d="M63.084,64.345l.032-.04c.045-.058.089-.119.133-.182.011-.016.022-.033.034-.049.042-.063.084-.129.126-.2l.034-.056c.041-.069.081-.141.12-.215l.032-.061c.039-.076.078-.154.116-.236.009-.02.018-.041.028-.061.038-.085.075-.172.111-.262l.023-.057c.037-.1.073-.192.109-.294l.013-.041c.038-.109.074-.221.109-.338h0l.006-.023v0c.013-.044.026-.09.039-.136,0-.019.01-.037.016-.056.019-.071.038-.142.056-.216l0-.02a.287.287,0,0,1,.007-.028l.021-.091c.023-.1.047-.2.068-.3,0-.017.007-.035.011-.053.011-.053.021-.108.032-.163.005-.03.012-.059.017-.09.01-.055.021-.11.031-.167,0-.034.01-.07.016-.1v0c.008-.053.017-.106.025-.161.012-.079.025-.157.036-.239,0-.023.006-.048.009-.071l0-.038c.016-.1.029-.209.039-.317.005-.04.01-.078.014-.119.01-.1.019-.2.028-.3s.018-.186.026-.284q.024-.3.04-.625a13.372,13.372,0,0,0,0-1.357q-.017-.348-.051-.7c-.011-.118-.023-.238-.037-.357-.04-.36-.092-.723-.152-1.091-.021-.122-.042-.245-.065-.368-1.187-6.521-5.229-13.89-5.229-13.89l-.251-.148-.158-.1-.063-.038c-.437-.264-.8-.5-1.112-.706v0c-2-1.351-1.426-1.57-.667-1.533a6.5,6.5,0,0,1,.847.109l.1.02.019,0,.013,0,.071.015h0l0,0c-.07-.171-.144-.342-.219-.513-.02-.046-.041-.093-.062-.139-.067-.15-.135-.3-.206-.449-.012-.024-.023-.048-.034-.073-.083-.173-.169-.347-.256-.52L57.08,36.7c-.078-.152-.157-.3-.239-.456l-.041-.078c-.1-.18-.2-.36-.3-.54l-.024-.041c-.1-.173-.2-.346-.3-.518l-.027-.046c-4.36-7.333-12.076-13.936-12.076-13.936l.008,0,.02.008h0c.383.153,4.357,1.662,6.934-.247.039-.028.077-.058.115-.088s.08-.063.12-.1c.072-.062.143-.128.213-.2.028-.027.056-.056.083-.084.063-.065.125-.132.185-.2l.045-.05c.073-.089.144-.183.213-.28l.052-.075c.071-.1.14-.209.2-.322A9.932,9.932,0,0,0,53.6,15.986a6.128,6.128,0,0,0,.06-.623c0-.1.006-.2,0-.3a5.574,5.574,0,0,0-.04-.6q-.018-.146-.045-.291a7.641,7.641,0,0,0-2.842-4.3c-1.49-1.289-2.412-1.822-3.132-1.931-.048-.007-.1-.012-.142-.016s-.092-.005-.137-.005a4.018,4.018,0,0,0-1.935.8c-.258.148-.482.284-.707.4-.844.456-1.693.694-4.4.467-.959-.081-2.151-.219-3.66-.427L36.3,9.114c-.24-.037-.485-.08-.733-.127q-.414-.078-.842-.174-.146-.031-.291-.066c-.911-.212-1.86-.475-2.827-.774C25.39,6.054,18.427,2.682,15.885,2.158c-.093-.02-.192-.036-.293-.05L15.479,2.1c-.064-.008-.13-.015-.2-.021l-.153-.01c-.054,0-.109-.006-.165-.008s-.128,0-.194-.006h-.111A19.45,19.45,0,0,0,6.228,4.458c-.02.012-.041.023-.062.034-.085.048-.168.1-.251.145l-.151.089-.212.13-.178.114-.185.121-.2.135c-.053.037-.106.073-.157.111-.081.058-.159.118-.237.177l-.1.076c-.109.086-.213.172-.315.259L4.1,5.927c-.073.064-.144.128-.212.193-.035.033-.069.066-.1.1-.06.059-.119.118-.176.178l-.1.106c-.054.06-.105.12-.156.18-.03.035-.06.071-.088.106-.052.065-.1.131-.148.2-.023.032-.046.062-.068.094-.067.1-.13.194-.187.292a2.787,2.787,0,0,0-.148.3c-.011.025-.021.05-.032.076-.042.106-.082.216-.116.332a.264.264,0,0,0-.007.03c-.032.109-.058.223-.082.341-.006.03-.012.06-.017.091-.023.127-.043.258-.058.394,0,.019,0,.04-.006.06q-.018.185-.027.378c0,.035,0,.069,0,.1-.005.146-.007.3-.005.448,0,.03,0,.06,0,.09,0,.134.009.271.018.41l.006.116c.012.161.026.326.044.493,0,.04.009.081.014.122.016.143.034.289.055.436.006.042.011.083.017.126q.039.261.087.531c.008.05.018.1.027.152.028.151.057.3.089.457.009.045.017.09.027.135.038.185.08.371.124.56.014.061.028.122.043.183.037.157.076.315.117.475.012.048.023.094.035.141q.075.288.156.581l.06.212q.069.243.142.489c.018.063.036.125.055.187q.083.274.171.554c.025.079.05.159.076.24q.081.251.165.5c.028.087.058.174.087.261.054.161.11.322.166.484l.092.264.188.525c.036.1.073.2.11.3q.079.218.162.435l.107.284q.109.286.222.575.209.531.426,1.065l.015.037q.213.522.434,1.041v0c.011.024.021.049.031.073v0c.757,1.78,1.575,3.543,2.394,5.193l.063.128q.229.46.459.91c.184.36.359.717.534,1.073a86.8,86.8,0,0,1,3.492,8.154v0c1.11,3,1.657,4.982,1.657,4.982L18.9,46.539l-4.166-2.152.2,1.253c4.667,3.5.207,1.612.207,1.612a11.489,11.489,0,0,1,.528,2.455h0c.007.052.013.1.019.155l0,.028c.006.051.011.1.017.151l.006.06c.017.163.032.324.045.484l0,.036c.014.168.027.333.037.494v.015c.011.167.021.33.028.488v0c0,.053.005.1.007.156.047,1.04.033,1.8.033,1.8l-1.692-.386s-.036.014-.1.043c-.644.277-4.113,1.915-4.9,5.324-.025.108-.046.217-.064.327-.007.038-.012.077-.018.116-.011.071-.021.143-.029.215-.006.049-.011.1-.015.146s-.01.122-.014.184-.008.114-.01.171,0,.09,0,.136a12.177,12.177,0,0,0,3.514,8.315,2.715,2.715,0,0,0,.552.361c.059.028.124.056.194.085,2.1.869,9.109,2.27,14.324.6q.261-.084.515-.178c1.7-.627,3.074-1.263,4.474-1.853l.42-.176.425-.173c.356-.143.717-.282,1.089-.417q.223-.081.453-.16A36.862,36.862,0,0,1,45.8,64.485c1.1-.049,2.1-.072,3.012-.074a37.116,37.116,0,0,1,5.665.361c.112.017.221.034.327.052s.2.033.291.05l.307.057.071.014c.159.032.31.063.455.1l.06.014a18.576,18.576,0,0,0,3.366.74l.3,0h.064l.11,0,.081,0,.111,0,.082,0,.116-.008.079-.006.12-.012.078-.009.123-.016.076-.012.127-.022.072-.014c.044-.008.088-.018.132-.028l.067-.016c.046-.011.091-.023.137-.036l.06-.018c.048-.015.1-.029.144-.046l.048-.017c.051-.019.1-.038.154-.059l.029-.013a3.44,3.44,0,0,0,1.092-.726l.012-.011c.052-.051.1-.105.153-.161a.344.344,0,0,1,.026-.028c.047-.054.094-.111.141-.17"/>
              </g>
            </g>
          </g>
          <path id="Path_6106" data-name="Path 6106" d="M47.053,19.037S57.386,27.879,60.9,36.462c0,0-4.654-1.062,1.2,2.367,0,0,5.894,10.745,5.537,17.768s-3.322,7.138-5.3,7.149-3.47-1.761-13.554-1.309S36.531,64.977,31.1,66.985s-13.15.381-15.033-.5-4.781-6.208-3.912-9.971,5-5.367,5-5.367l1.693.386a22.983,22.983,0,0,0-.728-6.325s4.461,1.89-.206-1.612l-.2-1.253,4.165,2.152L17.51,40.857A84.241,84.241,0,0,0,11.825,26.65C7.995,19.156,3.882,8.7,5.841,5.324S15.6-.564,18.865.11s13.84,6.053,20.736,7,7.19.454,8.767-.445,2.167-1.594,5.346,1.157,3.888,5.516,1.537,9.583-8.2,1.628-8.2,1.628" fill="#c1976d"/>
          <g id="Group_8418" data-name="Group 8418" opacity="0.6">
            <g id="Group_8417" data-name="Group 8417">
              <g id="Group_8416" data-name="Group 8416" clip-path="url(#clip-path-4)">
                <path id="Path_6107" data-name="Path 6107" d="M17.247,65.381c2.968-.412,3.163-.943,3.146-3.991s-.36-11.351-2.266-16.186a22.936,22.936,0,0,1,.728,6.324l-1.693-.386s-4.134,1.605-5,5.368a9.26,9.26,0,0,0,.491,4.955c.128.328,1.75,4.311,4.6,3.916" fill="#754c24"/>
              </g>
            </g>
          </g>
          <path id="Path_6108" data-name="Path 6108" d="M33.114,25.575,25.28,23.06l1.336-2.711-2.584-.582-.862,2.616-4.387-1.409.013,2.308,3.769.938-2.34,7.1.989-.005,3.26-6.616,8.053,2Z" fill="red"/>
          <g id="Group_8421" data-name="Group 8421" opacity="0.69">
            <g id="Group_8420" data-name="Group 8420">
              <g id="Group_8419" data-name="Group 8419" clip-path="url(#clip-path-5)">
                <path id="Path_6109" data-name="Path 6109" d="M28.405,22.654c.012,0,.274-.009.737-.011a1.307,1.307,0,0,1,.307,0,.349.349,0,0,0,0-.7c-.668,0-1.055.012-1.055.012a.349.349,0,0,0,.013.7" fill="#bc272d"/>
                <path id="Path_6110" data-name="Path 6110" d="M30.551,48.694a2.6,2.6,0,0,1-1.628-.791.349.349,0,0,0-.54.443,3.256,3.256,0,0,0,2.045,1.035.37.37,0,0,0,.065.005.349.349,0,0,0,.058-.692" fill="#bc272d"/>
                <path id="Path_6111" data-name="Path 6111" d="M30.871,41.137a10.26,10.26,0,0,0-1.81,1.188.349.349,0,0,0,.226.616.344.344,0,0,0,.222-.081A9.6,9.6,0,0,1,31.2,41.754a.349.349,0,0,0-.326-.617" fill="#bc272d"/>
                <path id="Path_6112" data-name="Path 6112" d="M34.834,39.591c-.721.213-1.4.439-2.013.675a.349.349,0,0,0,.127.674.331.331,0,0,0,.123-.023c.6-.228,1.257-.45,1.96-.657a.349.349,0,1,0-.2-.669" fill="#bc272d"/>
                <path id="Path_6113" data-name="Path 6113" d="M33.638,22.791a.349.349,0,0,0,.022-.7c-.759-.052-1.469-.088-2.107-.11a.358.358,0,0,0-.361.336.349.349,0,0,0,.337.361c.63.023,1.332.057,2.082.109h.027" fill="#bc272d"/>
                <path id="Path_6114" data-name="Path 6114" d="M37.808,23.245a.349.349,0,0,0,.05-.694c-.671-.1-1.376-.193-2.1-.271a.344.344,0,0,0-.384.309.349.349,0,0,0,.309.384c.674.073,1.367.161,2.065.268a.348.348,0,0,0,.055,0" fill="#bc272d"/>
                <path id="Path_6115" data-name="Path 6115" d="M34.621,48.6c-.782.1-1.454.163-2.057.189a.349.349,0,0,0,.016.7c.636-.026,1.329-.09,2.131-.194a.349.349,0,1,0-.09-.692" fill="#bc272d"/>
                <path id="Path_6116" data-name="Path 6116" d="M44.826,37.8a.348.348,0,0,0,.325.217.327.327,0,0,0,.129-.026,5.576,5.576,0,0,0,1.883-1.177.349.349,0,1,0-.5-.49,4.905,4.905,0,0,1-1.649,1.022.348.348,0,0,0-.191.454" fill="#bc272d"/>
                <path id="Path_6117" data-name="Path 6117" d="M43.1,30.908a8.9,8.9,0,0,1,1.814.874.349.349,0,0,0,.373-.59,9.59,9.59,0,0,0-1.956-.942.349.349,0,1,0-.231.658" fill="#bc272d"/>
                <path id="Path_6118" data-name="Path 6118" d="M43.764,24.762a13.836,13.836,0,0,1,1.84.884.349.349,0,1,0,.352-.6,14.346,14.346,0,0,0-1.935-.93.349.349,0,1,0-.257.648" fill="#bc272d"/>
                <path id="Path_6119" data-name="Path 6119" d="M39.8,23.609c.709.149,1.386.315,2.012.494a.33.33,0,0,0,.1.013A.349.349,0,0,0,42,23.432c-.642-.183-1.335-.354-2.061-.506a.349.349,0,1,0-.143.683" fill="#bc272d"/>
                <path id="Path_6120" data-name="Path 6120" d="M28.029,45.554a2.791,2.791,0,0,1,.268-1.2.349.349,0,0,0-.633-.294,3.5,3.5,0,0,0-.333,1.5,3.718,3.718,0,0,0,.086.763.348.348,0,0,0,.342.275.294.294,0,0,0,.072-.008.348.348,0,0,0,.268-.414,2.962,2.962,0,0,1-.07-.62" fill="#bc272d"/>
                <path id="Path_6121" data-name="Path 6121" d="M39.1,30.652a.346.346,0,0,0,.1-.015,5.062,5.062,0,0,1,1.94-.166.348.348,0,0,0,.064-.694A5.681,5.681,0,0,0,39,29.97a.349.349,0,0,0,.1.682" fill="#bc272d"/>
                <path id="Path_6122" data-name="Path 6122" d="M43.07,37.929c-.423.091-.881.171-1.363.239l-.682.1a.349.349,0,0,0,.053.694.292.292,0,0,0,.051,0l.676-.1c.5-.07.973-.154,1.411-.248a.349.349,0,1,0-.146-.682" fill="#bc272d"/>
                <path id="Path_6123" data-name="Path 6123" d="M48.7,28.618a.348.348,0,0,0,.307-.51,7.641,7.641,0,0,0-.45-.754,6.29,6.29,0,0,0-.854-1.013.349.349,0,0,0-.486.5,5.626,5.626,0,0,1,.761.9,6.9,6.9,0,0,1,.41.687.349.349,0,0,0,.312.188" fill="#bc272d"/>
                <path id="Path_6124" data-name="Path 6124" d="M49.187,32.445a4.3,4.3,0,0,0,.456-1.946c0-.086,0-.172-.009-.259a.349.349,0,0,0-.7.046c.005.073.007.145.007.217a3.586,3.586,0,0,1-.383,1.632.349.349,0,0,0,.157.468.356.356,0,0,0,.157.036.35.35,0,0,0,.311-.194" fill="#bc272d"/>
                <path id="Path_6125" data-name="Path 6125" d="M47.039,46.541c-.647.063-1.333.147-2.1.259a.349.349,0,0,0,.052.694.389.389,0,0,0,.048,0c.753-.11,1.428-.193,2.064-.254a.349.349,0,0,0-.067-.695" fill="#bc272d"/>
                <path id="Path_6126" data-name="Path 6126" d="M47.843,33.69a.349.349,0,0,0-.216-.116,4.826,4.826,0,0,0-.663-.973.349.349,0,0,0-.528.457,4.045,4.045,0,0,1,.587.867,8.272,8.272,0,0,1-1.345.83.349.349,0,0,0,.158.661.353.353,0,0,0,.153-.036,9.164,9.164,0,0,0,1.265-.758q.009.049.015.1a.349.349,0,0,0,.693-.082,2.914,2.914,0,0,0-.108-.5.348.348,0,0,0-.011-.445" fill="#bc272d"/>
                <path id="Path_6127" data-name="Path 6127" d="M53.417,47.021a.349.349,0,1,0-.255.649,4.3,4.3,0,0,1,1.6,1.056.35.35,0,0,0,.258.111.343.343,0,0,0,.235-.093.348.348,0,0,0,.019-.493,5.01,5.01,0,0,0-1.862-1.23" fill="#bc272d"/>
                <path id="Path_6128" data-name="Path 6128" d="M51.3,46.514a15.374,15.374,0,0,0-1.928-.1l-.212,0a.349.349,0,0,0,.008.7l.208,0a14.7,14.7,0,0,1,1.839.1l.045,0a.349.349,0,0,0,.04-.695" fill="#bc272d"/>
                <path id="Path_6129" data-name="Path 6129" d="M38.946,38.62c-.719.135-1.414.281-2.066.434a.349.349,0,0,0,.159.679c.642-.15,1.327-.294,2.036-.428a.349.349,0,0,0-.129-.685" fill="#bc272d"/>
                <path id="Path_6130" data-name="Path 6130" d="M43.782,35.467a10.334,10.334,0,0,1-2,.337.349.349,0,0,0,.025.7,11.031,11.031,0,0,0,2.154-.361.349.349,0,1,0-.182-.673" fill="#bc272d"/>
                <path id="Path_6131" data-name="Path 6131" d="M38.736,47.91c-.7.133-1.388.26-2.057.375a.349.349,0,0,0,.061.692.275.275,0,0,0,.057-.005c.673-.115,1.365-.243,2.069-.377a.349.349,0,1,0-.13-.685" fill="#bc272d"/>
                <path id="Path_6132" data-name="Path 6132" d="M37.6,31.166a.349.349,0,0,0-.489.062,3.017,3.017,0,0,0-.648,1.877,2.664,2.664,0,0,0,.022.345.348.348,0,0,0,.348.305l.041,0a.349.349,0,0,0,.3-.39,2.257,2.257,0,0,1-.016-.261,2.327,2.327,0,0,1,.5-1.447.348.348,0,0,0-.062-.489" fill="#bc272d"/>
                <path id="Path_6133" data-name="Path 6133" d="M39.793,35.7l-.079-.017a3.784,3.784,0,0,1-1.659-.76.349.349,0,1,0-.447.536,4.466,4.466,0,0,0,1.958.906l.086.018a.355.355,0,0,0,.073.008.349.349,0,0,0,.068-.691" fill="#bc272d"/>
                <path id="Path_6134" data-name="Path 6134" d="M42.862,47.137c-.689.121-1.38.25-2.067.38a.349.349,0,0,0,.066.692.27.27,0,0,0,.063-.007c.684-.129,1.373-.257,2.058-.378a.349.349,0,1,0-.12-.687" fill="#bc272d"/>
                <path id="Path_6135" data-name="Path 6135" d="M56.361,50.3a.349.349,0,0,0-.676.171,6,6,0,0,1,.157.978.349.349,0,0,0,.349.321.354.354,0,0,0,.346-.377,6.621,6.621,0,0,0-.176-1.093" fill="#bc272d"/>
              </g>
            </g>
          </g>
          <path id="Path_6136" data-name="Path 6136" d="M44.112,22.9c1.513-.117.869,2.787-.352,2.526a1.294,1.294,0,0,1,.352-2.526" fill="red"/>
          <path id="Path_6137" data-name="Path 6137" d="M47.806,35.7c-1.009.042-1.5-2.786.148-2.762a1.383,1.383,0,1,1-.148,2.762" fill="red"/>
          <path id="Path_6138" data-name="Path 6138" d="M29.871,40.957c-.79,1.206,1.558,1.661,2.148,1.051s-.743-3.2-2.148-1.051" fill="red"/>
          <path id="Path_6139" data-name="Path 6139" d="M39.014,49.185c-.919.274-1.312-2.034.128-2.312s1.188,1.919-.128,2.312" fill="red"/>
          <path id="Path_6140" data-name="Path 6140" d="M55.685,52.411c-.9-.812-.217-2.024,1.2-1.514s.328,2.89-1.2,1.514" fill="red"/>
          <path id="Path_6141" data-name="Path 6141" d="M28.893,34.888a9.4,9.4,0,0,1,1,5.239l1.474-1.111s-.978-3.594-1.877-4.591-.6.463-.6.463" fill="#2e318d"/>
          <path id="Path_6142" data-name="Path 6142" d="M28.467,33.8a14.373,14.373,0,0,0-4.054-1.628c-1.811-.294,2.855,2.1,2.855,2.1s-4.741,1.894-4.143,2.86,4.648-2.517,4.648-2.517-1.478,3.525-.832,4.062,2.053-4.019,2.053-4.019,3.418,1.641,4.552.73-3.684-1.321-3.684-1.321,3.818-.831,3.668-1.517-4.042,1.067-4.042,1.067,2.362-4.068,1.241-4.21S28.887,33.8,28.887,33.8s-1.3-3.839-1.995-3.977S28.467,33.8,28.467,33.8" fill="#8e278a"/>
          <path id="Path_6143" data-name="Path 6143" d="M48.339,40.854s1.1-3.438,1.343-3.39a18.191,18.191,0,0,1,1.883,2.2s.547-6.826,1.3-6.747S55.6,37.431,55.6,37.431s.746-2.867,1.161-2.7,2.477,6.31,2.477,6.31Z" fill="#00a498"/>
          <path id="Path_6144" data-name="Path 6144" d="M47.206,55.58s-3.7-4.255-.033-5.9,6.869,2.353,6.819,3.968S51.3,56.458,51.3,56.458s-2.092,4.959-1.991,2.073c0,0-1.112,1.066-.595-1.233,0,0-2.126,3.716-1.507-1.718" fill="gray"/>
          <g id="Group_8424" data-name="Group 8424" opacity="0.38">
            <g id="Group_8423" data-name="Group 8423">
              <g id="Group_8422" data-name="Group 8422" clip-path="url(#clip-path-6)">
                <path id="Path_6145" data-name="Path 6145" d="M55.724,36.986l.389.861.657-1.677.7,1.67-.009-1.718a4.609,4.609,0,0,0-.7-1.39c-.312-.126-.809,1.456-1.038,2.254" fill="#5b4c80"/>
              </g>
            </g>
          </g>
          <g id="Group_8427" data-name="Group 8427" opacity="0.38">
            <g id="Group_8426" data-name="Group 8426">
              <g id="Group_8425" data-name="Group 8425" clip-path="url(#clip-path-7)">
                <path id="Path_6146" data-name="Path 6146" d="M49.69,38.914l.686.754L50.165,38.6l.885.509.012-.091a9.522,9.522,0,0,0-1.38-1.551c-.113-.022-.412.713-.7,1.5l.311.707Z" fill="#5b4c80"/>
              </g>
            </g>
          </g>
          <g id="Group_8430" data-name="Group 8430" opacity="0.38">
            <g id="Group_8429" data-name="Group 8429">
              <g id="Group_8428" data-name="Group 8428" clip-path="url(#clip-path-8)">
                <path id="Path_6147" data-name="Path 6147" d="M52.86,32.914c-.4-.042-.739,1.874-.971,3.675l.325.5.39-2.064.276,1.482.543-1.133,1.425,2.481-.01-1.674,0-.346c-.644-1.282-1.53-2.874-1.976-2.921" fill="#5b4c80"/>
              </g>
            </g>
          </g>
          <g id="Group_8433" data-name="Group 8433" opacity="0.5">
            <g id="Group_8432" data-name="Group 8432">
              <g id="Group_8431" data-name="Group 8431" clip-path="url(#clip-path-9)">
                <path id="Path_6148" data-name="Path 6148" d="M5.842,5.324c-1.28,2.2.033,7.436,2.166,12.887l-.017-.045S3.965,5.73,10.5,7.671c0,0,1.47,7.606,3.53,8.484s2.559,1.865,5.61-.723,5.214-4.775,4.512-6.551C23.465,7.134,21.684.39,17.114.022c-3.734.2-9.607,2.436-11.272,5.3" fill="#876239"/>
              </g>
            </g>
          </g>
          <path id="Path_6149" data-name="Path 6149" d="M18.822,49.727c.046,1.039.033,1.8.033,1.8l-1.692-.387a7.187,7.187,0,0,1,1.556,5.5A10.288,10.288,0,0,1,14.53,56s.841,3.292,1.671,4.177,1.486.486,2.672.578a5.259,5.259,0,0,0,1.512,0,69.359,69.359,0,0,0-1.1-11.419Z" fill="#754c24"/>
          <g id="Group_8436" data-name="Group 8436" opacity="0.6">
            <g id="Group_8435" data-name="Group 8435">
              <g id="Group_8434" data-name="Group 8434" clip-path="url(#clip-path-10)">
                <path id="Path_6150" data-name="Path 6150" d="M14.032,16.156c2.06.878,2.56,1.864,5.611-.723,2.047-1.737,3.689-3.292,4.339-4.665,0,0-9.33-3.614-11.706-4.095s-1.774,1-1.774,1,1.47,7.605,3.53,8.484" fill="#754c24"/>
              </g>
            </g>
          </g>
          <path id="Path_6151" data-name="Path 6151" d="M18.719,56.639A10.314,10.314,0,0,1,14.529,56s.842,3.292,1.671,4.177a2.31,2.31,0,0,0,.215.194c1.4.055,2.3-3.735,2.3-3.735" fill="#a17c52"/>
          <path id="Path_6152" data-name="Path 6152" d="M12.276,6.673a3.258,3.258,0,0,0-1.155-.068s2.936.157,5.2,4.594c0,0,5.2.351,6.664,1.039a7.078,7.078,0,0,0,1-1.47S14.652,7.154,12.276,6.673" fill="#c1976d"/>
          <g id="Group_8439" data-name="Group 8439" opacity="0.4">
            <g id="Group_8438" data-name="Group 8438">
              <g id="Group_8437" data-name="Group 8437" clip-path="url(#clip-path-11)">
                <path id="Path_6153" data-name="Path 6153" d="M50.3,59.462c-.348-1.086,7.045-3.7,7.045-3.7S44.9,59.294,43.076,58.513s10.177-9.367,10.177-9.367S38.872,59.13,29.706,59.972c-6.861.631-9.937-7.954-11.051-12.314a31.848,31.848,0,0,1,.2,3.871l-1.692-.386s-4.135,1.6-5,5.367,2.028,9.086,3.912,9.971,9.606,2.512,15.033.5,7.591-4.1,17.675-4.548,11.576,1.32,13.554,1.309c1.844-.011,4.548-.114,5.192-5.826-.689,7.8-16.879,2.627-17.226,1.542" fill="#876239"/>
              </g>
            </g>
          </g>
          <g id="Group_8442" data-name="Group 8442" opacity="0.4">
            <g id="Group_8441" data-name="Group 8441">
              <g id="Group_8440" data-name="Group 8440" clip-path="url(#clip-path-12)">
                <path id="Path_6154" data-name="Path 6154" d="M47.253,19.211l-.025-.022-.083-.072-.043-.038-.049-.042S42.1,16.824,33.3,17.351s-15.913,1.185-18-.361a.4.4,0,0,1-.194-.328c1.284.622,2.092.844,4.537-1.23.617-.524,1.195-1.03,1.723-1.521,2.083-1.934,3.349-3.614,2.789-5.03C23.464,7.134,21.684.391,17.113.022A17.212,17.212,0,0,0,13.28.734l-.15.043c-.218.066-.436.138-.654.211l-.264.091q-.3.1-.59.216c-.121.047-.226.09-.331.133-.178.071-.355.143-.53.219-.138.061-.273.125-.41.188s-.294.134-.437.2c-.095.047-.184.1-.277.146-.171.089-.344.176-.509.269-.1.055-.19.113-.286.17-.168.1-.336.2-.5.3-.1.063-.191.129-.285.194-.149.1-.3.206-.435.313-.089.067-.175.136-.26.2-.135.109-.264.221-.387.334-.075.069-.151.137-.221.206-.108.106-.2.215-.3.324-.016.018-.035.036-.051.055-.053.061-.111.121-.161.183a4.826,4.826,0,0,0-.4.581,2.863,2.863,0,0,0-.191.406c-.017.043-.031.089-.047.134-.037.108-.07.221-.1.338-.013.051-.026.1-.037.154-.03.142-.055.29-.074.444-.005.037-.009.058-.012.081q-.03.276-.039.576c0,.031,0,.064,0,.1s0,.046,0,.069c0,.152,0,.307.005.468,0,.061,0,.122.008.184.01.192.023.369.04.55,0,.032.006.063.008.094l.005.052q.036.349.091.717c.007.048.016.1.024.148.032.2.066.406.105.612l.024.122c.006.035.013.07.02.1.04.2.084.41.13.619.011.049.021.1.032.146l.008.035q.094.411.2.835l.009.032c.076.292.149.557.225.825.021.071.041.143.062.215q.1.347.21.7c.012.038.024.075.035.113s.018.059.028.089c.188.6.394,1.215.614,1.836.012.035.025.071.038.106s.019.055.029.083q.137.382.281.77c.025.066.049.133.074.2q.174.464.355.929.42,1.071.873,2.138l.031.073c.3.7.6,1.389.912,2.073l.048.107c.31.68.625,1.353.943,2.01l.042.088c.323.668.648,1.322.971,1.954.184.361.36.717.535,1.073a87.3,87.3,0,0,1,3.492,8.154c0,.005,2.344-7.989,7.889-13.269a15.272,15.272,0,0,1,10.188-4.54c10.728-.322,15.644,3.38,17.03,4.678-1.776-1.81-3.2-3.089-3.706-3.534" fill="#754c24"/>
              </g>
            </g>
          </g>
          <path id="Path_6155" data-name="Path 6155" d="M60.9,36.462a37.127,37.127,0,0,0-5.65-8.952,84.369,84.369,0,0,1,4.6,8.8,7.119,7.119,0,0,1,1.051.151" fill="#e3af80"/>
          <path id="Path_6156" data-name="Path 6156" d="M17.114.022A6.182,6.182,0,0,1,21.642,3.2S37.826,13.273,48.6,12.66c0,0-9.994-2.255-7.815-3.7s15.108-.748,14.348,4.892c-.625,4.653-2.354,5.577-2.942,5.759a4.5,4.5,0,0,0,3.061-2.2c2.351-4.067,1.643-6.832-1.536-9.583s-3.77-2.055-5.347-1.157S46.5,8.064,39.6,7.114,22.132.784,18.865.11a12.96,12.96,0,0,0-5.65.643l.066-.019A17.191,17.191,0,0,1,17.114.022" fill="#e3af80"/>
          <path id="Path_6157" data-name="Path 6157" d="M63.754,52.564c-.78,6.585-7.168,7.914-11.007,8.111C57.377,62.256,67,63.9,67.526,57.92a12.5,12.5,0,0,1-.558,2.648,14.55,14.55,0,0,0,.665-3.971c.356-7.023-5.538-17.768-5.538-17.768-.654-.384-1.171-.708-1.584-.987,2.029,4.8,3.756,10.394,3.243,14.722" fill="#e3af80"/>
          <g id="Group_8445" data-name="Group 8445" opacity="0.4">
            <g id="Group_8444" data-name="Group 8444">
              <g id="Group_8443" data-name="Group 8443" clip-path="url(#clip-path-13)">
                <path id="Path_6158" data-name="Path 6158" d="M53.614,18.45a7.85,7.85,0,0,0,1.111-2.537c-.156-2.5-3.828-4.283-3.828-4.283,2.028,3.778-4.351,5.234-17.1,4.316-12.115-.872-10.969-3.433-10.825-3.687a19.389,19.389,0,0,1-1.607,1.652c-.528.491-1.106,1-1.724,1.521-2.444,2.074-3.252,1.852-4.536,1.23a.4.4,0,0,0,.194.328c2.085,1.546,9.2.887,18,.361s13.754,1.686,13.754,1.686a9.9,9.9,0,0,0,5.137.573,8.568,8.568,0,0,0,1.424-1.16" fill="#876239"/>
              </g>
            </g>
          </g>
          <g id="Group_8448" data-name="Group 8448" opacity="0.51" style="mix-blend-mode: multiply;isolation: isolate">
            <g id="Group_8447" data-name="Group 8447">
              <g id="Group_8446" data-name="Group 8446" clip-path="url(#clip-path-14)">
                <path id="Path_6159" data-name="Path 6159" d="M52.934,53.383l-.157-.441-1.005.216-.375-.837-.823.31.311.718-1.108.238.13.773,1.242-.4.379.875.94-.123-.461-1.029Z"/>
              </g>
            </g>
          </g>
          <g id="Group_8451" data-name="Group 8451" opacity="0.51" style="mix-blend-mode: multiply;isolation: isolate">
            <g id="Group_8450" data-name="Group 8450">
              <g id="Group_8449" data-name="Group 8449" clip-path="url(#clip-path-15)">
                <path id="Path_6160" data-name="Path 6160" d="M48.743,51.522l-.951.575-.729-.829-.529.207.777.913-.974.59.481.91,1.063-.83.7.82.5-.317-.749-.853.741-.579Z"/>
              </g>
            </g>
          </g>
          <g id="Group_8454" data-name="Group 8454" opacity="0.3" style="mix-blend-mode: normal;isolation: isolate">
            <g id="Group_8453" data-name="Group 8453">
              <g id="Group_8452" data-name="Group 8452" clip-path="url(#clip-path-16)">
                <path id="Path_6161" data-name="Path 6161" d="M2.669,43.847A56.1,56.1,0,0,0,8.83,51.428c.239.26.486.527.745.8.933,1,2,2.111,3.213,3.359,1.662,1.7,3.387,3.285,5.071,4.721,1.117.951,2.213,1.838,3.262,2.652l.679.522q.338.255.664.5c.217.164.433.323.645.479.183.135.363.266.541.4.693.5,1.346.962,1.947,1.376q.41.284.787.536c.176.119.347.233.511.342l.146.1c.341.224-.119,2.429,1.737,1.116a17.53,17.53,0,0,0,2.667-2.69l-.135-.216,0-.006-.085-.135-.012-.018q-.043-.066-.087-.135l-.015-.024-.087-.136-.01-.016c-.26-.406-.574-.89-.94-1.436A89.567,89.567,0,0,0,18.7,49.642c-1.958-1.911-3.585-3.44-4.955-4.679l-.051-.047c-.819-.74-1.544-1.375-2.192-1.926C9.991,41.7,8.9,40.877,8.029,40.262c.079-.166.375-.723.752-.72a.434.434,0,0,1,.1.016l.045.014.035.016a.521.521,0,0,1,.09.056c.229.179,1.418,1.161,2.751,2.268l.093.077.5.415c1.814,1.507,3.68,3.061,3.68,3.061a1.969,1.969,0,0,0,.447.974,2.781,2.781,0,0,0,.208.239l0,0a3.336,3.336,0,0,0,.356.316c.045.035.093.07.143.105a6.025,6.025,0,0,0,2.229.9s.443-.222-1.013-1.424-8.6-7.372-8.6-7.372a2.891,2.891,0,0,0-3.235-.124,17.474,17.474,0,0,0-3.939,4.77" fill="#231f20"/>
              </g>
            </g>
          </g>
          <path id="Path_6162" data-name="Path 6162" d="M7.607,37.3c2.151-1.139,3.417.032,3.417.032s7.151,6.17,8.606,7.372,1.012,1.423,1.012,1.423c-3.258-.7-3.385-2.531-3.385-2.531s-6.455-5.378-7.024-5.821-1.044.664-1.044.664-3.733,0-1.582-1.139" fill="#063"/>
          <path id="Path_6163" data-name="Path 6163" d="M4.729,38.695C6.438,37.082,7.608,37.3,7.608,37.3c1.867,1.266,4.4,2.785,12.276,10.473A90.824,90.824,0,0,1,33.078,64.513a2.26,2.26,0,0,1-.728,1.614,3.19,3.19,0,0,1-1.645.791A90.824,90.824,0,0,1,13.968,53.724c-7.69-7.878-9.222-10.4-10.473-12.276-.128-.189-.475-1.14,1.234-2.753" fill="#90bc1f"/>
          <path id="Path_6164" data-name="Path 6164" d="M31.526,66.591s1.592.822,1.687.875a.454.454,0,0,0,.475-.01c.137-.127.042-.38.042-.38l-.875-1.719Z" fill="#c1c1c1"/>
          <path id="Path_6165" data-name="Path 6165" d="M30.7,66.918a3.19,3.19,0,0,0,1.645-.791,2.258,2.258,0,0,0,.728-1.613s-.308-.525-.885-1.428c.005.071.03.813-1,1.776-1.085,1.012-1.739,1.1-1.971,1.075a.12.12,0,0,0-.067.014c.98.63,1.553.967,1.553.967" fill="#d9d700"/>
          <path id="Path_6166" data-name="Path 6166" d="M3.494,41.449C4.731,43.3,6.248,45.794,13.713,53.464l.095.008a11.027,11.027,0,0,0,3.86-2.531,6.315,6.315,0,0,0,1.99-3.383c-7.7-7.495-10.2-9-12.051-10.254,0,0-1.171-.222-2.879,1.392s-1.361,2.563-1.234,2.753" fill="#008836"/>
          <g id="Group_8457" data-name="Group 8457" opacity="0.46" style="mix-blend-mode: normal;isolation: isolate">
            <g id="Group_8456" data-name="Group 8456">
              <g id="Group_8455" data-name="Group 8455" clip-path="url(#clip-path-17)">
                <path id="Path_6167" data-name="Path 6167" d="M3.494,41.447c1.251,1.877,2.784,4.4,10.473,12.276A90.787,90.787,0,0,0,30.7,66.917a3.027,3.027,0,0,0,.943-.308l.006-.029S17.985,55.233,13.471,50.212a129.267,129.267,0,0,1-8.86-11.4c-1.574,1.544-1.241,2.454-1.117,2.638" fill="#063"/>
              </g>
            </g>
          </g>
          <g id="Group_8460" data-name="Group 8460" opacity="0.5" style="mix-blend-mode: normal;isolation: isolate">
            <g id="Group_8459" data-name="Group 8459">
              <g id="Group_8458" data-name="Group 8458" clip-path="url(#clip-path-18)">
                <path id="Path_6168" data-name="Path 6168" d="M33.034,64.9a1.935,1.935,0,0,0,.042-.387A90.8,90.8,0,0,0,19.882,47.776C12,40.087,9.473,38.569,7.606,37.3a1.894,1.894,0,0,0-.777.085L7.416,38S23.158,48.768,33.034,64.9" fill="#fff"/>
              </g>
            </g>
          </g>
          <path id="Path_6169" data-name="Path 6169" d="M6.374,40.056C8.557,38,7.608,37.3,7.608,37.3s-1.171-.223-2.879,1.392-1.361,2.564-1.234,2.754c0,0,.7.664,2.879-1.393" fill="#3aa535"/>
          <path id="Path_6170" data-name="Path 6170" d="M6.11,39.739c1.743-1.642.986-2.2.986-2.2a4.21,4.21,0,0,0-2.189,1.344c-1.364,1.288-1.2,1.813-1.1,1.964,0,0,.555.531,2.3-1.111" fill="#008836"/>
          <path id="Path_6171" data-name="Path 6171" d="M6.907,37.911s.65.355-.9,1.82-1.934.96-1.934.96L1.825,38.447c-.089-.136-.229-.617.986-1.767s1.853-1.014,1.853-1.014Z" fill="#c1c1c1"/>
          <path id="Path_6172" data-name="Path 6172" d="M3.761,37.484c1.554-1.464.9-1.82.9-1.82s-.635-.134-1.853,1.015-1.076,1.631-.985,1.766c0,0,.38.5,1.934-.961" fill="#e8e8e8"/>
          <path id="Path_6173" data-name="Path 6173" d="M17.257,43.6s.126,1.835,3.384,2.531l-6.516-5.442-3.608-2.974a.752.752,0,0,0-.555-.038.442.442,0,0,1,.271.1c.569.443,7.024,5.822,7.024,5.822" fill="#024220"/>
          <path id="Path_6174" data-name="Path 6174" d="M32.785,67.243c.225.117.4.207.428.224a.454.454,0,0,0,.475-.011c.137-.127.042-.38.042-.38l-.239-.468Z" fill="#2d2e80"/>
          <g id="Group_8463" data-name="Group 8463" opacity="0.46" style="mix-blend-mode: normal;isolation: isolate">
            <g id="Group_8462" data-name="Group 8462">
              <g id="Group_8461" data-name="Group 8461" clip-path="url(#clip-path-19)">
                <path id="Path_6175" data-name="Path 6175" d="M31.526,66.592s1.592.822,1.687.875a.5.5,0,0,0,.417.029l-1.611-1.362Z" fill="#063"/>
              </g>
            </g>
          </g>
        </g>
      </g>
    </g>
  </g>
</svg>
