<svg id="tags" xmlns="http://www.w3.org/2000/svg" width="120" height="120" viewBox="0 0 120 120">
  <path id="Path_5258" data-name="Path 5258" d="M82.239,89.633Q71.484,63.857,60.624,38.128A19.339,19.339,0,0,0,49.657,27.411c-6.5-2.636-12.982-5.3-19.475-7.958-5.35-2.186-9.013-.671-11.183,4.62l-4.048,9.9c-1.4,3.414-2.84,6.808-4.175,10.245a18.415,18.415,0,0,0,.013,14.132q10.8,26.043,21.738,52.038a7.233,7.233,0,0,0,10.043,4.345q17.85-7.38,35.625-14.952a7.17,7.17,0,0,0,4.044-10.152M29.415,46.571a7.28,7.28,0,1,1,5.463-13.5c.022.008.044.018.066.027a7.28,7.28,0,0,1-5.529,13.469" fill="#1d1e1c" opacity="0.3"/>
  <path id="Path_5259" data-name="Path 5259" d="M82.965,87.477Q72.206,61.705,61.35,35.971A19.354,19.354,0,0,0,50.381,25.254c-6.5-2.636-12.982-5.305-19.474-7.956-5.349-2.187-9.015-.673-11.182,4.619q-2.03,4.952-4.05,9.905c-1.4,3.412-2.839,6.806-4.174,10.244A18.417,18.417,0,0,0,11.512,56.2q10.806,26.044,21.751,52.04a7.232,7.232,0,0,0,9.067,4.731,7.38,7.38,0,0,0,.975-.387Q61.153,105.2,78.93,97.628a7.174,7.174,0,0,0,4.035-10.151M30.135,44.422a7.281,7.281,0,1,1,5.463-13.5l.066.027a7.281,7.281,0,0,1-5.529,13.472" fill="#8c0c55"/>
  <path id="Path_5260" data-name="Path 5260" d="M83.207,86.76Q72.449,60.982,61.592,35.254A19.356,19.356,0,0,0,50.623,24.536c-6.5-2.635-12.982-5.3-19.473-7.957-5.352-2.185-9.015-.671-11.183,4.621q-2.028,4.951-4.05,9.9c-1.395,3.413-2.839,6.806-4.174,10.243a18.41,18.41,0,0,0,.012,14.132q10.8,26.048,21.75,52.041a7.231,7.231,0,0,0,10.042,4.342Q61.4,104.484,79.172,96.911A7.174,7.174,0,0,0,83.207,86.76M30.377,43.7a7.28,7.28,0,1,1,5.463-13.5c.023.008.044.018.066.027A7.28,7.28,0,0,1,30.377,43.7" fill="#ff0092"/>
  <path id="Path_5261" data-name="Path 5261" d="M98.061,69.966q-17.2-22-34.5-43.934a19.352,19.352,0,0,0-13.417-7.425c-6.966-.819-13.924-1.672-20.888-2.508-5.738-.69-8.869,1.742-9.563,7.419q-.641,5.31-1.278,10.622c-.441,3.662-.938,7.313-1.313,10.986a18.417,18.417,0,0,0,3.76,13.622Q38.187,81,55.62,103.163a7.233,7.233,0,0,0,10,2.156,7.315,7.315,0,0,0,.836-.63q15.255-11.846,30.375-23.86a7.173,7.173,0,0,0,1.956-9.954,7.291,7.291,0,0,0-.724-.909M35.706,42.456a7.281,7.281,0,1,1,1.688-14.463l.073.009a7.281,7.281,0,0,1-1.761,14.454" fill="#1d1e1c" opacity="0.3"/>
  <path id="Path_5262" data-name="Path 5262" d="M100.007,67.029Q81.971,45.7,63.853,24.451a19.355,19.355,0,0,0-13.687-6.907c-6.992-.551-13.98-1.138-20.969-1.707-5.76-.47-8.8,2.079-9.266,7.78q-.438,5.333-.872,10.663c-.3,3.676-.652,7.348-.887,11.026a18.419,18.419,0,0,0,4.277,13.47q18.163,21.563,36.433,43.05A7.234,7.234,0,0,0,68.958,103.6a7.132,7.132,0,0,0,.811-.661q14.787-12.421,29.437-25a7.173,7.173,0,0,0,1.558-10.025,7.262,7.262,0,0,0-.757-.877m-63.364-25.1a7.281,7.281,0,1,1,1.134-14.517l.072.006a7.281,7.281,0,0,1-1.206,14.511" fill="#647c19"/>
  <path id="Path_5263" data-name="Path 5263" d="M100.247,66.312Q82.212,44.988,64.093,23.733a19.343,19.343,0,0,0-13.687-6.906c-6.99-.551-13.978-1.138-20.969-1.709-5.76-.468-8.8,2.081-9.264,7.782q-.438,5.329-.872,10.663c-.3,3.676-.652,7.348-.889,11.026a18.427,18.427,0,0,0,4.277,13.469Q40.857,79.62,59.124,101.109a7.238,7.238,0,0,0,10.887,1.11Q84.8,89.8,99.448,77.214A7.173,7.173,0,0,0,101,67.189a7.1,7.1,0,0,0-.757-.877m-63.362-25.1a7.281,7.281,0,1,1,1.134-14.517l.072.006a7.281,7.281,0,0,1-1.206,14.511" fill="#c1ff00"/>
  <path id="Path_5264" data-name="Path 5264" d="M104.206,55.758Q83.551,37.321,62.825,18.971A18.661,18.661,0,0,0,48.53,14.2c-6.853.525-13.708,1.015-20.563,1.521-5.649.417-8.209,3.419-7.811,9.155q.375,5.37.75,10.737c.259,3.7.465,7.406.787,11.1a18.714,18.714,0,0,0,6.156,12.735Q48.661,78.11,69.573,96.663A6.967,6.967,0,0,0,80.281,96.1q12.468-14.625,24.78-29.377a7.336,7.336,0,0,0-.855-10.966M39.084,40.524A7.326,7.326,0,0,1,38.06,25.911l.023,0a7.329,7.329,0,0,1,1,14.617Z" fill="#1d1e1c" opacity="0.3"/>
  <path id="Path_5265" data-name="Path 5265" d="M107.32,52.06q-21.764-17.507-43.6-34.924A19.356,19.356,0,0,0,48.97,12.96C42,13.749,35.029,14.5,28.06,15.274c-5.745.635-8.241,3.716-7.617,9.4q.583,5.318,1.174,10.635c.4,3.666.75,7.337,1.226,10.995A18.417,18.417,0,0,0,29.6,58.714q21.937,17.718,43.959,35.33a7.23,7.23,0,0,0,10.223-.173,7.127,7.127,0,0,0,.674-.808q12.156-15,24.149-30.15a7.178,7.178,0,0,0-1.29-10.853M40.339,39.473A7.281,7.281,0,1,1,38.69,25L38.76,25a7.281,7.281,0,0,1,1.579,14.476Z" fill="#2a7b9b"/>
  <path id="Path_5266" data-name="Path 5266" d="M107.415,51.307Q85.651,33.8,63.821,16.385a19.358,19.358,0,0,0-14.756-4.178C42.1,13,35.126,13.751,28.155,14.521c-5.744.635-8.239,3.716-7.617,9.4q.585,5.32,1.174,10.635c.405,3.666.75,7.337,1.226,10.995A18.425,18.425,0,0,0,29.7,57.961q21.938,17.72,43.959,35.333a7.227,7.227,0,0,0,10.9-.981Q96.712,77.3,108.705,62.161a7.171,7.171,0,0,0-1.29-10.854M40.434,38.72a7.281,7.281,0,1,1-1.651-14.469l.072-.008A7.282,7.282,0,0,1,40.438,38.72Z" fill="#00b7ff"/>
  <rect id="Rectangle_2383" data-name="Rectangle 2383" width="120" height="120" fill="none"/>
</svg>
