<svg id="Icon_-_Audio" data-name="Icon - Audio" xmlns="http://www.w3.org/2000/svg" width="120" height="120" viewBox="0 0 120 120">
  <rect id="frame" width="120" height="120" fill="none"/>
  <g id="Icon" transform="translate(116.219 91.032)">
    <g id="Group_1564" data-name="Group 1564" transform="translate(-95.027 -65.817)" opacity="0.3">
      <g id="Group_1563" data-name="Group 1563">
        <path id="Path_1627" data-name="Path 1627" d="M-56.34-69a42.89,42.89,0,0,0-13.825,2.306c-10.429,4.123-15.16,9.337-15.16,9.337-5.942,5.942-9.7,13.584-9.7,22.072V-29.1A31.454,31.454,0,0,0-84.188-5.744,36.622,36.622,0,0,1-91.873,1.95c-.608.484-1.335,1.092-1.214,1.455.095.192-.122,1.7,0,2.06.095.192-.122,1.7,0,2.06.095.192-.122,1.7,0,2.06.122.243.97.243,3.154-.243A62.548,62.548,0,0,0-70.771,2.187,43.379,43.379,0,0,0-56.34,4.614c21.588,0,38.93-15.038,38.93-33.715v-6.181C-17.41-53.96-34.752-69-56.34-69Zm8.248,51.789a3.1,3.1,0,0,1-2.668,2.79,3.978,3.978,0,0,1-1.941-.849L-66.769-29.337H-77.926A3.1,3.1,0,0,1-80.716-32V-48.376a2.479,2.479,0,0,1,2.062-2.547,1.53,1.53,0,0,1,.727-.122h11.157L-52.7-65.112a3,3,0,0,1,1.941-.849A2.482,2.482,0,0,1-48.214-63.9a1.793,1.793,0,0,1,.122.727Zm10.673-13.7a4.9,4.9,0,0,1-1.092.606,2.209,2.209,0,0,1-1.092.243,2.482,2.482,0,0,1-2.547-2.062,1.53,1.53,0,0,1-.122-.727c0-.97.849-2.062,2.668-3.274.243-.122.365-.243.486-.243A5.607,5.607,0,0,0-37.3-40.25,5.88,5.88,0,0,0-40.453-45.1a4.213,4.213,0,0,1-1.819-2.547,3.1,3.1,0,0,1,2.668-2.79,3.537,3.537,0,0,1,1.092.243,10.5,10.5,0,0,1,6.428,7.277,10,10,0,0,1,.241,2.668C-31.721-36.006-33.66-32.975-37.42-30.913Z" transform="translate(95.027 68.998)"/>
      </g>
    </g>
    <g id="Group_1566" data-name="Group 1566" transform="translate(-95.027 -71.998)">
      <g id="Group_1565" data-name="Group 1565">
        <path id="Path_1628" data-name="Path 1628" d="M-56.34-72a42.89,42.89,0,0,0-13.825,2.306c-10.429,4.123-15.16,9.337-15.16,9.337-5.942,5.942-9.7,13.584-9.7,22.072V-32.1A31.454,31.454,0,0,0-84.188-8.744,36.622,36.622,0,0,1-91.873-1.05C-92.48-.566-93.208.042-93.086.4c.095.192-.122,1.7,0,2.06.095.192-.122,1.7,0,2.06.095.192-.122,1.7,0,2.06.122.243.97.243,3.154-.243A62.549,62.549,0,0,0-70.771-.813,43.379,43.379,0,0,0-56.34,1.614c21.588,0,38.93-15.038,38.93-33.715v-6.181C-17.41-56.96-34.752-72-56.34-72Zm8.248,57.97a3.1,3.1,0,0,1-2.668,2.79,3.978,3.978,0,0,1-1.941-.849L-66.769-26.156H-77.926a3.1,3.1,0,0,1-2.79-2.668V-45.2a2.479,2.479,0,0,1,2.062-2.547,1.53,1.53,0,0,1,.727-.122h11.157L-52.7-61.931a3,3,0,0,1,1.941-.849,2.482,2.482,0,0,1,2.547,2.062,1.793,1.793,0,0,1,.122.727Zm10.673-13.7a4.9,4.9,0,0,1-1.092.606,2.209,2.209,0,0,1-1.092.243,2.482,2.482,0,0,1-2.547-2.062,1.53,1.53,0,0,1-.122-.727c0-.97.849-2.062,2.668-3.274.243-.122.365-.243.486-.243a5.607,5.607,0,0,0,1.819-3.88,5.88,5.88,0,0,0-3.154-4.852,4.213,4.213,0,0,1-1.819-2.547,3.1,3.1,0,0,1,2.668-2.79,3.537,3.537,0,0,1,1.092.243,10.5,10.5,0,0,1,6.428,7.277,10,10,0,0,1,.241,2.668C-31.721-32.825-33.66-29.794-37.42-27.732Z" transform="translate(95.027 71.998)" fill="#afafaf"/>
      </g>
    </g>
    <g id="Group_1567" data-name="Group 1567" transform="translate(-95.027 -71.998)">
      <path id="Path_1629" data-name="Path 1629" d="M-56.34-72a42.89,42.89,0,0,0-13.825,2.306c-10.429,4.123-15.16,9.337-15.16,9.337-5.942,5.942-9.7,13.584-9.7,22.072,0,10.067,5.093,19.161,13.219,25.346-1.7,3.274-2.909,6.185-10.065,11.886C-92.48-.566-93.208.04-93.086.4c.122.243.97.243,3.152-.243A62.541,62.541,0,0,0-70.771-6.994,43.379,43.379,0,0,0-56.34-4.567c21.588,0,38.93-15.038,38.93-33.715S-34.752-72-56.34-72Zm8.248,57.97a3.1,3.1,0,0,1-2.668,2.79,3.978,3.978,0,0,1-1.941-.849L-66.769-26.156H-77.926a3.1,3.1,0,0,1-2.79-2.668V-45.2a2.479,2.479,0,0,1,2.062-2.547,1.53,1.53,0,0,1,.727-.122h11.157L-52.7-61.931a3.006,3.006,0,0,1,1.941-.849,2.482,2.482,0,0,1,2.547,2.06,1.807,1.807,0,0,1,.122.729Zm10.673-13.7a4.9,4.9,0,0,1-1.092.606,2.209,2.209,0,0,1-1.092.243,2.482,2.482,0,0,1-2.547-2.062,1.53,1.53,0,0,1-.122-.727c0-.97.849-2.06,2.668-3.274.243-.122.365-.243.486-.243a5.607,5.607,0,0,0,1.819-3.88,5.88,5.88,0,0,0-3.154-4.852,4.213,4.213,0,0,1-1.819-2.547,3.1,3.1,0,0,1,2.668-2.79,3.537,3.537,0,0,1,1.092.243,10.5,10.5,0,0,1,6.428,7.277,10.009,10.009,0,0,1,.241,2.668C-31.721-32.825-33.662-29.794-37.42-27.732Z" transform="translate(95.027 71.998)" fill="#fff"/>
    </g>
  </g>
</svg>
