<svg id="thumbs-up" xmlns="http://www.w3.org/2000/svg" width="120" height="120" viewBox="0 0 120 120">
  <path id="Path_5318" data-name="Path 5318" d="M88.647,83.568A9.753,9.753,0,0,1,90.074,81.1a15.621,15.621,0,0,0,1.194-2.1,12.97,12.97,0,0,0,1.948-9.485,13.776,13.776,0,0,0-1.626-4.144,11.928,11.928,0,0,0-2.093-3.1,14.672,14.672,0,0,0-1.458-1.341,25.92,25.92,0,0,0-12.346-6.664c-3.115-1.211-5.683-2.371-5.713-6.737a18.979,18.979,0,0,1,1.186-5.789q1.422-4.5,2.845-8.993.1-.31.2-.621C75.573,28.384,76.572,24.3,76.02,20.5A10.818,10.818,0,0,0,71.4,12.609a11.586,11.586,0,0,0-5.243-2.2,6.629,6.629,0,0,0-4.249.608c-2.821,1.628-3.09,5.478-3.642,8.688-.618,3.6-2.39,6.4-3.524,9.7-1.263,3.68-1.6,7.866-2.582,11.65-1.938,7.431-4.629,14.773-9.128,21.061A72.831,72.831,0,0,1,32.773,73.171c-2.409,2.21-5.233,4.574-6.014,7.862-.57,2.4-.734,9.656,1.087,11.6-.071-.076-.145-.151-.225-.223a14.142,14.142,0,0,0,4.069,8.052,14.666,14.666,0,0,0,1.872,1.594,10.131,10.131,0,0,0,4.6,2.234c.17.049.339.1.511.146,1.128.565,2.249,1.117,3.343,1.785a28.891,28.891,0,0,0,8.994,6.593l-.322-.437q.223.22.439.449a4.073,4.073,0,0,0,.476,1.542,5.194,5.194,0,0,0,2.266,1.911,26.522,26.522,0,0,0,8.925,3.307c.85.11,1.657.239,2.434.326l.046.005a6.737,6.737,0,0,0,5.712-1.481,5.993,5.993,0,0,0,1.447-2.115c1.023-1.376,1.816-3.283,3.109-4.279a14.023,14.023,0,0,0,2.688-1.194,7.532,7.532,0,0,0,2.572-2.032,10.211,10.211,0,0,0,2.969-7.694,5.11,5.11,0,0,1,.615-1.631c.057-.093.118-.182.18-.271a7.872,7.872,0,0,0,2.268-1.688,11.994,11.994,0,0,0,2.4-5.04,12.184,12.184,0,0,0,.552-5.1,4.121,4.121,0,0,0-1.225-2.613,2.76,2.76,0,0,1,.084-1.206" opacity="0.3"/>
  <path id="Path_5319" data-name="Path 5319" d="M26.891,75.236A24.892,24.892,0,0,0,28.972,86.02,17.668,17.668,0,0,0,35.237,93.5c3.047,2,6.219,2.887,9.062,5.341,1.7,1.465,3.451,2.2,5.193,3.475,1.656,1.21,2.8,2.993,4.38,4.294a19.742,19.742,0,0,0,6.65,3.117,17.066,17.066,0,0,0,6.356,1.194c2.462-.173,3.622-1.429,5.148-3.119,1.258-1.392,2.084-3.737,3.591-4.842a12,12,0,0,1,2.464-1.063c2.235-.962,3.606-3.1,4.708-5.163s.427-4.335,1.6-6.267a15.769,15.769,0,0,1,2.2-2.446,10.866,10.866,0,0,0,2.879-9.249c-.267-1.418-1.27-2.763-.817-4.223a9.771,9.771,0,0,1,1.427-2.473c3.682-5.427,4.1-13.855-.577-18.831a23.057,23.057,0,0,0-5.453-3.979,57.83,57.83,0,0,0-6.335-3.226c-3.94-1.666-7.692-2.254-7.729-7.537a18.986,18.986,0,0,1,1.186-5.79q1.422-4.5,2.845-8.993c1.13-3.569,2.272-7.227,2.122-10.967s-1.85-7.644-5.15-9.412a13.213,13.213,0,0,0-5.024-1.293,7.748,7.748,0,0,0-2.548.072,6.266,6.266,0,0,0-4.038,4.122,38.371,38.371,0,0,0-1.245,5.87,23.806,23.806,0,0,1-3.358,8.233,37.651,37.651,0,0,0-2.956,4.631c-.608,1.328-.7,2.716-1.184,4.068-1.229,3.445-1.878,7.191-3.661,10.4-3.28,5.9-8.828,9.562-11.123,16.149a17.125,17.125,0,0,1-1.435,3.539c-.8,1.284-2.061,1.5-3.055,2.434a13.033,13.033,0,0,0-2.3,3.921,25.1,25.1,0,0,0-2.165,9.752" transform="translate(0 0)" fill="#ffb41d"/>
  <path id="Path_5320" data-name="Path 5320" d="M53.048,99.924c-.157,1.237,2.124,2.491,3.043,3.02a12.824,12.824,0,0,0,9.106,1.449c-3.4-.6-6.192-2.973-8.708-5.342-1.152-1.085-3.179-1.187-3.441.873" transform="translate(0 0)" fill="#c48516"/>
  <path id="Path_5321" data-name="Path 5321" d="M38.273,87.6a.445.445,0,0,0-.394-.046,10.63,10.63,0,0,1-8.45-2.109c-.77-.61-1.11-1.431-1.808-2.06a14.142,14.142,0,0,0,4.069,8.051,14.943,14.943,0,0,0,8.041,4.2,30.182,30.182,0,0,1-1.368-7.706.441.441,0,0,0-.09-.329" transform="translate(0 0)" fill="#c48516"/>
  <path id="Path_5322" data-name="Path 5322" d="M54.189,91.8a14.293,14.293,0,0,1,3.33-4.467A8.52,8.52,0,0,1,56.3,74.552a9.791,9.791,0,0,1-3.5-13.934,8.732,8.732,0,0,0-4.188,6.29,8.308,8.308,0,0,0,.532,3.637c.147.379,1.56,3.225,2.09,3-2.266.951-3.306,3.778-2.845,6.192a11.546,11.546,0,0,0,3.914,6.1,6.831,6.831,0,0,0-.451,10.208,3.319,3.319,0,0,0-1.4,4.841,19.484,19.484,0,0,1,4.507-3.853,4.866,4.866,0,0,1-.776-5.231" transform="translate(0 0)" fill="#c48516"/>
  <path id="Path_5323" data-name="Path 5323" d="M35.553,75.02l-1.585-14.4s-2.3-.766-4.147,2.921c0,0,.845,10.972,5.732,11.481" transform="translate(0 0)" fill="#c48516"/>
  <path id="Path_5324" data-name="Path 5324" d="M58.1,89.2s2.768,6.176,11,6.112,11.376-3.071,11.376-3.071S66.445,93.672,58.1,89.2" transform="translate(0 0)" fill="#c48516"/>
  <path id="Path_5325" data-name="Path 5325" d="M59.006,75.435s1.541,6.021,11.928,6.142,11.419-4.441,11.419-4.441-12.038,4.615-23.347-1.7" transform="translate(0 0)" fill="#c48516"/>
  <path id="Path_5326" data-name="Path 5326" d="M72.911,54.446a23.572,23.572,0,0,0-12.493,2.409h8.528s3.053.215,3.965-2.409" transform="translate(0 0)" fill="#c48516"/>
  <path id="Path_5327" data-name="Path 5327" d="M93.373,68.775a14.579,14.579,0,0,0,1.366-5.985,13.989,13.989,0,0,0-1.6-6.3,24.146,24.146,0,0,0-9.506-9.523,27.368,27.368,0,0,0-6.159-2.612,32.81,32.81,0,0,0-3.238-.7,6.762,6.762,0,0,1-1.51-.384,2.435,2.435,0,0,1-.849-.639,4.762,4.762,0,0,1-.836-2.4,16.14,16.14,0,0,1,.059-3.453,29.868,29.868,0,0,1,1.84-6.878c1.674-4.539,3.757-8.905,4.366-13.757.569-4.536-.467-9.252-3.852-12.5a13.261,13.261,0,0,0-5.4-3.15C65.833-.168,63.179-.3,61.137.959c-3.567,2.2-3.539,6.814-4.315,10.452-.94,4.4-2.937,8.453-4.938,12.451-1.036,2.069-2.079,4.135-3,6.256a66.635,66.635,0,0,0-2.427,6.7,17.253,17.253,0,0,1-3.031,6.017c-1.493,1.8-3.25,3.366-4.757,5.157a25.1,25.1,0,0,0-5.122,9.76.862.862,0,0,0-.182.1,21.6,21.6,0,0,0-8.1,17.173,29.991,29.991,0,0,0,1.861,10.488A20.907,20.907,0,0,0,31.7,93.071a12.545,12.545,0,0,0,3.877,2.72,10.423,10.423,0,0,0,2.406.747,5.9,5.9,0,0,0,1.378.1c.1-.007.213-.018.321-.03,2.485,3.617,6.623,6.441,10.315,8.35a4.874,4.874,0,0,0,.728,1.482,9.043,9.043,0,0,0,3.349,2.439,26.236,26.236,0,0,0,8.364,2.977c2.461.339,5.085.873,7.509-.193a7.224,7.224,0,0,0,4.252-6.967,14.465,14.465,0,0,0,7.357-3.824,11.474,11.474,0,0,0,3.427-9.447c.017-.009.036-.016.053-.024a9.2,9.2,0,0,0,4.4-4.605,22.257,22.257,0,0,0,1.194-3.566,13.353,13.353,0,0,0,.514-4.274,7.072,7.072,0,0,0-.886-3.177,4.323,4.323,0,0,0-1.153-1.229,17.648,17.648,0,0,0,4.265-5.774M71.566,105.19a3.331,3.331,0,0,1-.017.387c.007-.061.035-.188-.02.116-.025.133-.058.265-.093.4a4.992,4.992,0,0,1-.528,1.271,4.432,4.432,0,0,1-1.957,1.814,4.993,4.993,0,0,1-2.391.46,21.929,21.929,0,0,1-2.812-.29,23.278,23.278,0,0,1-6.893-2.078,28.91,28.91,0,0,1-3.1-1.631,2.632,2.632,0,0,1-1.251-1.7,1.62,1.62,0,0,0-.085-.673,4.385,4.385,0,0,1,2.426-3.9,13.164,13.164,0,0,0,5.138,3.9,24.765,24.765,0,0,0,11.479,1.83l.1-.01c0,.048,0,.1,0,.11m8.814-6.848a12.315,12.315,0,0,1-7.818,4.052,22.876,22.876,0,0,1-9.73-.819c-2.882-.864-5.649-2.566-6.92-5.4A5.844,5.844,0,0,1,55.641,92a4.767,4.767,0,0,1,2.275-2.823,22.762,22.762,0,0,0,6.137,3.063,32.825,32.825,0,0,0,14.73.824,28.874,28.874,0,0,0,3.712-.724,8.711,8.711,0,0,1-2.115,6m6.572-22.079a2.161,2.161,0,0,1,.36.17c.051.028.417.275.282.167a1.479,1.479,0,0,1,.535.64c.127.218.043.031.129.279.052.151.1.3.139.459a6.175,6.175,0,0,1,.193,1.372,15.7,15.7,0,0,1-1.239,5.8,7.009,7.009,0,0,1-3.246,3.838,15.782,15.782,0,0,1-5.085,1.455c-7.7,1.21-16.816.514-22.227-5.828A6.76,6.76,0,0,1,55,79.58c.006-.026.022-.118.024-.131.023-.113.048-.226.077-.338a5.673,5.673,0,0,1,.187-.6,6.934,6.934,0,0,1,.512-.976,9.548,9.548,0,0,1,1.261-1.558l.054.027a38.074,38.074,0,0,0,6.71,2.317,45.894,45.894,0,0,0,7.264,1.3,25.512,25.512,0,0,0,13.954-2.256,18.654,18.654,0,0,0,1.892-1.117l.019.009m-7.234.314a29.822,29.822,0,0,1-13.24-.267A47.917,47.917,0,0,1,60.1,74.48a15.678,15.678,0,0,1-5.276-3.028,8.593,8.593,0,0,1-2.694-4.805,5.735,5.735,0,0,1,.147-2.5,3.657,3.657,0,0,1,.38-.946q.141-.267.3-.519a3.737,3.737,0,0,1,.267-.378c1.98-2.409,5.531-3.228,8.538-3.531a29.339,29.339,0,0,1,11.383.7,11.711,11.711,0,0,1,4.6,2.571c1.213,1.129,3.04-.69,1.822-1.823a15.15,15.15,0,0,0-7.009-3.552c.076-.131.164-.255.253-.38a5.035,5.035,0,0,1,.627-.629,4.765,4.765,0,0,1,.893-.513l-.046.019a1.279,1.279,0,0,0,.181-2.3,1.253,1.253,0,0,0-.993-.13,6.077,6.077,0,0,0-2.409,1.629,6.4,6.4,0,0,0-1.142,1.849c-.747-.088-1.5-.147-2.247-.178A29.839,29.839,0,0,0,56.1,57.4a11.157,11.157,0,0,0-4.567,2.933,8.119,8.119,0,0,0-2.05,5.54c.1,3.723,2.354,6.751,5.294,8.786A9.132,9.132,0,0,0,52.6,78.493a8.385,8.385,0,0,0,.975,5.987,13.353,13.353,0,0,0,2.269,2.946,8.038,8.038,0,0,0-2.866,7.956,8.828,8.828,0,0,0,.518,1.681,6.983,6.983,0,0,0-3.528,4.452,25.311,25.311,0,0,1-6.52-4.974,12.376,12.376,0,0,1-2.489-4.023,7.665,7.665,0,0,1-.307-4.38,1.508,1.508,0,0,0-2.907-.8,10.732,10.732,0,0,0,.513,6.642,8.938,8.938,0,0,1-1.053-.3,9.524,9.524,0,0,1-2.956-1.75A16.856,16.856,0,0,1,29.952,85.7c-2.4-5.72-2.956-12.49-.668-18.326a17.7,17.7,0,0,1,3.536-5.625,31.472,31.472,0,0,0,.088,6.7,33,33,0,0,0,1.372,6.828,8.5,8.5,0,0,0,3.575,4.875,1.29,1.29,0,0,0,1.3-2.226,6.562,6.562,0,0,1-2.65-4.175A34.421,34.421,0,0,1,35.371,67.3a24.222,24.222,0,0,1,2.164-13.022,24.3,24.3,0,0,1,3.684-5.3c1.488-1.64,3.121-3.145,4.484-4.9a19.834,19.834,0,0,0,3.149-6.308c.667-2.089,1.308-4.169,2.18-6.185,1.728-3.992,3.882-7.781,5.636-11.761a43.886,43.886,0,0,0,2.255-6.151c.517-1.9.734-3.84,1.112-5.765a14.318,14.318,0,0,1,.713-2.572,5.3,5.3,0,0,1,1.169-1.755c1.267-1.191,3.417-1.152,5.147-.695a10.477,10.477,0,0,1,7.4,7.386c1.122,4.172-.085,8.632-1.532,12.568-1.63,4.433-3.73,8.724-4.352,13.456a13.025,13.025,0,0,0,.4,6.328,5.431,5.431,0,0,0,1.931,2.563A7.24,7.24,0,0,0,73.9,46.2a25.23,25.23,0,0,1,11.143,4.792c3.2,2.456,6.148,5.863,6.95,9.916a12.3,12.3,0,0,1-2.67,9.635,16.893,16.893,0,0,1-9.6,6.037" transform="translate(0 0)" fill="#7f5100"/>
  <rect id="frame" width="120" height="120" transform="translate(0 0)" fill="none"/>
</svg>
