<svg id="up" xmlns="http://www.w3.org/2000/svg" xmlns:xlink="http://www.w3.org/1999/xlink" width="70" height="70" viewBox="0 0 70 70">
  <defs>
    <clipPath id="clip-path">
      <rect id="Rectangle_3480" data-name="Rectangle 3480" width="70" height="70" fill="none"/>
    </clipPath>
    <clipPath id="clip-path-3">
      <rect id="Rectangle_3478" data-name="Rectangle 3478" width="52.249" height="42.109" transform="translate(9.567 20.54)" fill="none"/>
    </clipPath>
  </defs>
  <g id="Group_8796" data-name="Group 8796">
    <g id="Group_8795" data-name="Group 8795" clip-path="url(#clip-path)">
      <g id="Group_8794" data-name="Group 8794">
        <g id="Group_8793" data-name="Group 8793" clip-path="url(#clip-path)">
          <g id="Group_8792" data-name="Group 8792" opacity="0.3" style="mix-blend-mode: normal;isolation: isolate">
            <g id="Group_8791" data-name="Group 8791">
              <g id="Group_8790" data-name="Group 8790" clip-path="url(#clip-path-3)">
                <path id="Path_6457" data-name="Path 6457" d="M37.11,20.67a6.524,6.524,0,0,1,2.281.978A8.255,8.255,0,0,1,41.962,23.7q7.209,7.661,13.7,15.926c3.086,3.932,8.153,8.01,5.316,13.44-1.3,2.478-3.624,4.258-5.88,5.95a17.019,17.019,0,0,1-3.617,2.114c-3.282,1.94-7.989,2.255-10.754-.424a4.593,4.593,0,0,1-.827-1.134,13.259,13.259,0,0,1-.652-1.455l-3.5-8.839L32.26,58.113A7.1,7.1,0,0,1,30.781,60.7a3.747,3.747,0,0,1-.992.7,3.457,3.457,0,0,1-1.035.464,10.871,10.871,0,0,1-1.6.35A12.909,12.909,0,0,1,21.5,61.66a17.044,17.044,0,0,1-4.425-2.171c-.226-.154-.446-.313-.662-.474q-.366-.274-.731-.553l-.454-.35c-.094-.073-.188-.145-.281-.219-.182-.143-.361-.289-.54-.435l-.167-.138q-.3-.248-.588-.5l-.061-.055a13.21,13.21,0,0,1-3.059-3.7C7.7,47.641,11.7,43.332,14.788,39.4c4.322-5.5,9.961-10.592,14.765-15.7,1.933-2.055,4.64-3.642,7.56-3.028"/>
              </g>
            </g>
          </g>
          <path id="Path_6458" data-name="Path 6458" d="M56.9,44.508a13.124,13.124,0,0,1-2.6,6c-2.834,3.52-9.567,4.985-13.11,1.555a7.1,7.1,0,0,1-1.478-2.589L33.676,34.206l-2.691,6.8c-.748,1.891-2.057,3.726-1.115,5.707.622,1.306,1.908,4.673.549,5.913a3,3,0,0,1-1.206.592c-4.234,1.264-8.88-.252-12.339-2.849-2.256-1.692-4.584-3.471-5.88-5.95C8.157,39,12.161,34.686,15.247,30.756c4.323-5.5,9.961-10.592,14.766-15.7,1.932-2.055,4.64-3.641,7.56-3.028A6.627,6.627,0,0,1,41.9,15.162c1.03,1.785,1.176,3.974,2.216,5.754a17.914,17.914,0,0,0,1.432,1.944A58.181,58.181,0,0,1,49.267,27.9c.431.7.7,1.488,1.068,2.227,1.157,2.333,3.684,4.111,5.152,6.321a11.3,11.3,0,0,1,1.421,8.06" fill="#bdbdbd"/>
          <path id="Path_6459" data-name="Path 6459" d="M23.224,47.3l7.768,4.083a1.958,1.958,0,0,1-.573,1.249,3.03,3.03,0,0,1-1.2.592c-4.235,1.264-8.881-.253-12.34-2.85a22.982,22.982,0,0,1-5.16-4.8c-.109-.195-.217-.391-.318-.593a3.08,3.08,0,0,1-.372-1.13,2.107,2.107,0,0,1,2.188-2.042c1.256.018,2.02,1.073,2.875,1.825,1.925,1.692,4.866,2.467,7.137,3.66" fill="#8a8a8a"/>
          <path id="Path_6460" data-name="Path 6460" d="M42.35,34.954a23.635,23.635,0,0,1,2.033,4.34A24.348,24.348,0,0,1,45.9,43.741c.422,2.214-.257,8.63-3.769,8.1a3.4,3.4,0,0,1-1.764-.92,13.475,13.475,0,0,1-.652-1.458l-6.038-15.26-.952,2.412a5.083,5.083,0,0,1,.27-1.486,4.93,4.93,0,0,1,5.658-3.062,6.56,6.56,0,0,1,3.7,2.883" fill="#8a8a8a"/>
          <path id="Path_6461" data-name="Path 6461" d="M38.947,12.741a6.382,6.382,0,0,1,3.48,2.316q7.206,7.66,13.7,15.927c3.087,3.931,8.155,8.01,5.317,13.437-1.3,2.479-3.624,4.255-5.88,5.95-2.738,2.056-6.825,4.072-9.283,1.691A7.086,7.086,0,0,1,44.8,49.473L38.763,34.206,32.725,49.472a7.1,7.1,0,0,1-1.479,2.589c-2.46,2.382-6.545.365-9.283-1.692-2.256-1.692-4.584-3.47-5.88-5.95-2.837-5.425,2.23-9.508,5.317-13.437q6.483-8.255,13.7-15.925a7.265,7.265,0,0,1,2.988-2.206,1.686,1.686,0,0,1,.86-.11" fill="#fff"/>
        </g>
      </g>
    </g>
  </g>
</svg>
