<svg id="update" xmlns="http://www.w3.org/2000/svg" xmlns:xlink="http://www.w3.org/1999/xlink" width="70" height="70" viewBox="0 0 70 70">
  <defs>
    <clipPath id="clip-path">
      <rect id="Rectangle_3747" data-name="Rectangle 3747" width="70" height="70" fill="none"/>
    </clipPath>
    <clipPath id="clip-path-3">
      <rect id="Rectangle_3745" data-name="Rectangle 3745" width="60.042" height="61.458" transform="translate(9.783 6.6)" fill="none"/>
    </clipPath>
  </defs>
  <g id="Group_9780" data-name="Group 9780" clip-path="url(#clip-path)">
    <g id="Group_9779" data-name="Group 9779">
      <g id="Group_9778" data-name="Group 9778" clip-path="url(#clip-path)">
        <g id="Group_9777" data-name="Group 9777" opacity="0.3">
          <g id="Group_9776" data-name="Group 9776">
            <g id="Group_9775" data-name="Group 9775" clip-path="url(#clip-path-3)">
              <path id="Path_7715" data-name="Path 7715" d="M66.9,51.314c.091-.137.183-.273.27-.41.078-.122.153-.244.227-.366q.136-.222.267-.445c.067-.115.132-.231.2-.347q.132-.238.256-.477c.056-.108.112-.215.166-.322.089-.179.173-.358.255-.537.041-.089.084-.177.123-.266.118-.268.23-.537.333-.805,2.137-5.6-.209-7.842-3.194-9.988-.23-.165-.463-.329-.7-.5l-.359-.252-.334-.236a15.271,15.271,0,0,1-4.125-3.878c-.141-.213-.288-.444-.438-.686-.1-.165-.2-.335-.31-.512-.507-.848-1.062-1.83-1.673-2.891-.044-.077-.089-.154-.133-.232C57.4,27.6,57.055,27,56.69,26.394q-.1-.162-.195-.324c-3.275-5.406-7.927-11.681-14.814-12.884a17.13,17.13,0,0,0-2.454-5.229A3.147,3.147,0,0,0,35.99,6.664h0a3.306,3.306,0,0,0-.325.086l-.048.014c-.1.032-.191.07-.284.111l-.081.037c-.083.039-.164.083-.244.13-.036.021-.072.043-.107.066-.07.046-.139.093-.205.144-.043.033-.084.068-.126.1s-.113.1-.166.15-.092.1-.138.15-.087.1-.128.15-.1.141-.147.214c-.028.044-.059.085-.086.132s-.038.075-.058.112c-.039.064-.077.135-.115.208a2.013,2.013,0,0,0-.131.263c-.064.158-.123.317-.18.478-.182.475-.352.954-.5,1.441a21.435,21.435,0,0,0-.961,3.892,17.252,17.252,0,0,0-6.686,5.133,11.39,11.39,0,0,0-2.143,3.237c-2.067,3.769-3.143,7.942-4.143,11.3-2.113,7.084-11.435,10.812-8.71,19.3l.006.019c.045.14.094.282.146.426l.032.087c.047.126.1.254.149.382.015.038.029.075.045.112.067.161.138.323.213.488.128.276.263.543.4.805.045.084.092.165.139.248.1.177.2.352.306.523.056.091.113.181.171.271.1.16.211.318.32.472.059.085.118.169.179.252.125.169.255.334.386.5.048.059.094.121.143.18q.27.323.557.629c.05.054.1.1.154.157.145.15.291.3.442.441.077.073.156.144.234.216q.2.178.4.351c.086.073.173.145.26.217q.206.167.415.325c.086.066.172.133.259.2.172.125.346.246.523.365l.229.154c.209.136.422.269.638.4.1.062.211.121.317.181.141.08.283.16.426.237q.18.1.363.189c.134.068.269.134.4.2s.257.124.387.183.267.119.4.178.268.118.405.175.258.1.388.152q.423.167.857.32c.107.037.213.076.321.112.174.059.349.115.525.17.1.033.207.066.311.1.184.056.369.111.555.163.09.026.18.05.271.075.2.056.405.111.61.162l.1.025q1.151.288,2.344.5l.035.007c.266.049.534.094.8.138L26.9,65c1.867.3,3.792.5,5.734.621a3.485,3.485,0,0,0,.584.656,6.9,6.9,0,0,0,1.718,1.072,6.627,6.627,0,0,0,1.03.376,7.933,7.933,0,0,0,2.1.325c.1,0,.2,0,.3,0s.2,0,.3,0h.118q.243,0,.477-.012l.087,0a7.223,7.223,0,0,0,4.378-1.5,3.758,3.758,0,0,0,.7-.7,5.191,5.191,0,0,0,.414-.574A36.3,36.3,0,0,0,63.679,55.252l.017-.017c.205-.211.407-.422.6-.635l.095-.1c.181-.2.36-.4.534-.6.04-.046.077-.092.116-.137.169-.2.336-.4.5-.6.01-.011.018-.023.027-.034.3-.368.578-.74.847-1.114.075-.105.153-.208.226-.313.09-.13.176-.261.263-.391"/>
            </g>
          </g>
        </g>
        <path id="Path_7716" data-name="Path 7716" d="M38.788,3.555a3.16,3.16,0,0,0-5.545-.142C30.658,7.912,27.8,14.941,34.309,16.1c7.538,1.34,7.4-6.888,4.479-12.543" fill="#ff9d00"/>
        <path id="Path_7717" data-name="Path 7717" d="M36.655,3.068a2.315,2.315,0,0,0-.907-1.219,3.094,3.094,0,0,0-2.506,1.564,21,21,0,0,0-2.859,7.45,4.438,4.438,0,0,0,1.467.823c5.344,1.9,6.245-4.129,4.8-8.618" fill="#ffd400"/>
        <path id="Path_7718" data-name="Path 7718" d="M56.449,30.638c-2.818-5.771-6.924-21.575-19.437-22.2a11.989,11.989,0,0,0-5.518.494c-9.9,2.358-13.4,11.728-16.215,18C12.082,34.065,1.38,36.419,4.5,46.5S19.885,59.387,31.033,60.883c13.492,1.811,27.422-5.737,32.1-14.382s-3.791-9.926-6.689-15.863" fill="#ffd400"/>
        <path id="Path_7719" data-name="Path 7719" d="M11.785,52.422C6.828,49.8,4.948,39.342,31.7,40.234s24.97,10.7,24.97,10.7-18.78,15.31-44.887,1.487" fill="#d4801e"/>
        <path id="Path_7720" data-name="Path 7720" d="M11.417,43.584a5.949,5.949,0,0,0,1.853,1.548c19.16,10.144,34.362,4.6,41.1.931-2.826-2.607-9.042-5.375-22.67-5.829-11.047-.369-17.2,1.2-20.285,3.35" fill="#aa621a"/>
        <path id="Path_7721" data-name="Path 7721" d="M56.449,30.638c-2.817-5.771-6.924-21.575-19.437-22.2,0,0,9.781,2.3,11.525,17.494S33.188,33.991,20.108,36.964,5.84,45.138,5.84,45.138a14.125,14.125,0,0,1-1.079-5.722A9.453,9.453,0,0,0,4.5,46.5c2.56,8.269,11.27,11.639,20.47,13.411.771,1.491,2.251,2.609,4.8,3.062,3.421.609,5.677-.23,7.045-1.883,11.5-.6,22.311-7.18,26.324-14.59,4.681-8.645-3.791-9.926-6.689-15.863m.223,20.3S37.893,66.244,11.785,52.421C6.828,49.8,4.948,39.342,31.7,40.234s24.97,10.7,24.97,10.7" fill="#ff9d00"/>
        <path id="Path_7722" data-name="Path 7722" d="M23.528,13.256c-8.026,6.263-6.151,24.23,9.221,15.051s6.145-27.042-9.221-15.051" fill="#ffe600"/>
        <path id="Path_7723" data-name="Path 7723" d="M21.035,23.447c-.787-2.854,5.805-13.9,10.664-12.014S23.064,30.806,21.035,23.447" fill="#fff35a"/>
        <path id="Path_7724" data-name="Path 7724" d="M31.4,43.356l.306-3.123,3.432.157-.9,3.487Z" fill="#d4801e"/>
        <path id="Path_7725" data-name="Path 7725" d="M35.947,45.675a4.358,4.358,0,0,0-7.649-.2c-3.564,6.206-7.5,15.9,1.472,17.5,10.4,1.848,10.2-9.5,6.177-17.3" fill="#ff9d00"/>
        <path id="Path_7726" data-name="Path 7726" d="M32.881,56.294a16.129,16.129,0,0,0-3.732-.685c-.684-.021-1.072-.012-1.523-.627a2.611,2.611,0,0,0-.853-.916,2.1,2.1,0,0,0-1.566.106,1.191,1.191,0,0,0-.516.276,1.169,1.169,0,0,0-.237.662c-.249,1.848-.6,3.97.731,5.477a7.856,7.856,0,0,0,4.571,2.393c3.125.457,7.363-.177,7.454-3.436a2.664,2.664,0,0,0-1.432-2.153,10.5,10.5,0,0,0-2.8-1.07l-.1-.027" fill="#ffd400"/>
        <path id="Path_7727" data-name="Path 7727" d="M33.057,3.686a21.7,21.7,0,0,0-1.591,3.49.857.857,0,0,0-.071.394.657.657,0,0,0,.468.477,2.216,2.216,0,0,0,2.224-.984,5.45,5.45,0,0,0,1.162-2.1c.567-2.155-.907-3.536-2.192-1.273" fill="#ffe600"/>
        <path id="Path_7728" data-name="Path 7728" d="M33.108,3.589a10.852,10.852,0,0,0-.8,1.745.436.436,0,0,0-.035.2.329.329,0,0,0,.234.239,1.109,1.109,0,0,0,1.112-.492A2.746,2.746,0,0,0,34.2,4.226c.283-1.078-.453-1.768-1.1-.637" fill="#fff35a"/>
      </g>
    </g>
  </g>
</svg>
