<svg id="Icon_-_Friends" data-name="Icon - Friends" xmlns="http://www.w3.org/2000/svg" xmlns:xlink="http://www.w3.org/1999/xlink" width="120" height="120" viewBox="0 0 120 120">
  <defs>
    <clipPath id="clip-path">
      <path id="Path_1346" data-name="Path 1346" d="M978.244,696.691h0a50.366,50.366,0,0,1,25.931,93.556,49.294,49.294,0,0,1-25.931,7.176h0a50.366,50.366,0,0,1,0-100.732Z" transform="translate(-927.878 -696.691)" fill="none"/>
    </clipPath>
  </defs>
  <rect id="frame" width="120" height="120" fill="none"/>
  <g id="Group_553" data-name="Group 553" transform="translate(-918.255 -687.059)">
    <g id="Group_554" data-name="Group 554" transform="translate(927.878 696.691)" clip-path="url(#clip-path)">
      <g id="Group_553-2" data-name="Group 553" transform="translate(1.999 26.367)">
        <g id="Mask_Group_1" data-name="Mask Group 1" transform="translate(51.898)">
          <g id="Profile_5" data-name="Profile 5">
            <path id="Union_1" data-name="Union 1" d="M938.258,776.711V743.2c0-6.511,10.089-11.839,22.426-11.839s22.431,5.322,22.431,11.839v33.512Zm11.21-63.1a11.232,11.232,0,1,1,11.216,11.833A11.539,11.539,0,0,1,949.469,713.608Z" transform="translate(-938.258 -701.769)" fill="#fff"/>
          </g>
        </g>
        <g id="Mask_Group_1-2" data-name="Mask Group 1">
          <g id="Profile_5-2" data-name="Profile 5">
            <path id="Union_1-2" data-name="Union 1" d="M928.263,776.711V743.2c0-6.511,10.094-11.839,22.431-11.839s22.426,5.322,22.426,11.839v33.512Zm11.216-63.1a11.232,11.232,0,1,1,11.215,11.833A11.535,11.535,0,0,1,939.479,713.608Z" transform="translate(-928.263 -701.769)" fill="#fff"/>
          </g>
        </g>
      </g>
    </g>
  </g>
</svg>
