<svg id="Icon_-_Child" data-name="Icon - Child" xmlns="http://www.w3.org/2000/svg" xmlns:xlink="http://www.w3.org/1999/xlink" width="120" height="120" viewBox="0 0 120 120">
  <defs>
    <clipPath id="clip-path">
      <path id="High-light-stroke" d="M50.079,0h0a50.079,50.079,0,0,1,50.079,50.079c0,17.895-9.386,33.6-24.3,42.941a49.045,49.045,0,0,1-25.782,7.138h0A50.079,50.079,0,0,1,50.079,0Z" transform="translate(25.453 11.457)" fill="none" stroke="#fff" stroke-width="4"/>
    </clipPath>
  </defs>
  <rect id="frame" width="120" height="120" fill="none"/>
  <g id="Mask_Group_1" data-name="Mask Group 1" transform="translate(-15.533 -1.144)" clip-path="url(#clip-path)">
    <path id="Union_1" data-name="Union 1" d="M0,98.089V85.83C0,72.339,20.908,61.3,46.463,61.3S92.927,72.339,92.927,85.83v12.26ZM23.229,24.525C23.229,10.98,33.631,0,46.463,0S69.692,10.98,69.692,24.525s-10.4,24.52-23.229,24.52S23.229,38.065,23.229,24.525Z" transform="translate(28.275 24.583)" fill="#fff"/>
  </g>
</svg>
