<svg id="vincent" xmlns="http://www.w3.org/2000/svg" width="120" height="120" viewBox="0 0 120 120">
  <path id="Path_3973" data-name="Path 3973" d="M4817.436,2355.454a21.5,21.5,0,0,0-1.822,3.542,12.045,12.045,0,0,0,1.084,11.849h0a2.447,2.447,0,0,0-.35.948,3.65,3.65,0,0,0,.411,2.347,13.946,13.946,0,0,0,1.21,1.6c.3.387.444.864.7,1.244-.137.565-.277,1.129-.429,1.69-.074.278-.142.557-.232.831a28.232,28.232,0,0,1-1.06,2.756q-.272.613-.569,1.213t-.63,1.2c-.326.584-.677,1.153-1.04,1.715-.064.1-.126.2-.192.3-.262.4-.544.78-.824,1.165-.016-.055-.034-.109-.051-.164-.091-.3-.184-.607-.28-.9s-.2-.587-.3-.876-.2-.581-.309-.861c-.13-.336-.267-.657-.4-.981-.2-.462-.4-.91-.608-1.348-.1-.211-.2-.424-.306-.63-.149-.293-.305-.577-.461-.858q-.15-.27-.3-.533c-.169-.287-.34-.571-.516-.846-.085-.134-.173-.261-.26-.391a22.231,22.231,0,0,0-2.143-2.738c-.051-.055-.1-.113-.153-.168-.25-.266-.507-.52-.767-.767-.063-.06-.126-.119-.19-.178-.272-.253-.548-.5-.831-.731-.01-.009-.021-.016-.032-.025a18.124,18.124,0,0,0-3-2h0a17.862,17.862,0,0,0-2.4-1.06,9.29,9.29,0,0,0,1.125-1.335,4.156,4.156,0,0,0,.836-2.4,3.036,3.036,0,0,0-.472-1.485c.567-.05,1.134-.1,1.7-.148a4.257,4.257,0,0,0,1.588-.355,2.412,2.412,0,0,0,1.154-1.462,3.011,3.011,0,0,0,.09-.379,3.12,3.12,0,0,0,.042-.387,3.2,3.2,0,0,0-.009-.387,3.644,3.644,0,0,0-.141-.718l0-.018a4.525,4.525,0,0,0-.27-.673l-.009-.02a5.631,5.631,0,0,0-.375-.636l-.006-.01a7.315,7.315,0,0,0-.455-.6h0c-.019-.021-.036-.044-.055-.066-1.751-2.025-4.3-3.153-6.779-4.155a11.56,11.56,0,0,0-2.174-.709,12.06,12.06,0,0,0-2.93-.067,13.661,13.661,0,0,0-4.327.727c-1.572.628-3.135,1.278-4.7,1.917l-.38.155q-1.251-1.242-2.554-2.433t-2.672-2.34a3.709,3.709,0,0,0-.63-.453,1.514,1.514,0,0,0-.237-.1,2.481,2.481,0,0,0-1.587.155c-.02.007-.038.016-.057.023-.2.071-.393.147-.585.23s-.38.173-.567.266l-.049.023a10.994,10.994,0,0,0-1.171.69l-.006,0h0a10.88,10.88,0,0,0-2.185,1.945,1.339,1.339,0,0,0-.434,1.058,1.383,1.383,0,0,0,.612.758,28.858,28.858,0,0,0,5.183,3q-1.042.426-2.086.85c-1.37.559-2.742,1.118-4.074,1.764a34.685,34.685,0,0,0-9.721,7.021,13.347,13.347,0,0,0-2.67,3.707h0a7.409,7.409,0,0,0-.289.755c0,.016-.011.031-.016.047a6.459,6.459,0,0,0-.18.733c-.008.038-.015.076-.021.115a5.546,5.546,0,0,0-.074.731c0,.038,0,.075,0,.113a5.146,5.146,0,0,0,.043.772,4.177,4.177,0,0,0,.259.938,3.16,3.16,0,0,0,.538.933,2.507,2.507,0,0,0,.509.447,3.3,3.3,0,0,0,1.873.463,6.3,6.3,0,0,0,.66-.044,9.731,9.731,0,0,0,1.793-.387c.112-.035.221-.081.331-.119a3.328,3.328,0,0,0-.1,1.66,3.2,3.2,0,0,0,2.086,2.3,41.013,41.013,0,0,0-4.1,5.148l-.011.018q-.4.6-.791,1.228l0,0c-.524.85-1.03,1.743-1.51,2.678h0a37.638,37.638,0,0,0-3.191,8.766c-.739-.458-1.483-.91-2.209-1.388-.406-.268-.837-.544-1.273-.826a27.358,27.358,0,0,1-3.2-2.341,10.037,10.037,0,0,1-1.523-1.653c-.053-.068-.11-.136-.158-.207-.123-.185-.246-.387-.369-.6-.041-.07-.082-.148-.122-.22-.083-.148-.165-.295-.248-.452-.051-.1-.1-.2-.153-.3-.075-.145-.149-.289-.224-.44l-.188-.378c-.077-.157-.154-.312-.233-.473-1.432-2.927-3.112-6.411-5.95-7.16a15.119,15.119,0,0,0-1.816-.359l-.171-.561-.551-1.68a3.538,3.538,0,0,0,1.1-2.218,8.317,8.317,0,0,0-.133-3.516,50.5,50.5,0,0,0-3.279,17.935c0,.751.025,1.5.057,2.241a2.178,2.178,0,0,1,.546.086c.786.255,1.128,1.148,1.438,1.915.137.337.3.663.463.989l-.006.008c.021.043.047.083.069.125.1.194.206.382.314.571s.232.4.356.6c.11.175.222.348.339.519.151.221.309.437.47.652.1.134.2.27.3.4.273.344.555.681.85,1h0l.068.076.224.253c.926,1.038,1.817,2.1,2.805,3.079.279.28.564.555.866.817l.014.013c.251.219.512.433.776.645l.1.08a24.779,24.779,0,0,0,4.827,3.027l.025.011q.384.18.774.344.464.2.934.365a17.258,17.258,0,0,0,2.152.627h0c.4.088.808.164,1.214.219.021.149.042.3.065.444.077.482.163.959.265,1.425.034.152.073.3.109.451.083.347.172.691.268,1.029.05.174.1.348.151.519.013.042.024.087.038.13l0-.012c.138.439.28.875.44,1.3q.3.787.645,1.539a24.322,24.322,0,0,0,1.56,2.862c.184.289.382.565.576.845l0,.013c.04.057.084.109.124.166.239.337.487.666.741.989.1.123.188.248.286.368.3.367.607.723.922,1.071.061.067.118.138.18.205.385.417.78.824,1.187,1.213s.834.769,1.264,1.134l.038.034v0c.669.567,1.36,1.1,2.066,1.6l-.2.159-.138.111c-.082.065-.166.133-.25.2l-.138.112-.155.129h0l-.111.093-.138.115c-.1.083-.2.168-.3.255l-.12.1c-.115.1-.232.2-.349.307l-.081.07a32.287,32.287,0,0,0-4.122,4.372l-.018.023c-.261.343-.513.694-.754,1.05a50.491,50.491,0,0,0,5.689,3.031,17.158,17.158,0,0,1,1.3-1.687c.444-.506.9-.976,1.36-1.405.137-.127.274-.251.41-.372.166-.147.332-.287.5-.424.141-.117.281-.231.419-.34l.009-.008c.137-.107.272-.213.406-.313l0,0q.2-.153.4-.294l0,0c.131-.095.259-.185.385-.272l0,0q.19-.132.372-.252c.243-.16.473-.306.688-.437h0c.537-.328.974-.563,1.256-.708h0l.164-.083a30.041,30.041,0,0,0,5.872,1.71v0c.146.027.289.046.433.07s.3.05.443.071c.344.049.683.091,1.016.124.123.012.241.018.362.029.229.019.457.036.682.047.146.007.29.011.435.015.2.006.392.008.584.007.139,0,.279,0,.415-.005.218-.006.429-.018.639-.032.1-.007.2-.01.3-.019.287-.025.565-.06.836-.1.114-.017.223-.039.335-.06s.217-.035.321-.057v-.008c.119-.026.245-.045.359-.073.264-.066.541-.142.826-.223l.266-.078c.208-.061.42-.125.638-.194l.308-.1q.357-.116.729-.245c.08-.028.159-.054.24-.084q.486-.172,1-.368l.288-.114c.25-.1.5-.2.761-.307.117-.049.234-.1.352-.149v0l.083-.038c.225-.1.453-.2.682-.3.133-.059.266-.117.4-.179l.338-.158c.07-.032.141-.067.211-.1.147-.07.293-.138.442-.21.111-.054.222-.111.334-.166.3-.149.6-.3.9-.461.154-.08.309-.164.463-.248q.354-.19.711-.389c.166-.093.332-.186.5-.282q.371-.214.746-.44c.149-.09.3-.176.448-.269.084-.051.167-.106.251-.158.037-.023.074-.043.111-.067v0c.249-.157.5-.314.749-.478.162-.106.325-.218.487-.327.233-.157.465-.315.7-.477.182-.128.362-.257.543-.388.22-.158.438-.32.657-.485.178-.133.357-.267.535-.4.277-.216.553-.438.828-.662q.345-.282.686-.573c.236-.2.472-.4.705-.611.179-.159.356-.323.533-.486.2-.186.4-.373.6-.563.178-.172.356-.344.532-.52.206-.206.408-.417.611-.628.144-.151.291-.3.434-.451l.082.032.032.013c.051.022.106.048.16.074.029.013.057.026.086.041.057.028.114.059.173.091.03.016.06.034.09.052.062.036.125.073.188.115.025.015.05.034.075.05a4.692,4.692,0,0,1,.655.539c.033.032.065.063.1.1.06.062.119.129.177.2.036.041.07.084.1.128.057.071.113.144.167.222.034.049.066.1.1.151a5.092,5.092,0,0,1,.366.661,5.624,5.624,0,0,1,.245.63,6.314,6.314,0,0,1,.172.656,7.4,7.4,0,0,1,.116.737c.079.733.2,1.581.339,2.486h0l.007.039q.093.589.2,1.207c.009.049.019.1.027.15.035.2.071.393.107.591.028.15.057.3.086.452.023.121.046.241.07.363q.087.444.18.889c.025.121.049.24.075.361.289,1.358.61,2.687.944,3.851a50.608,50.608,0,0,0,6.042-4.147c-.233-1.444-.56-3.226-.966-5.025l-.01-.043c-.156-.689-.323-1.379-.5-2.051v0a27.54,27.54,0,0,0-1.427-4.238,6.114,6.114,0,0,0-.575-.98h0a8.342,8.342,0,0,0-3.184-2.6c-.059-.029-.116-.053-.175-.081-.119-.056-.237-.11-.352-.159-.067-.029-.13-.054-.195-.08s-.113-.048-.166-.068c.158-.24.312-.483.465-.728s.3-.482.441-.727c.07-.119.139-.24.208-.36.119-.208.239-.416.354-.628.126-.229.246-.463.366-.7.1-.192.2-.384.294-.578.016-.033.035-.063.05-.095l0-.008c.023-.048.045-.1.069-.147.114-.24.229-.48.338-.724.141-.313.274-.633.406-.954.088-.215.182-.427.267-.646q.273-.709.518-1.443l-.011.016c.253-.758.486-1.532.687-2.331v0q.229-.9.409-1.845c.048-.248.083-.5.125-.755.069-.4.138-.806.192-1.219.041-.306.07-.618.1-.929.039-.371.078-.743.106-1.121.025-.333.04-.672.056-1.011.01-.221.03-.436.036-.66l-.014-.012c.01-.335.03-.664.031-1,.078-.081.158-.162.242-.245.051-.05.116-.116.186-.188l.036-.037q.1-.108.234-.246l.013-.014c.115-.122.241-.259.381-.414a43,43,0,0,0,3.329-4.137q.321-.441.656-.919c.019-.027.04-.054.059-.082l.046-.068c.4-.576.814-1.186,1.235-1.836.019-.029.039-.058.058-.088.385-.6.775-1.225,1.168-1.88.048-.079.095-.159.142-.239q.51-.858,1.02-1.779l.141-.256q.486-.888.966-1.833c.023-.046.048-.09.071-.135.015-.03.028-.06.043-.09q.6-1.188,1.177-2.46l.008-.018q.546-1.212,1.065-2.5l.04-.092c.016-.041.03-.084.047-.125q.5-1.25.958-2.567c.017-.048.037-.1.054-.144s.022-.073.034-.108q.155-.45.305-.908a18.448,18.448,0,0,0,1.955.1,11.124,11.124,0,0,0,2.2-.225A50.758,50.758,0,0,0,4817.436,2355.454Z" transform="translate(-4726.113 -2334.676)" opacity="0.3"/>
  <path id="Path_3974" data-name="Path 3974" d="M4820.736,2364.207l-.018.076c-.25,1.007-.458,2.013-.781,3.005a30.9,30.9,0,0,1-2.4,5.477,33.812,33.812,0,0,1-5.731,7.531,23.522,23.522,0,0,1-3.3,2.831s-3.337,4.1,1.934,6.619,5.782,1.331,7.2-.062a66.725,66.725,0,0,0,14.544-25.359l1.015-8.163-.257-6.686-4.139-2.68-3.843,4.541-1.7,4.015c-.114.27,1.007,1.854,1.146,2.11a6.193,6.193,0,0,1,.919,3.173,1.959,1.959,0,0,1-.826,1.463c-.533.222-1.282-.348-1.681-.645a2.955,2.955,0,0,0-.695-.438.8.8,0,0,0-.783.082,1,1,0,0,0-.289.648C4820.931,2362.591,4820.93,2363.378,4820.736,2364.207Z" transform="translate(-4726.113 -2334.676)" fill="#a8ae65"/>
  <path id="Path_3975" data-name="Path 3975" d="M4811.435,2380.661a21.862,21.862,0,0,1-2.926,2.466s-3.337,4.1,1.934,6.619,5.782,1.331,7.2-.062c.234-.23.666-.681,1.239-1.333Z" transform="translate(-4726.113 -2334.676)" fill="#71a161"/>
  <path id="Path_3976" data-name="Path 3976" d="M4823.237,2382.691a70.489,70.489,0,0,0,4.309-7.193l-8.727-5.3q-.58,1.311-1.278,2.567a33.273,33.273,0,0,1-2.908,4.355Z" transform="translate(-4726.113 -2334.676)" fill="#71a161"/>
  <path id="Path_3977" data-name="Path 3977" d="M4831.541,2365.315l-10.754-1.383c-.017.092-.029.182-.051.275l-.018.076c-.226.912-.423,1.823-.7,2.723,1.211.725,2.893,1.688,4.556,2.492a48.124,48.124,0,0,0,4.917,1.948c.843-1.905,1.64-3.939,2.355-6.1Z" transform="translate(-4726.113 -2334.676)" fill="#71a161"/>
  <path id="Path_3978" data-name="Path 3978" d="M4826.9,2365.833c.01.146.046.324.186.369.2.064.335-.2.366-.407a5.112,5.112,0,0,0-.055-1.82c-.12-.557-.721-1.17-.768-.312A20.564,20.564,0,0,0,4826.9,2365.833Z" transform="translate(-4726.113 -2334.676)" fill="#6e7428"/>
  <path id="Path_3979" data-name="Path 3979" d="M4816.935,2386.727c-1.692-1.413-6.512-3.573-7.732-4.108-.228.175-.457.348-.694.508,0,0-3.337,4.1,1.934,6.619s5.782,1.331,7.2-.062a45.475,45.475,0,0,0,5.189-6.4,70.235,70.235,0,0,0,5.14-8.6q1.354-2.682,2.473-5.472.6-1.489,1.123-3.008c.187-.539.328-1.11.544-1.637a4.574,4.574,0,0,0,.474-1.07.717.717,0,0,0-.363-.762c-.321-.137-.674.067-.989.22a5.808,5.808,0,0,1-3.749.174,29.964,29.964,0,0,0-2.949-.666c-.751-.086-1.354-.127-1.822-.825a10.475,10.475,0,0,1-.767-1.825,5.153,5.153,0,0,0-1.324-1.846,11.621,11.621,0,0,1,1.127,3.688,1.871,1.871,0,0,0,.274.919,1.741,1.741,0,0,0,1.129.509c1.129.2,2.956.17,3.547,1.38a1.326,1.326,0,0,0,.272.471.879.879,0,0,0,.367.15l2.491.6c.443.107,1.131.336,1.182.882.037.4-.464,1.048-.652,1.4-.552,1.04-1.139,2.061-1.749,3.069-1.2,1.982-2.49,3.908-3.835,5.794A115.308,115.308,0,0,1,4816.935,2386.727Z" transform="translate(-4726.113 -2334.676)" opacity="0.3"/>
  <path id="Path_3980" data-name="Path 3980" d="M4819.4,2358.731a12.771,12.771,0,0,1-1.15-12.564c3.026-7.436,7.674-9.283,9.33-10.064s5.4-.852,10.552,3.189,9.5,10.367,6.713,17.13-6.519,8.772-10.849,8.8A19.188,19.188,0,0,1,4819.4,2358.731Z" transform="translate(-4726.113 -2334.676)" fill="#a3917f"/>
  <path id="Path_3981" data-name="Path 3981" d="M4818.547,2358.11a12.772,12.772,0,0,1-1.15-12.564c3.026-7.436,7.674-9.283,9.33-10.064s5.4-.852,10.552,3.189,9.5,10.367,6.713,17.13-6.519,8.772-10.849,8.8A19.187,19.187,0,0,1,4818.547,2358.11Z" transform="translate(-4726.113 -2334.676)" fill="#d6c3ac"/>
  <path id="Path_3982" data-name="Path 3982" d="M4825.961,2356.961a3,3,0,0,0,3.583.729,4.345,4.345,0,0,0,1.656-1.917,5.284,5.284,0,0,0,.687-3.231,2.647,2.647,0,0,0-2.162-2.258,2.975,2.975,0,0,0-1.551.342C4825.934,2351.7,4824.04,2354.732,4825.961,2356.961Z" transform="translate(-4726.113 -2334.676)" fill="#c9b6a1"/>
  <path id="Path_3983" data-name="Path 3983" d="M4825.792,2356.171a3,3,0,0,0,3.583.728,4.335,4.335,0,0,0,1.656-1.917,5.294,5.294,0,0,0,.687-3.231,2.646,2.646,0,0,0-2.162-2.258,2.983,2.983,0,0,0-1.551.342C4825.765,2350.913,4823.871,2353.941,4825.792,2356.171Z" transform="translate(-4726.113 -2334.676)" fill="#a8ae65"/>
  <path id="Path_3984" data-name="Path 3984" d="M4825.792,2356.171a3,3,0,0,0,3.583.728,4.335,4.335,0,0,0,1.656-1.917,5.294,5.294,0,0,0,.687-3.231,2.646,2.646,0,0,0-2.162-2.258,2.983,2.983,0,0,0-1.551.342C4825.765,2350.913,4823.871,2353.941,4825.792,2356.171Z" transform="translate(-4726.113 -2334.676)" fill="#a8ae65"/>
  <path id="Path_3985" data-name="Path 3985" d="M4825.792,2356.171a3,3,0,0,0,3.583.728,4.335,4.335,0,0,0,1.656-1.917,5.294,5.294,0,0,0,.687-3.231,2.646,2.646,0,0,0-2.162-2.258,2.983,2.983,0,0,0-1.551.342C4825.765,2350.913,4823.871,2353.941,4825.792,2356.171Z" transform="translate(-4726.113 -2334.676)" fill="#a8ae65"/>
  <path id="Path_3986" data-name="Path 3986" d="M4825.792,2356.171a3,3,0,0,0,3.583.728,4.335,4.335,0,0,0,1.656-1.917,5.294,5.294,0,0,0,.687-3.231,2.646,2.646,0,0,0-2.162-2.258,2.983,2.983,0,0,0-1.551.342C4825.765,2350.913,4823.871,2353.941,4825.792,2356.171Z" transform="translate(-4726.113 -2334.676)" opacity="0.1"/>
  <path id="Path_3987" data-name="Path 3987" d="M4829.375,2356.9a4.335,4.335,0,0,0,1.656-1.917,5.839,5.839,0,0,0,.731-2.65,2.781,2.781,0,0,0-3.948-1.9,5.085,5.085,0,0,0-2.614,2.5,3.188,3.188,0,0,0,.592,3.232A3,3,0,0,0,4829.375,2356.9Z" transform="translate(-4726.113 -2334.676)" fill="#a8ae65"/>
  <path id="Path_3988" data-name="Path 3988" d="M4829.159,2356.991c-.794-.416-1.59-.826-2.4-1.212-.52-.249-1.063-.529-1.619-.778a3.226,3.226,0,0,0,.65,1.17A3.023,3.023,0,0,0,4829.159,2356.991Z" transform="translate(-4726.113 -2334.676)" fill="#71a161"/>
  <path id="Path_3989" data-name="Path 3989" d="M4819.057,2352.518a2.707,2.707,0,0,0,.911,1.277,3.2,3.2,0,0,0,2.022.42,2.573,2.573,0,0,0,.97-.193,2.931,2.931,0,0,0,.906-.793,3.73,3.73,0,0,0,1.137-2.118,3.315,3.315,0,0,0-.691-1.9,5.509,5.509,0,0,0-1.141-1.343,2.434,2.434,0,0,0-1.633-.575C4819.042,2347.448,4818.32,2350.593,4819.057,2352.518Z" transform="translate(-4726.113 -2334.676)" fill="#c9b6a1"/>
  <path id="Path_3990" data-name="Path 3990" d="M4825.434,2343.97a3.821,3.821,0,0,0,2.5,1.532,2.318,2.318,0,0,0,1.9-.306,2.257,2.257,0,0,0,.705-1.49,2.94,2.94,0,0,0-.039-1.126,3.216,3.216,0,0,0-.9-1.417,3.558,3.558,0,0,0-2.054-1.124C4825.521,2339.817,4824.413,2342.418,4825.434,2343.97Z" transform="translate(-4726.113 -2334.676)" fill="#c9b6a1"/>
  <path id="Path_3991" data-name="Path 3991" d="M4833.923,2345.862a2.494,2.494,0,0,0,1.128,1.562,3.029,3.029,0,0,0,1.9.411,2.069,2.069,0,0,0,1.387-.65,1.728,1.728,0,0,0,.372-1.205,2.514,2.514,0,0,0-.424-1.205,3.3,3.3,0,0,0-1.608-1.287,2.385,2.385,0,0,0-1.222-.141A2.128,2.128,0,0,0,4833.923,2345.862Z" transform="translate(-4726.113 -2334.676)" fill="#c9b6a1"/>
  <path id="Path_3992" data-name="Path 3992" d="M4836.92,2358.243a3.412,3.412,0,0,0,1.666,1.411,1.313,1.313,0,0,0,.863.066,1.123,1.123,0,0,0,.4-.248,1.646,1.646,0,0,0,.323-.414,2.824,2.824,0,0,0,.237-.647,10.2,10.2,0,0,0,.333-2.994,2.079,2.079,0,0,0-.095-.628,1.691,1.691,0,0,0-.283-.477,2.771,2.771,0,0,0-2.283-1.093,2.042,2.042,0,0,0-1.867,1.576,3.488,3.488,0,0,0-.036.575A5.257,5.257,0,0,0,4836.92,2358.243Z" transform="translate(-4726.113 -2334.676)" fill="#c9b6a1"/>
  <path id="Path_3993" data-name="Path 3993" d="M4818.888,2351.727a2.712,2.712,0,0,0,.91,1.278,3.217,3.217,0,0,0,2.023.42,2.556,2.556,0,0,0,.97-.194,2.92,2.92,0,0,0,.906-.792,3.727,3.727,0,0,0,1.137-2.119,3.315,3.315,0,0,0-.691-1.9,5.546,5.546,0,0,0-1.141-1.343,2.441,2.441,0,0,0-1.633-.575C4818.873,2346.658,4818.151,2349.8,4818.888,2351.727Z" transform="translate(-4726.113 -2334.676)" fill="#6088b9"/>
  <path id="Path_3994" data-name="Path 3994" d="M4819.67,2349.128a.385.385,0,0,1-.252-.526.815.815,0,0,1,.509-.412.6.6,0,0,1,.648.075.473.473,0,0,1-.124.645,1.365,1.365,0,0,1-.691.219C4819.673,2349.14,4819.758,2349.139,4819.67,2349.128Z" transform="translate(-4726.113 -2334.676)" fill="#b6c8de"/>
  <path id="Path_3995" data-name="Path 3995" d="M4821.357,2349.582c.159.1.363.133.492.269a1.5,1.5,0,0,1,.219.518.721.721,0,0,0,.435.437.493.493,0,0,0,.561-.191.7.7,0,0,0,.08-.3,1.468,1.468,0,0,0-.013-.39,1.739,1.739,0,0,0-.152-.426,1.949,1.949,0,0,0-.772-.927.918.918,0,0,0-1.029.075A.656.656,0,0,0,4821.357,2349.582Z" transform="translate(-4726.113 -2334.676)" fill="#b6c8de"/>
  <path id="Path_3996" data-name="Path 3996" d="M4822.4,2348.153a3.433,3.433,0,0,1,1.4,1.3,4.005,4.005,0,0,0-.817-1.5,2.171,2.171,0,0,0-1.506-.739,1.5,1.5,0,0,0-1.4.826c.046-.1.379-.216.486-.238a2.195,2.195,0,0,1,.612,0A3.426,3.426,0,0,1,4822.4,2348.153Z" transform="translate(-4726.113 -2334.676)" fill="#29aae1"/>
  <path id="Path_3997" data-name="Path 3997" d="M4825.264,2343.179a3.825,3.825,0,0,0,2.506,1.532,2.311,2.311,0,0,0,1.9-.306,2.259,2.259,0,0,0,.705-1.49,2.941,2.941,0,0,0-.039-1.126,3.213,3.213,0,0,0-.9-1.416,3.554,3.554,0,0,0-2.054-1.125C4825.351,2339.026,4824.244,2341.628,4825.264,2343.179Z" transform="translate(-4726.113 -2334.676)" fill="#83944b"/>
  <path id="Path_3998" data-name="Path 3998" d="M4826.308,2341.541c.225-.148.249-.505.489-.628a.691.691,0,0,1,.3-.052c.152-.005.3-.012.455-.022a.574.574,0,0,0,.4-.138.394.394,0,0,0,.023-.435,1.152,1.152,0,0,0-.314-.335,1.274,1.274,0,0,0-.65-.346,1.932,1.932,0,0,0-1.4.936C4825.431,2340.913,4825.732,2341.919,4826.308,2341.541Z" transform="translate(-4726.113 -2334.676)" fill="#c5cdae"/>
  <path id="Path_3999" data-name="Path 3999" d="M4829.132,2340.765c-.278-.474-1.094.07-.809.489a.474.474,0,0,0,.809-.489Z" transform="translate(-4726.113 -2334.676)" fill="#c5cdae"/>
  <path id="Path_4000" data-name="Path 4000" d="M4833.754,2345.071a2.492,2.492,0,0,0,1.128,1.562,3.028,3.028,0,0,0,1.9.412,2.072,2.072,0,0,0,1.387-.65,1.731,1.731,0,0,0,.372-1.206,2.528,2.528,0,0,0-.424-1.205,3.293,3.293,0,0,0-1.608-1.286,2.378,2.378,0,0,0-1.222-.142A2.127,2.127,0,0,0,4833.754,2345.071Z" transform="translate(-4726.113 -2334.676)" fill="#eadd54"/>
  <path id="Path_4001" data-name="Path 4001" d="M4834.837,2344.908a.516.516,0,0,0,.45-.118c.121-.11.189-.276.328-.361.257-.158.648.026.867-.182a.414.414,0,0,0,.022-.519.911.911,0,0,0-.461-.312,1.678,1.678,0,0,0-.4-.1,1.175,1.175,0,0,0-.941.316C4834.37,2343.967,4834.228,2344.771,4834.837,2344.908Z" transform="translate(-4726.113 -2334.676)" fill="#f5efac"/>
  <path id="Path_4002" data-name="Path 4002" d="M4837.3,2345.324a.423.423,0,0,0,.336-.108.473.473,0,0,0,.182-.324.555.555,0,0,0-.064-.264c-.127-.269-.627-.625-.794-.191C4836.864,2344.693,4836.994,2345.266,4837.3,2345.324Z" transform="translate(-4726.113 -2334.676)" fill="#f5efac"/>
  <path id="Path_4003" data-name="Path 4003" d="M4836.751,2357.452a3.414,3.414,0,0,0,1.666,1.412,1.312,1.312,0,0,0,.863.066,1.129,1.129,0,0,0,.4-.248,1.654,1.654,0,0,0,.324-.414,2.834,2.834,0,0,0,.237-.648,10.194,10.194,0,0,0,.333-2.993,2.081,2.081,0,0,0-.095-.629,1.7,1.7,0,0,0-.283-.476,2.769,2.769,0,0,0-2.283-1.094,2.043,2.043,0,0,0-1.867,1.576,3.548,3.548,0,0,0-.037.576A5.26,5.26,0,0,0,4836.751,2357.452Z" transform="translate(-4726.113 -2334.676)" fill="#c45e58"/>
  <path id="Path_4004" data-name="Path 4004" d="M4839.261,2357.192a.539.539,0,0,0,.142.351.378.378,0,0,0,.517-.042.494.494,0,0,0,.053-.541.214.214,0,0,0-.06-.079.255.255,0,0,0-.125-.04c-.075-.01-.15-.017-.226-.02a.339.339,0,0,0-.155.02c-.112.053-.137.2-.148.322" transform="translate(-4726.113 -2334.676)" fill="#e1b4b3"/>
  <path id="Path_4005" data-name="Path 4005" d="M4839.378,2356.078c-.073-.212-.079-.443-.152-.655a1.276,1.276,0,0,0-.457-.6c-.159-.118-.352-.216-.431-.4a.492.492,0,0,1,.17-.564.7.7,0,0,1,.6-.094,1.266,1.266,0,0,1,.534.329,2.21,2.21,0,0,1,.627,1.961C4840.165,2356.642,4839.558,2356.6,4839.378,2356.078Z" transform="translate(-4726.113 -2334.676)" fill="#e1b4b3"/>
  <path id="Path_4006" data-name="Path 4006" d="M4838.144,2353.391c.359-.007.715.06,1.073.084a1.781,1.781,0,0,0-.734-.48,1.182,1.182,0,0,0-.864.041,1.446,1.446,0,0,0-.632.864,2.464,2.464,0,0,1,.648-.433A1.865,1.865,0,0,1,4838.144,2353.391Z" transform="translate(-4726.113 -2334.676)" fill="red"/>
  <path id="Path_4007" data-name="Path 4007" d="M4819.9,2363.295a15.011,15.011,0,0,1-1.283-1.69,3.879,3.879,0,0,1-.436-2.489,2.413,2.413,0,0,1,.525-1.215,1.388,1.388,0,0,1,1.19-.491,2.007,2.007,0,0,1,1.265.991,16.475,16.475,0,0,1,1.821,4.217.978.978,0,0,1,0,.879c-.253.335-.771.207-1.186.271-.6.091-.667.691-1.126.889C4820.375,2364.248,4820.219,2363.719,4819.9,2363.295Z" transform="translate(-4726.113 -2334.676)" fill="#a8ae65"/>
  <path id="Path_4008" data-name="Path 4008" d="M4745.467,2384.391c-1.993-2.993-3.814-9.535-7.938-10.624s-8.4-.461-8.134,1.83.949,2.793.949,2.793a2.364,2.364,0,0,0-.435,3.019,3.041,3.041,0,0,0,2.086,4.884,4.942,4.942,0,0,1,1.035.122c.834.271,1.2,1.217,1.525,2.03a17.567,17.567,0,0,0,3.348,5.162,51.686,51.686,0,0,0,4.216,4.494c3.375,2.929,7.863,5.413,12.379,5.737a4.81,4.81,0,0,0,2.941-.583,4.44,4.44,0,0,0,1.795-2.922,13.956,13.956,0,0,0-.075-4.466,5.038,5.038,0,0,0-.4-1.663c-.509-1.012-2.1-1.58-3.066-2.16q-1.871-1.126-3.7-2.323C4749.78,2388.262,4746.97,2386.648,4745.467,2384.391Z" transform="translate(-4726.113 -2334.676)" fill="#a8ae65"/>
  <path id="Path_4009" data-name="Path 4009" d="M4745.467,2384.391a28.327,28.327,0,0,1-1.637-3.047,38.533,38.533,0,0,0-8.791,8.159,18.416,18.416,0,0,0,2.864,4.1c.1.115.206.233.309.349l0,0,7.648-9.043C4745.727,2384.739,4745.587,2384.57,4745.467,2384.391Z" transform="translate(-4726.113 -2334.676)" fill="#71a161"/>
  <path id="Path_4010" data-name="Path 4010" d="M4740.519,2396.531a21.7,21.7,0,0,0,1.6,1.57c.561.487,1.156.96,1.774,1.415.958-.881,5.535-5.22,7.909-9.919a38.96,38.96,0,0,1-4.552-3.234A65.221,65.221,0,0,1,4740.519,2396.531Z" transform="translate(-4726.113 -2334.676)" fill="#71a161"/>
  <path id="Path_4011" data-name="Path 4011" d="M4756,2392.221c-3.18,2.165-7.354,7.037-9.133,9.2a20.616,20.616,0,0,0,5.417,2.089,74.073,74.073,0,0,0,6.25-9.633A8.4,8.4,0,0,0,4756,2392.221Z" transform="translate(-4726.113 -2334.676)" fill="#71a161"/>
  <path id="Path_4012" data-name="Path 4012" d="M4737.9,2393.607a51.827,51.827,0,0,0,4.216,4.494c3.375,2.929,7.863,5.413,12.379,5.737a4.81,4.81,0,0,0,2.941-.583,3.535,3.535,0,0,0,.991-.974q-.85-.328-1.7-.651c-.345-.132-1.053-.14-1.273-.431a1.313,1.313,0,0,1-.2-.743,9.758,9.758,0,0,1,.186-2.185,19.32,19.32,0,0,1,1.524-4.771,6.712,6.712,0,0,0-3.659,2.523,13.367,13.367,0,0,1-1.549,1.981c-1.927,1.822-4.349.169-6.331-.788a35.778,35.778,0,0,1-5.154-3.013,23.74,23.74,0,0,1-4.5-4.048,7.192,7.192,0,0,1-1.219-1.71A17.567,17.567,0,0,0,4737.9,2393.607Z" transform="translate(-4726.113 -2334.676)" opacity="0.3"/>
  <path id="Path_4013" data-name="Path 4013" d="M4734.537,2386.812a8.589,8.589,0,0,0,2.628,4.206c.115.1.289.2.4.1a.332.332,0,0,0,.063-.3,14.462,14.462,0,0,0-1.986-5.724c-.283-.466-1.13-.941-1.543-.291C4733.831,2385.232,4734.41,2386.341,4734.537,2386.812Z" transform="translate(-4726.113 -2334.676)" opacity="0.3"/>
  <path id="Path_4014" data-name="Path 4014" d="M4737.8,2381.229s1.56,6.53,1.816,7.69.966,3.663-.089,4.284-3.625-5.3-3.625-5.3l-1.028-3.419a2.905,2.905,0,0,0-.469-2.236c-.75-.844.578-1.073.583-2.051a2.332,2.332,0,0,0-.456-1.5l.963-1.328s-.376-1.7-.747-1.676a32.818,32.818,0,0,1-3.55-1.285l-1.027-2.737,4.126-2.3,1.121,3.414,1.2,3.938a10.025,10.025,0,0,0-1.333,1.6c-.235.5-.756,2.349.515,2.694S4737.657,2380.613,4737.8,2381.229Z" transform="translate(-4726.113 -2334.676)" fill="#d6c3ac"/>
  <path id="Path_4015" data-name="Path 4015" d="M4739.531,2393.2c1.055-.621.345-3.124.089-4.284-.02-.092-.049-.22-.084-.372a11.135,11.135,0,0,0-2.9.921C4737.479,2391.173,4738.835,2393.612,4739.531,2393.2Z" transform="translate(-4726.113 -2334.676)" fill="#f0df55"/>
  <path id="Path_4016" data-name="Path 4016" d="M4732.614,2374.975c-.608-2.1-.994-3.517-.994-3.517a4.347,4.347,0,0,0-.253-.446l-1.192.663,1.027,2.737S4731.862,2374.683,4732.614,2374.975Z" transform="translate(-4726.113 -2334.676)"/>
  <path id="Path_4017" data-name="Path 4017" d="M4739.531,2393.2h0c-1.245-.78-3.324-6.594-5.039-12.015-.279.319-.5.6-.083,1.062a2.9,2.9,0,0,1,.469,2.235l1.028,3.42S4738.476,2393.823,4739.531,2393.2Z" transform="translate(-4726.113 -2334.676)"/>
  <path id="Path_4018" data-name="Path 4018" d="M4733.088,2371.877a3.556,3.556,0,0,0,2.921-3.218c.285-1.942.263-4.482-1.5-5.739-.664-.473-1.472-.717-2.126-1.2a1.821,1.821,0,0,1-.777-2.113c.124-.249.34-.471.346-.749a.183.183,0,0,0-.032-.121.21.21,0,0,0-.153-.056c-1.19-.069-2.612,1.382-3.307,2.261a10.266,10.266,0,0,0-2.01,5.453C4725.9,2372.3,4730.58,2372.46,4733.088,2371.877Z" transform="translate(-4726.113 -2334.676)" fill="#1a2a14"/>
  <path id="Path_4019" data-name="Path 4019" d="M4734.508,2362.92c-.664-.473-1.472-.717-2.126-1.2a1.821,1.821,0,0,1-.777-2.113c.124-.249.34-.471.346-.749a.178.178,0,0,0-.032-.121.21.21,0,0,0-.153-.056c-1.19-.069-2.612,1.382-3.307,2.261A10.078,10.078,0,0,0,4726.5,2366a2.912,2.912,0,0,0,.343.11,4.086,4.086,0,0,0,1.059.088,3.856,3.856,0,0,0,1.478-.258,1.681,1.681,0,0,0,.99-1.069,2.645,2.645,0,0,0,.747,1.957c1.559,1.431,3.259-.9,2.833-2.435a1.057,1.057,0,0,0,1.286-.109,1.428,1.428,0,0,0,.249-.285A3.4,3.4,0,0,0,4734.508,2362.92Z" transform="translate(-4726.113 -2334.676)" fill="#c45e58"/>
  <path id="Path_4020" data-name="Path 4020" d="M4727.107,2368.117a2.075,2.075,0,0,0,.064.564,1.441,1.441,0,0,0,.812,1.117,1.011,1.011,0,0,0,1.039-.325,1.47,1.47,0,0,0,.317-1.077,1.662,1.662,0,0,0-.082-.408C4728.852,2366.8,4727.179,2366.657,4727.107,2368.117Z" transform="translate(-4726.113 -2334.676)" fill="#c45e58"/>
  <path id="Path_4021" data-name="Path 4021" d="M4734.56,2367.065a1.116,1.116,0,0,0-.36.871,12.059,12.059,0,0,1-1.113,3.9,16.661,16.661,0,0,0-.21-3c-.035-.219-.19-.5-.392-.414l-.063,3.586c.234-.035.458-.078.666-.126a4.612,4.612,0,0,0,.832-.285,13.052,13.052,0,0,0,.754-4.154A.453.453,0,0,0,4734.56,2367.065Z" transform="translate(-4726.113 -2334.676)" fill="#434f3e"/>
  <path id="Path_4022" data-name="Path 4022" d="M4730.227,2369.293c-.052-.09-.124-.193-.229-.191-.176,0-.193.262-.143.431a6.734,6.734,0,0,0,1.16,2.264,3.315,3.315,0,0,0,.279.3c.256-.005.509-.021.752-.047A30.918,30.918,0,0,1,4730.227,2369.293Z" transform="translate(-4726.113 -2334.676)" fill="#434f3e"/>
  <path id="Path_4023" data-name="Path 4023" d="M4735.762,2377.131a1.692,1.692,0,0,0-.667-1.145,6.709,6.709,0,0,0-3.507-1.654.409.409,0,0,0-.386.08.288.288,0,0,0,.078.386.911.911,0,0,0,.409.146,7.775,7.775,0,0,1,1.951.65,3.029,3.029,0,0,1,1.11.825,1.379,1.379,0,0,1,.246,1.311c-.279.7-1.182.9-1.938.87a6.993,6.993,0,0,1-3.515-1.118l.592.766-.181.414c1.35.744,3.008.491,4.526.218-.271.542.331,1.175.2,1.766-.123.532-.759.748-1.3.808a7.178,7.178,0,0,1-3.785-.622.648.648,0,0,1,.131.9,14.248,14.248,0,0,0,2.706.476,7.682,7.682,0,0,1,1.205.083,1.514,1.514,0,0,1,1,.617.856.856,0,0,1-.13,1.1,1.364,1.364,0,0,1-.83.2l-1.533.033a.852.852,0,0,0-.466.1.292.292,0,0,0-.087.416.425.425,0,0,0,.306.09l1.418.04a2.283,2.283,0,0,0,2.081-.889,1.267,1.267,0,0,0,.187-.4,1.09,1.09,0,0,0-.155-1.048,2.391,2.391,0,0,0-.76-.407.494.494,0,0,1-.2-.149c-.1-.149.031-.344.118-.47l.548-.793a2.186,2.186,0,0,0,1.657.661,4.814,4.814,0,0,0,1.776-.431,4.212,4.212,0,0,0,.942,2.037.9.9,0,0,0,.444.327.359.359,0,0,0,.441-.237c.043-.242-.231-.4-.438-.533a1.722,1.722,0,0,1-.768-1.58c.021-.217.074-.466-.07-.628-.2-.217-.547-.085-.811.039a3.037,3.037,0,0,1-2.025.3,1.362,1.362,0,0,1-.941-.776,1.853,1.853,0,0,1-.1-.731,2.228,2.228,0,0,1,.175-.839,2.613,2.613,0,0,1,1.323-1.113,4.146,4.146,0,0,1,1.615-.537c.258-.014.957-.066.746-.523-.142-.308-.773-.2-1.029-.163A3.956,3.956,0,0,0,4735.762,2377.131Z" transform="translate(-4726.113 -2334.676)" fill="#6e7428"/>
  <path id="Path_4024" data-name="Path 4024" d="M4814.582,2433.967s.945,2.173,7.607,1.817,9.01-5.057,8.1-8.149-5.57-5.227-10.406.817S4814.582,2433.967,4814.582,2433.967Z" transform="translate(-4726.113 -2334.676)" fill="#1d2f16"/>
  <path id="Path_4025" data-name="Path 4025" d="M4807.079,2414.348s3.442.548,3.919,4.953,2.166,12.606,3.584,14.666,5.665-3.013,5.283-5.984-1.648-10.327-3.382-14.108-6.592-4.715-6.592-4.715S4804.82,2412.174,4807.079,2414.348Z" transform="translate(-4726.113 -2334.676)" fill="#71a161"/>
  <path id="Path_4026" data-name="Path 4026" d="M4819.814,2427.6l-6,4.745a7.843,7.843,0,0,0,.772,1.621c1.418,2.059,5.664-3.013,5.282-5.984C4819.85,2427.866,4819.832,2427.731,4819.814,2427.6Z" transform="translate(-4726.113 -2334.676)" fill="#a8ae65"/>
  <path id="Path_4027" data-name="Path 4027" d="M4818.994,2422.75c-.282-1.429-.617-2.941-1-4.381a11.957,11.957,0,0,0-6.639,3.568c.277,1.757.653,3.725,1.079,5.572A39.173,39.173,0,0,1,4818.994,2422.75Z" transform="translate(-4726.113 -2334.676)" fill="#a8ae65"/>
  <path id="Path_4028" data-name="Path 4028" d="M4809.891,2409.16s-5.071,3.014-2.812,5.188a4.85,4.85,0,0,1,3.354,2.808,14.262,14.262,0,0,1,5.441-4.319C4813.824,2409.925,4809.891,2409.16,4809.891,2409.16Z" transform="translate(-4726.113 -2334.676)" fill="#a8ae65"/>
  <path id="Path_4029" data-name="Path 4029" d="M4815.424,2431.072c-.038-.864-3.116-15.924-4.169-17.725s1.821-2.955,1.821-2.955l.006-.005a11.823,11.823,0,0,0-3.191-1.227s-5.071,3.014-2.812,5.188c0,0,3.442.548,3.919,4.953s2.166,12.606,3.585,14.666c.432.628,1.128.59,1.876.153A14.691,14.691,0,0,1,4815.424,2431.072Z" transform="translate(-4726.113 -2334.676)" opacity="0.3"/>
  <path id="Path_4030" data-name="Path 4030" d="M4755.276,2435.843a16.612,16.612,0,0,1,1.134-3.651c2.99-6.51,11-11.742,11-11.742s6.463,1.761,4.829,5.3c0,0-7.842,3.536-10.275,10.988-.351,1.075-.64,2.059-.877,2.956Z" transform="translate(-4726.113 -2334.676)" fill="#a8ae65"/>
  <path id="Path_4031" data-name="Path 4031" d="M4767.414,2420.45a41.7,41.7,0,0,0-4.823,3.831,4.229,4.229,0,0,1,.5.224,11.473,11.473,0,0,1,1.94,1.351,19.069,19.069,0,0,1,2.649,2.865,22.354,22.354,0,0,1,4.56-2.974C4773.877,2422.211,4767.414,2420.45,4767.414,2420.45Z" transform="translate(-4726.113 -2334.676)" fill="#71a161"/>
  <path id="Path_4032" data-name="Path 4032" d="M4761.467,2428.922a14.917,14.917,0,0,1-1.877-1.545,21.32,21.32,0,0,0-3.18,4.815c-.13.282-.247.577-.359.877.056.063.112.126.172.185a6.9,6.9,0,0,0,3.8,1.761,14.644,14.644,0,0,0,2.565.143,17.042,17.042,0,0,1,2.694-4.1A25.738,25.738,0,0,1,4761.467,2428.922Z" transform="translate(-4726.113 -2334.676)" fill="#71a161"/>
  <path id="Path_4033" data-name="Path 4033" d="M4761.968,2436.735c2.433-7.452,10.275-10.988,10.275-10.988,1.634-3.536-4.829-5.3-4.829-5.3a38.867,38.867,0,0,0-3.192,2.408c2.2.4,3.529,2.022,2.422,4.743a15.135,15.135,0,0,1-1.954,3.094,25.594,25.594,0,0,0-2.247,3.666c-.6,1.212-1.374,2.594-.97,3.971C4761.377,2438,4761.863,2437.055,4761.968,2436.735Z" transform="translate(-4726.113 -2334.676)" opacity="0.3"/>
  <path id="Path_4034" data-name="Path 4034" d="M4762.3,2369.833c-.412-2.043,1.164-3.914,2.71-5.311a47.816,47.816,0,0,1,10.9-7.4c2.058-1.016,4.194-1.886,6.153-3.08,1.728-1.054,3.3-2.351,5.051-3.37a9.736,9.736,0,0,1,5.764-1.56,13.031,13.031,0,0,1,2.966.786l2.686.943a11.463,11.463,0,0,1,3.1,1.448,3.877,3.877,0,0,1,1.69,2.854,4.4,4.4,0,0,1-.887,2.547c-2.139,3.167-5.961,4.664-9.548,5.983l-14.4,5.292c-2.449.9-4.9,1.8-7.423,2.48a35.237,35.237,0,0,1-3.839.825,5.313,5.313,0,0,1-2.627.038A3.418,3.418,0,0,1,4762.3,2369.833Z" transform="translate(-4726.113 -2334.676)" fill="#1e3017"/>
  <path id="Path_4035" data-name="Path 4035" d="M4770.833,2344.912a1.463,1.463,0,0,1-.649-.805,1.419,1.419,0,0,1,.46-1.122,11.581,11.581,0,0,1,4.9-3.372,2.643,2.643,0,0,1,1.684-.165,2.916,2.916,0,0,1,.918.588q2.886,2.42,5.56,5.079a1.677,1.677,0,0,1,.553.839,1.144,1.144,0,0,1-.5,1.064,3.365,3.365,0,0,1-1.138.472c-2.01.556-4.043,1.638-6.014.738A31.226,31.226,0,0,1,4770.833,2344.912Z" transform="translate(-4726.113 -2334.676)" fill="#223219"/>
  <path id="Path_4036" data-name="Path 4036" d="M4778.144,2340.036a2.9,2.9,0,0,0-.918-.587,2.637,2.637,0,0,0-1.684.164,11.536,11.536,0,0,0-2.582,1.311c.193.054.363.1.486.149a35.721,35.721,0,0,1,8.789,5.376,6.4,6.4,0,0,0,1.192.76,1.974,1.974,0,0,0,.327-.191,1.144,1.144,0,0,0,.5-1.064,1.677,1.677,0,0,0-.553-.839Q4781.034,2342.458,4778.144,2340.036Z" transform="translate(-4726.113 -2334.676)" fill="#172914"/>
  <path id="Path_4037" data-name="Path 4037" d="M4804.62,2353.41a4.52,4.52,0,0,0,1.684-.376,2.842,2.842,0,0,0,1.354-2.774,5.294,5.294,0,0,0-1.394-2.9c-1.857-2.146-4.557-3.343-7.188-4.405a12.276,12.276,0,0,0-2.306-.752,12.764,12.764,0,0,0-3.106-.071,14.516,14.516,0,0,0-4.588.771c-1.667.667-3.325,1.355-4.987,2.033l-9.972,4.065c-1.454.593-2.908,1.186-4.32,1.87a36.779,36.779,0,0,0-10.308,7.445c-1.959,2.017-3.788,4.609-3.4,7.394a3.466,3.466,0,0,0,1.384,2.457,4.035,4.035,0,0,0,2.686.445,13.8,13.8,0,0,0,6.985-3.3c1.024-.84,1.977-1.766,3-2.6a45.66,45.66,0,0,1,6.58-4.214,22.923,22.923,0,0,1,2.6-1.319,21.054,21.054,0,0,1,5.682-1.16c1.637-.183,3.167-.078,4.822-.156a45.469,45.469,0,0,0,7.8-1.575A53.255,53.255,0,0,1,4804.62,2353.41Z" transform="translate(-4726.113 -2334.676)" fill="#223219"/>
  <path id="Path_4038" data-name="Path 4038" d="M4806.322,2347.428a2.749,2.749,0,0,0,.268.608c.547.937,1.178,2.216.4,2.973-.68.662-1.792.249-2.687-.064-4.2-1.471-8.813.256-13.253-.022a26.516,26.516,0,0,0-3.412-.2,12.21,12.21,0,0,0-4.128,1.228c-8.3,3.736-15.665,9.871-24.6,11.59a2.306,2.306,0,0,1-1.48-.058,1.2,1.2,0,0,1-.771-1.241,6.3,6.3,0,0,0-.569,3.464,3.466,3.466,0,0,0,1.384,2.457,4.035,4.035,0,0,0,2.686.445,13.8,13.8,0,0,0,6.985-3.3c1.024-.84,1.977-1.766,3-2.6a45.66,45.66,0,0,1,6.58-4.214,22.923,22.923,0,0,1,2.6-1.319,21.054,21.054,0,0,1,5.682-1.16c1.637-.183,3.167-.078,4.822-.156a45.469,45.469,0,0,0,7.8-1.575,53.255,53.255,0,0,1,6.989-.867,4.52,4.52,0,0,0,1.684-.376,2.843,2.843,0,0,0,1.354-2.773A5.229,5.229,0,0,0,4806.322,2347.428Z" transform="translate(-4726.113 -2334.676)" fill="#172914"/>
  <path id="Path_4039" data-name="Path 4039" d="M4773.375,2365.011s-18.627,10.2-20.018,32.936,22.617,32.2,32.5,29.721,34.457-14.6,31.233-42.764S4794.3,2351.5,4773.375,2365.011Z" transform="translate(-4726.113 -2334.676)" fill="#6e9d5c"/>
  <path id="Path_4040" data-name="Path 4040" d="M4782.309,2410.093s-2.448-7.909-5.712-19.925c-3.238-11.919-1.949-25.735-1.927-25.959-.431.264-.862.522-1.295.8a29.035,29.035,0,0,0-3.013,2.011l.838,5.02s2.7,17.229,3.278,22.417,2.835,18.267,3.506,24.285a57.839,57.839,0,0,1,.285,8.917,19.247,19.247,0,0,0,7.212.093C4784.6,2421.519,4782.309,2410.093,4782.309,2410.093Z" transform="translate(-4726.113 -2334.676)" fill="#a0a95f"/>
  <path id="Path_4041" data-name="Path 4041" d="M4766.215,2370.55q-.547.525-1.107,1.1l.722,12.05.611,14.97s-1,9.62-.851,15.321a61.458,61.458,0,0,0,1.071,9.114A33.974,33.974,0,0,0,4770.1,2425a47.785,47.785,0,0,1,.941-7.125c.924-3.973-.182-10.88-1.01-19.4s-2.263-16.339-3.251-21.84A39.453,39.453,0,0,1,4766.215,2370.55Z" transform="translate(-4726.113 -2334.676)" fill="#a0a95f"/>
  <path id="Path_4042" data-name="Path 4042" d="M4763.177,2399.785c-.181-5.239-1.649-19.589-2.132-23.3a41.516,41.516,0,0,0-3.326,5.415c.727,4.552,1.743,11.328,2.275,14.738.822,5.27-1.162,14.021-1.162,14.021s-.491,2.22-.892,4.262a28.554,28.554,0,0,0,5.028,5.492C4763.057,2416.947,4763.35,2404.824,4763.177,2399.785Z" transform="translate(-4726.113 -2334.676)" fill="#a0a95f"/>
  <path id="Path_4043" data-name="Path 4043" d="M4754.83,2389.261a41.023,41.023,0,0,0-1.473,8.686,27.536,27.536,0,0,0,1.167,10.032,75.962,75.962,0,0,0,1.028-11A53.846,53.846,0,0,0,4754.83,2389.261Z" transform="translate(-4726.113 -2334.676)" fill="#a0a95f"/>
  <path id="Path_4044" data-name="Path 4044" d="M4813.306,2387.512c-3.451-2.891-8.85-12.52-10.43-15.893-1.1-2.348-4.854-9.513-7.033-13.65a24.911,24.911,0,0,0-4.257.053c.987,2.046,2.269,4.506,2.269,4.506s5.514,13.794,5.743,14.291,3.538,5.551,5.182,7.8,7.869,9.809,8.77,10.807c.48.531,1.7,2.169,2.726,3.585a36.911,36.911,0,0,0,1.089-8C4816.29,2390.064,4814.879,2388.83,4813.306,2387.512Z" transform="translate(-4726.113 -2334.676)" fill="#a0a95f"/>
  <path id="Path_4045" data-name="Path 4045" d="M4803.784,2360.227a36.653,36.653,0,0,0,5.577,10.83c3.355,4.534,5.664,7.412,6.968,8.984C4814.28,2369.927,4809.781,2363.417,4803.784,2360.227Z" transform="translate(-4726.113 -2334.676)" fill="#a0a95f"/>
  <path id="Path_4046" data-name="Path 4046" d="M4813.866,2405.627c-.01-.026-.906-2.475-4.686-7.714-3.8-5.268-9.048-11.734-9.048-11.734s-6-6.394-8.033-11.645c-1.387-3.585-4.131-10.9-5.78-15.529a39.091,39.091,0,0,0-4.468,1.534c1.306,2.716,3.071,6.435,3.328,7.222.415,1.271,4.995,12.09,5.495,14.176s5.57,10.8,5.57,10.8,5.226,13.974,6.256,15.051c.776.811,4.06,4.52,5.636,6.3A36.6,36.6,0,0,0,4813.866,2405.627Z" transform="translate(-4726.113 -2334.676)" fill="#a0a95f"/>
  <path id="Path_4047" data-name="Path 4047" d="M4795.375,2415.346s-6.341-14.479-6.545-14.871-5.861-12.939-7.028-18.727-4.4-15.276-4.4-15.276l4.01,19.782s3.366,12.985,6.35,26.392a75.146,75.146,0,0,0,3.824,13.051,50.336,50.336,0,0,0,7.025-3.672Z" transform="translate(-4726.113 -2334.676)" fill="#a0a95f"/>
  <path id="Path_4048" data-name="Path 4048" d="M4805.466,2370.2q1.505,2.187,2.824,4.492c.4.688.886,1.462,1.672,1.567a1.61,1.61,0,0,0,1.431-.661,3.071,3.071,0,0,0,.553-1.534c.335-2.8-1.389-5.423-3.3-7.5a23.85,23.85,0,0,0-4.749-4.056c-1.164-.736-2.752-1.321-3.838-.473-1.628,1.272-.385,3.308,1.027,4.014A11.616,11.616,0,0,1,4805.466,2370.2Z" transform="translate(-4726.113 -2334.676)" fill="#fff" opacity="0.5"/>
  <path id="Path_4049" data-name="Path 4049" d="M4808.943,2380.494a6.668,6.668,0,0,0-.1,2.244,2.443,2.443,0,0,0,.544,1.562,1.928,1.928,0,0,0,2.39-.063,5.147,5.147,0,0,0,1.827-2.974,4.216,4.216,0,0,0,.124-2.028,2,2,0,0,0-1.269-1.493C4810.968,2377.286,4809.276,2379.2,4808.943,2380.494Z" transform="translate(-4726.113 -2334.676)" fill="#fff" opacity="0.5"/>
  <path id="Path_4050" data-name="Path 4050" d="M4768.7,2378.335a5.235,5.235,0,0,0,1.364,2.75,3.8,3.8,0,0,0,2.795,1.166c.326-.012.648-.073.973-.109a5.122,5.122,0,0,0,1.121-.172,3.665,3.665,0,0,0,1.412-1.1,13.566,13.566,0,0,0,.943-1.1,5.9,5.9,0,0,0,1.181-3.271,4.73,4.73,0,0,0-1.124-3.259,6.733,6.733,0,0,0-1.765-1.345,4.274,4.274,0,0,0-2.159-.7,5.22,5.22,0,0,0-3.981,2.817A6.532,6.532,0,0,0,4768.7,2378.335Z" transform="translate(-4726.113 -2334.676)" fill="#4d633a"/>
  <path id="Path_4051" data-name="Path 4051" d="M4769.5,2374.963a6.179,6.179,0,0,0,.168,4.1,3.87,3.87,0,0,0,3.211,2.692,4.748,4.748,0,0,0,2.939-1.332,5.843,5.843,0,0,0,2.156-2.814,4.227,4.227,0,0,0-.1-2.344,5.327,5.327,0,0,0-2.253-2.953C4773.03,2370.724,4770.373,2372.234,4769.5,2374.963Z" transform="translate(-4726.113 -2334.676)" fill="#913d2d"/>
  <path id="Path_4052" data-name="Path 4052" d="M4777.868,2375.264a5.329,5.329,0,0,0-2.252-2.953c-2.586-1.587-5.243-.077-6.12,2.651a6.182,6.182,0,0,0,.168,4.1c.03.077.07.151.1.227a3.449,3.449,0,0,0,2.7,1.394,5.681,5.681,0,0,0,3.18-1.36,6.192,6.192,0,0,0,2.385-2.757c.021-.064.027-.129.044-.193A4.948,4.948,0,0,0,4777.868,2375.264Z" transform="translate(-4726.113 -2334.676)" fill="#a44834"/>
  <path id="Path_4053" data-name="Path 4053" d="M4773.333,2375.809a1.7,1.7,0,0,0-.762,1.58.859.859,0,0,0,.206.511.761.761,0,0,0,.962.021,1.681,1.681,0,0,0,.555-.871,1.027,1.027,0,0,0-.141-1.126,1.1,1.1,0,0,0-.742-.153" transform="translate(-4726.113 -2334.676)" fill="#590f06"/>
  <path id="Path_4054" data-name="Path 4054" d="M4781.38,2369.916a7.35,7.35,0,0,1,.829-1.326,6.583,6.583,0,0,1,2-1.461,7.086,7.086,0,0,1,3.571-1.073,6.555,6.555,0,0,1,2.85.967,6.655,6.655,0,0,1,1.6,1.5,4.726,4.726,0,0,1,1.154,2.1,6.33,6.33,0,0,1-.068,3.15,7.888,7.888,0,0,1-1.4,2.845,6.831,6.831,0,0,1-2.135,1.829,8.13,8.13,0,0,1-4.536.984,5.919,5.919,0,0,1-2.849-1.058,6.625,6.625,0,0,1-2.026-6.346A8.467,8.467,0,0,1,4781.38,2369.916Z" transform="translate(-4726.113 -2334.676)" fill="#4d633a"/>
  <path id="Path_4055" data-name="Path 4055" d="M4781.992,2369.562a7.161,7.161,0,0,0-1.23,2.274,5.727,5.727,0,0,0,7.988,6.832,8.315,8.315,0,0,0,3.283-3.25,7.5,7.5,0,0,0,.864-1.866,5.475,5.475,0,0,0-2.059-5.71C4787.861,2365.657,4784.1,2366.86,4781.992,2369.562Z" transform="translate(-4726.113 -2334.676)" fill="#913d2d"/>
  <path id="Path_4056" data-name="Path 4056" d="M4788.322,2377.438a8.777,8.777,0,0,0,3.47-3.434,7.956,7.956,0,0,0,.913-1.973,5.08,5.08,0,0,0,.176-1.127,5.565,5.565,0,0,0-2.043-3.062c-2.977-2.185-6.733-.982-8.846,1.72a7.142,7.142,0,0,0-1.23,2.274,5.821,5.821,0,0,0,.29,4.065,5.672,5.672,0,0,0,.677.7A6.2,6.2,0,0,0,4788.322,2377.438Z" transform="translate(-4726.113 -2334.676)" fill="#a44834"/>
  <path id="Path_4057" data-name="Path 4057" d="M4786.4,2371.949a.732.732,0,0,0-1.336.145,1.687,1.687,0,0,0-.142.654,3.344,3.344,0,0,0,.1.781c.094.475.336,1.019.816,1.083a.873.873,0,0,0,.864-.609,2.193,2.193,0,0,0,.021-1.129A2.24,2.24,0,0,0,4786.4,2371.949Z" transform="translate(-4726.113 -2334.676)" fill="#590f06"/>
  <path id="Path_4058" data-name="Path 4058" d="M4776.839,2380.9s1.223-.857,1.82-.049.25,1.388-.453,1.929-5.24,4.4-11.219,3.1-5.979-5.435-5.979-5.435.182-.623.642.26,3.68,4.248,7.82,3.421A20.566,20.566,0,0,0,4776.839,2380.9Z" transform="translate(-4726.113 -2334.676)" fill="#1b2b15"/>
  <path id="Path_4059" data-name="Path 4059" d="M4779.973,2380.144a1.641,1.641,0,0,0,1.6,1.865c1.814.144,6.03,1.161,10.48-1.851s3.793-6.785,3.793-6.785-.268-.929-.55.132a10.02,10.02,0,0,1-6.351,6.116,12.608,12.608,0,0,1-6.976.044S4780.259,2378.9,4779.973,2380.144Z" transform="translate(-4726.113 -2334.676)" fill="#1b2b15"/>
  <path id="Path_4060" data-name="Path 4060" d="M4776.826,2384.635a4.36,4.36,0,0,0,4.59,1.619,4.815,4.815,0,0,0,3.477-3.478,5.84,5.84,0,0,1,2.783,1.825c1.053,1.361,1.531,5.426-1.449,6.8s-6.925.165-9.161-2.315C4775.319,2387.15,4776.826,2384.635,4776.826,2384.635Z" transform="translate(-4726.113 -2334.676)" fill="#913d2d"/>
  <path id="Path_4061" data-name="Path 4061" d="M4784.6,2389.1c-3.447-.46-3.35,2.527-3.349,2.552a7.2,7.2,0,0,0,4.976-.253,4.044,4.044,0,0,0,2.255-3.814C4786.259,2387,4784.6,2389.1,4784.6,2389.1Z" transform="translate(-4726.113 -2334.676)" fill="#6e1709"/>
  <path id="Path_4062" data-name="Path 4062" d="M4782.119,2388.6a1.907,1.907,0,0,1,.155-.781c.094-.245.21-.48.327-.715a1.326,1.326,0,0,1,.39-.534c.125-.087.329-.112.407.02a.4.4,0,0,1,.01.267,1.494,1.494,0,0,0,.05.816.867.867,0,0,0,.586.54.812.812,0,0,0,.674-.174,1.212,1.212,0,0,0,.4-1.03.934.934,0,0,0-.458-.679,2.078,2.078,0,0,1-.36-.2.285.285,0,0,1-.079-.367.33.33,0,0,1,.225-.1,2.142,2.142,0,0,1,.494.009,8.111,8.111,0,0,1,.824.107,5,5,0,0,1,.743.166,2.309,2.309,0,0,1,1.069.71c.824,1.087-.527,2.023-1.328,2.562-.34.228-.682.453-1.04.652a.769.769,0,0,1-.585.124,6.44,6.44,0,0,1-1.639-.4C4782.523,2389.409,4782.15,2389.159,4782.119,2388.6Z" transform="translate(-4726.113 -2334.676)" fill="#3f0601"/>
  <path id="Path_4063" data-name="Path 4063" d="M4815.557,2401.469c-3.982,6.367-18.56,15.585-26.1,17.833s-15.646,2.759-24.674-4.014-11.429-17.341-11.429-17.341h0c-1.39,22.732,22.617,32.2,32.5,29.721C4793.536,2425.742,4810.056,2418.008,4815.557,2401.469Z" transform="translate(-4726.113 -2334.676)" opacity="0.3"/>
  <rect id="frame" width="120" height="120" fill="none"/>
</svg>
