<svg id="Icon_-_Whatsapp" data-name="Icon - Whatsapp" xmlns="http://www.w3.org/2000/svg" width="120" height="120" viewBox="0 0 120 120">
  <g id="Icon" transform="translate(-2641.32 -886.218)">
    <g id="Group_1590" data-name="Group 1590" transform="translate(-1608.224 -285.708)">
      <path id="Path_1673" data-name="Path 1673" d="M4300,1219.3c-.727-1.616-1.492-1.648-2.183-1.676-.566-.025-1.214-.023-1.86-.023a3.567,3.567,0,0,0-2.588,1.214,10.88,10.88,0,0,0-3.4,8.093c0,4.774,3.477,9.388,3.962,10.036s6.713,10.757,16.577,14.647c8.2,3.233,9.865,2.59,11.644,2.428s5.741-2.347,6.55-4.613.809-4.208.566-4.614-.889-.647-1.86-1.132-5.741-2.833-6.631-3.157-1.536-.485-2.183.487-2.506,3.155-3.072,3.8-1.132.73-2.1.244a26.52,26.52,0,0,1-7.8-4.816,29.2,29.2,0,0,1-5.4-6.72c-.566-.97-.061-1.5.426-1.98.436-.434.971-1.132,1.456-1.7a6.645,6.645,0,0,0,.969-1.618,1.787,1.787,0,0,0-.08-1.7c-.243-.485-2.129-5.284-2.992-7.2Z" fill="rgba(0,0,0,0.3)" fill-rule="evenodd"/>
      <path id="Path_1674" data-name="Path 1674" d="M4337.179,1208.094a38.841,38.841,0,0,0-61.126,46.846l-5.509,20.118,20.588-5.4a38.8,38.8,0,0,0,18.558,4.726h.017a38.839,38.839,0,0,0,27.472-66.291Zm-27.472,59.734h-.013a32.24,32.24,0,0,1-16.429-4.5l-1.18-.7-12.217,3.2,3.262-11.908-.768-1.22a32.281,32.281,0,1,1,27.345,15.122Z" fill="rgba(0,0,0,0.3)"/>
    </g>
    <g id="Group_1591" data-name="Group 1591" transform="translate(-1608.224 -288.708)">
      <path id="Path_1673-2" data-name="Path 1673" d="M4300,1219.3c-.727-1.616-1.492-1.648-2.183-1.676-.566-.025-1.214-.023-1.86-.023a3.567,3.567,0,0,0-2.588,1.214,10.88,10.88,0,0,0-3.4,8.093c0,4.774,3.477,9.388,3.962,10.036s6.713,10.757,16.577,14.647c8.2,3.233,9.865,2.59,11.644,2.428s5.741-2.347,6.55-4.613.809-4.208.566-4.614-.889-.647-1.86-1.132-5.741-2.833-6.631-3.157-1.536-.485-2.183.487-2.506,3.155-3.072,3.8-1.132.73-2.1.244a26.52,26.52,0,0,1-7.8-4.816,29.2,29.2,0,0,1-5.4-6.72c-.566-.97-.061-1.5.426-1.98.436-.434.971-1.132,1.456-1.7a6.645,6.645,0,0,0,.969-1.618,1.787,1.787,0,0,0-.08-1.7c-.243-.485-2.129-5.284-2.992-7.2Z" fill="#afafaf" fill-rule="evenodd"/>
      <path id="Path_1674-2" data-name="Path 1674" d="M4337.179,1208.094a38.841,38.841,0,0,0-61.126,46.846l-5.509,20.118,20.588-5.4a38.8,38.8,0,0,0,18.558,4.726h.017a38.839,38.839,0,0,0,27.472-66.291Zm-27.472,59.734h-.013a32.24,32.24,0,0,1-16.429-4.5l-1.18-.7-12.217,3.2,3.262-11.908-.768-1.22a32.281,32.281,0,1,1,27.345,15.122Z" fill="#afafaf"/>
    </g>
    <g id="Group_1592" data-name="Group 1592" transform="translate(-1608.224 -291.708)">
      <path id="Path_1673-3" data-name="Path 1673" d="M4300,1219.3c-.727-1.616-1.492-1.648-2.183-1.676-.566-.025-1.214-.023-1.86-.023a3.567,3.567,0,0,0-2.588,1.214,10.88,10.88,0,0,0-3.4,8.093c0,4.774,3.477,9.388,3.962,10.036s6.713,10.757,16.577,14.647c8.2,3.233,9.865,2.59,11.644,2.428s5.741-2.347,6.55-4.613.809-4.208.566-4.614-.889-.647-1.86-1.132-5.741-2.833-6.631-3.157-1.536-.485-2.183.487-2.506,3.155-3.072,3.8-1.132.73-2.1.244a26.52,26.52,0,0,1-7.8-4.816,29.2,29.2,0,0,1-5.4-6.72c-.566-.97-.061-1.5.426-1.98.436-.434.971-1.132,1.456-1.7a6.645,6.645,0,0,0,.969-1.618,1.787,1.787,0,0,0-.08-1.7c-.243-.485-2.129-5.284-2.992-7.2Z" fill="#fff" fill-rule="evenodd"/>
      <path id="Path_1674-3" data-name="Path 1674" d="M4337.179,1208.094a38.841,38.841,0,0,0-61.126,46.846l-5.509,20.118,20.588-5.4a38.8,38.8,0,0,0,18.558,4.726h.017a38.839,38.839,0,0,0,27.472-66.291Zm-27.472,59.734h-.013a32.24,32.24,0,0,1-16.429-4.5l-1.18-.7-12.217,3.2,3.262-11.908-.768-1.22a32.281,32.281,0,1,1,27.345,15.122Z" fill="#fff"/>
    </g>
  </g>
  <rect id="frame" width="120" height="120" fill="none"/>
</svg>
