<svg id="Icon-wishlist" xmlns="http://www.w3.org/2000/svg" xmlns:xlink="http://www.w3.org/1999/xlink" width="120" height="120" viewBox="0 0 120 120">
  <defs>
    <clipPath id="clip-path">
      <rect id="Rectangle_1617" data-name="Rectangle 1617" width="120" height="120" fill="none"/>
    </clipPath>
    <clipPath id="clip-path-3">
      <rect id="Rectangle_1605" data-name="Rectangle 1605" width="116.31" height="110.652" transform="translate(1.85 9.348)" fill="none"/>
    </clipPath>
    <clipPath id="clip-path-4">
      <rect id="Rectangle_1607" data-name="Rectangle 1607" width="23.85" height="19.105" transform="translate(1.84 37.755)" fill="none"/>
    </clipPath>
    <clipPath id="clip-path-6">
      <rect id="Rectangle_1609" data-name="Rectangle 1609" width="29.228" height="27.62" transform="translate(37.245 9.436)" fill="none"/>
    </clipPath>
    <clipPath id="clip-path-7">
      <rect id="Rectangle_1610" data-name="Rectangle 1610" width="26.073" height="25.931" transform="translate(75.322 25.719)" fill="none"/>
    </clipPath>
    <clipPath id="clip-path-8">
      <rect id="Rectangle_1611" data-name="Rectangle 1611" width="28.541" height="23.855" transform="translate(89.619 64.58)" fill="none"/>
    </clipPath>
    <clipPath id="clip-path-10">
      <rect id="Rectangle_1613" data-name="Rectangle 1613" width="65.893" height="48.208" transform="translate(18.829 62.455)" fill="none"/>
    </clipPath>
    <clipPath id="clip-path-12">
      <rect id="Rectangle_1615" data-name="Rectangle 1615" width="108.222" height="68.706" transform="translate(5.924 3.272)" fill="none"/>
    </clipPath>
    <clipPath id="clip-path-13">
      <rect id="Rectangle_1614" data-name="Rectangle 1614" width="108.214" height="68.706" transform="translate(5.924 3.272)" fill="none"/>
    </clipPath>
  </defs>
  <g id="Group_1658" data-name="Group 1658" clip-path="url(#clip-path)">
    <g id="Group_1636" data-name="Group 1636">
      <g id="Group_1635" data-name="Group 1635" clip-path="url(#clip-path)">
        <g id="Group_1634" data-name="Group 1634" opacity="0.3">
          <g id="Group_1633" data-name="Group 1633">
            <g id="Group_1632" data-name="Group 1632" clip-path="url(#clip-path-3)">
              <path id="Path_1872" data-name="Path 1872" d="M63.009,9.7c8.9,1.664-.72,23.689-3.352,29.072a12.774,12.774,0,0,1-13.381,7.514C27.751,42.832,39.9,5.366,63.009,9.7"/>
              <path id="Path_1873" data-name="Path 1873" d="M1.86,53.943c-.146-9.419,3.91-20.887,10.883-23.531,3.346-1.268,10.466,11.132,12.106,16.613a14.334,14.334,0,0,1-.094,10C22.2,64,15.2,67.8,9.134,65.544a11.812,11.812,0,0,1-7.264-11.6"/>
              <path id="Path_1874" data-name="Path 1874" d="M80.944,59.487A12.52,12.52,0,0,1,75.82,45.394c1.464-5.68,8.348-28.141,16.017-23.719,19.9,11.5,5.056,47-10.893,37.812"/>
              <path id="Path_1875" data-name="Path 1875" d="M109.893,93.177a11.8,11.8,0,0,1-13.062,4c-6.023-2.236-8.834-9.65-6.276-16.525A14.215,14.215,0,0,1,96.976,73c4.8-3.034,18.216-7.82,19.917-4.71,3.541,6.542-.832,17.815-7,24.875"/>
              <path id="Path_1876" data-name="Path 1876" d="M85.668,94.847c-8.422,18.047-34.884,23.693-44.116,25.093a5.863,5.863,0,0,1-5.329-2.038c-5.944-7.2-21.921-29.041-16.17-48.1A18.661,18.661,0,0,1,43.174,57.079c.37.108.738.226,1.1.356a17.886,17.886,0,0,1,10.18,9.641A19.515,19.515,0,0,1,56.07,73.92a18.426,18.426,0,0,1,5.907-4.09,17.725,17.725,0,0,1,13.938-.2A18.548,18.548,0,0,1,86.142,93.781q-.222.542-.474,1.07"/>
            </g>
          </g>
        </g>
        <path id="Path_1877" data-name="Path 1877" d="M63.009.346c8.9,1.664-.72,23.689-3.352,29.072a12.776,12.776,0,0,1-13.381,7.526C27.751,33.492,39.9-3.974,63.009.346" fill="red"/>
        <path id="Path_1878" data-name="Path 1878" d="M1.86,44.606c-.146-9.42,3.91-20.887,10.883-23.527,3.346-1.272,10.466,11.128,12.1,16.6a14.334,14.334,0,0,1-.094,10c-2.552,6.965-9.55,10.777-15.621,8.517A11.812,11.812,0,0,1,1.86,44.6" fill="red"/>
      </g>
    </g>
    <g id="Group_1638" data-name="Group 1638">
      <g id="Group_1637" data-name="Group 1637" clip-path="url(#clip-path-4)">
        <path id="Path_1879" data-name="Path 1879" d="M24.849,37.754a14.19,14.19,0,0,1-.862,4.116c-2.552,6.967-9.549,10.779-15.621,8.519a11.778,11.778,0,0,1-6.5-6.765c0,.328-.018.66-.012.984a11.811,11.811,0,0,0,7.264,11.6c6.071,2.26,13.069-1.552,15.621-8.518a14.333,14.333,0,0,0,.11-9.935" fill="#c00"/>
      </g>
    </g>
    <g id="Group_1640" data-name="Group 1640">
      <g id="Group_1639" data-name="Group 1639" clip-path="url(#clip-path)">
        <path id="Path_1880" data-name="Path 1880" d="M80.944,50.144A12.52,12.52,0,0,1,75.82,36.051c1.464-5.68,8.348-28.141,16.017-23.719,19.9,11.5,5.056,47-10.893,37.812" fill="red"/>
        <path id="Path_1881" data-name="Path 1881" d="M109.893,83.838a11.8,11.8,0,0,1-13.062,4C90.808,85.6,88,78.2,90.555,71.321a14.23,14.23,0,0,1,6.421-7.65c4.8-3.034,18.216-7.818,19.917-4.708,3.541,6.542-.832,17.815-7,24.875" fill="red"/>
      </g>
    </g>
    <g id="Group_1642" data-name="Group 1642">
      <g id="Group_1641" data-name="Group 1641" clip-path="url(#clip-path-6)">
        <path id="Path_1882" data-name="Path 1882" d="M61.347,22.3a12.776,12.776,0,0,1-13.381,7.514c-6.882-1.282-9.524-7.26-8.95-14.042-3.6,9.246-1.988,19.445,7.26,21.167a12.77,12.77,0,0,0,13.371-7.513,80.11,80.11,0,0,0,6.818-20A99.627,99.627,0,0,1,61.337,22.3" fill="#c00"/>
      </g>
    </g>
    <g id="Group_1644" data-name="Group 1644">
      <g id="Group_1643" data-name="Group 1643" clip-path="url(#clip-path-7)">
        <path id="Path_1883" data-name="Path 1883" d="M101.045,25.719c-1,12.315-10.467,23.855-20.373,18.149A12.465,12.465,0,0,1,75.6,37.094a12.49,12.49,0,0,0,5.34,13.05c11.6,6.677,22.6-10.266,20.093-24.431" fill="#c00"/>
      </g>
    </g>
    <g id="Group_1646" data-name="Group 1646">
      <g id="Group_1645" data-name="Group 1645" clip-path="url(#clip-path-8)">
        <path id="Path_1884" data-name="Path 1884" d="M110.475,78.424a12.479,12.479,0,0,1-13.8,4.226A11.66,11.66,0,0,1,89.7,74.972a11.97,11.97,0,0,0,7.13,12.866,11.8,11.8,0,0,0,13.062-4c4.635-5.3,8.255-12.988,8.266-19.257a38.56,38.56,0,0,1-7.684,13.843" fill="#c00"/>
      </g>
    </g>
    <g id="Group_1648" data-name="Group 1648">
      <g id="Group_1647" data-name="Group 1647" clip-path="url(#clip-path)">
        <path id="Path_1885" data-name="Path 1885" d="M85.668,85.506c-8.422,18.047-34.884,23.685-44.116,25.1a5.871,5.871,0,0,1-5.329-2.036c-5.944-7.2-21.921-29.045-16.17-48.11A18.661,18.661,0,0,1,43.174,47.744c.37.108.738.226,1.1.356a17.886,17.886,0,0,1,10.18,9.641,19.559,19.559,0,0,1,1.616,6.844,18.4,18.4,0,0,1,5.907-4.09,17.725,17.725,0,0,1,13.938-.2A18.548,18.548,0,0,1,86.142,84.446q-.222.542-.474,1.07" fill="red"/>
      </g>
    </g>
    <g id="Group_1650" data-name="Group 1650">
      <g id="Group_1649" data-name="Group 1649" clip-path="url(#clip-path-10)">
        <path id="Path_1886" data-name="Path 1886" d="M48.35,97.667a9.438,9.438,0,0,1-8.576-3.274A150.684,150.684,0,0,1,19.538,62.455c-4.132,18.569,10.949,39.158,16.685,46.109a5.868,5.868,0,0,0,5.331,2.038c8.91-1.36,33.873-6.661,43.168-23.258A150.692,150.692,0,0,1,48.35,97.669" fill="#c00"/>
      </g>
    </g>
    <g id="Group_1657" data-name="Group 1657">
      <g id="Group_1656" data-name="Group 1656" clip-path="url(#clip-path)">
        <g id="Group_1655" data-name="Group 1655" opacity="0.4">
          <g id="Group_1654" data-name="Group 1654">
            <g id="Group_1653" data-name="Group 1653" clip-path="url(#clip-path-12)">
              <g id="Group_1652" data-name="Group 1652">
                <g id="Group_1651" data-name="Group 1651" clip-path="url(#clip-path-13)">
                  <path id="Path_1887" data-name="Path 1887" d="M111.444,70.109a4.412,4.412,0,0,1-4.7,1.732,4.631,4.631,0,0,1-2.562-5.916,5.969,5.969,0,0,1,2.26-2.966c1.748-1.256,6.462-3.147,7.152-2.106,1.344,2.4.068,6.6-2.15,9.256" fill="#fff"/>
                  <path id="Path_1888" data-name="Path 1888" d="M6.038,32.071c.64-3.054,2.824-6.4,5.346-6.77,1.166-.144,2.6,4.4,2.588,6.288a5,5,0,0,1-.746,3.32,4.089,4.089,0,0,1-5.532,1.668c-.06-.032-.118-.064-.174-.1a4.437,4.437,0,0,1-1.482-4.4" fill="#fff"/>
                  <path id="Path_1889" data-name="Path 1889" d="M57.217,3.774c2.952,1.1-1.84,7.956-3.082,9.574a4.428,4.428,0,0,1-4.946,1.677C43.26,12.5,49.879.72,57.217,3.774" fill="#fff"/>
                  <path id="Path_1890" data-name="Path 1890" d="M83.428,26.7a4.271,4.271,0,0,1-.9-4.932c.76-1.738,4.25-8.685,6.526-6.817,5.869,4.811-.98,15.671-5.622,11.749" fill="#fff"/>
                  <path id="Path_1891" data-name="Path 1891" d="M42.134,51.266c1.432,2.49-5.93,4.514-7.746,4.928a4.036,4.036,0,0,1-4.447-1.7c-2.692-5.232,8.819-9.644,12.2-3.224" fill="#fff"/>
                  <path id="Path_1892" data-name="Path 1892" d="M74.376,63.575c1.432,2.49-5.928,4.514-7.744,4.928a4.039,4.039,0,0,1-4.449-1.7c-2.692-5.232,8.819-9.644,12.2-3.224" fill="#fff"/>
                </g>
              </g>
            </g>
          </g>
        </g>
      </g>
    </g>
  </g>
</svg>
