<svg id="words" xmlns="http://www.w3.org/2000/svg" xmlns:xlink="http://www.w3.org/1999/xlink" width="70" height="72.779" viewBox="0 0 70 72.779">
  <defs>
    <clipPath id="clip-path">
      <rect id="Rectangle_3431" data-name="Rectangle 3431" width="70" height="72.779" fill="none"/>
    </clipPath>
    <clipPath id="clip-path-2">
      <rect id="Rectangle_3424" data-name="Rectangle 3424" width="70" height="72.778" transform="translate(0 0.001)" fill="none"/>
    </clipPath>
    <clipPath id="clip-path-3">
      <rect id="Rectangle_3422" data-name="Rectangle 3422" width="63.398" height="71.12" transform="translate(0 1.658)" fill="none"/>
    </clipPath>
    <clipPath id="clip-path-4">
      <rect id="Rectangle_3423" data-name="Rectangle 3423" width="59.279" height="65.944" transform="translate(6.093 1.179)" fill="none"/>
    </clipPath>
    <clipPath id="clip-path-5">
      <path id="Path_6350" data-name="Path 6350" d="M47.7,0,5.849,5.392l.816,3.366L27.209,65.944,70,55.585,48.542,3.021Z" fill="none"/>
    </clipPath>
    <linearGradient id="linear-gradient" x1="0.013" y1="1.003" x2="0.026" y2="1.003" gradientUnits="objectBoundingBox">
      <stop offset="0" stop-color="#d6cfe0"/>
      <stop offset="0.017" stop-color="#d6cfe0"/>
      <stop offset="0.175" stop-color="#dbd5e6"/>
      <stop offset="0.562" stop-color="#e4e0ef"/>
      <stop offset="1" stop-color="#e8e4f3"/>
    </linearGradient>
    <clipPath id="clip-path-7">
      <rect id="Rectangle_3426" data-name="Rectangle 3426" width="33.882" height="33.749" transform="translate(32.763 29.142)" fill="none"/>
    </clipPath>
    <clipPath id="clip-path-8">
      <rect id="Rectangle_3427" data-name="Rectangle 3427" width="29.945" height="29.768" transform="translate(33.155 30.021)" fill="none"/>
    </clipPath>
    <clipPath id="clip-path-9">
      <rect id="Rectangle_3428" data-name="Rectangle 3428" width="27.797" height="29.237" transform="translate(31.647 28.417)" fill="none"/>
    </clipPath>
    <clipPath id="clip-path-10">
      <rect id="Rectangle_3429" data-name="Rectangle 3429" width="2.228" height="1.477" transform="translate(31.061 58.96)" fill="none"/>
    </clipPath>
  </defs>
  <g id="Group_8668" data-name="Group 8668">
    <g id="Group_8667" data-name="Group 8667" clip-path="url(#clip-path)">
      <g id="Group_8650" data-name="Group 8650">
        <g id="Group_8649" data-name="Group 8649" clip-path="url(#clip-path-2)">
          <g id="Group_8645" data-name="Group 8645" opacity="0.3">
            <g id="Group_8644" data-name="Group 8644">
              <g id="Group_8643" data-name="Group 8643" clip-path="url(#clip-path-3)">
                <path id="Path_6348" data-name="Path 6348" d="M63.4,61.71,45.416,1.659.813,7.275,0,8.186,20.153,72.779l1.339-.353Z" fill-rule="evenodd"/>
              </g>
            </g>
          </g>
          <g id="Group_8648" data-name="Group 8648" opacity="0.3">
            <g id="Group_8647" data-name="Group 8647">
              <g id="Group_8646" data-name="Group 8646" clip-path="url(#clip-path-4)">
                <path id="Path_6349" data-name="Path 6349" d="M6.093,6.4l40.516-5.22.845,3.02L65.372,57.62l-39.252,9.5L6.9,9.425Z" fill-rule="evenodd"/>
              </g>
            </g>
          </g>
        </g>
      </g>
      <g id="Group_8652" data-name="Group 8652">
        <g id="Group_8651" data-name="Group 8651" clip-path="url(#clip-path-5)">
          <rect id="Rectangle_3425" data-name="Rectangle 3425" width="77.866" height="79.187" transform="matrix(0.972, -0.235, 0.235, 0.972, -9.231, 3.65)" fill="url(#linear-gradient)"/>
        </g>
      </g>
      <g id="Group_8666" data-name="Group 8666">
        <g id="Group_8665" data-name="Group 8665" clip-path="url(#clip-path-2)">
          <path id="Path_6351" data-name="Path 6351" d="M38.572,35.231c-.075.015-.113.022-.134.1a7.832,7.832,0,0,1-1.418,3.376,4.772,4.772,0,0,1-2.744,1.441,4.942,4.942,0,0,1-3.13-.366c-3.364-1.693-7.73-6.639-11.348-22.007a1.212,1.212,0,0,1,.831-1.34c.151-.03.293-.1.482-.134a33.5,33.5,0,0,1,3.336-.773,1.671,1.671,0,0,1,1.862,1.36c1.617,5.526,4.044,15.834,5.949,15.7l.075-.014c1.77-1.72.237-7.223-.449-10.3-.056-.068.022-.24.136-.262l4.894-1.04.131.053c.1.412.716,2.369.813,2.782,1.019,4.662,2.833,6.659,3.994,5.882l.058-.09c1.916-.925-2.273-13.514-2.947-16.715l.529-.1.491-.1c.906-.178,4.049-.6,4.973-.7a.348.348,0,0,1,.289.218l.009.038a77.651,77.651,0,0,1,3.283,18.649c.092,2.571.032,6.347-2.99,6.941l-.379.074c-.377.074-1.6.236-1.642.244-1.715.1-3.843-1.717-4.879-2.925Z" fill="#702c6b"/>
          <path id="Path_6352" data-name="Path 6352" d="M56.945,29.633s-.5-1.173-1.1-.7S48.4,35.1,48.4,35.1s-.135,1.943-3.586,2.68c0,0-.469-.234,1.072-1.507S55,28.46,55,28.46s1.34-1.24,3.618-.033-1.675,1.206-1.675,1.206" fill="#00682d"/>
          <g id="Group_8655" data-name="Group 8655" opacity="0.3" style="mix-blend-mode: normal;isolation: isolate">
            <g id="Group_8654" data-name="Group 8654">
              <g id="Group_8653" data-name="Group 8653" clip-path="url(#clip-path-7)">
                <path id="Path_6353" data-name="Path 6353" d="M32.8,62.415l.9-1.777a2.368,2.368,0,0,1-.167-.528h0c-.005-.021-.007-.043-.011-.065-.006-.04-.014-.08-.019-.12s-.007-.084-.009-.126-.006-.066-.007-.1A96.133,96.133,0,0,1,47.461,41.975c6.252-6.1,9.325-8.534,11.3-9.934-.085-.178-.4-.766-.8-.762a.448.448,0,0,0-.141.028.109.109,0,0,0-.017.005.456.456,0,0,0-.124.072l0,0c-.6.469-7.44,6.165-7.44,6.165v.006c-.011.115-.241,1.961-3.585,2.675,0,0-.469-.235,1.072-1.508s9.114-7.807,9.114-7.807,1.34-1.24,3.618-.035a1.467,1.467,0,0,1,.362,0,2,2,0,0,1,.392.072,3.67,3.67,0,0,1,.421.139l1.858-1.86a.254.254,0,0,1,.084-.086,1.025,1.025,0,0,1,.5.081,4.254,4.254,0,0,1,1.409.944l.054.049c.868.819,1.083,1.318,1.1,1.6a.429.429,0,0,1-.057.272l-1.848,1.848c.012.024.022.049.033.072l.026.068c.018.046.036.093.051.137l.017.059c.013.044.025.087.034.129a.442.442,0,0,1,.01.05c.008.041.016.082.021.12,0,.015,0,.028,0,.042,0,.038.007.076.008.111v.032c0,.036,0,.071,0,.1l0,.019a.884.884,0,0,1-.118.39C63.51,37.239,61.9,39.876,54,48h0l-.267.274A95.444,95.444,0,0,1,38.483,60.68q-.455.3-.835.543h0C36.61,61.891,36,62.247,36,62.247h0c-.085-.013-.17-.03-.253-.05l-.044-.012c-.067-.017-.134-.036-.2-.057-.023-.007-.045-.016-.068-.024-.062-.021-.124-.043-.185-.068l-.025-.011c-.06-.025-.119-.051-.178-.08-.338.175-1.617.836-1.7.884a.488.488,0,0,1-.109.044.508.508,0,0,1-.066.012.592.592,0,0,1-.059.007l-.042,0a.516.516,0,0,1-.164-.03l.01-.009a.474.474,0,0,1-.072-.034c-.145-.134-.045-.4-.045-.4" fill="#241f20"/>
              </g>
            </g>
          </g>
          <path id="Path_6354" data-name="Path 6354" d="M62.975,32.817c-1.325,1.987-2.947,4.657-11.091,13A96.221,96.221,0,0,1,34.158,59.791a3.382,3.382,0,0,1-1.742-.838,2.392,2.392,0,0,1-.771-1.709A96.184,96.184,0,0,1,45.618,39.518c8.343-8.142,11.024-9.75,13-11.091,0,0,1.24-.234,3.049,1.474s1.443,2.715,1.307,2.916" fill="#7db700"/>
          <path id="Path_6355" data-name="Path 6355" d="M31.882,58.138l-.927,1.821s-.1.268.045.4a.48.48,0,0,0,.5.011c.1-.056,1.787-.927,1.787-.927Z" fill="#bababa"/>
          <path id="Path_6356" data-name="Path 6356" d="M35.806,58.767a.118.118,0,0,0-.071-.015c-.246.022-.938-.067-2.088-1.139-1.093-1.019-1.067-1.805-1.062-1.881-.611.956-.937,1.512-.937,1.512a2.392,2.392,0,0,0,.771,1.709,3.378,3.378,0,0,0,1.742.838s.607-.357,1.645-1.024" fill="#d2d000"/>
          <path id="Path_6357" data-name="Path 6357" d="M61.67,29.9c-1.81-1.709-3.049-1.474-3.049-1.474-1.958,1.328-4.609,2.922-12.763,10.859a6.691,6.691,0,0,0,2.107,3.583,11.687,11.687,0,0,0,4.088,2.681l.1-.008c7.906-8.124,9.513-10.76,10.823-12.725.134-.2.5-1.207-1.307-2.916" fill="#00832a"/>
          <g id="Group_8658" data-name="Group 8658" opacity="0.46" style="mix-blend-mode: normal;isolation: isolate">
            <g id="Group_8657" data-name="Group 8657">
              <g id="Group_8656" data-name="Group 8656" clip-path="url(#clip-path-8)">
                <path id="Path_6358" data-name="Path 6358" d="M61.794,30.021A136.827,136.827,0,0,1,52.411,42.1c-4.78,5.317-19.256,17.335-19.256,17.335l.007.031a3.226,3.226,0,0,0,1,.325A96.109,96.109,0,0,0,51.886,45.816c8.143-8.343,9.766-11.013,11.091-13,.131-.195.484-1.159-1.183-2.794" fill="#00682d"/>
              </g>
            </g>
          </g>
          <g id="Group_8661" data-name="Group 8661" opacity="0.5" style="mix-blend-mode: normal;isolation: isolate">
            <g id="Group_8660" data-name="Group 8660">
              <g id="Group_8659" data-name="Group 8659" clip-path="url(#clip-path-9)">
                <path id="Path_6359" data-name="Path 6359" d="M58.822,29.164l.622-.647a2,2,0,0,0-.823-.09c-1.977,1.34-4.658,2.947-13,11.091A96.17,96.17,0,0,0,31.647,57.244a2.019,2.019,0,0,0,.045.41c10.459-17.086,27.13-28.49,27.13-28.49" fill="#fff"/>
              </g>
            </g>
          </g>
          <path id="Path_6360" data-name="Path 6360" d="M62.975,32.817c.134-.2.5-1.206-1.307-2.917s-3.049-1.473-3.049-1.473-1.005.736,1.307,2.915,3.049,1.475,3.049,1.475" fill="#00a11b"/>
          <path id="Path_6361" data-name="Path 6361" d="M62.64,32.183c.107-.161.285-.716-1.16-2.08a4.453,4.453,0,0,0-2.318-1.424s-.8.588,1.044,2.327,2.434,1.177,2.434,1.177" fill="#00832a"/>
          <path id="Path_6362" data-name="Path 6362" d="M61.737,26.692s.675-.143,1.962,1.075,1.139,1.727,1.044,1.87l-2.376,2.377s-.4.534-2.048-1.017-.957-1.927-.957-1.927Z" fill="#bababa"/>
          <path id="Path_6363" data-name="Path 6363" d="M64.743,29.636c.1-.143.246-.654-1.044-1.871s-1.962-1.074-1.962-1.074-.689.376.957,1.927,2.049,1.018,2.049,1.018" fill="#e1e1e1"/>
          <path id="Path_6364" data-name="Path 6364" d="M55.84,28.93a.464.464,0,0,1,.287-.107.8.8,0,0,0-.589.04l-3.82,3.15-6.9,5.763c3.451-.737,3.585-2.68,3.585-2.68s6.836-5.7,7.439-6.166" fill="#00431c"/>
          <path id="Path_6365" data-name="Path 6365" d="M31.207,59.463l-.252.5s-.1.268.044.4a.482.482,0,0,0,.5.011c.03-.017.215-.113.453-.237Z" fill="#2d2e84"/>
          <g id="Group_8664" data-name="Group 8664" opacity="0.46" style="mix-blend-mode: normal;isolation: isolate">
            <g id="Group_8663" data-name="Group 8663">
              <g id="Group_8662" data-name="Group 8662" clip-path="url(#clip-path-10)">
                <path id="Path_6366" data-name="Path 6366" d="M32.767,58.96,31.061,60.4a.529.529,0,0,0,.44-.031c.1-.056,1.788-.927,1.788-.927Z" fill="#00682d"/>
              </g>
            </g>
          </g>
        </g>
      </g>
    </g>
  </g>
</svg>
