<svg id="work" xmlns="http://www.w3.org/2000/svg" xmlns:xlink="http://www.w3.org/1999/xlink" width="70" height="70" viewBox="0 0 70 70">
  <defs>
    <clipPath id="clip-path">
      <rect id="Rectangle_3151" data-name="Rectangle 3151" width="70" height="70" fill="none"/>
    </clipPath>
    <clipPath id="clip-path-3">
      <rect id="Rectangle_3130" data-name="Rectangle 3130" width="60.261" height="61.792" transform="translate(8.888 7.546)" fill="none"/>
    </clipPath>
    <clipPath id="clip-path-4">
      <rect id="Rectangle_3131" data-name="Rectangle 3131" width="41.62" height="30.127" transform="translate(19.146 35.769)" fill="none"/>
    </clipPath>
    <clipPath id="clip-path-5">
      <rect id="Rectangle_3132" data-name="Rectangle 3132" width="21.736" height="28.17" transform="translate(41.599 5.412)" fill="none"/>
    </clipPath>
    <clipPath id="clip-path-6">
      <rect id="Rectangle_3133" data-name="Rectangle 3133" width="7.744" height="16.952" transform="translate(55.001 16.377)" fill="none"/>
    </clipPath>
    <clipPath id="clip-path-7">
      <rect id="Rectangle_3134" data-name="Rectangle 3134" width="6.527" height="9.917" transform="translate(47.189 11.127)" fill="none"/>
    </clipPath>
    <clipPath id="clip-path-8">
      <rect id="Rectangle_3135" data-name="Rectangle 3135" width="9.259" height="4.733" transform="translate(42.36 6.149)" fill="none"/>
    </clipPath>
    <clipPath id="clip-path-9">
      <rect id="Rectangle_3136" data-name="Rectangle 3136" width="20.634" height="24.483" transform="translate(26.644 23.673)" fill="none"/>
    </clipPath>
    <clipPath id="clip-path-10">
      <rect id="Rectangle_3137" data-name="Rectangle 3137" width="17.744" height="15.852" transform="translate(8.986 44.82)" fill="none"/>
    </clipPath>
    <clipPath id="clip-path-11">
      <rect id="Rectangle_3138" data-name="Rectangle 3138" width="27.837" height="17.892" transform="translate(32.628 31.41)" fill="none"/>
    </clipPath>
    <clipPath id="clip-path-12">
      <rect id="Rectangle_3139" data-name="Rectangle 3139" width="17.062" height="28.465" transform="translate(24.496 11.55)" fill="none"/>
    </clipPath>
    <clipPath id="clip-path-13">
      <rect id="Rectangle_3140" data-name="Rectangle 3140" width="13.115" height="19.8" transform="translate(8.742 38.164)" fill="none"/>
    </clipPath>
    <clipPath id="clip-path-14">
      <rect id="Rectangle_3141" data-name="Rectangle 3141" width="7.552" height="7.14" transform="translate(29.475 52.421)" fill="none"/>
    </clipPath>
    <clipPath id="clip-path-15">
      <rect id="Rectangle_3142" data-name="Rectangle 3142" width="0.427" height="0.414" transform="translate(16.178 35.748)" fill="none"/>
    </clipPath>
    <clipPath id="clip-path-16">
      <path id="Path_5598" data-name="Path 5598" d="M24.825,25.432A36.479,36.479,0,0,0,20.282,29.6s0,.015-.009.019a15.764,15.764,0,0,0-2.222,2.8c-.655,1.333-1.044,5.7,2.944,12.122a.018.018,0,0,0,0,.014c.379.615.8,1.245,1.263,1.9,5.335,7.471,13.446,9.389,14.263,9.225.776-.157,4.932-4.3,5.491-4.858l.072-.067c.35-.332.175-1.495.175-1.495L40.37,50.805s-6.429.573-14.157-9.816c-6.13-8.242-1.459-13.7-1.459-13.7l1.485-1.79s-.678-.074-1.191-.074c-.08,0-.155,0-.223.006" fill="none"/>
    </clipPath>
    <linearGradient id="linear-gradient" x1="-0.255" y1="1.241" x2="-0.229" y2="1.241" gradientUnits="objectBoundingBox">
      <stop offset="0" stop-color="#0f003b"/>
      <stop offset="1" stop-color="#4d0065"/>
    </linearGradient>
    <clipPath id="clip-path-18">
      <rect id="Rectangle_3145" data-name="Rectangle 3145" width="3.358" height="14.925" transform="translate(17.637 29.623)" fill="none"/>
    </clipPath>
    <clipPath id="clip-path-19">
      <path id="Path_5600" data-name="Path 5600" d="M24.825,25.432c-2.986,1.669-5.1,9.135,1.931,17.827,6.492,8.024,12.8,9.9,15.261,7.567l.072-.067c.35-.332.175-1.495.175-1.495l-1.211.985s-7.112,1.129-14.84-9.26c-6.13-8.242-1.459-13.7-1.459-13.7l1.485-1.79s-.678-.074-1.191-.074c-.08,0-.155,0-.223.006" fill="none"/>
    </clipPath>
    <linearGradient id="linear-gradient-2" x1="-0.374" y1="1.359" x2="-0.346" y2="1.359" gradientUnits="objectBoundingBox">
      <stop offset="0" stop-color="#40007c"/>
      <stop offset="1" stop-color="#7f16a7"/>
    </linearGradient>
    <clipPath id="clip-path-21">
      <rect id="Rectangle_3148" data-name="Rectangle 3148" width="2.296" height="10.183" transform="translate(21.993 26.802)" fill="none"/>
    </clipPath>
    <clipPath id="clip-path-22">
      <rect id="Rectangle_3149" data-name="Rectangle 3149" width="12.789" height="5.047" transform="translate(12.018 60.849)" fill="none"/>
    </clipPath>
  </defs>
  <g id="Group_7954" data-name="Group 7954" clip-path="url(#clip-path)">
    <g id="Group_7936" data-name="Group 7936">
      <g id="Group_7935" data-name="Group 7935" clip-path="url(#clip-path)">
        <g id="Group_7898" data-name="Group 7898" opacity="0.3">
          <g id="Group_7897" data-name="Group 7897">
            <g id="Group_7896" data-name="Group 7896" clip-path="url(#clip-path-3)">
              <path id="Path_5576" data-name="Path 5576" d="M47.136,7.863a6.08,6.08,0,0,0-2.427,1.674l.005-.011-.021.028a5.428,5.428,0,0,0-.454.619c-.609.839-1.228,1.727-1.891,2.688-3.355,4.162-7.422,10.311-12.009,15.978l-.085.1a11.3,11.3,0,0,0-1.414-.069A36.675,36.675,0,0,0,24.3,33.045c-.005,0-.005.014-.01.019a15.666,15.666,0,0,0-2.221,2.8,5.59,5.59,0,0,0-.411,2.294c-.351.348-.7.693-1.05,1.033-.138.139-.275.269-.412.409a1.445,1.445,0,0,0-.179.168c-.167.169-.34.332-.508.491-.142.134-.3.278-.447.433-5.135,4.924-9.385,8.616-9.616,9.278A8.889,8.889,0,0,0,9.1,51.242a6.039,6.039,0,0,0-.17,2.358C9.154,58.814,13,63.508,13,63.508h0a2.391,2.391,0,0,0,2.332.543,1.272,1.272,0,0,0,.136-.04l.108-.105c.147.127.29.256.44.38a.025.025,0,0,1,.015,0,24.4,24.4,0,0,0,7.128,4.187c.035.015.093.034.162.055a12.79,12.79,0,0,0,4.6.8,1.178,1.178,0,0,0,.231-.035l.052-.015a2.12,2.12,0,0,0,.215-.074l.064-.026c.066-.029.134-.063.2-.1l.124-.064,0,0c.012-.007.024-.015.036-.021a8.866,8.866,0,0,0,.931-.625l.072-.054c.092-.069.188-.145.283-.221.045-.036.088-.069.133-.106.091-.074.185-.152.279-.23l.162-.136L31,67.379l.184-.161.282-.251.214-.193.278-.255.246-.229.266-.248c.1-.1.206-.2.311-.3L33,65.539q.257-.246.521-.5l.024-.024c1.551-1.506,3.3-3.284,5.147-5.128.358-.311.667-.595.941-.854a3.031,3.031,0,0,0,.908.1c.776-.157,4.932-4.3,5.492-4.857L46.1,54.2c.35-.33.176-1.487.175-1.493l.017-.015c.23-.2.459-.394.688-.585,6.729-5.652,13.488-9.562,17.8-12.9l.005,0a21.712,21.712,0,0,0,3.041-2.741c.008-.009.014-.019.022-.029a5.106,5.106,0,0,0,.882-1.328c3.241-6.944-13.193-30.562-21.6-27.245"/>
            </g>
          </g>
        </g>
        <path id="Path_5577" data-name="Path 5577" d="M63.811,33.023a21.7,21.7,0,0,1-3.04,2.741l-.006.005c-4.308,3.334-11.068,7.244-17.8,12.9C35.9,54.6,28.053,63.774,24.807,65.574a2.061,2.061,0,0,1-.895.316,12.913,12.913,0,0,1-4.766-.855,24.4,24.4,0,0,1-7.129-4.187A.021.021,0,0,0,12,60.843c-4.988-4.113-8.47-9.871-6.644-13.774.679-1.46,7.909-7.692,16.234-16.279,9.537-9.85,17.346-24.622,22.042-26.2,5.934-1.993,25.834,21.957,20.176,28.436" fill="#dcd580"/>
        <g id="Group_7901" data-name="Group 7901" opacity="0.2">
          <g id="Group_7900" data-name="Group 7900">
            <g id="Group_7899" data-name="Group 7899" clip-path="url(#clip-path-4)">
              <path id="Path_5578" data-name="Path 5578" d="M60.766,35.769c-4.309,3.334-11.069,7.244-17.8,12.9C35.12,55.251,26.34,65.809,23.912,65.89a12.92,12.92,0,0,1-4.766-.855c.485.206,4.435,1.078,5.457.24,1.165-.955,6.41-10.195,7.879-12.854,2.225-4.04,27.913-16.474,28.284-16.652"/>
            </g>
          </g>
        </g>
        <g id="Group_7904" data-name="Group 7904" opacity="0.2">
          <g id="Group_7903" data-name="Group 7903">
            <g id="Group_7902" data-name="Group 7902" clip-path="url(#clip-path-5)">
              <path id="Path_5579" data-name="Path 5579" d="M47.8,23.385S37.392,9.617,43.545,5.846,65.776,23.882,63.021,31.3,49.37,25.85,47.8,23.385"/>
            </g>
          </g>
        </g>
        <path id="Path_5580" data-name="Path 5580" d="M40.7,6.084s-2.216,5.129,3.967,18.039L8.987,60.067s-5.82-7.1-3.558-13.535c.231-.661,4.481-4.353,9.616-9.278.152-.154.305-.3.447-.433.168-.159.341-.322.509-.491a1.445,1.445,0,0,1,.178-.168c.137-.139.274-.269.412-.409A140.151,140.151,0,0,0,26.239,25.5C34.47,15.635,37.558,10.3,40.7,6.084" fill="#e0d693"/>
        <g id="Group_7907" data-name="Group 7907" opacity="0.2">
          <g id="Group_7906" data-name="Group 7906">
            <g id="Group_7905" data-name="Group 7905" clip-path="url(#clip-path-6)">
              <path id="Path_5581" data-name="Path 5581" d="M58.71,26.157S55.549,28.788,55,29.3c0,0,2.242,3.847,5.261,4.022s2.994-5.386,1.471-9.054S57.5,16.527,56.7,16.38s4.01,6.3,2.008,9.777"/>
            </g>
          </g>
        </g>
        <path id="Path_5582" data-name="Path 5582" d="M47.278,23.673s-22.77,22.1-35.823,36.9a2.474,2.474,0,0,1-2.469-.505s34.32-35.829,35.089-35.876,3.2-.515,3.2-.515" fill="#dcd580"/>
        <path id="Path_5583" data-name="Path 5583" d="M64.716,31.667c3.241-6.944-13.193-30.562-21.6-27.245s-.943,17.3.18,18.917,3.977.334,3.977.334S38.692,9.856,44.295,6.465C50.185,2.9,65.87,27.109,61.08,31.274s-15.519-14.093-14-19.053c1.1-3.6,6.493,3.254,7.6,6.346s-.463,4.058-.04,5.361,2.98,2.959,4.072,2.23-.057-6.332-4.721-12.868-8.912-6.105-9.857-4.482.06,11.986,8.023,20.4c6.534,6.909,10.967,5.871,12.561,2.455" fill="#fff2c2"/>
        <g id="Group_7910" data-name="Group 7910" opacity="0.2">
          <g id="Group_7909" data-name="Group 7909">
            <g id="Group_7908" data-name="Group 7908" clip-path="url(#clip-path-7)">
              <path id="Path_5584" data-name="Path 5584" d="M49.566,21.044s4.347-3.474,4.142-4.441-3.743-6.192-5.65-5.393-.342,6.165,1.508,9.834"/>
            </g>
          </g>
        </g>
        <g id="Group_7913" data-name="Group 7913" opacity="0.2">
          <g id="Group_7912" data-name="Group 7912">
            <g id="Group_7911" data-name="Group 7911" clip-path="url(#clip-path-8)">
              <path id="Path_5585" data-name="Path 5585" d="M42.406,10.882a9.7,9.7,0,0,1,2.214-2.6c1.3-.981,3.65-.3,6.219,1.509s-1.8-3.28-4.547-3.611-4.218,2.357-3.886,4.7"/>
            </g>
          </g>
        </g>
        <g id="Group_7916" data-name="Group 7916" opacity="0.2">
          <g id="Group_7915" data-name="Group 7915">
            <g id="Group_7914" data-name="Group 7914" clip-path="url(#clip-path-9)">
              <path id="Path_5586" data-name="Path 5586" d="M47.278,23.673s-2.3.632-3.466,1.069S26.6,41.5,26.644,41.558a29.039,29.039,0,0,0,6.682,6.6s-3.641-3.5-3.535-4.931S47.278,23.673,47.278,23.673"/>
            </g>
          </g>
        </g>
        <g id="Group_7919" data-name="Group 7919" opacity="0.2">
          <g id="Group_7918" data-name="Group 7918">
            <g id="Group_7917" data-name="Group 7917" clip-path="url(#clip-path-10)">
              <path id="Path_5587" data-name="Path 5587" d="M8.986,60.064,23.654,44.82a18.881,18.881,0,0,0,3.076,3.619,5.353,5.353,0,0,0-2.075-.357c-.563.177-13.2,12.487-13.2,12.487a2.744,2.744,0,0,1-2.469-.505"/>
            </g>
          </g>
        </g>
        <g id="Group_7922" data-name="Group 7922" opacity="0.66">
          <g id="Group_7921" data-name="Group 7921">
            <g id="Group_7920" data-name="Group 7920" clip-path="url(#clip-path-11)">
              <path id="Path_5588" data-name="Path 5588" d="M35.611,49.249c-.974.452-2.718-2.077-2.978-2.622S43.81,32.832,47.03,31.611s13.123,3.52,13.432,3.837-20.031,11.567-24.851,13.8" fill="#efed97"/>
            </g>
          </g>
        </g>
        <g id="Group_7925" data-name="Group 7925" opacity="0.66">
          <g id="Group_7924" data-name="Group 7924">
            <g id="Group_7923" data-name="Group 7923" clip-path="url(#clip-path-12)">
              <path id="Path_5589" data-name="Path 5589" d="M26.217,39.952C26.468,40.989,38.889,28.878,41,26.515s-2.5-13.278-2.023-14.849-12.322,13.2-13.97,16.588,1.209,11.7,1.209,11.7" fill="#fff4ba"/>
            </g>
          </g>
        </g>
        <g id="Group_7928" data-name="Group 7928" opacity="0.66">
          <g id="Group_7927" data-name="Group 7927">
            <g id="Group_7926" data-name="Group 7926" clip-path="url(#clip-path-13)">
              <path id="Path_5590" data-name="Path 5590" d="M9.176,57.894c.277.965,10.045-8.463,12-10.925s-.905-7.226-1.453-8.674S6.232,47.634,9.176,57.894" fill="#fff4ba"/>
            </g>
          </g>
        </g>
        <path id="Path_5591" data-name="Path 5591" d="M43.069,22.975s-3.475-5.148-4.027-9.02a10.812,10.812,0,0,1,.637-6.137s-2.062,6.017,3.39,15.157" fill="#fff"/>
        <path id="Path_5592" data-name="Path 5592" d="M52.342,29.407s-7.6-9.177-8.446-19.73c0,0-1.677,8.5,8.446,19.73" fill="#fff"/>
        <path id="Path_5593" data-name="Path 5593" d="M56.624,25.913c-1.986-1.985-1.546-5.356-1.546-5.356a10.721,10.721,0,0,0-.642,2.862c-.036,1.265,2.188,2.494,2.188,2.494" fill="#fff"/>
        <path id="Path_5594" data-name="Path 5594" d="M60.053,31.815s1.615-.732,1.369-4.24a20.63,20.63,0,0,0-1.987-6.906s2.371,4.419,2.529,7.673-1.911,3.473-1.911,3.473" fill="#fff"/>
        <g id="Group_7931" data-name="Group 7931" opacity="0.2">
          <g id="Group_7930" data-name="Group 7930">
            <g id="Group_7929" data-name="Group 7929" clip-path="url(#clip-path-14)">
              <path id="Path_5595" data-name="Path 5595" d="M32.482,52.421s-2.737,4.98-2.994,6.637,3.554-1.195,5.173-2.6a20.507,20.507,0,0,0,2.366-2.339s-3.277-1.08-4.545-1.7"/>
            </g>
          </g>
        </g>
        <path id="Path_5596" data-name="Path 5596" d="M15.044,37.254c-2.62,2.565-7.387,7.332-8.535,9.776C3.968,52.445,8.986,60.067,8.986,60.067s-5.82-7.1-3.558-13.535c.231-.661,4.481-4.353,9.616-9.278" fill="#fff"/>
        <g id="Group_7934" data-name="Group 7934" opacity="0.2" style="mix-blend-mode: multiply;isolation: isolate">
          <g id="Group_7933" data-name="Group 7933">
            <g id="Group_7932" data-name="Group 7932" clip-path="url(#clip-path-15)">
              <path id="Path_5597" data-name="Path 5597" d="M16.6,35.748s-.158.149-.427.414c.137-.14.275-.27.412-.409Z" fill="#742f85"/>
            </g>
          </g>
        </g>
      </g>
    </g>
    <g id="Group_7938" data-name="Group 7938">
      <g id="Group_7937" data-name="Group 7937" clip-path="url(#clip-path-16)">
        <rect id="Rectangle_3144" data-name="Rectangle 3144" width="39.381" height="39.578" transform="matrix(0.726, -0.687, 0.687, 0.726, 1.82, 39.791)" fill="url(#linear-gradient)"/>
      </g>
    </g>
    <g id="Group_7943" data-name="Group 7943">
      <g id="Group_7942" data-name="Group 7942" clip-path="url(#clip-path)">
        <g id="Group_7941" data-name="Group 7941" style="mix-blend-mode: soft-light;isolation: isolate">
          <g id="Group_7940" data-name="Group 7940">
            <g id="Group_7939" data-name="Group 7939" clip-path="url(#clip-path-18)">
              <path id="Path_5599" data-name="Path 5599" d="M20.272,29.623a11.185,11.185,0,0,0-1.993,5.284c-.45,3.89,2.477,9.145,2.716,9.641-3.988-6.425-3.6-10.789-2.944-12.122a15.749,15.749,0,0,1,2.221-2.8" fill="#89ffff"/>
            </g>
          </g>
        </g>
      </g>
    </g>
    <g id="Group_7945" data-name="Group 7945">
      <g id="Group_7944" data-name="Group 7944" clip-path="url(#clip-path-19)">
        <rect id="Rectangle_3147" data-name="Rectangle 3147" width="35.556" height="35.754" transform="matrix(0.726, -0.687, 0.687, 0.726, 5.883, 38.521)" fill="url(#linear-gradient-2)"/>
      </g>
    </g>
    <g id="Group_7953" data-name="Group 7953">
      <g id="Group_7952" data-name="Group 7952" clip-path="url(#clip-path)">
        <g id="Group_7948" data-name="Group 7948" opacity="0.5" style="mix-blend-mode: soft-light;isolation: isolate">
          <g id="Group_7947" data-name="Group 7947">
            <g id="Group_7946" data-name="Group 7946" clip-path="url(#clip-path-21)">
              <path id="Path_5601" data-name="Path 5601" d="M22.7,35.964c1.259,3.271.379-2.163.426-4.5A13.113,13.113,0,0,1,24.289,26.8S20.452,29.27,22.7,35.964" fill="#89ffff"/>
            </g>
          </g>
        </g>
        <g id="Group_7951" data-name="Group 7951" opacity="0.66">
          <g id="Group_7950" data-name="Group 7950">
            <g id="Group_7949" data-name="Group 7949" clip-path="url(#clip-path-22)">
              <path id="Path_5602" data-name="Path 5602" d="M24.807,65.574a2.065,2.065,0,0,1-.895.317,12.922,12.922,0,0,1-4.766-.856,24.4,24.4,0,0,1-7.128-4.186c.634.334,5.941,4.523,12.789,4.725" fill="#efed97"/>
            </g>
          </g>
        </g>
      </g>
    </g>
  </g>
</svg>
