<svg id="icon-writing-italic" xmlns="http://www.w3.org/2000/svg" width="120" height="120" viewBox="0 0 120 120">
  <path id="drop-shadow" d="M913.647-613.013v-.173l-.008.008a6.03,6.03,0,0,0-6.023-5.867H883.488a6.031,6.031,0,0,0-6.024,5.866l-.008-.007v4.5l.009-.012c0,.062-.009.123-.009.186a6.034,6.034,0,0,0,6.032,6.032h4.666l-3.96,31.686h-6.738a6.034,6.034,0,0,0-6.032,6.032v4.505a6.034,6.034,0,0,0,6.032,6.031h24.128a6.03,6.03,0,0,0,6.019-5.772l0,0v-.1c0-.055.009-.109.009-.164s-.007-.1-.008-.153l.008-4.352a6.034,6.034,0,0,0-6.032-6.032h-4.667l3.961-31.686h6.738a6.034,6.034,0,0,0,6.031-6.032c0-.055-.006-.107-.008-.161l.008-4.338Z" transform="translate(-834.405 649.473)" fill="#030303" opacity="0.3" style="isolation: isolate"/>
  <rect id="frame" width="120" height="120" fill="none"/>
  <path id="colour" d="M913.647-618.014v-.173l-.008.009a6.029,6.029,0,0,0-6.023-5.867H883.488a6.03,6.03,0,0,0-6.024,5.865l-.008-.007v4.505l.009-.013c0,.063-.009.123-.009.186a6.034,6.034,0,0,0,6.032,6.032h4.666l-3.96,31.686h-6.738a6.034,6.034,0,0,0-6.032,6.032v4.5a6.034,6.034,0,0,0,6.032,6.032h24.128a6.03,6.03,0,0,0,6.019-5.773l0,0v-.1c0-.055.009-.108.009-.164s-.007-.1-.008-.153l.008-4.352a6.034,6.034,0,0,0-6.032-6.032h-4.667l3.961-31.686h6.738a6.034,6.034,0,0,0,6.031-6.032c0-.054-.006-.106-.008-.16l.008-4.339Z" transform="translate(-834.405 649.473)"/>
  <path id="shadow" d="M-4251.967,7977.823a6.034,6.034,0,0,1-6.033-6.032v-4.5a6.034,6.034,0,0,0,6.033,6.032h24.126a6.034,6.034,0,0,0,6.033-6.032l-.008,4.353c0,.052.008.1.008.152s-.006.108-.008.164v.1l0,0a6.031,6.031,0,0,1-6.021,5.774Zm18.9-16.57,4.525-36.191h6.737a6.032,6.032,0,0,0,6.031-6.03v.006l-.008,4.339c0,.054.008.106.008.16a6.032,6.032,0,0,1-6.031,6.03h-6.737l-3.962,31.687Zm-12.866-31.687a6.031,6.031,0,0,1-6.031-6.03c0-.064.006-.124.008-.187l-.008.012v-4.5l.006.008c0,.056-.006.111-.006.167a6.031,6.031,0,0,0,6.031,6.03h5.229l-.562,4.5Zm30.15-10.7.008-.01v.168C-4215.777,7918.972-4215.783,7918.921-4215.786,7918.867Zm0,0v0h0Zm-36.175,0v0Zm34.738-3.746.01.012Zm-33.292-.006-.018.018Zm32.877-.433c.012.012.026.024.04.036C-4217.611,7914.705-4217.625,7914.693-4217.638,7914.681Zm-32.465,0a.552.552,0,0,1-.044.04A.552.552,0,0,0-4250.1,7914.677Zm32-.4c.026.022.054.04.082.063C-4218.046,7914.32-4218.074,7914.3-4218.1,7914.28Zm-31.544,0c-.026.02-.054.038-.08.06C-4249.7,7914.32-4249.67,7914.3-4249.645,7914.283Zm.5-.354c-.042.026-.086.05-.128.078C-4249.226,7913.978-4249.182,7913.954-4249.14,7913.928Zm30.541,0c.04.024.082.046.122.072Zm-.52-.292c.05.023.1.045.153.072C-4219.015,7913.686-4219.068,7913.663-4219.118,7913.64Zm-29.481-.014c-.06.03-.12.054-.178.086C-4248.721,7913.68-4248.659,7913.656-4248.6,7913.626Zm29.456,0,.025.012Zm-.575-.249c.078.028.156.054.232.086C-4219.562,7913.434-4219.64,7913.41-4219.718,7913.379Zm-28.313,0c-.076.028-.152.052-.228.084C-4248.183,7913.434-4248.106,7913.41-4248.031,7913.381Zm27.706-.19c.1.024.2.046.292.074C-4220.128,7913.237-4220.227,7913.215-4220.325,7913.191Zm-27.1,0c-.1.024-.2.046-.29.074C-4247.616,7913.237-4247.516,7913.215-4247.42,7913.191Zm26.438-.128c.126.016.252.032.376.056C-4220.729,7913.1-4220.855,7913.079-4220.981,7913.063Zm-25.778,0c-.128.018-.256.034-.38.058C-4247.016,7913.1-4246.887,7913.079-4246.759,7913.061Zm24.951-.062a5.609,5.609,0,0,1,.611.032A5.609,5.609,0,0,0-4221.808,7913Zm-24.128,0c-.207,0-.409.01-.611.03C-4246.347,7913.009-4246.143,7913-4245.936,7913Z" transform="translate(4295.019 -7887.572)" fill="#030303" stroke="rgba(0,0,0,0)" stroke-miterlimit="10" stroke-width="1" opacity="0.5"/>
</svg>