<svg xmlns="http://www.w3.org/2000/svg" width="120" height="120" viewBox="0 0 120 120"><defs><style>.a{fill:#fff;}.b{fill:#3ba6dd;}.c{fill:#ffef00;}.d{fill:none;}</style></defs><g transform="translate(-4001.944 -553.685)"><path class="a" d="M4032.345,637.468"/><line class="a" y1="46.815" x2="49.961" transform="translate(4037.078 581.194)"/><path class="a" d="M4036.181,627.05l49.961-46.814a1.313,1.313,0,0,1,1.8,1.916l-49.963,46.815a1.313,1.313,0,1,1-1.794-1.917Z"/><line class="a" y1="46.813" x2="49.961" transform="translate(4040.258 584.587)"/><path class="a" d="M4039.36,630.442l49.96-46.814a1.314,1.314,0,1,1,1.8,1.917l-49.963,46.814a1.313,1.313,0,1,1-1.794-1.917Z"/><path class="a" d="M4033.334,623.047l48.779-45.706a3.473,3.473,0,0,1,4.909.159l6.709,7.16a3.472,3.472,0,0,1-.157,4.914l-48.78,45.706a3.477,3.477,0,0,1-4.907-.165l-6.713-7.162a3.473,3.473,0,0,1,.16-4.906Zm58.481-36.59-6.71-7.161a.847.847,0,0,0-.591-.266.838.838,0,0,0-.606.229l-48.777,45.7a.861.861,0,0,0-.04,1.2l6.712,7.161a.848.848,0,0,0,1.2.043l48.779-45.705a.847.847,0,0,0,.209-.93A.864.864,0,0,0,4091.815,586.457Z"/><path class="a" d="M4028.5,637.614l3.833-12.815a1.314,1.314,0,0,1,2.518.753l-3.178,10.624,10.559-2.559a1.313,1.313,0,0,1,.618,2.553l-12.781,3.1a1.314,1.314,0,0,1-1.263-.373,1.293,1.293,0,0,1-.27-.425A1.311,1.311,0,0,1,4028.5,637.614Z"/><path class="b" d="M4040.334,631.76l50.058-46.815,1.918-1.794,1.461,1.563a3.468,3.468,0,0,1-.172,4.882l-49.1,45.916a3.48,3.48,0,0,1-4.629-.4l-1.219-1.3-.237-.253Z"/><rect class="c" width="73.789" height="5.587" transform="translate(4034.601 629.473) rotate(-43.084)"/><path class="c" d="M4060.169,652.477l-.465,0a42.6,42.6,0,0,1-30.187-12.879,3.108,3.108,0,1,1,4.442-4.349,36.665,36.665,0,0,0,51.848.547,3.108,3.108,0,1,1,4.349,4.442A42.594,42.594,0,0,1,4060.169,652.477Z"/><path class="b" d="M4087.048,577.527l1.445,1.544-1.919,1.8-50.057,46.814-1.917,1.792-1.49-1.593a3.464,3.464,0,0,1,.219-4.842l48.809-45.673a3.475,3.475,0,0,1,4.91.163Z"/><path class="a" d="M4034.421,626.867l6.542,7.061,2.03,2.191a1.134,1.134,0,0,1-.183.065l-9.518,2.307-3.848-4.154,2.849-9.524a1.321,1.321,0,0,1,.07-.169Z"/><path class="b" d="M4032.529,633.2l2.094,2.26,2.045,2.208-6.636,1.608a1.313,1.313,0,0,1-1.263-.372,1.348,1.348,0,0,1-.27-.425,1.329,1.329,0,0,1-.036-.857l1.993-6.66Z"/><path class="c" d="M4095.922,631.838a3.093,3.093,0,1,1-3.092-3.093A3.092,3.092,0,0,1,4095.922,631.838Z"/><rect class="a" width="7.858" height="16.809" transform="translate(4078.964 580.272) rotate(-43.202)"/></g><rect class="d" width="120" height="120"/></svg>