<svg id="writing-tool-align-center" xmlns="http://www.w3.org/2000/svg" width="120" height="120" viewBox="0 0 120 120">
  <path id="drop-shadow" d="M-2989.925,6763.722a4.374,4.374,0,0,1-3.371-1.528,4.25,4.25,0,0,1-.98-2.739c0-.048,0-.1,0-.144h-.014v-4.693h.029a4.247,4.247,0,0,1,.964-2.4,4.365,4.365,0,0,1,3.369-1.527h51.1a4.38,4.38,0,0,1,3.385,1.534,4.25,4.25,0,0,1,.958,2.394h.029v4.693h-.014c0,.048,0,.1,0,.143a4.239,4.239,0,0,1-.976,2.732,4.381,4.381,0,0,1-3.385,1.535Zm12.791-17.457a4.373,4.373,0,0,1-3.37-1.528,4.234,4.234,0,0,1-.978-2.731c0-.082,0-.165.007-.247h-.022v-4.021h.022c0-.083-.007-.165-.007-.247a4.234,4.234,0,0,1,.978-2.731,4.373,4.373,0,0,1,3.37-1.528h25.515a4.377,4.377,0,0,1,3.385,1.536,4.236,4.236,0,0,1,.971,2.724c0,.082,0,.164-.007.246h.022v4.021h-.022c0,.082.007.164.007.246a4.243,4.243,0,0,1-.971,2.725,4.38,4.38,0,0,1-3.385,1.535Zm0-16.763a4.373,4.373,0,0,1-3.37-1.528,4.264,4.264,0,0,1-.991-2.733h0v-4.021h.042a4.257,4.257,0,0,1,.95-3.222,4.372,4.372,0,0,1,3.37-1.527h25.515a4.38,4.38,0,0,1,3.385,1.534,4.266,4.266,0,0,1,.945,3.215h.041v4.021a4.265,4.265,0,0,1-.986,2.725,4.377,4.377,0,0,1-3.385,1.536Zm-12.791-16.944a4.365,4.365,0,0,1-3.369-1.527,4.246,4.246,0,0,1-.956-2.307h-.037v-4.692h.021a4.269,4.269,0,0,1,.971-2.977,4.374,4.374,0,0,1,3.371-1.528h51.1a4.381,4.381,0,0,1,3.385,1.535,4.251,4.251,0,0,1,.966,2.97h.02v4.692h-.037a4.248,4.248,0,0,1-.949,2.3,4.38,4.38,0,0,1-3.385,1.534Z" transform="translate(3024.373 -6668.471)" fill="#020202" stroke="rgba(0,0,0,0)" stroke-width="1" opacity="0.3"/>
  <path id="colour" d="M-2989.925,6763.723a4.359,4.359,0,0,1-3.37-1.53,4.235,4.235,0,0,1-.982-2.737c0-.048,0-.1,0-.143h-.014v-4.693h.029a4.262,4.262,0,0,1,.964-2.4,4.364,4.364,0,0,1,3.37-1.528h51.1a4.38,4.38,0,0,1,3.385,1.535,4.239,4.239,0,0,1,.958,2.394h.029v4.693h-.012c0,.047,0,.1,0,.143a4.246,4.246,0,0,1-.977,2.731,4.376,4.376,0,0,1-3.385,1.537Zm12.79-17.457a4.373,4.373,0,0,1-3.369-1.528,4.243,4.243,0,0,1-.978-2.731q0-.123.007-.246h-.022v-4.021h.022c0-.082-.007-.164-.007-.247a4.242,4.242,0,0,1,.978-2.731,4.375,4.375,0,0,1,3.369-1.527h25.515a4.38,4.38,0,0,1,3.385,1.534,4.243,4.243,0,0,1,.972,2.725c0,.082,0,.164-.007.246h.022v4.021h-.022c0,.082.007.163.007.245a4.241,4.241,0,0,1-.972,2.724,4.375,4.375,0,0,1-3.385,1.536Zm0-16.763a4.37,4.37,0,0,1-3.369-1.527,4.267,4.267,0,0,1-.991-2.733h0v-4.023h.042a4.255,4.255,0,0,1,.951-3.22,4.37,4.37,0,0,1,3.369-1.53h25.515a4.382,4.382,0,0,1,3.385,1.537,4.248,4.248,0,0,1,.946,3.213h.041v4.023a4.27,4.27,0,0,1-.986,2.724,4.375,4.375,0,0,1-3.385,1.536Zm-12.79-16.944a4.37,4.37,0,0,1-3.37-1.528,4.252,4.252,0,0,1-.956-2.307h-.037v-4.694h.022a4.252,4.252,0,0,1,.971-2.976,4.364,4.364,0,0,1,3.37-1.528h51.1a4.377,4.377,0,0,1,3.385,1.536,4.245,4.245,0,0,1,.966,2.967h.021v4.694h-.037a4.257,4.257,0,0,1-.949,2.3,4.38,4.38,0,0,1-3.385,1.535Z" transform="translate(3024.373 -6673.472)" stroke="rgba(0,0,0,0)" stroke-width="1"/>
  <path id="shadow" d="M-2989.925,6761.529a4.368,4.368,0,0,1-3.37-1.529,4.246,4.246,0,0,1-.955-2.306h-.037V6753h.021a4.278,4.278,0,0,0,.972,2.5,4.371,4.371,0,0,0,3.37,1.527h51.1a4.374,4.374,0,0,0,3.384-1.536,4.252,4.252,0,0,0,.966-2.488h.02v4.692h-.036a4.251,4.251,0,0,1-.95,2.3,4.375,4.375,0,0,1-3.384,1.536Zm12.79-17.421a4.37,4.37,0,0,1-3.37-1.527,4.264,4.264,0,0,1-.991-2.732v-4.023h.041a4.267,4.267,0,0,0,.95,2.25,4.371,4.371,0,0,0,3.37,1.527h25.515a4.385,4.385,0,0,0,3.385-1.534,4.255,4.255,0,0,0,.944-2.244h.042v4.023a4.275,4.275,0,0,1-.986,2.726,4.385,4.385,0,0,1-3.385,1.534Zm0-16.8a4.373,4.373,0,0,1-3.37-1.529,4.267,4.267,0,0,1-.991-2.734v-4.021h.041a4.265,4.265,0,0,0,.95,2.25,4.373,4.373,0,0,0,3.37,1.529h25.515a4.385,4.385,0,0,0,3.385-1.536,4.255,4.255,0,0,0,.944-2.243h.042v4.021a4.272,4.272,0,0,1-.986,2.726,4.382,4.382,0,0,1-3.385,1.537Zm29.856-9.132c0,.014,0,.028,0,.042Zm-34.183-.043c0,.027,0,.056-.007.083C-2981.466,6718.191-2981.464,6718.163-2981.462,6718.135Zm34.179,0,0,.042C-2947.281,6718.165-2947.282,6718.151-2947.283,6718.137Zm-.16-.825c.012.043.022.086.032.13C-2947.422,6717.4-2947.431,6717.355-2947.442,6717.313Zm-33.852-.027c-.017.051-.027.1-.041.151C-2981.321,6717.385-2981.311,6717.336-2981.294,6717.285Zm33.845,0,.007.024Zm-.322-.779c.031.058.052.117.081.176C-2947.719,6716.627-2947.741,6716.567-2947.771,6716.51Zm-33.2,0c-.031.056-.051.117-.08.175C-2981.023,6716.622-2981,6716.561-2980.972,6716.5Zm32.737-.692a4.057,4.057,0,0,0-.7-.66,4.057,4.057,0,0,1,.7.66l0,0Zm-41.69-5.447a4.368,4.368,0,0,1-3.37-1.529,4.248,4.248,0,0,1-.955-2.3h-.037v-4.693h.021a4.268,4.268,0,0,0,.972,2.494,4.371,4.371,0,0,0,3.37,1.527h51.1a4.378,4.378,0,0,0,3.384-1.534,4.25,4.25,0,0,0,.966-2.487h.02v4.693h-.036a4.247,4.247,0,0,1-.95,2.3,4.374,4.374,0,0,1-3.384,1.536Zm55.42-9.312v0Zm-59.735,0v0Zm59.562-.781c.007.022.01.046.017.068C-2934.668,6700.314-2934.671,6700.291-2934.678,6700.269Zm-59.387,0c-.007.022-.012.044-.019.066C-2994.077,6700.309-2994.072,6700.287-2994.065,6700.265Zm59.07-.731c.022.038.036.08.054.119C-2934.96,6699.614-2934.975,6699.571-2935,6699.534Zm-58.751-.007c-.022.039-.036.082-.056.121C-2993.782,6699.608-2993.768,6699.566-2993.746,6699.527Z" transform="translate(3024.373 -6671.277)" fill="#020202" stroke="rgba(0,0,0,0)" stroke-width="1" opacity="0.5"/>
  <rect id="frame" width="120" height="120" fill="none"/>
</svg>
