<svg id="writing-tool-align-left" xmlns="http://www.w3.org/2000/svg" width="120" height="120" viewBox="0 0 120 120">
  <rect id="frame" width="120" height="120" fill="none"/>
  <path id="drop-shadow" d="M-3134.385,6951.722a4.372,4.372,0,0,1-3.371-1.528,4.271,4.271,0,0,1-.991-2.736v-4.264h.021a4.254,4.254,0,0,1,.972-2.977,4.366,4.366,0,0,1,3.369-1.528h51.1a4.381,4.381,0,0,1,3.385,1.535,4.251,4.251,0,0,1,.967,2.97h.021v4.264a4.266,4.266,0,0,1-.987,2.729,4.374,4.374,0,0,1-3.385,1.536Zm0-17.457a4.366,4.366,0,0,1-3.369-1.528,4.249,4.249,0,0,1-.972-2.977h-.021V6925.5a4.27,4.27,0,0,1,.991-2.736,4.379,4.379,0,0,1,3.371-1.528h25.514a4.379,4.379,0,0,1,3.385,1.537,4.258,4.258,0,0,1,.986,2.727v4.264h-.019a4.249,4.249,0,0,1-.967,2.97,4.383,4.383,0,0,1-3.385,1.535Zm0-16.763a4.366,4.366,0,0,1-3.369-1.528,4.256,4.256,0,0,1-.993-2.736v-4.262h.021a4.263,4.263,0,0,1,.97-2.979,4.379,4.379,0,0,1,3.371-1.528h25.514a4.382,4.382,0,0,1,3.385,1.536,4.26,4.26,0,0,1,.967,2.971h.019v4.262a4.266,4.266,0,0,1-.986,2.729,4.382,4.382,0,0,1-3.385,1.535Zm0-16.944a4.363,4.363,0,0,1-3.367-1.528,4.257,4.257,0,0,1-.993-2.736v-4.262h.021a4.262,4.262,0,0,1,.97-2.978,4.372,4.372,0,0,1,3.369-1.527h51.1a4.373,4.373,0,0,1,3.383,1.536,4.247,4.247,0,0,1,.967,2.969h.021v4.262a4.27,4.27,0,0,1-.987,2.729,4.37,4.37,0,0,1-3.383,1.536Z" transform="translate(3168.833 -6856.471)" fill="#0a0909" stroke="rgba(0,0,0,0)" stroke-width="1"/>
  <path id="colour" d="M-3134.386,6951.723a4.366,4.366,0,0,1-3.369-1.528,4.268,4.268,0,0,1-.993-2.735v-4.264h.021a4.253,4.253,0,0,1,.972-2.976,4.366,4.366,0,0,1,3.369-1.528h51.1a4.377,4.377,0,0,1,3.386,1.535,4.254,4.254,0,0,1,.965,2.969h.021v4.264a4.279,4.279,0,0,1-.986,2.729,4.382,4.382,0,0,1-3.386,1.535Zm0-17.457a4.366,4.366,0,0,1-3.369-1.528,4.25,4.25,0,0,1-.972-2.976h-.021V6925.5a4.272,4.272,0,0,1,.993-2.735,4.371,4.371,0,0,1,3.369-1.528h25.514a4.385,4.385,0,0,1,3.386,1.535,4.269,4.269,0,0,1,.986,2.729v4.264h-.021a4.257,4.257,0,0,1-.965,2.969,4.385,4.385,0,0,1-3.386,1.535Zm0-16.762a4.366,4.366,0,0,1-3.369-1.528,4.269,4.269,0,0,1-.993-2.736v-4.264h.021a4.247,4.247,0,0,1,.972-2.975,4.363,4.363,0,0,1,3.369-1.53h25.514a4.381,4.381,0,0,1,3.386,1.537,4.25,4.25,0,0,1,.965,2.967h.021v4.264a4.265,4.265,0,0,1-.986,2.729,4.379,4.379,0,0,1-3.386,1.536Zm0-16.944a4.363,4.363,0,0,1-3.367-1.528,4.272,4.272,0,0,1-.993-2.735v-4.264h.021a4.254,4.254,0,0,1,.972-2.977,4.363,4.363,0,0,1,3.367-1.528h51.1a4.378,4.378,0,0,1,3.385,1.537,4.248,4.248,0,0,1,.965,2.968h.021v4.264a4.275,4.275,0,0,1-.986,2.729,4.374,4.374,0,0,1-3.385,1.535Z" transform="translate(3168.833 -6861.472)" stroke="rgba(0,0,0,0)" stroke-width="1"/>
  <path id="shadow" d="M-3134.387,6951.331a4.362,4.362,0,0,1-3.367-1.528,4.247,4.247,0,0,1-.993-2.735h0V6942.8h.021a4.269,4.269,0,0,0,.974,2.495,4.368,4.368,0,0,0,3.367,1.528h51.1a4.375,4.375,0,0,0,3.383-1.537,4.249,4.249,0,0,0,.965-2.486h.021v4.264a4.278,4.278,0,0,1-.986,2.729,4.38,4.38,0,0,1-3.383,1.535Zm0-17.458a4.37,4.37,0,0,1-3.369-1.526,4.254,4.254,0,0,1-.993-2.737h0v-4.264h.021a4.258,4.258,0,0,0,.974,2.495,4.365,4.365,0,0,0,3.369,1.528h25.514a4.381,4.381,0,0,0,3.384-1.535,4.249,4.249,0,0,0,.967-2.488h.019v4.264a4.261,4.261,0,0,1-.986,2.729,4.376,4.376,0,0,1-3.384,1.535Zm0-16.762a4.365,4.365,0,0,1-3.369-1.528,4.248,4.248,0,0,1-.993-2.736h0v-4.264h.021a4.265,4.265,0,0,0,.974,2.5,4.366,4.366,0,0,0,3.369,1.528h25.514a4.381,4.381,0,0,0,3.384-1.535,4.253,4.253,0,0,0,.967-2.488h.019v4.264a4.264,4.264,0,0,1-.986,2.729,4.375,4.375,0,0,1-3.384,1.535Zm29.839-9.312v0Zm-34.155,0v0Zm34-.725,0,.01Zm-33.819-.062c-.007.022-.012.045-.019.068C-3138.537,6907.056-3138.534,6907.033-3138.525,6907.01Zm33.8,0a.386.386,0,0,1,.015.057C-3104.711,6907.052-3104.715,6907.033-3104.721,6907.015Zm-.316-.736c.021.038.033.08.054.119C-3105,6906.359-3105.015,6906.317-3105.036,6906.279Zm-33.171-.007c-.021.041-.035.084-.056.124C-3138.242,6906.356-3138.23,6906.313-3138.207,6906.272Zm.452-.665a4.15,4.15,0,0,1,.694-.658,4.15,4.15,0,0,0-.694.658l0,0Zm28.885-1.528a4.575,4.575,0,0,1,1.868.395A4.575,4.575,0,0,0-3108.871,6904.079Zm-25.516-3.913a4.361,4.361,0,0,1-3.367-1.528,4.243,4.243,0,0,1-.993-2.734h0v-4.266h.021a4.258,4.258,0,0,0,.974,2.495,4.362,4.362,0,0,0,3.367,1.528h51.1a4.373,4.373,0,0,0,3.383-1.535,4.26,4.26,0,0,0,.965-2.488h.021v4.266a4.272,4.272,0,0,1-.986,2.727,4.372,4.372,0,0,1-3.383,1.535Zm55.421-9.312,0,0Zm-59.735,0v0Zm59.563-.782c.007.023.01.044.017.066C-3079.128,6890.116-3079.132,6890.093-3079.138,6890.07Zm-59.4.055,0,.008Zm.017-.058c-.006.02-.011.04-.017.058C-3138.536,6890.106-3138.532,6890.086-3138.525,6890.067Zm59.069-.732c.023.038.035.08.056.119C-3079.421,6889.415-3079.435,6889.375-3079.456,6889.334Zm-58.751-.005c-.021.038-.035.082-.056.122C-3138.242,6889.411-3138.228,6889.367-3138.207,6889.329Zm.452-.665a4.154,4.154,0,0,1,1.511-1.138,4.154,4.154,0,0,0-1.511,1.138l0,0Z" transform="translate(3168.833 -6861.08)" fill="#0a0909" stroke="rgba(0,0,0,0)" stroke-width="1"/>
</svg>
