<svg id="writing-tool-underline" xmlns="http://www.w3.org/2000/svg" width="120" height="120" viewBox="0 0 120 120">
  <path id="drop-shadow" d="M-3278.609,7140.35a4.417,4.417,0,0,1-3.4-1.544,4.314,4.314,0,0,1-.994-2.668h-.007v-4.4h.016a4.3,4.3,0,0,1,.986-2.958,4.419,4.419,0,0,1,3.4-1.546h33.763a4.43,4.43,0,0,1,3.421,1.552,4.3,4.3,0,0,1,.979,2.953h.018v4.31h0v.093h-.009a4.322,4.322,0,0,1-.988,2.663,4.435,4.435,0,0,1-3.421,1.55Zm-4.475-34.82V7082c.052-8.306,12.686-8.356,12.8,0v19.237c-.181,11.845,17.076,11.513,17.062,0v-19.053a6.406,6.406,0,0,1,1.781-4.693,6.4,6.4,0,0,1,4.616-1.967,6.407,6.407,0,0,1,4.618,1.967,6.406,6.406,0,0,1,1.781,4.693v23.343c.048,14.452-10.633,21.675-21.319,21.674S-3283.124,7119.976-3283.083,7105.53Z" transform="translate(3321.754 -7045.099)" fill="#0a0909" stroke="rgba(0,0,0,0)" stroke-width="1"/>
  <path id="colour" d="M-3278.609,7140.351a4.422,4.422,0,0,1-3.4-1.545,4.305,4.305,0,0,1-.993-2.67h-.009v-4.4h.018a4.293,4.293,0,0,1,.984-2.96,4.423,4.423,0,0,1,3.4-1.544h33.763a4.425,4.425,0,0,1,3.421,1.552,4.293,4.293,0,0,1,.978,2.953h.018v4.308h0v.093h-.009a4.308,4.308,0,0,1-.987,2.663,4.425,4.425,0,0,1-3.421,1.552Zm-4.475-34.82V7082c.052-8.3,12.686-8.354,12.8,0v19.237c-.181,11.845,17.076,11.513,17.062,0v-19.053a6.4,6.4,0,0,1,1.781-4.691,6.4,6.4,0,0,1,4.616-1.968,6.4,6.4,0,0,1,4.618,1.968,6.4,6.4,0,0,1,1.781,4.691v23.344c.047,14.453-10.633,21.676-21.319,21.674S-3283.124,7119.977-3283.084,7105.53Z" transform="translate(3321.754 -7050.275)" stroke="rgba(0,0,0,0)" stroke-width="1"/>
  <path id="shadow" d="M-3278.547,7114.632a4.415,4.415,0,0,1-3.405-1.545,4.307,4.307,0,0,1-.993-2.669h-.009v-4.405h.018a4.3,4.3,0,0,0,.984,2.569,4.417,4.417,0,0,0,3.405,1.545h33.763a4.428,4.428,0,0,0,3.421-1.552,4.3,4.3,0,0,0,.978-2.562h.018v4.405h-.009a4.324,4.324,0,0,1-.987,2.662,4.428,4.428,0,0,1-3.421,1.552Zm-4.537-34.6v-4.5c-.08,28.832,42.57,28.905,42.655.184v4.321c.048,14.452-10.633,21.674-21.317,21.674S-3283.124,7094.479-3283.084,7080.031Zm42.655-4.5v0Z" transform="translate(3321.692 -7024.576)" fill="#0a0909" stroke="rgba(0,0,0,0)" stroke-width="1" opacity="0.5"/>
  <rect id="frame" width="120" height="120" fill="none"/>
</svg>
