<svg id="writing-tool-text-color" xmlns="http://www.w3.org/2000/svg" width="119.305" height="119.305" viewBox="0 0 119.305 119.305">
  <rect id="Frame" width="119.305" height="119.305" fill="none"/>
  <path id="drop-shadow" d="M2033.661-277.5c.008-.133.021-.265.021-.4a18.24,18.24,0,0,0-1.768-6.461l-13.376-33.04c-.647-1.7-1.162-3.009-1.573-4.008a17.44,17.44,0,0,0-1.759-3.251,9.515,9.515,0,0,0-3.177-2.88,9.77,9.77,0,0,0-4.864-1.149,9.687,9.687,0,0,0-4.827,1.149,9.355,9.355,0,0,0-3.2,2.94,20.1,20.1,0,0,0-1.934,3.826l-.508,1.3-.839,2.151-13.114,33.287c-.556,1.379-.956,2.459-1.214,3.283a9.83,9.83,0,0,0-.465,2.924c0,.017,0,.033,0,.05h0v6.069h.012a6.944,6.944,0,0,0,2.274,4.845,7.434,7.434,0,0,0,5.2,2.131,6.29,6.29,0,0,0,5.337-2.349,24.493,24.493,0,0,0,2.8-5.833l1.838-4.934h17.354l1.83,4.81c.008.021.016.042.025.062.326.795.728,1.737,1.194,2.8a13.208,13.208,0,0,0,1.608,2.859,6.8,6.8,0,0,0,2.323,1.882,7.134,7.134,0,0,0,3.224.7,7.441,7.441,0,0,0,5.368-2.225,7.094,7.094,0,0,0,2.226-5.054c0-.15-.01-.309-.021-.469Z" transform="translate(-1946.044 359.869)" fill="#000202" opacity="0.3" style="isolation: isolate"/>
  <path id="colour" d="M2033.661-282.549c.008-.133.021-.266.021-.4a18.239,18.239,0,0,0-1.768-6.462l-13.376-33.04c-.647-1.7-1.162-3.008-1.573-4.007a17.416,17.416,0,0,0-1.759-3.252,9.512,9.512,0,0,0-3.177-2.879,9.771,9.771,0,0,0-4.864-1.15,9.7,9.7,0,0,0-4.827,1.149,9.368,9.368,0,0,0-3.2,2.941,20.086,20.086,0,0,0-1.934,3.825l-.508,1.3-.839,2.151-13.114,33.288c-.556,1.379-.956,2.459-1.214,3.283a9.824,9.824,0,0,0-.465,2.923c0,.017,0,.034,0,.05h0v6.069h.012a6.948,6.948,0,0,0,2.274,4.846,7.434,7.434,0,0,0,5.2,2.131,6.288,6.288,0,0,0,5.337-2.35,24.461,24.461,0,0,0,2.8-5.832l1.838-4.935h17.354l1.83,4.811c.008.021.016.041.025.062.326.794.728,1.736,1.194,2.8a13.219,13.219,0,0,0,1.608,2.86,6.813,6.813,0,0,0,2.323,1.882,7.147,7.147,0,0,0,3.224.7,7.442,7.442,0,0,0,5.368-2.226,7.091,7.091,0,0,0,2.226-5.054c0-.149-.01-.308-.021-.468Zm-26.543-24.422,1.95,5.341H2005.2Z" transform="translate(-1946.044 359.869)"/>
  <path id="shadow" d="M-2273.522,8519.148a6.823,6.823,0,0,1-2.322-1.882,13.212,13.212,0,0,1-1.608-2.859c-.466-1.064-.868-2-1.2-2.8-.009-.02-.017-.04-.023-.06l-1.83-4.813h-17.354l-1.839,4.938a24.569,24.569,0,0,1-2.8,5.831,6.283,6.283,0,0,1-5.337,2.35,7.421,7.421,0,0,1-5.2-2.132,6.923,6.923,0,0,1-2.288-5.078c0-.949-.032-3.866,0-3.965a12.9,12.9,0,0,0,2.288,3.156,7.429,7.429,0,0,0,5.2,2.132,6.288,6.288,0,0,0,5.337-2.348,24.573,24.573,0,0,0,2.8-5.833l1.839-4.935h17.354l1.83,4.811c.006.02.015.041.023.063.327.793.729,1.735,1.2,2.8a13.274,13.274,0,0,0,1.608,2.858,6.823,6.823,0,0,0,2.322,1.882,7.144,7.144,0,0,0,3.224.7,7.45,7.45,0,0,0,5.369-2.224,11.31,11.31,0,0,0,2.2-2.583c-.038,1.45.021,2.547.021,3.415a7.088,7.088,0,0,1-2.226,5.053,7.444,7.444,0,0,1-5.369,2.226A7.144,7.144,0,0,1-2273.522,8519.148Zm-13.8-31.144-1.95-5.341-1.916,5.341h-2.11l4.026-11.228,4.1,11.228Z" transform="translate(2350.341 -8429.766)" fill="#020000" stroke="rgba(0,0,0,0)" stroke-miterlimit="10" stroke-width="1" opacity="0.5"/>
  <path id="drop-shadow-2" data-name="drop-shadow" d="M2003.638-343.238a21.038,21.038,0,0,0-12.517-9.4A21.035,21.035,0,0,0,1975.552-351a19,19,0,0,0-9.526,11.76l-1.429,5.175a1.547,1.547,0,0,0,1.06,1.887l-.332,1.2-.125.452a5.14,5.14,0,0,0,.548,3.8l-.343,2.189-3.241,20.691a3.688,3.688,0,0,0,.559,2.888,11.473,11.473,0,0,0,3.234,3.251,28.746,28.746,0,0,0,8.86,4.018,26.977,26.977,0,0,0,10.989.94v0c.063-.01.121-.025.184-.036.19-.033.377-.068.558-.108.1-.021.2-.044.3-.068.169-.041.333-.086.494-.132.092-.027.184-.054.273-.082.166-.054.325-.112.48-.172.071-.028.146-.053.215-.082.219-.092.429-.189.624-.294.11-.058.216-.12.317-.183v0a3.51,3.51,0,0,0,1.645-2.006l7.84-19.421.829-2.054c.064-.04.123-.081.184-.121s.1-.068.153-.1c.174-.121.341-.245.495-.376l.033-.024v0a4.744,4.744,0,0,0,1.555-2.353l.125-.452.322-1.169a1.549,1.549,0,0,0,1.91-1.069l1.438-5.205A19,19,0,0,0,2003.638-343.238Zm-12.927-7.919c10.13,2.8,16.213,12.885,13.561,22.486l-1,3.626c.612-2.36-.794-5.061-3.972-7.612a34.415,34.415,0,0,0-12.112-5.8,34.4,34.4,0,0,0-13.372-1.237c-3.783.523-6.3,1.957-7.164,4.06l.88-3.184C1970.182-348.421,1980.581-353.956,1990.711-351.157Zm10.163,29.125h0c.134-.084.265-.168.389-.257h0C2001.139-322.2,2001.007-322.115,2000.874-322.032Zm-.263.163c-.155.088-.321.171-.488.253h0c.168-.082.334-.165.49-.254Zm-.732.375c-.257.117-.526.228-.81.33.284-.1.553-.213.811-.33Zm-11.651-.352-1.082-.3a41.325,41.325,0,0,1-4.209-.932,41.2,41.2,0,0,1-4.091-1.361l-1.082-.3c-2.912-1.242-14.01-6.814-8.823-11.133,1.42-1.182,3.381-1.407,5.221-1.583a49.141,49.141,0,0,1,6-.328c6.384.171,12.5,2.838,17.741,6.485,1.625,1.13,3.3,2.545,3.62,4.5C2002.559-320.455,1991.715-321.369,1988.228-321.846Z" transform="translate(-1946.044 359.869)" fill="#020000" opacity="0.3"/>
  <path id="colour-2" data-name="colour" d="M1972.057-338.583a5.821,5.821,0,0,0-3.777,2.151c-1.029,1.621-.45,3.782.489,5.456a14.8,14.8,0,0,0,5.765,5.705,27.1,27.1,0,0,0,5.6,2.1c2.5.718,5.018,1.379,7.569,1.886a18.581,18.581,0,0,0,4.658.466,21.648,21.648,0,0,0,5.191-1.169,4.786,4.786,0,0,0,2.537-1.423,4.753,4.753,0,0,0,.586-1.207,5.554,5.554,0,0,0,.5-3.372,5.372,5.372,0,0,0-1.031-1.767,17.375,17.375,0,0,0-3.733-3.839,18.933,18.933,0,0,0-5.044-2.167c-3.262-1.039-6.683-2.571-10.048-3.185A23.654,23.654,0,0,0,1972.057-338.583Z" transform="translate(-1946.044 359.869)"/>
  <path id="Path_3295" data-name="Path 3295" d="M1988.4-325.356a40.858,40.858,0,0,1-5.335-1.1,40.821,40.821,0,0,1-5.145-1.791l-11.808-3.262-.544,3.468-3.241,20.69a3.694,3.694,0,0,0,.559,2.889,11.489,11.489,0,0,0,3.234,3.251,28.781,28.781,0,0,0,8.86,4.018c5.834,1.611,11.268,1.5,14.112-.03a3.685,3.685,0,0,0,1.962-2.192l7.84-19.42,1.313-3.255Z" transform="translate(-1946.044 359.869)" fill="#bbbdbc"/>
  <path id="Path_3296" data-name="Path 3296" d="M1966.116-301.215a11.489,11.489,0,0,1-3.234-3.251,3.694,3.694,0,0,1-.559-2.889l3.241-20.69.544-3.468,5.667,1.566Z" transform="translate(-1946.044 359.869)" fill="#a1a2a6"/>
  <path id="Path_3297" data-name="Path 3297" d="M1999.62-322.255l-10.215,24.844c-.1.064-.207.125-.317.184a9.978,9.978,0,0,1-3.124.973l10.313-26.924Z" transform="translate(-1946.044 359.869)" fill="#e9e9e9"/>
  <path id="Path_3298" data-name="Path 3298" d="M2000.2-322.094l-1.313,3.255a16.492,16.492,0,0,1-3.887.987,35.894,35.894,0,0,1-13.968-1.276,35.9,35.9,0,0,1-12.642-6.075,16.5,16.5,0,0,1-2.829-2.842l.544-3.468,12.9,3.563a41.193,41.193,0,0,0,4.091,1.361,41.066,41.066,0,0,0,4.209.932Z" transform="translate(-1946.044 359.869)" fill="#a1a2a6"/>
  <path id="Path_3299" data-name="Path 3299" d="M2003.414-328.49l-1.275,4.618c-.657,2.376-3.263,3.995-7.338,4.559a34.441,34.441,0,0,1-13.373-1.236,34.428,34.428,0,0,1-12.111-5.8c-3.209-2.576-4.614-5.3-3.957-7.679l1.275-4.618a4.65,4.65,0,0,0,.026,2.492,8.06,8.06,0,0,0,1.609,2.93,15.663,15.663,0,0,0,2.322,2.258,34.436,34.436,0,0,0,12.111,5.8,34.427,34.427,0,0,0,13.373,1.237,15.642,15.642,0,0,0,3.152-.746,8.077,8.077,0,0,0,2.885-1.688A4.643,4.643,0,0,0,2003.414-328.49Z" transform="translate(-1946.044 359.869)" fill="#bbbdbc"/>
  <path id="Path_3300" data-name="Path 3300" d="M1970.592-330.97a23.914,23.914,0,0,0,2.352,1.655l-1.276,4.618a24.079,24.079,0,0,1-2.351-1.656,14.6,14.6,0,0,1-2.742-2.8l1.275-4.617q.2.273.42.546A15.663,15.663,0,0,0,1970.592-330.97Z" transform="translate(-1946.044 359.869)" fill="#a1a2a6"/>
  <path id="Path_3301" data-name="Path 3301" d="M2001.86-326.136l-1.276,4.618a8.6,8.6,0,0,1-2.882,1.546l1.276-4.617.25-.087A8.391,8.391,0,0,0,2001.86-326.136Z" transform="translate(-1946.044 359.869)" fill="#e9e9e9"/>
  <path id="Path_3302" data-name="Path 3302" d="M2002.264-324.325l-.125.453c-.657,2.376-3.263,3.995-7.338,4.559a34.441,34.441,0,0,1-13.373-1.236,34.428,34.428,0,0,1-12.111-5.8c-3.209-2.576-4.614-5.3-3.957-7.679l.125-.453c-.657,2.377.748,5.1,3.957,7.68a34.428,34.428,0,0,0,12.111,5.8,34.423,34.423,0,0,0,13.373,1.237C1999-320.329,2001.607-321.948,2002.264-324.325Z" transform="translate(-1946.044 359.869)" fill="#d2d2d2"/>
  <path id="Path_3303" data-name="Path 3303" d="M1994.485-330.895a47.759,47.759,0,0,0-4.958-1.661c-7.762-2.145-15.02-2.136-19.171-.325a13.355,13.355,0,0,1-1.3-1.368c3.507-1.812,10.078-1.923,17.124.024A38.2,38.2,0,0,1,1994.485-330.895Z" transform="translate(-1946.044 359.869)" fill="#fff" opacity="0.5"/>
  <path id="Path_3304" data-name="Path 3304" d="M1974.553-329.9a38.08,38.08,0,0,0,8.508,3.443c7.126,1.969,13.766,1.833,17.241-.037a14.137,14.137,0,0,0-4.053-4.045C1994.856-329,1990.024-326.018,1974.553-329.9Z" transform="translate(-1946.044 359.869)" fill="#010000" opacity="0.2"/>
  <path id="Path_3305" data-name="Path 3305" d="M2002.583-325.494h0l1.848-6.689c2.652-9.6-3.431-19.688-13.561-22.487s-20.529,2.736-23.181,12.337l-1.839,6.659h0a1.55,1.55,0,0,1-1.094-1.9l1.429-5.174a19,19,0,0,1,9.526-11.761,21.035,21.035,0,0,1,15.569-1.645,21.04,21.04,0,0,1,12.517,9.4,19.006,19.006,0,0,1,2.138,14.982l-1.438,5.206A1.55,1.55,0,0,1,2002.583-325.494Z" transform="translate(-1946.044 359.869)" fill="#a1a2a6"/>
  <path id="Path_3306" data-name="Path 3306" d="M1999.457-336.169a34.419,34.419,0,0,0-12.111-5.8,34.422,34.422,0,0,0-13.373-1.236c-4.075.563-6.681,2.183-7.338,4.559a4.65,4.65,0,0,0,.026,2.492,8.06,8.06,0,0,0,1.609,2.93,15.663,15.663,0,0,0,2.322,2.258,34.436,34.436,0,0,0,12.111,5.8,34.427,34.427,0,0,0,13.373,1.237,15.642,15.642,0,0,0,3.152-.746,8.077,8.077,0,0,0,2.885-1.688,4.643,4.643,0,0,0,1.3-2.126C2004.071-330.866,2002.666-333.594,1999.457-336.169Zm-16.4,9.709c-7.126-1.969-12.755-5.494-14.777-8.882,3.475-1.871,10.115-2.006,17.242-.038s12.755,5.494,14.777,8.883C1996.827-324.627,1990.187-324.491,1983.06-326.46Z" transform="translate(-1946.044 359.869)" fill="#d2d2d2"/>
  <path id="Path_3307" data-name="Path 3307" d="M1987.239-341.585c-9.693-2.678-18.485-1.462-19.639,2.715a4.512,4.512,0,0,0,.683,3.528c3.475-1.871,10.115-2.006,17.242-.038s12.755,5.494,14.777,8.883a4.5,4.5,0,0,0,2.4-2.677C2003.853-333.351,1996.931-338.908,1987.239-341.585Z" transform="translate(-1946.044 359.869)" fill="#a1a2a6"/>
  <path id="Path_3308" data-name="Path 3308" d="M1976.953-336.776l1.714-6.206a22.725,22.725,0,0,0-5.971.462l-1.714,6.2A22.724,22.724,0,0,1,1976.953-336.776Z" transform="translate(-1946.044 359.869)" fill="#838488"/>
  <path id="Path_3312" data-name="Path 3312" d="M1985.525-335.38c1.109.307,2.182.651,3.211,1.026l1.714-6.2q-1.543-.564-3.211-1.027-1.209-.333-2.4-.587l-1.714,6.206C1983.919-335.8,1984.719-335.6,1985.525-335.38Z" transform="translate(-1946.044 359.869)" fill="#bbbdbc"/>
  <path id="Path_3327" data-name="Path 3327" d="M1997.252-337.229l-1.714,6.205a15.114,15.114,0,0,1,4.764,4.527h0a4.506,4.506,0,0,0,2.4-2.678C2003.389-331.67,2001.2-334.657,1997.252-337.229Z" transform="translate(-1946.044 359.869)" fill="#838488"/>
  <path id="colour-3" data-name="colour" d="M1990.635-323.122a5.364,5.364,0,0,1-.829,3.607c-.638,1.09-1.468,2.058-2.1,3.152a6.919,6.919,0,0,0-1.009,3.479,4.284,4.284,0,0,0,1.443,3.245,4.631,4.631,0,0,0,2.865.953,4.015,4.015,0,0,0,1.936-.388,4.592,4.592,0,0,0,2.045-3.045,10.661,10.661,0,0,0-.433-6.622,13.36,13.36,0,0,1-1.3-3.556c-.125-1.261.6-2.746,1.866-2.862.315-.029.482-.07.532-.383a.541.541,0,0,0-.07-.317,2.769,2.769,0,0,0-2.455-1.391,8.141,8.141,0,0,0-2.884.629l-3.012,1.053C1987.45-325.571,1990.26-325.161,1990.635-323.122Z" transform="translate(-1946.044 359.869)"/>
  <path id="shadow-2" data-name="shadow" d="M1995.155-316.44a3.03,3.03,0,0,1-.637,1.692,1.885,1.885,0,0,1-1.616.7,1.97,1.97,0,0,1-1.385-.957,3.978,3.978,0,0,1-.509-1.651,5.631,5.631,0,0,1,.041-1.758,15.488,15.488,0,0,1,.762-2.167,15.041,15.041,0,0,0,.575-2.2q.079-.41.154-.821a3.533,3.533,0,0,0,.016-1.811,2.274,2.274,0,0,0-1.814-1.377c-.165.056-.329.111-.492.168l-3.012,1.053c.212,0,3.022.407,3.4,2.446a5.364,5.364,0,0,1-.829,3.607c-.637,1.09-1.468,2.058-2.1,3.152a6.919,6.919,0,0,0-1.009,3.479,4.526,4.526,0,0,0,.8,2.54c.016.023.031.046.048.068a3.632,3.632,0,0,0,.6.637,4.631,4.631,0,0,0,2.865.953,4.015,4.015,0,0,0,1.936-.388,4.592,4.592,0,0,0,2.045-3.045A11.6,11.6,0,0,0,1995.155-316.44Z" transform="translate(-1946.044 359.869)" fill="#020000" opacity="0.2"/>
</svg>