<svg id="writing-tool-bold" xmlns="http://www.w3.org/2000/svg" width="120" height="120" viewBox="0 0 120 120">
  <path id="drop-shadow" d="M776.273-572.05v-3.808c0-.023,0-.043,0-.066.007-.211,0-.42,0-.63v-.545h0a18.324,18.324,0,0,0-2.533-8.7h0a14.4,14.4,0,0,0-2.037-2.585,16.9,16.9,0,0,0,2.174-7.053l.009.009v-.093a17.085,17.085,0,0,0,.046-1.881c0-.338-.031-.655-.046-.983v-1.641a17.085,17.085,0,0,0,.046-1.881c0-.338-.031-.655-.046-.983v-.4l-.018.012c-.65-10.023-8.388-15.287-18.862-15.184H735.27a6.4,6.4,0,0,0-4.356,2.163,6.4,6.4,0,0,0-1.576,4.6v3.8a6.607,6.607,0,0,0,0,.7v41.708a6.607,6.607,0,0,0,0,.7v3.8a6.4,6.4,0,0,0,1.576,4.6,6.394,6.394,0,0,0,4.356,2.163h21.036c11.259.082,19.29-5.1,19.909-15.938l.058.053v-1.245c0-.023,0-.043,0-.066C776.283-571.63,776.274-571.839,776.273-572.05Zm-21.7,2.654H742.14v-8.3h12.438c5.559,0,7.485,1.925,8.1,4.149C762.063-571.321,760.137-569.4,754.578-569.4Zm-1.194-33.9c3.994.07,6.894,1.032,7.8,4.152-.911,3.109-3.827,4.091-7.8,4.144H742.14v-8.3Z" transform="translate(-690.037 649.473)" fill="#0a0909" opacity="0.3" style="mix-blend-mode: normal;isolation: isolate"/>
  <path id="colour" d="M776.273-577.05v-3.809c0-.022,0-.043,0-.066.007-.21,0-.42,0-.63v-.545l0,0a18.331,18.331,0,0,0-2.533-8.7h0a14.362,14.362,0,0,0-2.037-2.585,16.9,16.9,0,0,0,2.174-7.053l.009.009v-.094a17.068,17.068,0,0,0,.046-1.88c0-.338-.031-.656-.046-.983v-1.642a17.068,17.068,0,0,0,.046-1.88c0-.338-.031-.656-.046-.983v-.4l-.018.011c-.65-10.023-8.388-15.286-18.862-15.184H735.27a6.4,6.4,0,0,0-4.356,2.163,6.4,6.4,0,0,0-1.576,4.6v3.8a6.626,6.626,0,0,0,0,.705v41.707a6.626,6.626,0,0,0,0,.705v3.8a6.4,6.4,0,0,0,1.576,4.6,6.4,6.4,0,0,0,4.356,2.163h21.036c11.259.082,19.29-5.1,19.909-15.939l.058.054v-1.246c0-.022,0-.043,0-.066C776.283-576.63,776.274-576.84,776.273-577.05Zm-21.7,2.653H742.14v-8.3h12.438c5.559,0,7.485,1.925,8.1,4.148C762.063-576.321,760.137-574.4,754.578-574.4Zm-1.194-33.9c3.994.07,6.894,1.031,7.8,4.152-.911,3.109-3.827,4.091-7.8,4.144H742.14v-8.3Z" transform="translate(-690.037 649.473)"/>
  <path id="shadow" d="M-3541.983,7505.772h-21.037a6.4,6.4,0,0,1-4.355-2.163,6.406,6.406,0,0,1-1.577-4.6v-3.8a6.408,6.408,0,0,0,1.577,3.9,6.408,6.408,0,0,0,4.355,2.163h21.037c11.668.084,19.892-5.465,19.966-17.131v3.809c0,.209.011.42,0,.629,0,.023,0,.043,0,.066v1.247l-.056-.055c-.615,10.758-8.524,15.939-19.644,15.939Zm-.215-15.232c-.109.008-.217.017-.328.022C-3542.414,7490.558-3542.307,7490.548-3542.2,7490.541Zm1.077-.113c-.1.015-.2.026-.3.038C-3541.318,7490.454-3541.216,7490.443-3541.12,7490.428Zm.932-.164-.013,0Zm1.044-.3c-.075.025-.147.051-.226.076C-3539.291,7490.019-3539.219,7489.993-3539.144,7489.968Zm.725-.288c-.064.03-.134.059-.2.087C-3538.552,7489.738-3538.483,7489.71-3538.419,7489.68Zm.61-.32-.024.013Zm.659-.479c-.047.04-.092.079-.143.119C-3537.241,7488.96-3537.2,7488.92-3537.149,7488.881Zm.441-.414c-.04.043-.083.084-.124.126C-3536.791,7488.551-3536.748,7488.51-3536.708,7488.467Zm.352-.43a.321.321,0,0,1-.022.032A.321.321,0,0,0-3536.356,7488.037Zm.36-.6c-.024.051-.049.1-.077.151C-3536.045,7487.538-3536.021,7487.487-3536,7487.436Zm.222-.5c-.021.053-.041.105-.064.158C-3535.815,7487.046-3535.795,7486.994-3535.774,7486.941Zm.151-.455,0,.016C-3535.626,7486.5-3535.625,7486.492-3535.623,7486.486Zm.01-.037v0c0,.012-.007.023-.011.035Zm-8.1-4.146h-12.438V7477.8h12.438c7.405,0,8.364,3.415,8.364,6.4a8.5,8.5,0,0,1-.264,2.249C-3536.227,7484.228-3538.155,7482.3-3543.712,7482.3Zm21.695.675c0,.153,0,.309,0,.463Zm0-.08,0,0v.082C-3522.018,7482.951-3522.018,7482.925-3522.019,7482.9Zm-.083-1.217c.013.137.019.275.03.414C-3522.083,7481.958-3522.089,7481.819-3522.1,7481.682Zm-.166-1.213c.028.164.051.328.073.494C-3522.217,7480.8-3522.24,7480.632-3522.268,7480.468Zm-.247-1.206c.043.179.081.36.121.541C-3522.434,7479.623-3522.471,7479.442-3522.515,7479.263Zm-.33-1.2c.06.194.119.388.173.582C-3522.726,7478.453-3522.784,7478.259-3522.844,7478.065Zm-.22-.671.039.109Zm-.2-.521c.069.173.135.346.2.521C-3523.128,7477.219-3523.2,7477.045-3523.262,7476.873Zm-.52-1.209c.111.235.222.473.324.712C-3523.56,7476.136-3523.671,7475.9-3523.782,7475.663Zm-.771-1.469c.209.352.4.712.586,1.077C-3524.15,7474.906-3524.344,7474.546-3524.553,7474.194Zm-.976-1.389c.013.015.026.028.04.045C-3525.5,7472.833-3525.515,7472.82-3525.529,7472.805Zm-3.055-2.9a16.894,16.894,0,0,0,4.18-9.94v1.643c.015.328.045.646.045.983a17.4,17.4,0,0,1-.045,1.88v.094l-.01-.009a16.894,16.894,0,0,1-2.174,7.053A14.381,14.381,0,0,0-3528.584,7469.9Zm-15.023-4.967c-.42.032-.851.055-1.3.061C-3544.458,7464.992-3544.027,7464.969-3543.607,7464.937Zm1.258-.14q-.5.078-1.037.123C-3543.029,7464.889-3542.682,7464.849-3542.349,7464.8Zm.144-.024-.144.024Zm1.287-.3a10.354,10.354,0,0,1-1.131.271A10.436,10.436,0,0,0-3540.918,7464.475Zm1.013-.385a7.5,7.5,0,0,1-1.013.385A7.577,7.577,0,0,0-3539.905,7464.089Zm.97-.565a5.709,5.709,0,0,1-.891.529A5.709,5.709,0,0,0-3538.935,7463.524Zm1.354-1.527a4.739,4.739,0,0,1-1.325,1.5A4.76,4.76,0,0,0-3537.581,7462Zm.033-.06-.033.06Zm.447-1.085c-.91-3.121-3.809-4.082-7.8-4.151h-11.244V7452.2h11.244c4.845.084,8.087,1.473,8.109,6.444a6.974,6.974,0,0,1-.733,3.267A5.749,5.749,0,0,0-3537.1,7460.853Zm12.743-2.769c.015.428.006.852-.013,1.273C-3524.357,7458.936-3524.344,7458.512-3524.359,7458.084Zm-.045-.981v-.11c.024.358.045.718.045,1.091C-3524.359,7457.747-3524.389,7457.429-3524.4,7457.1Zm-.019-.39.019-.011v.291Zm-.207-1.839.006.042Zm-.369-1.725c.006.024.013.051.019.077C-3524.986,7453.2-3524.994,7453.173-3525,7453.149Zm-.531-1.618c.015.04.03.077.043.115C-3525.5,7451.608-3525.515,7451.57-3525.53,7451.531Zm-.682-1.5c.026.049.051.1.075.147C-3526.161,7450.125-3526.186,7450.076-3526.212,7450.027Zm-.833-1.392c.04.061.081.119.119.179C-3526.964,7448.754-3527.005,7448.7-3527.045,7448.635Zm-.978-1.273c.058.068.119.136.175.2C-3527.9,7447.5-3527.964,7447.43-3528.022,7447.362Zm-1.119-1.158c.081.075.164.148.245.226C-3528.978,7446.352-3529.061,7446.279-3529.142,7446.2Zm-1.252-1.036c.107.081.219.158.322.239C-3530.176,7445.326-3530.287,7445.249-3530.394,7445.167Zm-1.385-.912c.138.081.281.16.415.245C-3531.5,7444.416-3531.641,7444.337-3531.779,7444.256Zm-1.511-.786c.173.079.351.154.522.239C-3532.939,7443.625-3533.116,7443.549-3533.29,7443.47Zm-1.633-.659c.215.075.431.145.64.226C-3534.491,7442.956-3534.708,7442.886-3534.923,7442.811Zm-1.752-.526c.258.066.522.126.774.2C-3536.153,7442.412-3536.417,7442.351-3536.675,7442.285Zm-1.878-.392c.314.053.633.1.938.162C-3537.92,7441.993-3538.238,7441.948-3538.552,7441.894Zm-2.05-.254c.4.034.795.062,1.181.113C-3539.807,7441.7-3540.207,7441.673-3540.6,7441.639Zm-1.78-.1q.54.012,1.069.043Q-3541.842,7441.546-3542.382,7441.534Zm-.433-.006q.218,0,.433.006Q-3542.6,7441.529-3542.815,7441.528Zm-.218,0h0Zm0,0h0Z" transform="translate(3608.252 -7415.523)" fill="#0a0909" opacity="0.5"/>
  <rect id="frame" width="120" height="120" fill="none"/>
</svg>
