<svg id="writing-tool-align-right" xmlns="http://www.w3.org/2000/svg" width="120" height="120" viewBox="0 0 120 120">
  <rect id="frame" width="120" height="120" transform="translate(120 120) rotate(180)" fill="none"/>
  <path id="drop-shadow" d="M-2657.006,5954.773a4.379,4.379,0,0,1-3.384-1.537,4.258,4.258,0,0,1-.986-2.729v-4.262h.02a4.253,4.253,0,0,1,.965-2.97,4.379,4.379,0,0,1,3.385-1.536h51.1a4.369,4.369,0,0,1,3.369,1.529,4.246,4.246,0,0,1,.971,2.977h.021v4.262a4.26,4.26,0,0,1-.992,2.735,4.363,4.363,0,0,1-3.369,1.53Zm25.582-17.457a4.383,4.383,0,0,1-3.385-1.536,4.246,4.246,0,0,1-.965-2.969h-.021v-4.264a4.272,4.272,0,0,1,.986-2.729,4.38,4.38,0,0,1,3.385-1.535h25.515a4.365,4.365,0,0,1,3.369,1.529,4.264,4.264,0,0,1,.992,2.735v4.264h-.021a4.246,4.246,0,0,1-.971,2.977,4.367,4.367,0,0,1-3.369,1.529Zm0-16.763a4.382,4.382,0,0,1-3.385-1.535,4.27,4.27,0,0,1-.986-2.729v-4.264h.021a4.25,4.25,0,0,1,.965-2.969,4.381,4.381,0,0,1,3.385-1.535h25.515a4.362,4.362,0,0,1,3.369,1.529,4.246,4.246,0,0,1,.971,2.976h.021v4.264a4.261,4.261,0,0,1-.992,2.735,4.364,4.364,0,0,1-3.369,1.529Zm-25.583-16.944a4.378,4.378,0,0,1-3.384-1.535,4.27,4.27,0,0,1-.985-2.729v-4.264h.02a4.247,4.247,0,0,1,.967-2.97,4.375,4.375,0,0,1,3.382-1.536h51.1a4.36,4.36,0,0,1,3.367,1.53,4.245,4.245,0,0,1,.971,2.976h.021v4.264a4.266,4.266,0,0,1-.992,2.735,4.364,4.364,0,0,1-3.367,1.529Z" transform="translate(2691.462 -5859.521)" fill="#080808" stroke="rgba(0,0,0,0)" stroke-width="1"/>
  <path id="colour" d="M-2657.005,5954.771a4.383,4.383,0,0,1-3.385-1.535,4.272,4.272,0,0,1-.986-2.729v-4.264h.021a4.251,4.251,0,0,1,.964-2.969,4.387,4.387,0,0,1,3.386-1.536h51.1a4.37,4.37,0,0,1,3.369,1.529,4.246,4.246,0,0,1,.971,2.977h.021v4.264a4.272,4.272,0,0,1-.992,2.735,4.365,4.365,0,0,1-3.369,1.529Zm25.582-17.457a4.383,4.383,0,0,1-3.385-1.536,4.246,4.246,0,0,1-.965-2.97h-.021v-4.262a4.266,4.266,0,0,1,.986-2.729,4.382,4.382,0,0,1,3.385-1.537h25.515a4.367,4.367,0,0,1,3.369,1.529,4.275,4.275,0,0,1,.992,2.736v4.262h-.021a4.246,4.246,0,0,1-.971,2.977,4.372,4.372,0,0,1-3.369,1.529Zm0-16.763a4.382,4.382,0,0,1-3.385-1.535,4.268,4.268,0,0,1-.986-2.728v-4.264h.021a4.253,4.253,0,0,1,.965-2.971,4.387,4.387,0,0,1,3.385-1.535h25.515a4.367,4.367,0,0,1,3.369,1.529,4.246,4.246,0,0,1,.971,2.977h.021v4.264a4.273,4.273,0,0,1-.992,2.735,4.37,4.37,0,0,1-3.369,1.527Zm-25.583-16.942a4.384,4.384,0,0,1-3.385-1.537,4.273,4.273,0,0,1-.985-2.729v-4.264h.021a4.25,4.25,0,0,1,.965-2.969,4.377,4.377,0,0,1,3.384-1.535h51.1a4.365,4.365,0,0,1,3.369,1.529,4.245,4.245,0,0,1,.971,2.975h.021v4.264a4.273,4.273,0,0,1-.992,2.736,4.368,4.368,0,0,1-3.369,1.529Z" transform="translate(2691.462 -5864.521)" stroke="rgba(0,0,0,0)" stroke-width="1"/>
  <path id="shadow" d="M-2657.007,5954.379a4.38,4.38,0,0,1-3.385-1.535,4.278,4.278,0,0,1-.985-2.729v-4.264h.021a4.26,4.26,0,0,0,.964,2.487,4.377,4.377,0,0,0,3.385,1.535h51.1a4.362,4.362,0,0,0,3.367-1.527,4.242,4.242,0,0,0,.971-2.494h.021v4.264a4.264,4.264,0,0,1-.992,2.734,4.362,4.362,0,0,1-3.367,1.529Zm25.583-17.457a4.39,4.39,0,0,1-3.386-1.535,4.279,4.279,0,0,1-.985-2.729V5928.4h.021a4.259,4.259,0,0,0,.964,2.488,4.387,4.387,0,0,0,3.386,1.535h25.515a4.368,4.368,0,0,0,3.368-1.527,4.246,4.246,0,0,0,.971-2.494h.021v4.264a4.264,4.264,0,0,1-.992,2.734,4.367,4.367,0,0,1-3.368,1.529Zm0-16.762a4.39,4.39,0,0,1-3.386-1.535,4.279,4.279,0,0,1-.985-2.729v-4.263h.021a4.259,4.259,0,0,0,.964,2.488,4.385,4.385,0,0,0,3.386,1.535h25.515a4.371,4.371,0,0,0,3.368-1.527,4.246,4.246,0,0,0,.971-2.494h.021v4.263a4.262,4.262,0,0,1-.992,2.735,4.368,4.368,0,0,1-3.368,1.528Zm-4.324-9.312v0Zm34.153,0v0Zm-33.98-.78c-.008.022-.01.043-.017.066C-2635.585,5910.108-2635.582,5910.087-2635.575,5910.064Zm33.808.006c.006.019.01.038.015.057C-2601.758,5910.108-2601.761,5910.089-2601.766,5910.07Zm0-.01,0,.01Zm-.318-.738c.022.039.036.082.055.124C-2602.052,5909.4-2602.065,5909.361-2602.088,5909.322Zm-33.17.006c-.021.039-.034.081-.054.118C-2635.292,5909.407-2635.279,5909.367-2635.258,5909.328Zm32.718-.671a3.994,3.994,0,0,0-.692-.657,3.994,3.994,0,0,1,.692.657l0,0Zm-28.883-1.529a4.6,4.6,0,0,0-1.868.393A4.6,4.6,0,0,1-2631.424,5907.128Zm-25.583-3.912a4.378,4.378,0,0,1-3.385-1.536,4.266,4.266,0,0,1-.985-2.727v-4.264h.021a4.261,4.261,0,0,0,.964,2.487,4.383,4.383,0,0,0,3.385,1.536h51.1a4.363,4.363,0,0,0,3.367-1.529,4.246,4.246,0,0,0,.971-2.494h.021v4.264a4.265,4.265,0,0,1-.992,2.736,4.36,4.36,0,0,1-3.367,1.527Zm-4.323-9.312v0Zm59.735,0v0Zm-59.562-.781c-.008.022-.01.043-.018.066C-2661.167,5893.164-2661.164,5893.143-2661.156,5893.12Zm59.387,0c.008.021.01.044.018.067C-2601.759,5893.16-2601.762,5893.137-2601.77,5893.116Zm-59.07-.732c-.021.039-.034.081-.054.118C-2660.874,5892.464-2660.861,5892.422-2660.84,5892.383Zm58.752-.006c.022.04.036.082.055.123C-2602.053,5892.459-2602.065,5892.417-2602.088,5892.377Zm-.453-.665a4.153,4.153,0,0,0-1.508-1.136,4.153,4.153,0,0,1,1.508,1.136l0,0Z" transform="translate(2691.462 -5864.129)" fill="#050505" stroke="rgba(0,0,0,0)" stroke-width="1" opacity="0.5"/>
</svg>
