<svg id="icon_-_diary" data-name="icon - diary" xmlns="http://www.w3.org/2000/svg" width="120" height="120" viewBox="0 0 120 120">
  <rect id="Frame" width="120" height="120" fill="none"/>
  <g id="Icon" transform="translate(-4944.12 -549.271)">
    <rect id="Rectangle_52" data-name="Rectangle 52" width="14.089" height="30.635" transform="translate(4970.387 595.046)" fill="#3ba6dd"/>
    <path id="Path_3072" data-name="Path 3072" d="M137.508-192.184v27.464c-.612,0-1.224-.088-1.749-.088A26.763,26.763,0,0,0,109-138.045c0,.962.087,2.011.175,2.973H95.178a2.187,2.187,0,0,1-2.187-2.273v-3.586h2.187a3.417,3.417,0,0,0,3.585-3.149,3.362,3.362,0,0,0-3.585-3.149H92.991v-3.585h2.187a3.417,3.417,0,0,0,3.585-3.149,3.362,3.362,0,0,0-3.585-3.149H92.991V-160.7h2.187a3.417,3.417,0,0,0,3.585-3.148,3.361,3.361,0,0,0-3.585-3.15H92.991v-3.324h2.187a3.417,3.417,0,0,0,3.585-3.147,3.361,3.361,0,0,0-3.585-3.149H92.991V-180.2h2.187a3.417,3.417,0,0,0,3.585-3.148,3.361,3.361,0,0,0-3.585-3.149H92.991V-190a2.167,2.167,0,0,1,2.187-2.187Z" transform="translate(4879.693 766.695)" fill="#3ba8df"/>
    <path id="Path_3073" data-name="Path 3073" d="M94.7-155.422h-3.69a1.728,1.728,0,0,0-1.882,1.447c0,.8.8,1.447,1.882,1.447H94.7a1.652,1.652,0,0,0,1.808-1.447A1.7,1.7,0,0,0,94.7-155.422Z" transform="translate(4879.693 766.695)" fill="#fff"/>
    <path id="Path_3074" data-name="Path 3074" d="M94.7-145.678h-3.69a1.728,1.728,0,0,0-1.882,1.447c0,.795.8,1.447,1.882,1.447H94.7a1.652,1.652,0,0,0,1.808-1.447A1.7,1.7,0,0,0,94.7-145.678Z" transform="translate(4879.693 766.695)" fill="#fff"/>
    <path id="Path_3075" data-name="Path 3075" d="M94.7-165.086h-3.69a1.727,1.727,0,0,0-1.882,1.446c0,.8.8,1.447,1.882,1.447H94.7a1.651,1.651,0,0,0,1.808-1.447A1.65,1.65,0,0,0,94.7-165.086Z" transform="translate(4879.693 766.695)" fill="#fff"/>
    <path id="Path_3076" data-name="Path 3076" d="M94.7-174.953h-3.69a1.728,1.728,0,0,0-1.882,1.448c0,.8.8,1.447,1.882,1.447H94.7a1.651,1.651,0,0,0,1.808-1.447A1.652,1.652,0,0,0,94.7-174.953Z" transform="translate(4879.693 766.695)" fill="#fff"/>
    <path id="Path_3077" data-name="Path 3077" d="M91.008-181.815H94.7a1.651,1.651,0,0,0,1.808-1.448A1.652,1.652,0,0,0,94.7-184.71h-3.69a1.728,1.728,0,0,0-1.882,1.447A1.728,1.728,0,0,0,91.008-181.815Z" transform="translate(4879.693 766.695)" fill="#fff"/>
    <path id="Path_3078" data-name="Path 3078" d="M135.759-159.8a21.856,21.856,0,0,0-21.841,21.842,21.905,21.905,0,0,0,21.841,21.841A21.9,21.9,0,0,0,157.6-137.958,21.855,21.855,0,0,0,135.759-159.8Zm-.078,39.705a17.86,17.86,0,0,1-17.863-17.863A17.978,17.978,0,0,1,135.681-155.9a17.993,17.993,0,0,1,17.941,17.941A17.876,17.876,0,0,1,135.681-120.1Z" transform="translate(4879.693 766.695)" fill="#fff100"/>
    <path id="Path_3079" data-name="Path 3079" d="M139.27-134.447a1.885,1.885,0,0,0,.545-1.4v-16.225a2,2,0,0,0-1.949-2.028,1.9,1.9,0,0,0-1.95,2.028v14.2h-8.035a1.932,1.932,0,0,0-1.951,1.95,1.932,1.932,0,0,0,1.951,1.95h9.985A1.648,1.648,0,0,0,139.27-134.447Z" transform="translate(4879.693 766.695)" fill="#fff100"/>
  </g>
</svg>
