<svg id="xp" xmlns="http://www.w3.org/2000/svg" width="70" height="70" viewBox="0 0 70 70">
  <path id="Path_7636" data-name="Path 7636" d="M38.679,15.973a2.6,2.6,0,0,1-.55.1h-.3c-.651,0-2.005.05-2.005.05l-.2.1a6.021,6.021,0,0,0-.251.651c-.5,1-.45,2.1-.852,3.1l-.849,4.4-.1.051a8.451,8.451,0,0,0-.752-2.154c-.05-.151-.7-1.6-.748-1.8-.58-2.461-.651-3.252-3.283-3.944a13.763,13.763,0,0,0-6.5.029c-2.492.6-2.07,3.208-2.037,5.286a10.153,10.153,0,0,0,2.006,6.387c.2.252.2.5.452.752a.5.5,0,0,1,.051.151,16.89,16.89,0,0,1,1,1.6c.2.4,1.154,2.3,1.352,2.7a5.921,5.921,0,0,0,1.115,2.08c-.174.3-.377.526-.662.973a11.652,11.652,0,0,1-.453,1.15,18.677,18.677,0,0,0-1.05,1.754c-.2.35-.151.648-.3.95a17.375,17.375,0,0,0-1.6,3.7,25.718,25.718,0,0,0-1.653,3.3s-.048.149-.1.151c-1.86.057-1.037,8.1-.127,8.892,1.3,1.128,3.688.331,5.286.718h1.65c.1,0,1.053-.1,1.2-.1,1-.048,1.4-.9,1.751-1.751a19.062,19.062,0,0,0,1-2.352c.053-.251.2-1.2.2-1.4.45-.45,1.3-3.2,1.4-3.2.757,2.363.331,5.92,2.221,7.785,1.237,1.22,4.349,1.168,5.922,1.032.859-.074,2.22-.167,2.718-1.026.9-1.561.332-4.677.175-6.392a15.478,15.478,0,0,0-1.225-3.653c-.949-2.852-1.8-5.957-2.5-8.859-.034-.136-.2-.907-.327-1.457.584-1.31,1.386-2.627,1.892-3.9.807-2.022,1.581-4.063,2.334-6.107a11.435,11.435,0,0,0,.331-5.448c-.2-1.336.387-3.043-.932-3.851-1.278-.783-3.281-.463-4.7-.463" opacity="0.3"/>
  <path id="Path_7637" data-name="Path 7637" d="M70,29.538a16.251,16.251,0,0,0-.6-3.455c0-.147-.151-.6-.151-.65A14.292,14.292,0,0,0,64.8,18.476c-2.753-2.053-7.409-2.2-10.663-2.2-.55,0-2,0-2.1.05-.8,0-3.4.3-4.206.4-.8.15-1.151.5-1.151,1.3,0,.45.1.9.1,1.352,0,1.05,0,2.2-.1,3.254.015.454.028.878.042,1.317-.005.056-.042.076-.042.135,0,.355.054.71.08,1.065.005.168.009.332.015.5,0,.994,0,2.059-.1,3.042.5,15.115.352,22.572.651,23.424a14.347,14.347,0,0,0,.2,3.153c.051.2.4.9.651.9a21.47,21.47,0,0,0,4.3.349c1.5,0,2.952-.1,3.954-1.3a6.036,6.036,0,0,0,.252-.9c0-.1-.053-.452.047-.55a10.283,10.283,0,0,0,.2-1.254v-2.8l.051-.1s.05-1,.05-1.351a3.022,3.022,0,0,0,0-.95c1.1-.3,2.354-.2,3.455-.4a15.435,15.435,0,0,0,7-3l.053-.051a19.044,19.044,0,0,0,2.1-3.153,2.153,2.153,0,0,1,.051-.251c.4-1.55.05-3.2.3-4.8V35.6a8.605,8.605,0,0,0-.211-1.773C70,32.44,69.782,31,70,29.589Zm-14.162,1.7-.021-1.307a.89.89,0,0,1,.222-.042,5.051,5.051,0,0,1,2.6.7,2.342,2.342,0,0,1,.349.2A5.454,5.454,0,0,1,60,31.415a2.837,2.837,0,0,1-.255.424,1.3,1.3,0,0,1-.7.453l-2.6.7h-.4s-.1-.4-.151-.553v-.6c0-.1-.05-.5-.05-.6" opacity="0.3"/>
  <path id="Path_7638" data-name="Path 7638" d="M21.145,41.529v-.151s.029-.751.029-1c0-.8-.091-1.6-.091-2.455,0-.1.031-.449.031-.55a2.68,2.68,0,0,0,.091-1,2.846,2.846,0,0,0-.07-.65c0-.083.008-.173.01-.252V35.32s.029-.751.029-1c0-.8-.091-1.6-.091-2.455,0-.1.031-.45.031-.551a2.677,2.677,0,0,0,.091-1c0-1.9-1.285-1.55-2.052-1.751a22.483,22.483,0,0,0-3.264-.394c-.03-.084-.064-.182-.08-.213V25.144l-.3-1.714c-.1-.46-.65-.673-1.349-.735-.2,0-1.053-.031-1.2-.031-2.3,0-4.508.215-6.81.153-.3.094-.75.094-.851.275-.276.5-.069,1.059-.1,1.584-.074,1.141-.36,2.23-.346,3.391a11.639,11.639,0,0,1-1.359.048,11.377,11.377,0,0,0-1.867-.3H.888a2.988,2.988,0,0,0-.46.148c-.182.1-.182.553-.274.852C.215,31.114,0,33.321,0,35.622c0,.148.031,1,.031,1.2a2.768,2.768,0,0,0,.086.356C.071,38.673,0,40.159,0,41.68c0,.148.031,1,.031,1.2.061.7.274,1.251.734,1.349l1.714.3H5.3c.03.017.127.049.212.079A22.817,22.817,0,0,0,5.9,47.877c.2.766-.151,2.051,1.751,2.051a2.641,2.641,0,0,0,1-.093c.1,0,.449-.03.55-.03.852,0,1.653.092,2.455.092.249,0,1-.031,1-.031h.151c1.15-.031,2.8-.061,2.8-.978,0-1.616.243-3.2.392-4.816,0,.038,3.719.258,4.166.258.917,0,.948-1.65.979-2.8" opacity="0.3"/>
  <path id="Path_7639" data-name="Path 7639" d="M38.679,9.915a2.6,2.6,0,0,1-.55.1h-.3c-.651,0-2.005.05-2.005.05l-.2.1a6.021,6.021,0,0,0-.251.651c-.5,1-.45,2.1-.852,3.1l-.849,4.4-.1.051a8.451,8.451,0,0,0-.752-2.154c-.05-.151-.7-1.6-.748-1.8-.58-2.461-.651-3.252-3.283-3.944a13.763,13.763,0,0,0-6.5.029c-2.492.6-2.07,3.208-2.037,5.286a10.153,10.153,0,0,0,2.006,6.387c.2.252.2.5.452.752a.5.5,0,0,1,.051.151,16.89,16.89,0,0,1,1,1.6c.2.4,1.154,2.3,1.352,2.7a5.921,5.921,0,0,0,1.115,2.08c-.174.3-.377.526-.662.973a11.652,11.652,0,0,1-.453,1.15,18.573,18.573,0,0,0-1.05,1.755c-.2.349-.151.647-.3.949a17.375,17.375,0,0,0-1.6,3.7,25.718,25.718,0,0,0-1.653,3.3s-.048.149-.1.151c-1.86.057-1.037,8.1-.127,8.891,1.3,1.129,3.688.332,5.286.719h1.65c.1,0,1.053-.1,1.2-.1,1-.048,1.4-.9,1.751-1.75a19.062,19.062,0,0,0,1-2.352c.053-.252.2-1.2.2-1.4.45-.45,1.3-3.2,1.4-3.2.757,2.364.331,5.921,2.221,7.785,1.237,1.221,4.349,1.169,5.922,1.033.859-.075,2.22-.167,2.718-1.026.9-1.561.332-4.677.175-6.392A15.478,15.478,0,0,0,42.583,40c-.949-2.852-1.8-5.957-2.5-8.859-.034-.136-.2-.907-.327-1.457.584-1.31,1.386-2.626,1.892-3.9.807-2.022,1.581-4.063,2.334-6.107a11.435,11.435,0,0,0,.331-5.448c-.2-1.336.387-3.043-.932-3.851-1.278-.783-3.281-.463-4.7-.463" fill="#afafaf"/>
  <path id="Path_7640" data-name="Path 7640" d="M70,23.479a16.251,16.251,0,0,0-.6-3.455c0-.147-.151-.6-.151-.65A14.292,14.292,0,0,0,64.8,12.417c-2.753-2.053-7.409-2.2-10.663-2.2-.55,0-2,0-2.1.05-.8,0-3.4.3-4.206.4-.8.15-1.151.5-1.151,1.3,0,.45.1.9.1,1.352,0,1.05,0,2.2-.1,3.254.015.454.028.878.042,1.317-.005.056-.042.076-.042.135,0,.355.054.71.08,1.065.005.168.009.332.015.5,0,.994,0,2.059-.1,3.042.5,15.115.352,22.572.651,23.424a14.347,14.347,0,0,0,.2,3.153c.051.2.4.9.651.9a21.47,21.47,0,0,0,4.3.349c1.5,0,2.952-.1,3.954-1.3a6.036,6.036,0,0,0,.252-.9c0-.1-.053-.452.047-.55a10.283,10.283,0,0,0,.2-1.254v-2.8l.051-.1s.05-1,.05-1.351a3.022,3.022,0,0,0,0-.95c1.1-.3,2.354-.2,3.455-.4a15.435,15.435,0,0,0,7-3l.053-.051a19.044,19.044,0,0,0,2.1-3.153,2.153,2.153,0,0,1,.051-.251c.4-1.55.05-3.2.3-4.8v-.05a8.605,8.605,0,0,0-.211-1.773c.208-1.383-.007-2.827.211-4.234Zm-14.162,1.7-.021-1.307a.89.89,0,0,1,.222-.042,5.051,5.051,0,0,1,2.6.7,2.342,2.342,0,0,1,.349.2A5.454,5.454,0,0,1,60,25.356a2.837,2.837,0,0,1-.255.424,1.3,1.3,0,0,1-.7.453l-2.6.7h-.4s-.1-.4-.151-.553v-.6c0-.1-.05-.5-.05-.6" fill="#afafaf"/>
  <path id="Path_7641" data-name="Path 7641" d="M21.145,35.471V35.32s.029-.751.029-1c0-.8-.091-1.6-.091-2.455,0-.1.031-.449.031-.55a2.68,2.68,0,0,0,.091-1,2.846,2.846,0,0,0-.07-.65c0-.083.008-.173.01-.252v-.151s.029-.751.029-1c0-.8-.091-1.6-.091-2.455,0-.1.031-.45.031-.551a2.677,2.677,0,0,0,.091-1c0-1.9-1.285-1.55-2.052-1.751a22.483,22.483,0,0,0-3.264-.394c-.03-.084-.064-.182-.08-.213V19.086l-.3-1.714c-.1-.46-.65-.673-1.349-.735-.2,0-1.053-.031-1.2-.031-2.3,0-4.508.215-6.81.153-.3.094-.75.094-.851.275-.276.5-.069,1.059-.1,1.584-.074,1.141-.36,2.23-.346,3.391a11.64,11.64,0,0,1-1.359.048,11.377,11.377,0,0,0-1.867-.3H.888a2.988,2.988,0,0,0-.46.148c-.182.1-.182.553-.274.852C.215,25.056,0,27.263,0,29.564c0,.148.031,1,.031,1.2a2.768,2.768,0,0,0,.086.356C.071,32.615,0,34.1,0,35.622c0,.148.031,1,.031,1.2.061.7.274,1.251.734,1.349l1.714.3H5.3c.03.017.127.049.212.079A22.817,22.817,0,0,0,5.9,41.819c.2.766-.151,2.051,1.751,2.051a2.641,2.641,0,0,0,1-.093c.1,0,.449-.03.55-.03.852,0,1.653.092,2.455.092.249,0,1-.031,1-.031h.151c1.15-.031,2.8-.061,2.8-.978,0-1.616.243-3.2.392-4.816,0,.038,3.719.258,4.166.258.917,0,.948-1.65.979-2.8" fill="#afafaf"/>
  <path id="Path_7642" data-name="Path 7642" d="M31.37,39.4c0,.2-.148,1.151-.2,1.4a19.062,19.062,0,0,1-1,2.352c-.349.851-.751,1.7-1.751,1.751-.148,0-1.1.1-1.2.1h-1.65c-1.6-.388-3.989.409-5.286-.719-.655-.569-1.328-2.806.128-2.833.053,0,.1-.151.1-.151a25.718,25.718,0,0,1,1.653-3.3,17.3,17.3,0,0,1,1.6-3.7c.151-.3.1-.6.3-.95a18.549,18.549,0,0,1,1.05-1.754,11.652,11.652,0,0,0,.453-1.15,5.96,5.96,0,0,0,.949-1.6c0-.05.2-.751.2-.8.2-.5.9-1.352.9-2a1.232,1.232,0,0,0-.1-.4c-.1-.2-.5-1.053-.651-1.254-.55-1-1.5-1.9-1.754-3.053-.2-.4-1.151-2.3-1.352-2.7a17.035,17.035,0,0,0-1-1.6.5.5,0,0,0-.051-.15c-.251-.249-.251-.5-.452-.752-1.576-1.969-3.339-4.807.03-5.615a13.767,13.767,0,0,1,6.5-.03c2.632.692,2.7,1.483,3.283,3.945.047.2.7,1.65.748,1.8a8.444,8.444,0,0,1,.752,2.153l.1-.05.849-4.4c.4-1,.352-2.1.852-3.1a6.021,6.021,0,0,1,.251-.651l.2-.1s1.354-.051,2.005-.051h.3a2.591,2.591,0,0,0,.55-.1c2.954,0,6.822-.432,5.3,3.7-.752,2.044-1.525,4.085-2.333,6.107-.689,1.726-1.928,3.54-2.417,5.3a4.666,4.666,0,0,0-.3,1.1,8.8,8.8,0,0,0,.7,3c.054.2.4,1.8.453,2,.7,2.9,1.553,6.007,2.5,8.858.37,1.11,1.717,2.842,1.051,3.987-.5.859-1.86.952-2.719,1.026-1.574.137-4.684.188-5.921-1.032-1.89-1.865-1.465-5.422-2.222-7.784-.1,0-.952,2.753-1.4,3.2" fill="#fff"/>
  <path id="Path_7643" data-name="Path 7643" d="M47.529,43.15a14.289,14.289,0,0,1-.2-3.153c-.3-.852-.151-8.309-.651-23.424.1-1.053.1-2.2.1-3.254,0-.452-.1-.9-.1-1.351,0-.8.352-1.151,1.151-1.3.8-.1,3.4-.4,4.206-.4.1-.05,1.55-.05,2.1-.05,3.254,0,7.909.147,10.663,2.2a14.3,14.3,0,0,1,4.455,6.957,6.65,6.65,0,0,1,.151.651A16.251,16.251,0,0,1,70,23.48v.05c-.248,1.6.1,3.254-.3,4.8a2.191,2.191,0,0,0-.05.251,19.106,19.106,0,0,1-2.1,3.153l-.053.05a15.43,15.43,0,0,1-7.005,3c-1.1.2-2.354.1-3.454.4a3.016,3.016,0,0,1,0,.949c0,.352-.051,1.352-.051,1.352l-.05.1v2.8a10.283,10.283,0,0,1-.2,1.254c-.1.1-.047.45-.047.55a6.112,6.112,0,0,1-.252.9c-1,1.2-2.452,1.3-3.955,1.3a21.46,21.46,0,0,1-4.3-.349c-.252,0-.6-.7-.651-.9m8.359-17.369v.6c.05.151.151.554.151.554h.4l2.6-.7a1.318,1.318,0,0,0,.7-.453c.953-1.05,1-3,1-4.455v-.349c-.249-1.553-.6-1.7-1.751-2.3a2.3,2.3,0,0,0-.349-.2,5.047,5.047,0,0,0-2.6-.7c-.053,0-.352,0-.352.151v.047a6.089,6.089,0,0,0,.05.953l.1,6.256c0,.1.05.5.05.6" fill="#fff"/>
  <path id="Path_7644" data-name="Path 7644" d="M21.114,25.257a2.68,2.68,0,0,0,.091-1c0-1.9-1.285-1.55-2.052-1.751a22.63,22.63,0,0,0-3.264-.393c-.03-.085-.064-.182-.08-.213V19.085l-.3-1.714c-.1-.46-.65-.673-1.349-.735-.2,0-1.053-.031-1.2-.031-2.3,0-4.508.216-6.809.154-.3.093-.752.093-.852.275a2.882,2.882,0,0,0-.148.46v.734a11.525,11.525,0,0,0,.3,1.866,9.831,9.831,0,0,1,.061,2.023,9.9,9.9,0,0,1-2.023-.06,11.4,11.4,0,0,0-1.867-.3H.888a2.92,2.92,0,0,0-.461.148c-.181.1-.181.553-.273.852C.215,25.056,0,27.262,0,29.564c0,.148.031,1,.031,1.2.061.7.274,1.251.733,1.348l1.715.3H5.3c.03.016.127.049.212.078A22.782,22.782,0,0,0,5.9,35.76c.2.767-.151,2.052,1.751,2.052a2.641,2.641,0,0,0,1-.093c.1,0,.449-.03.55-.03.852,0,1.654.092,2.455.092.249,0,1-.031,1-.031h.151c1.15-.031,2.8-.061,2.8-.978V34.783a3.457,3.457,0,0,1-.349-1.868c-.025-.244-.051-.68-.07-1.12.439.02.876.045,1.12.07a3.468,3.468,0,0,1,1.868.349h1.988c.918,0,.949-1.651.979-2.8v-.151s.03-.751.03-1c0-.8-.091-1.6-.091-2.455,0-.1.031-.449.031-.55" fill="#fff"/>
  <rect id="frame" width="70" height="70" fill="none"/>
</svg>
