<svg id="yes" xmlns="http://www.w3.org/2000/svg" width="119.779" height="119.779" viewBox="0 0 119.779 119.779">
  <rect id="frame" width="119.779" height="119.779" fill="none"/>
  <path id="Path_5422" data-name="Path 5422" d="M12.4,45.981,0,22.865H18.153L22.2,30.626l4.176-7.761H41.55L28.9,45.981V60.766H12.4Z" transform="translate(8.019 25.374)" opacity="0.3"/>
  <path id="Path_5423" data-name="Path 5423" d="M85.663,55.772h-1.4q-.663,0-1.273-.048,0,2.825,3.233,3.086.891.07,1.731.071a20.752,20.752,0,0,0,5.436-.925,16.376,16.376,0,0,0,5.868-3.014l1.578,7.381Q95.159,66.9,83.677,66.9a18.23,18.23,0,0,1-11.329-3.584,12.866,12.866,0,0,1-5.143-10.846,15.977,15.977,0,0,1,2.9-9.375,16.877,16.877,0,0,1,7.306-5.767,25.061,25.061,0,0,1,9.955-1.97q6.925,0,10.477,2.824a8.565,8.565,0,0,1,3.539,6.977q-.014,4.153-4.265,7.381T85.663,55.772m3.437-10.8a1.846,1.846,0,0,0-2.088-2.088,3.293,3.293,0,0,0-3.106,2.3,10.049,10.049,0,0,0-.5,2.314q-.14,1.317-.42,2.812l5.576-1.163.484-3.631Z" transform="translate(-20.259 20.116)" opacity="0.3"/>
  <path id="Path_5424" data-name="Path 5424" d="M158.356,45.412a43.706,43.706,0,0,0-8.223-1.234,1.805,1.805,0,0,0-1.133.308.874.874,0,0,0-.394.688q0,.784,2.1,1.578t3.857,1.555a11.818,11.818,0,0,1,3.03,1.851q2.75,2.373,2.75,7.06a8.228,8.228,0,0,1-3.641,7.2q-3.64,2.515-9.852,2.516a37.174,37.174,0,0,1-9.929-1.068,8.063,8.063,0,0,1-2.5-1.068V56a6.264,6.264,0,0,1,1.248.309q.89.284,2.952.89a13.44,13.44,0,0,0,3.755.605q1.694,0,1.694-1.163,0-.9-1.528-1.756-.687-.379-1.553-.783a12.557,12.557,0,0,1-5.13-3.785,8.429,8.429,0,0,1-1.54-5.043,8.285,8.285,0,0,1,4.48-7.689,19.881,19.881,0,0,1,9.853-2.136,47.243,47.243,0,0,1,8.529.783q.916.166,1.171.237Z" transform="translate(-48.5 20.081)" opacity="0.3"/>
  <path id="Path_5425" data-name="Path 5425" d="M12.4,34.548,0,11.432H18.153L22.2,19.193l4.176-7.761H41.55L28.9,34.548V49.334H12.4Z" transform="translate(8.019 30.185)"/>
  <path id="Path_5426" data-name="Path 5426" d="M85.663,44.339h-1.4q-.663,0-1.273-.047,0,2.825,3.233,3.086.891.07,1.731.071a20.752,20.752,0,0,0,5.436-.925,16.376,16.376,0,0,0,5.868-3.014l1.578,7.381q-5.677,4.581-17.159,4.58a18.23,18.23,0,0,1-11.329-3.584,12.866,12.866,0,0,1-5.143-10.846,15.977,15.977,0,0,1,2.9-9.375A16.877,16.877,0,0,1,77.414,25.9a25.061,25.061,0,0,1,9.955-1.97q6.925,0,10.477,2.824a8.565,8.565,0,0,1,3.539,6.977q-.014,4.153-4.265,7.381T85.663,44.339m3.437-10.8a1.846,1.846,0,0,0-2.088-2.088,3.293,3.293,0,0,0-3.106,2.3,10.049,10.049,0,0,0-.5,2.314q-.14,1.317-.42,2.812l5.576-1.163.484-3.631Z" transform="translate(-20.259 24.927)"/>
  <path id="Path_5427" data-name="Path 5427" d="M158.356,33.979a43.707,43.707,0,0,0-8.223-1.234,1.805,1.805,0,0,0-1.133.308.874.874,0,0,0-.394.688q0,.784,2.1,1.578t3.857,1.555a11.818,11.818,0,0,1,3.03,1.851q2.75,2.373,2.75,7.06a8.228,8.228,0,0,1-3.641,7.2q-3.64,2.515-9.852,2.516a37.174,37.174,0,0,1-9.929-1.068,8.063,8.063,0,0,1-2.5-1.068v-8.8a6.263,6.263,0,0,1,1.248.309q.89.284,2.952.89a13.44,13.44,0,0,0,3.755.605q1.694,0,1.694-1.163,0-.9-1.528-1.756-.687-.379-1.553-.783a12.557,12.557,0,0,1-5.13-3.785,8.429,8.429,0,0,1-1.54-5.043,8.285,8.285,0,0,1,4.48-7.689,19.881,19.881,0,0,1,9.853-2.136,47.243,47.243,0,0,1,8.529.783q.916.166,1.171.237Z" transform="translate(-48.5 24.892)"/>
  <path id="Path_5428" data-name="Path 5428" d="M26.375,11.433,22.2,19.193l-4.048-7.761H0L12.4,34.549V49.334H28.9V34.549L41.549,11.433Z" transform="translate(8.019 30.185)" fill="#979797"/>
  <path id="Path_5429" data-name="Path 5429" d="M85.663,44.339h-1.4q-.663,0-1.273-.047,0,2.825,3.233,3.086.891.07,1.731.071a20.752,20.752,0,0,0,5.436-.925,16.376,16.376,0,0,0,5.868-3.014l1.578,7.381q-5.677,4.581-17.159,4.58a18.23,18.23,0,0,1-11.329-3.584,12.866,12.866,0,0,1-5.143-10.846,15.977,15.977,0,0,1,2.9-9.375A16.877,16.877,0,0,1,77.414,25.9a25.061,25.061,0,0,1,9.955-1.97q6.925,0,10.477,2.824a8.565,8.565,0,0,1,3.539,6.977q-.014,4.153-4.265,7.381T85.663,44.339m3.437-10.8a1.846,1.846,0,0,0-2.088-2.088,3.293,3.293,0,0,0-3.106,2.3,10.049,10.049,0,0,0-.5,2.314q-.14,1.317-.42,2.812l5.576-1.163.484-3.631Z" transform="translate(-20.259 24.926)" fill="#979797"/>
  <path id="Path_5430" data-name="Path 5430" d="M158.356,33.979a43.707,43.707,0,0,0-8.223-1.234,1.805,1.805,0,0,0-1.133.308.874.874,0,0,0-.394.688q0,.784,2.1,1.578t3.857,1.555a11.818,11.818,0,0,1,3.03,1.851q2.75,2.373,2.75,7.06a8.228,8.228,0,0,1-3.641,7.2q-3.64,2.515-9.852,2.516a37.174,37.174,0,0,1-9.929-1.068,8.063,8.063,0,0,1-2.5-1.068v-8.8a6.263,6.263,0,0,1,1.248.309q.89.284,2.952.89a13.44,13.44,0,0,0,3.755.605q1.694,0,1.694-1.163,0-.9-1.528-1.756-.687-.379-1.553-.783a12.557,12.557,0,0,1-5.13-3.785,8.429,8.429,0,0,1-1.54-5.043,8.285,8.285,0,0,1,4.48-7.689,19.881,19.881,0,0,1,9.853-2.136,47.243,47.243,0,0,1,8.529.783q.916.166,1.171.237Z" transform="translate(-48.5 24.892)" fill="#979797"/>
  <path id="Path_5431" data-name="Path 5431" d="M12.4,23.116,0,0H18.153L22.2,7.761,26.376,0H41.55L28.9,23.116V37.9H12.4Z" transform="translate(8.019 34.995)" fill="#fff"/>
  <path id="Path_5432" data-name="Path 5432" d="M85.663,32.907h-1.4q-.663,0-1.273-.047,0,2.825,3.233,3.086.891.07,1.731.071a20.752,20.752,0,0,0,5.436-.925,16.376,16.376,0,0,0,5.868-3.014l1.578,7.381q-5.677,4.581-17.159,4.58a18.23,18.23,0,0,1-11.329-3.584,12.866,12.866,0,0,1-5.143-10.846,15.977,15.977,0,0,1,2.9-9.375,16.877,16.877,0,0,1,7.306-5.767,25.061,25.061,0,0,1,9.955-1.97q6.925,0,10.477,2.824a8.565,8.565,0,0,1,3.539,6.977q-.014,4.153-4.265,7.381T85.663,32.907m3.437-10.8a1.846,1.846,0,0,0-2.088-2.088,3.293,3.293,0,0,0-3.106,2.3,10.049,10.049,0,0,0-.5,2.314q-.14,1.317-.42,2.812l5.576-1.163.484-3.631Z" transform="translate(-20.259 29.736)" fill="#fff"/>
  <path id="Path_5433" data-name="Path 5433" d="M158.356,22.547a43.706,43.706,0,0,0-8.223-1.234,1.805,1.805,0,0,0-1.133.308.874.874,0,0,0-.394.688q0,.784,2.1,1.578t3.857,1.555a11.818,11.818,0,0,1,3.03,1.851q2.75,2.373,2.75,7.06a8.228,8.228,0,0,1-3.641,7.2q-3.64,2.515-9.852,2.516a37.174,37.174,0,0,1-9.929-1.068,8.063,8.063,0,0,1-2.5-1.068v-8.8a6.264,6.264,0,0,1,1.248.309q.89.284,2.952.89a13.44,13.44,0,0,0,3.755.605q1.694,0,1.694-1.163,0-.9-1.528-1.756-.687-.379-1.553-.783a12.557,12.557,0,0,1-5.13-3.785,8.429,8.429,0,0,1-1.54-5.043,8.285,8.285,0,0,1,4.48-7.689,19.881,19.881,0,0,1,9.853-2.136,47.243,47.243,0,0,1,8.529.783q.916.166,1.171.237Z" transform="translate(-48.5 29.702)" fill="#fff"/>
</svg>
