<svg id="Icon_-_Enclosure" data-name="Icon - Enclosure" xmlns="http://www.w3.org/2000/svg" width="120" height="120" viewBox="0 0 120 120">
  <rect id="frame" width="120" height="120" fill="none"/>
  <g id="Icon" transform="translate(-642.044 -109.282)">
    <path id="Shadow" d="M702.044,182.167c-10.764,0-21.526,1.536-29.725,4.607-16.4,6.141-16.4,16.125,0,22.266l.078.029,27.46,10.283a5.359,5.359,0,0,0,3.247,0c9.847-3.6,19.894-7.052,28.664-10.313,16.4-6.141,16.4-16.125,0-22.266C723.569,183.7,712.806,182.167,702.044,182.167Z" transform="translate(0 -4.5)" fill="rgba(0,0,0,0.3)"/>
    <g id="Pin" transform="translate(660.021 109.772)">
      <g id="Group_87" data-name="Group 87">
        <path id="Path_156" data-name="Path 156" d="M702.044,115.5a42.025,42.025,0,0,0-29.725,71.751l.078.076,27.46,27.458a2.3,2.3,0,0,0,3.247,0c9.847-9.61,19.894-18.83,28.664-27.534A42.025,42.025,0,0,0,702.044,115.5Z" transform="translate(-660.021 -110.128)" fill="#0071bc"/>
        <path id="Path_157" data-name="Path 157" d="M702.044,109.772a42.024,42.024,0,0,0-29.725,71.75l.078.076,27.46,27.458a2.3,2.3,0,0,0,3.247,0c9.847-9.609,19.894-18.829,28.664-27.534a42.024,42.024,0,0,0-29.724-71.75Z" transform="translate(-660.021 -109.772)" fill="#29abe2"/>
      </g>
    </g>
    <g id="Paw" transform="translate(668.842 117.223)">
      <circle id="Ellipse_30" data-name="Ellipse 30" cx="33.569" cy="33.569" r="33.569" transform="translate(0 8.336)" fill="#0071bc"/>
      <circle id="Ellipse_31" data-name="Ellipse 31" cx="33.569" cy="33.569" r="33.569" transform="translate(0 4.719)" fill="#cc6100"/>
      <circle id="Ellipse_32" data-name="Ellipse 32" cx="33.569" cy="33.569" r="33.569" fill="#f7931e"/>
      <g id="Ellipse_33" data-name="Ellipse 33" fill="none" stroke="#fff" stroke-miterlimit="10" stroke-width="2.885" opacity="0.4" style="mix-blend-mode: overlay;isolation: isolate">
        <circle cx="33.569" cy="33.569" r="33.569" stroke="none"/>
        <circle cx="33.569" cy="33.569" r="32.126" fill="none"/>
      </g>
      <g id="Group_92" data-name="Group 92" transform="translate(8.317 6.625)">
        <g id="Group_89" data-name="Group 89" transform="translate(0 2.202)" style="mix-blend-mode: multiply;isolation: isolate">
          <path id="Path_158" data-name="Path 158" d="M702.044,127.136c4.077,0,1.359,10.484.582,13.008a5.731,5.731,0,0,1-5.242,4.271C689.036,144.026,691.754,126.747,702.044,127.136Zm-23.492,23.686c-.776-4.078.194-9.319,3.106-11.067,1.36-.777,5.437,4.077,6.407,6.406a6.657,6.657,0,0,1,.776,4.466c-.582,3.3-3.3,5.436-6.212,4.853A5.9,5.9,0,0,1,678.552,150.822Zm37.873,18.025a15.754,15.754,0,0,1-8.154,10.29c-3.106,1.553-5.631-1.165-9.319-2.135-2.912-.777-6.6.971-8.542-1.165a16.047,16.047,0,0,1-3.5-14.561c.777-3.3,4.078-4.854,6.6-6.8,3.688-3.106,7.183-5.824,12.037-4.659,4.659,1.165,6.6,4.853,8.542,8.931C715.26,162.052,717.2,165.159,716.425,168.847ZM713.5,147.521a5.707,5.707,0,0,1-3.3-5.825c.194-2.524,1.553-12.814,5.242-11.455C724.953,133.737,721.07,150.433,713.5,147.521Zm14.949,12.619a5.363,5.363,0,0,1-5.437,2.719c-2.718-.582-4.465-3.5-3.883-6.8a7.257,7.257,0,0,1,2.33-3.883c1.941-1.747,7.378-4.659,8.349-3.494C731.748,151.4,730.778,156.646,728.448,160.14Z" transform="translate(-678.295 -127.129)" fill="#aaa"/>
          <path id="Path_159" data-name="Path 159" d="M679.923,145.511c.129-1.344.912-2.893,1.981-3.173.5-.119,1.325,1.77,1.416,2.587a2.167,2.167,0,0,1-.165,1.466,1.772,1.772,0,0,1-2.384.948A1.919,1.919,0,0,1,679.923,145.511Z" transform="translate(-678.396 -128.074)" fill="#aaa"/>
          <path id="Path_160" data-name="Path 160" d="M716.964,170.379c.777-3.689-1.165-6.795-2.33-10.095-1.748-3.672-3.5-7.023-7.237-8.5,2.546,2.482,3.524,6.413,3.866,10.056.326,3.48.234,7.171-1.486,10.213-.93,1.648-2.723,3.156-4.546,2.645a7.281,7.281,0,0,1-2.569-1.831,4.221,4.221,0,0,0-1.722-.977c-1.407-.34-2.423.911-3.683,1.333-2.672.9-5.682-.649-7.324-2.94a17.008,17.008,0,0,1-2.528-7.25,16.04,16.04,0,0,0,3.543,14.34c1.941,2.135,5.63.388,8.542,1.165,3.689.971,6.213,3.689,9.319,2.135A15.753,15.753,0,0,0,716.964,170.379Z" transform="translate(-678.834 -128.661)" fill="#aaa"/>
          <path id="Path_161" data-name="Path 161" d="M698.369,144.414a5.731,5.731,0,0,0,5.242-4.271c.777-2.524,3.494-13.008-.582-13.008a8.628,8.628,0,0,0-1.141.039,4.355,4.355,0,0,0,.437.368c1.345,1.111,1.143,3.206.7,4.893a14.733,14.733,0,0,1-3.564,6.918,7.81,7.81,0,0,1-3.818,2.06,5.959,5.959,0,0,1-1.506.091A4.694,4.694,0,0,0,698.369,144.414Z" transform="translate(-679.28 -127.129)" fill="#aaa"/>
          <path id="Path_162" data-name="Path 162" d="M688.936,151.506a6.658,6.658,0,0,0-.776-4.466,18.131,18.131,0,0,0-4.578-5.781q.8,1.424,1.6,2.848a11.19,11.19,0,0,1,1.742,4.6,5.7,5.7,0,0,1-3.234,5.407,5.453,5.453,0,0,1-3.884.218,5.5,5.5,0,0,0,2.92,2.031C685.635,156.942,688.353,154.806,688.936,151.506Z" transform="translate(-678.389 -128.007)" fill="#aaa"/>
          <path id="Path_163" data-name="Path 163" d="M720.237,132.147a14.22,14.22,0,0,1,.466,7.121,8.647,8.647,0,0,1-1.892,4.166,4.924,4.924,0,0,1-4.11,1.724,4.083,4.083,0,0,1-2.186-1.063,5.281,5.281,0,0,0,3.11,3.738C722.362,150.424,726.179,137.492,720.237,132.147Z" transform="translate(-680.422 -127.441)" fill="#aaa"/>
          <path id="Path_164" data-name="Path 164" d="M732.506,150.1a1.037,1.037,0,0,0-.862-.259l.032.078c.953,2.4-.054,5.176-1.631,7.222-1.228,1.594-3.127,3.174-5.273,2.993a5.52,5.52,0,0,1-3.047-1.647c-.1,2.868,1.548,5.263,3.985,5.786a5.363,5.363,0,0,0,5.437-2.719C733.477,158.057,734.448,152.816,732.506,150.1Z" transform="translate(-680.994 -128.541)" fill="#aaa"/>
          <path id="Path_165" data-name="Path 165" d="M698.561,155.338a6.612,6.612,0,0,0-1.112,1.023c-.357.408-.641.943-1.032,1.311-.177.167-.392.313-.584.47q-.651.532-1.29,1.08-.732.63-1.445,1.281a2.258,2.258,0,0,0-.476.47,4.385,4.385,0,0,0-.181.5,5.593,5.593,0,0,0-.45,1.563,2.776,2.776,0,0,0,.256,1.428,2.2,2.2,0,0,0,.432.787,3.953,3.953,0,0,0,2.786.849,4.325,4.325,0,0,0,3.405-2.09c.646-1.1.788-2.436,1.494-3.507a2.85,2.85,0,0,1,.9-.927,3.96,3.96,0,0,0,.654-.612,10.558,10.558,0,0,0,1.182-1.48,3.277,3.277,0,0,0,.692-2.25c-.177-1.094-1.236-1.4-2.188-1.244A7.438,7.438,0,0,0,698.561,155.338Z" transform="translate(-679.146 -128.796)" fill="#aaa"/>
          <path id="Path_166" data-name="Path 166" d="M700.632,129.569c1.324.332-.414,3.517-.871,4.274a1.922,1.922,0,0,1-2.052.96C695.029,134,697.321,128.6,700.632,129.569Z" transform="translate(-679.429 -127.274)" fill="#aaa"/>
          <path id="Path_167" data-name="Path 167" d="M715.335,136.839a1.854,1.854,0,0,1-.625-2.083c.244-.786,1.417-3.947,2.487-3.251C719.959,133.3,717.523,138.309,715.335,136.839Z" transform="translate(-680.553 -127.395)" fill="#aaa"/>
          <path id="Path_168" data-name="Path 168" d="M730.245,155.45a1.916,1.916,0,0,1-1.942.971,2.007,2.007,0,0,1-1.387-2.428,2.593,2.593,0,0,1,.832-1.387c.694-.624,2.636-1.665,2.982-1.248C731.424,152.328,731.077,154.2,730.245,155.45Z" transform="translate(-681.315 -128.629)" fill="#aaa"/>
        </g>
        <g id="Group_91" data-name="Group 91">
          <g id="Group_90" data-name="Group 90">
            <path id="Path_169" data-name="Path 169" d="M702.044,124.788c4.077,0,1.359,10.484.582,13.008a5.731,5.731,0,0,1-5.242,4.271C689.036,141.678,691.754,124.4,702.044,124.788Zm-23.492,23.686c-.776-4.078.194-9.319,3.106-11.067,1.36-.777,5.437,4.077,6.407,6.406a6.655,6.655,0,0,1,.776,4.466c-.582,3.3-3.3,5.436-6.212,4.853A5.9,5.9,0,0,1,678.552,148.474ZM716.425,166.5a15.756,15.756,0,0,1-8.154,10.29c-3.106,1.553-5.631-1.165-9.319-2.135-2.912-.777-6.6.971-8.542-1.165a16.047,16.047,0,0,1-3.5-14.561c.777-3.3,4.078-4.854,6.6-6.8,3.688-3.106,7.183-5.824,12.037-4.659,4.659,1.165,6.6,4.853,8.542,8.93C715.26,159.7,717.2,162.811,716.425,166.5ZM713.5,145.173a5.705,5.705,0,0,1-3.3-5.824c.194-2.524,1.553-12.814,5.242-11.455C724.953,131.388,721.07,148.085,713.5,145.173Zm14.949,12.62a5.362,5.362,0,0,1-5.437,2.718c-2.718-.582-4.465-3.494-3.883-6.795a7.258,7.258,0,0,1,2.33-3.883c1.941-1.747,7.378-4.66,8.349-3.5C731.748,149.056,730.778,154.3,728.448,157.792Z" transform="translate(-678.295 -124.781)" fill="#ededed"/>
            <path id="Path_170" data-name="Path 170" d="M679.923,143.163c.129-1.344.912-2.893,1.981-3.173.5-.119,1.325,1.77,1.416,2.586a2.167,2.167,0,0,1-.165,1.466,1.772,1.772,0,0,1-2.384.949A1.92,1.92,0,0,1,679.923,143.163Z" transform="translate(-678.396 -125.726)" fill="#fff"/>
            <path id="Path_171" data-name="Path 171" d="M716.964,168.031c.777-3.689-1.165-6.795-2.33-10.1-1.748-3.672-3.5-7.022-7.237-8.5,2.546,2.482,3.524,6.412,3.866,10.056.326,3.48.234,7.17-1.486,10.213-.93,1.648-2.723,3.156-4.546,2.645a7.281,7.281,0,0,1-2.569-1.831,4.234,4.234,0,0,0-1.722-.978c-1.407-.339-2.423.911-3.683,1.334-2.672.9-5.682-.649-7.324-2.94a17.012,17.012,0,0,1-2.528-7.25,16.041,16.041,0,0,0,3.543,14.341c1.941,2.135,5.63.388,8.542,1.165,3.689.971,6.213,3.689,9.319,2.135A15.755,15.755,0,0,0,716.964,168.031Z" transform="translate(-678.834 -126.313)" fill="#c6c6c6"/>
            <path id="Path_172" data-name="Path 172" d="M698.369,142.066a5.731,5.731,0,0,0,5.242-4.271c.777-2.524,3.494-13.008-.582-13.008a8.623,8.623,0,0,0-1.141.039,4.486,4.486,0,0,0,.437.368c1.345,1.111,1.143,3.206.7,4.893A14.737,14.737,0,0,1,699.456,137a7.8,7.8,0,0,1-3.818,2.06,5.915,5.915,0,0,1-1.506.092A4.694,4.694,0,0,0,698.369,142.066Z" transform="translate(-679.28 -124.781)" fill="#c6c6c6"/>
            <path id="Path_173" data-name="Path 173" d="M688.936,149.158a6.655,6.655,0,0,0-.776-4.466,18.121,18.121,0,0,0-4.578-5.781q.8,1.424,1.6,2.848a11.185,11.185,0,0,1,1.742,4.6,5.7,5.7,0,0,1-3.234,5.407,5.458,5.458,0,0,1-3.884.218,5.5,5.5,0,0,0,2.92,2.031C685.635,154.594,688.353,152.458,688.936,149.158Z" transform="translate(-678.389 -125.659)" fill="#c6c6c6"/>
            <path id="Path_174" data-name="Path 174" d="M720.237,129.8a14.217,14.217,0,0,1,.466,7.12,8.65,8.65,0,0,1-1.892,4.167,4.924,4.924,0,0,1-4.11,1.724,4.083,4.083,0,0,1-2.186-1.063,5.279,5.279,0,0,0,3.11,3.737C722.362,148.076,726.179,135.143,720.237,129.8Z" transform="translate(-680.422 -125.093)" fill="#c6c6c6"/>
            <path id="Path_175" data-name="Path 175" d="M732.506,147.749a1.044,1.044,0,0,0-.862-.259c.01.026.022.053.032.078.953,2.4-.054,5.177-1.631,7.223-1.228,1.594-3.127,3.174-5.273,2.993a5.526,5.526,0,0,1-3.047-1.647c-.1,2.867,1.548,5.263,3.985,5.785a5.362,5.362,0,0,0,5.437-2.718C733.477,155.709,734.448,150.468,732.506,147.749Z" transform="translate(-680.994 -126.193)" fill="#c6c6c6"/>
            <path id="Path_176" data-name="Path 176" d="M698.561,152.99a6.611,6.611,0,0,0-1.112,1.023c-.357.407-.641.943-1.032,1.311-.177.167-.392.312-.584.47q-.651.532-1.29,1.08-.732.63-1.445,1.281a2.277,2.277,0,0,0-.476.469,4.4,4.4,0,0,0-.181.5,5.593,5.593,0,0,0-.45,1.563,2.778,2.778,0,0,0,.256,1.428,2.2,2.2,0,0,0,.432.787,3.953,3.953,0,0,0,2.786.849,4.326,4.326,0,0,0,3.405-2.091c.646-1.1.788-2.435,1.494-3.506a2.841,2.841,0,0,1,.9-.927,3.959,3.959,0,0,0,.654-.612,10.512,10.512,0,0,0,1.182-1.481,3.274,3.274,0,0,0,.692-2.249c-.177-1.094-1.236-1.4-2.188-1.244A7.437,7.437,0,0,0,698.561,152.99Z" transform="translate(-679.146 -126.448)" fill="#fff"/>
            <path id="Path_177" data-name="Path 177" d="M700.632,127.22c1.324.333-.414,3.518-.871,4.275a1.923,1.923,0,0,1-2.052.96C695.029,131.648,697.321,126.255,700.632,127.22Z" transform="translate(-679.429 -124.926)" fill="#fff"/>
            <path id="Path_178" data-name="Path 178" d="M715.335,134.491a1.855,1.855,0,0,1-.625-2.084c.244-.785,1.417-3.946,2.487-3.25C719.959,130.951,717.523,135.96,715.335,134.491Z" transform="translate(-680.553 -125.047)" fill="#fff"/>
            <path id="Path_179" data-name="Path 179" d="M730.245,153.1a1.916,1.916,0,0,1-1.942.972,2.007,2.007,0,0,1-1.387-2.428,2.593,2.593,0,0,1,.832-1.387c.694-.625,2.636-1.665,2.982-1.248C731.424,149.98,731.077,151.853,730.245,153.1Z" transform="translate(-681.315 -126.281)" fill="#fff"/>
          </g>
        </g>
      </g>
    </g>
  </g>
</svg>
