<svg id="Icon_-_Progress" data-name="Icon - Progress" xmlns="http://www.w3.org/2000/svg" width="120" height="120" viewBox="0 0 120 120">
  <rect id="frame" width="120" height="120" fill="none"/>
  <path id="Path_1341" data-name="Path 1341" d="M898.059,780.6l-6.792-5.582a5.818,5.818,0,0,1-.8-8.187L913.421,738.9a5.821,5.821,0,0,1,7.155-1.481l12.431,6.379a5.816,5.816,0,0,0,7.242-1.6l12.941-16.573a5.818,5.818,0,0,1,8.166-1.006l6.93,5.409a5.824,5.824,0,0,1,1.006,8.171l-23.339,29.887a5.821,5.821,0,0,1-7.242,1.6L925.9,763.113a5.817,5.817,0,0,0-7.15,1.481l-12.5,15.209A5.818,5.818,0,0,1,898.059,780.6Z" transform="translate(-869.834 -685.657)" fill="rgba(0,0,0,0.3)"/>
  <path id="Path_1342" data-name="Path 1342" d="M898.059,780.6l-6.792-5.582a5.818,5.818,0,0,1-.8-8.187L913.421,738.9a5.821,5.821,0,0,1,7.155-1.481l12.431,6.379a5.816,5.816,0,0,0,7.242-1.6l12.941-16.573a5.818,5.818,0,0,1,8.166-1.006l6.93,5.409a5.824,5.824,0,0,1,1.006,8.171l-23.339,29.887a5.821,5.821,0,0,1-7.242,1.6L925.9,763.113a5.817,5.817,0,0,0-7.15,1.481l-12.5,15.209A5.818,5.818,0,0,1,898.059,780.6Z" transform="translate(-869.834 -693.657)" fill="#afafaf"/>
  <path id="Path_1343" data-name="Path 1343" d="M898.059,780.6l-6.792-5.582a5.818,5.818,0,0,1-.8-8.187L913.421,738.9a5.821,5.821,0,0,1,7.155-1.481l12.431,6.379a5.816,5.816,0,0,0,7.242-1.6l12.941-16.573a5.818,5.818,0,0,1,8.166-1.006l6.93,5.409a5.824,5.824,0,0,1,1.006,8.171l-23.339,29.887a5.821,5.821,0,0,1-7.242,1.6L925.9,763.113a5.817,5.817,0,0,0-7.15,1.481l-12.5,15.209A5.818,5.818,0,0,1,898.059,780.6Z" transform="translate(-869.834 -700.657)" fill="#fff"/>
</svg>
