<svg xmlns="http://www.w3.org/2000/svg" width="120" height="120" viewBox="0 0 120 120"><defs><style>.a{fill:none;}.b,.p{opacity:0.3;}.c{fill:#e42320;}.d{fill:#c0282e;}.e,.m,.n,.o,.p,.q,.r{fill:#fff;isolation:isolate;}.e{opacity:0.34;mix-blend-mode:screen;}.f{opacity:0.2;}.g{fill:#1d1d1b;}.h{fill:#8cc63f;}.i{fill:#f0f;}.j{fill:#29abe2;}.k{fill:#ffda00;}.l{fill:#754c24;}.m{opacity:0.35;}.n{opacity:0.17;}.o{opacity:0.31;}.q{opacity:0.15;}.r{opacity:0.5;}</style></defs><rect class="a" width="120" height="120"/><g transform="translate(128.045 -27.204)"><path class="b" d="M-41.433,43.795a27.7,27.7,0,0,0-20.259,8.07,28.765,28.765,0,0,0-6.353,9.271,30.466,30.466,0,0,0-6.181-9.1,27.984,27.984,0,0,0-20.259-8.413c-16.826,0-29.531,14.765-28.5,31.591,2.232,31.076,37.772,54.083,50.477,61.294a9.178,9.178,0,0,0,8.928,0C-50.876,129.3-15.336,106.291-13.1,75.215-12.074,58.561-24.607,43.795-41.433,43.795Z"/><path class="c" d="M-41.433,36.912a27.7,27.7,0,0,0-20.259,8.069,28.781,28.781,0,0,0-6.353,9.272,30.471,30.471,0,0,0-6.181-9.1A27.988,27.988,0,0,0-94.485,36.74c-16.826,0-29.531,14.766-28.5,31.591,2.232,31.076,37.772,54.083,50.477,61.294a9.178,9.178,0,0,0,8.928,0c12.705-7.211,48.245-30.218,50.477-61.294C-12.074,51.677-24.607,36.912-41.433,36.912Z"/><path class="d" d="M-63.508,108.082a11.137,11.137,0,0,1-9.074,0c-9.437-4.4-31.266-1.9-43.222-17.847,11.572,19.8,33.8,34,43.295,39.39a9.178,9.178,0,0,0,8.928,0c9.492-5.387,31.723-19.592,43.3-39.39C-32.242,106.186-54.071,103.687-63.508,108.082Z"/><path class="e" d="M-94.919,44.545c8.028,0,15.357,2.577,20.592,7.016a25.868,25.868,0,0,1,6.282,7.59,24.473,24.473,0,0,1,6.457-7.733A31.649,31.649,0,0,1-41,44.688c13.471,0,24.229,7.643,27.68,17.676-1.872-14.058-13.336-25.452-28.116-25.452a27.7,27.7,0,0,0-20.259,8.069,28.781,28.781,0,0,0-6.353,9.272,30.471,30.471,0,0,0-6.181-9.1,27.989,27.989,0,0,0-20.26-8.413c-14.791,0-26.394,11.413-28.284,25.6C-119.293,52.215-108.413,44.545-94.919,44.545Z"/><g class="f"><path class="g" d="M-66.895,65.086c3.706.6-.062,9.823-1.1,12.08a5.3,5.3,0,0,1-5.47,3.248C-81.175,79.172-76.513,63.526-66.895,65.086Z"/><path class="g" d="M-91.793,84.031c-.154-3.9,1.412-8.693,4.276-9.857,1.373-.559,4.448,4.512,5.177,6.765a5.935,5.935,0,0,1,.061,4.148c-.988,2.908-3.849,4.557-6.388,3.681A4.9,4.9,0,0,1-91.793,84.031Z"/><path class="g" d="M-58.968,85.541a5.185,5.185,0,0,1-2.263-5.788c.549-2.368,3.177-11.744,6.4-9.988C-46.471,74.33-52.268,89.191-58.968,85.541Z"/><path class="g" d="M-46.636,99.215A4.9,4.9,0,0,1-52.009,101c-2.518-.866-3.756-3.909-2.765-6.784a5.891,5.891,0,0,1,2.584-3.233c1.96-1.306,7.47-3.422,8.206-2.15C-42.45,91.51-44.151,96.229-46.636,99.215Z"/><path class="g" d="M-59.515,106.955a14.876,14.876,0,0,1-8.992,8.5c-3.12,1.063-5.137-1.9-8.395-3.228-2.677-1.087-6.293.033-7.812-2.219a14.806,14.806,0,0,1-1.368-13.885c1.24-3.027,4.436-3.878,7-5.488,3.785-2.371,7.471-4.521,11.848-2.732,4.115,1.672,5.542,5.432,6.747,9.446C-59.542,100.477-58.163,103.654-59.515,106.955Z"/></g><path class="h" d="M-67.783,61.881c3.7.6-.062,9.823-1.1,12.08a5.3,5.3,0,0,1-5.47,3.247C-82.062,75.963-77.4,60.317-67.783,61.881Z"/><path class="i" d="M-92.679,80.823c-.154-3.9,1.412-8.693,4.275-9.857,1.373-.559,4.448,4.512,5.178,6.765a5.946,5.946,0,0,1,.061,4.148c-.989,2.908-3.85,4.557-6.388,3.681A4.9,4.9,0,0,1-92.679,80.823Z"/><path class="j" d="M-59.855,82.333a5.187,5.187,0,0,1-2.264-5.788c.55-2.369,3.178-11.744,6.4-9.988C-47.358,71.122-53.155,85.983-59.855,82.333Z"/><path class="k" d="M-47.523,96A4.9,4.9,0,0,1-52.9,97.8c-2.518-.867-3.757-3.911-2.766-6.785a5.891,5.891,0,0,1,2.584-3.233c1.96-1.306,7.471-3.422,8.206-2.151C-43.338,88.3-45.038,93.018-47.523,96Z"/><path class="l" d="M-59.266,102.754a14.872,14.872,0,0,1-8.993,8.5c-3.119,1.063-5.135-1.9-8.394-3.228-2.677-1.088-6.293.033-7.812-2.22a14.8,14.8,0,0,1-1.368-13.881c1.239-3.027,4.437-3.879,7-5.488,3.785-2.371,7.471-4.521,11.848-2.732,4.115,1.672,5.542,5.432,6.75,9.446C-59.3,96.276-57.914,99.452-59.266,102.754Z"/><path class="m" d="M-84.884,74.354c-1.19-1.948-2.676-3.732-3.52-3.388-2.806,1.14-4.365,5.765-4.281,9.623A64.117,64.117,0,0,1-84.884,74.354Z"/><path class="n" d="M-67.783,61.881c-5.646-.916-9.583,4.1-10.313,8.645a21.942,21.942,0,0,1,11.282-2.2C-65.978,65.3-65.691,62.217-67.783,61.881Z"/><path class="n" d="M-55.719,66.557c-1.769-.963-3.356,1.422-4.52,4.164a26.808,26.808,0,0,1,7.724,7.8C-50.812,74.581-51.165,69.043-55.719,66.557Z"/><path class="o" d="M-44.871,85.629c-.371-.643-1.966-.418-3.705.129A50.292,50.292,0,0,1-45.9,93.6C-44.407,90.864-43.707,87.658-44.871,85.629Z"/><path class="n" d="M-60.24,93.151c-1.209-4.014-2.635-7.774-6.75-9.446-4.377-1.789-8.064.362-11.849,2.732-2.558,1.609-5.755,2.462-7,5.488a15.456,15.456,0,0,0-.549,1.594c4.079-.885,10.848-1.779,16.445.25,4.4,1.6,8.117,5.475,10.7,8.9C-57.939,99.4-59.3,96.25-60.24,93.151Z"/><path class="p" d="M-91.134,77.927c.235-1.272,1.106-2.68,2.148-2.859.481-.071,1.116,1.795,1.135,2.58a2.069,2.069,0,0,1-.276,1.383,1.7,1.7,0,0,1-2.276.746l-.073-.039A1.837,1.837,0,0,1-91.134,77.927Z"/><path class="q" d="M-75.845,87.216a6.25,6.25,0,0,0-1.143.885c-.374.358-.687.843-1.09,1.161-.184.144-.4.265-.595.4q-.665.453-1.317.923-.749.539-1.481,1.1a2.187,2.187,0,0,0-.492.407,4.231,4.231,0,0,0-.213.458A5.355,5.355,0,0,0-82.733,94a2.659,2.659,0,0,0,.126,1.383,2.116,2.116,0,0,0,.347.785,3.785,3.785,0,0,0,2.583,1.037,4.135,4.135,0,0,0,3.414-1.711c.707-1,.95-2.253,1.711-3.215a2.722,2.722,0,0,1,.931-.808,3.774,3.774,0,0,0,.672-.529A10.055,10.055,0,0,0-71.7,89.63a3.141,3.141,0,0,0,.844-2.085c-.079-1.056-1.062-1.435-1.982-1.364A7.1,7.1,0,0,0-75.845,87.216Z"/><path class="p" d="M-71.157,65.13c1.234.425-.683,3.314-1.181,4a1.835,1.835,0,0,1-2.032.745C-76.853,68.884-74.228,63.938-71.157,65.13Z"/><path class="p" d="M-58.815,73.053a1.771,1.771,0,0,1-.423-2.035c.3-.728,1.674-3.641,2.636-2.89C-54.123,70.063-56.852,74.632-58.815,73.053Z"/><path class="r" d="M-46.775,90.761a1.831,1.831,0,0,1-1.929.765A1.918,1.918,0,0,1-49.825,89.1a2.478,2.478,0,0,1,.906-1.252c.712-.537,2.647-1.368,2.943-.943C-45.4,87.887-45.882,89.641-46.775,90.761Z"/></g></svg>