<svg xmlns="http://www.w3.org/2000/svg" width="120" height="120" viewBox="0 0 120 120"><defs><style>.a{fill:none;}.ac,.b,.f{opacity:0.3;}.c{fill:#beae50;}.d{fill:#fbf088;}.aa,.ab,.ac,.ad,.ae,.e,.j,.s,.z{fill:#fff;}.e{opacity:0.34;}.e,.s{mix-blend-mode:screen;}.aa,.ab,.ac,.ad,.ae,.e,.s,.z{isolation:isolate;}.g{fill:#c6b198;}.h{fill:#988575;}.i{fill:#736358;}.ae,.j{opacity:0.5;}.k{fill:#01628c;}.l{fill:#0971b7;}.m{fill:#149bd7;}.n{fill:#f8af3c;}.o{fill:#f8e831;}.p{fill:#f29222;}.q{fill:#b500ba;}.r{fill:#f0f;}.s,.z{opacity:0.35;}.t{opacity:0.2;}.u{fill:#1d1d1b;}.v{fill:#8cc63f;}.w{fill:#29abe2;}.x{fill:#ffda00;}.y{fill:#754c24;}.aa{opacity:0.17;}.ab{opacity:0.31;}.ad{opacity:0.15;}.af{fill:#f5e153;}</style></defs><rect class="a" width="120" height="120"/><g transform="translate(105.425 84.89)"><g class="b"><path d="M-55.14-67.79c-28.719.56-45.491,23.862-45.283,35.346.245,11.488,6.152,19.995,17.65,19.767C-71.3-12.9-65.5-10.138-65.325-1.528A19.628,19.628,0,0,0-44.832,18.18C-7.5,17.445,9.335-3,8.934-23.091,8.251-57.559-20.688-68.481-55.14-67.79Z"/></g><path class="c" d="M-55.14-72.514c-28.719.559-45.491,23.861-45.283,35.345.245,11.488,6.152,19.995,17.65,19.767C-71.3-17.627-65.5-14.863-65.325-6.253A19.628,19.628,0,0,0-44.832,13.455C-7.5,12.72,9.335-7.721,8.934-27.815,8.251-62.284-20.688-73.206-55.14-72.514Z"/><path class="d" d="M-54.506-77.024c-28.719.56-45.491,23.862-45.283,35.345.245,11.489,6.152,20,17.65,19.768,11.475-.225,17.268,2.539,17.448,11.149A19.629,19.629,0,0,0-44.2,8.946C-6.868,8.211,9.969-12.23,9.568-32.325,8.885-66.793-20.054-77.715-54.506-77.024Z"/><path class="e" d="M-54.506-77.024C-76.519-76.6-91.513-62.8-97.221-51.216-94.567-54.863-85.14-65.037-59.79-70.4c27-5.714,56.2,11.268,63.621,15.979C-6.348-71.634-28.9-77.537-54.506-77.024Z"/><path class="f" d="M-9.738,25.3h0l-.01-.006c-.13-.1-.278-.2-.435-.3l-.074-.048c-.159-.1-.331-.2-.515-.309l-.1-.059c-.193-.109-.4-.22-.613-.334l-.048-.025c-.215-.112-.442-.227-.68-.343l-.1-.048c-.243-.118-.5-.239-.766-.362l-.155-.071c-.272-.125-.554-.251-.85-.38l-.1-.043q-.433-.187-.9-.382l-.112-.047c-.321-.133-.654-.269-.995-.406l-.209-.083q-.515-.206-1.058-.415l-.17-.065q-.534-.2-1.1-.414l-.115-.043-.367-.136-.01,0-.164-.06-.654-.238-.051-.019-.116-.042-.128-.045c-.237-.086-.478-.171-.721-.258l-.24-.085-.262-.092-.23-.08c-.426-.149-.859-.3-1.3-.45l-.091-.032-.139-.047-.31-.1-.746-.251-.283-.094-.209-.07-.611-.2-.383-.126-.449-.146-.265-.086-.064-.021-.354-.114q-.567-.183-1.145-.366C-40.4,14.068-64.776,9.1-64.776,9.1l-.29-.049-.107-.018-.344-.058-.371-.063-.118-.02-.088-.015-.438-.075-.123-.021-.259-.044L-68,8.553l-.635-.11-.045-.007-.419-.072-.411-.071-.388-.067-.024,0-.392-.068-1.512-.261-.084-.015-.5-.086-.93-.161-1.17-.2-.073-.013-1.2-.208-.561-.1-.731-.127-.77-.133-.168-.03-.076-.013c-2.021-4.331-4.879-4.7-8.213-4.98a38.489,38.489,0,0,1-10.013-2.1c-.115-.04-.214-.084-.322-.125a1.252,1.252,0,0,1-.849-1.343,5.181,5.181,0,0,1,.5-.684,3.217,3.217,0,0,0,.667-1.263,3.937,3.937,0,0,0-.811-3.6c-.862-.862-2.1-.632-2.816,2.252a8.06,8.06,0,0,0-.192,1.121c-.023.161-.034.263-.034.263s.008-.043.022-.1c-.387,4.792,3.341,9.591,4.6,11.058.563.705,1.168,1.43,1.824,2.191l0,0a23.163,23.163,0,0,0,1.83,1.9l-.013,0c.093.087.183.162.274.244s.181.162.27.238c3.325,2.85,5.848,2.823,8.354,2.366.177-.032.361-.071.55-.116a9.239,9.239,0,0,0,3.347-2.058l.049.014c.429.122,1.415.4,2.657.757,3.541,1.012,9.143,2.622,9.733,2.85,0,0,23.631,7.231,37.645,9.578C-11.534,28.2-6.531,27.654-9.738,25.3Z"/><path class="g" d="M-99.724-6.6s-.349,2.327,3.409,3.629A38.5,38.5,0,0,0-86.3-.872c3.343.285,6.207.65,8.229,5.013s-2.681,6.685-5.561,7.21S-89.42,11.8-93.729,6.8-100.467-2.939-99.724-6.6Z"/><path class="h" d="M-78.789,7.357C-77.1,2.173-84.908,2.345-88.7,1.9s-9.459-2.619-10.4-4.974A5.107,5.107,0,0,1-99.6-5.664a2.176,2.176,0,0,1-.128-.934c-.7,4.815,1.685,8.4,6,13.4s7.214,5.076,10.095,4.551c.165-.03.336-.067.511-.108C-81.171,10.5-79.421,9.3-78.789,7.357Z"/><path class="i" d="M-91.912,8.7c3.6,3.339,6.257,3.328,8.9,2.847.177-.032.361-.071.55-.116,2.1-.794,3.979-2.084,4.659-4.177l.042-.134-.072.011S-84.8,11.069-91.912,8.7Z"/><path class="j" d="M-99.724-6.6s-.349,2.327,3.409,3.629A38.5,38.5,0,0,0-86.3-.872c3.343.285,6.207.65,8.229,5.013s-2.681,6.685-5.561,7.21S-89.42,11.8-93.729,6.8-100.467-2.939-99.724-6.6Z"/><path class="k" d="M-28.134,15.256C-40.4,11.368-64.776,6.4-64.776,6.4c-2.058-.341-13.348-2.3-13.348-2.3L-79.3,9.322S-67.548,12.66-66.678,13c0,0,23.631,7.23,37.645,9.577C1.2,27.638-5.867,22.311-28.134,15.256Z"/><path class="l" d="M-64.776,6.4c-1.487-.246-7.795-1.337-11.18-1.924L-76.085,8.6S-4.762,28.053-9.738,22.6c-2.335-1.711-9.017-4.376-18.4-7.347C-40.4,11.368-64.776,6.4-64.776,6.4Z"/><path class="m" d="M-64.776,6.4c-1.44-.238-7.393-1.268-10.844-1.866l.165,1.323S.157,26.61-17.4,19.058q-.921-.4-1.818-.774c-2.581-.951-5.578-1.97-8.918-3.028C-40.4,11.368-64.776,6.4-64.776,6.4Z"/><path class="n" d="M-79.3,9.322l2.9.825,1.227-5.534L-78.124,4.1Z"/><path class="o" d="M-78.358,5.139l2.9.72.276-1.246L-78.124,4.1Z"/><path class="p" d="M-79.3,9.322l2.9.825.355-1.6L-78.925,8-79,7.994Z"/><path class="q" d="M-97.455-4.6a1.26,1.26,0,0,0,.891,1.541.921.921,0,0,1-.254,1.811c-.845-.119-.745,2.234.223,3.232s-1.027-.144-1.737-1.66a12.015,12.015,0,0,1-.836-3.688S-98.314-7.242-97.455-4.6Z"/><path class="r" d="M-95.152,5.059s-6.314-6.65-4.8-12.794,5.441-.245,2.96,2.614-.444,6.117.632,7.338S-94.488,4.559-95.152,5.059Z"/><path class="s" d="M-96.439-6.138s-.383-2.241-1.955-1.971a2.164,2.164,0,0,0-1.781,1.758s.349-3.476,1.992-3.915,2.469,2.935,1.744,4.128"/><g class="t"><path class="u" d="M-31.068-51.324c3.706.6-.062,9.823-1.1,12.08A5.3,5.3,0,0,1-37.636-36C-45.348-37.238-40.686-52.884-31.068-51.324Z"/><path class="u" d="M-55.965-32.379c-.155-3.9,1.411-8.693,4.275-9.857,1.373-.559,4.448,4.512,5.177,6.765a5.935,5.935,0,0,1,.061,4.148c-.987,2.909-3.849,4.557-6.388,3.681A4.9,4.9,0,0,1-55.965-32.379Z"/><path class="u" d="M-23.141-30.869A5.184,5.184,0,0,1-25.4-36.656c.549-2.369,3.177-11.745,6.4-9.989C-10.643-42.08-16.441-27.219-23.141-30.869Z"/><path class="u" d="M-10.809-17.195A4.9,4.9,0,0,1-16.182-15.4c-2.518-.866-3.756-3.91-2.765-6.785a5.891,5.891,0,0,1,2.584-3.233c1.96-1.3,7.47-3.422,8.206-2.15C-6.623-24.9-8.324-20.181-10.809-17.195Z"/><path class="u" d="M-23.688-9.455a14.876,14.876,0,0,1-8.992,8.5c-3.12,1.063-5.137-1.9-8.4-3.228-2.677-1.087-6.293.033-7.812-2.219a14.808,14.808,0,0,1-1.368-13.885c1.24-3.026,4.436-3.878,7-5.488,3.785-2.37,7.471-4.521,11.848-2.731,4.116,1.671,5.542,5.431,6.748,9.445C-23.715-15.932-22.336-12.756-23.688-9.455Z"/></g><path class="v" d="M-31.956-54.529c3.7.6-.062,9.823-1.1,12.08a5.3,5.3,0,0,1-5.47,3.247C-46.235-40.446-41.573-56.092-31.956-54.529Z"/><path class="r" d="M-56.852-35.587c-.154-3.9,1.412-8.693,4.275-9.857C-51.2-46-48.129-40.931-47.4-38.678a5.946,5.946,0,0,1,.061,4.148c-.989,2.907-3.85,4.557-6.388,3.68A4.9,4.9,0,0,1-56.852-35.587Z"/><path class="w" d="M-24.028-34.076a5.187,5.187,0,0,1-2.263-5.789c.549-2.368,3.177-11.744,6.4-9.988C-11.531-45.288-17.328-30.427-24.028-34.076Z"/><path class="x" d="M-11.7-20.406a4.9,4.9,0,0,1-5.372,1.792c-2.518-.867-3.757-3.91-2.766-6.785a5.9,5.9,0,0,1,2.584-3.233c1.96-1.305,7.471-3.422,8.206-2.15C-7.511-28.107-9.21-23.392-11.7-20.406Z"/><path class="y" d="M-23.439-13.656a14.873,14.873,0,0,1-8.992,8.5c-3.12,1.063-5.136-1.9-8.4-3.228-2.677-1.087-6.293.033-7.812-2.22a14.8,14.8,0,0,1-1.368-13.881c1.24-3.026,4.437-3.879,6.995-5.488,3.785-2.37,7.471-4.521,11.848-2.732,4.115,1.672,5.542,5.432,6.75,9.446C-23.469-20.134-22.087-16.957-23.439-13.656Z"/><path class="z" d="M-49.057-42.056c-1.19-1.948-2.676-3.731-3.52-3.388-2.806,1.141-4.365,5.765-4.281,9.623A64.116,64.116,0,0,1-49.057-42.056Z"/><path class="aa" d="M-31.956-54.529c-5.646-.916-9.583,4.1-10.313,8.645a21.943,21.943,0,0,1,11.283-2.2C-30.151-51.112-29.864-54.193-31.956-54.529Z"/><path class="aa" d="M-19.892-49.853c-1.769-.963-3.356,1.423-4.52,4.164a26.808,26.808,0,0,1,7.724,7.8C-14.984-41.829-15.338-47.367-19.892-49.853Z"/><path class="ab" d="M-9.043-30.78c-.372-.643-1.967-.419-3.706.128a50.327,50.327,0,0,1,2.678,7.84C-8.58-25.546-7.88-28.752-9.043-30.78Z"/><path class="aa" d="M-24.413-23.259c-1.209-4.014-2.635-7.774-6.75-9.445-4.377-1.79-8.064.361-11.849,2.731-2.558,1.61-5.755,2.462-6.995,5.488a15.152,15.152,0,0,0-.548,1.6c4.078-.885,10.847-1.78,16.444.249,4.4,1.6,8.118,5.475,10.7,8.9C-22.112-17.01-23.477-20.16-24.413-23.259Z"/><path class="ac" d="M-55.307-38.483c.235-1.272,1.106-2.68,2.148-2.858.481-.072,1.116,1.794,1.135,2.579a2.069,2.069,0,0,1-.276,1.383,1.694,1.694,0,0,1-2.276.746c-.024-.012-.049-.025-.073-.039A1.839,1.839,0,0,1-55.307-38.483Z"/><path class="ad" d="M-40.018-29.194a6.25,6.25,0,0,0-1.143.885c-.374.358-.687.844-1.09,1.161-.183.145-.4.266-.6.4q-.665.453-1.317.923-.749.539-1.481,1.1a2.187,2.187,0,0,0-.492.407,4.232,4.232,0,0,0-.213.458,5.361,5.361,0,0,0-.557,1.451,2.655,2.655,0,0,0,.126,1.382,2.116,2.116,0,0,0,.347.785A3.785,3.785,0,0,0-43.85-19.2a4.134,4.134,0,0,0,3.414-1.71c.707-1,.951-2.254,1.711-3.215a2.7,2.7,0,0,1,.931-.808,3.825,3.825,0,0,0,.672-.53,10.054,10.054,0,0,0,1.248-1.312,3.136,3.136,0,0,0,.844-2.085c-.079-1.056-1.062-1.435-1.982-1.364A7.1,7.1,0,0,0-40.018-29.194Z"/><path class="ac" d="M-35.329-51.28c1.233.425-.684,3.314-1.182,4a1.833,1.833,0,0,1-2.032.745C-41.026-47.526-38.4-52.472-35.329-51.28Z"/><path class="ac" d="M-22.988-43.357a1.77,1.77,0,0,1-.423-2.035c.3-.728,1.674-3.641,2.636-2.89C-18.3-46.346-21.025-41.778-22.988-43.357Z"/><path class="ae" d="M-10.948-25.648a1.828,1.828,0,0,1-1.929.764A1.918,1.918,0,0,1-14-27.309a2.466,2.466,0,0,1,.907-1.252c.711-.538,2.646-1.369,2.942-.944C-9.568-28.523-10.055-26.769-10.948-25.648Z"/><path class="af" d="M-1.825-8.679C-11.678,1.832-37.648,2.743-46.108,3.836S-64.158-6.356-64.158-6.356c2.078,9.173,10,15.5,19.96,15.3C-10.772,8.287,6.2-8.171,9.1-26.032A56.417,56.417,0,0,1-1.825-8.679Z"/><path class="af" d="M-65.366-14.947c-.641-3.391-4.479-8.573-7.556-9.774s-10.549-2.206-18.351-4.446c-7.682-2.2-7.543-17.686-7.537-18.161a17.612,17.612,0,0,0-.979,5.65c.245,11.488,6.152,20,17.65,19.767,9.362-.184,14.938,1.625,16.774,6.972Z"/></g></svg>