<svg xmlns="http://www.w3.org/2000/svg" width="120" height="120" viewBox="0 0 120 120"><defs><style>.a{fill:none;}.b{fill:rgba(0,0,0,0.3);}.c{fill:#f9b233;}.d,.l{fill:#fff;}.e{fill:#ffb14a;}.f{fill:#1d1e1c;opacity:0.2;}.f,.k,.l{isolation:isolate;}.g,.k{fill:#e6332a;}.h{fill:#c6c5c5;}.i{fill:#dddb05;}.j{fill:#f39200;}.k{opacity:0.46;}.l{opacity:0.5;}.m{fill:#edecec;}.n{fill:#be1622;}.o{fill:#2a3180;}</style></defs><g transform="translate(0 0)"><rect class="a" width="120" height="120"/><g transform="translate(2.035)"><g transform="translate(0.231)"><path class="b" d="M6972.737-3600l-29.93-91.937-70.424,22.928-.4,1.266,29.931,91.936,70.423-22.926Z" transform="translate(-6871.987 3695.807)"/><path class="c" d="M6972.737-3600l-29.93-91.937-70.424,22.928-.4,1.266,29.931,91.936,70.423-22.926Z" transform="translate(-6871.987 3691.936)"/></g><rect class="d" width="74.061" height="96.686" transform="translate(0.628 22.928) rotate(-18.033)"/><g transform="translate(16.229 30.31)"><rect class="e" width="60.417" height="3.869" transform="translate(9.419 47.477) rotate(-18.033)"/><rect class="e" width="60.417" height="3.869" transform="translate(7.08 40.281) rotate(-18.033)"/><rect class="e" width="28.71" height="3.869" transform="translate(11.757 54.673) rotate(-18.033)"/><rect class="e" width="60.417" height="3.869" transform="translate(4.741 33.084) rotate(-18.033)"/><rect class="e" width="60.417" height="3.869" transform="translate(2.402 25.889) rotate(-18.033)"/><rect class="e" width="60.417" height="3.869" transform="translate(0 18.703) rotate(-18.033)"/></g><path class="f" d="M6939.9-3657.72a216.906,216.906,0,0,0-30.3,23.187c-2.269,2.075-4.132,3.859-5.519,5.22h0l-.205.2-.389.385-.211.209-.379.379-.157.157-.345.348-.1.1c-.108.113-.217.221-.312.312l-.048.05c-.447.457-.687.712-.687.712a4.639,4.639,0,0,0-.11.927h0a5.944,5.944,0,0,0,.023.7c.012.1.024.215.043.325.011.074.026.147.04.223l-2.092,2.5v0l-.806.964a1.186,1.186,0,0,0-.185.7.517.517,0,0,0,.011.062.454.454,0,0,0,.067.146.7.7,0,0,0,.349.25c.008,0,.013.005.022.009a1.2,1.2,0,0,0,.251.051l.036,0a1.526,1.526,0,0,0,.231,0l.027,0a1.03,1.03,0,0,0,.188-.033l.069-.018.031-.009.1-.027.159-.041.017,0,.743-.193h0l1.86-.48,1.23-.316q.152.119.3.227l.033.025c.114.081.225.159.334.228l.032.021c.232.151.444.271.627.366l.025.014c.182.093.333.161.437.205h0l.12.049h.006l.042.015s.216-.068.621-.2h.007c.406-.135,1-.334,1.766-.6l.073-.027.112-.039.623-.218.362-.13c.188-.066.366-.13.565-.2l.023-.007.551-.2.891-.327c.43-.159.879-.325,1.35-.5.547-.205,1.112-.42,1.712-.652,1.393-.538,2.92-1.142,4.563-1.817q1.547-.636,3.221-1.353l.023-.009q.855-.366,1.739-.753c1.768-.774,3.618-1.61,5.53-2.508.94-.441,1.9-.9,2.87-1.376,3.521-1.715,10.429-5.63,14.155-7.732Z" transform="translate(-6847.281 3723.943)"/><g transform="translate(50.699 18.007)"><path class="g" d="M6934.654-3676.472s-1.527-2.454-2.717-1.2-14.546,16.364-14.546,16.364.368,4.4-7.112,7.237c0,0-1.13-.364,1.885-3.743s17.732-20.617,17.732-20.617,2.576-3.238,8.095-1.318S6934.654-3676.472,6934.654-3676.472Z" transform="translate(-6886.829 3684.765)"/><path class="c" d="M6960.18-3671.641c-2.283,4.906-5,11.444-20.378,32.93s-34.905,37.383-34.905,37.383a7.65,7.65,0,0,1-4.189-1.277,5.434,5.434,0,0,1-2.313-3.563s9.317-23.4,25.21-44.5,21.345-25.626,25.313-29.307c0,0,2.7-.95,7.336,2.255S6960.414-3672.14,6960.18-3671.641Z" transform="translate(-6897.751 3684.993)"/><path class="h" d="M6899.538-3640.915l-1.451,4.4s-.135.635.237.885a1.087,1.087,0,0,0,1.131-.147c.205-.159,3.683-2.691,3.683-2.691Z" transform="translate(-6898.063 3721.658)"/><path class="i" d="M6908.233-3638.133a.266.266,0,0,0-.165-.01c-.542.135-2.121.172-5.069-1.834-2.8-1.907-3.009-3.676-3.023-3.846-1.041,2.35-1.581,3.707-1.581,3.707a5.425,5.425,0,0,0,2.313,3.563,7.652,7.652,0,0,0,4.189,1.279S6906.136-3636.281,6908.233-3638.133Z" transform="translate(-6897.751 3718.938)"/><path class="j" d="M6943.849-3677.722c-4.64-3.205-7.338-2.255-7.338-2.255-3.932,3.645-9.319,8.125-24.856,28.7.149.523,1.259,3.859,5.948,7.3a26.465,26.465,0,0,0,10.078,4.6l.223-.053c14.919-20.911,17.613-27.367,19.871-32.22C6948.008-3672.14,6948.488-3674.515,6943.849-3677.722Z" transform="translate(-6885.346 3684.993)"/><path class="k" d="M6954.577-3678.759a310.658,310.658,0,0,1-16.87,30.273c-8.882,13.55-37.179,45.441-37.179,45.441l.025.067a7.292,7.292,0,0,0,2.349.387s19.532-15.9,34.905-37.383,18.1-28.024,20.378-32.93C6958.413-3673.387,6958.873-3675.668,6954.577-3678.759Z" transform="translate(-6895.757 3686.256)"/><path class="l" d="M6949.619-3678.391l1.171-1.661a4.512,4.512,0,0,0-1.871.08c-3.97,3.681-9.424,8.2-25.312,29.307s-25.21,44.5-25.21,44.5a4.559,4.559,0,0,0,.24.9C6916.193-3647.124,6949.619-3678.391,6949.619-3678.391Z" transform="translate(-6897.75 3684.989)"/><path class="c" d="M6935.917-3671.641c.233-.5.713-2.875-3.926-6.082s-7.338-2.255-7.338-2.255-2,2,3.929,6.082S6935.917-3671.641,6935.917-3671.641Z" transform="translate(-6873.489 3684.993)"/><path class="j" d="M6934.286-3673.19c.184-.4.391-1.7-3.312-4.262s-5.679-2.392-5.679-2.392-1.6,1.593,3.135,4.854S6934.286-3673.19,6934.286-3673.19Z" transform="translate(-6872.829 3685.238)"/><path class="h" d="M6930.085-3682.572s1.461-.553,4.765,1.73,3.142,3.478,2.978,3.83l-4.508,6.14s-.714,1.335-4.936-1.573-2.807-3.987-2.807-3.987Z" transform="translate(-6872.535 3682.633)"/><path class="m" d="M6935.648-3677.013c.164-.352.325-1.548-2.978-3.83s-4.765-1.73-4.765-1.73-1.413,1.08,2.809,3.987S6935.648-3677.013,6935.648-3677.013Z" transform="translate(-6870.356 3682.632)"/><path class="n" d="M6931.834-3678.791a1.043,1.043,0,0,1,.605-.339,1.812,1.812,0,0,0-1.3.292l-7.475,8.367-13.479,15.279c7.477-2.836,7.11-7.237,7.11-7.237S6930.643-3677.533,6931.834-3678.791Z" transform="translate(-6886.726 3685.887)"/><path class="o" d="M6898.48-3639.261l-.394,1.2s-.135.635.237.884a1.088,1.088,0,0,0,1.131-.147c.062-.05.443-.327.935-.687Z" transform="translate(-6898.063 3723.206)"/><path class="k" d="M6901.6-3640.119l-3.328,3.816a1.213,1.213,0,0,0,.979-.221c.205-.161,3.683-2.69,3.683-2.69Z" transform="translate(-6897.862 3722.403)"/></g><rect class="a" width="116.042" height="116.042" transform="translate(0 0.088)"/><g transform="translate(10 11.605)"><path class="e" d="M6877.035-3675.042q4.862-1.994,6.387-2.491a8.63,8.63,0,0,1,2.494-.5,6.04,6.04,0,0,1,1.838.269,6.3,6.3,0,0,1,2.879,1.887,8.4,8.4,0,0,1,1.748,3,7.471,7.471,0,0,1,.4,3.027,6.117,6.117,0,0,1-.8,2.533,7.431,7.431,0,0,1-4.389,3.339l-6.29,2.05Zm6.462,2.5,1.629,5c.21-.34.443-.687.707-1.037q1.5-2.044,1-3.577a2.493,2.493,0,0,0-.895-1.24,1.423,1.423,0,0,0-1.36-.259,1.8,1.8,0,0,0-1.08,1.117Z" transform="translate(-6877.035 3693.337)"/><path class="e" d="M6894.1-3674.8a2.881,2.881,0,0,0-1.373,1.057c-.41.54-.566.974-.464,1.3l1.552,4.761-4.942,1.612-3.327-10.206,4.943-1.612.357,1.093a3.43,3.43,0,0,1,.708-1.349,3.314,3.314,0,0,1,1.171-.88Z" transform="translate(-6869.077 3692.415)"/><path class="e" d="M6894.009-3668.329a4.655,4.655,0,0,1-1.551-1.2,5.417,5.417,0,0,1-1.042-1.884,7.418,7.418,0,0,1-.4-1.934,6.086,6.086,0,0,1,.634-3.12,5.524,5.524,0,0,1,.845-1.256,5.582,5.582,0,0,1,2.462-1.63,3.878,3.878,0,0,1,2.809.13,3.545,3.545,0,0,1,.826.5l.767-1.64,2.691-.876,3.326,10.206-2.692.879-1.729-1.318a4.851,4.851,0,0,1-3.432,3.325,4.938,4.938,0,0,1-1.709.234A4.477,4.477,0,0,1,6894.009-3668.329Zm4.628-8.371a1.449,1.449,0,0,0-.763.056,1.724,1.724,0,0,0-.771.575,3.668,3.668,0,0,0-.577,1,3.356,3.356,0,0,0-.146,2.282,1.193,1.193,0,0,0,.774.875c.332.091.742-.07,1.229-.486a5.912,5.912,0,0,0,1.2-1.4Z" transform="translate(-6863.962 3690.336)"/><path class="e" d="M6905.552-3682.449a3.039,3.039,0,0,0-.834.146,1.477,1.477,0,0,0-.956.76,1.849,1.849,0,0,0-.062,1.243l2.324-.757.848,2.6-2.324.759,2.477,7.6-4.909,1.6-2.479-7.6-.937.306-.848-2.6.937-.306-.562-1.732a2.676,2.676,0,0,1,.38-2.514,5.043,5.043,0,0,1,2.631-1.742,6.562,6.562,0,0,1,3.517-.215Z" transform="translate(-6857.56 3686.775)"/><path class="e" d="M6914.206-3673.973a6.055,6.055,0,0,1-2.96,2.137,4.262,4.262,0,0,1-3.158-.062,3.59,3.59,0,0,1-1.961-2.309l-1.392-4.27-.937.3-.848-2.6.935-.306-.9-2.758,4.745-2.1,1.062,3.259,2.322-.757.85,2.6-2.322.757.84,2.578a2.416,2.416,0,0,0,1.068,1.51,2.632,2.632,0,0,0,1.972-.066Z" transform="translate(-6852.789 3685.94)"/></g></g></g></svg>