<svg id="icon-line-brush" xmlns="http://www.w3.org/2000/svg" width="120" height="120" viewBox="0 0 120 120">
  <g id="handle" transform="translate(-904.139 -1885.766)">
    <path id="Path_1786" data-name="Path 1786" d="M994.054,1918.614a.8.8,0,0,0-.475-.2h0a2.106,2.106,0,0,0-.542.048h0a4.719,4.719,0,0,0-1.072.327,17.06,17.06,0,0,0-2.409,1.335,100.631,100.631,0,0,0-13.128,10.948c-1.5,1.43-3.056,2.953-4.642,4.555s-3.206,3.282-4.839,5.026c-6.954,7.424-4.866,6.094-7.778,10.6l-2.421,2.632h0c-4.754,2.285-11.16,3.633-14.032,12.181-2.071,6.149-5.436,8.818-7.332,9.884h0c-.2.112-.378.2-.543.282l-.14.065c-.106.049-.207.094-.292.129l-.113.045c-.075.03-.143.055-.193.072l-.05.017-.078.025,0,0a3.113,3.113,0,0,0,.519.292,6.582,6.582,0,0,0,.679.269,11.862,11.862,0,0,0,3.921.53,22.489,22.489,0,0,0,4.372-.519c8.838-1.854,14.432-8.28,17.926-19.072l2.625-2.482c4.3-3.2,2.879-1.067,9.833-8.49,4.9-5.235,9.234-10.3,12.638-14.683,1.134-1.46,2.166-2.845,3.079-4.134q.687-.966,1.283-1.86a28.974,28.974,0,0,0,3.169-5.726,3.438,3.438,0,0,0,.269-1.635A.8.8,0,0,0,994.054,1918.614Z" fill="rgba(0,0,0)" opacity="0.3"/>
    <path id="Path_1787" data-name="Path 1787" d="M964.013,1951.054c4.3-3.2,2.88-1.067,9.833-8.491,13.065-13.96,22.112-26.718,20.208-28.5s-14.038,8.086-27.107,22.04c-6.953,7.424-4.866,6.093-7.778,10.6Z" fill="#ad7f49"/>
    <path id="Path_1788" data-name="Path 1788" d="M966.947,1936.106c-6.954,7.424-4.866,6.093-7.778,10.6l1.31,1.176c.383-.566,8.3-12.219,13.087-16.591,4.908-4.482,16.97-17.476,20.488-17.221C992.149,1912.282,980.016,1922.152,966.947,1936.106Z" fill="#c59966"/>
    <path id="Path_1790" data-name="Path 1790" d="M956.749,1949.333l2.42-2.631,4.844,4.352-2.625,2.482Z" fill="#f8af3c"/>
    <path id="Path_1791" data-name="Path 1791" d="M959.169,1946.7l-2.421,2.631,1.157,1.048.083-.1,2.454-2.347.037-.054Z" fill="#f8e831"/>
  </g>
  <path id="colour" d="M961.388,1953.536c-3.494,10.791-9.088,17.217-17.926,19.071-6.847,1.444-9.491-.572-9.491-.572s5.738-1.591,8.745-10.52c2.872-8.548,9.279-9.9,14.033-12.182Z" transform="translate(-904.139 -1885.766)" fill="current"/>
  <path id="shadow" d="M994.054,1914.066a.811.811,0,0,0-.475-.2,2.111,2.111,0,0,0-.542.048c-.871,4-9.119,15.106-20.365,27.122-6.953,7.424-5.53,5.289-9.833,8.491l-2.625,2.482c-3.493,10.791-9.088,17.218-17.925,19.071a18.143,18.143,0,0,1-6.905.318,7.116,7.116,0,0,1-1.413.637s2.643,2.016,9.491.572c8.838-1.854,14.432-8.28,17.926-19.071l2.625-2.482c4.3-3.2,2.879-1.067,9.833-8.491C986.911,1928.6,995.958,1915.845,994.054,1914.066Z" transform="translate(-904.139 -1885.766)" fill="rgba(0,0,0)" opacity="0.5"/>
  <rect id="Frame" width="120" height="120" fill="none"/>
</svg>
