<svg xmlns="http://www.w3.org/2000/svg" width="120" height="120" viewBox="0 0 120 120"><defs><style>.a{fill:none;}.ah,.b{opacity:0.3;}.ae,.af,.ag,.ah,.ai,.aj,.b,.g,.x{isolation:isolate;}.c{fill:#442f2a;}.d{fill:#fff3e0;}.e{opacity:0.4;}.aj,.f,.o{opacity:0.5;}.ae,.g,.x{opacity:0.35;}.g,.x{mix-blend-mode:screen;}.h{fill:#6d4c41;}.i{fill:#ba9b91;}.j{fill:#8d6e63;}.k{fill:#cfd8dc;}.l{fill:#c6b198;}.m{fill:#988575;}.n{fill:#736358;}.ae,.af,.ag,.ah,.ai,.aj,.o,.x{fill:#fff;}.p{fill:#01628c;}.q{fill:#0971b7;}.r{fill:#149bd7;}.s{fill:#f8af3c;}.t{fill:#f8e831;}.u{fill:#f29222;}.v{fill:#b500ba;}.w{fill:#f0f;}.y{opacity:0.2;}.z{fill:#1d1d1b;}.aa{fill:#8cc63f;}.ab{fill:#29abe2;}.ac{fill:#ffda00;}.ad{fill:#754c24;}.af{opacity:0.17;}.ag{opacity:0.31;}.ai{opacity:0.15;}</style></defs><rect class="a" width="120" height="120"/><g transform="translate(363.347 193.472)"><path class="b" d="M-269.849-105.255v-62.589h-14.117l-1.727-17.735-5.782-.05,1.731,17.785h-3.025V-174.9h-7.662v-14.7h-5.863v14.7h-7.632v7.052h-3.054l1.731-17.785-5.782.05-1.727,17.735h-14.088v62.589h-8.815v11h15.739l-2.023,20.78,5.782-.038,2.019-20.741h17.851V-81.6h5.863V-94.251h17.851l2.019,20.741,5.782.038-2.023-20.78h15.768v-11Z"/><rect class="c" width="5.863" height="108.004" transform="translate(-306.293 -193.472)"/><path class="c" d="M-326.163-77.381l-5.782.038L-321.03-189.45l5.782-.05Z"/><path class="c" d="M-280.56-77.381l5.782.038L-285.693-189.45l-5.782-.05Z"/><path class="d" d="M-303.347-171.715h-33.5v72.286h67v-72.286Z"/><g class="e"><path d="M-335.724-117.078s.081,1.624,2.8,1.993a26.574,26.574,0,0,0,7.065.056c2.3-.262,4.292-.4,6.255,2.274s-.9,4.892-2.784,5.639-3.856,1.092-7.455-1.707S-335.729-114.5-335.724-117.078Z"/><path d="M-319.648-110.48c.435-3.739-4.826-2.56-7.455-2.344s-6.762-.485-7.722-1.951a3.526,3.526,0,0,1-.685-1.688,1.513,1.513,0,0,1-.214-.615c.184,3.356,2.285,5.457,5.884,8.255s5.576,2.455,7.455,1.707c.108-.043.219-.09.332-.143A4.608,4.608,0,0,0-319.648-110.48Z"/><path d="M-328.351-107.782c2.891,1.771,4.69,1.4,6.413.716q.174-.069.357-.153A4.956,4.956,0,0,0-319-110.682c0-.032.007-.064.01-.1l-.047.017S-323.211-107.148-328.351-107.782Z"/><path class="f" d="M-335.724-117.078s.081,1.624,2.8,1.993a26.574,26.574,0,0,0,7.065.056c2.3-.262,4.292-.4,6.255,2.274s-.9,4.892-2.784,5.639-3.856,1.092-7.455-1.707S-335.729-114.5-335.724-117.078Z"/><path d="M-284.274-112.03c-8.838-.961-26.016-1.005-26.016-1.005-1.44.05-9.351.261-9.351.261l-.087,3.695s8.414.659,9.048.768c0,0,16.986,1.678,26.795,1.359C-262.723-107.641-268.236-110.286-284.274-112.03Z"/><path d="M-310.29-113.035c-1.041.036-5.46.156-7.832.22l.474,2.807s50.942,3.46,46.831.448c-1.814-.841-6.7-1.735-13.457-2.47C-293.112-112.991-310.29-113.035-310.29-113.035Z"/><path d="M-310.29-113.035c-1.007.035-5.179.148-7.6.214l.291.873s54.024,3.753,41.109,1.03q-.678-.143-1.336-.276c-1.878-.292-4.046-.574-6.452-.836C-293.112-112.991-310.29-113.035-310.29-113.035Z"/><path d="M-319.728-109.079l2.073.164.078-3.915-2.064.056Z"/><path d="M-319.658-112.04l2.063.092.018-.882-2.064.056Z"/><path d="M-319.728-109.079l2.073.164.023-1.133-2.02.024-.054,0Z"/><path d="M-331.041-109.807s-5.181-3.643-4.99-8.01,3.651-.907,2.36,1.367.533,4.2,1.427,4.882S-330.659-110.237-331.041-109.807Z"/><path class="g" d="M-333.437-117.214s-.564-1.465-1.592-1.068a1.5,1.5,0,0,0-.966,1.433s-.237-2.4.815-2.922,2.072,1.651,1.743,2.557"/></g><path class="h" d="M-303.347-108.244h-42.314v10.122h84.627v-10.122Z"/><path class="i" d="M-303.347-109.126h-42.314v5.289h62.589v-5.289Z"/><rect class="i" width="23.449" height="5.289" transform="translate(-284.482 -109.126)"/><path class="j" d="M-303.347-108.244h-42.314v5.289h62.589v-5.289Z"/><rect class="j" width="23.449" height="5.289" transform="translate(-284.482 -108.244)"/><rect class="i" width="21.157" height="7.052" transform="translate(-313.925 -178.767)"/><rect class="j" width="21.157" height="7.052" transform="translate(-313.925 -177.886)"/><path class="k" d="M-330.674-105.5a1.741,1.741,0,0,1-1.764,1.667A1.741,1.741,0,0,1-334.2-105.5a1.741,1.741,0,0,1,1.763-1.666A1.741,1.741,0,0,1-330.674-105.5Zm54.655,0a1.74,1.74,0,0,0,1.763,1.667,1.74,1.74,0,0,0,1.763-1.667,1.74,1.74,0,0,0-1.763-1.666A1.74,1.74,0,0,0-276.019-105.5Z"/><path class="l" d="M-335.976-119.38s.054,1.624,2.769,2.04a26.574,26.574,0,0,0,7.063.176c2.307-.223,4.3-.333,6.216,2.379s-.988,4.876-2.88,5.591-3.874,1.027-7.425-1.832S-336.024-116.8-335.976-119.38Z"/><path class="m" d="M-320.014-112.511c.5-3.731-4.782-2.642-7.414-2.47s-6.753-.6-7.687-2.082a3.513,3.513,0,0,1-.657-1.7,1.5,1.5,0,0,1-.2-.618c.127,3.358,2.192,5.494,5.743,8.354s5.534,2.548,7.425,1.832c.109-.041.221-.087.335-.137A4.61,4.61,0,0,0-320.014-112.511Z"/><path class="n" d="M-328.761-109.961c2.861,1.82,4.666,1.481,6.4.825.116-.044.236-.094.359-.148a4.953,4.953,0,0,0,2.644-3.418c0-.032.008-.064.011-.1l-.047.016S-323.633-109.24-328.761-109.961Z"/><path class="o" d="M-335.976-119.38s.054,1.624,2.769,2.04a26.574,26.574,0,0,0,7.063.176c2.307-.223,4.3-.333,6.216,2.379s-.988,4.876-2.88,5.591-3.874,1.027-7.425-1.832S-336.024-116.8-335.976-119.38Z"/><path class="p" d="M-284.618-113.461c-8.821-1.111-26-1.446-26-1.446-1.441.025-9.354.1-9.354.1l-.15,3.693s8.4.8,9.034.922c0,0,16.955,1.965,26.768,1.812C-263.145-108.708-268.612-111.446-284.618-113.461Z"/><path class="q" d="M-310.614-114.907c-1.041.018-5.462.064-7.834.087l.426,2.814s50.876,4.324,46.817,1.242c-1.8-.871-6.671-1.848-13.413-2.7C-293.439-114.572-310.614-114.907-310.614-114.907Z"/><path class="r" d="M-310.614-114.907c-1.007.018-5.18.061-7.6.085l.277.878s53.952,4.668,41.085,1.727q-.675-.154-1.331-.3c-1.872-.324-4.036-.643-6.436-.945C-293.439-114.572-310.614-114.907-310.614-114.907Z"/><path class="s" d="M-320.118-111.112s.87.083,2.071.2l.144-3.913-2.065.02Z"/><path class="t" d="M-320-114.071l2.062.127.033-.881-2.065.02Z"/><path class="u" d="M-320.118-111.112s.87.083,2.071.2l.041-1.133-2.02-.01-.054,0Z"/><path class="v" d="M-334.185-118.3a.871.871,0,0,0,.8.936.636.636,0,0,1,.053,1.262c-.589.024-.228,1.61.554,2.168s-.715.03-1.386-.911a8.281,8.281,0,0,1-1.028-2.4S-335.1-119.993-334.185-118.3Z"/><path class="w" d="M-331.416-112.031s-5.119-3.731-4.854-8.094,3.665-.845,2.336,1.407.462,4.211,1.345,4.906S-331.027-112.454-331.416-112.031Z"/><path class="x" d="M-333.687-119.478s-.539-1.474-1.573-1.094a1.5,1.5,0,0,0-.991,1.416s-.2-2.4.865-2.908,2.043,1.686,1.7,2.586"/><rect class="a" width="58.575" height="58.575" transform="translate(-332.634 -170.833)"/><g class="y"><path class="z" d="M-301.109-161.77c3.27.53-.055,8.67-.97,10.662a4.674,4.674,0,0,1-4.827,2.866C-313.713-149.338-309.6-163.147-301.109-161.77Z"/><path class="z" d="M-323.084-145.049c-.136-3.444,1.246-7.673,3.773-8.7,1.212-.493,3.926,3.982,4.57,5.971a5.248,5.248,0,0,1,.054,3.661c-.872,2.567-3.4,4.022-5.638,3.248A4.32,4.32,0,0,1-323.084-145.049Z"/><path class="z" d="M-294.113-143.716a4.577,4.577,0,0,1-2-5.109c.485-2.09,2.8-10.365,5.649-8.816C-283.083-153.611-288.2-140.495-294.113-143.716Z"/><path class="z" d="M-283.229-131.648a4.323,4.323,0,0,1-4.742,1.581c-2.222-.765-3.315-3.451-2.441-5.989a5.207,5.207,0,0,1,2.281-2.853c1.73-1.152,6.594-3.02,7.243-1.9C-279.534-138.448-281.036-134.283-283.229-131.648Z"/><path class="z" d="M-294.6-124.816a13.133,13.133,0,0,1-7.937,7.5c-2.753.938-4.533-1.675-7.409-2.849-2.362-.96-5.554.029-6.9-1.959a13.07,13.07,0,0,1-1.207-12.255c1.094-2.671,3.915-3.423,6.173-4.844,3.341-2.092,6.6-3.99,10.458-2.411,3.632,1.476,4.891,4.794,5.955,8.337C-294.62-130.533-293.4-127.73-294.6-124.816Z"/></g><path class="aa" d="M-301.893-164.6c3.27.53-.055,8.67-.97,10.662a4.673,4.673,0,0,1-4.827,2.866C-314.5-152.17-310.381-165.979-301.893-164.6Z"/><path class="w" d="M-323.867-147.881c-.136-3.443,1.246-7.672,3.773-8.7,1.212-.493,3.926,3.982,4.57,5.971a5.237,5.237,0,0,1,.054,3.661c-.872,2.566-3.4,4.022-5.638,3.248A4.322,4.322,0,0,1-323.867-147.881Z"/><path class="ab" d="M-294.9-146.547a4.579,4.579,0,0,1-2-5.109c.485-2.091,2.805-10.366,5.649-8.816C-283.866-156.443-288.982-143.326-294.9-146.547Z"/><path class="ac" d="M-284.012-134.481a4.321,4.321,0,0,1-4.741,1.581c-2.223-.765-3.316-3.451-2.441-5.989a5.2,5.2,0,0,1,2.281-2.853c1.729-1.152,6.593-3.02,7.242-1.9C-280.318-141.279-281.818-137.117-284.012-134.481Z"/><path class="ad" d="M-294.376-128.524a13.129,13.129,0,0,1-7.937,7.505c-2.754.938-4.533-1.676-7.409-2.849-2.363-.96-5.554.029-6.9-1.959a13.067,13.067,0,0,1-1.208-12.252c1.1-2.671,3.916-3.424,6.174-4.844,3.341-2.092,6.6-3.991,10.458-2.411,3.632,1.475,4.891,4.794,5.957,8.337C-294.4-134.242-293.183-131.438-294.376-128.524Z"/><path class="ae" d="M-316.987-153.59c-1.05-1.72-2.362-3.294-3.107-2.99-2.476,1.006-3.852,5.088-3.778,8.493A56.7,56.7,0,0,1-316.987-153.59Z"/><path class="af" d="M-301.893-164.6c-4.984-.809-8.458,3.616-9.1,7.63a19.364,19.364,0,0,1,9.957-1.94C-300.3-161.583-300.047-164.3-301.893-164.6Z"/><path class="af" d="M-291.245-160.472c-1.562-.85-2.962,1.256-3.99,3.675a23.674,23.674,0,0,1,6.818,6.883C-286.914-153.39-287.226-158.278-291.245-160.472Z"/><path class="ag" d="M-281.671-143.638c-.328-.568-1.735-.37-3.27.113a44.457,44.457,0,0,1,2.364,6.92C-281.261-139.018-280.644-141.848-281.671-143.638Z"/><path class="af" d="M-295.236-137c-1.067-3.542-2.325-6.861-5.958-8.336-3.863-1.58-7.117.318-10.457,2.41-2.258,1.421-5.08,2.173-6.174,4.844a13.5,13.5,0,0,0-.484,1.407c3.6-.781,9.574-1.57,14.514.221,3.886,1.408,7.164,4.832,9.447,7.858C-293.2-131.485-294.41-134.265-295.236-137Z"/><path class="ah" d="M-322.5-150.437c.207-1.123.976-2.365,1.895-2.522.425-.064.986,1.584,1,2.276a1.828,1.828,0,0,1-.244,1.22,1.5,1.5,0,0,1-2.009.659l-.064-.034A1.622,1.622,0,0,1-322.5-150.437Z"/><path class="ai" d="M-309.009-142.238a5.49,5.49,0,0,0-1.009.781c-.33.316-.606.745-.962,1.025-.162.127-.352.234-.525.352q-.586.4-1.162.814-.662.477-1.308.972a1.945,1.945,0,0,0-.434.36,3.8,3.8,0,0,0-.188.4,4.738,4.738,0,0,0-.492,1.28,2.356,2.356,0,0,0,.112,1.22,1.877,1.877,0,0,0,.306.693,3.336,3.336,0,0,0,2.28.915,3.649,3.649,0,0,0,3.013-1.509c.624-.879.839-1.99,1.51-2.838a2.39,2.39,0,0,1,.822-.713,3.352,3.352,0,0,0,.593-.467,8.946,8.946,0,0,0,1.1-1.159,2.771,2.771,0,0,0,.745-1.84c-.07-.932-.938-1.266-1.749-1.2A6.268,6.268,0,0,0-309.009-142.238Z"/><path class="ah" d="M-304.871-161.732c1.089.376-.6,2.926-1.042,3.529a1.619,1.619,0,0,1-1.794.657C-309.9-158.418-307.581-162.784-304.871-161.732Z"/><path class="ah" d="M-293.978-154.739a1.562,1.562,0,0,1-.374-1.8c.262-.642,1.478-3.213,2.327-2.55C-289.836-157.377-292.245-153.345-293.978-154.739Z"/><path class="aj" d="M-283.351-139.109a1.615,1.615,0,0,1-1.7.675,1.693,1.693,0,0,1-.989-2.141,2.187,2.187,0,0,1,.8-1.1c.628-.474,2.335-1.207,2.6-.833C-282.134-141.646-282.563-140.1-283.351-139.109Z"/></g></svg>