<svg id="icon-large-line" xmlns="http://www.w3.org/2000/svg" width="120" height="120" viewBox="0 0 120 120">
  <path id="drop-shadow" d="M984.067,2393.955h-.032c-.442-11.712-9.84-19.269-12.053-20.884-.1-.08-.174-.149-.268-.226l.014-.012a11.894,11.894,0,0,0,4.977-10.284v-3.668a11.888,11.888,0,0,0-18.679-10.134c-1.234.855-12.062,8.7-12.421,21.346-.006.229,0,.47,0,.708h-.027v4.962h.027c.124,5.61,2.419,13.436,12.019,20.916l.321.234c-.138.114-.254.219-.408.339a11.864,11.864,0,0,0-4.57,9.347h-.027v4.962h.014a11.906,11.906,0,0,0,19.2,9.1c10.011-7.762,12.01-16.073,11.9-21.743h.013Z" transform="translate(-904.821 -2322.62)" fill="rgba(0,0,0)" opacity="0.3"/>
  <path id="colour" d="M984.067,2389.408h-.032c-.442-11.712-9.84-19.269-12.053-20.885-.1-.08-.174-.148-.268-.226l.014-.012A11.894,11.894,0,0,0,976.705,2358v-3.668a11.888,11.888,0,0,0-18.679-10.133c-1.234.855-12.062,8.7-12.421,21.346-.006.229,0,.47,0,.708h-.027v4.961h.027c.124,5.61,2.419,13.437,12.019,20.917l.321.233c-.138.114-.254.219-.408.339a11.865,11.865,0,0,0-4.57,9.348h-.027v4.961h.014a11.907,11.907,0,0,0,19.2,9.1c10.011-7.763,12.01-16.074,11.9-21.744h.013Z" transform="translate(-904.821 -2322.62)" fill="current"/>
  <g id="shadow" transform="translate(-904.821 -2322.62)" fill="rgba(0,0,0)" opacity="0.5">
    <path id="Path_1804" data-name="Path 1804" d="M971.714,2368.3l.014-.012A11.894,11.894,0,0,0,976.705,2358v-3.672a11.876,11.876,0,0,1-4.977,9.409,9.074,9.074,0,0,0-2.153,2.371A10.863,10.863,0,0,0,971.714,2368.3Z"/>
    <path id="Path_1805" data-name="Path 1805" d="M984.035,2389.408c0,.08.016.156.018.237.154,5.673-1.786,14.078-11.9,21.92a11.933,11.933,0,0,1-19.217-8.64v4.088h.014a11.907,11.907,0,0,0,19.2,9.1c10.011-7.763,12.01-16.074,11.9-21.744h.013v-4.961Z"/>
    <path id="Path_1806" data-name="Path 1806" d="M957.621,2392.132l.321.233-.131.109a11.2,11.2,0,0,0,2.272-2.3,9.656,9.656,0,0,0-2.027-2.277l-.435-.316c-10.075-7.85-12.1-16.076-12.017-21.726,0,.132,0,.263,0,.4h-.027v4.961h.027C945.726,2376.825,948.021,2384.652,957.621,2392.132Z"/>
  </g>
  <rect id="Frame" width="120" height="120" fill="none"/>
</svg>
