<svg id="icon-_undo" data-name="icon- undo" xmlns="http://www.w3.org/2000/svg" width="120" height="120" viewBox="0 0 120 120">
  <path id="drop-shadow" d="M990.561,1237.127a33.646,33.646,0,0,0-32.933-33.634l.006-10.57-22.242,22.24.029.029v4.448h.041l-.07.07,22.236,22.25v-4.548h0v-8.817a33.656,33.656,0,0,1,29,28.862,33.476,33.476,0,0,0,3.93-15.783c0-.688-.061-1.361-.1-2.038C990.52,1238.806,990.561,1237.972,990.561,1237.127Z" transform="translate(-902.977 -1162.916)" fill="rgba(0,0,0)" opacity="0.3"/>
  <path id="colour" d="M990.561,1232.579a33.644,33.644,0,0,0-32.933-33.633l.006-10.571-22.242,22.24.029.029v4.449h.041l-.07.07,22.236,22.249v-4.547h0l-.1-.1.1.1v-8.817a33.654,33.654,0,0,1,29,28.862,33.476,33.476,0,0,0,3.93-15.783c0-.688-.061-1.361-.1-2.039C990.52,1234.259,990.561,1233.424,990.561,1232.579Z" transform="translate(-902.977 -1162.916)" fill="current"/>
  <g id="shadow" transform="translate(-902.977 -1162.916)" opacity="0.5">
    <path id="Path_1774" data-name="Path 1774" d="M935.421,1210.645v4.448h.041l-.07.07,22.236,22.249v-4.547h0Z" fill="rgba(0,0,0)"/>
    <path id="Path_1775" data-name="Path 1775" d="M986.631,1248.362a33.656,33.656,0,0,0-29-28.862v4.548a33.654,33.654,0,0,1,29,28.862,33.476,33.476,0,0,0,3.93-15.783c0-.689-.061-1.362-.1-2.04A33.432,33.432,0,0,1,986.631,1248.362Z" fill="rgba(0,0,0)"/>
  </g>
  <rect id="Frame" width="120" height="120" fill="none"/>
</svg>
