<svg xmlns="http://www.w3.org/2000/svg" width="120" height="120" viewBox="0 0 120 120"><defs><style>.a{fill:none;}.b{fill:rgba(0,0,0,0.3);opacity:0.997;}.c,.h{fill:#fff;}.d{fill:#f7d7f5;}.e{fill:#c5f5f6;}.f{fill:#d4f573;}.g{fill:#f7f87e;}.h,.i{opacity:0.5;}.i{fill:#1d1e1c;}</style></defs><rect class="a" width="120" height="120"/><ellipse class="b" cx="37.14" cy="9.285" rx="37.14" ry="9.285" transform="translate(24.759 92.442)"/><g transform="translate(1227.97 -2895.572)"><path class="c" d="M-1201.629,2968.785c-1.141-28.854,10.442-64.29,31.616-72.9,10.158-4.131,32.894,33.37,38.29,50.034a43.919,43.919,0,0,1,.45,30.692c-7.306,21.507-28.465,33.7-47.239,27.219C-1192.776,2998.9-1201.522,2984.713-1201.629,2968.785Z"/><path class="d" d="M-1131.273,2976.614a45.777,45.777,0,0,0,2.356-10.99,197.164,197.164,0,0,0-7.382-19.734c-6.681-15.73-14.248-31.241-23.473-45.6-3.928-3.632-7.533-5.507-10.241-4.406-21.174,8.607-32.757,44.044-31.616,72.9.107,15.928,8.853,30.116,23.117,35.048C-1159.738,3010.315-1138.579,2998.12-1131.273,2976.614Z"/><path class="e" d="M-1131.273,2976.614a43.916,43.916,0,0,0-.45-30.691c-5.4-16.665-28.132-54.166-38.29-50.035-13.941,5.667-23.722,22.965-28.454,42.355,1.524,4.406,3.245,8.748,5.029,13.057,5.13,12.385,10.657,24.676,17.945,35.926a115.45,115.45,0,0,0,8.049,10.994c1.88,2.265,3.907,4.492,6.021,6.648C-1148.3,3002.155-1136.389,2991.674-1131.273,2976.614Z"/><path class="f" d="M-1131.723,2945.923c-5.4-16.665-28.132-54.166-38.29-50.035-6.667,2.711-12.382,8.084-17.05,15.073.489,2.651,1.061,5.287,1.78,7.891a139.028,139.028,0,0,0,5.81,16.1c4.1,9.9,8.515,19.719,14.339,28.709a92.461,92.461,0,0,0,6.432,8.785c4.054,4.884,8.782,9.709,14.182,13.114a5.643,5.643,0,0,0,2.9.767,15.345,15.345,0,0,0,4.333-.044,11.9,11.9,0,0,0,1.769-.528,46.748,46.748,0,0,0,4.246-9.138A43.916,43.916,0,0,0-1131.723,2945.923Z"/><path class="g" d="M-1167.853,2895.619a11.116,11.116,0,0,0-.337,1.087,21.014,21.014,0,0,0-.077,6.685c.594,6.219,1.195,12.476,2.859,18.5a93.722,93.722,0,0,0,3.92,10.862,119.054,119.054,0,0,0,9.675,19.369,62.326,62.326,0,0,0,4.339,5.928,42.223,42.223,0,0,0,9.569,8.848,3.8,3.8,0,0,0,1.955.517,10.31,10.31,0,0,0,2.924-.03,8.825,8.825,0,0,0,4.057-2.092,42.554,42.554,0,0,0-2.836-19.368C-1136.834,2930.391-1156.921,2896.775-1167.853,2895.619Z"/><path class="c" d="M-1130.627,2949.267q-.519-1.71-1.178-3.344c-3.248-10.03-12.776-27.6-22.064-39.1a60.389,60.389,0,0,0,1.667,9.458,68.006,68.006,0,0,0,2.84,7.868,86.212,86.212,0,0,0,7.008,14.03,45.075,45.075,0,0,0,3.143,4.294,30.64,30.64,0,0,0,6.931,6.409,2.757,2.757,0,0,0,1.417.375C-1130.782,2949.259-1130.706,2949.261-1130.627,2949.267Z"/><path class="h" d="M-1138.51,2930.579c-9.143-17.4-23.872-37.794-31.5-34.691-17.106,6.953-27.948,31.418-30.883,55.775C-1184.663,2943.849-1159.293,2933.2-1138.51,2930.579Z"/><path class="i" d="M-1131.723,2945.923a101.376,101.376,0,0,0-6.221-14.248c.828,1.963,1.524,3.79,2.05,5.415a43.918,43.918,0,0,1,.45,30.692c-7.306,21.506-28.465,33.7-47.239,27.219a32.833,32.833,0,0,1-16.86-13.391c3.389,10.328,10.771,18.676,21.031,22.223,18.773,6.482,39.933-5.713,47.239-27.219A43.916,43.916,0,0,0-1131.723,2945.923Z"/></g></svg>