<svg xmlns="http://www.w3.org/2000/svg" width="120.049" height="120" viewBox="0 0 120.049 120"><defs><style>.a{fill:none;}.b,.j{opacity:0.3;}.c{fill:#fe8f01;}.d{fill:#fb7d00;}.e,.j{fill:#061b2b;}.e{opacity:0.5;}.f{fill:#ff7701;}.g{fill:#ff8b00;}.h{fill:#ffd800;}.i{fill:#ffffc1;}</style></defs><rect class="a" width="120" height="120"/><g transform="translate(1499.396 -2316.629)"><path class="b" d="M-1421.213,2388.888l10.614-12.941-.368-9.5-17.5-3.642-9.354-16-9.855,16-17.5,3.5v9.936l10.855,12.316-1.215,10.668-.02,9.706,17.22-7.589,18.388,7.88-.1-10Z" transform="translate(-2.406 -0.991)"/><path class="b" d="M-1463.187,2387.43l5.781-10.444-1.481-6.619-12.742-.3-8.621-10.018-4.855,12.489-10.457,3.742-.089,7.934,9.2,7.243.52,7.64,1.235,6.812,11.1-7.539,13.914,3.163-1.355-7Z" transform="translate(-0.263 -1.922)"/><path class="c" d="M-1499.4,2368.551l1.356,7.391,9.947,7.832-.435-6.564Z" transform="translate(0 -2.52)"/><path class="d" d="M-1456.524,2360.711l1.57,7.018-6.358,11.486-2.069-7.088Z" transform="translate(-2.532 -1.969)"/><path class="e" d="M-1456.524,2360.711l1.57,7.018-6.358,11.486-2.069-7.088Z" transform="translate(-2.532 -1.969)"/><path class="f" d="M-1473.654,2385.032l.815,7.079,14.754,3.354-1.436-7.424Z" transform="translate(-1.81 -3.678)"/><path class="g" d="M-1486.851,2392.883l1.309,7.223,11.775-7.995-.815-7.079Z" transform="translate(-0.882 -3.678)"/><path class="h" d="M-1481.709,2348.938l9.141,10.623,13.512.322-6.435,11.919,4.16,13.7-14.133-3.009-12.269,7.851-.973-14.286-10.69-8.888,12.538-4.99Z" transform="translate(0 -1.141)"/><g transform="translate(-1499.395 2347.797)"><path class="i" d="M-1468.862,2362.082l10.954.262.894-1.657-13.323-.318Z" transform="translate(1497.352 -2349.742)"/><path class="i" d="M-1486.24,2379.508l-1.639-1.363.956,14.255,1.482-.948Z" transform="translate(1498.586 -2350.991)"/><path class="i" d="M-1485.728,2363.4l5.128-13.171-1.109-1.293-5.149,13.244-12.538,4.99,1.4,1.112Z" transform="translate(1499.395 -2348.938)"/></g><path class="j" d="M-1462.1,2369.93l-3.912,1.691,3.534,3.836-.644-2.158,1.59-2.877Z" transform="translate(-2.347 -2.617)"/><path class="b" d="M-1388.229,2394.1l9.34-7.435-.083-7.4-10.406-4.44-4.128-12.555-9.268,9.678-12.724-.18-1.488,6.929,5.725,10.214-2.445,7.257-1.467,6.765,13.145-2.713,11.642,8.249,1.429-6.986Z" transform="translate(-5.793 -2.078)"/><path class="c" d="M-1413.473,2362.034l-1.578,7.347,6.19,11.044,2.111-6.231Z" transform="translate(-5.929 -2.062)"/><path class="e" d="M-1413.473,2362.034l-1.578,7.347,5.371,9.61,1.893-6.115Z" transform="translate(-5.929 -2.062)"/><path class="d" d="M-1371.14,2371.406l-1.237,7.084-10.271,8.176.8-7.34Z" transform="translate(-8.207 -2.72)"/><path class="f" d="M-1396.033,2387.117l-1.957,6.852,12.345,8.748,1.516-7.408Z" transform="translate(-7.129 -3.825)"/><path class="g" d="M-1411.427,2389.671l-1.556,7.173,13.939-2.876,1.957-6.852Z" transform="translate(-6.075 -3.825)"/><path class="h" d="M-1390.034,2351.2l4.377,13.314,12.359,5.471-10.508,8.547-1.4,14.25-11.9-8.191-14.34,2.555,4.571-13.57-6.472-12.3,13.493.191Z" transform="translate(-6.049 -1.3)"/><g transform="translate(-1419.403 2349.901)"><path class="i" d="M-1382.671,2367.75l10.019,4.436,1.46-1.188-12.186-5.395Z" transform="translate(1411.247 -2352.213)"/><path class="i" d="M-1405.742,2377.194l-.992-1.887-4.575,13.535,1.732-.309Z" transform="translate(1413.21 -2352.895)"/><path class="i" d="M-1399.285,2363.024l9.78-10.2-.529-1.619-9.827,10.263-13.493-.191.869,1.564Z" transform="translate(1413.354 -2351.2)"/></g><path class="j" d="M-1408.71,2368.464l3.862,1.666-2.575,3.19-2.448-4.629Z" transform="translate(-6.294 -2.513)"/><path class="c" d="M-1466.939,2354.944v10.536l11.737,13.316,1.06-9.162Z" transform="translate(-2.282 -1.563)"/><path class="d" d="M-1406.054,2355.106l.39,10.075-11.673,14.231-1.06-10.3Z" transform="translate(-5.694 -1.575)"/><path class="f" d="M-1435.659,2384.183l-.666,9.969,19.5,8.356-.1-10.6Z" transform="translate(-4.434 -3.619)"/><path class="g" d="M-1455.945,2391.907l-.021,10.292,18.26-8.047.666-9.969Z" transform="translate(-3.053 -3.619)"/><path class="h" d="M-1437.938,2332.708l9.92,16.962,18.552,3.862-11.888,14.81,2.272,19.947-18.729-7.724-18.905,7.724,2.272-19.947-12.494-14.961,18.552-3.71Z" transform="translate(-2.282)"/><g transform="translate(-1469.221 2332.708)"><path class="i" d="M-1423.2,2353.746l15.04,3.131,1.652-2.058-18.292-3.808Z" transform="translate(1463.976 -2333.995)"/><path class="i" d="M-1451.741,2373.381l-1.916-2.294-2.287,19.9,2.283-.933Z" transform="translate(1466.166 -2335.406)"/><path class="i" d="M-1447.138,2351.639l10.4-16.867-1.2-2.063-10.45,16.962-18.552,3.711,1.652,1.888Z" transform="translate(1466.939 -2332.708)"/></g></g></svg>