<svg xmlns="http://www.w3.org/2000/svg" width="120" height="120" viewBox="0 0 120 120"><defs><style>.a{opacity:0.3;}.b{fill:#333e59;}.c{fill:#222c3f;}.d{fill:#1d1e28;}.e{fill:#4c6284;}.f{fill:#364760;}.g{fill:#00c1bc;}.h{fill:aqua;}.i{fill:#94333a;}.j{fill:#b24352;}.k{fill:#3e4c66;}.l{fill:none;}</style></defs><g transform="translate(-35.599 -726.197)"><path class="a" d="M154.942-180.641s-11.546,2.309-23.349,18.73-19.628,37.076-11.931,42.593,21.168-3.592,25.273-11.033a9.87,9.87,0,0,0,7.954,6.414c6.158.77,12.572-2.95,12.572-2.95l5.389,2.18s-1.54,12.7,11.161,13.471l5.26.256s1.924-.256,1.539,3.977-.77,23.606,11.674,26.685,18.6-17.191,21.681-26.813,18.474-40.026-1.154-48.75c0,0-6.286-2.822-11.675-2.181s-7.569,3.079-10.648,2.053-17.19-6.8-17.19-6.8a4.408,4.408,0,0,1-2.823-3.592c-.385-2.822-1.026-5.131-4.618-7.44S161.228-181.667,154.942-180.641Z" transform="translate(-79 915.964)"/><path class="b" d="M154.942-180.641s-11.546,2.309-23.349,18.73-19.628,37.076-11.931,42.593,21.168-3.592,25.273-11.033a9.87,9.87,0,0,0,7.954,6.414c6.158.77,12.572-2.95,12.572-2.95l5.389,2.18s-1.54,12.7,11.161,13.471l5.26.256s1.924-.256,1.539,3.977-.77,23.606,11.674,26.685,18.6-17.191,21.681-26.813,18.474-40.026-1.154-48.75c0,0-6.286-2.822-11.675-2.181s-7.569,3.079-10.648,2.053-17.19-6.8-17.19-6.8a4.408,4.408,0,0,1-2.823-3.592c-.385-2.822-1.026-5.131-4.618-7.44S161.228-181.667,154.942-180.641Z" transform="translate(-79 910.964)"/><path class="c" d="M193.3-119.763a12.687,12.687,0,0,1-4.109,2.112c-6.158,1.925-12.444,0-15.266-2.822s-3.849-8.595-3.849-8.595-4.1-1.925-5.773-2.566-2.053-.128-2.053-.128a20.849,20.849,0,0,1-9.75,1.026c-5.9-.642-6.286-2.694-8.724-4.875s-2.565-.642-3.848,2.694-6.8,9.622-10.52,12.572a15.573,15.573,0,0,1-5.123,2.672c7.614.643,17.279-6.576,20.646-12.678a9.87,9.87,0,0,0,7.954,6.414c6.158.77,12.572-2.95,12.572-2.95l5.389,2.18s-1.54,12.7,11.161,13.471l5.26.256s1.924-.256,1.539,3.977a47.232,47.232,0,0,0,.559,11.556,1.708,1.708,0,0,0,.467-1.421c-.256-2.052,1.155-8.082.9-8.98a23.113,23.113,0,0,1,.129-7.826,48.835,48.835,0,0,1,2.954-5.835C194.124-120.057,193.862-120.2,193.3-119.763Z" transform="translate(-79 910.964)"/><path class="c" d="M181.1-162.98a4.4,4.4,0,0,1-2.423-3.421c-.385-2.822-1.026-5.131-4.618-7.44a9.952,9.952,0,0,1,1.668,4.361C175.85-167.35,175.5-165.342,181.1-162.98Z" transform="translate(-79 910.964)"/><path class="d" d="M138.19-163.017s-.216,13.157,15.317,12.765c16.878-.425,15.034-13.9,15.034-13.9-.283-4.4-4.255-11.488-15.176-11.488C140.458-175.639,138.19-166.137,138.19-163.017Z" transform="translate(-79 910.964)"/><path class="e" d="M137.4-164.592s-.215,13.157,15.318,12.765c16.878-.425,15.034-13.9,15.034-13.9-.284-4.4-4.255-11.489-15.176-11.489C139.671-177.215,137.4-167.712,137.4-164.592Z" transform="translate(-79 910.964)"/><path class="d" d="M192.927-139.075s-.233,14.229,16.567,13.806c18.254-.461,16.26-15.034,16.26-15.034-.307-4.755-4.6-12.425-16.414-12.425C195.38-152.728,192.927-142.45,192.927-139.075Z" transform="translate(-79 910.964)"/><path class="e" d="M192.139-140.65s-.233,14.229,16.567,13.8c18.255-.46,16.26-15.033,16.26-15.033-.306-4.755-4.6-12.425-16.413-12.425C194.593-154.3,192.139-144.025,192.139-140.65Z" transform="translate(-79 910.964)"/><path class="d" d="M143.772-141.312s-.162,9.88,11.5,9.586c12.676-.32,11.291-10.438,11.291-10.438-.213-3.3-3.2-8.628-11.4-8.628C145.476-150.792,143.772-143.656,143.772-141.312Z" transform="translate(-79 910.964)"/><path class="e" d="M142.984-142.1s-.161,9.88,11.5,9.586c12.675-.319,11.29-10.438,11.29-10.438-.213-3.3-3.2-8.628-11.4-8.628C144.688-151.58,142.984-144.443,142.984-142.1Z" transform="translate(-79 910.964)"/><path class="f" d="M144.226-163.774s-.13,7.933,9.237,7.7c10.177-.256,9.066-8.381,9.066-8.381-.172-2.652-2.566-6.928-9.152-6.928C145.594-171.386,144.226-165.656,144.226-163.774Z" transform="translate(-79 910.964)"/><path class="g" d="M143.438-164.562s-.13,7.934,9.237,7.7c10.178-.257,9.066-8.382,9.066-8.382-.171-2.651-2.566-6.928-9.151-6.928C144.806-172.174,143.438-166.443,143.438-164.562Z" transform="translate(-79 910.964)"/><path class="h" d="M143.438-166.137s-.13,7.934,9.237,7.7c10.178-.256,9.066-8.381,9.066-8.381-.171-2.651-2.566-6.928-9.151-6.928C144.806-173.749,143.438-168.019,143.438-166.137Z" transform="translate(-79 910.964)"/><path class="f" d="M198.45-143.05s-.053,3.234,3.766,3.138c4.149-.1,3.7-3.417,3.7-3.417-.07-1.081-1.046-2.824-3.731-2.824C199.007-146.153,198.45-143.817,198.45-143.05Z" transform="translate(-79 910.964)"/><path class="f" d="M210-145.53s-.053,3.234,3.766,3.138c4.149-.1,3.7-3.417,3.7-3.417-.07-1.081-1.046-2.825-3.731-2.825C210.553-148.634,210-146.3,210-145.53Z" transform="translate(-79 910.964)"/><path class="f" d="M200.759-133.728s-.053,3.235,3.766,3.139c4.149-.1,3.7-3.418,3.7-3.418-.07-1.081-1.046-2.824-3.731-2.824C201.317-136.831,200.759-134.495,200.759-133.728Z" transform="translate(-79 910.964)"/><path class="f" d="M212.3-136.208s-.053,3.235,3.766,3.138c4.149-.1,3.7-3.417,3.7-3.417-.07-1.081-1.046-2.824-3.731-2.824C212.863-139.311,212.3-136.975,212.3-136.208Z" transform="translate(-79 910.964)"/><path class="g" d="M197.662-143.838s-.053,3.235,3.766,3.139c4.149-.1,3.7-3.418,3.7-3.418-.07-1.08-1.046-2.824-3.731-2.824C198.22-146.941,197.662-144.6,197.662-143.838Z" transform="translate(-79 910.964)"/><path class="i" d="M209.208-146.318s-.053,3.235,3.766,3.138c4.149-.1,3.7-3.417,3.7-3.417-.07-1.081-1.046-2.824-3.731-2.824C209.766-149.421,209.208-147.085,209.208-146.318Z" transform="translate(-79 910.964)"/><path class="i" d="M199.971-134.515s-.053,3.234,3.766,3.138c4.15-.1,3.7-3.417,3.7-3.417-.069-1.081-1.046-2.825-3.731-2.825C200.529-137.619,199.971-135.282,199.971-134.515Z" transform="translate(-79 910.964)"/><path class="g" d="M211.517-136.995s-.053,3.234,3.766,3.138c4.15-.105,3.7-3.417,3.7-3.417-.069-1.081-1.046-2.825-3.731-2.825C212.075-140.1,211.517-137.763,211.517-136.995Z" transform="translate(-79 910.964)"/><path class="h" d="M197.662-145.413s-.053,3.235,3.766,3.138c4.149-.1,3.7-3.417,3.7-3.417-.07-1.081-1.046-2.824-3.731-2.824C198.22-148.516,197.662-146.18,197.662-145.413Z" transform="translate(-79 910.964)"/><path class="j" d="M209.208-147.893s-.053,3.234,3.766,3.138c4.149-.1,3.7-3.417,3.7-3.417-.07-1.081-1.046-2.824-3.731-2.824C209.766-151,209.208-148.66,209.208-147.893Z" transform="translate(-79 910.964)"/><path class="j" d="M199.971-136.09s-.053,3.234,3.766,3.138c4.15-.105,3.7-3.417,3.7-3.417-.069-1.081-1.046-2.825-3.731-2.825C200.529-139.194,199.971-136.857,199.971-136.09Z" transform="translate(-79 910.964)"/><path class="h" d="M211.517-138.571s-.053,3.235,3.766,3.139c4.15-.1,3.7-3.418,3.7-3.418-.069-1.08-1.046-2.824-3.731-2.824C212.075-141.674,211.517-139.338,211.517-138.571Z" transform="translate(-79 910.964)"/><path class="f" d="M148.16-139.754s-.1,5.317,6.764,5.159c7.452-.172,6.638-5.617,6.638-5.617-.126-1.777-1.879-4.643-6.7-4.643C149.162-144.855,148.16-141.015,148.16-139.754Z" transform="translate(-79 910.964)"/><path class="i" d="M147.373-141.329s-.1,5.317,6.763,5.158c7.452-.171,6.638-5.617,6.638-5.617-.125-1.776-1.879-4.642-6.7-4.642C148.374-146.43,147.373-142.59,147.373-141.329Z" transform="translate(-79 910.964)"/><rect class="i" width="3.164" height="6.158" transform="translate(68.373 763.85)"/><rect class="i" width="3.164" height="6.158" transform="translate(78.636 763.85)"/><path class="j" d="M147.373-146.717s-.1,5.317,6.763,5.158c7.452-.172,6.638-5.617,6.638-5.617-.125-1.777-1.879-4.642-6.7-4.642C148.374-151.818,147.373-147.978,147.373-146.717Z" transform="translate(-79 910.964)"/><path class="d" d="M172.92-128.326s-.162,10.23,11.507,9.925c12.68-.33,11.295-10.807,11.295-10.807-.213-3.419-3.2-8.933-11.4-8.933C174.624-138.141,172.92-130.752,172.92-128.326Z" transform="translate(-79 910.964)"/><path class="e" d="M172.133-129.113s-.162,10.229,11.507,9.925C196.319-119.519,194.934-130,194.934-130c-.213-3.418-3.2-8.932-11.4-8.932C173.837-138.928,172.133-131.539,172.133-129.113Z" transform="translate(-79 910.964)"/><path class="f" d="M177.31-126.768s-.1,5.5,6.765,5.341c7.455-.178,6.641-5.816,6.641-5.816-.126-1.839-1.88-4.806-6.7-4.806C178.312-132.049,177.31-128.073,177.31-126.768Z" transform="translate(-79 910.964)"/><path class="i" d="M176.522-128.343s-.1,5.505,6.766,5.341c7.455-.178,6.64-5.816,6.64-5.816-.125-1.839-1.879-4.807-6.7-4.807C177.524-133.625,176.522-129.649,176.522-128.343Z" transform="translate(-79 910.964)"/><rect class="i" width="3.166" height="6.376" transform="translate(97.522 776.631)"/><rect class="i" width="3.166" height="6.376" transform="translate(107.789 776.631)"/><path class="j" d="M176.522-133.922s-.1,5.5,6.766,5.341c7.455-.178,6.64-5.815,6.64-5.815-.125-1.84-1.879-4.807-6.7-4.807C177.524-139.2,176.522-135.227,176.522-133.922Z" transform="translate(-79 910.964)"/><path class="k" d="M124.034-149.068a3.729,3.729,0,0,0-1.055,1.584q-1.251,2.565-2.357,5.2a61.534,61.534,0,0,0-2.4,6.644,19.817,19.817,0,0,0-1,6.1c.233,6.675,5.613,1.973,6.364-2.12a18.377,18.377,0,0,0,.152-4.026c-.085-2.187-.276-4.374-.181-6.564a15.968,15.968,0,0,1,.408-3.132,23.976,23.976,0,0,0,.93-3.1c.032-.31-.04-.715-.346-.771a.584.584,0,0,0-.4.108C124.117-149.125,124.075-149.1,124.034-149.068Z" transform="translate(-79 910.964)"/><path class="c" d="M222.165-107.131c1.41-4.4,5.4-13.161,7.427-22.2-.614,1.027-1.081,2.167-1.685,3.183a49.754,49.754,0,0,1-3.721,5.123,34.8,34.8,0,0,0-4.023,5.976c-2.031,4.124-2.432,8.832-2.8,13.415q-.373,4.668-.748,9.337A112.545,112.545,0,0,0,222.165-107.131Z" transform="translate(-79 910.964)"/></g><rect class="l" width="120" height="120"/></svg>