<svg xmlns="http://www.w3.org/2000/svg" width="120" height="120" viewBox="0 0 120 120"><defs><style>.a{fill:none;}.b{fill:rgba(0,0,0,0.3);}.c{fill:red;}.d{fill:#c00;}.e{fill:#fff;opacity:0.34;mix-blend-mode:screen;isolation:isolate;}</style></defs><rect class="a" width="120" height="120"/><path class="b" d="M1444.242,11.758A24.178,24.178,0,0,0,1426.56,18.8a25.132,25.132,0,0,0-5.544,8.092,26.636,26.636,0,0,0-5.394-7.942,24.426,24.426,0,0,0-17.68-7.341c-14.684,0-25.773,12.887-24.874,27.571,1.948,27.12,32.964,47.2,44.053,53.492a8.011,8.011,0,0,0,7.791,0c11.087-6.294,42.1-26.373,44.053-53.492C1469.865,24.645,1458.925,11.758,1444.242,11.758Z" transform="translate(-1361.017 15.354)"/><path class="c" d="M1444.242,11.758A24.178,24.178,0,0,0,1426.56,18.8a25.132,25.132,0,0,0-5.544,8.092,26.636,26.636,0,0,0-5.394-7.942,24.426,24.426,0,0,0-17.68-7.341c-14.684,0-25.773,12.887-24.874,27.571,1.948,27.12,32.964,47.2,44.053,53.492a8.011,8.011,0,0,0,7.791,0c11.087-6.294,42.1-26.373,44.053-53.492C1469.865,24.645,1458.925,11.758,1444.242,11.758Z" transform="translate(-1361.017 7.354)"/><g transform="translate(18.32 65.649)"><path class="d" d="M1419.494,63.01c-1.391.008-31.308-2.5-41.742-16.419,10.1,17.277,29.5,29.676,37.785,34.377a8.011,8.011,0,0,0,7.791,0c8.284-4.7,27.686-17.1,37.784-34.377C1450.677,60.512,1420.844,63,1419.494,63.01Z" transform="translate(-1377.752 -46.591)"/></g><path class="e" d="M1397.5,18.421a27.772,27.772,0,0,1,17.971,6.123,22.555,22.555,0,0,1,5.482,6.623,21.362,21.362,0,0,1,5.635-6.749,27.63,27.63,0,0,1,17.971-5.873c11.756,0,21.145,6.67,24.157,15.426-1.635-12.269-11.639-22.213-24.537-22.213A24.178,24.178,0,0,0,1426.5,18.8a25.13,25.13,0,0,0-5.544,8.092,26.639,26.639,0,0,0-5.394-7.942,24.426,24.426,0,0,0-17.681-7.341c-12.909,0-23.036,9.96-24.686,22.345C1376.231,25.114,1385.726,18.421,1397.5,18.421Z" transform="translate(-1360.957 7.354)"/></svg>