<svg xmlns="http://www.w3.org/2000/svg" width="120" height="120" viewBox="0 0 120 120"><defs><style>.a{fill:none;}.b{opacity:0.3;}.c{fill:#afafaf;}.d{fill:#fff;}</style></defs><rect class="a" width="120" height="120"/><g transform="translate(-1275.581 4318.966)"><g class="b" transform="translate(1317.447 -4301.978)"><path d="M1336.724-4270.537a10.838,10.838,0,0,0,10.838-10.836h0v-5.4h0a10.838,10.838,0,0,0-10.837-10.837,10.836,10.836,0,0,0-10.837,10.836v5.4A10.837,10.837,0,0,0,1336.724-4270.537Z" transform="translate(-1318.541 4297.615)"/><path d="M1354.664-4222.7c-.381.03-.639.051-.785.051-2.674,0-4.483-.629-5.438-1.892q-1.274-1.681-1.414-6.4.078-9.285.465-27.434.107-5.468.162-8.388c-.035.009-.07.017-.1.027.043-2.235.078-4.051.1-5.431a134.011,134.011,0,0,1-13.645,2.951q-7.091,1.163-14.723,1.707s.1,5.4,0,5.4l.324,5.844c.324-.039.639-.063.948-.081s.731-.03,1.274-.03q3.734,0,5.031,1.818t1.3,9.711v10.353q0,8.013-1.409,9.934t-5.575,1.921c-.141,0-.4-.021-.757-.052a7.781,7.781,0,0,0-.917-.055v11.61q5.412-.347,9.742-.551t6.978-.205q3.085,0,7.2.163t12.13.593v-11.624A8.234,8.234,0,0,0,1354.664-4222.7Z" transform="translate(-1319.286 4300.488)"/><g transform="translate(0)"><path d="M1347.654-4272.161q-.055,2.92-.162,8.388-.487,22.794-.485,31.605,0,5.737,1.435,7.632c.956,1.263,2.764,1.892,5.438,1.892.146,0,.4-.021.785-.051a7.993,7.993,0,0,1,.89-.056v6.22q-8.012-.43-12.13-.593t-7.2-.163q-2.648,0-6.978.2t-9.742.551v-6.207a7.781,7.781,0,0,1,.917.055c.358.03.615.052.757.052q4.17,0,5.575-1.921t1.409-9.934v-15.757q0-7.894-1.3-9.711t-5.031-1.819c-.543,0-.965.013-1.274.031s-.624.042-.948.081l-.324-5.843q7.632-.544,14.723-1.707A134.011,134.011,0,0,0,1347.654-4272.161Z" transform="translate(-1319.286 4300.488)"/><path d="M1347.562-4286.776a10.837,10.837,0,0,1-10.838,10.835,10.837,10.837,0,0,1-10.836-10.838,10.836,10.836,0,0,1,10.837-10.836,10.838,10.838,0,0,1,10.837,10.837Z" transform="translate(-1318.541 4297.615)"/></g></g><g transform="translate(1317.447 -4305.316)"><path class="c" d="M1336.724-4273.537a10.837,10.837,0,0,0,10.838-10.835h0v-5.4h0a10.838,10.838,0,0,0-10.837-10.837,10.837,10.837,0,0,0-10.837,10.836v5.4A10.837,10.837,0,0,0,1336.724-4273.537Z" transform="translate(-1318.541 4300.615)"/><path class="c" d="M1354.664-4225.7c-.381.03-.639.051-.785.051-2.674,0-4.483-.629-5.438-1.892q-1.274-1.681-1.414-6.4.078-9.285.465-27.435.107-5.468.162-8.388c-.035.009-.07.017-.1.027.043-2.235.078-4.051.1-5.431a134.143,134.143,0,0,1-13.645,2.951q-7.091,1.163-14.723,1.707s.1,5.4,0,5.4l.324,5.843c.324-.039.639-.063.948-.081s.731-.031,1.274-.031q3.734,0,5.031,1.819t1.3,9.711v10.353q0,8.013-1.409,9.934t-5.575,1.921c-.141,0-.4-.021-.757-.051a7.679,7.679,0,0,0-.917-.056v11.611q5.412-.347,9.742-.551t6.978-.2q3.085,0,7.2.163t12.13.593v-11.625A8.361,8.361,0,0,0,1354.664-4225.7Z" transform="translate(-1319.286 4303.488)"/><g transform="translate(0)"><path class="d" d="M1347.654-4275.161q-.055,2.919-.162,8.388-.487,22.794-.485,31.6,0,5.738,1.435,7.632c.956,1.263,2.764,1.892,5.438,1.892.146,0,.4-.021.785-.051a8.112,8.112,0,0,1,.89-.056v6.22q-8.012-.429-12.13-.593t-7.2-.163q-2.648,0-6.978.205t-9.742.551v-6.207a7.679,7.679,0,0,1,.917.056c.358.03.615.051.757.051q4.17,0,5.575-1.921t1.409-9.934v-15.757q0-7.894-1.3-9.71t-5.031-1.819c-.543,0-.965.012-1.274.03s-.624.042-.948.081l-.324-5.844q7.632-.543,14.723-1.707A134.143,134.143,0,0,0,1347.654-4275.161Z" transform="translate(-1319.286 4303.488)"/><path class="d" d="M1347.562-4289.777a10.838,10.838,0,0,1-10.838,10.836,10.837,10.837,0,0,1-10.836-10.838,10.837,10.837,0,0,1,10.837-10.836,10.838,10.838,0,0,1,10.837,10.837Z" transform="translate(-1318.541 4300.615)"/></g></g></g></svg>