<svg xmlns="http://www.w3.org/2000/svg" xmlns:xlink="http://www.w3.org/1999/xlink" width="120" height="120" viewBox="0 0 120 120"><defs><style>.a{fill:none;}.b{fill:#afafaf;}.c{fill:#fff;}.d{filter:url(#a);}</style><filter id="a" x="33.519" y="27.646" width="52.577" height="65.851" filterUnits="userSpaceOnUse"><feOffset dy="2" input="SourceAlpha"/><feGaussianBlur result="b"/><feFlood flood-opacity="0.4"/><feComposite operator="in" in2="b"/><feComposite in="SourceGraphic"/></filter></defs><g transform="translate(33.519 20.135)"><rect class="a" width="120" height="120" transform="translate(-33.519 -20.135)"/><g class="d" transform="matrix(1, 0, 0, 1, -33.52, -20.13)"><path class="b" d="M56.781,24.343H50.6V18.656a18.706,18.706,0,0,0-37.413.1v5.687H7.1a1.364,1.364,0,0,0-1.4,1.4V62.454a1.364,1.364,0,0,0,1.4,1.4H56.881a1.364,1.364,0,0,0,1.4-1.4V25.84A1.534,1.534,0,0,0,56.781,24.343ZM37.625,53.076a27.44,27.44,0,0,0-2.793-1.9c-1-.6-1.9-1.3-2.893-1.8l-2.993,1.8c-1,.6-1.9,1.3-2.793,1.9.2-2.494.4-4.988.7-7.483-.9-.8-1.8-1.6-2.694-2.494A32.455,32.455,0,0,0,21.264,40.8c2.394-.7,4.889-1.1,7.283-1.6,1-2.295,2.195-4.49,3.392-6.784,1.2,2.195,2.295,4.49,3.292,6.784,2.494.4,4.889,1,7.283,1.6-2,1.6-3.891,3.093-5.687,4.789C37.226,48.088,37.426,50.582,37.625,53.076Zm5.088-28.733H21.164V18.656a10.775,10.775,0,1,1,21.55,0Z" transform="translate(27.82 27.65)"/></g><path class="c" d="M56.781,24.343H50.6V18.656a18.706,18.706,0,0,0-37.413.1v5.687H7.1a1.364,1.364,0,0,0-1.4,1.4V62.454a1.364,1.364,0,0,0,1.4,1.4H56.881a1.364,1.364,0,0,0,1.4-1.4V25.84A1.534,1.534,0,0,0,56.781,24.343ZM37.625,53.076a27.44,27.44,0,0,0-2.793-1.9c-1-.6-1.9-1.3-2.893-1.8l-2.993,1.8c-1,.6-1.9,1.3-2.793,1.9.2-2.494.4-4.988.7-7.483-.9-.8-1.8-1.6-2.694-2.494A32.455,32.455,0,0,0,21.264,40.8c2.394-.7,4.889-1.1,7.283-1.6,1-2.295,2.195-4.49,3.392-6.784,1.2,2.195,2.295,4.49,3.292,6.784,2.494.4,4.889,1,7.283,1.6-2,1.6-3.891,3.093-5.687,4.789C37.226,48.088,37.426,50.582,37.625,53.076Zm5.088-28.733H21.164V18.656a10.775,10.775,0,1,1,21.55,0Z" transform="translate(-5.7)"/></g></svg>