<svg xmlns="http://www.w3.org/2000/svg" width="120" height="120" viewBox="0 0 120 120"><defs><style>.a,.i{fill:none;}.b{opacity:0.3;}.c{fill:#be1622;}.d{fill:#d62137;}.e{fill:#f4d5a4;}.f{fill:#87101f;}.g{fill:#f93a4c;}.h{fill:#f7931e;}.i{stroke-miterlimit:10;opacity:0.4;mix-blend-mode:overlay;}.i,.j{isolation:isolate;}.j{opacity:0.2;mix-blend-mode:multiply;}.k{fill:#634e42;}.l{fill:#ededed;}.m{fill:#fff;}.n,.o{stroke:none;}.o{fill:#fff;}</style></defs><rect class="a" width="120" height="120"/><path class="b" d="M918.909,196.087l3.428-.668.565-2.867-35.967-54.21-54.3,6.95s-5.56.608-7.732,5.821-.7,8.253-.7,8.253l35.445,58.728.146.023a2.8,2.8,0,0,0,2.982,1.714c2.78-.347,56.9-11.119,56.9-11.119l.564-2.737-4.219-5.951A8.017,8.017,0,0,1,918.909,196.087Z" transform="translate(-814.1 -111.802)"/><path class="c" d="M930.954,183.791l-39.837-60.045-60.14,7.7s-6.159.674-8.564,6.447-.77,9.142-.77,9.142L860.9,212.081l4.908.769Z" transform="translate(-814.1 -111.802)"/><path class="d" d="M891.117,123.747l-60.14,7.7a11.6,11.6,0,0,0-3.445,1.093l38.9,67.6,43.185-6.825,21.337-9.519Z" transform="translate(-814.1 -111.802)"/><path class="e" d="M925.421,199.812s-2.5-1.107-2.694-3.272.433-7.072,4.667-9.382-16.311,1.877-16.311,1.877L868.7,197.358s-5,1.251-6.4,5.533-1.877,7.409-.241,8.8,4.667,1.154,7.313.577S925.421,199.812,925.421,199.812Z" transform="translate(-814.1 -111.802)"/><path class="f" d="M930.328,186.966s-53.885,10.488-60.188,11.739-7.361,7.65-7.409,10.2,2.02,2.454,2.02,2.454l63.268-12.7-.625,3.031s-59.948,11.932-63.028,12.317-5-3.079-3.656-10.2,9.43-8.083,9.43-8.083l60.814-11.931Z" transform="translate(-814.1 -111.802)"/><path class="g" d="M836.991,134.86,870.91,191.3l53.982-10.681L889.674,127.5Z" transform="translate(-814.1 -111.802)"/><path class="h" d="M871.51,138.561s-16.77,2.614-10.6,19.437,26.579,17.64,31.958,15.843,14.081-8.167,7.436-21.07S880.212,137.255,871.51,138.561Z" transform="translate(-814.1 -111.802)"/><g class="i" transform="translate(-814.1 -111.802)"><path class="n" d="M871.51,138.561s-16.77,2.614-10.6,19.437,26.579,17.64,31.958,15.843,14.081-8.167,7.436-21.07S880.212,137.255,871.51,138.561Z"/><path class="o" d="M 875.6670532226562 141.1447906494141 C 874.39013671875 141.1447906494141 873.1400146484375 141.2348937988281 871.9513549804688 141.4125671386719 C 871.7886352539062 141.440185546875 866.027587890625 142.4776153564453 863.5783081054688 146.6357116699219 C 862.0398559570312 149.2475128173828 862.0535278320312 152.7360534667969 863.6190185546875 157.0044250488281 C 865.5050659179688 162.1469116210938 869.0570678710938 166.0444488525391 874.1763916015625 168.5887756347656 C 878.0515747070312 170.5147705078125 882.8899536132812 171.619384765625 887.4509887695312 171.619384765625 C 890.1980590820312 171.619384765625 891.5919189453125 171.2250518798828 891.9536743164062 171.1042022705078 C 892.7899780273438 170.8248138427734 894.43408203125 170.1651763916016 896.0486450195312 168.8864288330078 C 897.5054931640625 167.7325439453125 898.5556640625 166.3819732666016 899.169921875 164.8722381591797 C 900.3766479492188 161.9062957763672 899.8951416015625 158.2793273925781 897.7387084960938 154.0921173095703 C 895.425048828125 149.5995330810547 892.0462646484375 146.1920318603516 887.6961669921875 143.9643096923828 C 883.14599609375 141.6340637207031 878.6434326171875 141.1448669433594 875.6672973632812 141.1447906494141 L 875.6670532226562 141.1447906494141 M 875.6676025390625 138.2593231201172 C 884.0596313476562 138.2594909667969 894.64697265625 141.7864379882812 900.3040161132812 152.77099609375 C 906.948974609375 165.6739959716797 898.2470092773438 172.0440063476562 892.8679809570312 173.8410034179688 C 891.6851196289062 174.2361755371094 889.7763061523438 174.5048675537109 887.4509887695312 174.5048675537109 C 879.2022705078125 174.5048675537109 865.72314453125 171.1214599609375 860.9099731445312 157.9980010986328 C 854.739990234375 141.1750030517578 871.510009765625 138.5610046386719 871.510009765625 138.5610046386719 C 872.8038330078125 138.3668365478516 874.2019653320312 138.2592926025391 875.6676025390625 138.2593231201172 Z"/></g><path class="h" d="M872.353,140.634s-15.3,2.309-9.67,17.176,24.248,15.588,29.156,14,12.846-7.217,6.783-18.62S880.292,139.479,872.353,140.634Z" transform="translate(-814.1 -111.802)"/><g transform="translate(-814.1 -111.802)"><g class="j"><path class="k" d="M876.935,143.645c1.35.068,2.189,4.461,2.544,5.627.343,1.147.092,1.9-1.208,1.9C873.763,151.18,873.43,143.467,876.935,143.645Z"/><path class="k" d="M868.555,154.612c-1.093-1.72-2.183-4.425-.987-5.268.573-.4,4.064,1.934,5.218,2.946a2.8,2.8,0,0,1,1.205,1.859c.1,1.3-1.521,2.046-2.97,2.018A2.854,2.854,0,0,1,868.555,154.612Z"/><path class="k" d="M886.3,152.453a3.75,3.75,0,0,1-2.935-2.306c-.436-1.174-1.746-5.92.588-5.39C886.988,145.658,893.051,153,886.3,152.453Z"/><path class="k" d="M896.568,156.755c.09,1.085-.687,1.77-2.084,1.551-1.836-.285-3.778-2.07-3.943-3.451a1.392,1.392,0,0,1,.788-1.456c.874-.566,2.918-1.47,3.336-1.175C895.539,152.843,896.448,154.82,896.568,156.755Z"/><path class="k" d="M891.936,164.4c.336,2.777-.635,4.25-1.827,4.981-.95.591-2.58-.13-4.853-.318-1.866-.152-3.712.953-5.253-.154a16.411,16.411,0,0,1-5.863-8.906c-.375-1.949,1.43-2.655,2.768-3.586,1.983-1.373,4.345-2.153,5.806-1.909,1.373.227,3.281,1.475,5.291,3.8C889.572,160.13,891.669,162.212,891.936,164.4Z"/></g><path class="l" d="M876.444,142.662c1.079.027,1.475,3.859,1.823,5.025.337,1.148-.094,1.975-1.464,1.969C872.049,149.653,873.645,142.592,876.444,142.662Z"/><path class="l" d="M867.388,153.151c-1.164-1.933-2.3-4.561-1.187-5.349.537-.378,3.864,1.9,5.029,2.976a3.381,3.381,0,0,1,1.288,2.05c.2,1.475-1.275,2.4-2.665,2.261A3.368,3.368,0,0,1,867.388,153.151Z"/><path class="l" d="M884.917,151.222a4.306,4.306,0,0,1-3.042-2.581c-.457-1.221-1.426-5.624.764-5.191C885.814,144.319,891.39,151.759,884.917,151.222Z"/><path class="l" d="M895.023,155.031c-.047.952-.88,1.621-2.252,1.445-1.8-.227-3.572-1.78-3.469-2.718.046-.47.46-.807.984-1.116.867-.585,2.915-1.779,3.461-1.367C894.891,152.141,895.149,153.331,895.023,155.031Z"/><path class="l" d="M890.3,162.448c.492,2.932.079,4.761-1.163,5.726-.987.78-2.924-.373-5.332-.715-1.977-.278-3.761.9-5.385-.406-2.821-2.26-5.4-6.176-5.777-8.734-.236-1.617,1.687-2.044,3.094-2.793,2.086-1.107,4.23-2.381,6.089-1.954a7.947,7.947,0,0,1,4.7,3C887.915,158.121,889.915,160.135,890.3,162.448Z"/><path class="m" d="M869.153,149.2c-1.314-.888-2.622-1.63-2.952-1.4-1.1.772-.018,3.306,1.118,5.232A5.915,5.915,0,0,1,869.153,149.2Z"/><path class="m" d="M876.813,142.714a3.791,3.791,0,0,0-2.977,4.111c1.493-1.171,2.6-1.865,3.658-1.881C877.316,143.609,877.257,142.706,876.813,142.714Z"/><path class="m" d="M882.616,143.447c-1.157-.326-1.579.815-1.474,2.192a32.452,32.452,0,0,1,6.774,3.145C887.244,146.876,885.256,144.193,882.616,143.447Z"/><path class="m" d="M893.747,151.275c-.276-.208-.8-.033-1.5.3a14.257,14.257,0,0,1,2.721,2.228A3.171,3.171,0,0,0,893.747,151.275Z"/><path class="m" d="M886.528,156.57a7.964,7.964,0,0,0-4.7-3c-1.858-.425-4.006.847-6.089,1.954-1.407.747-3.332,1.177-3.094,2.793a5.712,5.712,0,0,0,.212.888c1.716-.857,6.616-2.306,9.912-1.662,2.592.506,4.815,2.868,7.522,4.846C889.881,160.1,887.9,158.108,886.528,156.57Z"/></g></svg>