<svg xmlns="http://www.w3.org/2000/svg" width="120" height="120" viewBox="0 0 120 120"><defs><style>.a{fill:#fff;}.b{fill:#afafaf;}.c{fill:#dedede;}.d{fill:#878787;}.e{fill:none;}</style></defs><ellipse class="a" cx="59.989" cy="59.961" rx="59.989" ry="59.961" transform="translate(0.01 0.012)"/><path class="b" d="M2022.032-82.766a59.97,59.97,0,0,0-56.983,62.821A59.979,59.979,0,0,0,2027.9,37.012a59.973,59.973,0,0,0,56.983-62.822A59.979,59.979,0,0,0,2022.032-82.766Zm27.963,37.058a38.89,38.89,0,0,1,14.341,28.3,39.043,39.043,0,0,1-37.1,40.9c-.339.016-.668-.011-1.006,0a39.176,39.176,0,0,0,21.578-21.349A38.918,38.918,0,0,1,2019.5,16.474a39.049,39.049,0,0,1-40.918-37.081c-.016-.338.011-.669,0-1.005A39.174,39.174,0,0,0,1999.937-.045a38.894,38.894,0,0,1-14.34-28.3,39.042,39.042,0,0,1,37.1-40.9c.338-.016.667.011,1.005,0a39.172,39.172,0,0,0-21.577,21.347,38.915,38.915,0,0,1,28.313-14.334,39.047,39.047,0,0,1,40.917,37.079c.016.338-.01.669,0,1.005A39.17,39.17,0,0,0,2049.995-45.709Z" transform="translate(-1964.974 82.915)"/><path class="c" d="M2051.537-76.62a59.788,59.788,0,0,0-80.349,27.426,60.506,60.506,0,0,0-6.164,29.146c2.439-15.643,9.445-29.143,19.662-38.8a58.327,58.327,0,0,1,37.249-16.077,58.26,58.26,0,0,1,38.631,12.334c11.222,8.7,19.565,21.614,23.463,37.155l.746-.037c.031-.2.046-.407.073-.608A60.413,60.413,0,0,0,2051.537-76.62Z" transform="translate(-1964.975 82.881)"/><path class="d" d="M2078.709-21.664a60.558,60.558,0,0,0,6.172-28.932c-.082-.35-.144-.709-.232-1.057l-.748.037c-2.37,15.85-9.422,29.527-19.745,39.287a58.356,58.356,0,0,1-37.251,16.077,58.257,58.257,0,0,1-38.63-12.334c-11.018-8.54-19.253-21.154-23.237-36.319a60.421,60.421,0,0,0,33.319,50.669A59.788,59.788,0,0,0,2078.709-21.664Z" transform="translate(-1964.921 107.924)"/><ellipse class="e" cx="59.989" cy="59.961" rx="59.989" ry="59.961" transform="translate(0.01 0.012)"/><g transform="translate(13.733 13.808)"><path class="d" d="M1985.4-53.856a39.8,39.8,0,0,1,7.9-7.349,39.449,39.449,0,0,1,23.058-13.5c-.336-.059-.656-.15-.993-.2a39.445,39.445,0,0,0-8.5-.346A39.47,39.47,0,0,0,1985.4-53.856Z" transform="translate(-1962.047 75.344)"/><path class="d" d="M1993.958-23.233a39.821,39.821,0,0,1-7.346-7.9,39.435,39.435,0,0,1-13.505-23.056c-.057.335-.151.654-.2.993a39.6,39.6,0,0,0-.346,8.5A39.478,39.478,0,0,0,1993.958-23.233Z" transform="translate(-1972.471 92.361)"/><path class="d" d="M2011.722-62.414a39.76,39.76,0,0,1,7.347,7.9,39.434,39.434,0,0,1,13.5,23.056c.059-.333.15-.654.2-.993a39.532,39.532,0,0,0,.347-8.5A39.472,39.472,0,0,0,2011.722-62.414Z" transform="translate(-1940.693 85.747)"/><path class="d" d="M2024.583-36.094a39.8,39.8,0,0,1-7.9,7.349,39.463,39.463,0,0,1-23.059,13.505c.336.057.656.15.993.2a39.336,39.336,0,0,0,8.5.346A39.466,39.466,0,0,0,2024.583-36.094Z" transform="translate(-1955.42 107.065)"/></g></svg>