<svg id="Icon_-_Manage_Privacy" data-name="Icon - Manage Privacy" xmlns="http://www.w3.org/2000/svg" width="120" height="120" viewBox="0 0 120 120">
  <rect id="frame" width="120" height="120" fill="none"/>
  <g id="icon" transform="translate(-655.8 -274.246)">
    <path id="Path_1750" data-name="Path 1750" d="M743.186,326.245h-6.833v-6.282a20.664,20.664,0,0,0-41.327.111v6.281H688.3a1.507,1.507,0,0,0-1.543,1.543v40.446a1.506,1.506,0,0,0,1.543,1.542H743.3a1.506,1.506,0,0,0,1.543-1.542V327.9A1.7,1.7,0,0,0,743.186,326.245Zm-21.159,31.739a30.529,30.529,0,0,0-3.086-2.094c-1.1-.661-2.094-1.432-3.2-1.983l-3.306,1.983c-1.1.662-2.094,1.433-3.086,2.094.221-2.755.441-5.51.772-8.265-.992-.882-1.984-1.763-2.976-2.755a35.75,35.75,0,0,0-3.2-2.535c2.645-.771,5.4-1.212,8.045-1.763,1.1-2.535,2.425-4.96,3.747-7.494,1.323,2.424,2.535,4.959,3.637,7.494,2.755.441,5.4,1.1,8.045,1.763-2.2,1.763-4.3,3.416-6.282,5.29C721.586,352.474,721.806,355.229,722.027,357.984Zm5.62-31.739h-23.8v-6.282a11.9,11.9,0,1,1,23.8,0Z" opacity="0.3"/>
    <path id="Path_1751" data-name="Path 1751" d="M743.186,320.814h-6.833v-6.282a20.664,20.664,0,0,0-41.327.11v6.282H688.3a1.506,1.506,0,0,0-1.543,1.543v40.445a1.506,1.506,0,0,0,1.543,1.543H743.3a1.506,1.506,0,0,0,1.543-1.543V322.467A1.694,1.694,0,0,0,743.186,320.814Zm-21.159,31.739a30.363,30.363,0,0,0-3.086-2.094c-1.1-.661-2.094-1.432-3.2-1.983l-3.306,1.983c-1.1.661-2.094,1.433-3.086,2.094.221-2.755.441-5.51.772-8.265-.992-.882-1.984-1.764-2.976-2.755a35.75,35.75,0,0,0-3.2-2.535c2.645-.772,5.4-1.212,8.045-1.763,1.1-2.535,2.425-4.96,3.747-7.494,1.323,2.424,2.535,4.959,3.637,7.494,2.755.44,5.4,1.1,8.045,1.763-2.2,1.763-4.3,3.416-6.282,5.29C721.586,347.043,721.806,349.8,722.027,352.553Zm5.62-31.739h-23.8v-6.282a11.9,11.9,0,1,1,23.8,0Z" fill="#aa31f7"/>
    <path id="Path_1752" data-name="Path 1752" d="M715.745,293.924a20.765,20.765,0,0,0-20.719,20.718v6.172h8.817v-6.282a11.9,11.9,0,1,1,23.8,0v6.282h8.706v-6.282A20.576,20.576,0,0,0,715.745,293.924Z" fill="#afafaf"/>
    <path id="Path_1753" data-name="Path 1753" d="M715.745,288.493a20.765,20.765,0,0,0-20.719,20.718v6.172h8.817V309.1a11.9,11.9,0,1,1,23.8,0v6.282h8.706V309.1A20.576,20.576,0,0,0,715.745,288.493Z" fill="#fff"/>
    <path id="Path_1754" data-name="Path 1754" d="M688.414,358.119h48.16v-.11H743.3a1.506,1.506,0,0,0,1.543-1.543V316.02a1.506,1.506,0,0,0-1.543-1.542H688.3a1.506,1.506,0,0,0-1.543,1.542v40.446A1.694,1.694,0,0,0,688.414,358.119Zm21.16-31.739a30.412,30.412,0,0,0,3.085,2.094c1.1.661,2.094,1.432,3.2,1.983l3.306-1.983c1.1-.662,2.094-1.433,3.086-2.094-.22,2.755-.441,5.51-.771,8.265.992.882,1.983,1.763,2.975,2.755a35.739,35.739,0,0,0,3.2,2.535c-2.645.772-5.4,1.212-8.045,1.763-1.1,2.535-2.424,4.96-3.747,7.494-1.322-2.424-2.534-4.959-3.637-7.494-2.755-.44-5.4-1.1-8.044-1.763,2.2-1.763,4.3-3.416,6.281-5.29C710.014,331.89,709.794,329.135,709.574,326.38Z" fill="#d28dff"/>
    <path id="Path_1755" data-name="Path 1755" d="M743.186,315.383l-54.882.11a1.506,1.506,0,0,0-1.543,1.543v40.445a1.506,1.506,0,0,0,1.543,1.543H743.3a1.506,1.506,0,0,0,1.543-1.543V317.036A1.694,1.694,0,0,0,743.186,315.383Zm-21.159,31.739a30.363,30.363,0,0,0-3.086-2.094c-1.1-.661-2.094-1.433-3.2-1.984l-3.306,1.984c-1.1.661-2.094,1.433-3.086,2.094.221-2.755.441-5.51.772-8.265-.992-.882-1.984-1.764-2.976-2.756a35.916,35.916,0,0,0-3.2-2.534c2.645-.772,5.4-1.213,8.045-1.764,1.1-2.534,2.425-4.959,3.747-7.494,1.323,2.425,2.535,4.96,3.637,7.494,2.755.441,5.4,1.1,8.045,1.764-2.2,1.763-4.3,3.416-6.282,5.29C721.586,341.612,721.806,344.367,722.027,347.122Z" fill="#cc6cff"/>
    <g id="Group_1603" data-name="Group 1603">
      <path id="Path_1756" data-name="Path 1756" d="M731.667,333.114c-3.6-.79-7.2-1.58-10.951-2.107-1.5-3.028-3.151-6.057-4.951-8.953-1.8,3.028-3.6,5.925-5.1,8.953-3.6.658-7.351,1.185-10.951,2.107v3.244a48.663,48.663,0,0,1,4.351,3.028c1.233,1.083,2.467,2.053,3.7,3.017-.261,2.3-.49,4.6-.7,6.906v3.244c1.35-.79,2.7-1.712,4.2-2.5l4.5-2.37c1.5.659,2.85,1.58,4.351,2.37a41.923,41.923,0,0,1,4.2,2.5v-3.244c-.212-2.33-.43-4.66-.749-6.99,2.568-2.089,5.264-3.97,8.1-5.961Z" opacity="0.3"/>
      <path id="Path_1757" data-name="Path 1757" d="M731.667,330.292c-3.6-.79-7.2-1.58-10.951-2.106-1.5-3.029-3.151-6.057-4.951-8.954-1.8,3.029-3.6,5.925-5.1,8.954-3.6.658-7.351,1.185-10.951,2.106v3.245a48.664,48.664,0,0,1,4.351,3.028c1.233,1.083,2.467,2.053,3.7,3.016-.261,2.3-.49,4.6-.7,6.906v3.245c1.35-.79,2.7-1.712,4.2-2.5l4.5-2.37c1.5.658,2.85,1.58,4.351,2.37a41.917,41.917,0,0,1,4.2,2.5v-3.245c-.212-2.33-.43-4.66-.749-6.99,2.568-2.089,5.264-3.969,8.1-5.96Z" fill="#ffef78"/>
      <path id="Path_1758" data-name="Path 1758" d="M731.667,330.951c-3.6-.79-7.2-1.58-10.951-2.107-1.5-3.028-3.151-6.056-4.951-8.953-1.8,3.028-3.6,5.925-5.1,8.953-3.6.658-7.351,1.185-10.951,2.107V334.2a48.464,48.464,0,0,1,4.351,3.029c1.233,1.082,2.467,2.052,3.7,3.016-.261,2.3-.49,4.6-.7,6.906v3.244c1.35-.79,2.7-1.712,4.2-2.5l4.5-2.37c1.5.658,2.85,1.579,4.351,2.37a41.911,41.911,0,0,1,4.2,2.5v-3.244c-.212-2.33-.43-4.66-.749-6.99,2.568-2.089,5.264-3.97,8.1-5.961Z" fill="#c9b817"/>
      <path id="Path_1759" data-name="Path 1759" d="M724.316,347.146a41.917,41.917,0,0,0-4.2-2.5c-1.5-.79-2.851-1.712-4.351-2.37l-4.5,2.37c-1.5.79-2.85,1.712-4.2,2.5.3-3.292.6-6.584,1.05-9.875-1.35-1.054-2.7-2.107-4.05-3.292a48.456,48.456,0,0,0-4.351-3.028c3.6-.922,7.351-1.449,10.951-2.107,1.5-3.028,3.3-5.925,5.1-8.953,1.8,2.9,3.45,5.925,4.951,8.953,3.75.527,7.351,1.317,10.951,2.107-3,2.106-5.851,4.081-8.551,6.32C723.716,340.562,724.016,343.854,724.316,347.146Z" fill="#fcea10"/>
    </g>
  </g>
</svg>
