<svg xmlns="http://www.w3.org/2000/svg" width="120" height="120" viewBox="0 0 120 120"><defs><style>.a{fill:none;}.b{fill:#221e20;opacity:0.3;mix-blend-mode:multiply;}.b,.d,.g,.m{isolation:isolate;}.c,.g,.m{fill:#fff;}.d{fill:#393c54;opacity:0.1;}.e{fill:#f2bc0f;}.f{fill:#fdea18;}.g{opacity:0.5;}.h{fill:#515570;}.i{fill:#e4087e;}.j{fill:#b1b1b1;}.k{fill:#9c9c9a;}.l{fill:#363949;}.m{opacity:0.26;}.n{fill:#21232d;}</style></defs><rect class="a" width="120" height="120"/><g transform="translate(20.855 1.03)"><path class="b" d="M7770.942-3238.7l-4.743,4.785-.169.171-.041-.014-13.687,13.807.006,0-42.5,42.868-3.658,33.408v0c0,.114.024.222.034.333s.015.248.037.366a3.264,3.264,0,0,0,.1.322,2.657,2.657,0,0,0,.1.331,3.019,3.019,0,0,0,.161.3,3.068,3.068,0,0,0,.158.291,2.551,2.551,0,0,0,.211.259,3.19,3.19,0,0,0,.209.254,3.075,3.075,0,0,0,.291.244c.075.059.14.128.218.181a2.662,2.662,0,0,0,.249.136v0h0c.073.043.148.086.228.124.038.018.068.043.107.059.017.008.034.01.048.016v0c.043.016.085.023.127.039a3.045,3.045,0,0,0,.313.1c.053.015.1.04.16.05.021.006.045,0,.066.008l.041.006c.05.01.1.016.154.024a2.975,2.975,0,0,0,.417.033h.018l.82-.09,32.295-3.6,43.625-44.006,0-.008,5.2-5.246,0,0h0l.013.039,10.642-10.736A59.1,59.1,0,0,0,7770.942-3238.7Z" transform="translate(-7706.154 3244.367)"/><path class="c" d="M7709.6-3172.642h0a3.463,3.463,0,0,1-3.445-3.48l3.658-33.406h32.907v33.2Z" transform="translate(-7706.154 3272.555)"/><path class="d" d="M7708.871-3182.914l33.115-3.689v-10.451l-3.655-1.844-31.081,14.14-.337,1.223A3.45,3.45,0,0,0,7708.871-3182.914Z" transform="translate(-7705.419 3282.827)"/><path class="d" d="M7707.09-3176.3l-.012,1.426a3.335,3.335,0,0,0,1.633.419l33.115-3.689v-14.14l-20.722-15.371Z" transform="translate(-7705.261 3274.366)"/><path class="e" d="M7736.657-3166.386l4.265,11.682,43.625-44.006a51.944,51.944,0,0,0-32.91-33.2l-43.622,44.006,11.576,4.3,4.878,12.3Z" transform="translate(-7704.356 3250.928)"/><path class="f" d="M7724.468-3171.3l12.188,4.917,42.868-43.241a51.744,51.744,0,0,0-27.889-22.281l-43.622,44.006,11.576,4.3Z" transform="translate(-7704.356 3250.928)"/><path class="g" d="M7708.014-3187.9l11.576,4.3,42.869-43.244a51.294,51.294,0,0,0-10.823-5.065Z" transform="translate(-7704.356 3250.928)"/><path class="h" d="M7713.923-3187.245c.566-.569-.657-2.73-2.731-4.823s-4.214-3.325-4.78-2.755" transform="translate(-7705.904 3286.63)"/><path class="i" d="M7779.446-3208.384l-13.687,13.807a51.947,51.947,0,0,0-32.91-33.2l13.688-13.807A51.931,51.931,0,0,1,7779.446-3208.384Z" transform="translate(-7680.356 3241.581)"/><path class="j" d="M7776.221-3205.156l-13.689,13.807a51.936,51.936,0,0,0-32.908-33.2l13.688-13.807A51.946,51.946,0,0,1,7776.221-3205.156Z" transform="translate(-7683.475 3244.699)"/><path class="k" d="M7773.271-3205.249l-7.524,7.592a51.948,51.948,0,0,0-32.9-33.158l7.553-7.617A51.936,51.936,0,0,1,7773.271-3205.249Z" transform="translate(-7680.356 3244.623)"/><path class="h" d="M7711.442-3192.067c2.073,2.092,3.3,4.251,2.73,4.823h-.008l.017.016-4.577.511a3.464,3.464,0,0,1-3.45-3.477v0l.506-4.617,0,0v-.01C7707.228-3195.392,7709.37-3194.159,7711.442-3192.067Z" transform="translate(-7706.154 3286.63)"/><path class="l" d="M7707.09-3189.38l2.115-4.735c.439.364.893.775,1.343,1.229,2.074,2.092,3.3,4.251,2.731,4.823h-.008l.016.016-3.646.407-.931.1,0,0a3.531,3.531,0,0,1-.63-.062c-.034-.006-.071-.012-.107-.02a3.5,3.5,0,0,1-.555-.173c-.051-.021-.1-.049-.153-.073s-.123-.069-.184-.1Z" transform="translate(-7705.261 3287.448)"/><path class="m" d="M7777.524-3219.234l-20.013,20.188a51.787,51.787,0,0,0-27.817-22.349l19.993-20.169A51.781,51.781,0,0,1,7777.524-3219.234Z" transform="translate(-7683.406 3241.597)"/><path class="m" d="M7740.5-3216.3a51.39,51.39,0,0,0-10.8-5.09l19.993-20.168a51.608,51.608,0,0,1,10.808,5.083Z" transform="translate(-7683.4 3241.6)"/><path class="n" d="M7713.431-3189.341h.009c.442-.446-.209-1.857-1.5-3.452l-4.692,2.135-.337,1.223c.09.061.183.11.277.163.074.044.149.089.229.126a2.643,2.643,0,0,0,.283.111,2.552,2.552,0,0,0,.313.1c.084.023.167.045.25.061a3.5,3.5,0,0,0,.6.059l0,0,.82-.092,3.757-.419Z" transform="translate(-7705.419 3288.726)"/></g></svg>