<svg xmlns="http://www.w3.org/2000/svg" width="120" height="120" viewBox="0 0 120 120"><defs><style>.a{fill:none;}.b{fill:rgba(0,0,0,0.3);}.c{fill:#b2b2b2;}.d{fill:#ededed;}.e{fill:#fff;}</style></defs><rect class="a" width="120" height="120"/><g transform="translate(-915.177 -1208.83)"><path class="b" d="M1013.527,1271.677a5.733,5.733,0,0,0-.434-1.392,4.113,4.113,0,0,0-.69-1.054,2.6,2.6,0,0,0-.868-.636,1.792,1.792,0,0,0-.964-.137c-.042.007-.084.014-.126.023s-.083.02-.125.032l-.126.042c-.042.016-.084.033-.125.052l.022-.01.023-.01.022-.009.023-.009-10.363,4.1-.022.009-.022.009-.022.009-.022.01a1.3,1.3,0,0,0-.234.166,8.286,8.286,0,0,1-2.422-1.72,10.525,10.525,0,0,1-1.85-2.584,10.322,10.322,0,0,1-.973-2.836,9.812,9.812,0,0,1,.3-4.627c.225.11.456.217.661.335.627.362,1.163.748,1.623,1.055a3.257,3.257,0,0,0,1.163.579c.045.006.089.01.134.013s.087.005.13.005.086,0,.128-.005.083-.007.124-.012.073-.012.11-.019l.107-.026c.035-.01.07-.021.1-.033s.068-.025.1-.039l10.32-4.387-.1.04c-.035.012-.07.023-.106.033s-.073.019-.11.026-.075.014-.113.02a1.7,1.7,0,0,0,.868-.388,2.271,2.271,0,0,0,.6-.828,3.675,3.675,0,0,0,.284-1.176,5.5,5.5,0,0,0-.079-1.432L1006,1230.291l-23.1,2.889a4.693,4.693,0,0,1-1.539-.051,3.489,3.489,0,0,1-1.245-.512,2.472,2.472,0,0,1-.813-.89,2.219,2.219,0,0,1-.245-1.187,3.4,3.4,0,0,1,.535-1.284c.292-.5.658-1.091.984-1.79a8.457,8.457,0,0,0,.74-2.452,8.824,8.824,0,0,0-.192-3.274,8.3,8.3,0,0,0-1.5-3.189,8.622,8.622,0,0,0-2.428-2.138,9.664,9.664,0,0,0-2.868-1.131,8.667,8.667,0,0,0-2.821-.163,8.21,8.21,0,0,0-2.661.8,8.87,8.87,0,0,0-1.082.656c.129-.089.253-.188.386-.27l-9.2,5.668a8.158,8.158,0,0,0-1.548,1.231,7.382,7.382,0,0,0-1.207,1.629,6.9,6.9,0,0,0-.716,2,7.618,7.618,0,0,0-.072,2.356,8.9,8.9,0,0,0,.935,3.111,9.379,9.379,0,0,0,1.537,2.119c.545.575,1.091,1.037,1.537,1.438.086.077.164.151.242.224l-16.748,2.094-8.584,5.1,4.246,24.559a5.441,5.441,0,0,0,.425,1.38,3.932,3.932,0,0,0,.692,1.039,2.561,2.561,0,0,0,.879.621,1.874,1.874,0,0,0,.984.13c.043-.006.086-.013.129-.023s.086-.019.129-.031.086-.026.129-.042.086-.032.129-.051l8.841-4.259a1.865,1.865,0,0,0,.549-.423,7.068,7.068,0,0,1,1.186.368,8.146,8.146,0,0,1,2.607,1.788,10.238,10.238,0,0,1,1.827,2.538,9.973,9.973,0,0,1,.951,2.785,9.62,9.62,0,0,1,.081,2.621,9.734,9.734,0,0,1-.66,2.67c-.038.092-.095.175-.135.267a10.05,10.05,0,0,1-1.65-.728c-.668-.379-1.24-.784-1.731-1.1a3.388,3.388,0,0,0-1.249-.6c-.049-.007-.1-.011-.144-.015s-.095,0-.141,0-.092,0-.138.005-.09.008-.134.014a1.761,1.761,0,0,0-.485.141l0,0-8.877,3.958a1.924,1.924,0,0,0-.689.531,2.727,2.727,0,0,0-.468.848,4,4,0,0,0-.213,1.1,5.533,5.533,0,0,0,.076,1.277l4.282,24.762,61.664-9.638,10.615-3.3Zm-63.286,8.155c0-.122-.008-.246,0-.362,0-.032.009-.06.011-.091C950.24,1279.525,950.239,1279.678,950.241,1279.832Zm.168-1.313c.018-.058.028-.122.048-.178s.045-.1.066-.15C950.481,1278.3,950.443,1278.405,950.409,1278.519Zm.482-.983c.016-.021.029-.047.045-.067a2.261,2.261,0,0,1,.179-.173A2.229,2.229,0,0,0,950.891,1277.536Zm.344-.357c.01-.008.018-.019.029-.028a1.8,1.8,0,0,1,.324-.194A1.849,1.849,0,0,0,951.235,1277.179Zm13.308.843c-.054.045-.115.083-.17.127.082-.065.166-.129.244-.2C964.591,1277.975,964.569,1278,964.543,1278.022Zm.033-56.535c.01-.059.009-.123.02-.181.005-.03.017-.058.024-.088C964.6,1221.306,964.591,1221.4,964.576,1221.487Zm.7-2.122c.02-.038.033-.082.053-.119s.057-.085.083-.13C965.363,1219.2,965.317,1219.28,965.274,1219.365Zm1.188,56.159c-.118.24-.247.475-.387.7a8.413,8.413,0,0,0,.492-.976C966.527,1275.34,966.505,1275.436,966.462,1275.524Zm.89-3.011c-.018.142-.064.281-.089.423.033-.189.075-.378.1-.567C967.355,1272.417,967.358,1272.464,967.352,1272.513Zm-.842-54.878c.019-.02.035-.043.054-.063a8.03,8.03,0,0,1,.758-.685c.057-.045.12-.08.178-.124A8.081,8.081,0,0,0,966.51,1217.635Zm2.837,16.325c-.015.02-.039.035-.055.054.034-.04.066-.081.1-.122C969.373,1233.913,969.364,1233.939,969.347,1233.96Zm.451-1.015c.007-.042.006-.084.01-.126,0,.029.005.059,0,.088C969.807,1232.92,969.8,1232.931,969.8,1232.945Zm36.367,39.554-.022.012c.06-.036.108-.08.166-.117C1006.258,1272.427,1006.218,1272.467,1006.165,1272.5Zm1.781-1.509c-.027.03-.062.059-.09.089.1-.1.187-.208.276-.313C1008.067,1270.842,1008.014,1270.914,1007.946,1270.99Zm1.278-1.589c.018-.024.04-.053.058-.075s.016-.016.024-.026C1009.279,1269.333,1009.251,1269.366,1009.224,1269.4Z" transform="translate(-2 6)"/><path class="c" d="M1013.527,1271.677a5.733,5.733,0,0,0-.434-1.392,4.113,4.113,0,0,0-.69-1.054,2.6,2.6,0,0,0-.868-.636,1.792,1.792,0,0,0-.964-.137c-.042.007-.084.014-.126.023s-.083.02-.125.032l-.126.042c-.042.016-.084.033-.125.052l.022-.01.023-.01.022-.009.023-.009-10.363,4.1-.022.009-.022.009-.022.009-.022.01a1.3,1.3,0,0,0-.234.166,8.286,8.286,0,0,1-2.422-1.72,10.525,10.525,0,0,1-1.85-2.584,10.322,10.322,0,0,1-.973-2.836,9.812,9.812,0,0,1,.3-4.627c.225.11.456.217.661.335.627.362,1.163.748,1.623,1.055a3.257,3.257,0,0,0,1.163.579c.045.006.089.01.134.013s.087.005.13.005.086,0,.128-.005.083-.007.124-.012.073-.012.11-.019l.107-.026c.035-.01.07-.021.1-.033s.068-.025.1-.039l10.32-4.387-.1.04c-.035.012-.07.023-.106.033s-.073.019-.11.026-.075.014-.113.02a1.7,1.7,0,0,0,.868-.388,2.271,2.271,0,0,0,.6-.828,3.675,3.675,0,0,0,.284-1.176,5.5,5.5,0,0,0-.079-1.432L1006,1230.291l-23.1,2.889a4.693,4.693,0,0,1-1.539-.051,3.489,3.489,0,0,1-1.245-.512,2.472,2.472,0,0,1-.813-.89,2.219,2.219,0,0,1-.245-1.187,3.4,3.4,0,0,1,.535-1.284c.292-.5.658-1.091.984-1.79a8.457,8.457,0,0,0,.74-2.452,8.824,8.824,0,0,0-.192-3.274,8.3,8.3,0,0,0-1.5-3.189,8.622,8.622,0,0,0-2.428-2.138,9.664,9.664,0,0,0-2.868-1.131,8.667,8.667,0,0,0-2.821-.163,8.21,8.21,0,0,0-2.661.8,8.87,8.87,0,0,0-1.082.656c.129-.089.253-.188.386-.27l-9.2,5.668a8.158,8.158,0,0,0-1.548,1.231,7.382,7.382,0,0,0-1.207,1.629,6.9,6.9,0,0,0-.716,2,7.618,7.618,0,0,0-.072,2.356,8.9,8.9,0,0,0,.935,3.111,9.379,9.379,0,0,0,1.537,2.119c.545.575,1.091,1.037,1.537,1.438.086.077.164.151.242.224l-16.748,2.094-8.584,5.1,4.246,24.559a5.441,5.441,0,0,0,.425,1.38,3.932,3.932,0,0,0,.692,1.039,2.561,2.561,0,0,0,.879.621,1.874,1.874,0,0,0,.984.13c.043-.006.086-.013.129-.023s.086-.019.129-.031.086-.026.129-.042.086-.032.129-.051l8.841-4.259a1.865,1.865,0,0,0,.549-.423,7.068,7.068,0,0,1,1.186.368,8.146,8.146,0,0,1,2.607,1.788,10.238,10.238,0,0,1,1.827,2.538,9.973,9.973,0,0,1,.951,2.785,9.62,9.62,0,0,1,.081,2.621,9.734,9.734,0,0,1-.66,2.67c-.038.092-.095.175-.135.267a10.05,10.05,0,0,1-1.65-.728c-.668-.379-1.24-.784-1.731-1.1a3.388,3.388,0,0,0-1.249-.6c-.049-.007-.1-.011-.144-.015s-.095,0-.141,0-.092,0-.138.005-.09.008-.134.014a1.761,1.761,0,0,0-.485.141l0,0-8.877,3.958a1.924,1.924,0,0,0-.689.531,2.727,2.727,0,0,0-.468.848,4,4,0,0,0-.213,1.1,5.533,5.533,0,0,0,.076,1.277l4.282,24.762,61.664-9.638,10.615-3.3Zm-63.286,8.155c0-.122-.008-.246,0-.362,0-.032.009-.06.011-.091C950.24,1279.525,950.239,1279.678,950.241,1279.832Zm.168-1.313c.018-.058.028-.122.048-.178s.045-.1.066-.15C950.481,1278.3,950.443,1278.405,950.409,1278.519Zm.482-.983c.016-.021.029-.047.045-.067a2.261,2.261,0,0,1,.179-.173A2.229,2.229,0,0,0,950.891,1277.536Zm.344-.357c.01-.008.018-.019.029-.028a1.8,1.8,0,0,1,.324-.194A1.849,1.849,0,0,0,951.235,1277.179Zm13.308.843c-.054.045-.115.083-.17.127.082-.065.166-.129.244-.2C964.591,1277.975,964.569,1278,964.543,1278.022Zm.033-56.535c.01-.059.009-.123.02-.181.005-.03.017-.058.024-.088C964.6,1221.306,964.591,1221.4,964.576,1221.487Zm.7-2.122c.02-.038.033-.082.053-.119s.057-.085.083-.13C965.363,1219.2,965.317,1219.28,965.274,1219.365Zm1.188,56.159c-.118.24-.247.475-.387.7a8.413,8.413,0,0,0,.492-.976C966.527,1275.34,966.505,1275.436,966.462,1275.524Zm.89-3.011c-.018.142-.064.281-.089.423.033-.189.075-.378.1-.567C967.355,1272.417,967.358,1272.464,967.352,1272.513Zm-.842-54.878c.019-.02.035-.043.054-.063a8.03,8.03,0,0,1,.758-.685c.057-.045.12-.08.178-.124A8.081,8.081,0,0,0,966.51,1217.635Zm2.837,16.325c-.015.02-.039.035-.055.054.034-.04.066-.081.1-.122C969.373,1233.913,969.364,1233.939,969.347,1233.96Zm.451-1.015c.007-.042.006-.084.01-.126,0,.029.005.059,0,.088C969.807,1232.92,969.8,1232.931,969.8,1232.945Zm36.367,39.554-.022.012c.06-.036.108-.08.166-.117C1006.258,1272.427,1006.218,1272.467,1006.165,1272.5Zm1.781-1.509c-.027.03-.062.059-.09.089.1-.1.187-.208.276-.313C1008.067,1270.842,1008.014,1270.914,1007.946,1270.99Zm1.278-1.589c.018-.024.04-.053.058-.075s.016-.016.024-.026C1009.279,1269.333,1009.251,1269.366,1009.224,1269.4Z"/><path class="d" d="M971.506,1215.119a8.641,8.641,0,0,1,2.821.164,9.661,9.661,0,0,1,2.868,1.13,8.622,8.622,0,0,1,2.428,2.138,8.3,8.3,0,0,1,1.5,3.189,8.824,8.824,0,0,1,.192,3.274,8.489,8.489,0,0,1-.74,2.452c-.326.7-.692,1.287-.984,1.79a3.4,3.4,0,0,0-.535,1.284,2.219,2.219,0,0,0,.245,1.187,2.472,2.472,0,0,0,.813.89,3.489,3.489,0,0,0,1.245.512,4.693,4.693,0,0,0,1.539.051l23.1-2.889,4.469,24.579a5.491,5.491,0,0,1,.079,1.431,3.675,3.675,0,0,1-.284,1.176,2.271,2.271,0,0,1-.6.828,1.687,1.687,0,0,1-.868.387c-.042.006-.084.011-.127.013s-.087.005-.131.005-.088,0-.134-.005-.091-.008-.137-.015a3.331,3.331,0,0,1-1.194-.6c-.472-.317-1.023-.715-1.667-1.089a8.875,8.875,0,0,0-2.226-.944,7.333,7.333,0,0,0-2.875-.163c-.043.005-.086.012-.128.018l-.13.021-.13.023-.132.025a6.475,6.475,0,0,0-2.924,1.4,7.284,7.284,0,0,0-1.85,2.435,9.588,9.588,0,0,0-.852,2.958,9.958,9.958,0,0,0,.068,2.96,10.335,10.335,0,0,0,.973,2.836,10.525,10.525,0,0,0,1.85,2.584,8.172,8.172,0,0,0,2.619,1.816,6.911,6.911,0,0,0,3.279.532l.138-.012.137-.014.134-.016.132-.018a6.982,6.982,0,0,0,2.674-.944,8,8,0,0,0,1.781-1.509c.48-.533.862-1.062,1.2-1.492a2.942,2.942,0,0,1,.924-.891c.041-.019.083-.036.125-.052l.126-.042c.041-.012.083-.023.125-.032s.084-.016.126-.022a1.782,1.782,0,0,1,.964.136,2.6,2.6,0,0,1,.868.636,4.113,4.113,0,0,1,.69,1.054,5.741,5.741,0,0,1,.434,1.393l4.506,24.783-63.271,9.842-4.441-25.517a5.582,5.582,0,0,1-.068-1.487,3.869,3.869,0,0,1,.313-1.23,2.439,2.439,0,0,1,.641-.872,1.809,1.809,0,0,1,.917-.412c.044-.006.089-.011.134-.014s.091-.005.138-.005.093,0,.141,0,.1.008.144.015a3.388,3.388,0,0,1,1.249.6c.491.32,1.063.725,1.731,1.1a9.141,9.141,0,0,0,2.311.95,7.664,7.664,0,0,0,2.981.14l.137-.021.138-.023.14-.026.141-.029a6.843,6.843,0,0,0,3.034-1.458,7.588,7.588,0,0,0,1.919-2.5,9.776,9.776,0,0,0,.89-3.011,9.984,9.984,0,0,0-.053-3,10.292,10.292,0,0,0-.982-2.869,10.579,10.579,0,0,0-1.88-2.617,8.39,8.39,0,0,0-2.679-1.846,7.25,7.25,0,0,0-3.381-.554l-.14.011-.137.013-.135.015-.133.018a7.409,7.409,0,0,0-2.792.947,8.33,8.33,0,0,0-1.877,1.533c-.508.543-.915,1.084-1.274,1.524a3.141,3.141,0,0,1-.984.917c-.044.019-.088.036-.132.052s-.089.03-.133.042-.088.024-.132.033-.089.017-.133.023a1.936,1.936,0,0,1-1.011-.135,2.651,2.651,0,0,1-.9-.642,4.044,4.044,0,0,1-.712-1.071,5.611,5.611,0,0,1-.439-1.423l-4.4-25.3,23.964-3a4.508,4.508,0,0,0,1.464-.428,3.012,3.012,0,0,0,1.013-.8,2.137,2.137,0,0,0,.462-1.053,2.207,2.207,0,0,0-.189-1.2,3.894,3.894,0,0,0-.967-1.1c-.458-.413-1.019-.89-1.58-1.483a9.714,9.714,0,0,1-1.581-2.185,9.21,9.21,0,0,1-.966-3.2,7.611,7.611,0,0,1,.338-3.432,7.313,7.313,0,0,1,1.6-2.627,8.4,8.4,0,0,1,2.377-1.75A8.21,8.21,0,0,1,971.506,1215.119Z"/><path class="e" d="M1004.579,1273.829l.138-.012.137-.014.134-.016.132-.018a6.983,6.983,0,0,0,2.674-.944,7.976,7.976,0,0,0,1.781-1.51c.479-.532.862-1.062,1.2-1.491a2.933,2.933,0,0,1,.924-.891c.041-.019.083-.036.125-.052s.084-.03.125-.042h.007a2.293,2.293,0,0,0-.42-.243,1.792,1.792,0,0,0-.964-.137c-.042.007-.084.014-.126.023s-.084.02-.125.032l-.126.042c-.042.016-.084.033-.125.052a2.931,2.931,0,0,0-.924.891c-.337.429-.719.959-1.2,1.491a7.98,7.98,0,0,1-1.781,1.51,6.982,6.982,0,0,1-2.674.944l-.132.018-.135.016-.136.014-.139.012a6.926,6.926,0,0,1-1.1-.008A6.908,6.908,0,0,0,1004.579,1273.829Z"/><path class="e" d="M962.582,1279.905l.137-.021c.046-.008.092-.015.138-.024l.14-.026.141-.028a6.856,6.856,0,0,0,3.034-1.458,7.587,7.587,0,0,0,1.919-2.5,9.773,9.773,0,0,0,.89-3.012,9.977,9.977,0,0,0-.053-3,10.289,10.289,0,0,0-.982-2.869,10.582,10.582,0,0,0-1.88-2.617,8.394,8.394,0,0,0-2.68-1.846,7.186,7.186,0,0,0-2.222-.538c.2.065.4.13.594.212a8.39,8.39,0,0,1,2.679,1.846,10.579,10.579,0,0,1,1.88,2.617,10.3,10.3,0,0,1,.982,2.869,9.978,9.978,0,0,1,.053,3,9.774,9.774,0,0,1-.89,3.012,7.588,7.588,0,0,1-1.919,2.5,6.843,6.843,0,0,1-3.034,1.458l-.141.029-.14.026-.138.023-.137.021a7.875,7.875,0,0,1-1.74.055c.132.041.25.1.388.131A7.664,7.664,0,0,0,962.582,1279.905Z"/><path class="e" d="M1003.5,1256.172a9.219,9.219,0,0,1,1.906.832c.644.374,1.2.772,1.667,1.089a3.331,3.331,0,0,0,1.194.6c.046.007.092.011.138.015s.089,0,.133,0,.088,0,.131,0,.085-.007.127-.012a1.688,1.688,0,0,0,.228-.066c-.1-.064-.21-.134-.322-.209-.472-.316-1.023-.714-1.667-1.088a8.878,8.878,0,0,0-2.226-.944A7.216,7.216,0,0,0,1003.5,1256.172Z"/><path class="e" d="M950.508,1266.73l.071-.017a2.922,2.922,0,0,1-.49-.411,4.046,4.046,0,0,1-.712-1.071,5.618,5.618,0,0,1-.439-1.423l-4.4-25.3,23.964-3a4.485,4.485,0,0,0,1.464-.429,3.013,3.013,0,0,0,1.013-.8,2.141,2.141,0,0,0,.462-1.053,2.211,2.211,0,0,0-.189-1.2,3.909,3.909,0,0,0-.967-1.1c-.458-.413-1.019-.89-1.58-1.483a9.713,9.713,0,0,1-1.581-2.185,9.188,9.188,0,0,1-.966-3.2,7.618,7.618,0,0,1,.338-3.433,7.317,7.317,0,0,1,1.6-2.626,8.367,8.367,0,0,1,2.377-1.75,7.8,7.8,0,0,1,4.516-.793c-.22-.065-.442-.124-.663-.172a8.641,8.641,0,0,0-2.821-.164,8.21,8.21,0,0,0-2.661.8,8.389,8.389,0,0,0-2.377,1.75,7.313,7.313,0,0,0-1.6,2.627,7.611,7.611,0,0,0-.338,3.432,9.21,9.21,0,0,0,.966,3.2,9.714,9.714,0,0,0,1.581,2.185c.561.593,1.122,1.07,1.58,1.483a3.906,3.906,0,0,1,.967,1.1,2.211,2.211,0,0,1,.189,1.2,2.128,2.128,0,0,1-.462,1.053,3.012,3.012,0,0,1-1.013.8,4.508,4.508,0,0,1-1.464.428l-23.964,3,4.4,25.3a5.611,5.611,0,0,0,.439,1.423,4.044,4.044,0,0,0,.712,1.071,2.651,2.651,0,0,0,.9.642,1.937,1.937,0,0,0,1.011.135C950.419,1266.747,950.463,1266.739,950.508,1266.73Z"/><path class="e" d="M951.95,1281.111a5.57,5.57,0,0,1-.068-1.486,3.869,3.869,0,0,1,.313-1.23,2.429,2.429,0,0,1,.641-.872,1.823,1.823,0,0,1,.74-.361,2.455,2.455,0,0,0-.895-.377q-.074-.011-.144-.015c-.048,0-.095,0-.141,0s-.092,0-.138.005-.09.008-.133.014a1.8,1.8,0,0,0-.918.412,2.439,2.439,0,0,0-.641.872,3.869,3.869,0,0,0-.313,1.231,5.575,5.575,0,0,0,.068,1.486l4.441,25.517,1.531-.238Z"/><path class="e" d="M982.247,1233.21a3.6,3.6,0,0,0,.744.244,4.69,4.69,0,0,0,1.539.052l21.567-2.7-.094-.518-23.1,2.889A4.841,4.841,0,0,1,982.247,1233.21Z"/></g></svg>