<svg xmlns="http://www.w3.org/2000/svg" width="120" height="120" viewBox="0 0 120 120"><defs><style>.a{opacity:0.3;}.b,.c{fill:#1d1e1c;}.c{opacity:0.42;}.d{fill:#3984b8;}.e{fill:#50ade9;}.f{fill:#fff;}.g{fill:#d9d9d9;}.h{fill:#bd1823;}.i{fill:#e10a17;}.j{fill:none;}</style></defs><g transform="translate(3604.207 3799.535)"><g class="a" transform="translate(-3568.207 -3756.86)"><circle class="b" cx="6.744" cy="6.744" r="6.744" transform="translate(5.395)"/><circle class="b" cx="5.912" cy="5.912" r="5.912" transform="translate(28.852 11.301)"/><path class="b" d="M-3528.278-3704.295h-10.469l-8.887-8.118a4.033,4.033,0,0,0-2.714-1.331v-.015H-3564.3v.007a4.043,4.043,0,0,0-3.895,3.807h-.012v17.673h5.338l-1.431,18.7h5.3l1.346-17.58h3.261l1.346,17.58h5.3l-1.488-19.439h-.093v-12.177l8.959,7.322-1.542,24.086h6.178l.915-14.3h2.409l.916,14.3h6.177l-1.532-23.936,2.74,10.582h3.9l-4.385-14.319A4.01,4.01,0,0,0-3528.278-3704.295Z" transform="translate(3568.207 3732.455)"/><rect class="b" width="2.79" height="13.301" transform="translate(3.907 26.881)"/></g><path class="c" d="M-3543.794-3775.029h0c-.093,0-.18,0-.273,0h-1.412a28.209,28.209,0,0,0-4.508.234,22.443,22.443,0,0,0-2.584.5,18.841,18.841,0,0,0-3.3,1.177,16.687,16.687,0,0,0-1.838,1,15.88,15.88,0,0,0-2.269,1.734,15.875,15.875,0,0,0-2.217,2.522,15.754,15.754,0,0,0-2.682,6.216h0a6.735,6.735,0,0,1,.972-.74c.106-.068.221-.14.344-.212a10.311,10.311,0,0,1,1.867-.859,10.922,10.922,0,0,1,3.375-.589c.229,0,.452,0,.673.013.08,0,.158.009.237.015.135.01.268.022.4.037.094.01.188.019.28.032a11.022,11.022,0,0,1,5.386,2.3,7.492,7.492,0,0,1,5.441-2.389v12.9h2.232v-12.9a7.5,7.5,0,0,1,5.458,2.39,11,11,0,0,1,6.976-2.4,10.1,10.1,0,0,1,6.557,2.4S-3526.611-3775.294-3543.794-3775.029Z" transform="translate(-1.198 -2.397)"/><g transform="translate(-3568.207 -3760.058)"><circle class="d" cx="6.744" cy="6.744" r="6.744" transform="translate(5.395)"/><circle class="d" cx="5.912" cy="5.912" r="5.912" transform="translate(28.852 11.301)"/><path class="d" d="M-3528.278-3709.285h-5.165l.014.209h-.36l.014-.209h-4.971l-8.887-8.118a4.027,4.027,0,0,0-2.714-1.331v-.016H-3564.3v.008a4.042,4.042,0,0,0-3.895,3.806h-.012v17.673h5.338l-1.431,18.7h5.3l1.346-17.58h3.261l1.346,17.58h5.3l-1.488-19.44h-.093v-12.177l8.959,7.321-1.542,24.086h6.178l.915-14.3h2.409l.916,14.3h6.177l-1.532-23.936" transform="translate(3568.207 3737.446)"/><rect class="d" width="2.79" height="13.301" transform="translate(3.907 26.881)"/></g><g transform="translate(-3568.207 -3762.628)"><circle class="e" cx="6.744" cy="6.744" r="6.744" transform="translate(5.395)"/><circle class="e" cx="5.912" cy="5.912" r="5.912" transform="translate(28.852 11.301)"/><path class="e" d="M-3528.278-3713.295h-10.469l-8.887-8.118a4.031,4.031,0,0,0-2.714-1.331v-.015H-3564.3v.007a4.043,4.043,0,0,0-3.895,3.807h-.012v17.673h5.338l-1.431,18.7h5.3l1.346-17.58h3.261l1.346,17.58h5.3l-1.488-19.439h-.093v-12.177l8.959,7.322-1.542,24.086h6.178l.915-14.3h2.409l.916,14.3h6.177l-1.532-23.936,2.74,10.582h3.9l-4.385-14.319A4.01,4.01,0,0,0-3528.278-3713.295Z" transform="translate(3568.207 3741.455)"/><rect class="d" width="2.79" height="13.301" transform="translate(3.907 26.881)"/></g><g transform="translate(-3566.07 -3779.999)"><rect class="f" width="2.232" height="13.208" transform="translate(18.975 10.706)"/><rect class="g" width="2.232" height="2.232" transform="translate(18.975 10.706)"/><path class="h" d="M-3544.772-3768.007s4.194-.465,6.566,2.372a11.006,11.006,0,0,1,6.976-2.4,10.1,10.1,0,0,1,6.557,2.4s-1.953-13.812-19.393-13.394h-1.412c-17.44-.418-19.394,13.394-19.394,13.394a10.1,10.1,0,0,1,6.558-2.4,11.007,11.007,0,0,1,6.976,2.4c2.372-2.836,6.565-2.372,6.565-2.372" transform="translate(3564.872 3779.038)"/><path class="i" d="M-3543.794-3779.029c-.092,0-.179,0-.272,0h-1.412c-17.44-.418-19.394,13.394-19.394,13.394a10.1,10.1,0,0,1,6.558-2.4,10.447,10.447,0,0,1,2.093.177A22.1,22.1,0,0,1-3543.794-3779.029Z" transform="translate(3564.872 3779.038)"/></g><path class="c" d="M-3543.794-3779.029h0c-.093,0-.18,0-.273,0h-1.412a28.266,28.266,0,0,0-4.508.234,22.443,22.443,0,0,0-2.584.5,18.881,18.881,0,0,0-3.3,1.177,16.687,16.687,0,0,0-1.838,1,15.847,15.847,0,0,0-2.269,1.735,15.851,15.851,0,0,0-2.217,2.521,15.754,15.754,0,0,0-2.682,6.216h0a6.779,6.779,0,0,1,.972-.74c.106-.068.221-.14.344-.212a10.378,10.378,0,0,1,1.867-.859,10.922,10.922,0,0,1,3.375-.589c.229,0,.452,0,.673.013.08,0,.158.009.237.015.135.01.268.022.4.037.094.01.188.019.28.032a11.019,11.019,0,0,1,5.386,2.3,7.494,7.494,0,0,1,5.441-2.389v12.9h2.232v-12.9a7.5,7.5,0,0,1,5.458,2.39,11,11,0,0,1,6.976-2.4,10.1,10.1,0,0,1,6.557,2.4S-3526.611-3779.294-3543.794-3779.029Z" transform="translate(-1.198 -0.96)"/><g transform="translate(-3566.07 -3781.712)"><rect class="f" width="2.232" height="13.208" transform="translate(18.975 10.706)"/><rect class="g" width="2.232" height="2.232" transform="translate(18.975 10.706)"/><path class="h" d="M-3544.772-3770.68s4.194-.465,6.566,2.372a11.007,11.007,0,0,1,6.976-2.4,10.1,10.1,0,0,1,6.557,2.4s-1.953-13.812-19.393-13.394h-1.412c-17.44-.418-19.394,13.394-19.394,13.394a10.105,10.105,0,0,1,6.558-2.4,11.009,11.009,0,0,1,6.976,2.4c2.372-2.837,6.565-2.372,6.565-2.372" transform="translate(3564.872 3781.711)"/><path class="i" d="M-3543.794-3781.7c-.092,0-.179,0-.272,0h-1.412c-17.44-.418-19.394,13.394-19.394,13.394a10.105,10.105,0,0,1,6.558-2.4,10.483,10.483,0,0,1,2.093.177A22.1,22.1,0,0,1-3543.794-3781.7Z" transform="translate(3564.872 3781.711)"/></g></g><rect class="j" width="120" height="120"/></svg>