<svg xmlns="http://www.w3.org/2000/svg" width="120" height="120" viewBox="0 0 120 120"><defs><style>.a{fill:#1d1e1c;opacity:0.4;}.b{fill:#ffb94a;}.c{fill:#ffc76d;}.d{fill:#cd953b;}.e{fill:#fff;}.f{fill:#6cd5ff;}.g{fill:#93c021;}.h{fill:#fdea18;}.i{fill:#f45145;}.j{fill:#c77b0e;}.k{fill:#f79911;}.l{fill:none;}</style></defs><g transform="translate(-3102.283 -223.172)"><path class="a" d="M3168.779,258.255c-14.3-14.3-29.664-22.116-34.323-17.46a4.179,4.179,0,0,0-.852,1.278c-1.648,2.66-6.4,11.676-15.882,39.046-12.2,35.222-3.224,34.07-3.224,34.07s10.819,4.374,64.686-18.646a55.707,55.707,0,0,0,5.523-2.992l.017-.02a4.2,4.2,0,0,0,1.507-.952C3190.89,287.921,3183.076,272.553,3168.779,258.255Z" transform="translate(9.033 16.277)"/><path class="b" d="M3129.6,239.184s-4.564,5.044-17.3,41.8-3.361,35.554-3.361,35.554,11.29,4.564,67.5-19.458a58.69,58.69,0,0,0,5.766-3.124C3185.332,292.032,3129.6,239.184,3129.6,239.184Z" transform="translate(3.336 16.012)"/><path class="c" d="M3140.771,249.894c-6.528-6.306-11.173-10.71-11.173-10.71s-4.564,5.044-17.3,41.8c-8.112,23.42-7.25,31.42-5.558,34.148l.034-.036s12.49-36.274,27.624-55.49A61.956,61.956,0,0,0,3140.771,249.894Z" transform="translate(3.336 16.012)"/><path class="d" d="M3106.182,293.778h0a2.45,2.45,0,0,0,2.2,1.406s11.289,4.564,67.5-19.458a58.706,58.706,0,0,0,5.766-3.124c.907-.558-3.173-5.436-9.41-12.066a45.121,45.121,0,0,0-9.328,6.062C3150.9,277.166,3106.182,293.778,3106.182,293.778Z" transform="translate(3.899 37.364)"/><path class="b" d="M3146.494,270.946a3.319,3.319,0,0,1-2.908-1.716c-.481-.876-4.66-8.728-2.686-14.464a7.974,7.974,0,0,1,4.526-4.84c5.207-2.224,9.522,1.576,12.381,4.09a19.831,19.831,0,0,0,2.853,2.242l.046-.058c.706-.892.706-1.348-.912-4.15-1.542-2.674-4.124-7.152-.278-11.958,4-5,9.376-2.136,12.262-.6,4.032,2.148,4.264,1.81,5.132.552a2.725,2.725,0,0,0,.55-2.444c-.736-2.718-5.294-5.622-7.388-6.6a3.318,3.318,0,0,1,2.8-6.016c.94.436,9.232,4.45,10.986,10.864a9.352,9.352,0,0,1-1.482,7.958c-4.458,6.486-10.482,3.272-13.72,1.546-3.4-1.812-3.6-1.564-3.96-1.112-.836,1.046-.856,1.548.847,4.5,1.5,2.606,4.02,6.97.366,11.584a6.47,6.47,0,0,1-4.537,2.646c-3.133.286-5.58-1.878-7.952-3.968s-4.126-3.51-5.382-2.972a1.357,1.357,0,0,0-.864.894c-.736,2.132.858,6.61,2.226,9.112a3.32,3.32,0,0,1-2.908,4.914Z" transform="translate(38.091 1.5)"/><circle class="b" cx="5.165" cy="5.165" r="5.165" transform="translate(3130.053 224.447)"/><circle class="e" cx="5.165" cy="5.165" r="5.165" transform="translate(3190.589 227.09)"/><circle class="f" cx="5.165" cy="5.165" r="5.165" transform="translate(3209.807 262.643)"/><circle class="g" cx="5.525" cy="5.525" r="5.525" transform="translate(3157.919 232.375)"/><circle class="h" cx="5.525" cy="5.525" r="5.525" transform="translate(3195.754 292.911)"/><path class="i" d="M3120.747,262.056a3.318,3.318,0,0,1-1.929-6.018,23.271,23.271,0,0,0,3.46-4.266,8.149,8.149,0,0,0-2.184.412c-3.965,1.21-11.21,2.152-13.218-2.006-.534-1.108-1.316-4,2.979-6.962,2.615-1.806,3.584-3.514,3.76-4.224a12.556,12.556,0,0,0-2.88-.56c-2.786-.338-7.976-.966-8.43-6.634a6,6,0,0,1,1.531-4.518c3.055-3.49,10.126-4.032,11.511-4.1a3.318,3.318,0,0,1,.35,6.626c-2.588.144-5.6.9-6.614,1.618a15.593,15.593,0,0,0,2.452.424,16.045,16.045,0,0,1,5.046,1.2,6.209,6.209,0,0,1,3.68,5.18c.212,2.616-1.132,5.47-3.689,8.024.5-.1,1.036-.24,1.584-.406,5.478-1.676,8.274-.07,9.662,1.57a6.188,6.188,0,0,1,.761,6.69,26.7,26.7,0,0,1-5.9,7.342A3.31,3.31,0,0,1,3120.747,262.056Z" transform="translate(0 0)"/><path class="h" d="M3151.935,293.678c-.28,0-.566-.014-.856-.04a11.316,11.316,0,0,1-8.492-5.194,3.317,3.317,0,1,1,5.607-3.546,4.782,4.782,0,0,0,3.484,2.132,1.82,1.82,0,0,0,.268.01,7.046,7.046,0,0,0-.482-1.274c-.786-1.686-2.25-4.82-.574-7.862a6.7,6.7,0,0,1,6.584-3.244,11.589,11.589,0,0,1,5.058,1.936c.2.124.456.284.7.426a3.086,3.086,0,0,0-.028-.482c-.046-.358-.116-.722-.182-1.086a10.217,10.217,0,0,1,.142-5.774c1.417-3.712,5.975-5.63,9.955-4.184a10.717,10.717,0,0,1,6.3,7.18,24.907,24.907,0,0,1,.7,7.782,3.317,3.317,0,0,1-3.316,3.248h-.069a3.315,3.315,0,0,1-3.248-3.386,19.643,19.643,0,0,0-.422-5.748,4.2,4.2,0,0,0-2.206-2.84,1.451,1.451,0,0,0-1.488.318,5.883,5.883,0,0,0,.184,2.2c.086.47.172.942.234,1.408.514,3.848-1.236,7.172-4.258,8.086-2.744.826-5.088-.634-6.49-1.506a5.9,5.9,0,0,0-2.17-.968l-.062,0a10.722,10.722,0,0,0,.67,1.69c1.574,3.362,1.558,6.136-.046,8.244A6.71,6.71,0,0,1,3151.935,293.678Z" transform="translate(39.788 41.841)"/><ellipse class="j" cx="12.447" cy="38.208" rx="12.447" ry="38.208" transform="matrix(0.707, -0.707, 0.707, 0.707, 3124.301, 263.715)"/><path class="k" d="M3133.984,242.855c-4.45-1.748-7.926-1.928-9.708-.144-4.578,4.576,3.73,20.306,18.555,35.134a104.769,104.769,0,0,0,16.982,13.952c2.912.582,5.2.256,6.587-1.128,4.86-4.86-3.294-20.9-18.214-35.82A105.2,105.2,0,0,0,3133.984,242.855Z" transform="translate(20.735 18.283)"/><path class="g" d="M3186.454,251.223c-33.043-3.67-57.55,8.706-58.575,9.236a4.331,4.331,0,0,0-1.666,1.628,56.6,56.6,0,0,0,4.5,4.348c.068-.03.138-.042.2-.074.234-.12,23.842-11.982,54.81-8.544a3.317,3.317,0,1,0,.731-6.594Z" transform="translate(23.929 27.371)"/><path class="h" d="M3157.723,227.166a3.318,3.318,0,1,0-6.478,1.44c.779,3.5-.527,16.28-5.8,28.206-5.179,11.706-20.206,25.67-20.358,25.808a5.545,5.545,0,0,0-.9,1.118c1.358,1.46,2.78,3.01,4.2,4.534a5.645,5.645,0,0,0,1.2-.776c.658-.606,16.186-15.028,21.924-28C3157.331,246.344,3158.857,232.27,3157.723,227.166Z" transform="translate(21.902 1.396)"/><path class="i" d="M3123.54,236.918c5.2,2.334,8.23,5.562,9.258,9.868,2.506,10.5-7.349,24.146-9.39,26.826,1.152,1.242,2.49,3.156,4.254,5.05.079-.08.46-.308.533-.4.6-.734,14.586-18.172,11.06-33-1.512-6.362-5.884-11.206-13-14.4a3.318,3.318,0,0,0-2.716,6.054Z" transform="translate(19.298 7.402)"/></g><rect class="l" width="120" height="120"/></svg>