<svg xmlns="http://www.w3.org/2000/svg" width="119.878" height="120" viewBox="0 0 119.878 120"><defs><style>.a{fill:none;}.b{fill:rgba(0,0,0,0.3);}.c{fill:#afafaf;}.d{fill:#fff;}</style></defs><rect class="a" width="119.878" height="120"/><g transform="translate(20.853 30.516)"><path class="b" d="M38.932,4.6a3.946,3.946,0,0,0-2.449,1.1L18.119,24.066H3.673a3.785,3.785,0,0,0-.979.245A2.976,2.976,0,0,0,0,27.494v21.18A4.042,4.042,0,0,0,3.673,52.1H18.119L36.483,70.466a4.927,4.927,0,0,0,2.449,1.1A4.042,4.042,0,0,0,42.36,67.9V8.273a3.785,3.785,0,0,0-.245-.979A2.841,2.841,0,0,0,38.932,4.6Z" transform="translate(0 -4.6)"/><path class="b" d="M49.55,11.5a3.55,3.55,0,0,0,0,7.1c6.244,0,11.386,7.835,11.386,17.017S55.794,52.636,49.55,52.636a3.55,3.55,0,0,0,0,7.1c10.161,0,18.487-10.9,18.487-24.118S59.712,11.5,49.55,11.5Z" transform="translate(10.317 -3.052)"/><path class="b" d="M53.859,33.308A11.5,11.5,0,0,0,42.35,21.8a3.55,3.55,0,0,0,0,7.1,4.407,4.407,0,0,1,0,8.815,3.55,3.55,0,0,0,0,7.1A11.654,11.654,0,0,0,53.859,33.308Z" transform="translate(8.702 -0.742)"/></g><g transform="translate(20.853 26.516)"><path class="c" d="M38.932,4.6a3.946,3.946,0,0,0-2.449,1.1L18.119,24.066H3.673a3.785,3.785,0,0,0-.979.245A2.976,2.976,0,0,0,0,27.494v21.18A4.042,4.042,0,0,0,3.673,52.1H18.119L36.483,70.466a4.927,4.927,0,0,0,2.449,1.1A4.042,4.042,0,0,0,42.36,67.9V8.273a3.785,3.785,0,0,0-.245-.979A2.841,2.841,0,0,0,38.932,4.6Z" transform="translate(0 -4.6)"/><path class="c" d="M49.55,11.5a3.55,3.55,0,0,0,0,7.1c6.244,0,11.386,7.835,11.386,17.017S55.794,52.636,49.55,52.636a3.55,3.55,0,0,0,0,7.1c10.161,0,18.487-10.9,18.487-24.118S59.712,11.5,49.55,11.5Z" transform="translate(10.317 -3.052)"/><path class="c" d="M53.859,33.308A11.5,11.5,0,0,0,42.35,21.8a3.55,3.55,0,0,0,0,7.1,4.407,4.407,0,0,1,0,8.815,3.55,3.55,0,0,0,0,7.1A11.654,11.654,0,0,0,53.859,33.308Z" transform="translate(8.702 -0.742)"/></g><g transform="translate(20.853 22.516)"><path class="d" d="M38.932,4.6a3.946,3.946,0,0,0-2.449,1.1L18.119,24.066H3.673a3.785,3.785,0,0,0-.979.245A2.976,2.976,0,0,0,0,27.494v21.18A4.042,4.042,0,0,0,3.673,52.1H18.119L36.483,70.466a4.927,4.927,0,0,0,2.449,1.1A4.042,4.042,0,0,0,42.36,67.9V8.273a3.785,3.785,0,0,0-.245-.979A2.841,2.841,0,0,0,38.932,4.6Z" transform="translate(0 -4.6)"/><path class="d" d="M49.55,11.5a3.55,3.55,0,0,0,0,7.1c6.244,0,11.386,7.835,11.386,17.017S55.794,52.636,49.55,52.636a3.55,3.55,0,0,0,0,7.1c10.161,0,18.487-10.9,18.487-24.118S59.712,11.5,49.55,11.5Z" transform="translate(10.317 -3.052)"/><path class="d" d="M53.859,33.308A11.5,11.5,0,0,0,42.35,21.8a3.55,3.55,0,0,0,0,7.1,4.407,4.407,0,0,1,0,8.815,3.55,3.55,0,0,0,0,7.1A11.654,11.654,0,0,0,53.859,33.308Z" transform="translate(8.702 -0.742)"/></g></svg>