<svg xmlns="http://www.w3.org/2000/svg" width="120" height="120" viewBox="0 0 120 120"><defs><style>.a{fill:none;}.b{fill:rgba(0,0,0,0.3);}.c{fill:#00aaa5;}.d{fill:aqua;}.e{fill:#c6c6c6;}.f{fill:#fff;}</style></defs><rect class="a" width="120" height="120"/><g transform="translate(579.428 -529.244)"><path class="b" d="M-476.7,567.154l-28.508-4.734-14.078-28.83L-533.61,562.3l-28.545,4.493v6.161l9.525,7.3,22.934-3.234,10.337-20.728,10.165,20.813,22.911,3.431,9.583-7.224Z" transform="translate(0 7)"/><path class="b" d="M-489.589,624.688l-.2-.136.3.182-7.036-40.443-6.417,6.185v6.161l2.936,16.751-19.573-14.182-19.8,14.749,3.271-17.454v-6.161l-6.351-6.249-7.387,40.393.219-.133-.219.337v5.957l.219-.133-.219.337h7.037l23-15.4h.176l23.007,15.4h7.043l-.2-.136.3.182Z" transform="translate(0 7)"/><path class="c" d="M-476.7,567.154l-28.508-4.734-14.078-28.83L-533.61,562.3l-28.545,4.493v6.161l9.525,7.3,22.934-3.234,10.337-20.728,10.165,20.813,22.911,3.431,9.583-7.224Z"/><path class="d" d="M-486.284,574.378l9.583-7.224-28.508-4.734-14.078-28.83L-533.61,562.3l-28.545,4.493,9.525,7.3,22.934-3.234,10.337-20.728,10.165,20.813Z"/><path class="e" d="M-489.589,624.688l-.2-.136.3.182-7.036-40.443-6.417,6.185v6.161l2.936,16.751-19.573-14.182-19.8,14.749,3.271-17.454v-6.161l-6.351-6.249-7.387,40.393.219-.133-.219.337v5.957l.219-.133-.219.337h7.037l23-15.4h.176l23.007,15.4h7.043l-.2-.136.3.182Z"/><path class="f" d="M-489.49,624.734l-7.036-40.443-6.417,6.185,4.173,23.808-20.81-15.078-21.146,15.748,4.613-24.615-6.351-6.249-7.387,40.393.219-.133-.219.337h7.037l23-15.4h.176l23.007,15.4h7.043l-.2-.136Z"/></g></svg>