<svg id="Icon_-_Transfer_Ownership" data-name="Icon - Transfer Ownership" xmlns="http://www.w3.org/2000/svg" width="120" height="120" viewBox="0 0 120 120">
  <rect id="frame" width="120" height="120" fill="none"/>
  <g id="icon" transform="translate(-931.852 -98.106)">
    <g id="Group_1601" data-name="Group 1601">
      <g id="Group_1599" data-name="Group 1599" opacity="0.3">
        <path id="Path_1745" data-name="Path 1745" d="M1025.037,167.23h-38.5v-8.993a.755.755,0,0,0-.755-.755.766.766,0,0,0-.393.11l-27.175,16.541a.753.753,0,0,0-.349.771v6.185a.724.724,0,0,0,.1.4.741.741,0,0,0,.252.252l27.175,16.541a.755.755,0,0,0,1.148-.645v-8.992h38.5a.755.755,0,0,0,.754-.754h0v-6.318h0V167.984A.755.755,0,0,0,1025.037,167.23Z"/>
        <path id="Path_1746" data-name="Path 1746" d="M1025.756,141.225a.746.746,0,0,0-.327-.436l-27.176-16.541a.755.755,0,0,0-1.147.645v8.992h-38.5a.754.754,0,0,0-.754.754v19.907a.753.753,0,0,0,.754.754h38.5v8.993a.755.755,0,0,0,1.147.645l27.176-16.541a.762.762,0,0,0,.252-.253.746.746,0,0,0,.076-.6h.034v-6.319Z"/>
      </g>
      <g id="Group_1600" data-name="Group 1600">
        <path id="Path_1747" data-name="Path 1747" d="M1025.037,160.912h-38.5V151.92a.755.755,0,0,0-1.148-.645l-27.175,16.541a.752.752,0,0,0-.349.771v6.185a.723.723,0,0,0,.1.4.753.753,0,0,0,.252.253l27.175,16.541a.756.756,0,0,0,1.148-.645v-8.993h38.5a.754.754,0,0,0,.754-.754h0v-6.317h0v-13.59A.755.755,0,0,0,1025.037,160.912Z" fill="#afafaf"/>
        <path id="Path_1748" data-name="Path 1748" d="M1025.756,134.907a.749.749,0,0,0-.327-.436L998.253,117.93a.755.755,0,0,0-1.147.645v8.993h-38.5a.753.753,0,0,0-.754.754v19.906a.754.754,0,0,0,.754.755h38.5v8.992a.754.754,0,0,0,1.147.645l27.176-16.541a.759.759,0,0,0,.252-.252.746.746,0,0,0,.076-.6h.034v-6.32Z" fill="#afafaf"/>
      </g>
      <path id="Path_1749" data-name="Path 1749" d="M1025.429,135.762,998.253,152.3a.754.754,0,0,1-1.147-.644v-8.993h-38.5a.754.754,0,0,1-.754-.754h0V128.322a.753.753,0,0,1,.754-.754h38.5v-8.993a.755.755,0,0,1,1.147-.645l27.176,16.541a.757.757,0,0,1,0,1.291Zm-.392,25.15h-38.5V151.92a.755.755,0,0,0-1.148-.645l-27.175,16.541a.754.754,0,0,0,0,1.29l27.175,16.541a.755.755,0,0,0,1.148-.645V176.01h38.5a.755.755,0,0,0,.754-.754h0V161.667a.755.755,0,0,0-.754-.755Z" fill="#fff"/>
    </g>
  </g>
</svg>
