<svg xmlns="http://www.w3.org/2000/svg" width="120" height="120" viewBox="0 0 120 120"><defs><style>.a{fill:none;}.b{opacity:0.3;}.c{fill:#56aaff;}.d{fill:#8dccff;}.e{fill:#0577ea;}</style></defs><rect class="a" width="120" height="120"/><g transform="translate(5004.272 1991.779)"><path class="b" d="M-4912.3-1899.029l-10.025-55.047a3.242,3.242,0,0,0-.629-1.4l.009,0-.009,0h0l2.547-.652,5.787-1.481-1.481-5.786h0a5.972,5.972,0,0,0-7.267-4.306l-11.555,2.957a12.756,12.756,0,0,0-15.321-8.523l-12.667,3.242c-.375.1-.738.213-1.1.34-.113.04-.225.082-.336.125-.253.1-.5.2-.744.316-.112.052-.226.1-.336.154-.282.141-.557.293-.826.454-.186.109-.364.227-.543.345q-.136.091-.271.186a12.758,12.758,0,0,0-1.831,1.561h0a12.741,12.741,0,0,0-3.361,11.352l-11.292,2.89a6.1,6.1,0,0,0-.745.249c-.062.025-.123.052-.184.079a5.6,5.6,0,0,0-.61.309c-.024.014-.05.026-.074.041a5.978,5.978,0,0,0-.631.443l-.1.086a5.983,5.983,0,0,0-.518.487c-.014.014-.028.028-.041.042a6.132,6.132,0,0,0-.507.63l0,.007a6.084,6.084,0,0,0-.419.7l0,.009a5.947,5.947,0,0,0-.468,4.185h0l1.481,5.786,7.65-1.957.063.2a3.264,3.264,0,0,0,.153,1.3l17.648,53.1a3.286,3.286,0,0,0,3.934,2.148l.165-.042h0l42.039-10.757a3.26,3.26,0,0,0,1.744-1.143,3.29,3.29,0,0,0,.486-.8A3.275,3.275,0,0,0-4912.3-1899.029Zm-52.633-58.286a4.522,4.522,0,0,1-.123-.81c0-.044-.009-.089-.01-.134a4.4,4.4,0,0,1,.034-.682c.012-.093.023-.186.04-.277a4.255,4.255,0,0,1,.133-.528c.044-.138.094-.275.151-.408.008-.018.018-.036.026-.055a4.65,4.65,0,0,1,.439-.78,4.446,4.446,0,0,1,2.539-1.776l13.888-3.553a4.439,4.439,0,0,1,3.08.338,4.613,4.613,0,0,1,.788.494l.017.012a4.469,4.469,0,0,1,.621.6c.023.027.05.05.072.077a4.423,4.423,0,0,1,.435.654c.029.053.067.1.094.152a4.419,4.419,0,0,1,.343.9l.061.237-22.567,5.774Z"/><path class="c" d="M-4962.809-1958.439a4.441,4.441,0,0,1-1.123-1.979l-1-3.9a4.48,4.48,0,0,1,3.229-5.45l13.888-3.553a4.479,4.479,0,0,1,5.45,3.229l1,3.9a4.422,4.422,0,0,1-.035,2.275l7.735-1.979a12.827,12.827,0,0,0-.386-2.6l-.657-2.567a12.767,12.767,0,0,0-15.532-9.2l-12.667,3.242a12.764,12.764,0,0,0-9.2,15.531l.657,2.567a12.836,12.836,0,0,0,.908,2.464Z"/><path class="d" d="M-4964.238-1967.989a4.481,4.481,0,0,0-2.381,5.139l1,3.9a4.214,4.214,0,0,0,.466,1.115l2.347-.6a4.441,4.441,0,0,1-1.123-1.979l-1-3.9A4.446,4.446,0,0,1-4964.238-1967.989Z"/><path class="d" d="M-4950.24-1980.264l-12.667,3.242a12.681,12.681,0,0,0-5.983,3.481,12.714,12.714,0,0,1,4.294-2.017l12.667-3.241a12.764,12.764,0,0,1,15.531,9.2l.657,2.566a12.666,12.666,0,0,1,.29,1.59l1.786-.457a12.827,12.827,0,0,0-.386-2.6l-.657-2.567A12.767,12.767,0,0,0-4950.24-1980.264Z"/><path class="e" d="M-4944.733-1972.98a4.482,4.482,0,0,1,4.557,3.364l1,3.9a4.25,4.25,0,0,1,.128,1.2l-2.348.6a4.422,4.422,0,0,0,.035-2.275l-1-3.9A4.45,4.45,0,0,0-4944.733-1972.98Z"/><path class="c" d="M-4927.213-1963.456l-47.975,12.276-.844.215a3.287,3.287,0,0,0-2.3,4.222l17.647,53.1a3.288,3.288,0,0,0,3.935,2.148l42.039-10.757a3.289,3.289,0,0,0,2.419-3.774l-10.025-55.047a3.287,3.287,0,0,0-4.049-2.6Z"/><path class="d" d="M-4926.37-1963.672l-.843.216-1.094.28a3.288,3.288,0,0,1,4.049,2.595l10.024,55.048a3.288,3.288,0,0,1-2.419,3.774l1.937-.5a3.288,3.288,0,0,0,2.42-3.774l-10.025-55.047A3.287,3.287,0,0,0-4926.37-1963.672Z"/><path class="d" d="M-4966.348-1951.369l15.257,46.483,3.156-.808-11-47.573Z"/><path class="d" d="M-4946.306-1956.5l15.257,46.483,3.156-.808-11-47.573Z"/><path class="e" d="M-4965.379-1951.617l15.257,46.483,3.156-.808-11-47.573Z"/><path class="e" d="M-4945.337-1956.745l15.257,46.483,3.156-.808-11-47.573Z"/><path class="e" d="M-4977.234-1943.427l54.293-19.048-55.777,14.272Z"/><path class="d" d="M-4976.2-1950.922l.844-.216,1.094-.28a3.286,3.286,0,0,0-2.3,4.221l17.647,53.1a3.288,3.288,0,0,0,3.935,2.147l-1.938.5a3.286,3.286,0,0,1-3.934-2.148l-17.648-53.1A3.287,3.287,0,0,1-4976.2-1950.922Z"/><path class="c" d="M-4923.364-1974.7l-60.179,15.4a5.973,5.973,0,0,0-4.306,7.267h0l1.481,5.786,5.787-1.481,60.178-15.4,5.787-1.481-1.481-5.786h0A5.972,5.972,0,0,0-4923.364-1974.7Z"/><path class="e" d="M-4914.616-1964.606l-71.752,18.36-.5-1.946,72.25-16.413Z"/><path class="d" d="M-4923.364-1974.7l-60.179,15.4a5.968,5.968,0,0,0-4.377,4.647,5.951,5.951,0,0,1,3.792-2.994l60.178-15.4a5.972,5.972,0,0,1,7.267,4.306h0l1.12,4.375.947-.243-1.481-5.786h0A5.972,5.972,0,0,0-4923.364-1974.7Z"/></g></svg>