<svg id="icon-trash-drawing-tool" xmlns="http://www.w3.org/2000/svg" width="120" height="120" viewBox="0 0 120 120">
  <rect id="Frame" width="120" height="120" fill="none"/>
  <g id="Trash" transform="translate(-1098.551 -1822.319)">
    <path id="drop-shadow" d="M1192.61,1917.956l-10.025-55.047a3.246,3.246,0,0,0-.629-1.4h0l2.547-.652,5.787-1.481-1.481-5.786h0a5.972,5.972,0,0,0-7.265-4.306h0l-11.555,2.957a12.758,12.758,0,0,0-15.321-8.523L1142,1846.96c-.375.1-.738.213-1.1.34-.113.04-.225.082-.336.125-.253.1-.5.2-.744.316-.112.052-.226.1-.336.154-.283.141-.557.293-.826.454-.187.109-.364.228-.543.345-.091.061-.182.123-.271.186a12.7,12.7,0,0,0-1.831,1.562h0a12.739,12.739,0,0,0-3.361,11.352l-11.292,2.89a5.868,5.868,0,0,0-.745.249c-.062.025-.123.052-.185.079a5.359,5.359,0,0,0-.609.309c-.024.014-.05.026-.075.041a5.685,5.685,0,0,0-.63.443l-.1.086a5.951,5.951,0,0,0-.518.487l-.041.042a6.012,6.012,0,0,0-.506.63v.007a5.9,5.9,0,0,0-.419.7v.009a5.941,5.941,0,0,0-.468,4.185h0l1.481,5.786,7.65-1.957.063.2a3.259,3.259,0,0,0,.152,1.3l17.648,53.1a3.287,3.287,0,0,0,3.935,2.148l.165-.042h0l42.039-10.757a3.266,3.266,0,0,0,1.744-1.143,3.328,3.328,0,0,0,.486-.8A3.289,3.289,0,0,0,1192.61,1917.956Zm-52.633-58.286a4.411,4.411,0,0,1-.123-.81c0-.044-.009-.089-.01-.134a4.437,4.437,0,0,1,.034-.682c.012-.093.023-.186.04-.277a4.213,4.213,0,0,1,.133-.528c.044-.138.094-.275.151-.408.008-.018.018-.036.026-.055a4.708,4.708,0,0,1,.439-.78,4.45,4.45,0,0,1,2.539-1.776l13.888-3.553a4.438,4.438,0,0,1,3.08.338,4.644,4.644,0,0,1,.788.494l.017.012a4.524,4.524,0,0,1,.621.6c.023.027.05.05.072.077a4.443,4.443,0,0,1,.435.654c.029.053.067.1.094.152a4.413,4.413,0,0,1,.343.9l.061.237-22.567,5.775Z" opacity="0.3" style="mix-blend-mode: normal;isolation: isolate"/>
    <path id="colour" d="M1142.1,1858.546a4.443,4.443,0,0,1-1.123-1.979l-1-3.9a4.48,4.48,0,0,1,3.229-5.449l13.889-3.553a4.479,4.479,0,0,1,5.45,3.228h0l1,3.9a4.421,4.421,0,0,1-.035,2.275l7.734-1.979a12.836,12.836,0,0,0-.386-2.6l-.657-2.567a12.767,12.767,0,0,0-15.532-9.2L1142,1839.965a12.764,12.764,0,0,0-9.2,15.53h0l.657,2.567a12.871,12.871,0,0,0,.908,2.464Z" fill="#fff"/>
    <g id="highlight">
      <path id="Path_1384" data-name="Path 1384" d="M1140.672,1849a4.481,4.481,0,0,0-2.381,5.139l1,3.9a4.208,4.208,0,0,0,.466,1.114l2.347-.6a4.444,4.444,0,0,1-1.123-1.979l-1-3.9A4.442,4.442,0,0,1,1140.672,1849Z" fill="#fff"/>
      <path id="Path_1385" data-name="Path 1385" d="M1154.669,1836.721,1142,1839.963a12.689,12.689,0,0,0-5.983,3.481,12.73,12.73,0,0,1,4.294-2.017l12.667-3.241a12.765,12.765,0,0,1,15.531,9.2h0l.657,2.566a12.48,12.48,0,0,1,.29,1.59l1.786-.457a12.857,12.857,0,0,0-.386-2.6l-.657-2.567A12.768,12.768,0,0,0,1154.669,1836.721Z" fill="#fff" opacity="0.5"/>
    </g>
    <path id="colour-2" data-name="colour" d="M1177.7,1853.529l-47.976,12.276-.844.215a3.288,3.288,0,0,0-2.365,4c.02.074.042.147.065.219l17.647,53.1a3.288,3.288,0,0,0,3.935,2.148l42.04-10.757a3.288,3.288,0,0,0,2.418-3.774l-10.024-55.047a3.288,3.288,0,0,0-3.82-2.65c-.077.014-.153.031-.229.05Z" fill="#fff"/>
    <path id="highlight-2" data-name="highlight" d="M1178.539,1853.313l-.842.216-1.095.28a3.288,3.288,0,0,1,4,2.372c.019.074.035.148.049.223l10.024,55.048a3.288,3.288,0,0,1-2.419,3.774l1.937-.5a3.286,3.286,0,0,0,2.42-3.774l-10.025-55.047a3.287,3.287,0,0,0-3.826-2.64C1178.688,1853.278,1178.613,1853.3,1178.539,1853.313Z" fill="#fff" opacity="0.5"/>
    <path id="highlight-3" data-name="highlight" d="M1138.561,1865.616l15.257,46.483,3.156-.808-11-47.573Z" fill="#fff" opacity="0.5"/>
    <path id="highlight-4" data-name="highlight" d="M1158.6,1860.485l15.257,46.483,3.156-.807-11-47.573Z" fill="#fff" opacity="0.5"/>
    <path id="shadow" d="M1139.531,1865.369l15.256,46.483,3.156-.808-11-47.573Z" opacity="0.5"/>
    <path id="shadow-2" data-name="shadow" d="M1159.573,1860.24l15.256,46.483,3.156-.807-11-47.573Z" opacity="0.5"/>
    <path id="shadow-3" data-name="shadow" d="M1127.676,1873.558l54.293-19.048-55.777,14.272Z" opacity="0.5"/>
    <path id="shadow-4" data-name="shadow" d="M1128.709,1866.063l.845-.215,1.094-.281a3.286,3.286,0,0,0-2.365,4c.019.074.041.148.065.22l17.647,53.1a3.287,3.287,0,0,0,3.935,2.147l-1.938.5a3.285,3.285,0,0,1-3.934-2.148l-17.648-53.1a3.286,3.286,0,0,1,2.077-4.158C1128.56,1866.1,1128.635,1866.083,1128.709,1866.063Z" fill="#fff" opacity="0.5"/>
    <path id="colour-3" data-name="colour" d="M1181.546,1842.286l-60.18,15.4a5.973,5.973,0,0,0-4.306,7.266h0l1.481,5.787,5.787-1.481,60.179-15.4,5.787-1.481-1.481-5.786h0a5.973,5.973,0,0,0-7.266-4.306Z" fill="#fff"/>
    <path id="shadow-5" data-name="shadow" d="M1190.293,1852.38l-71.752,18.359-.5-1.946,72.25-16.413Z" opacity="0.5"/>
    <path id="highlight-5" data-name="highlight" d="M1181.546,1842.286l-60.18,15.4a5.967,5.967,0,0,0-4.376,4.647,5.947,5.947,0,0,1,3.792-2.995l60.178-15.4a5.971,5.971,0,0,1,7.266,4.305h0l1.12,4.375.947-.243-1.481-5.786h0a5.973,5.973,0,0,0-7.266-4.3Z" fill="#fff" opacity="0.5"/>
  </g>
</svg>
