<svg xmlns="http://www.w3.org/2000/svg" width="120" height="120" viewBox="0 0 120 120"><defs><style>.a{fill:#231f20;opacity:0.3;}.a,.g{mix-blend-mode:multiply;}.a,.g,.h{isolation:isolate;}.b,.g{fill:#063;}.c{fill:#95c11f;}.d{fill:#c6c6c6;}.e{fill:#dedc00;}.f{fill:#008d36;}.g{opacity:0.46;}.h{fill:#fff;opacity:0.5;mix-blend-mode:overlay;}.i{fill:#3aaa35;}.j{fill:#ededed;}.k{fill:#024220;}.l{fill:#2d2e83;}.m{fill:none;}</style></defs><g transform="translate(-61.156 -761.926)"><path class="a" d="M158.361,775.2c-7.037-3.381-11.156.427-11.156.427s-24.666,21.282-29.686,25.429-3.492,4.911-3.492,4.911a20.814,20.814,0,0,0,7.689-3.089c.172-.12.336-.241.494-.363a11.663,11.663,0,0,0,1.227-1.089l.008-.007a9.907,9.907,0,0,0,.717-.824,6.832,6.832,0,0,0,1.542-3.359s6.435-5.362,12.692-10.559l1.725-1.433.32-.265c4.6-3.821,8.7-7.208,9.492-7.825a1.832,1.832,0,0,1,.31-.191,1.308,1.308,0,0,1,.121-.056,1.362,1.362,0,0,1,.153-.049,1.447,1.447,0,0,1,.351-.054c1.3-.012,2.319,1.91,2.594,2.483-3,2.121-6.769,4.973-11.989,9.41-2.236,1.9-4.736,4.091-7.56,6.644l-.178.161c-4.723,4.275-10.335,9.549-17.089,16.14C98.952,828.909,85.008,848.163,77.43,859.5c-1.261,1.886-2.345,3.553-3.241,4.955h0l-.036.056-.3.467-.052.082c-.1.16-.2.315-.3.467l-.04.063-.294.466-.013.021q-.248.393-.465.744a60.351,60.351,0,0,0,9.2,9.278c6.4,4.529,4.815-3.075,5.989-3.85l.506-.336q.849-.564,1.763-1.179,1.3-.875,2.714-1.85c2.072-1.427,4.324-3.012,6.715-4.746q.921-.668,1.866-1.362,1.1-.807,2.227-1.653t2.288-1.727q1.158-.882,2.342-1.8c3.619-2.807,7.4-5.867,11.255-9.149,5.808-4.951,11.758-10.41,17.49-16.283,4.2-4.306,7.866-8.144,11.083-11.587.894-.957,1.745-1.875,2.571-2.772,13.251-14.386,17.958-21.2,21.252-26.152A60.265,60.265,0,0,0,158.361,775.2Z"/><path class="b" d="M149.46,773.01s-1.637-3.82-3.6-2.292S121.63,790.8,121.63,790.8s-.437,6.33-11.678,8.731c0,0-1.528-.764,3.492-4.911s29.686-25.43,29.686-25.43,4.366-4.038,11.787-.109S149.46,773.01,149.46,773.01Z"/><path class="c" d="M169.1,783.379c-4.315,6.472-9.6,15.17-36.125,42.345s-57.734,45.511-57.734,45.511a11,11,0,0,1-5.676-2.728,7.805,7.805,0,0,1-2.51-5.566s18.336-31.214,45.511-57.735,35.907-31.759,42.346-36.125c0,0,4.038-.764,9.932,4.8S169.542,782.724,169.1,783.379Z"/><path class="d" d="M67.824,865.851l-3.019,5.93s-.328.873.145,1.31a1.563,1.563,0,0,0,1.637.036c.328-.182,5.821-3.019,5.821-3.019Z"/><path class="e" d="M80.607,867.9a.391.391,0,0,0-.232-.049c-.8.073-3.056-.218-6.8-3.71-3.561-3.32-3.475-5.879-3.458-6.125-1.99,3.113-3.054,4.924-3.054,4.924a7.8,7.8,0,0,0,2.511,5.566,11,11,0,0,0,5.675,2.728S77.225,870.073,80.607,867.9Z"/><path class="f" d="M164.849,773.883c-5.894-5.566-9.932-4.8-9.932-4.8-6.376,4.323-15.012,9.516-41.568,35.369.1.775.948,5.756,6.862,11.67a38.041,38.041,0,0,0,13.315,8.731l.328-.026c25.752-26.459,30.985-35.047,35.251-41.447C169.542,782.724,170.743,779.449,164.849,773.883Z"/><path class="g" d="M165.251,774.273c-3.5,5.053-17.135,24.406-30.561,39.337-15.57,17.317-62.719,56.461-62.719,56.461l.022.1a10.464,10.464,0,0,0,3.253,1.06s31.213-18.335,57.734-45.511,31.81-35.873,36.125-42.346C169.531,782.739,170.682,779.6,165.251,774.273Z"/><path class="h" d="M155.572,771.482l2.026-2.106a6.526,6.526,0,0,0-2.681-.295c-6.439,4.366-15.17,9.6-42.346,36.125S67.06,862.941,67.06,862.941a6.577,6.577,0,0,0,.145,1.336C101.273,808.626,155.572,771.482,155.572,771.482Z"/><path class="i" d="M169.1,783.379c.437-.655,1.637-3.929-4.256-9.5s-9.932-4.8-9.932-4.8-3.274,2.4,4.257,9.495S169.1,783.379,169.1,783.379Z"/><path class="f" d="M168.008,781.314c.348-.523.927-2.332-3.778-6.776s-7.549-4.638-7.549-4.638-2.614,1.917,3.4,7.58S168.008,781.314,168.008,781.314Z"/><path class="d" d="M165.068,763.429s2.2-.467,6.392,3.5,3.707,5.626,3.4,6.093l-7.741,7.74s-1.307,1.74-6.669-3.311-3.119-6.277-3.119-6.277Z"/><path class="j" d="M174.856,773.018c.311-.467.8-2.13-3.4-6.093s-6.392-3.5-6.392-3.5-2.243,1.226,3.119,6.277S174.856,773.018,174.856,773.018Z"/><path class="k" d="M145.859,770.718a1.517,1.517,0,0,1,.935-.35,2.609,2.609,0,0,0-1.918.132l-12.442,10.259-22.482,18.772c11.241-2.4,11.678-8.731,11.678-8.731S143.894,772.246,145.859,770.718Z"/><path class="l" d="M65.627,870.167l-.822,1.614s-.328.873.145,1.31a1.563,1.563,0,0,0,1.637.036c.1-.056.7-.368,1.477-.771Z"/><path class="g" d="M70.709,868.53l-5.557,4.7a1.737,1.737,0,0,0,1.435-.1c.328-.182,5.821-3.019,5.821-3.019Z"/></g><rect class="m" width="120" height="120"/></svg>