<svg xmlns="http://www.w3.org/2000/svg" width="120" height="120" viewBox="0 0 120 120"><defs><style>.a{fill:none;}.b{fill:#fff;}.c{fill:#231f20;}.d{fill:#3ba6dd;}.e{fill:#ffef00;}</style></defs><rect class="a" width="120" height="120"/><g transform="translate(-5891.91 -547.006)"><path class="b" d="M5929.645,591.511c-13.442,2.033-19.638-.927-19.638-.927s3.114,17.367,3.251,18.273c1.969,13.015,11.622,22.347,22.149,20.755s16.99-13.361,15.02-26.376c-.116-.767-2.3-18.416-2.3-18.416S5943.087,589.479,5929.645,591.511Z"/><path class="c" d="M5939.338,612.277a7.548,7.548,0,0,0,.356-2.495,8.231,8.231,0,1,1-14.675,2.18,7.474,7.474,0,0,0,14.319.315Z"/><path class="c" d="M5925.257,600.421a3.762,3.762,0,0,0,.179-1.252,4.132,4.132,0,1,1-7.367,1.094,3.751,3.751,0,0,0,7.188.158Z"/><path class="c" d="M5943,597.741a3.771,3.771,0,0,0,.179-1.253,4.132,4.132,0,1,1-7.368,1.094,3.752,3.752,0,0,0,7.189.159Z"/><path class="d" d="M5974.159,591.338c-13.391-2.341-18.327-7.115-18.327-7.115s-2.562,17.456-2.72,18.359c-2.266,12.966,3.925,24.881,14.412,26.714s20.354-7.274,22.619-20.241c.134-.765,3.67-18.193,3.67-18.193S5987.551,593.679,5974.159,591.338Z"/><path class="e" d="M5962.365,618.611a7.515,7.515,0,0,0-1.129,2.252,8.231,8.231,0,1,1,14.606,2.593,7.472,7.472,0,0,0-13.477-4.845Z"/><path class="e" d="M5959.945,600.655a3.763,3.763,0,0,0-.568,1.131,4.132,4.132,0,1,1,7.334,1.3,3.752,3.752,0,0,0-6.766-2.432Z"/><path class="e" d="M5977.616,603.746a3.781,3.781,0,0,0-.567,1.13,4.132,4.132,0,1,1,7.334,1.3,3.752,3.752,0,0,0-6.767-2.432Z"/></g></svg>