<svg xmlns="http://www.w3.org/2000/svg" width="120" height="120" viewBox="0 0 120 120"><defs><style>.a{fill:none;}.b{fill:#3ba6dd;}.c{fill:#ffef00;}.d{fill:#fff;stroke:#231f20;stroke-miterlimit:10;stroke-width:5.129px;}.e{stroke:none;}</style></defs><rect class="a" width="120" height="120"/><g transform="translate(-5702.933 -549.117)"><path class="b" d="M5737.351,578.372v60.45a4.647,4.647,0,0,0,4.656,4.658h41.882a4.659,4.659,0,0,0,4.656-4.658v-60.45a4.648,4.648,0,0,0-4.656-4.659h-41.882A4.659,4.659,0,0,0,5737.351,578.372Zm46.538-1.558a1.546,1.546,0,0,1,1.553,1.558v60.45a1.556,1.556,0,0,1-1.553,1.558h-41.882a1.547,1.547,0,0,1-1.553-1.558v-60.45a1.557,1.557,0,0,1,1.553-1.558Z"/><path class="c" d="M5780.911,628.3h-15.322a.783.783,0,1,0,0,1.565h15.322a.783.783,0,1,0,0-1.565Z"/><path class="c" d="M5780.911,631.278h-15.322a.783.783,0,1,0,0,1.565h15.322a.783.783,0,1,0,0-1.565Z"/><path class="c" d="M5744.678,586.7H5760a.783.783,0,0,0,0-1.565h-15.322a.783.783,0,1,0,0,1.565Z"/><path class="c" d="M5744.346,591.958a.782.782,0,0,0,.782.783h35.783a.783.783,0,0,0,0-1.566h-35.783A.782.782,0,0,0,5744.346,591.958Z"/><path class="c" d="M5780.911,595.723h-35.783a.783.783,0,0,0,0,1.565h35.783a.783.783,0,1,0,0-1.565Z"/><path class="c" d="M5780.911,600.269h-35.783a.783.783,0,0,0,0,1.565h35.783a.783.783,0,1,0,0-1.565Z"/><path class="c" d="M5780.911,604.816h-35.783a.783.783,0,0,0,0,1.565h35.783a.783.783,0,1,0,0-1.565Z"/><path class="c" d="M5780.911,609.363h-35.783a.783.783,0,0,0,0,1.565h35.783a.783.783,0,1,0,0-1.565Z"/><path class="c" d="M5780.911,613.909h-35.783a.783.783,0,0,0,0,1.566h35.783a.783.783,0,0,0,0-1.566Z"/><path class="c" d="M5780.911,618.457h-35.783a.782.782,0,0,0,0,1.564h35.783a.782.782,0,1,0,0-1.564Z"/><path class="c" d="M5780.911,623h-35.783a.782.782,0,0,0,0,1.564h35.783a.782.782,0,1,0,0-1.564Z"/><g class="d" transform="matrix(0.033, -0.999, 0.999, 0.033, 5766.932, 650.493)"><circle class="e" cx="16.478" cy="16.478" r="16.478"/><circle class="a" cx="16.478" cy="16.478" r="19.043"/></g><path class="b" d="M5786.332,630.689q-.013.684-.038,1.965-.114,5.34-.114,7.405a3.231,3.231,0,0,0,.336,1.788,1.518,1.518,0,0,0,1.274.444c.034,0,.095-.005.184-.012a1.875,1.875,0,0,1,.209-.013v1.457q-1.876-.1-2.84-.139t-1.687-.038q-.62,0-1.635.048t-2.282.129v-1.457a1.826,1.826,0,0,1,.215.013c.084.007.144.012.177.012a1.54,1.54,0,0,0,1.306-.45,4.873,4.873,0,0,0,.33-2.327v-3.69a4.96,4.96,0,0,0-.3-2.275,1.367,1.367,0,0,0-1.179-.426c-.127,0-.226,0-.3.007s-.146.01-.222.019l-.076-1.369q1.788-.128,3.449-.4A31.393,31.393,0,0,0,5786.332,630.689Z"/><path class="b" d="M5786.485,626.592a2.539,2.539,0,1,1-2.539-2.539A2.539,2.539,0,0,1,5786.485,626.592Z"/></g></svg>