<svg xmlns="http://www.w3.org/2000/svg" width="120" height="120" viewBox="0 0 120 120"><defs><style>.a{fill:none;}.b{fill:#fff;}.c{fill:#3ba6dd;}.d{fill:#ffef00;}</style></defs><rect class="a" width="120" height="120"/><g transform="translate(-5323.877 -550.134)"><path class="b" d="M5354.152,575.03l3.522,5.193,2.738-4.765Z"/><path class="c" d="M5354.151,575.03l1.493,2.2,1.16-2.019Z"/><path class="d" d="M5371.356,581.8l-9.394-5.4-2.733,4.759,8.092,4.649Z"/><path class="d" d="M5418.224,608.729l-8.294-4.765-3.179,4.5,8.74,5.021a2.744,2.744,0,1,0,2.733-4.759Z"/><path class="c" d="M5394.732,608.97l-12.1-5.7,7.921,11.878-1.837,17.187-.926-.022-1.06-17.615-8.667-13.131-7.488-3.674,3.989-4.784,3.812,2.685,6.16-.613.915-4.223-14.227-6.083-9.357,14.387,13.67,20.368-4,25.606h23.012l-.089-24.21,4.564-5.092.855-4.644Z"/><path class="c" d="M5406.148,592.249l-9.011,12.318,4.824,2,7.626-9.719Z"/><path class="c" d="M5399.517,585.305l-10.479,16.5,5.093,1.941,9.947-13.969Z"/><path class="c" d="M5390.809,580.369l-4.568,7.895,2.427,1.039-1.832,8.458-6.2.646,5.667,2.48,10.987-17.5Z"/><path class="c" d="M5387.926,579.45l-6.312-2.225-4.072,7.319,6.074,2.6,1.048-1.792Z"/></g></svg>