<svg xmlns="http://www.w3.org/2000/svg" width="120" height="120" viewBox="0 0 120 120"><defs><style>.a{fill:none;}.b{fill:#fff;}.c{fill:#3ba6dd;}.d{fill:#ffef00;}</style></defs><rect class="a" width="120" height="120"/><g transform="translate(-6080.788 -547.643)"><path class="b" d="M6158.869,575.1h-36.162a6.926,6.926,0,0,0-6.926,6.928v6.048H6165.8v-6.048A6.926,6.926,0,0,0,6158.869,575.1Z"/><path class="c" d="M6123.476,587.356a4.362,4.362,0,0,1,0-8.724h41.432a6.913,6.913,0,0,0-6.038-3.536h-36.162a6.924,6.924,0,0,0-6.927,6.925v49.241a6.926,6.926,0,0,0,6.927,6.928h36.162a6.926,6.926,0,0,0,6.926-6.928V587.356Z"/><path class="d" d="M6141,612.99a9.378,9.378,0,1,0-9.378-9.378A9.375,9.375,0,0,0,6141,612.99Z"/><path class="d" d="M6148.408,613.928l-.3-.05-.247.148a12.389,12.389,0,0,1-13.721,0l-.247-.148-.3.05c-6.614,1.678-10.119,5.923-10.119,12.339v.741h34.4l.642-.05v-.74C6158.527,619.851,6155.023,615.606,6148.408,613.928Z"/></g></svg>