<svg xmlns="http://www.w3.org/2000/svg" width="120" height="120" viewBox="0 0 120 120"><defs><style>.a{fill:none;}.b{fill:#3ba6dd;}.c{fill:#fff;}.d{fill:#ffef00;}</style></defs><rect class="a" width="120" height="120"/><g transform="translate(-5135.001 -550.159)"><path class="b" d="M5207.109,613.472l24.138-19.31v38.62Z"/><path class="b" d="M5182.894,613.472l-24.138-19.31v38.62Z"/><path class="b" d="M5161.615,635.012l33.237-26.59,33.237,26.59Z"/><path class="b" d="M5223.076,590.447v5.7l7.13-5.7Z"/><path class="b" d="M5166.628,590.447H5159.5l7.129,5.7Z"/><path class="c" d="M5169.6,579.306v19.012l15.969,12.774,9.285-7.426,9.285,7.426,15.969-12.774V579.306Zm6.706,4.455h11.141v1.858h-11.141Zm29.689,15.6h-29.71v-2.228h29.71Zm0-4.457h-29.71v-2.228h29.71Zm0-4.456h-29.71v-2.229h29.71Z"/><path class="d" d="M5194.819,615.541l2.063,4.179,4.612.67-3.338,3.253.789,4.593-4.125-2.167-4.125,2.167.789-4.593-3.338-3.253,4.612-.67Z"/></g></svg>