<svg xmlns="http://www.w3.org/2000/svg" width="120" height="120" viewBox="0 0 120 120"><defs><style>.a{fill:none;}.b{fill:#ffef00;}.c{fill:#3ba6dd;}.d{fill:#fff;}</style></defs><rect class="a" width="120" height="120"/><g transform="translate(-4944.12 -549.271)"><path class="b" d="M4987.562,598.418s13.355-5.048,26.049-5.517c13.045-.481,26.022,3.832,26.022,3.832s2.606,1.069,2.171,2.606c-.568,2.009-2.346,1.561-3.4,1.531a109.348,109.348,0,0,0-12.025-.518,55.3,55.3,0,0,0-9.58.978s6.587,4.444,6.9,9.347a4.707,4.707,0,0,1-1.372,3.622,21.863,21.863,0,0,0-5.779-5.582,16.187,16.187,0,0,0-5.194-2.312,1.232,1.232,0,0,0-.434,2.425,14.484,14.484,0,0,1,4.323,1.977,20.441,20.441,0,0,1,5.784,5.953,6.639,6.639,0,0,1-.979,2.8,2.63,2.63,0,0,1-1.27,1.04,18.044,18.044,0,0,0-3.956-4.315,11.778,11.778,0,0,0-4.193-2.211,1.232,1.232,0,0,0-.518,2.409,10.18,10.18,0,0,1,3.238,1.778,15.037,15.037,0,0,1,3.156,3.388,4.324,4.324,0,0,1-1.231,2.509,4.835,4.835,0,0,1-5.671,0l-3.65-2.757a13.715,13.715,0,0,1-5.512,1.608c-6.12-.129-12.9-4.365-12.9-4.365Z"/><rect class="c" width="14.089" height="30.635" transform="translate(4970.387 595.046)"/><path class="d" d="M4977.431,614.44l1.364,2.764,3.05.443-2.208,2.151.521,3.037-2.728-1.433-2.728,1.433.521-3.037-2.207-2.151,3.049-.443Z"/></g></svg>