<svg xmlns="http://www.w3.org/2000/svg" width="120" height="120" viewBox="0 0 120 120"><defs><style>.a{fill:none;}.b{fill:#fff;}.b,.c,.d{fill-rule:evenodd;}.c{fill:#ffef00;}.d{fill:#3ba6dd;}</style></defs><rect class="a" width="120" height="120"/><g transform="translate(-4756.737 -544.957)"><path class="b" d="M4802.216,635.491q-1.429,2.713-2.867,5.421c-.491.926-1.213,1.5-2.238.918-.978-.552-.762-1.429-.316-2.268,1.222-2.3,2.377-4.633,3.706-6.866a1.65,1.65,0,0,1,2.06-.9,1.112,1.112,0,0,1,.844,1.1A7.122,7.122,0,0,1,4802.216,635.491Z"/><path class="b" d="M4802.355,630a1.366,1.366,0,0,1,.082-2.728c.514-.033,1.344.938,1.349,1.426A1.585,1.585,0,0,1,4802.355,630Z"/><path class="c" d="M4840.589,563.123h-.654c-4.086,3.14-8.151,6.308-12.275,9.4a2.526,2.526,0,0,0-1,2.656c.309,2.883.487,5.779.718,8.671l-.286.1-4.773-6.43a67.861,67.861,0,0,0-12.379,15.883,5.748,5.748,0,0,0-.546,2.755c.041,1.873.281,3.742.473,6.02-.971-1.228-1.695-2.144-2.44-3.089a2.34,2.34,0,0,0-.34.471c-2.285,6.538-2.564,13.063.129,19.572.2.489.541,1.146.372,1.526a30.481,30.481,0,0,1-1.339,2.791h3.93a3.667,3.667,0,0,1,.241-.329,4.616,4.616,0,0,1,2.956-1.459,18.594,18.594,0,0,0,8.1-3.42l-4.637-1.645c2.64-.674,4.823-1.372,7.06-1.759a6.872,6.872,0,0,0,4.525-2.817,45.737,45.737,0,0,0,6.247-10.837l-5.474-.474c2.056-1.417,4.148-2.458,6.142-3.661a3.733,3.733,0,0,0,1.567-1.855,106.189,106.189,0,0,0,4.63-29.689A6.892,6.892,0,0,0,4840.589,563.123Z"/><path class="d" d="M4811.6,632.624a3.726,3.726,0,0,1-.241-1.765c0-.706.071-1.409.142-2.111.1-1.009.547-2.91-.771-3.369-.321-.112-.731-.032-.975-.107H4801.2c-2.021.23-2.787,1.126-2.46,3.482.415,3-.739,5.272-2.18,7.61-.941,1.525-1.779,3.114-2.691,4.659a4.337,4.337,0,0,1-.889,1.13,2.931,2.931,0,0,0,.217,4.638h24.185a2.5,2.5,0,0,0,1.307-2.366c.135-1.477-.994-1.975-1.619-2.913C4815.144,638.619,4813.393,635.607,4811.6,632.624Zm-9.386,2.867q-1.429,2.713-2.867,5.421c-.491.926-1.213,1.5-2.238.918-.978-.552-.762-1.429-.316-2.268,1.222-2.3,2.377-4.633,3.706-6.866a1.65,1.65,0,0,1,2.06-.9,1.112,1.112,0,0,1,.844,1.1A7.122,7.122,0,0,1,4802.216,635.491Zm.139-5.488a1.366,1.366,0,0,1,.082-2.728c.514-.033,1.344.938,1.349,1.426A1.585,1.585,0,0,1,4802.355,630Z"/><path class="d" d="M4809.635,619.491s24.618-43.046,27.431-48.251-23.07,43.6-26.587,48.814S4809.635,619.491,4809.635,619.491Z"/></g></svg>