<svg xmlns="http://www.w3.org/2000/svg" width="120" height="120" viewBox="0 0 120 120"><defs><style>.a{fill:none;}.b{fill:#3ba6dd;}.c{fill:#ffef00;}.d{fill:#fff;}</style></defs><rect class="a" width="120" height="120"/><g transform="translate(-4378.686 -549.052)"><path class="b" d="M4413.089,577.827v60.449a4.649,4.649,0,0,0,4.656,4.659h41.882a4.659,4.659,0,0,0,4.656-4.659V577.827a4.649,4.649,0,0,0-4.656-4.659h-41.882A4.658,4.658,0,0,0,4413.089,577.827Zm46.538-1.558a1.545,1.545,0,0,1,1.553,1.558v60.449a1.556,1.556,0,0,1-1.553,1.558h-41.882a1.547,1.547,0,0,1-1.553-1.558V577.827a1.556,1.556,0,0,1,1.553-1.558Z"/><rect class="c" width="35.681" height="3.101" transform="translate(4420.846 630.532)"/><rect class="c" width="18.287" height="3.101" transform="translate(4438.239 605.726)"/><rect class="c" width="35.681" height="3.101" transform="translate(4420.846 624.331)"/><rect class="c" width="18.287" height="3.1" transform="translate(4438.239 599.525)"/><rect class="c" width="35.681" height="3.101" transform="translate(4420.846 618.129)"/><rect class="d" width="13.962" height="15.504" transform="translate(4420.846 593.323)"/><rect class="c" width="18.287" height="3.101" transform="translate(4438.239 593.323)"/><rect class="c" width="35.681" height="3.1" transform="translate(4420.846 611.928)"/><path class="c" d="M4423.447,581.826l4.049,5.09v-3.528a1.678,1.678,0,0,0-.212-1,1.177,1.177,0,0,0-.974-.339v-.223h2.71v.223a2.118,2.118,0,0,0-.7.173.7.7,0,0,0-.278.345,2.346,2.346,0,0,0-.1.821v6.832h-.207l-5.549-6.832V588.6a1.147,1.147,0,0,0,.325.956,1.177,1.177,0,0,0,.74.248h.194v.224h-2.911v-.224a1.314,1.314,0,0,0,.944-.278,1.3,1.3,0,0,0,.266-.926v-5.791l-.175-.218a1.6,1.6,0,0,0-.459-.43,1.414,1.414,0,0,0-.576-.116v-.223Z"/><path class="c" d="M4432.688,582.3v3.34h.164a1.294,1.294,0,0,0,1.131-.49,3,3,0,0,0,.448-1.446h.23V588h-.23a3.23,3.23,0,0,0-.306-1.15,1.315,1.315,0,0,0-.541-.6,2.059,2.059,0,0,0-.9-.155V588.4a3.277,3.277,0,0,0,.058.829.5.5,0,0,0,.214.249,1.019,1.019,0,0,0,.509.1h.49a2.645,2.645,0,0,0,2.838-2.154h.224l-.369,2.608h-7.092v-.224h.272a1.129,1.129,0,0,0,.574-.127.543.543,0,0,0,.242-.291,2.461,2.461,0,0,0,.067-.762v-5.4a4.154,4.154,0,0,0-.031-.683.575.575,0,0,0-.224-.328,1.035,1.035,0,0,0-.628-.17h-.272v-.223h6.868v2.427h-.23a2.972,2.972,0,0,0-.493-1.277,1.838,1.838,0,0,0-.9-.569,4.851,4.851,0,0,0-1.27-.109Z"/><path class="c" d="M4449.864,581.826v.223a.78.78,0,0,0-.388.128.928.928,0,0,0-.278.333q-.038.072-.382.937l-2.572,6.773h-.235l-2.034-5.289-2.239,5.289h-.224l-2.7-6.7a7.153,7.153,0,0,0-.575-1.222.752.752,0,0,0-.551-.249v-.223h3.559v.223a1.018,1.018,0,0,0-.572.131.369.369,0,0,0-.143.294,3.607,3.607,0,0,0,.3.973l1.61,3.983,1.289-3.111-.339-.872a6.434,6.434,0,0,0-.43-.952.913.913,0,0,0-.348-.342,1.265,1.265,0,0,0-.577-.1v-.223h3.976v.223a2.248,2.248,0,0,0-.6.067.4.4,0,0,0-.2.143.381.381,0,0,0-.073.227,4.128,4.128,0,0,0,.272.853l1.5,3.885,1.337-3.516a7.235,7.235,0,0,0,.26-.744,1.572,1.572,0,0,0,.048-.369.48.48,0,0,0-.169-.39,1.1,1.1,0,0,0-.648-.156v-.223Z"/><path class="c" d="M4455.794,581.639l.067,2.735h-.249a2.794,2.794,0,0,0-.861-1.655,2.167,2.167,0,0,0-1.487-.626,1.392,1.392,0,0,0-.976.329,1,1,0,0,0-.361.759.916.916,0,0,0,.128.485,2.063,2.063,0,0,0,.562.563,12.721,12.721,0,0,0,1.313.708,5.84,5.84,0,0,1,1.943,1.337,2.262,2.262,0,0,1,.5,1.44,2.329,2.329,0,0,1-.8,1.771,2.88,2.88,0,0,1-2.035.741,3.249,3.249,0,0,1-.733-.079,5.408,5.408,0,0,1-.866-.3,1.328,1.328,0,0,0-.477-.121.6.6,0,0,0-.334.121.863.863,0,0,0-.284.37h-.223v-3.1h.223a3.552,3.552,0,0,0,1.025,1.994,2.4,2.4,0,0,0,1.638.687,1.537,1.537,0,0,0,1.08-.369,1.135,1.135,0,0,0,.4-.859,1.117,1.117,0,0,0-.155-.563,1.793,1.793,0,0,0-.469-.518,7.143,7.143,0,0,0-1.113-.638,9.614,9.614,0,0,1-1.611-.938,2.885,2.885,0,0,1-.752-.865,2.146,2.146,0,0,1-.264-1.053,2.226,2.226,0,0,1,.721-1.671,2.518,2.518,0,0,1,1.815-.689,3.065,3.065,0,0,1,.774.1,3.905,3.905,0,0,1,.693.269,1.636,1.636,0,0,0,.572.2.323.323,0,0,0,.248-.1,1.1,1.1,0,0,0,.169-.465Z"/></g></svg>