<svg xmlns="http://www.w3.org/2000/svg" width="120" height="120" viewBox="0 0 120 120"><defs><style>.a{fill:none;}.b{fill:rgba(0,0,0,0.3);}.c{fill:#afafaf;}.d{fill:#fff;}</style></defs><g transform="translate(-320 -332)"><rect class="a" width="120" height="120" transform="translate(320 332)"/><g transform="translate(359.586 354.668)"><path class="b" d="M38.7,182.606a4.747,4.747,0,0,0-3.793-1.686c-1.686,0-2.948.317-3.9,1.686l-7.689,7.584a5.987,5.987,0,0,0-1.686,3.9,5.467,5.467,0,0,0,1.686,3.791l16.538,16.75L23.213,231.274a5.4,5.4,0,0,0-1.581,3.9,5.467,5.467,0,0,0,1.686,3.793l7.689,7.689a5.23,5.23,0,0,0,4,1.686,5.459,5.459,0,0,0,3.791-1.686l28.02-28.125a5.1,5.1,0,0,0,1.686-3.793,5.159,5.159,0,0,0-1.686-3.9Z" transform="translate(-21.632 -171.674)"/><path class="c" d="M38.7,182.606a4.747,4.747,0,0,0-3.793-1.686c-1.686,0-2.948.317-3.9,1.686l-7.689,7.584a5.987,5.987,0,0,0-1.686,3.9,5.467,5.467,0,0,0,1.686,3.791l16.538,16.75L23.213,231.274a5.4,5.4,0,0,0-1.581,3.9,5.467,5.467,0,0,0,1.686,3.793l7.689,7.689a5.23,5.23,0,0,0,4,1.686,5.459,5.459,0,0,0,3.791-1.686l28.02-28.125a5.1,5.1,0,0,0,1.686-3.793,5.159,5.159,0,0,0-1.686-3.9Z" transform="translate(-21.632 -175.674)"/><path class="d" d="M38.7,179.606a4.747,4.747,0,0,0-3.793-1.686c-1.686,0-2.948.317-3.9,1.686l-7.689,7.584a5.987,5.987,0,0,0-1.686,3.9,5.467,5.467,0,0,0,1.686,3.791l16.538,16.75L23.213,228.274a5.4,5.4,0,0,0-1.581,3.9,5.467,5.467,0,0,0,1.686,3.793l7.689,7.689a5.23,5.23,0,0,0,4,1.686,5.459,5.459,0,0,0,3.791-1.686l28.02-28.125a5.1,5.1,0,0,0,1.686-3.793,5.159,5.159,0,0,0-1.686-3.9Z" transform="translate(-21.632 -177.92)"/></g></g></svg>