<svg xmlns="http://www.w3.org/2000/svg" width="120" height="120" viewBox="0 0 120 120"><defs><style>.a{fill:none;}.b{opacity:0.3;mix-blend-mode:multiply;isolation:isolate;}.c{fill:#c6c6c6;}.d{fill:#fff;}.e{fill:#006f96;}.f{fill:#009ee2;}</style></defs><rect class="a" width="120" height="120"/><g transform="translate(2139.217 79.291)"><g transform="translate(-2125.717 -62.597)"><g class="b" transform="translate(0 4.713)"><path d="M-2032.932-30.517c-1.92-15.713-16.3-27.4-34.473-29.73.078.007.16.011.242.022l-4.91-.655c-1.023-.134-2.062-.234-3.107-.309l-.412-.033c-1-.063-2.005-.1-3.021-.1-.183,0-.365,0-.55,0-.209,0-.413,0-.625,0-.576.007-1.165.045-1.749.074-.364.015-.725.019-1.09.045-1.111.074-2.231.175-3.358.32-.845.108-1.678.238-2.507.379-.265.048-.525.1-.79.153-.561.1-1.123.219-1.681.342-.126.026-.257.048-.387.078-.145.033-.282.078-.428.112-.714.167-1.421.353-2.117.547-.2.056-.395.108-.591.164-.863.253-1.715.528-2.552.818l-.577.212c-.666.242-1.324.495-1.971.759-.234.1-.47.193-.7.29-.778.331-1.544.673-2.3,1.038l-.082.037-.021.011-.115.06c-.525.257-1.045.525-1.556.8-.167.089-.334.182-.5.272q-.6.335-1.194.681c-.156.089-.312.182-.465.275-.528.316-1.049.64-1.555.971l-.1.067q-.714.469-1.406.967c-.149.1-.3.212-.443.32-.361.264-.714.532-1.063.8l-.417.324c-.465.372-.926.748-1.372,1.131l-.067.06c-.424.368-.836.744-1.246,1.123-.126.123-.253.242-.379.365-.312.3-.618.6-.919.908-.119.123-.241.242-.356.365-.4.417-.792.841-1.172,1.268l-.048.06c-.362.413-.711.83-1.053,1.254-.108.134-.209.268-.317.4-.256.331-.51.666-.758,1-.1.134-.2.268-.294.4-.323.458-.643.919-.944,1.388l-.03.041c-.293.454-.573.915-.841,1.38-.085.141-.164.283-.245.428-.2.353-.394.714-.584,1.075l-.224.432c-.245.491-.483.982-.7,1.481l-.015.037c-.216.487-.417.978-.607,1.473-.055.149-.111.3-.167.45-.138.379-.268.759-.394,1.138-.049.153-.1.3-.146.454-.16.517-.309,1.034-.439,1.559l-.007.026c-.13.513-.241,1.03-.342,1.548-.029.16-.059.316-.085.472-.071.394-.133.785-.189,1.179-.019.16-.045.316-.063.472-.063.536-.119,1.075-.156,1.614v.011c-.034.532-.053,1.071-.056,1.607,0,.164,0,.324,0,.487,0,.4.016.8.034,1.205.007.164.015.324.026.487.034.547.082,1.094.149,1.644,1.436,11.774,9.932,21.386,21.7,26.371a1.1,1.1,0,0,1,.618,1.295l-3.516,10.918a1,1,0,0,0,.934,1.317l4.911.651a.73.73,0,0,1-.131-.03,1.491,1.491,0,0,0,.592.022l19.205-9.743a54.28,54.28,0,0,0,8.742-.428C-2048.266,7.293-2030.551-11.017-2032.932-30.517Zm-63.425,8.984a6.428,6.428,0,0,1-.082.889l-.03.138a6.087,6.087,0,0,1-.2.777c-.016.052-.03.1-.049.153a5.913,5.913,0,0,1-.35.792c-.029.056-.059.112-.092.164a6.069,6.069,0,0,1-.454.707l-.034.048a6.438,6.438,0,0,1-.587.658l-.141.138a6.681,6.681,0,0,1-.681.558l-.092.06a6.11,6.11,0,0,1-.711.42c-.059.03-.115.063-.178.089a4.36,4.36,0,0,1-.443.186c-.07.03-.137.06-.211.086-.16.056-.328.1-.5.145a6.528,6.528,0,0,1-3.195-4.858,6.576,6.576,0,0,1,4.765-7.135,6.516,6.516,0,0,1,3.2,4.84,6.208,6.208,0,0,1,.063.945A1.723,1.723,0,0,1-2096.357-21.533Zm18.641-39.022c.075-.007.146-.007.22-.011l-.4.026C-2077.835-60.544-2077.776-60.551-2077.716-60.555Zm2.634,36.314a7.21,7.21,0,0,1-.108.9c-.007.048-.022.093-.034.141a6.977,6.977,0,0,1-.215.785l-.049.141a6.64,6.64,0,0,1-.364.8c-.03.056-.059.112-.093.167a7.349,7.349,0,0,1-.477.733l-.015.019a6.771,6.771,0,0,1-.591.662l-.138.134a6.358,6.358,0,0,1-.676.554l-.116.078a6.87,6.87,0,0,1-.7.409c-.053.026-.1.056-.153.082-.145.067-.3.126-.447.186-.066.022-.126.052-.19.074-.148.052-.3.089-.449.13a6.509,6.509,0,0,1-3.181-4.851,6.563,6.563,0,0,1,4.757-7.135,6.5,6.5,0,0,1,3.2,4.84,6.364,6.364,0,0,1,.041.952C-2075.079-24.375-2075.083-24.308-2075.083-24.241Zm1.313-36.429h0Zm2.849.1c.078,0,.156,0,.234.007s.172.015.257.019C-2070.592-60.559-2070.756-60.566-2070.92-60.574Zm17.149,33.613a7.126,7.126,0,0,1-.108.9l-.03.145a6.942,6.942,0,0,1-.222.781l-.045.145a6.913,6.913,0,0,1-.364.8c-.03.056-.063.108-.093.164a7.473,7.473,0,0,1-.48.733l-.015.019a6.707,6.707,0,0,1-.591.662l-.142.138a6.552,6.552,0,0,1-.677.554l-.111.074a6.247,6.247,0,0,1-.7.409c-.053.026-.1.056-.156.082-.145.071-.3.13-.447.19-.067.022-.126.052-.193.074-.146.052-.293.089-.446.13a6.534,6.534,0,0,1-3.185-4.855,6.576,6.576,0,0,1,4.762-7.131,6.5,6.5,0,0,1,3.207,4.836,6.894,6.894,0,0,1,.037.952C-2053.768-27.094-2053.768-27.027-2053.771-26.96Z" transform="translate(2125.717 61.33)"/></g><path class="c" d="M-2032.932-31.784c-1.92-15.713-16.3-27.4-34.473-29.73.078.011.16.015.242.022l-4.91-.651c-1.023-.138-2.062-.238-3.107-.312l-.412-.033c-1-.063-2.005-.1-3.021-.1h-.55c-.209,0-.413-.007-.625,0-.576.007-1.165.048-1.749.074-.364.015-.725.022-1.09.045-1.111.074-2.231.175-3.358.32-.845.108-1.678.238-2.507.383-.265.045-.525.1-.79.149-.561.108-1.123.219-1.681.342-.126.03-.257.048-.387.078-.145.033-.282.078-.428.112-.714.171-1.421.353-2.117.551-.2.052-.395.1-.591.16q-1.294.379-2.552.822c-.193.067-.383.141-.577.208-.666.242-1.324.495-1.971.763-.234.093-.47.19-.7.286-.778.331-1.544.673-2.3,1.038l-.082.037-.021.011-.115.06c-.525.26-1.045.528-1.556.8-.167.089-.334.182-.5.275-.4.219-.8.446-1.194.677-.156.093-.312.182-.465.275-.528.316-1.049.64-1.555.975l-.1.063q-.714.474-1.406.967c-.149.1-.3.216-.443.32-.361.264-.714.532-1.063.8-.138.108-.279.212-.417.32-.465.372-.926.748-1.372,1.135l-.067.06c-.424.365-.836.74-1.246,1.123l-.379.361c-.312.3-.618.6-.919.911-.119.119-.241.238-.356.361-.4.417-.792.841-1.172,1.269l-.048.06c-.362.413-.711.833-1.053,1.254-.108.134-.209.268-.317.4-.256.327-.51.662-.758,1-.1.134-.2.268-.294.4-.323.458-.643.919-.944,1.388l-.03.045c-.293.454-.573.911-.841,1.376-.085.141-.164.286-.245.428-.2.357-.394.714-.584,1.075l-.224.432c-.245.491-.483.986-.7,1.484l-.015.033c-.216.487-.417.978-.607,1.473-.055.153-.111.3-.167.454-.138.376-.268.755-.394,1.135q-.073.229-.146.458c-.16.513-.309,1.034-.439,1.555l-.007.03c-.13.51-.241,1.027-.342,1.547-.029.156-.059.312-.085.469q-.106.591-.189,1.183c-.019.156-.045.312-.063.472-.063.536-.119,1.071-.156,1.611v.011q-.051.8-.056,1.607c0,.164,0,.324,0,.487,0,.4.016.8.034,1.209.007.16.015.324.026.484.034.547.082,1.094.149,1.644,1.436,11.774,9.932,21.386,21.7,26.371a1.1,1.1,0,0,1,.618,1.295l-3.516,10.918a1,1,0,0,0,.934,1.317l4.911.655c-.045-.007-.09-.022-.131-.03a1.494,1.494,0,0,0,.592.019l19.205-9.743a53.856,53.856,0,0,0,8.742-.428C-2048.266,6.029-2030.551-12.284-2032.932-31.784Zm-63.425,8.984a6.536,6.536,0,0,1-.082.893l-.03.138a6.032,6.032,0,0,1-.2.774c-.016.052-.03.1-.049.153a5.96,5.96,0,0,1-.35.8c-.029.056-.059.108-.092.164a6.025,6.025,0,0,1-.454.7l-.034.048a6.067,6.067,0,0,1-.587.658l-.141.138a5.821,5.821,0,0,1-.681.558l-.092.063a6.656,6.656,0,0,1-.711.417c-.059.03-.115.063-.178.093-.142.067-.291.126-.443.186-.07.026-.137.056-.211.082-.16.056-.328.1-.5.145a6.521,6.521,0,0,1-3.195-4.855,6.571,6.571,0,0,1,4.765-7.135,6.509,6.509,0,0,1,3.2,4.836,6.208,6.208,0,0,1,.063.945A1.723,1.723,0,0,1-2096.357-22.8Zm18.641-39.022c.075,0,.146,0,.22-.011l-.4.026C-2077.835-61.811-2077.776-61.819-2077.716-61.823Zm2.634,36.314a7.21,7.21,0,0,1-.108.9c-.007.048-.022.1-.034.145a6.915,6.915,0,0,1-.215.781l-.049.145a6.587,6.587,0,0,1-.364.8c-.03.06-.059.112-.093.167a6.942,6.942,0,0,1-.477.733l-.015.019a6.771,6.771,0,0,1-.591.662l-.138.134a6.887,6.887,0,0,1-.676.558l-.116.074a6.872,6.872,0,0,1-.7.409c-.053.026-.1.056-.153.082-.145.067-.3.126-.447.186-.066.026-.126.052-.19.078-.148.048-.3.089-.449.13a6.522,6.522,0,0,1-3.181-4.855,6.565,6.565,0,0,1,4.757-7.135,6.5,6.5,0,0,1,3.2,4.84,6.406,6.406,0,0,1,.041.952C-2075.079-25.642-2075.083-25.575-2075.083-25.508Zm1.313-36.429h0Zm2.849.1c.078,0,.156,0,.234.007l.257.022C-2070.592-61.823-2070.756-61.83-2070.92-61.841Zm17.149,33.613a7.044,7.044,0,0,1-.108.9l-.03.145a6.727,6.727,0,0,1-.222.781l-.045.145a6.64,6.64,0,0,1-.364.8c-.03.056-.063.112-.093.164a7.524,7.524,0,0,1-.48.737l-.015.015a6.75,6.75,0,0,1-.591.666l-.142.134a6.1,6.1,0,0,1-.677.554l-.111.074a6.276,6.276,0,0,1-.7.413c-.053.026-.1.056-.156.078-.145.071-.3.13-.447.19-.067.022-.126.052-.193.074-.146.052-.293.089-.446.13a6.527,6.527,0,0,1-3.185-4.851,6.577,6.577,0,0,1,4.762-7.135,6.505,6.505,0,0,1,3.207,4.84,6.818,6.818,0,0,1,.037.949C-2053.768-28.362-2053.768-28.295-2053.771-28.228Z" transform="translate(2125.717 62.597)"/></g><g transform="translate(-2120.814 -61.947)"><path class="d" d="M-2084.664-61.978c24.19-3.084,45.766,10.219,48.147,29.719s-15.334,37.813-39.521,40.9a53.856,53.856,0,0,1-8.742.428l-19.205,9.743c-.946.156-1.7-.551-1.4-1.306l3.516-10.918a1.1,1.1,0,0,0-.614-1.295c-11.766-4.985-20.263-14.6-21.7-26.371C-2126.565-40.581-2108.851-58.894-2084.664-61.978Z" transform="translate(2124.399 62.422)"/></g><g transform="translate(-2103.009 -32.089)"><path class="c" d="M-2100.882-41.339a6.57,6.57,0,0,0,5.646-7.328,6.482,6.482,0,0,0-7.235-5.677,6.563,6.563,0,0,0-5.636,7.317,6.481,6.481,0,0,0,7.225,5.688" transform="translate(2150.772 54.396)"/><path class="c" d="M-2112.328-39.882a6.423,6.423,0,0,0,5.636-7.325,6.478,6.478,0,0,0-7.225-5.677,6.564,6.564,0,0,0-5.647,7.317,6.485,6.485,0,0,0,7.236,5.684" transform="translate(2119.613 58.37)"/><path class="c" d="M-2106.605-40.609a6.561,6.561,0,0,0,5.635-7.328,6.48,6.48,0,0,0-7.224-5.677,6.56,6.56,0,0,0-5.64,7.317,6.479,6.479,0,0,0,7.229,5.688" transform="translate(2135.194 56.382)"/></g><g transform="translate(-2103.009 -34.79)"><path class="e" d="M-2092.542-49.386A6.5,6.5,0,0,0-2099-55.115c-.256,0-2.727-.041-3.467.052a6.565,6.565,0,0,0-5.636,7.317,6.5,6.5,0,0,0,6.488,5.74c.242,0,2.689.041,3.429-.052A6.57,6.57,0,0,0-2092.542-49.386Z" transform="translate(2150.772 55.122)"/><path class="e" d="M-2113.916-53.6a6.564,6.564,0,0,0-5.647,7.317,6.5,6.5,0,0,0,6.462,5.736c.253,0,2.728.045,3.467-.052A6.426,6.426,0,0,0-2104-47.924a6.491,6.491,0,0,0-6.469-5.729C-2110.717-53.649-2113.176-53.7-2113.916-53.6Z" transform="translate(2119.613 59.095)"/><path class="e" d="M-2108.194-54.328a6.556,6.556,0,0,0-5.64,7.317,6.488,6.488,0,0,0,6.425,5.736c.264,0,2.752.045,3.493-.052a6.561,6.561,0,0,0,5.64-7.325,6.485,6.485,0,0,0-6.4-5.729C-2104.95-54.384-2107.454-54.425-2108.194-54.328Z" transform="translate(2135.194 57.107)"/></g><g transform="translate(-2100.315 -34.782)"><path class="f" d="M-2100.157-42.063a6.57,6.57,0,0,0,5.647-7.328,6.487,6.487,0,0,0-7.236-5.677,6.57,6.57,0,0,0-5.639,7.317,6.483,6.483,0,0,0,7.227,5.688" transform="translate(2150.045 55.12)"/><path class="f" d="M-2111.6-40.606a6.426,6.426,0,0,0,5.636-7.325,6.478,6.478,0,0,0-7.224-5.677,6.564,6.564,0,0,0-5.647,7.317,6.48,6.48,0,0,0,7.235,5.684" transform="translate(2118.889 59.093)"/><path class="f" d="M-2105.886-41.336a6.561,6.561,0,0,0,5.64-7.325,6.478,6.478,0,0,0-7.229-5.677,6.556,6.556,0,0,0-5.635,7.317,6.476,6.476,0,0,0,7.224,5.684" transform="translate(2134.47 57.108)"/></g></g></svg>