<svg xmlns="http://www.w3.org/2000/svg" width="121.363" height="120" viewBox="0 0 121.363 120"><defs><style>.a,.b{stroke:rgba(0,0,0,0);}.a{opacity:0.3;}.b{fill:#5f89ff;}.c{fill:none;}</style></defs><path class="a" d="M76.861,866.433l-1.718-25.656-11.2.75-1.647-24.6,44.658-2.99,1.647,24.6-11.2.75,1.718,25.655Z" transform="translate(-59.552 -777.707)"/><path class="a" d="M170.145,841.562l-3.756-9.552-3.756,9.552-8.542,3.357-4.954-1.959,8.783-3.451,9.232-21.029-21.944-1.9L139,823.126l-4.991-7.518-21.944-1.9,12.593,51.148a128.434,128.434,0,0,0,21.326,1.847l9.056-20.63,7.594,3,3.756,9.529,3.756-9.529,9.529-3.768Z" transform="translate(-59.674 -777.707)"/><path class="b" d="M76.861,866.433l-1.718-25.656-11.2.75-1.647-24.6,44.658-2.99,1.647,24.6-11.2.75,1.718,25.655Z" transform="translate(-59.552 -786.707)"/><path class="b" d="M170.145,841.562l-3.756-9.552-3.756,9.552-8.542,3.357-4.954-1.959,8.783-3.451,9.232-21.029-21.944-1.9L139,823.126l-4.991-7.518-21.944-1.9,12.593,51.148a128.434,128.434,0,0,0,21.326,1.847l9.056-20.63,7.594,3,3.756,9.529,3.756-9.529,9.529-3.768Z" transform="translate(-59.674 -786.707)"/><rect class="c" width="119.878" height="120"/></svg>