<svg xmlns="http://www.w3.org/2000/svg" width="120" height="120" viewBox="0 0 120 120"><defs><style>.a{fill:none;}.b{opacity:0.3;isolation:isolate;}.c{fill:rgba(0,0,0,0.3);}.d{fill:#aeafae;}.e{fill:#fff;}</style></defs><rect class="a" width="120" height="120"/><g class="b" transform="translate(-2271.298 -457.15)"><path class="c" d="M2289.542,495.256l2.777.745,12.093,14.67,2.858-10.664,9.652,2.586-7.336,27.38-3.687-.987L2294.346,515.8l-2.522,9.413-9.619-2.577Z"/><path class="c" d="M2327.378,526.8l-.943-.252c-.3-.08-.58-.169-.848-.264a2.129,2.129,0,0,0,1.58,2.812c.39.141.775.263,1.152.364a13.6,13.6,0,0,0,3.84.312,11.149,11.149,0,0,0,4.535-1.119l-.366,5.617q-4.711,2.286-12.442.213a12.132,12.132,0,0,1-6.936-4.633,9.9,9.9,0,0,1-1.364-8.763,12.565,12.565,0,0,1,3.769-6.249,11.946,11.946,0,0,1,6.037-2.848,16.455,16.455,0,0,1,7.085.374q4.663,1.248,6.509,3.93a6.57,6.57,0,0,1,1.032,5.679,7.049,7.049,0,0,1-4.3,4.563A12.269,12.269,0,0,1,2327.378,526.8Zm4.405-7.18a1.336,1.336,0,0,0-1-1.886,2.322,2.322,0,0,0-2.537,1.1,8.083,8.083,0,0,0-.783,1.582q-.349.926-.827,1.956l3.98.166,1.029-2.536Z"/><path class="c" d="M2365.71,529.613l4.141-6.333,7.8,2.09-12.982,19.51-2.846-.763-3.759-10.525-8.946,7.121-2.846-.762-1.882-23.493,9.6,2.573.413,7.718,7.165-5.688,1.1.294Z"/></g><g transform="translate(-2271.298 -457.15)"><path class="d" d="M2290.654,491.107l2.777.745,12.093,14.67,2.857-10.665,9.653,2.587-7.337,27.38-3.686-.987-11.554-13.185-2.522,9.413-9.618-2.577Z"/><path class="d" d="M2328.489,522.653l-.942-.252c-.3-.08-.58-.169-.849-.264a2.13,2.13,0,0,0,1.581,2.812c.39.141.775.263,1.152.364a13.593,13.593,0,0,0,3.839.312,11.147,11.147,0,0,0,4.536-1.119l-.366,5.617q-4.711,2.286-12.442.213a12.132,12.132,0,0,1-6.936-4.633,9.9,9.9,0,0,1-1.364-8.763,12.563,12.563,0,0,1,3.769-6.249,11.933,11.933,0,0,1,6.037-2.848,16.458,16.458,0,0,1,7.085.374q4.662,1.248,6.508,3.93a6.568,6.568,0,0,1,1.033,5.679,7.049,7.049,0,0,1-4.3,4.563A12.268,12.268,0,0,1,2328.489,522.653Zm4.405-7.18a1.335,1.335,0,0,0-1-1.886,2.324,2.324,0,0,0-2.538,1.1,8.057,8.057,0,0,0-.782,1.582q-.349.926-.827,1.956l3.98.166,1.028-2.536Z"/><path class="d" d="M2366.822,525.464l4.141-6.333,7.8,2.09-12.983,19.51-2.846-.763-3.758-10.525-8.946,7.121-2.846-.762-1.883-23.493,9.6,2.573.412,7.718,7.166-5.688,1.1.294Z"/></g><g transform="translate(-2271.298 -457.15)"><path class="e" d="M2291.765,486.96l2.777.744,12.093,14.67,2.858-10.664,9.652,2.587-7.336,27.38-3.687-.988-11.553-13.184-2.522,9.413-9.619-2.578Z"/><path class="e" d="M2329.6,518.506l-.943-.253c-.3-.079-.58-.168-.848-.264a2.13,2.13,0,0,0,1.58,2.813c.39.141.775.262,1.152.363a13.552,13.552,0,0,0,3.84.313,11.165,11.165,0,0,0,4.535-1.119l-.366,5.617q-4.712,2.285-12.442.213a12.132,12.132,0,0,1-6.936-4.634,9.9,9.9,0,0,1-1.364-8.763,12.56,12.56,0,0,1,3.769-6.248,11.938,11.938,0,0,1,6.037-2.848,16.455,16.455,0,0,1,7.085.373q4.664,1.25,6.509,3.931a6.57,6.57,0,0,1,1.032,5.679,7.05,7.05,0,0,1-4.3,4.563A12.274,12.274,0,0,1,2329.6,518.506Zm4.405-7.181a1.335,1.335,0,0,0-1-1.885,2.322,2.322,0,0,0-2.537,1.1,8.112,8.112,0,0,0-.783,1.582q-.35.927-.827,1.956l3.98.166,1.029-2.536Z"/><path class="e" d="M2367.933,521.316l4.141-6.332,7.8,2.09-12.982,19.51-2.846-.763-3.759-10.526-8.946,7.122-2.846-.763-1.882-23.492,9.6,2.572.413,7.719,7.165-5.688,1.1.294Z"/></g></svg>