<svg xmlns="http://www.w3.org/2000/svg" width="120" height="120" viewBox="0 0 120 120"><defs><style>.a{fill:rgba(0,0,0,0.3);}.b{fill:#afafaf;}.c{fill:#fff;}.d{fill:none;}</style></defs><g transform="translate(22.05 26)"><path class="a" d="M43.635,55.6H24.612A1.248,1.248,0,0,0,23.6,56.986a10.431,10.431,0,0,0,9.07,9.07h2.772a10.431,10.431,0,0,0,9.07-9.07A1.076,1.076,0,0,0,43.635,55.6Z" transform="translate(3.763 14.444)"/><path class="a" d="M66.672,63.493C60.5,56.06,59.113,48.376,59.113,35.274l.126-2.9a21.42,21.42,0,0,0-10.33-18.393c-.126,0-.126-.126-.252-.126-.5-.252-.882-.5-1.386-.756h-.126a23.927,23.927,0,0,0-5.039-1.764V3.905A4.2,4.2,0,0,0,38.2,0h-.63a4.2,4.2,0,0,0-3.905,3.905v7.307a21.673,21.673,0,0,0-5.039,1.764H28.5c-.5.252-.882.5-1.386.756-.126,0-.126.126-.252.126A21.578,21.578,0,0,0,16.533,32.25l.126,2.9c0,13.1-1.386,20.786-7.559,28.219H66.672Z"/></g><g transform="translate(22.05 21)"><path class="b" d="M43.635,55.6H24.612A1.248,1.248,0,0,0,23.6,56.986a10.431,10.431,0,0,0,9.07,9.07h2.772a10.431,10.431,0,0,0,9.07-9.07A1.076,1.076,0,0,0,43.635,55.6Z" transform="translate(3.763 14.444)"/><path class="b" d="M66.672,63.493C60.5,56.06,59.113,48.376,59.113,35.274l.126-2.9a21.42,21.42,0,0,0-10.33-18.393c-.126,0-.126-.126-.252-.126-.5-.252-.882-.5-1.386-.756h-.126a23.927,23.927,0,0,0-5.039-1.764V3.905A4.2,4.2,0,0,0,38.2,0h-.63a4.2,4.2,0,0,0-3.905,3.905v7.307a21.673,21.673,0,0,0-5.039,1.764H28.5c-.5.252-.882.5-1.386.756-.126,0-.126.126-.252.126A21.578,21.578,0,0,0,16.533,32.25l.126,2.9c0,13.1-1.386,20.786-7.559,28.219H66.672Z"/></g><g transform="translate(22.05 16)"><path class="c" d="M43.635,55.6H24.612A1.248,1.248,0,0,0,23.6,56.986a10.431,10.431,0,0,0,9.07,9.07h2.772a10.431,10.431,0,0,0,9.07-9.07A1.076,1.076,0,0,0,43.635,55.6Z" transform="translate(3.763 14.444)"/><path class="c" d="M66.672,63.493C60.5,56.06,59.113,48.376,59.113,35.274l.126-2.9a21.42,21.42,0,0,0-10.33-18.393c-.126,0-.126-.126-.252-.126-.5-.252-.882-.5-1.386-.756h-.126a23.927,23.927,0,0,0-5.039-1.764V3.905A4.2,4.2,0,0,0,38.2,0h-.63a4.2,4.2,0,0,0-3.905,3.905v7.307a21.673,21.673,0,0,0-5.039,1.764H28.5c-.5.252-.882.5-1.386.756-.126,0-.126.126-.252.126A21.578,21.578,0,0,0,16.533,32.25l.126,2.9c0,13.1-1.386,20.786-7.559,28.219H66.672Z"/></g><rect class="d" width="120" height="120"/></svg>