<svg xmlns="http://www.w3.org/2000/svg" width="120" height="120" viewBox="0 0 120 120"><defs><style>.a{fill:none;}.b{fill:rgba(0,0,0,0.3);}.b,.c,.d{fill-rule:evenodd;}.c{fill:#afafaf;}.d{fill:#fff;}</style></defs><rect class="a" width="120" height="120"/><g transform="translate(18.984 21.328)"><path class="b" d="M150.585,46.082c-6.13-6.643-15.493-10.637-28.657-9.5-.327.045-1.335.14-1.335.14-1-4.035-2.947-8.515-5.427-9.318-2.684-.859-5.773.344-7.407.973-2.3.88-4,2.535-5.958,2.9-1.777.327-3.595-.089-5.153,0-3.874.219-7.818,1.167-10.786,4.025-6.336,6.094-6.965,21.477-4.348,32.2a81.4,81.4,0,0,0,8.534,20.928c.691,1.239,2.652,5.7,3.865,6.12a4.658,4.658,0,0,0,.935.172c.918-.166,1.951-.331,3.06-.482-2.439-5.878-3.185-14.144-3.332-15.5-.574-5.251,1.683-7.089,4.566-8.768a16.233,16.233,0,0,0,6.73-13.028c0-.162.009-.315.011-.461.03-.969.021-1.662.015-1.874-.026-.863.232-4.481.319-6.058a2.507,2.507,0,0,1-2-2.242c1.32-.6,2.176.661,2.673.412.187-1.012-2.023-1.152-1.4-2.622,1.451-.038,1.252,2.322,2.478,2.106.045-.961-1.407-1.895-.438-2.646,1,.249.5,2.541,1.046,2.871.408-.119.2-.833.582-.982a2.482,2.482,0,0,0,1.443-.28c.106,1.05.247,1.811-.3,2.427.637.338.185.661.393,1.2.434,1.124,1.936,2.078,2.133,2.843a1.468,1.468,0,0,1-2.006,1.747c-.525-.6-.357-1.549-1.252-1.538-1.09.011-1.045,1.677-1.016,2.686.115,4.1.206,8.746.119,13.427-.064,3.587-.57,6.1-.835,9.333-.346,4.2-1.362,8.359-1.49,12.014a14.879,14.879,0,0,0,.336,3.965c1.4-.121,2.807-.227,4.173-.317.574-.043,1.143-.081,1.7-.115.816-.149.941-.425.935-.589l0-.009a3.419,3.419,0,0,1-1.082-1.281c-.863-1.5.474-3.78.474-3.78.593-1.226,1.774-2.24,1.243-3.506a2.4,2.4,0,0,0-1.258-1.366.793.793,0,0,1,.99.113,2.574,2.574,0,0,0,1.324.99c.831.242,1.128.6,1.279,1.116a3.259,3.259,0,0,1-.293,1.742c-.206.572.346,1.738.355,2.354s.076,1.887.076,1.887a1.382,1.382,0,0,0,.875,1.028,1.191,1.191,0,0,1-1.08.147.8.8,0,0,0,.589.629,1.605,1.605,0,0,1-.589.355c.208,0,.612-.017.652-.021l0,0c2.826-.087,5-.049,6.4.032,1.9.113,4.252.58,7.832.812a1.037,1.037,0,0,1-.068-.221c-.189-1,.844-.57,1.018-1.15.293-.92-.459-.943-.164-1.863-3.2-.2-4.824,3.734-6.806.389.975-.752,2.8-.516,4.078-.91a31.831,31.831,0,0,0-6.847-3.005c-1.158-4.5,4.3-2.526,5.933-1.069.467-.1-.089-.4.074-.918,4.409-1.33,5.089-6.466,12.4-4.877,4.526.986,4.45,4.354,7.4,7.669.193,1-1.043.338-1.014,1.148a28.777,28.777,0,0,1,3.109-.366c-1,1.279-3.6.678-5.042,1.449-.14,1.256,1.587.927,1.691,1.98.2,1.46-.642,1.7-1.111,2.376-1.853-.225-1.8-2.082-2.845-2.994-1.267.034-1,1.864-1.362,2.964,3.181.166,6.324.321,9.02.446h6.6c-3.636-7.025-3.085-21.243.161-28.821,2.17,1.653,6.037,4.084,9.66,2.255C157.969,63.543,156.949,52.976,150.585,46.082Zm-57.333.865a4.1,4.1,0,0,0,1.154,6.608,4.527,4.527,0,1,1,2.577-7.743A4.1,4.1,0,0,0,93.252,46.947Zm5.232,17.992L97.464,63.9,96.3,64.948l.58-1.471-.587-.567.808-.123.361-.735.365.735,1.262.11-1.033.576Zm39.564-20.253.416-.848.421.848,1.456.128-1.192.663.5,1.691-1.173-1.2-1.349,1.209.671-1.7-.68-.657ZM124.5,45.97l.281-1.045.655.856,1.08-.059-.61.89,1.107,1.594-1.755-.89-.842.678-.028-1.079-1.437-.557Zm-8.7-3.138.253-.523.261.523.574.079-.414.41.217.8-.633-.5-.727.5.045-.725-.365-.512Zm36.19,16.617-.646.342.121-.722-1.024-.941,1.22.323.319-1.3.329,1.3.727.1-.525.514.531,1.441Z" transform="translate(-80.065 -19.372)"/><path class="b" d="M109.138,60.838a27.58,27.58,0,0,0,.348,2.935c.963.059,1.947.111,2.943.166a.916.916,0,0,1-.123-.4c.17-1.135,2.223-.064,1.694-2.017C113.031,60.74,110.655,61.155,109.138,60.838Z" transform="translate(-54.22 10.617)"/><path class="c" d="M150.585,46.082c-6.13-6.643-15.493-10.637-28.657-9.5-.327.045-1.335.14-1.335.14-1-4.035-2.947-8.515-5.427-9.318-2.684-.859-5.773.344-7.407.973-2.3.88-4,2.535-5.958,2.9-1.777.327-3.595-.089-5.153,0-3.874.219-7.818,1.167-10.786,4.025-6.336,6.094-6.965,21.477-4.348,32.2a81.4,81.4,0,0,0,8.534,20.928c.691,1.239,2.652,5.7,3.865,6.12a4.658,4.658,0,0,0,.935.172c.918-.166,1.951-.331,3.06-.482-2.439-5.878-3.185-14.144-3.332-15.5-.574-5.251,1.683-7.089,4.566-8.768a16.233,16.233,0,0,0,6.73-13.028c0-.162.009-.315.011-.461.03-.969.021-1.662.015-1.874-.026-.863.232-4.481.319-6.058a2.507,2.507,0,0,1-2-2.242c1.32-.6,2.176.661,2.673.412.187-1.012-2.023-1.152-1.4-2.622,1.451-.038,1.252,2.322,2.478,2.106.045-.961-1.407-1.895-.438-2.646,1,.249.5,2.541,1.046,2.871.408-.119.2-.833.582-.982a2.482,2.482,0,0,0,1.443-.28c.106,1.05.247,1.811-.3,2.427.637.338.185.661.393,1.2.434,1.124,1.936,2.078,2.133,2.843a1.468,1.468,0,0,1-2.006,1.747c-.525-.6-.357-1.549-1.252-1.538-1.09.011-1.045,1.677-1.016,2.686.115,4.1.206,8.746.119,13.427-.064,3.587-.57,6.1-.835,9.333-.346,4.2-1.362,8.359-1.49,12.014a14.879,14.879,0,0,0,.336,3.965c1.4-.121,2.807-.227,4.173-.317.574-.043,1.143-.081,1.7-.115.816-.149.941-.425.935-.589l0-.009a3.419,3.419,0,0,1-1.082-1.281c-.863-1.5.474-3.78.474-3.78.593-1.226,1.774-2.24,1.243-3.506a2.4,2.4,0,0,0-1.258-1.366.793.793,0,0,1,.99.113,2.574,2.574,0,0,0,1.324.99c.831.242,1.128.6,1.279,1.116a3.259,3.259,0,0,1-.293,1.742c-.206.572.346,1.738.355,2.354s.076,1.887.076,1.887a1.382,1.382,0,0,0,.875,1.028,1.191,1.191,0,0,1-1.08.147.8.8,0,0,0,.589.629,1.605,1.605,0,0,1-.589.355c.208,0,.612-.017.652-.021l0,0c2.826-.087,5-.049,6.4.032,1.9.113,4.252.58,7.832.812a1.037,1.037,0,0,1-.068-.221c-.189-1,.844-.57,1.018-1.15.293-.92-.459-.943-.164-1.863-3.2-.2-4.824,3.734-6.806.389.975-.752,2.8-.516,4.078-.91a31.831,31.831,0,0,0-6.847-3.005c-1.158-4.5,4.3-2.526,5.933-1.069.467-.1-.089-.4.074-.918,4.409-1.33,5.089-6.466,12.4-4.877,4.526.986,4.45,4.354,7.4,7.669.193,1-1.043.338-1.014,1.148a28.777,28.777,0,0,1,3.109-.366c-1,1.279-3.6.678-5.042,1.449-.14,1.256,1.587.927,1.691,1.98.2,1.46-.642,1.7-1.111,2.376-1.853-.225-1.8-2.082-2.845-2.994-1.267.034-1,1.864-1.362,2.964,3.181.166,6.324.321,9.02.446h6.6c-3.636-7.025-3.085-21.243.161-28.821,2.17,1.653,6.037,4.084,9.66,2.255C157.969,63.543,156.949,52.976,150.585,46.082Zm-57.333.865a4.1,4.1,0,0,0,1.154,6.608,4.527,4.527,0,1,1,2.577-7.743A4.1,4.1,0,0,0,93.252,46.947Zm5.232,17.992L97.464,63.9,96.3,64.948l.58-1.471-.587-.567.808-.123.361-.735.365.735,1.262.11-1.033.576Zm39.564-20.253.416-.848.421.848,1.456.128-1.192.663.5,1.691-1.173-1.2-1.349,1.209.671-1.7-.68-.657ZM124.5,45.97l.281-1.045.655.856,1.08-.059-.61.89,1.107,1.594-1.755-.89-.842.678-.028-1.079-1.437-.557Zm-8.7-3.138.253-.523.261.523.574.079-.414.41.217.8-.633-.5-.727.5.045-.725-.365-.512Zm36.19,16.617-.646.342.121-.722-1.024-.941,1.22.323.319-1.3.329,1.3.727.1-.525.514.531,1.441Z" transform="translate(-80.065 -23.237)"/><path class="c" d="M109.138,60.838a27.58,27.58,0,0,0,.348,2.935c.963.059,1.947.111,2.943.166a.916.916,0,0,1-.123-.4c.17-1.135,2.223-.064,1.694-2.017C113.031,60.74,110.655,61.155,109.138,60.838Z" transform="translate(-54.22 6.752)"/><path class="d" d="M150.585,46.082c-6.13-6.643-15.493-10.637-28.657-9.5-.327.045-1.335.14-1.335.14-1-4.035-2.947-8.515-5.427-9.318-2.684-.859-5.773.344-7.407.973-2.3.88-4,2.535-5.958,2.9-1.777.327-3.595-.089-5.153,0-3.874.219-7.818,1.167-10.786,4.025-6.336,6.094-6.965,21.477-4.348,32.2a81.4,81.4,0,0,0,8.534,20.928c.691,1.239,2.652,5.7,3.865,6.12a4.658,4.658,0,0,0,.935.172c.918-.166,1.951-.331,3.06-.482-2.439-5.878-3.185-14.144-3.332-15.5-.574-5.251,1.683-7.089,4.566-8.768a16.233,16.233,0,0,0,6.73-13.028c0-.162.009-.315.011-.461.03-.969.021-1.662.015-1.874-.026-.863.232-4.481.319-6.058a2.507,2.507,0,0,1-2-2.242c1.32-.6,2.176.661,2.673.412.187-1.012-2.023-1.152-1.4-2.622,1.451-.038,1.252,2.322,2.478,2.106.045-.961-1.407-1.895-.438-2.646,1,.249.5,2.541,1.046,2.871.408-.119.2-.833.582-.982a2.482,2.482,0,0,0,1.443-.28c.106,1.05.247,1.811-.3,2.427.637.338.185.661.393,1.2.434,1.124,1.936,2.078,2.133,2.843a1.468,1.468,0,0,1-2.006,1.747c-.525-.6-.357-1.549-1.252-1.538-1.09.011-1.045,1.677-1.016,2.686.115,4.1.206,8.746.119,13.427-.064,3.587-.57,6.1-.835,9.333-.346,4.2-1.362,8.359-1.49,12.014a14.879,14.879,0,0,0,.336,3.965c1.4-.121,2.807-.227,4.173-.317.574-.043,1.143-.081,1.7-.115.816-.149.941-.425.935-.589l0-.009a3.419,3.419,0,0,1-1.082-1.281c-.863-1.5.474-3.78.474-3.78.593-1.226,1.774-2.24,1.243-3.506a2.4,2.4,0,0,0-1.258-1.366.793.793,0,0,1,.99.113,2.574,2.574,0,0,0,1.324.99c.831.242,1.128.6,1.279,1.116a3.259,3.259,0,0,1-.293,1.742c-.206.572.346,1.738.355,2.354s.076,1.887.076,1.887a1.382,1.382,0,0,0,.875,1.028,1.191,1.191,0,0,1-1.08.147.8.8,0,0,0,.589.629,1.605,1.605,0,0,1-.589.355c.208,0,.612-.017.652-.021l0,0c2.826-.087,5-.049,6.4.032,1.9.113,4.252.58,7.832.812a1.037,1.037,0,0,1-.068-.221c-.189-1,.844-.57,1.018-1.15.293-.92-.459-.943-.164-1.863-3.2-.2-4.824,3.734-6.806.389.975-.752,2.8-.516,4.078-.91a31.831,31.831,0,0,0-6.847-3.005c-1.158-4.5,4.3-2.526,5.933-1.069.467-.1-.089-.4.074-.918,4.409-1.33,5.089-6.466,12.4-4.877,4.526.986,4.45,4.354,7.4,7.669.193,1-1.043.338-1.014,1.148a28.777,28.777,0,0,1,3.109-.366c-1,1.279-3.6.678-5.042,1.449-.14,1.256,1.587.927,1.691,1.98.2,1.46-.642,1.7-1.111,2.376-1.853-.225-1.8-2.082-2.845-2.994-1.267.034-1,1.864-1.362,2.964,3.181.166,6.324.321,9.02.446h6.6c-3.636-7.025-3.085-21.243.161-28.821,2.17,1.653,6.037,4.084,9.66,2.255C157.969,63.543,156.949,52.976,150.585,46.082Zm-57.333.865a4.1,4.1,0,0,0,1.154,6.608,4.527,4.527,0,1,1,2.577-7.743A4.1,4.1,0,0,0,93.252,46.947Zm5.232,17.992L97.464,63.9,96.3,64.948l.58-1.471-.587-.567.808-.123.361-.735.365.735,1.262.11-1.033.576Zm39.564-20.253.416-.848.421.848,1.456.128-1.192.663.5,1.691-1.173-1.2-1.349,1.209.671-1.7-.68-.657ZM124.5,45.97l.281-1.045.655.856,1.08-.059-.61.89,1.107,1.594-1.755-.89-.842.678-.028-1.079-1.437-.557Zm-8.7-3.138.253-.523.261.523.574.079-.414.41.217.8-.633-.5-.727.5.045-.725-.365-.512Zm36.19,16.617-.646.342.121-.722-1.024-.941,1.22.323.319-1.3.329,1.3.727.1-.525.514.531,1.441Z" transform="translate(-80.065 -27.103)"/><path class="d" d="M109.138,60.838a27.58,27.58,0,0,0,.348,2.935c.963.059,1.947.111,2.943.166a.916.916,0,0,1-.123-.4c.17-1.135,2.223-.064,1.694-2.017C113.031,60.74,110.655,61.155,109.138,60.838Z" transform="translate(-54.22 2.886)"/></g></svg>