<svg id="Icon_-_PDF" data-name="Icon - PDF" xmlns="http://www.w3.org/2000/svg" width="120" height="120.004" viewBox="0 0 120 120.004">
  <rect id="Frame" width="120" height="120" fill="none"/>
  <g id="Icon" transform="translate(700.636 3813.755)">
    <path id="Path_1116-2" data-name="Path 1116-2" d="M-589.842-3717.944l-29.93-91.937-70.424,22.928-.4,1.266,29.931,91.936,70.423-22.926Z" opacity="0.3"/>
    <path id="Path_1116-2-2" data-name="Path 1116-2-2" d="M-589.842-3721.815l-29.93-91.937-70.424,22.928-.4,1.266,29.931,91.936,70.423-22.926Z" fill="#2a3180"/>
    <rect id="Rectangle_211" data-name="Rectangle 211" width="74.061" height="96.686" transform="translate(-690.195 -3790.823) rotate(-18.033)" fill="#fff"/>
    <g id="Group_421" data-name="Group 421">
      <rect id="Rectangle_212" data-name="Rectangle 212" width="60.417" height="3.869" transform="translate(-665.175 -3735.964) rotate(-18.033)" fill="#2a3180"/>
      <rect id="Rectangle_213" data-name="Rectangle 213" width="60.417" height="3.869" transform="translate(-667.514 -3743.16) rotate(-18.033)" fill="#2a3180"/>
      <rect id="Rectangle_214" data-name="Rectangle 214" width="28.71" height="3.869" transform="translate(-662.837 -3728.768) rotate(-18.033)" fill="#2a3180"/>
      <rect id="Rectangle_215" data-name="Rectangle 215" width="60.417" height="3.869" transform="translate(-669.853 -3750.357) rotate(-18.033)" fill="#2a3180"/>
      <rect id="Rectangle_216" data-name="Rectangle 216" width="60.417" height="3.869" transform="translate(-672.192 -3757.552) rotate(-18.033)" fill="#2a3180"/>
      <rect id="Rectangle_217" data-name="Rectangle 217" width="60.417" height="3.869" transform="translate(-674.594 -3764.738) rotate(-18.033)" fill="#2a3180"/>
    </g>
    <g id="Group_1542" data-name="Group 1542">
      <path id="Path_1511" data-name="Path 1511" d="M-680.842-3784.072q4.122-1.856,6.3-2.587a15.7,15.7,0,0,1,3.568-.846,5.592,5.592,0,0,1,2.432.282q2.039.769,3.041,3.751a6.2,6.2,0,0,1,.319,2.628,6.135,6.135,0,0,1-.74,2.382,6.712,6.712,0,0,1-1.635,1.936,7.432,7.432,0,0,1-2.367,1.294l-1.542.48.835,2.484-5.613,1.886Zm8.8.542a4.66,4.66,0,0,0-1.821,1.75l1.089,3.241.842-.828a4.844,4.844,0,0,0,1.076-1.405,2.666,2.666,0,0,0,.184-1.907,1.15,1.15,0,0,0-.927-.9A.992.992,0,0,0-672.042-3783.53Z" fill="#2a3180"/>
      <path id="Path_1512" data-name="Path 1512" d="M-665.8-3789.166q5.086-2.139,6.681-2.675a8.978,8.978,0,0,1,2.618-.551,6.24,6.24,0,0,1,1.93.265,6.619,6.619,0,0,1,3.043,1.951,8.865,8.865,0,0,1,1.863,3.134,7.889,7.889,0,0,1,.449,3.173,6.431,6.431,0,0,1-.811,2.668,7.79,7.79,0,0,1-4.576,3.547l-6.583,2.213Zm6.81,2.561,1.76,5.234q.325-.54.732-1.1,1.551-2.158,1.011-3.765a2.621,2.621,0,0,0-.952-1.292,1.49,1.49,0,0,0-1.431-.26A1.887,1.887,0,0,0-658.995-3786.6Z" fill="#2a3180"/>
      <path id="Path_1513" data-name="Path 1513" d="M-650.249-3794.4l9.875-3.32,1.306,3.885-4.529,1.523.427,1.272,4.529-1.522,1.26,3.747-4.53,1.522,1.621,4.821-5.345,1.8Z" fill="#2a3180"/>
    </g>
  </g>
</svg>
