<svg xmlns="http://www.w3.org/2000/svg" width="120" height="120" viewBox="0 0 120 120"><defs><style>.a{fill:none;}.b{fill:rgba(0,0,0,0.3);}.c{fill:#afafaf;}.d{fill:#fff;}</style></defs><rect class="a" width="120" height="120"/><path class="b" d="M898.059,780.6l-6.792-5.582a5.818,5.818,0,0,1-.8-8.187L913.421,738.9a5.821,5.821,0,0,1,7.155-1.481l12.431,6.379a5.816,5.816,0,0,0,7.242-1.6l12.941-16.573a5.818,5.818,0,0,1,8.166-1.006l6.93,5.409a5.824,5.824,0,0,1,1.006,8.171l-23.339,29.887a5.821,5.821,0,0,1-7.242,1.6L925.9,763.113a5.817,5.817,0,0,0-7.15,1.481l-12.5,15.209A5.818,5.818,0,0,1,898.059,780.6Z" transform="translate(-869.834 -685.657)"/><path class="c" d="M898.059,780.6l-6.792-5.582a5.818,5.818,0,0,1-.8-8.187L913.421,738.9a5.821,5.821,0,0,1,7.155-1.481l12.431,6.379a5.816,5.816,0,0,0,7.242-1.6l12.941-16.573a5.818,5.818,0,0,1,8.166-1.006l6.93,5.409a5.824,5.824,0,0,1,1.006,8.171l-23.339,29.887a5.821,5.821,0,0,1-7.242,1.6L925.9,763.113a5.817,5.817,0,0,0-7.15,1.481l-12.5,15.209A5.818,5.818,0,0,1,898.059,780.6Z" transform="translate(-869.834 -693.657)"/><path class="d" d="M898.059,780.6l-6.792-5.582a5.818,5.818,0,0,1-.8-8.187L913.421,738.9a5.821,5.821,0,0,1,7.155-1.481l12.431,6.379a5.816,5.816,0,0,0,7.242-1.6l12.941-16.573a5.818,5.818,0,0,1,8.166-1.006l6.93,5.409a5.824,5.824,0,0,1,1.006,8.171l-23.339,29.887a5.821,5.821,0,0,1-7.242,1.6L925.9,763.113a5.817,5.817,0,0,0-7.15,1.481l-12.5,15.209A5.818,5.818,0,0,1,898.059,780.6Z" transform="translate(-869.834 -700.657)"/></svg>