<svg xmlns="http://www.w3.org/2000/svg" width="120.922" height="120" viewBox="0 0 120.922 120"><defs><style>.a{fill:none;}.b{fill:rgba(0,0,0,0.3);}.c{fill:#5122a1;}.d{fill:#38197c;}.e{fill:#883ac6;}.f{fill:#91d2fa;}.g{fill:#b6e1fc;}.h{fill:#692ba5;}.i{fill:#7b2fd3;}.j{fill:#9f49f2;}.k{fill:#7137b5;}.l{fill:#4a1f8c;}.m{fill:#893ac9;}.n{fill:#5e28ab;}.o{fill:#ec868f;}.p{fill:#9e4b52;}.q{fill:#1d1e1c;opacity:0.3;}.r{fill:#ec8e51;}.s{fill:#f6bd84;}.t{fill:#f2a367;}.u{fill:#ed7f3f;}</style></defs><rect class="a" width="120" height="120" transform="translate(0.397)"/><g transform="translate(1391.917 -2773.503) rotate(-7)"><path class="b" d="M-1653.72,2630.877v-22.413c0-1.358-.812-1.218-.812-1.218h-.266a2.015,2.015,0,0,0-1.41-.7v-.011h-18.462a2.018,2.018,0,0,0-2.017,2.018,2,2,0,0,0,.105.615v21.709h-45.1v11.386h3.951l.225,1.336h0l5.722,34.044s.038.112.115.29c.015.035.031.071.05.112s.036.079.057.124c.031.065.067.134.1.209l.056.105c.052.1.111.2.175.3l.041.07a8.136,8.136,0,0,0,1.536,1.831c.031.029.068.056.1.084.142.123.292.242.451.361.054.041.111.079.167.117q.22.156.462.3c.073.044.148.086.224.129.156.088.319.171.488.252.09.042.18.084.274.125.169.073.347.14.528.2.1.037.207.075.316.109.188.058.386.108.586.157.116.027.227.057.346.082.22.044.454.077.689.107.113.015.219.035.336.047.351.034.715.053,1.1.054h77.069a6.384,6.384,0,0,0,.639-.012l.1-.008c.082-.005.163-.012.256-.022.133-.013.278-.033.429-.056l.1-.019c.131-.022.266-.047.408-.078.046-.01.094-.022.141-.034q.2-.047.414-.109l.155-.047c.144-.045.29-.1.438-.153.05-.02.1-.038.151-.059.16-.066.321-.14.483-.219.037-.02.074-.035.111-.055a6.294,6.294,0,0,0,1.177-.789c.029-.025.056-.053.084-.079a5.98,5.98,0,0,0,.442-.434c.051-.056.1-.116.148-.175.117-.137.229-.281.336-.435.054-.076.1-.156.156-.236.1-.154.187-.316.275-.486.046-.091.093-.181.138-.277.084-.186.16-.387.231-.591.033-.094.07-.181.1-.279a8.27,8.27,0,0,0,.24-.984c.087-.486.186-1.049.295-1.677.019-.114.041-.238.061-.355.1-.556.2-1.15.309-1.791l.012-.071c.06-.349.121-.707.185-1.077l.077-.451c.043-.257.087-.513.132-.78l.091-.533.135-.791c.034-.206.07-.416.105-.625.039-.228.077-.452.116-.683.047-.278.094-.561.142-.845.034-.2.067-.4.1-.6.037-.218.074-.439.112-.66.047-.28.094-.561.141-.845l.078-.458q.094-.565.19-1.137l.031-.179q.1-.6.2-1.209c.036-.217.073-.435.109-.653l.155-.928.07-.42c.058-.345.116-.69.174-1.035.048-.289.1-.575.144-.863l.1-.572.13-.776q.067-.4.133-.8l.108-.649q.2-1.222.4-2.4c.032-.2.065-.39.1-.585l.11-.659c.06-.365.12-.721.178-1.076l.008-.049q.1-.573.187-1.125l.07-.42c.029-.176.058-.354.087-.526q.193-1.157.364-2.189c.018-.109.034-.211.052-.317.168-1.014.318-1.915.445-2.683l.017-.1h0c.055-.337.108-.654.155-.933l.055-.334.011-.07h2.806v-11.386Zm-5.279-20.307v20.307h-12.663v-20.307H-1659Z" transform="translate(-0.731 5.956)"/><g transform="translate(-1721.681 2606.536)"><path class="c" d="M-1717.566,2644.194l6.091,36.239s1.674,5.177,8.222,5.177h77.046s6.09.355,7.156-5.634c1.408-7.911,6.091-36.238,6.091-36.238Z" transform="translate(1721.372 -2609.326)"/><path class="c" d="M-1717.566,2644.194l6.091,36.239s1.674,5.177,8.222,5.177h77.046s6.09.355,7.156-5.634c1.408-7.911,6.091-36.238,6.091-36.238Z" transform="translate(1721.372 -2609.326)"/><path class="d" d="M-1702.754,2688.6h14.464v-5.024h-22.629C-1710.594,2684.4-1708.658,2688.6-1702.754,2688.6Z" transform="translate(1720.874 -2612.313)"/><path class="e" d="M-1617.9,2679.982c1.375-7.724,5.868-34.892,6.081-36.178l-90.436.395,6.09,36.24s1.675,5.176,8.222,5.176h63.256A6.707,6.707,0,0,0-1617.9,2679.982Z" transform="translate(1720.224 -2609.33)"/><rect class="f" width="4.111" height="23.982" transform="translate(45.1 1.599)"/><rect class="g" width="4.111" height="23.982" transform="translate(45.908 1.599)"/><rect class="f" width="4.111" height="3.477" transform="translate(45.908 1.599)"/><path class="h" d="M-1702.257,2644.2l.369,2.2h89.637c.055-.337.108-.654.154-.933.025-.152.052-.314.075-.45.109-.662.178-1.074.2-1.208Z" transform="translate(1720.224 -2609.33)"/><g transform="translate(3.807 34.717)"><path class="d" d="M-1604.954,2646.529h0c.039-.233.074-.446.108-.65l.046-.282C-1604.846,2645.875-1604.9,2646.192-1604.954,2646.529Z" transform="translate(1709.121 -2644.182)"/><path class="d" d="M-1703.405,2644.226l.369,2.2H-1717.2l-.369-2.2,14.152-.061Z" transform="translate(1717.566 -2644.074)"/><path class="d" d="M-1679.87,2644.067" transform="translate(1714.739 -2644.067)"/></g><rect class="i" width="111.001" height="9.517" transform="translate(0 24.341)"/><rect class="j" width="95.719" height="9.517" transform="translate(15.282 24.341)"/><rect class="k" width="111.001" height="9.517" transform="translate(0 26.211)"/><rect class="l" width="15.279" height="9.517" transform="translate(0 26.211)"/><rect class="m" width="111.001" height="9.517" transform="translate(0 25.276)"/><rect class="n" width="15.279" height="9.517" transform="translate(0 25.276)"/><path class="f" d="M-1649.088,2635.288" transform="translate(1716.237 -2608.692)"/><path class="o" d="M-1671.009,2606.536h-.013a2.018,2.018,0,0,0-2.017,2.018,2.018,2.018,0,0,0,2.017,2.017l.013,0v0h12.511v-4.035Z" transform="translate(1718.033 -2606.536)"/><path class="p" d="M-1649.637,2608.553a2.013,2.013,0,0,0-1.9-2.006v-.011h-5.939v0a2.015,2.015,0,0,0-1.979,2.014,2.016,2.016,0,0,0,1.979,2.014v0h5.939v-.011A2.013,2.013,0,0,0-1649.637,2608.553Z" transform="translate(1717.015 -2606.536)"/><g transform="translate(36.721 40.122)"><rect class="q" width="8.679" height="31.062" rx="2.537" transform="translate(0 0.935)"/><rect class="r" width="8.679" height="31.062" rx="2.537" transform="translate(0.355)"/><rect class="s" width="8.679" height="31.062" rx="2.537" transform="translate(0.812)"/><rect class="t" width="5.558" height="27.255" transform="translate(2.437 1.903)"/><path class="u" d="M-1679.348,2651.968v1.29h4.623v25.965h.935v-27.255Z" transform="translate(1681.785 -2650.064)"/></g><g transform="translate(47.887 40.122)"><rect class="q" width="8.679" height="31.062" rx="2.537" transform="translate(0 0.935)"/><rect class="r" width="8.679" height="31.062" rx="2.537" transform="translate(0.355)"/><rect class="s" width="8.679" height="31.062" rx="2.537" transform="translate(0.812)"/><rect class="t" width="5.558" height="27.255" transform="translate(2.437 1.903)"/><path class="u" d="M-1667.276,2651.968v1.29h4.623v25.965h.935v-27.255Z" transform="translate(1669.714 -2650.064)"/></g><g transform="translate(59.053 40.122)"><rect class="q" width="8.679" height="31.062" rx="2.537" transform="translate(0 0.935)"/><rect class="r" width="8.679" height="31.062" rx="2.537" transform="translate(0.355)"/><rect class="s" width="8.679" height="31.062" rx="2.537" transform="translate(0.812)"/><rect class="t" width="5.558" height="27.255" transform="translate(2.437 1.903)"/><path class="u" d="M-1655.205,2651.968v1.29h4.623v25.965h.935v-27.255Z" transform="translate(1657.643 -2650.064)"/></g><g transform="translate(70.219 40.122)"><rect class="q" width="8.679" height="31.062" rx="2.537" transform="translate(0 0.935)"/><rect class="r" width="8.679" height="31.062" rx="2.537" transform="translate(0.355)"/><rect class="s" width="8.679" height="31.062" rx="2.537" transform="translate(0.812)"/><rect class="t" width="5.558" height="27.255" transform="translate(2.437 1.903)"/><path class="u" d="M-1643.134,2651.968v1.29h4.623v25.965h.935v-27.255Z" transform="translate(1645.571 -2650.064)"/></g><g transform="translate(81.386 40.122)"><rect class="q" width="8.679" height="31.062" rx="2.537" transform="translate(0 0.935)"/><rect class="r" width="8.679" height="31.062" rx="2.537" transform="translate(0.355)"/><rect class="s" width="8.679" height="31.062" rx="2.537" transform="translate(0.812)"/><rect class="t" width="5.558" height="27.255" transform="translate(2.437 1.903)"/><path class="u" d="M-1631.062,2651.968v1.29h4.623v25.965h.935v-27.255Z" transform="translate(1633.5 -2650.064)"/></g><path class="q" d="M-1649.219,2633.861h-5.279v2.09a2.994,2.994,0,0,0-1.472,2.506,3.349,3.349,0,0,0,3.549,3.1,4.041,4.041,0,0,0,.5-.044,4.043,4.043,0,0,0,.5.044,3.349,3.349,0,0,0,3.549-3.1,2.974,2.974,0,0,0-1.385-2.443h.04Z" transform="translate(1716.753 -2608.585)"/><ellipse class="f" cx="3.549" cy="3.102" rx="3.549" ry="3.102" transform="translate(61.21 26.037)"/><ellipse class="g" cx="3.549" cy="3.102" rx="3.549" ry="3.102" transform="translate(62.208 26.037)"/><path class="g" d="M-1649.452,2607.3h-4.492l.533,25.986h4.771v-24.768C-1648.64,2607.164-1649.452,2607.3-1649.452,2607.3Z" transform="translate(1716.601 -2606.593)"/><path class="f" d="M-1653.245,2633.29v-24.768c0-1.32-.812-1.218-.812-1.218h-1.725v2.639h1.725v23.373l.812-.026" transform="translate(1716.739 -2606.594)"/></g></g></svg>