<svg xmlns="http://www.w3.org/2000/svg" width="119.878" height="120" viewBox="0 0 119.878 120"><defs><style>.a{fill:rgba(0,0,0,0.3);}.b{fill:#afafaf;}.c{fill:#fff;}.d{fill:none;}</style></defs><g transform="translate(20.853 30.516)"><g transform="translate(51.726 21.364)"><path class="a" d="M61.532,35.333l6.121-6a4.242,4.242,0,0,0-6-6l-6.121,6-6-6a4.242,4.242,0,0,0-6,6l6,6-6,6a4.142,4.142,0,0,0,0,6,4.438,4.438,0,0,0,6.121,0l6-6,6,6a4.438,4.438,0,0,0,6.121,0,4.142,4.142,0,0,0,0-6Z" transform="translate(-42.25 -22.05)"/></g><path class="a" d="M38.932,4.6a3.946,3.946,0,0,0-2.449,1.1L18.119,24.066H3.673a3.785,3.785,0,0,0-.979.245A2.976,2.976,0,0,0,0,27.494v21.18A4.042,4.042,0,0,0,3.673,52.1H18.119L36.483,70.466a4.927,4.927,0,0,0,2.449,1.1A4.042,4.042,0,0,0,42.36,67.9V8.273a3.785,3.785,0,0,0-.245-.979A2.841,2.841,0,0,0,38.932,4.6Z" transform="translate(0 -4.6)"/></g><g transform="translate(20.853 26.516)"><g transform="translate(51.726 21.364)"><path class="b" d="M61.532,35.333l6.121-6a4.242,4.242,0,0,0-6-6l-6.121,6-6-6a4.242,4.242,0,0,0-6,6l6,6-6,6a4.142,4.142,0,0,0,0,6,4.438,4.438,0,0,0,6.121,0l6-6,6,6a4.438,4.438,0,0,0,6.121,0,4.142,4.142,0,0,0,0-6Z" transform="translate(-42.25 -22.05)"/></g><path class="b" d="M38.932,4.6a3.946,3.946,0,0,0-2.449,1.1L18.119,24.066H3.673a3.785,3.785,0,0,0-.979.245A2.976,2.976,0,0,0,0,27.494v21.18A4.042,4.042,0,0,0,3.673,52.1H18.119L36.483,70.466a4.927,4.927,0,0,0,2.449,1.1A4.042,4.042,0,0,0,42.36,67.9V8.273a3.785,3.785,0,0,0-.245-.979A2.841,2.841,0,0,0,38.932,4.6Z" transform="translate(0 -4.6)"/></g><g transform="translate(20.853 22.516)"><g transform="translate(51.726 21.364)"><path class="c" d="M61.532,35.333l6.121-6a4.242,4.242,0,0,0-6-6l-6.121,6-6-6a4.242,4.242,0,0,0-6,6l6,6-6,6a4.142,4.142,0,0,0,0,6,4.438,4.438,0,0,0,6.121,0l6-6,6,6a4.438,4.438,0,0,0,6.121,0,4.142,4.142,0,0,0,0-6Z" transform="translate(-42.25 -22.05)"/></g><path class="c" d="M38.932,4.6a3.946,3.946,0,0,0-2.449,1.1L18.119,24.066H3.673a3.785,3.785,0,0,0-.979.245A2.976,2.976,0,0,0,0,27.494v21.18A4.042,4.042,0,0,0,3.673,52.1H18.119L36.483,70.466a4.927,4.927,0,0,0,2.449,1.1A4.042,4.042,0,0,0,42.36,67.9V8.273a3.785,3.785,0,0,0-.245-.979A2.841,2.841,0,0,0,38.932,4.6Z" transform="translate(0 -4.6)"/></g><rect class="d" width="119.878" height="120"/></svg>