<svg xmlns="http://www.w3.org/2000/svg" width="120" height="120" viewBox="0 0 120 120"><defs><style>.a{fill:none;}.b{fill:#ffef00;}.c{fill:#fff;}.d{fill:#3ba6dd;}</style></defs><rect class="a" width="120" height="120"/><g transform="translate(-4189.188 -550.354)"><path class="b" d="M4217.785,617.407a1.343,1.343,0,0,0-1.719.8,12.7,12.7,0,0,0-.7,2.916,1.341,1.341,0,0,0,1.185,1.481,1.1,1.1,0,0,0,.15.009,1.343,1.343,0,0,0,1.332-1.193,10.02,10.02,0,0,1,.551-2.295A1.341,1.341,0,0,0,4217.785,617.407Z"/><path class="b" d="M4236.012,609.48a10.024,10.024,0,0,0-5.893-2.038,1.342,1.342,0,1,0-.045,2.684,7.41,7.41,0,0,1,4.475,1.6,1.4,1.4,0,0,0,.382.206l.486-1.106Z"/><path class="b" d="M4224.01,609.055a17.564,17.564,0,0,0-4.771,3.874,1.341,1.341,0,1,0,2.022,1.761,14.843,14.843,0,0,1,4.031-3.278,1.342,1.342,0,0,0-1.282-2.357Z"/><path class="b" d="M4244.474,616.63a10.414,10.414,0,0,1-2.286-1.2l-.107.244-.678,1.544-.309.7a12.789,12.789,0,0,0,2.466,1.23,1.363,1.363,0,0,0,.458.081,1.342,1.342,0,0,0,.456-2.6Z"/><path class="b" d="M4260.735,604.242a1.341,1.341,0,0,0-1.71.822A28.392,28.392,0,0,1,4256.76,610a1.339,1.339,0,0,0,.478,1.835,1.324,1.324,0,0,0,.677.186,1.341,1.341,0,0,0,1.159-.663,31.072,31.072,0,0,0,2.482-5.407A1.341,1.341,0,0,0,4260.735,604.242Z"/><path class="b" d="M4274.343,589.484a9.56,9.56,0,0,0-6.452.614,1.341,1.341,0,1,0,1.11,2.442,6.869,6.869,0,0,1,4.663-.459,1.342,1.342,0,0,0,.679-2.6Z"/><path class="b" d="M4253.51,614.2a10.613,10.613,0,0,1-4.278,2.606,1.342,1.342,0,0,0,.377,2.629,1.377,1.377,0,0,0,.379-.053,13.256,13.256,0,0,0,5.373-3.238,1.342,1.342,0,1,0-1.851-1.944Z"/><path class="b" d="M4264.881,593.813a1.342,1.342,0,0,0-1.883.223,12.012,12.012,0,0,0-2.5,5.253l-.082.475a1.341,1.341,0,0,0,1.083,1.557,1.291,1.291,0,0,0,.238.021,1.343,1.343,0,0,0,1.319-1.1l.088-.505a9.463,9.463,0,0,1,1.961-4.037A1.336,1.336,0,0,0,4264.881,593.813Z"/><path class="b" d="M4281.686,594.941a20.616,20.616,0,0,0-1.887-2.165,1.341,1.341,0,1,0-1.885,1.909,17.645,17.645,0,0,1,1.637,1.88,1.341,1.341,0,1,0,2.135-1.624Z"/><path class="c" d="M4244.276,590.83a9.85,9.85,0,0,0-7.3,16.474,10.151,10.151,0,0,0,1.027,1l-1.352,3.069-1.323,3.011-3.922,8.91a2.684,2.684,0,1,0,4.912,2.164l3.66-8.316.2-.457.68-1.543.236-.54,1.824-4.14a10.026,10.026,0,0,0,1.362.1l.057,0a9.866,9.866,0,0,0-.057-19.731Zm1.291,16.926a7.229,7.229,0,0,1-1.292.123c-.074,0-.148-.011-.224-.013a7.13,7.13,0,0,1-2.039-.359c-.214-.072-.422-.152-.626-.242s-.406-.19-.6-.3a7.185,7.185,0,0,1-1.644-1.262,7.356,7.356,0,0,1-.94-1.2,7.177,7.177,0,1,1,7.367,3.248Z"/><path class="d" d="M4288.4,625.621a42.639,42.639,0,1,0-9.5,14.444A42.409,42.409,0,0,0,4288.4,625.621Zm-66.141,10.851a37.512,37.512,0,1,1,53.048,0A37.554,37.554,0,0,1,4222.259,636.472Z"/></g></svg>